<svg id="Grupo_1076326" data-name="Grupo 1076326" xmlns="http://www.w3.org/2000/svg" xmlns:xlink="http://www.w3.org/1999/xlink" width="294.603" height="175.205" viewBox="0 0 294.603 175.205">
  <defs>
    <clipPath id="clip-path">
      <rect id="Rectángulo_377986" data-name="Rectángulo 377986" width="294.602" height="175.205" fill="none"/>
    </clipPath>
    <clipPath id="clip-path-5">
      <rect id="Rectángulo_377963" data-name="Rectángulo 377963" width="5.248" height="11.273" fill="none"/>
    </clipPath>
    <clipPath id="clip-path-13">
      <rect id="Rectángulo_377983" data-name="Rectángulo 377983" width="10.786" height="19.569" fill="none"/>
    </clipPath>
  </defs>
  <g id="Enmascarar_grupo_1072827" data-name="Enmascarar grupo 1072827" clip-path="url(#clip-path)">
    <rect id="Rectángulo_377958" data-name="Rectángulo 377958" width="26.381" height="36.101" transform="translate(57.059 0.009)" fill="#f5f5f5"/>
    <rect id="Rectángulo_377959" data-name="Rectángulo 377959" width="26.381" height="36.1" transform="translate(50.372 4.554)" fill="#e0e0e0"/>
    <g id="Grupo_1072802" data-name="Grupo 1072802">
      <g id="Grupo_1072801" data-name="Grupo 1072801" clip-path="url(#clip-path)">
        <path id="Trazado_610277" data-name="Trazado 610277" d="M413.839,98.14s-.056,0-.17.007l-.51.007-1.987.014-7.453.026-25.724.04h-.069l-.02-.067a6.391,6.391,0,0,1,6.307-8.182l-.1.123a5.416,5.416,0,0,1-.2-1.727,5.692,5.692,0,0,1,2.945-4.8,5.824,5.824,0,0,1,5.451.03l-.133.047a8.484,8.484,0,0,1,4.992-4.65,7.965,7.965,0,0,1,6.328.3,8.636,8.636,0,0,1,3.918,4.28,8.179,8.179,0,0,1,.482,5.132l-.072-.082a6.122,6.122,0,0,1,2.978.427,6.227,6.227,0,0,1,2.209,1.514,3.973,3.973,0,0,1,.7,1,5.605,5.605,0,0,1,.37,1.059,9.446,9.446,0,0,1,.253,1.935,11,11,0,0,1-.232,2.675,6.107,6.107,0,0,1-.185.674c-.052.15-.08.221-.08.221" transform="translate(-212.747 -44.22)" fill="#e1fbff"/>
        <path id="Trazado_610278" data-name="Trazado 610278" d="M610.494,84.074a6.574,6.574,0,1,0,7.635,6.941h0l1.8-.3.962-2.026,1.407,1.632,2.258-.375.961-2.026,1.407,1.632,1.941-.322.586-1.235.858.995,1.13-.188,1.241-1.644-2.128-2.339L617.132,87.05a6.575,6.575,0,0,0-6.639-2.976m-3.661,7.272A1.886,1.886,0,1,1,609,92.9a1.886,1.886,0,0,1-2.169-1.551" transform="translate(-340.814 -47.311)" fill="#ebebeb"/>
        <path id="Trazado_610279" data-name="Trazado 610279" d="M602.317,197.865l.81,14.888a1,1,0,0,0,1,.95l26.79.2a1,1,0,0,0,1.012-1l.085-11.589a1,1,0,0,0-1-1.013l-16.476-.014a1.007,1.007,0,0,1-.71-.294l-2.843-2.842a1,1,0,0,0-.7-.294l-6.946-.051a1,1,0,0,0-1.011,1.06" transform="translate(-339.303 -110.866)" fill="#ebebeb"/>
        <rect id="Rectángulo_377960" data-name="Rectángulo 377960" width="17.492" height="29.272" transform="translate(263.328 104.96) rotate(-89.58)" fill="#f5f5f5"/>
        <path id="Trazado_610280" data-name="Trazado 610280" d="M597.966,202.934l2.1,18.257a.647.647,0,0,0,.638.572l28.527.209a.647.647,0,0,0,.649-.591l1.57-18.23a.646.646,0,0,0-.639-.7l-32.2-.236a.646.646,0,0,0-.647.72" transform="translate(-336.851 -113.913)" fill="#ebebeb"/>
        <path id="Trazado_610281" data-name="Trazado 610281" d="M584.137,327.052c-6.791-4.744-8.332-13.551-8.063-21.467.045-1.321-.1-2.714.528-3.874a2.691,2.691,0,0,1,3.278-1.395c.982.462,1.409,1.6,1.958,2.548a7.735,7.735,0,0,0,3.1,2.96,2.945,2.945,0,0,0,2.713.245c1.14-.629,1.274-2.2,1.266-3.518q-.023-3.674-.046-7.348a12.251,12.251,0,0,1,.4-3.9,4.077,4.077,0,0,1,2.562-2.756,2.472,2.472,0,0,1,3.06,1.657,12.159,12.159,0,0,1,.038,1.636,1.381,1.381,0,0,0,.809,1.3,1.589,1.589,0,0,0,1.443-.6,17.473,17.473,0,0,0,3.137-4.737,24.233,24.233,0,0,1,2.926-4.888,7.106,7.106,0,0,1,4.816-2.7,4.255,4.255,0,0,1,4.363,2.9c.477,1.853-.6,3.733-1.78,5.233a29.333,29.333,0,0,1-6.108,5.823,2.413,2.413,0,0,0-1.022,1.1c-.285.876.545,1.746,1.41,2.034a15.2,15.2,0,0,0,3.067.345,2.955,2.955,0,0,1,2.523,1.541c.538,1.343-.585,2.751-1.69,3.673a25.136,25.136,0,0,1-7.438,4.293,8.466,8.466,0,0,0-2.764,1.344,2.432,2.432,0,0,0-.779,2.786,2.476,2.476,0,0,0,2.693,1.035,17.507,17.507,0,0,0,2.884-1.1c1.806-.682,4.138-.558,5.3,1a4.161,4.161,0,0,1,.443,3.678,9.6,9.6,0,0,1-1.992,3.248,25.273,25.273,0,0,1-10.79,7.583c-4.189,1.453-8.072,1.846-12.235.323" transform="translate(-324.505 -157.847)" fill="#e1efe3"/>
        <path id="Trazado_610282" data-name="Trazado 610282" d="M594.338,334.348a57.7,57.7,0,0,1,2.148-10.832,117.675,117.675,0,0,1,4.674-12.679l1.4-3.261c.461-1.069.917-2.129,1.428-3.138a58.839,58.839,0,0,1,3.268-5.632c1.126-1.741,2.258-3.352,3.328-4.851s2.1-2.874,3.089-4.089a46.628,46.628,0,0,1,5.089-5.379c.648-.586,1.166-1.024,1.521-1.316l.406-.33a1.023,1.023,0,0,1,.144-.106.967.967,0,0,1-.128.125l-.39.348c-.344.3-.852.753-1.49,1.349a49.31,49.31,0,0,0-5.02,5.418c-.978,1.218-1.994,2.6-3.058,4.1s-2.186,3.116-3.3,4.856a59.436,59.436,0,0,0-3.242,5.617c-.507,1-.958,2.056-1.42,3.128l-1.394,3.259a120.648,120.648,0,0,0-4.684,12.647,58.73,58.73,0,0,0-2.19,10.784" transform="translate(-334.809 -159.274)" fill="#e0e0e0"/>
        <path id="Trazado_610283" data-name="Trazado 610283" d="M614.106,313.76a2.627,2.627,0,0,1-.128-.561c-.069-.363-.152-.892-.244-1.546-.186-1.309-.381-3.124-.588-5.127s-.427-3.812-.632-5.114c-.1-.651-.188-1.178-.252-1.541a.289.289,0,1,1,.091-.02c.093.358.207.881.328,1.531.249,1.3.5,3.111.705,5.117.2,1.977.38,3.765.517,5.132.066.617.123,1.137.167,1.554a2.69,2.69,0,0,1,.036.574" transform="translate(-344.862 -168.606)" fill="#e0e0e0"/>
        <path id="Trazado_610284" data-name="Trazado 610284" d="M633.484,325.161a3.683,3.683,0,0,1-.674.081c-.433.038-1.061.091-1.834.181-1.548.167-3.678.472-6.013.913s-4.431.936-5.937,1.336c-.755.195-1.361.369-1.781.486a3.622,3.622,0,0,1-.659.162,3.622,3.622,0,0,1,.631-.253c.412-.145,1.013-.345,1.764-.562,1.5-.444,3.6-.964,5.937-1.41a59.7,59.7,0,0,1,6.04-.844c.778-.068,1.41-.095,1.846-.1a3.593,3.593,0,0,1,.679.014" transform="translate(-347.343 -183.164)" fill="#e0e0e0"/>
        <path id="Trazado_610285" data-name="Trazado 610285" d="M588.755,347.573a.848.848,0,0,1-.116-.206l-.289-.611c-.249-.532-.588-1.311-1-2.279-.815-1.936-1.857-4.645-2.966-7.65s-2.126-5.722-2.9-7.671l-.923-2.307-.248-.629a.119.119,0,1,1,.045-.02l.289.611c.248.532.588,1.311.995,2.279.815,1.936,1.858,4.645,2.967,7.651s2.125,5.72,2.9,7.671c.379.948.691,1.727.923,2.307.1.252.181.459.248.629a.869.869,0,0,1,.071.226" transform="translate(-326.871 -183.641)" fill="#e0e0e0"/>
        <path id="Trazado_610286" data-name="Trazado 610286" d="M622.185,358.839a.909.909,0,0,1-.223.092l-.652.219-2.4.779c-2.03.659-4.823,1.6-7.909,2.644s-5.892,1.962-7.936,2.579c-1.022.309-1.851.55-2.428.7l-.665.175a.121.121,0,1,1-.014-.048l.652-.218,2.4-.779c2.03-.658,4.824-1.6,7.91-2.645s5.89-1.961,7.934-2.578c1.022-.309,1.852-.55,2.428-.705l.665-.175a.881.881,0,0,1,.237-.045" transform="translate(-337.848 -202.144)" fill="#e0e0e0"/>
      </g>
    </g>
    <g id="Grupo_1072804" data-name="Grupo 1072804">
      <g id="Grupo_1072803" data-name="Grupo 1072803" clip-path="url(#clip-path)">
        <path id="Trazado_610287" data-name="Trazado 610287" d="M296.074,400.824c0,.063-62.781.114-140.207.114-77.453,0-140.22-.051-140.22-.114s62.768-.114,140.22-.114c77.427,0,140.207.051,140.207.114" transform="translate(-8.814 -225.733)" fill="#263238"/>
      </g>
    </g>
    <g id="Grupo_1072809" data-name="Grupo 1072809">
      <g id="Grupo_1072808" data-name="Grupo 1072808" clip-path="url(#clip-path)">
        <path id="Trazado_610288" data-name="Trazado 610288" d="M582.7,352.272a1.836,1.836,0,0,0,2.739-.079,5.178,5.178,0,0,0,1.039-2.436,12.655,12.655,0,0,0,.409-6.046,3.346,3.346,0,0,0-.85-1.6,1.746,1.746,0,0,0-1.681-.466,2.554,2.554,0,0,0-1.368,1.59,14.342,14.342,0,0,0-1.1,6.219,4.977,4.977,0,0,0,.816,2.813" transform="translate(-327.784 -192.426)" fill="#0c5e46"/>
        <g id="Grupo_1072807" data-name="Grupo 1072807" transform="translate(254.082 149.16)" opacity="0.2">
          <g id="Grupo_1072806" data-name="Grupo 1072806">
            <g id="Grupo_1072805" data-name="Grupo 1072805" clip-path="url(#clip-path-5)">
              <path id="Trazado_610289" data-name="Trazado 610289" d="M582.7,352.272a1.836,1.836,0,0,0,2.739-.079,5.178,5.178,0,0,0,1.039-2.436,12.655,12.655,0,0,0,.409-6.046,3.346,3.346,0,0,0-.85-1.6,1.746,1.746,0,0,0-1.681-.466,2.554,2.554,0,0,0-1.368,1.59,14.342,14.342,0,0,0-1.1,6.219,4.977,4.977,0,0,0,.816,2.813" transform="translate(-581.867 -341.586)"/>
            </g>
          </g>
        </g>
        <path id="Trazado_610290" data-name="Trazado 610290" d="M588.829,376.622a6.177,6.177,0,0,1,3.8-.658,3.185,3.185,0,0,1,1.933.748,1.361,1.361,0,0,1,.115,1.886,1.813,1.813,0,0,1-1.176.363c-1.012.039-2.143-.082-2.921.567-.443.371-.721.963-1.264,1.162a1.3,1.3,0,0,1-1.466-.566,2.229,2.229,0,0,1-.245-1.636,2.512,2.512,0,0,1,1.222-1.867" transform="translate(-330.988 -211.762)" fill="#0c5e46"/>
        <path id="Trazado_610291" data-name="Trazado 610291" d="M568.416,358.76a3.7,3.7,0,0,0,.4-3.433,6.564,6.564,0,0,0-2.164-2.822,10.864,10.864,0,0,0-3.717-1.948,3.855,3.855,0,0,0-1.638-.194,1.707,1.707,0,0,0-1.321.893,2.552,2.552,0,0,0,.5,2.3,27.5,27.5,0,0,0,2.554,3.491,6.427,6.427,0,0,0,2.72,2.1,2.367,2.367,0,0,0,2.763-.527" transform="translate(-315.382 -197.356)" fill="#0c5e46"/>
        <path id="Trazado_610292" data-name="Trazado 610292" d="M585.38,388.781a2.2,2.2,0,0,0,.041-.465c.016-.338.035-.762.059-1.267a18.179,18.179,0,0,1,.19-1.863,14.293,14.293,0,0,1,.562-2.216,8.05,8.05,0,0,1,1.014-2.031,4.169,4.169,0,0,1,1.35-1.242,3.952,3.952,0,0,1,1.168-.429,2.188,2.188,0,0,0,.456-.09,2.167,2.167,0,0,0-.468.017,3.592,3.592,0,0,0-1.221.384,4.156,4.156,0,0,0-1.426,1.257,7.853,7.853,0,0,0-1.053,2.072,13.358,13.358,0,0,0-.555,2.251,15.7,15.7,0,0,0-.151,1.885c-.013.538-.006.972,0,1.272a2.155,2.155,0,0,0,.033.466" transform="translate(-329.739 -213.599)" fill="#263238"/>
        <path id="Trazado_610293" data-name="Trazado 610293" d="M585.13,371.915a.91.91,0,0,0,0-.215c-.009-.161-.02-.364-.033-.613-.028-.531-.067-1.3-.086-2.253-.049-1.9-.018-4.536.152-7.436s.463-5.518.754-7.4c.067-.471.138-.9.205-1.268s.118-.694.172-.955l.113-.6a.108.108,0,1,0-.038-.009l-.148.6c-.066.259-.131.579-.2.951s-.158.8-.234,1.266a69.651,69.651,0,0,0-.812,7.409c-.171,2.906-.18,5.545-.1,7.451.037.953.1,1.724.147,2.255.028.248.051.45.069.611a.9.9,0,0,0,.037.211" transform="translate(-329.451 -197.707)" fill="#263238"/>
        <path id="Trazado_610294" data-name="Trazado 610294" d="M575.278,369.435a4.065,4.065,0,0,0-.037-.64c-.045-.41-.131-1-.284-1.724a22.839,22.839,0,0,0-.692-2.5,22.494,22.494,0,0,0-1.208-2.937,15.958,15.958,0,0,0-3.348-4.675,7.9,7.9,0,0,0-.764-.641c-.117-.089-.221-.179-.325-.248l-.293-.181a4.059,4.059,0,0,0-.557-.318,19.1,19.1,0,0,1,1.847,1.487,16.81,16.81,0,0,1,3.269,4.662,23.855,23.855,0,0,1,1.213,2.909,25.662,25.662,0,0,1,.727,2.472c.169.714.275,1.3.342,1.7a4.116,4.116,0,0,0,.11.63" transform="translate(-319.843 -200.304)" fill="#263238"/>
      </g>
    </g>
    <rect id="Rectángulo_377965" data-name="Rectángulo 377965" width="49.369" height="33.065" transform="translate(0.114 77.069)" fill="#fafafa"/>
    <g id="Grupo_1072811" data-name="Grupo 1072811">
      <g id="Grupo_1072810" data-name="Grupo 1072810" clip-path="url(#clip-path)">
        <path id="Trazado_610295" data-name="Trazado 610295" d="M70.321,206.061H69.005v-7.914a3.447,3.447,0,0,0-6.895,0v7.914H60.795v-7.914a4.763,4.763,0,0,1,9.526,0Z" transform="translate(-34.248 -108.939)" fill="#263238"/>
        <path id="Trazado_610296" data-name="Trazado 610296" d="M68.332,222.709H58.27a1.481,1.481,0,0,1-1.481-1.481v-5.393a1.481,1.481,0,0,1,1.481-1.481H68.332a1.481,1.481,0,0,1,1.481,1.481v5.393a1.481,1.481,0,0,1-1.481,1.481" transform="translate(-31.991 -120.752)" fill="#263238"/>
        <path id="Trazado_610297" data-name="Trazado 610297" d="M70.3,221.112a1.089,1.089,0,1,1,1.089-1.089,1.089,1.089,0,0,1-1.089,1.089" transform="translate(-38.988 -123.333)" fill="#455a64"/>
        <rect id="Rectángulo_377966" data-name="Rectángulo 377966" width="0.594" height="2.239" transform="translate(31.013 97.122)" fill="#455a64"/>
        <path id="Trazado_610298" data-name="Trazado 610298" d="M42.036,209.08a5.271,5.271,0,0,0,3.141-4.876,4.953,4.953,0,1,0-9.886-.046,5.263,5.263,0,0,0,3.15,4.922c-7.607,1.146-7.261,9.413-7.261,9.413l17.987.083s.41-8.357-7.13-9.5" transform="translate(-17.563 -112.052)" fill="#afafaf"/>
        <path id="Trazado_610299" data-name="Trazado 610299" d="M49.482,209.41s-.007-.208-.01-.6-.006-.984-.01-1.747c-.005-1.533-.013-3.778-.023-6.652-.011-5.746-.028-14-.048-24.063l.091.091-49.365.023h0l.114-.114c0,11.78-.007,22.981-.009,33.065l-.1-.1,35.56.052,10.164.028,2.705.013.7.006c.158,0,.241.006.241.006s-.075,0-.229.006l-.687.006-2.684.013-10.14.028-35.628.051H.01v-.1c0-10.084-.007-21.285-.01-33.065v-.114H.117l49.365.023h.091v.091c-.02,10.087-.036,18.361-.048,24.119-.01,2.865-.018,5.1-.023,6.632,0,.755-.008,1.334-.01,1.729s-.01.585-.01.585" transform="translate(0 -99.276)" fill="#263238"/>
        <path id="Trazado_610300" data-name="Trazado 610300" d="M49.648,185.442c0,.063-11.045.114-24.666.114S.313,185.5.313,185.442s11.042-.114,24.669-.114,24.666.051,24.666.114" transform="translate(-0.176 -104.401)" fill="#263238"/>
        <path id="Trazado_610301" data-name="Trazado 610301" d="M6.389,180.39a.51.51,0,1,1-.51-.51.51.51,0,0,1,.51.51" transform="translate(-3.025 -101.332)" fill="#263238"/>
        <path id="Trazado_610302" data-name="Trazado 610302" d="M10.216,180.39a.51.51,0,1,1-.51-.51.51.51,0,0,1,.51.51" transform="translate(-5.18 -101.332)" fill="#263238"/>
        <path id="Trazado_610303" data-name="Trazado 610303" d="M14.33,180.39a.51.51,0,1,1-.51-.51.51.51,0,0,1,.51.51" transform="translate(-7.498 -101.332)" fill="#263238"/>
        <path id="Trazado_610304" data-name="Trazado 610304" d="M49.482,209.41s-.007-.208-.01-.6-.006-.984-.01-1.747c-.005-1.533-.013-3.778-.023-6.652-.011-5.746-.028-14-.048-24.063l.091.091-49.365.023h0l.114-.114c0,11.78-.007,22.981-.009,33.065l-.1-.1,35.56.052,10.164.028,2.705.013.7.006c.158,0,.241.006.241.006s-.075,0-.229.006l-.687.006-2.684.013-10.14.028-35.628.051H.01v-.1c0-10.084-.007-21.285-.01-33.065v-.114H.117l49.365.023h.091v.091c-.02,10.087-.036,18.361-.048,24.119-.01,2.865-.018,5.1-.023,6.632,0,.755-.008,1.334-.01,1.729s-.01.585-.01.585" transform="translate(0 -99.276)" fill="#263238"/>
        <path id="Trazado_610305" data-name="Trazado 610305" d="M55.913,253.306c-.063,0-.114-.245-.114-.546s.051-.546.114-.546.114.244.114.546-.051.546-.114.546" transform="translate(-31.433 -142.08)" fill="#263238"/>
        <path id="Trazado_610306" data-name="Trazado 610306" d="M55.913,262.574a6.314,6.314,0,0,1,0-2.389,6.338,6.338,0,0,1,0,2.389" transform="translate(-31.433 -146.57)" fill="#263238"/>
        <path id="Trazado_610307" data-name="Trazado 610307" d="M55.913,273.515a6.314,6.314,0,0,1,0-2.389,6.338,6.338,0,0,1,0,2.389" transform="translate(-31.433 -152.734)" fill="#263238"/>
        <path id="Trazado_610308" data-name="Trazado 610308" d="M55.913,284.456a6.314,6.314,0,0,1,0-2.389,6.338,6.338,0,0,1,0,2.389" transform="translate(-31.433 -158.897)" fill="#263238"/>
        <path id="Trazado_610309" data-name="Trazado 610309" d="M55.913,295.4a6.314,6.314,0,0,1,0-2.389,6.338,6.338,0,0,1,0,2.389" transform="translate(-31.433 -165.06)" fill="#263238"/>
        <path id="Trazado_610310" data-name="Trazado 610310" d="M56.992,305.04a2.719,2.719,0,0,1-1.092.114l-.114-.114h0v-.11l0-.109c0-.065,0-.132.007-.2.006-.131.014-.248.024-.347.021-.2.049-.32.08-.32s.06.122.08.32c.01.1.019.217.024.347,0,.073,0,.14.007.2l0,.109v.11h0l-.114-.113a2.718,2.718,0,0,1,1.092.114" transform="translate(-31.42 -171.223)" fill="#263238"/>
        <path id="Trazado_610311" data-name="Trazado 610311" d="M65.618,306.3a5.123,5.123,0,0,1-2.145,0,5.124,5.124,0,0,1,2.145,0" transform="translate(-35.756 -172.485)" fill="#263238"/>
        <path id="Trazado_610312" data-name="Trazado 610312" d="M75.445,306.3a5.123,5.123,0,0,1-2.145,0,5.124,5.124,0,0,1,2.145,0" transform="translate(-41.292 -172.485)" fill="#263238"/>
        <path id="Trazado_610313" data-name="Trazado 610313" d="M85.272,306.3a5.123,5.123,0,0,1-2.145,0,5.125,5.125,0,0,1,2.145,0" transform="translate(-46.828 -172.485)" fill="#263238"/>
        <path id="Trazado_610314" data-name="Trazado 610314" d="M95.1,306.3a5.123,5.123,0,0,1-2.145,0,5.124,5.124,0,0,1,2.145,0" transform="translate(-52.364 -172.485)" fill="#263238"/>
        <path id="Trazado_610315" data-name="Trazado 610315" d="M104.926,306.3a5.123,5.123,0,0,1-2.145,0,5.125,5.125,0,0,1,2.145,0" transform="translate(-57.9 -172.485)" fill="#263238"/>
        <path id="Trazado_610316" data-name="Trazado 610316" d="M114.753,306.3a5.123,5.123,0,0,1-2.145,0,5.125,5.125,0,0,1,2.145,0" transform="translate(-63.436 -172.485)" fill="#263238"/>
        <path id="Trazado_610317" data-name="Trazado 610317" d="M124.58,306.3a5.123,5.123,0,0,1-2.145,0,5.125,5.125,0,0,1,2.145,0" transform="translate(-68.971 -172.485)" fill="#263238"/>
        <path id="Trazado_610318" data-name="Trazado 610318" d="M134.406,306.3a5.123,5.123,0,0,1-2.145,0,5.124,5.124,0,0,1,2.145,0" transform="translate(-74.507 -172.485)" fill="#263238"/>
        <path id="Trazado_610319" data-name="Trazado 610319" d="M144.233,306.3a5.123,5.123,0,0,1-2.145,0,5.125,5.125,0,0,1,2.145,0" transform="translate(-80.043 -172.485)" fill="#263238"/>
        <path id="Trazado_610320" data-name="Trazado 610320" d="M154.06,306.3a5.123,5.123,0,0,1-2.145,0,5.125,5.125,0,0,1,2.145,0" transform="translate(-85.578 -172.485)" fill="#263238"/>
        <path id="Trazado_610321" data-name="Trazado 610321" d="M162.834,306.3c0,.063-.245.114-.546.114s-.546-.051-.546-.114.245-.114.546-.114.546.051.546.114" transform="translate(-91.114 -172.485)" fill="#263238"/>
      </g>
    </g>
    <rect id="Rectángulo_377968" data-name="Rectángulo 377968" width="26.381" height="36.101" transform="translate(45.852 10.098)" fill="#fff"/>
    <g id="Grupo_1072813" data-name="Grupo 1072813">
      <g id="Grupo_1072812" data-name="Grupo 1072812" clip-path="url(#clip-path)">
        <path id="Trazado_610322" data-name="Trazado 610322" d="M131.211,59.05s0-.062-.007-.178,0-.292-.007-.51c0-.457-.009-1.117-.016-1.973-.009-1.728-.021-4.24-.037-7.416-.019-6.354-.046-15.362-.078-26.024l.119.119-26.378.031h0l.131-.132c0,13.485,0,25.969,0,36.1l-.107-.107L123.986,59l5.331.024,1.405.011c.319,0,.489.011.489.011s-.155.008-.466.012l-1.385.013-5.307.031-19.224.069h-.107v-.107c-.014-10.132-.031-22.616-.05-36.1v-.132h.134l26.378-.007h.12v.119c-.017,10.693-.031,19.729-.041,26.1-.011,3.165-.021,5.667-.027,7.388-.006.846-.01,1.5-.013,1.95,0,.213-.005.377-.007.5a1.362,1.362,0,0,1-.007.164" transform="translate(-58.965 -12.861)" fill="#263238"/>
        <path id="Trazado_610323" data-name="Trazado 610323" d="M125.4,39.573c0,.073-2.87.134-6.41.136s-6.41-.054-6.41-.127,2.869-.134,6.41-.136,6.41.055,6.41.127" transform="translate(-63.417 -22.221)" fill="#263238"/>
        <path id="Trazado_610324" data-name="Trazado 610324" d="M132.333,46.748c0,.073-4.423.135-9.877.139s-9.877-.052-9.877-.124,4.421-.135,9.877-.139,9.877.052,9.877.124" transform="translate(-63.419 -26.265)" fill="#263238"/>
        <path id="Trazado_610325" data-name="Trazado 610325" d="M132.339,54.242c0,.073-4.422.135-9.877.139s-9.877-.052-9.877-.124,4.422-.135,9.877-.139,9.877.052,9.877.124" transform="translate(-63.423 -30.486)" fill="#263238"/>
        <path id="Trazado_610326" data-name="Trazado 610326" d="M132.344,61.737c0,.073-4.422.135-9.876.139s-9.878-.052-9.878-.124,4.421-.135,9.877-.139,9.877.052,9.877.124" transform="translate(-63.425 -34.708)" fill="#263238"/>
        <path id="Trazado_610327" data-name="Trazado 610327" d="M132.35,69.231c0,.073-4.422.135-9.877.139s-9.877-.052-9.877-.124,4.421-.135,9.877-.139,9.877.052,9.877.124" transform="translate(-63.429 -38.93)" fill="#263238"/>
        <path id="Trazado_610328" data-name="Trazado 610328" d="M132.355,76.726c0,.073-4.422.135-9.877.139s-9.877-.052-9.877-.124,4.421-.135,9.877-.139,9.877.052,9.877.124" transform="translate(-63.432 -43.152)" fill="#263238"/>
        <path id="Trazado_610329" data-name="Trazado 610329" d="M132.36,84.22c0,.072-4.422.135-9.877.139s-9.877-.052-9.877-.125,4.421-.134,9.877-.138,9.877.052,9.877.124" transform="translate(-63.435 -47.374)" fill="#263238"/>
        <path id="Trazado_610330" data-name="Trazado 610330" d="M123.23,91.726c0,.073-2.377.133-5.309.135s-5.309-.055-5.309-.128,2.377-.133,5.309-.135,5.309.055,5.309.128" transform="translate(-63.438 -51.6)" fill="#263238"/>
        <path id="Trazado_610331" data-name="Trazado 610331" d="M158.61,92.6a5.359,5.359,0,1,1-5.359-5.359A5.359,5.359,0,0,1,158.61,92.6" transform="translate(-83.313 -49.147)" fill="#0c5e46"/>
        <path id="Trazado_610332" data-name="Trazado 610332" d="M159.627,94.751c.23.214-.823,1.714-2.35,3.349-.246.263-.489.514-.72.744l-.371.368-.369-.31c-1.333-1.12-2.2-2.079-2.043-2.287s1.306.4,2.719,1.42l-.739.059c.213-.247.447-.507.693-.769,1.527-1.635,2.952-2.788,3.181-2.573" transform="translate(-86.615 -53.362)" fill="#e0e0e0"/>
        <path id="Trazado_610333" data-name="Trazado 610333" d="M130.493,107.487a5.3,5.3,0,0,1,0-2.183,5.306,5.306,0,0,1,0,2.183" transform="translate(-73.447 -59.321)" fill="#263238"/>
        <path id="Trazado_610334" data-name="Trazado 610334" d="M130.493,117.487a5.3,5.3,0,0,1,0-2.183,5.306,5.306,0,0,1,0,2.183" transform="translate(-73.447 -64.954)" fill="#263238"/>
        <path id="Trazado_610335" data-name="Trazado 610335" d="M130.493,127.487a5.3,5.3,0,0,1,0-2.183,5.306,5.306,0,0,1,0,2.183" transform="translate(-73.447 -70.588)" fill="#263238"/>
        <path id="Trazado_610336" data-name="Trazado 610336" d="M130.493,137.487a5.3,5.3,0,0,1,0-2.183,5.306,5.306,0,0,1,0,2.183" transform="translate(-73.447 -76.221)" fill="#263238"/>
        <path id="Trazado_610337" data-name="Trazado 610337" d="M130.493,147.487a5.3,5.3,0,0,1,0-2.183,5.306,5.306,0,0,1,0,2.183" transform="translate(-73.447 -81.854)" fill="#263238"/>
        <path id="Trazado_610338" data-name="Trazado 610338" d="M130.493,157.487a5.3,5.3,0,0,1,0-2.183,5.306,5.306,0,0,1,0,2.183" transform="translate(-73.447 -87.488)" fill="#263238"/>
        <path id="Trazado_610339" data-name="Trazado 610339" d="M130.493,167.487a5.3,5.3,0,0,1,0-2.183,5.306,5.306,0,0,1,0,2.183" transform="translate(-73.447 -93.121)" fill="#263238"/>
        <path id="Trazado_610340" data-name="Trazado 610340" d="M130.493,177.487a5.3,5.3,0,0,1,0-2.183,5.306,5.306,0,0,1,0,2.183" transform="translate(-73.447 -98.754)" fill="#263238"/>
        <path id="Trazado_610341" data-name="Trazado 610341" d="M132.683,185.333a2.714,2.714,0,0,1-1.092.114,5.127,5.127,0,0,1-1.015-.072l-.048-.014.007-.028c.013-.05.027-.076.041-.076s.028.026.041.076l-.041-.041a5.128,5.128,0,0,1,1.015-.072,2.718,2.718,0,0,1,1.092.114" transform="translate(-73.531 -104.34)" fill="#263238"/>
        <path id="Trazado_610342" data-name="Trazado 610342" d="M142.647,185.333a5.285,5.285,0,0,1-2.183,0,5.3,5.3,0,0,1,2.183,0" transform="translate(-79.128 -104.34)" fill="#263238"/>
        <path id="Trazado_610343" data-name="Trazado 610343" d="M152.647,185.333a5.285,5.285,0,0,1-2.183,0,5.3,5.3,0,0,1,2.183,0" transform="translate(-84.761 -104.34)" fill="#263238"/>
        <path id="Trazado_610344" data-name="Trazado 610344" d="M162.647,185.333a5.285,5.285,0,0,1-2.183,0,5.3,5.3,0,0,1,2.183,0" transform="translate(-90.394 -104.34)" fill="#263238"/>
        <path id="Trazado_610345" data-name="Trazado 610345" d="M172.647,185.333a5.285,5.285,0,0,1-2.183,0,5.3,5.3,0,0,1,2.183,0" transform="translate(-96.028 -104.34)" fill="#263238"/>
      </g>
    </g>
    <g id="Grupo_1072815" data-name="Grupo 1072815">
      <g id="Grupo_1072814" data-name="Grupo 1072814" clip-path="url(#clip-path)">
        <path id="Trazado_610346" data-name="Trazado 610346" d="M341.872,92.2a5.3,5.3,0,0,1,0-2.182,5.3,5.3,0,0,1,0,2.182" transform="translate(-192.523 -50.712)" fill="#263238"/>
        <path id="Trazado_610347" data-name="Trazado 610347" d="M341.872,102.2a5.306,5.306,0,0,1,0-2.183,5.306,5.306,0,0,1,0,2.183" transform="translate(-192.523 -56.343)" fill="#263238"/>
        <path id="Trazado_610348" data-name="Trazado 610348" d="M341.872,112.2a5.3,5.3,0,0,1,0-2.182,5.3,5.3,0,0,1,0,2.182" transform="translate(-192.523 -61.976)" fill="#263238"/>
        <path id="Trazado_610349" data-name="Trazado 610349" d="M341.872,122.2a5.3,5.3,0,0,1,0-2.182,5.3,5.3,0,0,1,0,2.182" transform="translate(-192.523 -67.607)" fill="#263238"/>
        <path id="Trazado_610350" data-name="Trazado 610350" d="M341.872,132.2a5.31,5.31,0,0,1,0-2.184,5.31,5.31,0,0,1,0,2.184" transform="translate(-192.523 -73.239)" fill="#263238"/>
        <path id="Trazado_610351" data-name="Trazado 610351" d="M341.872,142.2a5.306,5.306,0,0,1,0-2.183,5.306,5.306,0,0,1,0,2.183" transform="translate(-192.523 -78.877)" fill="#263238"/>
        <path id="Trazado_610352" data-name="Trazado 610352" d="M341.872,152.2a5.306,5.306,0,0,1,0-2.183,5.306,5.306,0,0,1,0,2.183" transform="translate(-192.523 -84.51)" fill="#263238"/>
        <path id="Trazado_610353" data-name="Trazado 610353" d="M341.872,162.2a5.314,5.314,0,0,1,0-2.185,5.314,5.314,0,0,1,0,2.185" transform="translate(-192.523 -90.144)" fill="#263238"/>
        <path id="Trazado_610354" data-name="Trazado 610354" d="M339.258,63.069s-.085.007-.258.01l-.772.01-3.009.02-11.285.04-38.947.06h-.1l-.03-.1A9.676,9.676,0,0,1,294.4,50.72l-.145.186a8.2,8.2,0,0,1-.3-2.615,8.615,8.615,0,0,1,4.46-7.264,8.814,8.814,0,0,1,8.252.045l-.2.071a12.845,12.845,0,0,1,7.558-7.04,12.061,12.061,0,0,1,9.581.452,13.073,13.073,0,0,1,5.932,6.48,12.381,12.381,0,0,1,.73,7.77l-.109-.124a9.265,9.265,0,0,1,4.509.646,9.427,9.427,0,0,1,3.345,2.292,6.022,6.022,0,0,1,1.053,1.51,8.49,8.49,0,0,1,.561,1.6,14.269,14.269,0,0,1,.383,2.93,16.638,16.638,0,0,1-.351,4.051,9.292,9.292,0,0,1-.28,1.021c-.078.227-.121.334-.121.334" transform="translate(-160.255 -18.775)" fill="#6debff"/>
        <path id="Trazado_610355" data-name="Trazado 610355" d="M382.908,46.285h-1.682V36.17a4.406,4.406,0,0,0-8.812,0V46.285h-1.682V36.17a6.087,6.087,0,0,1,12.175,0Z" transform="translate(-208.846 -16.947)" fill="#e0e0e0"/>
        <path id="Trazado_610356" data-name="Trazado 610356" d="M380.779,67.561H367.1a1.481,1.481,0,0,1-1.481-1.481V58.363a1.481,1.481,0,0,1,1.481-1.481h13.683a1.481,1.481,0,0,1,1.481,1.481V66.08a1.481,1.481,0,0,1-1.481,1.481" transform="translate(-205.962 -32.043)" fill="#e0e0e0"/>
        <path id="Trazado_610357" data-name="Trazado 610357" d="M382.879,65.52a1.391,1.391,0,1,1,1.391-1.391,1.391,1.391,0,0,1-1.391,1.391" transform="translate(-214.904 -35.342)" fill="#455a64"/>
        <rect id="Rectángulo_377970" data-name="Rectángulo 377970" width="0.759" height="2.861" transform="translate(167.596 29.338)" fill="#455a64"/>
      </g>
    </g>
    <g id="Grupo_1072817" data-name="Grupo 1072817">
      <g id="Grupo_1072816" data-name="Grupo 1072816" clip-path="url(#clip-path)">
        <path id="Trazado_610358" data-name="Trazado 610358" d="M582.969,39.163A9.106,9.106,0,1,0,568.839,37l-1.853,1.729.443,3.075L564.554,41l-2.318,2.163.442,3.075-2.875-.806-1.993,1.859.27,1.874-1.752-.491-1.16,1.082-.174,2.848,4.248,1.069,13.784-12.86a9.109,9.109,0,0,0,9.942-1.651m-1.346-11.2a2.612,2.612,0,1,1-3.692-.128,2.612,2.612,0,0,1,3.692.128" transform="translate(-312.646 -13.181)" fill="#263238"/>
        <path id="Trazado_610359" data-name="Trazado 610359" d="M610,32.691c-.017.017-.171-.159-.519-.373a2.606,2.606,0,0,0-1.644-.361,2.514,2.514,0,1,0,2.746,2.943,2.606,2.606,0,0,0-.246-1.665c-.19-.362-.355-.528-.337-.543s.049.033.125.113a2,2,0,0,1,.289.387,2.6,2.6,0,0,1,.327,1.735,2.693,2.693,0,0,1-3.157,2.22,2.7,2.7,0,0,1-2.2-2.355,2.693,2.693,0,0,1,2.433-3,2.6,2.6,0,0,1,1.708.447,2,2,0,0,1,.367.315c.074.082.11.128.1.133" transform="translate(-341.024 -17.907)" fill="#263238"/>
        <path id="Trazado_610360" data-name="Trazado 610360" d="M582.825,39.058s-.042.045-.131.126l-.4.358a9.55,9.55,0,0,1-1.762,1.12,9.168,9.168,0,0,1-7.676.11l.075-.012L559.169,53.644l-.041.038-.054-.014L554.825,52.6l-.086-.022.005-.088c.053-.888.112-1.862.172-2.848l0-.043.032-.03,1.159-1.083.045-.042.059.017,1.752.49-.139.122c-.085-.585-.177-1.227-.271-1.874l-.008-.058.043-.04,1.992-1.859.046-.043.061.017,2.875.805-.143.125c-.14-.975-.291-2.021-.443-3.075l-.009-.059.044-.041.614-.573,1.7-1.589.047-.044.062.017,2.875.807-.142.125-.442-3.075-.008-.058.043-.04,1.854-1.727-.021.136a9.3,9.3,0,0,1-1.184-4.146,8.825,8.825,0,0,1,.151-2.107,8.933,8.933,0,0,1,.606-1.981,9.174,9.174,0,0,1,17.565,4.4,9,9,0,0,1-1.022,3.506l-.169.324-.187.289c-.124.184-.227.365-.346.517-.245.3-.434.562-.62.747l-.421.42c-.1.093-.148.138-.148.138s.043-.054.133-.152l.406-.433c.18-.189.362-.457.6-.755.115-.152.215-.334.335-.518l.182-.289.164-.324a9.119,9.119,0,0,0,.066-8.186,9.022,9.022,0,0,0-16.347.4,8.734,8.734,0,0,0-.589,1.936,8.605,8.605,0,0,0-.144,2.058,9.073,9.073,0,0,0,1.16,4.046l.043.077-.064.059-1.852,1.729.034-.1q.219,1.521.443,3.075l.025.172-.167-.047L564.379,41l.108-.026-1.7,1.589-.614.573.035-.1.442,3.075.025.172-.168-.047-2.875-.807.107-.026-1.993,1.858.034-.1c.093.647.185,1.289.269,1.875l.024.168-.164-.046-1.752-.492.1-.025-1.16,1.081.034-.073c-.061.987-.121,1.96-.176,2.848l-.08-.11,4.247,1.073-.095.024,13.807-12.836.034-.031.041.019a9.125,9.125,0,0,0,7.588-.052,10.007,10.007,0,0,0,1.77-1.083l.412-.342c.093-.076.144-.112.144-.112" transform="translate(-312.502 -13.076)" fill="#263238"/>
        <path id="Trazado_610361" data-name="Trazado 610361" d="M582.27,36.8a9.106,9.106,0,1,0-14.13-2.161l0,0-1.851,1.726.443,3.075-2.875-.806L561.536,40.8l.443,3.075-2.875-.806-1.992,1.859.27,1.874-1.752-.491-1.16,1.083-.174,2.848,4.248,1.069,13.784-12.86A9.109,9.109,0,0,0,582.27,36.8m-1.346-11.2a2.612,2.612,0,1,1-3.692-.128,2.612,2.612,0,0,1,3.692.128" transform="translate(-312.252 -11.848)" fill="#e0e0e0"/>
        <path id="Trazado_610362" data-name="Trazado 610362" d="M609.3,30.324c-.017.017-.171-.159-.519-.373a2.606,2.606,0,0,0-1.644-.361,2.514,2.514,0,1,0,2.746,2.943,2.607,2.607,0,0,0-.246-1.665c-.19-.362-.355-.528-.337-.544s.048.033.125.113a2.006,2.006,0,0,1,.289.388,2.6,2.6,0,0,1,.328,1.734,2.693,2.693,0,0,1-3.157,2.22,2.7,2.7,0,0,1-2.2-2.355,2.693,2.693,0,0,1,2.433-3,2.6,2.6,0,0,1,1.708.447,2.016,2.016,0,0,1,.367.315c.074.082.11.128.1.133" transform="translate(-340.63 -16.573)" fill="#263238"/>
        <path id="Trazado_610363" data-name="Trazado 610363" d="M582.125,36.691s-.042.045-.131.126l-.4.358a9.552,9.552,0,0,1-1.762,1.12,9.168,9.168,0,0,1-7.676.11l.075-.012L558.469,51.277l-.041.038-.054-.014-4.249-1.065-.086-.022.006-.088c.053-.888.112-1.862.171-2.848l0-.043.032-.03,1.159-1.083.045-.042.059.017,1.752.49-.139.122c-.085-.585-.177-1.227-.271-1.874l-.008-.058.043-.04,1.992-1.859.046-.043.061.017,2.875.805-.143.125c-.141-.975-.291-2.021-.443-3.075l-.009-.059.044-.041.614-.573,1.7-1.589.047-.044.062.017,2.875.807-.143.125q-.223-1.554-.441-3.075l-.008-.058.043-.04,1.854-1.727-.021.136a9.292,9.292,0,0,1-1.184-4.146,9.3,9.3,0,0,1,.757-4.088,9.174,9.174,0,0,1,17.565,4.4,9,9,0,0,1-1.022,3.506l-.169.324-.187.289c-.124.184-.227.365-.345.517-.245.3-.434.562-.62.747l-.421.421c-.1.093-.147.138-.147.138s.043-.054.133-.152l.405-.433c.18-.189.363-.457.6-.755.115-.152.215-.334.335-.518l.182-.289.164-.324a9.118,9.118,0,0,0,.066-8.186,9.022,9.022,0,0,0-16.347.4,8.721,8.721,0,0,0-.589,1.936,8.627,8.627,0,0,0-.145,2.058,9.086,9.086,0,0,0,1.16,4.046l.043.077-.064.059-1.852,1.729.035-.1q.219,1.521.443,3.075l.025.172-.167-.047-2.875-.806.108-.026-1.7,1.589-.614.573.035-.1.442,3.075.025.172-.168-.047-2.875-.807.107-.026L557.043,44.9l.034-.1c.093.647.185,1.289.269,1.875l.024.168-.164-.046-1.752-.492.1-.025-1.16,1.081.034-.073c-.061.986-.121,1.96-.176,2.848l-.08-.11,4.247,1.073-.095.024,13.807-12.836.034-.031.042.019a9.13,9.13,0,0,0,7.588-.052,10.009,10.009,0,0,0,1.77-1.083l.412-.342c.093-.076.144-.112.144-.112" transform="translate(-312.108 -11.742)" fill="#263238"/>
        <path id="Trazado_610364" data-name="Trazado 610364" d="M598.911,37.467a12.459,12.459,0,0,0,1.223-1.543,7.658,7.658,0,0,0,.936-2.1,7.932,7.932,0,0,0-4.033-9.263,7.434,7.434,0,0,0-2.153-.727,7.236,7.236,0,0,0-2.368-.076,7.87,7.87,0,0,0-6.833,6.374,7.218,7.218,0,0,0-.089,2.368,7.43,7.43,0,0,0,.576,2.2,7.952,7.952,0,0,0,8.961,4.665,7.654,7.654,0,0,0,2.156-.789,12.432,12.432,0,0,0,1.623-1.113.544.544,0,0,1-.092.093l-.285.255a3.7,3.7,0,0,1-.489.385,5.591,5.591,0,0,1-.716.459,7.58,7.58,0,0,1-2.172.836,8.08,8.08,0,0,1-6.52-1.358,8.126,8.126,0,0,1-2.661-3.349,7.629,7.629,0,0,1-.6-2.256,7.425,7.425,0,0,1,.086-2.434,8.076,8.076,0,0,1,7.026-6.554,7.443,7.443,0,0,1,2.434.083,7.614,7.614,0,0,1,2.209.754,8.124,8.124,0,0,1,3.157,2.886,8.081,8.081,0,0,1,.9,6.6,7.565,7.565,0,0,1-.984,2.109,5.6,5.6,0,0,1-.507.682,3.684,3.684,0,0,1-.418.461l-.274.266a.537.537,0,0,1-.1.085" transform="translate(-329.73 -13.229)" fill="#263238"/>
        <path id="Trazado_610365" data-name="Trazado 610365" d="M608.811,33.729c-.018-.017.19-.2.444-.6a3.049,3.049,0,0,0,.431-1.933,2.973,2.973,0,0,0-1.62-2.334,2.929,2.929,0,0,0-1.689-.3,2.945,2.945,0,0,0-2.551,2.38A2.929,2.929,0,0,0,604,32.648a2.977,2.977,0,0,0,2.216,1.778,3.053,3.053,0,0,0,1.958-.3c.425-.225.617-.421.634-.4s-.041.055-.135.144a2.393,2.393,0,0,1-.455.335,3.048,3.048,0,0,1-2.028.377,3.1,3.1,0,0,1-1.341-.553,3.156,3.156,0,0,1,1.5-5.69,3.117,3.117,0,0,1,1.811.331,3.152,3.152,0,0,1,1.225,1.129,3.1,3.1,0,0,1,.459,1.376,3.052,3.052,0,0,1-.516,2,2.425,2.425,0,0,1-.366.431c-.1.087-.148.13-.153.124" transform="translate(-339.999 -15.953)" fill="#263238"/>
        <path id="Trazado_610366" data-name="Trazado 610366" d="M561.473,72.337c-.043-.046,3.061-3.011,6.932-6.623s7.045-6.5,7.088-6.457-3.061,3.011-6.933,6.624-7.044,6.5-7.087,6.457" transform="translate(-316.295 -33.381)" fill="#263238"/>
        <path id="Trazado_610367" data-name="Trazado 610367" d="M527.941,179.4a5.3,5.3,0,0,1-2.183,0,5.305,5.305,0,0,1,2.183,0" transform="translate(-296.176 -100.999)" fill="#263238"/>
        <path id="Trazado_610368" data-name="Trazado 610368" d="M537.941,179.4a5.3,5.3,0,0,1-2.183,0,5.306,5.306,0,0,1,2.183,0" transform="translate(-301.809 -100.999)" fill="#263238"/>
        <path id="Trazado_610369" data-name="Trazado 610369" d="M547.941,179.4a5.3,5.3,0,0,1-2.183,0,5.306,5.306,0,0,1,2.183,0" transform="translate(-307.443 -100.999)" fill="#263238"/>
        <path id="Trazado_610370" data-name="Trazado 610370" d="M557.941,179.4a5.3,5.3,0,0,1-2.183,0,5.306,5.306,0,0,1,2.183,0" transform="translate(-313.076 -100.999)" fill="#263238"/>
        <path id="Trazado_610371" data-name="Trazado 610371" d="M567.941,179.4a5.3,5.3,0,0,1-2.183,0,5.306,5.306,0,0,1,2.183,0" transform="translate(-318.709 -100.999)" fill="#263238"/>
        <path id="Trazado_610372" data-name="Trazado 610372" d="M577.941,179.4a5.3,5.3,0,0,1-2.183,0,5.306,5.306,0,0,1,2.183,0" transform="translate(-324.343 -100.999)" fill="#263238"/>
        <path id="Trazado_610373" data-name="Trazado 610373" d="M587.279,178.033c.047,0,.087.272.1.662l0,.1-.109,0c-.132.006-.277.009-.43.009a2.717,2.717,0,0,1-1.092-.114,2.731,2.731,0,0,1,1.092-.114c.152,0,.3,0,.43.009l-.1.1c.017-.389.058-.662.1-.662" transform="translate(-329.975 -100.292)" fill="#263238"/>
        <path id="Trazado_610374" data-name="Trazado 610374" d="M589.1,168.033a5.306,5.306,0,1,1-.114,1.092,2.719,2.719,0,0,1,.114-1.092" transform="translate(-331.792 -94.658)" fill="#263238"/>
        <path id="Trazado_610375" data-name="Trazado 610375" d="M589.1,158.033a5.306,5.306,0,1,1-.114,1.092,2.719,2.719,0,0,1,.114-1.092" transform="translate(-331.792 -89.025)" fill="#263238"/>
        <path id="Trazado_610376" data-name="Trazado 610376" d="M589.1,148.033a5.306,5.306,0,1,1-.114,1.092,2.719,2.719,0,0,1,.114-1.092" transform="translate(-331.792 -83.392)" fill="#263238"/>
        <path id="Trazado_610377" data-name="Trazado 610377" d="M589.1,138.033a5.306,5.306,0,1,1-.114,1.092,2.719,2.719,0,0,1,.114-1.092" transform="translate(-331.792 -77.758)" fill="#263238"/>
        <path id="Trazado_610378" data-name="Trazado 610378" d="M589.1,128.033a5.306,5.306,0,1,1-.114,1.092,2.719,2.719,0,0,1,.114-1.092" transform="translate(-331.792 -72.125)" fill="#263238"/>
        <path id="Trazado_610379" data-name="Trazado 610379" d="M589.1,118.033a5.306,5.306,0,1,1-.114,1.092,2.719,2.719,0,0,1,.114-1.092" transform="translate(-331.792 -66.492)" fill="#263238"/>
        <path id="Trazado_610380" data-name="Trazado 610380" d="M589.1,108.033a5.306,5.306,0,1,1-.114,1.092,2.719,2.719,0,0,1,.114-1.092" transform="translate(-331.792 -60.858)" fill="#263238"/>
        <path id="Trazado_610381" data-name="Trazado 610381" d="M589.1,98.033a5.306,5.306,0,1,1-.114,1.092,2.719,2.719,0,0,1,.114-1.092" transform="translate(-331.792 -55.225)" fill="#263238"/>
        <path id="Trazado_610382" data-name="Trazado 610382" d="M589.1,88.033a5.306,5.306,0,1,1-.114,1.092,2.719,2.719,0,0,1,.114-1.092" transform="translate(-331.792 -49.592)" fill="#263238"/>
        <path id="Trazado_610383" data-name="Trazado 610383" d="M589.1,78.033a5.306,5.306,0,1,1-.114,1.092,2.719,2.719,0,0,1,.114-1.092" transform="translate(-331.792 -43.958)" fill="#263238"/>
      </g>
    </g>
    <g id="Grupo_1072819" data-name="Grupo 1072819">
      <g id="Grupo_1072818" data-name="Grupo 1072818" clip-path="url(#clip-path)">
        <path id="Trazado_610384" data-name="Trazado 610384" d="M511.448,279.076a5.306,5.306,0,0,1-2.183,0,5.306,5.306,0,0,1,2.183,0" transform="translate(-286.885 -157.148)" fill="#263238"/>
        <path id="Trazado_610385" data-name="Trazado 610385" d="M521.448,279.076a5.306,5.306,0,0,1-2.183,0,5.306,5.306,0,0,1,2.183,0" transform="translate(-292.518 -157.148)" fill="#263238"/>
        <path id="Trazado_610386" data-name="Trazado 610386" d="M531.448,279.076a5.306,5.306,0,0,1-2.183,0,5.306,5.306,0,0,1,2.183,0" transform="translate(-298.152 -157.148)" fill="#263238"/>
        <path id="Trazado_610387" data-name="Trazado 610387" d="M541.448,279.076a5.306,5.306,0,0,1-2.183,0,5.306,5.306,0,0,1,2.183,0" transform="translate(-303.785 -157.148)" fill="#263238"/>
        <path id="Trazado_610388" data-name="Trazado 610388" d="M551.448,279.076a5.306,5.306,0,0,1-2.183,0,5.306,5.306,0,0,1,2.183,0" transform="translate(-309.418 -157.148)" fill="#263238"/>
        <path id="Trazado_610389" data-name="Trazado 610389" d="M561.448,279.076a5.306,5.306,0,0,1-2.183,0,5.306,5.306,0,0,1,2.183,0" transform="translate(-315.052 -157.148)" fill="#263238"/>
        <path id="Trazado_610390" data-name="Trazado 610390" d="M571.448,279.076a5.306,5.306,0,0,1-2.183,0,5.306,5.306,0,0,1,2.183,0" transform="translate(-320.685 -157.148)" fill="#263238"/>
        <path id="Trazado_610391" data-name="Trazado 610391" d="M581.448,279.076a5.306,5.306,0,0,1-2.183,0,5.306,5.306,0,0,1,2.183,0" transform="translate(-326.318 -157.148)" fill="#263238"/>
        <path id="Trazado_610392" data-name="Trazado 610392" d="M591.448,279.076a5.306,5.306,0,0,1-2.183,0,5.306,5.306,0,0,1,2.183,0" transform="translate(-331.952 -157.148)" fill="#263238"/>
        <path id="Trazado_610393" data-name="Trazado 610393" d="M601.448,279.076a5.306,5.306,0,0,1-2.183,0,5.306,5.306,0,0,1,2.183,0" transform="translate(-337.585 -157.148)" fill="#263238"/>
        <path id="Trazado_610394" data-name="Trazado 610394" d="M611.044,278.286c.036,0,.066.159.084.41l.006.079-.094.008c-.184.016-.423.025-.683.025a2.718,2.718,0,0,1-1.092-.114,2.718,2.718,0,0,1,1.092-.114c.26,0,.5.009.683.025l-.089.087c.024-.25.057-.408.093-.408" transform="translate(-343.218 -156.767)" fill="#263238"/>
        <path id="Trazado_610395" data-name="Trazado 610395" d="M613.276,268.287a5.293,5.293,0,1,1-.125,1.09,2.721,2.721,0,0,1,.125-1.09" transform="translate(-345.407 -151.135)" fill="#263238"/>
        <path id="Trazado_610396" data-name="Trazado 610396" d="M613.375,258.287a5.293,5.293,0,1,1-.125,1.09,2.721,2.721,0,0,1,.125-1.09" transform="translate(-345.463 -145.501)" fill="#263238"/>
        <path id="Trazado_610397" data-name="Trazado 610397" d="M613.474,248.288a5.293,5.293,0,1,1-.125,1.09,2.721,2.721,0,0,1,.125-1.09" transform="translate(-345.519 -139.868)" fill="#263238"/>
        <path id="Trazado_610398" data-name="Trazado 610398" d="M580.541,215.593l.8,14.757a1,1,0,0,0,.988.942l26.554.195a1,1,0,0,0,1-.989l.084-11.487a1,1,0,0,0-1-1l-16.332-.014a1,1,0,0,1-.7-.292l-2.818-2.817a.994.994,0,0,0-.7-.292l-6.884-.05a1,1,0,0,0-1,1.05" transform="translate(-327.036 -120.859)" fill="#ffe8be"/>
        <rect id="Rectángulo_377973" data-name="Rectángulo 377973" width="17.338" height="29.015" transform="translate(253.437 112.573) rotate(-89.58)" fill="#f5f5f5"/>
        <path id="Trazado_610399" data-name="Trazado 610399" d="M576.229,220.618l2.083,18.1a.64.64,0,0,0,.631.567l28.276.207a.641.641,0,0,0,.643-.586l1.556-18.069a.641.641,0,0,0-.634-.7L576.87,219.9a.641.641,0,0,0-.641.714" transform="translate(-324.606 -123.879)" fill="#ffe8be"/>
      </g>
    </g>
    <g id="Grupo_1072821" data-name="Grupo 1072821">
      <g id="Grupo_1072820" data-name="Grupo 1072820" clip-path="url(#clip-path)">
        <path id="Trazado_610400" data-name="Trazado 610400" d="M325.221,262.174H179.068a6.361,6.361,0,0,1-6.361-6.361v-92.34a6.361,6.361,0,0,1,6.361-6.361H325.221a6.361,6.361,0,0,1,6.361,6.361v92.34a6.361,6.361,0,0,1-6.361,6.361" transform="translate(-97.291 -88.506)" fill="#052343"/>
        <path id="Trazado_610401" data-name="Trazado 610401" d="M321.85,389.111H165.264a7.771,7.771,0,0,1-7.771-7.772v-1.421H329.622v1.421a7.772,7.772,0,0,1-7.772,7.772" transform="translate(-88.721 -214.02)" fill="#052343"/>
        <rect id="Rectángulo_377975" data-name="Rectángulo 377975" width="149.901" height="88.724" transform="translate(79.681 72.78)" fill="#455a64"/>
        <path id="Trazado_610402" data-name="Trazado 610402" d="M318.758,379.917l2.136,3.4H350.95l1.983-3.4Z" transform="translate(-179.567 -214.019)" fill="#455a64"/>
        <path id="Trazado_610403" data-name="Trazado 610403" d="M332.15,258.987H190.974a1.43,1.43,0,0,1-1.429-1.429V174.98a1.429,1.429,0,0,1,1.429-1.429H332.15a1.429,1.429,0,0,1,1.429,1.429v82.578a1.429,1.429,0,0,1-1.429,1.429" transform="translate(-106.777 -97.767)" fill="#ebebeb"/>
        <rect id="Rectángulo_377976" data-name="Rectángulo 377976" width="144.035" height="79.176" transform="translate(82.768 82.044)" fill="#fafafa"/>
        <path id="Trazado_610404" data-name="Trazado 610404" d="M213.629,179.622a1.15,1.15,0,1,1-1.15-1.15,1.15,1.15,0,0,1,1.15,1.15" transform="translate(-119.048 -100.539)" fill="#263238"/>
        <path id="Trazado_610405" data-name="Trazado 610405" d="M197.664,179.622a1.15,1.15,0,1,1-1.151-1.15,1.15,1.15,0,0,1,1.151,1.15" transform="translate(-110.054 -100.539)" fill="#263238"/>
        <path id="Trazado_610406" data-name="Trazado 610406" d="M205.327,179.622a1.15,1.15,0,1,1-1.15-1.15,1.15,1.15,0,0,1,1.15,1.15" transform="translate(-114.371 -100.539)" fill="#263238"/>
        <path id="Trazado_610407" data-name="Trazado 610407" d="M330.217,379.784c0,.057-35.262.1-78.751.1s-78.758-.046-78.758-.1,35.255-.1,78.758-.1,78.751.046,78.751.1" transform="translate(-97.292 -213.886)" fill="#455a64"/>
        <rect id="Rectángulo_377977" data-name="Rectángulo 377977" width="32.868" height="2.199" transform="translate(92.75 121.929)" fill="#e0e0e0"/>
        <rect id="Rectángulo_377978" data-name="Rectángulo 377978" width="32.868" height="2.199" transform="translate(135.204 91.403)" fill="#e0e0e0"/>
        <path id="Trazado_610408" data-name="Trazado 610408" d="M391.378,227.937c0,.057-18.3.1-40.874.1s-40.879-.046-40.879-.1,18.3-.1,40.879-.1,40.874.046,40.874.1" transform="translate(-174.422 -128.346)" fill="#e0e0e0"/>
        <path id="Trazado_610409" data-name="Trazado 610409" d="M391.378,238.932c0,.057-18.3.1-40.874.1s-40.879-.046-40.879-.1,18.3-.1,40.879-.1,40.874.046,40.874.1" transform="translate(-174.422 -134.54)" fill="#e0e0e0"/>
        <path id="Trazado_610410" data-name="Trazado 610410" d="M391.378,249.926c0,.057-18.3.1-40.874.1s-40.879-.046-40.879-.1,18.3-.1,40.879-.1,40.874.046,40.874.1" transform="translate(-174.422 -140.733)" fill="#e0e0e0"/>
        <path id="Trazado_610411" data-name="Trazado 610411" d="M391.378,260.922c0,.057-18.3.1-40.874.1s-40.879-.046-40.879-.1,18.3-.1,40.879-.1,40.874.046,40.874.1" transform="translate(-174.422 -146.928)" fill="#e0e0e0"/>
        <path id="Trazado_610412" data-name="Trazado 610412" d="M391.378,271.916c0,.057-18.3.1-40.874.1s-40.879-.046-40.879-.1,18.3-.1,40.879-.1,40.874.046,40.874.1" transform="translate(-174.422 -153.121)" fill="#e0e0e0"/>
        <path id="Trazado_610413" data-name="Trazado 610413" d="M341.538,282.911c0,.057-7.144.1-15.955.1s-15.957-.046-15.957-.1,7.143-.1,15.957-.1,15.955.046,15.955.1" transform="translate(-174.422 -159.315)" fill="#e0e0e0"/>
        <path id="Trazado_610414" data-name="Trazado 610414" d="M426.155,304.25c0,.057-12.03.1-26.866.1s-26.868-.046-26.868-.1,12.027-.1,26.868-.1,26.866.046,26.866.1" transform="translate(-209.796 -171.336)" fill="#e0e0e0"/>
        <path id="Trazado_610415" data-name="Trazado 610415" d="M426.155,315.921c0,.057-12.03.1-26.866.1s-26.868-.046-26.868-.1,12.027-.1,26.868-.1,26.866.046,26.866.1" transform="translate(-209.796 -177.91)" fill="#e0e0e0"/>
        <path id="Trazado_610416" data-name="Trazado 610416" d="M426.155,327.592c0,.057-12.03.1-26.866.1s-26.868-.046-26.868-.1,12.027-.1,26.868-.1,26.866.046,26.866.1" transform="translate(-209.796 -184.485)" fill="#e0e0e0"/>
        <path id="Trazado_610417" data-name="Trazado 610417" d="M426.155,339.264c0,.057-12.03.1-26.866.1s-26.868-.046-26.868-.1,12.027-.1,26.868-.1,26.866.046,26.866.1" transform="translate(-209.796 -191.06)" fill="#e0e0e0"/>
        <path id="Trazado_610418" data-name="Trazado 610418" d="M246.541,303.133c0,.057-7.171.1-16.015.1s-16.017-.046-16.017-.1,7.17-.1,16.017-.1,16.015.046,16.015.1" transform="translate(-120.84 -170.706)" fill="#e0e0e0"/>
        <path id="Trazado_610419" data-name="Trazado 610419" d="M246.541,312.3c0,.057-7.171.1-16.015.1s-16.017-.046-16.017-.1,7.17-.1,16.017-.1,16.015.046,16.015.1" transform="translate(-120.84 -175.87)" fill="#e0e0e0"/>
        <path id="Trazado_610420" data-name="Trazado 610420" d="M246.541,321.465c0,.057-7.171.1-16.015.1s-16.017-.046-16.017-.1,7.17-.1,16.017-.1,16.015.046,16.015.1" transform="translate(-120.84 -181.033)" fill="#e0e0e0"/>
        <path id="Trazado_610421" data-name="Trazado 610421" d="M246.541,330.631c0,.057-7.171.1-16.015.1s-16.017-.046-16.017-.1,7.17-.1,16.017-.1,16.015.046,16.015.1" transform="translate(-120.84 -186.197)" fill="#e0e0e0"/>
        <path id="Trazado_610422" data-name="Trazado 610422" d="M246.541,339.8c0,.057-7.171.1-16.015.1s-16.017-.046-16.017-.1,7.17-.1,16.017-.1,16.015.046,16.015.1" transform="translate(-120.84 -191.36)" fill="#e0e0e0"/>
        <rect id="Rectángulo_377979" data-name="Rectángulo 377979" width="23.32" height="22.562" transform="translate(135.184 130.483)" fill="#f5f5f5"/>
        <path id="Trazado_610423" data-name="Trazado 610423" d="M313.72,331.082l6.451-11.61,5.277,7.421,3.206-3.94,4.77,8.13Z" transform="translate(-176.729 -179.968)" fill="#ebebeb"/>
        <path id="Trazado_610424" data-name="Trazado 610424" d="M341.394,312.136a1.678,1.678,0,1,1-1.678-1.678,1.678,1.678,0,0,1,1.678,1.678" transform="translate(-190.427 -174.891)" fill="#ebebeb"/>
        <path id="Trazado_610425" data-name="Trazado 610425" d="M333.249,321.773a.684.684,0,0,1-.005-.093c0-.068,0-.154-.005-.263q0-.36-.011-1.015c-.006-.895-.014-2.189-.024-3.832-.012-3.3-.029-7.988-.049-13.623l.1.1-19.7.016c-.027.024.208-.209.109-.108V305.5q0,1.268,0,2.512c0,1.658,0,3.282,0,4.862,0,3.16-.007,6.147-.01,8.895l-.1-.1,14.246.049,4.018.025,1.066.011.276.005a.787.787,0,0,1,.1.006.483.483,0,0,1-.086.005l-.266.006-1.047.011-4,.025-14.308.049h-.1v-.1c0-2.748-.007-5.735-.011-8.895,0-1.58,0-3.2,0-4.862q0-1.243,0-2.512v-2.553c-.1.1.135-.139.114-.114l19.7.015h.1v.1c-.021,5.66-.037,10.373-.049,13.683-.011,1.634-.019,2.92-.025,3.81q-.007.643-.011,1c0,.106,0,.188-.006.253a.432.432,0,0,1-.005.082" transform="translate(-176.553 -170.596)" fill="#ebebeb"/>
        <rect id="Rectángulo_377980" data-name="Rectángulo 377980" width="31.629" height="30.6" transform="translate(93.37 87.649)" fill="#f5f5f5"/>
        <path id="Trazado_610426" data-name="Trazado 610426" d="M219.439,244.487l8.75-15.747,7.157,10.065,4.348-5.345,6.47,11.027Z" transform="translate(-123.617 -128.856)" fill="#e0e0e0"/>
        <path id="Trazado_610427" data-name="Trazado 610427" d="M256.973,218.79a2.276,2.276,0,1,1-2.276-2.276,2.276,2.276,0,0,1,2.276,2.276" transform="translate(-142.197 -121.969)" fill="#e0e0e0"/>
        <path id="Trazado_610428" data-name="Trazado 610428" d="M245.925,231.86a.878.878,0,0,1-.007-.125c0-.092,0-.208-.007-.357q-.005-.489-.015-1.377c-.008-1.214-.019-2.968-.033-5.2-.016-4.47-.039-10.835-.066-18.476l.129.129-26.721.021c-.036.031.283-.283.148-.146v3.462q0,1.72,0,3.407,0,3.373,0,6.594c0,4.285-.01,8.337-.014,12.064l-.131-.131,19.322.067,5.45.035,1.446.015.374.007a.98.98,0,0,1,.132.007.637.637,0,0,1-.117.007l-.36.007-1.42.015-5.42.035-19.406.067h-.131v-.132c0-3.727-.009-7.779-.014-12.064q0-3.215,0-6.594,0-1.686,0-3.407v-3.462c-.134.132.183-.189.154-.155l26.721.021h.13v.129c-.027,7.676-.05,14.069-.066,18.558-.014,2.216-.026,3.961-.034,5.168q-.01.872-.015,1.352c0,.143-.005.255-.007.343a.576.576,0,0,1-.007.111" transform="translate(-123.379 -116.144)" fill="#e0e0e0"/>
        <path id="Trazado_610429" data-name="Trazado 610429" d="M289.44,227.351,291,230.516l3.494.508-2.528,2.464.6,3.48-3.125-1.643-3.125,1.643.6-3.48-2.528-2.464,3.494-.508Z" transform="translate(-160.203 -128.074)" fill="#eba325"/>
        <path id="Trazado_610430" data-name="Trazado 610430" d="M314.642,202.149l1.562,3.166,3.494.508-2.528,2.464.6,3.48-3.125-1.643-3.125,1.643.6-3.48-2.528-2.464,3.494-.508Z" transform="translate(-174.399 -113.877)" fill="#eba325"/>
        <path id="Trazado_610431" data-name="Trazado 610431" d="M348.323,192.257l1.562,3.166,3.494.508-2.528,2.464.6,3.48-3.125-1.643-3.125,1.643.6-3.48-2.528-2.464,3.494-.508Z" transform="translate(-193.373 -108.304)" fill="#eba325"/>
        <path id="Trazado_610432" data-name="Trazado 610432" d="M383.181,202.384l1.562,3.166,3.494.508-2.528,2.464.6,3.48-3.125-1.643L380.057,212l.6-3.48-2.528-2.464,3.494-.508Z" transform="translate(-213.01 -114.009)" fill="#eba325"/>
        <path id="Trazado_610433" data-name="Trazado 610433" d="M407.206,226.408l1.562,3.166,3.494.508-2.528,2.464.6,3.48-3.125-1.643-3.125,1.643.6-3.48-2.528-2.464,3.494-.508Z" transform="translate(-226.543 -127.543)" fill="#eba325"/>
        <path id="Trazado_610434" data-name="Trazado 610434" d="M415.92,261.267l1.562,3.166,3.494.508-2.528,2.464.6,3.48-3.125-1.643-3.125,1.643.6-3.48-2.528-2.464,3.494-.508Z" transform="translate(-231.453 -147.18)" fill="#eba325"/>
        <path id="Trazado_610435" data-name="Trazado 610435" d="M407.441,295.89,409,299.056l3.494.508-2.528,2.464.6,3.48-3.125-1.643-3.125,1.643.6-3.48-2.528-2.464,3.494-.508Z" transform="translate(-226.676 -166.684)" fill="#eba325"/>
        <path id="Trazado_610436" data-name="Trazado 610436" d="M381.927,319.914l1.562,3.166,3.494.508-2.528,2.464.6,3.48-3.125-1.643-3.125,1.643.6-3.48-2.528-2.464,3.494-.508Z" transform="translate(-212.303 -180.218)" fill="#eba325"/>
        <path id="Trazado_610437" data-name="Trazado 610437" d="M347.645,329.818l1.562,3.166,3.494.508-2.528,2.464.6,3.48-3.125-1.643-3.125,1.643.6-3.48-2.528-2.464,3.494-.508Z" transform="translate(-192.991 -185.797)" fill="#eba325"/>
        <path id="Trazado_610438" data-name="Trazado 610438" d="M314.906,319.925l1.562,3.166,3.494.508-2.528,2.464.6,3.48-3.125-1.643-3.125,1.643.6-3.48L309.85,323.6l3.494-.508Z" transform="translate(-174.548 -180.224)" fill="#eba325"/>
        <path id="Trazado_610439" data-name="Trazado 610439" d="M289,295.263l1.562,3.166,3.494.508-2.528,2.464.6,3.48L289,303.238l-3.125,1.643.6-3.48-2.528-2.464,3.494-.508Z" transform="translate(-159.953 -166.331)" fill="#eba325"/>
        <path id="Trazado_610440" data-name="Trazado 610440" d="M280.283,261.307l1.562,3.166,3.494.508-2.528,2.464.6,3.48-3.125-1.643-3.125,1.643.6-3.48-2.528-2.464,3.494-.508Z" transform="translate(-155.044 -147.202)" fill="#eba325"/>
        <path id="Trazado_610441" data-name="Trazado 610441" d="M353.329,251.607h-3.057V234.97a7.1,7.1,0,1,0-14.2,0v16.637h-3.057V234.97a10.158,10.158,0,1,1,20.317,0Z" transform="translate(-187.596 -126.643)" fill="#263238"/>
        <path id="Trazado_610442" data-name="Trazado 610442" d="M349.768,286.792H327.462a2.537,2.537,0,0,1-2.537-2.537V271.763a2.537,2.537,0,0,1,2.537-2.537h22.305a2.538,2.538,0,0,1,2.537,2.537v12.491a2.538,2.538,0,0,1-2.537,2.537" transform="translate(-183.04 -151.663)" fill="#eba325"/>
        <path id="Trazado_610443" data-name="Trazado 610443" d="M355.612,281.148a2.289,2.289,0,1,1-2.289-2.289,2.288,2.288,0,0,1,2.289,2.289" transform="translate(-197.748 -157.09)" fill="#263238"/>
        <rect id="Rectángulo_377981" data-name="Rectángulo 377981" width="1.248" height="4.706" transform="translate(154.95 124.964)" fill="#263238"/>
        <path id="Trazado_610444" data-name="Trazado 610444" d="M328.122,288.759c-.063,0-.114-2.93-.114-6.542s.051-6.543.114-6.543.114,2.929.114,6.543-.051,6.542-.114,6.542" transform="translate(-184.777 -155.295)" fill="#fafafa"/>
        <path id="Trazado_610445" data-name="Trazado 610445" d="M350.233,283.253c-.007.011-.107-.036-.269-.152a2.79,2.79,0,0,1-.59-.6,3.208,3.208,0,0,1,1.14-4.813,2.807,2.807,0,0,1,.8-.272.7.7,0,0,1,.308-.016,7.066,7.066,0,0,0-1.028.429,3.173,3.173,0,0,0-1.085,4.58,7.158,7.158,0,0,0,.726.845" transform="translate(-196.451 -156.262)" fill="#fafafa"/>
      </g>
    </g>
    <g id="Grupo_1072826" data-name="Grupo 1072826">
      <g id="Grupo_1072825" data-name="Grupo 1072825" clip-path="url(#clip-path)">
        <path id="Trazado_610446" data-name="Trazado 610446" d="M135.435,250.166a4.8,4.8,0,0,0,.07,3.06,14.285,14.285,0,0,0,1.378,2.788,49.834,49.834,0,0,0,1.857-5.348,1.254,1.254,0,0,0-.1-1.185,1.1,1.1,0,0,0-.881-.243,4.064,4.064,0,0,0-2.5,1.066" transform="translate(-76.171 -140.401)" fill="#263238"/>
        <path id="Trazado_610447" data-name="Trazado 610447" d="M38.32,363.366,31.176,379.7H41.01l7-16.462Z" transform="translate(-17.562 -204.622)" fill="#263238"/>
        <path id="Trazado_610448" data-name="Trazado 610448" d="M86.468,379.922c9.638-3.191,3.029-15.939,3.029-15.939l-42.123,3.962a6.094,6.094,0,1,0-.041,12.189Z" transform="translate(-23.231 -205.043)" fill="#032140"/>
        <path id="Trazado_610449" data-name="Trazado 610449" d="M110.209,380.131c9.391-3.17,3.2-16.154,3.2-16.154l-41.065,3.871c-4.011.052-5.97,1.987-5.97,6.08.007,3.365,1.251,6.2,5.956,6.106Z" transform="translate(-37.391 -205.04)" fill="#03386e"/>
        <path id="Trazado_610450" data-name="Trazado 610450" d="M100.956,368.9a.462.462,0,0,0-.117,0l-.342.008-1.314.054-4.832.239-15.935.874c-.778.037-1.548.1-2.3.115s-1.509.044-2.244.088-1.456.1-2.162.176a7.718,7.718,0,0,0-2.054.421,4.944,4.944,0,0,0-1.708,1.094,4.555,4.555,0,0,0-1.036,1.662,8.308,8.308,0,0,0-.422,1.8,12.493,12.493,0,0,0-.113,1.7,7.225,7.225,0,0,0,.542,2.86,4.706,4.706,0,0,0,1.277,1.74,3.455,3.455,0,0,0,1.163.656c.291.092.3.062.014-.042a3.608,3.608,0,0,1-1.124-.681,4.692,4.692,0,0,1-1.222-1.724,7.156,7.156,0,0,1-.5-2.809,12.5,12.5,0,0,1,.125-1.673,8.209,8.209,0,0,1,.423-1.753,4.377,4.377,0,0,1,1-1.588,4.765,4.765,0,0,1,1.648-1.044,7.588,7.588,0,0,1,2.007-.4c.7-.073,1.42-.126,2.152-.169s1.479-.073,2.236-.084,1.528-.077,2.307-.114l15.936-.939,4.829-.31,1.312-.1.341-.031a.438.438,0,0,0,.116-.018" transform="translate(-37.391 -207.813)" fill="#263238"/>
        <path id="Trazado_610451" data-name="Trazado 610451" d="M159.681,371.367a1,1,0,0,1-.334.166,3.483,3.483,0,0,1-1,.2,3.9,3.9,0,0,1-4.174-4.281,3.461,3.461,0,0,1,.228-.992,1,1,0,0,1,.174-.33,7.041,7.041,0,0,0-.243,1.332,3.861,3.861,0,0,0,4.009,4.111,7.061,7.061,0,0,0,1.338-.21" transform="translate(-86.842 -206.255)" fill="#263238"/>
        <path id="Trazado_610452" data-name="Trazado 610452" d="M95.329,318.992l-3.9,13.332L77.01,333.872v2.56l21.192.293,2.886-17.361Z" transform="translate(-43.382 -179.698)" fill="#ffbe9d"/>
        <path id="Trazado_610453" data-name="Trazado 610453" d="M136.622,286.942c2.559.005,9.488,1.312,10.1,5.983.549,4.217,1.373,9,1.373,9l-9.122.245,3.107.823,1.331,19.689-23.6-.818,1.252-10.122,1.028-10.118-5.158-.421s1.765-8.807,4.843-11.525a12.539,12.539,0,0,1,6.794-2.737,71.258,71.258,0,0,1,8.059,0" transform="translate(-65.868 -161.577)" fill="#0c5e46"/>
        <path id="Trazado_610454" data-name="Trazado 610454" d="M128.338,305.739c.055.006-.306,3.565-.8,7.947s-.948,7.932-1,7.926.305-3.564.8-7.948.948-7.931,1-7.925" transform="translate(-71.276 -172.232)" fill="#263238"/>
        <path id="Trazado_610455" data-name="Trazado 610455" d="M151.421,287.16a.557.557,0,0,1,.026.165c.01.109.021.269.024.478a5.3,5.3,0,0,1-.255,1.743,5.1,5.1,0,0,1-1.338,2.271,3.85,3.85,0,0,1-1.365.847,5.457,5.457,0,0,1-1.717.273,9.382,9.382,0,0,1-1.731-.117,3.562,3.562,0,0,1-1.5-.608A3.93,3.93,0,0,1,142.144,290a5.754,5.754,0,0,1-.2-1.751c.007-.208.024-.368.036-.477a.553.553,0,0,1,.03-.165c.015,0,0,.23.008.643a6.239,6.239,0,0,0,.252,1.717,3.861,3.861,0,0,0,1.4,2.113,3.417,3.417,0,0,0,1.427.567,9.378,9.378,0,0,0,1.692.11,5.335,5.335,0,0,0,1.657-.258,3.705,3.705,0,0,0,1.307-.8,5.078,5.078,0,0,0,1.333-2.189,5.7,5.7,0,0,0,.31-1.706c.014-.412.009-.641.024-.642" transform="translate(-79.961 -161.766)" fill="#263238"/>
        <g id="Grupo_1072824" data-name="Grupo 1072824" transform="translate(62.103 133.507)" opacity="0.2">
          <g id="Grupo_1072823" data-name="Grupo 1072823">
            <g id="Grupo_1072822" data-name="Grupo 1072822" clip-path="url(#clip-path-13)">
              <path id="Trazado_610456" data-name="Trazado 610456" d="M152.842,305.741c-.874,4.177-2.013,8.471-2.887,12.648a6.3,6.3,0,0,1-.927,2.534,5.961,5.961,0,0,1-1.247,1.147,22,22,0,0,1-5.561,3.24,50.04,50.04,0,0,0,8.658-1.507,1.8,1.8,0,0,0,1.689-1.913,108.671,108.671,0,0,0,.275-16.149" transform="translate(-142.22 -305.741)"/>
            </g>
          </g>
        </g>
        <path id="Trazado_610457" data-name="Trazado 610457" d="M176.173,311.549a4.47,4.47,0,0,1-.686.052l-1.871.069c-1.58.049-3.763.1-6.174.152l-.775.015-.1,0,0-.1c-.087-2.239-.047-4.229,0-5.661.022-.716.049-1.291.074-1.688a3.864,3.864,0,0,1,.057-.614,3.844,3.844,0,0,1,.017.617c0,.429-.007,1-.013,1.688-.007,1.43-.023,3.422.068,5.649l-.1-.094.775-.016c2.411-.048,4.595-.08,6.175-.094l1.872-.005a4.585,4.585,0,0,1,.687.025" transform="translate(-93.803 -171.129)" fill="#263238"/>
        <path id="Trazado_610458" data-name="Trazado 610458" d="M35.523,322.261,43.58,338.1h25.4l-1.028-2.069-7.359-.219-6-13.355a2.311,2.311,0,0,0-2.109-1.365H36.239a.8.8,0,0,0-.716,1.168" transform="translate(-19.961 -180.882)" fill="#e0e0e0"/>
        <path id="Trazado_610459" data-name="Trazado 610459" d="M62.262,338.757a.972.972,0,1,1-.972-.972.972.972,0,0,1,.972.972" transform="translate(-33.979 -190.285)" fill="#263238"/>
        <path id="Trazado_610460" data-name="Trazado 610460" d="M148.537,251.681l-.91,12.889a4.019,4.019,0,0,1-8.019-.546c.08-1.227.153-2.232.153-2.232a3.749,3.749,0,0,1-3.159-3.6c-.021-1.47.176-4.378.395-7.113a6.141,6.141,0,0,1,6.12-5.654h0a5.774,5.774,0,0,1,5.416,6.26" transform="translate(-76.952 -138.253)" fill="#ffbe9d"/>
        <path id="Trazado_610461" data-name="Trazado 610461" d="M143.786,281.766a7.256,7.256,0,0,0,4.067-1.156,3.843,3.843,0,0,1-4.075,1.964Z" transform="translate(-80.995 -158.076)" fill="#eb996e"/>
        <path id="Trazado_610462" data-name="Trazado 610462" d="M139.741,262.49a.445.445,0,0,0,.43.449.426.426,0,0,0,.459-.4.446.446,0,0,0-.429-.45.427.427,0,0,0-.46.4" transform="translate(-78.72 -147.642)" fill="#263238"/>
        <path id="Trazado_610463" data-name="Trazado 610463" d="M139.1,261c.055.058.393-.192.872-.19s.831.241.883.182c.025-.026-.031-.131-.184-.242a1.225,1.225,0,0,0-.707-.217,1.17,1.17,0,0,0-.694.224c-.148.113-.2.218-.17.244" transform="translate(-78.354 -146.766)" fill="#263238"/>
        <path id="Trazado_610464" data-name="Trazado 610464" d="M150.082,262.786a.445.445,0,0,0,.43.449.427.427,0,0,0,.459-.4.446.446,0,0,0-.429-.45.427.427,0,0,0-.46.4" transform="translate(-84.546 -147.809)" fill="#263238"/>
        <path id="Trazado_610465" data-name="Trazado 610465" d="M149.89,261.206c.055.058.393-.192.872-.19s.831.241.883.182c.026-.026-.03-.131-.184-.242a1.225,1.225,0,0,0-.707-.218,1.174,1.174,0,0,0-.694.224c-.147.113-.2.218-.17.244" transform="translate(-84.434 -146.881)" fill="#263238"/>
        <path id="Trazado_610466" data-name="Trazado 610466" d="M144.339,264.8a3.2,3.2,0,0,0-.779-.141c-.123-.013-.238-.037-.259-.121a.623.623,0,0,1,.082-.363l.362-.932a16.006,16.006,0,0,0,.813-2.438,16.046,16.046,0,0,0-1.007,2.367l-.347.938a.709.709,0,0,0-.064.48.307.307,0,0,0,.2.179.846.846,0,0,0,.208.029,3.145,3.145,0,0,0,.789,0" transform="translate(-80.623 -146.919)" fill="#263238"/>
        <path id="Trazado_610467" data-name="Trazado 610467" d="M147.175,270.711c-.078,0-.079.516-.524.885s-1,.312-1,.385c-.007.032.124.1.358.107a1.3,1.3,0,0,0,.838-.292,1.129,1.129,0,0,0,.406-.742c.02-.217-.038-.346-.074-.343" transform="translate(-82.047 -152.5)" fill="#263238"/>
        <path id="Trazado_610468" data-name="Trazado 610468" d="M149.613,257.043c.047.13.526.069,1.088.136s1.018.221,1.092.1c.034-.056-.045-.179-.229-.3a1.908,1.908,0,0,0-1.662-.183c-.207.083-.31.186-.29.248" transform="translate(-84.28 -144.598)" fill="#263238"/>
        <path id="Trazado_610469" data-name="Trazado 610469" d="M139.5,257.786c.084.109.414,0,.812-.01s.733.073.811-.041c.034-.055-.019-.164-.166-.267a1.175,1.175,0,0,0-1.307.04c-.141.112-.186.224-.149.277" transform="translate(-78.575 -144.939)" fill="#263238"/>
        <path id="Trazado_610470" data-name="Trazado 610470" d="M161.368,265.439c.053-.023,2.144-.634,2.076,1.5a1.6,1.6,0,0,1-2.2,1.563c0-.061.122-3.062.122-3.062" transform="translate(-90.835 -149.475)" fill="#ffbe9d"/>
        <path id="Trazado_610471" data-name="Trazado 610471" d="M162.794,268.614c.01-.007.036.027.1.058a.374.374,0,0,0,.278.014.92.92,0,0,0,.452-.811,1.225,1.225,0,0,0-.087-.535.429.429,0,0,0-.27-.294.189.189,0,0,0-.223.095c-.031.059-.018.1-.03.105s-.045-.038-.024-.125a.236.236,0,0,1,.088-.131.278.278,0,0,1,.207-.048.522.522,0,0,1,.378.343,1.262,1.262,0,0,1,.11.6.966.966,0,0,1-.571.9.4.4,0,0,1-.338-.067c-.064-.055-.074-.1-.066-.107" transform="translate(-91.706 -150.375)" fill="#eb996e"/>
        <rect id="Rectángulo_377984" data-name="Rectángulo 377984" width="31.053" height="1.515" transform="translate(20.675 157.244)" fill="#263238"/>
        <path id="Trazado_610472" data-name="Trazado 610472" d="M96.557,361.835,106,378.924h8.456l-8.337-16.331Z" transform="translate(-54.394 -203.833)" fill="#263238"/>
        <path id="Trazado_610473" data-name="Trazado 610473" d="M78.355,363.492c0,.063-6.959.148-15.543.192s-15.545.027-15.545-.036,6.958-.148,15.544-.192,15.544-.027,15.544.036" transform="translate(-26.627 -204.733)" fill="#455a64"/>
        <path id="Trazado_610474" data-name="Trazado 610474" d="M133.313,247.759a2.118,2.118,0,0,0,1.755-.126.5.5,0,0,0,.085.745,1.261,1.261,0,0,0,.824.182,6.314,6.314,0,0,0,4.141-1.771,1.384,1.384,0,0,0,.953,1.188,2.8,2.8,0,0,0,1.6.006,6.111,6.111,0,0,0-.1,2.408,2.082,2.082,0,0,0,1.566,1.662,4,4,0,0,1,.1,1.26c.029.423.277.91.7.921.374.01.654-.373.7-.744a4.891,4.891,0,0,1,.1-1.727c.288-.652.173-.531.46-1.184s.449-1.551.672-2.227a3.156,3.156,0,0,0,.055-2.1,1.727,1.727,0,0,0-1.627-1.157,1.716,1.716,0,0,0-2.522-2.067,6.306,6.306,0,0,0-5.116-.74c-2.67.907-3.087,3.35-3.67,3.426s-2.359-.888-2.055-.279.812,1.192,1.065,1.217-2.029-.938-1.243-.076a4.864,4.864,0,0,0,1.558,1.179" transform="translate(-74.128 -136.336)" fill="#263238"/>
        <path id="Trazado_610475" data-name="Trazado 610475" d="M149.637,300.379a5.075,5.075,0,0,0-.842-.81,4.987,4.987,0,0,0-3-.883,8.84,8.84,0,0,0-4.415,1.513,43.436,43.436,0,0,1-5.008,3.028,7.677,7.677,0,0,1-5.779.21,8.107,8.107,0,0,1-2.234-1.272c-.635-.492-1.193-.983-1.738-1.381a5.354,5.354,0,0,0-2.9-1.184,3.864,3.864,0,0,0-1.154.154s.022-.016.069-.037a1.71,1.71,0,0,1,.214-.08,2.833,2.833,0,0,1,.873-.125,5.313,5.313,0,0,1,2.994,1.142,15.848,15.848,0,0,0,3.949,2.587,7.546,7.546,0,0,0,5.619-.223,45.657,45.657,0,0,0,4.99-3,8.886,8.886,0,0,1,4.522-1.494,4.97,4.97,0,0,1,3.049.973,3.389,3.389,0,0,1,.623.623,1.532,1.532,0,0,1,.166.258" transform="translate(-69.047 -168.168)" fill="#fafafa"/>
        <path id="Trazado_610476" data-name="Trazado 610476" d="M145.14,327c-.013.016-.211-.138-.6-.363a6.232,6.232,0,0,0-1.768-.68,5.922,5.922,0,0,0-2.779.049,34.646,34.646,0,0,0-3.252,1.228,7.941,7.941,0,0,1-6.241-.278,7.015,7.015,0,0,1-1.62-1.052,4.123,4.123,0,0,1-.381-.361c-.083-.086-.124-.134-.119-.14s.2.158.555.432a7.809,7.809,0,0,0,1.632.975,8.263,8.263,0,0,0,2.716.694,7.761,7.761,0,0,0,3.38-.484,31.346,31.346,0,0,1,3.279-1.218,5.934,5.934,0,0,1,2.866,0,5.759,5.759,0,0,1,1.777.762,4.059,4.059,0,0,1,.424.311c.092.078.137.121.132.128" transform="translate(-72.32 -183.307)" fill="#fafafa"/>
        <path id="Trazado_610477" data-name="Trazado 610477" d="M147.556,344.665a7.1,7.1,0,0,0-.844-.268,4.715,4.715,0,0,0-2.368.213,9.435,9.435,0,0,0-1.531.653c-.531.28-1.086.613-1.687.937a9.856,9.856,0,0,1-1.978.85,4.811,4.811,0,0,1-2.319.095,13.245,13.245,0,0,1-3.989-1.947,7.738,7.738,0,0,0-3.293-1.294,3.783,3.783,0,0,0-2.3.494,4.211,4.211,0,0,0-.68.563.886.886,0,0,1,.133-.191,2.454,2.454,0,0,1,.5-.446,3.763,3.763,0,0,1,2.362-.581,7.726,7.726,0,0,1,3.389,1.275,13.423,13.423,0,0,0,3.927,1.9,4.615,4.615,0,0,0,2.213-.087,9.856,9.856,0,0,0,1.939-.82c.6-.316,1.156-.643,1.7-.919a9.266,9.266,0,0,1,1.57-.64,4.616,4.616,0,0,1,2.435-.145,2.853,2.853,0,0,1,.627.233.87.87,0,0,1,.2.121" transform="translate(-71.297 -193.636)" fill="#fafafa"/>
        <path id="Trazado_610478" data-name="Trazado 610478" d="M148.1,362.57a.75.75,0,0,1-.221.091,2.7,2.7,0,0,1-.677.115,6.166,6.166,0,0,1-2.457-.513,14.105,14.105,0,0,0-1.632-.531,6.467,6.467,0,0,0-1.942-.11,24.428,24.428,0,0,0-4.387,1.084,13.238,13.238,0,0,1-2.324.476,10.125,10.125,0,0,1-2.213-.031,15.108,15.108,0,0,1-3.6-.961c-.988-.39-1.758-.768-2.286-1.037-.264-.134-.466-.243-.6-.32a.939.939,0,0,1-.2-.126.959.959,0,0,1,.223.085l.62.281c.538.243,1.316.6,2.3.965a15.6,15.6,0,0,0,3.569.9,10.078,10.078,0,0,0,2.165.017,13.306,13.306,0,0,0,2.284-.472,23.552,23.552,0,0,1,4.431-1.074,6.555,6.555,0,0,1,2,.136,13.508,13.508,0,0,1,1.645.564,6.429,6.429,0,0,0,2.4.575,4.767,4.767,0,0,0,.9-.117" transform="translate(-70.732 -203.197)" fill="#fafafa"/>
        <path id="Trazado_610479" data-name="Trazado 610479" d="M175.917,315.827c.008.008-.074.12-.264.282a3.512,3.512,0,0,1-.9.551,3.853,3.853,0,0,1-1.542.3,4.312,4.312,0,0,1-1.857-.491c-.61-.294-1.162-.611-1.7-.8a3.156,3.156,0,0,0-1.474-.164,1.884,1.884,0,0,0-.917.382c-.183.154-.259.269-.277.257a.756.756,0,0,1,.217-.323,1.821,1.821,0,0,1,.95-.475,3.173,3.173,0,0,1,1.57.125,15.948,15.948,0,0,1,1.727.794,4.276,4.276,0,0,0,1.765.487,3.922,3.922,0,0,0,1.478-.239,6.446,6.446,0,0,0,1.224-.682" transform="translate(-94.068 -177.615)" fill="#fafafa"/>
        <path id="Trazado_610480" data-name="Trazado 610480" d="M123.368,314.669c.009.009-.029.076-.142.152a.956.956,0,0,1-.55.145,1.7,1.7,0,0,1-.807-.233c-.276-.151-.538-.364-.824-.547a2.2,2.2,0,0,0-1.632-.33c-.436.081-.678.241-.7.207a1.173,1.173,0,0,1,.662-.364,2.189,2.189,0,0,1,1.79.295c.3.195.555.407.806.557a1.687,1.687,0,0,0,.71.253,1.345,1.345,0,0,0,.683-.136" transform="translate(-66.877 -176.674)" fill="#fafafa"/>
        <path id="Trazado_610481" data-name="Trazado 610481" d="M99.3,333.247l6.354-.764,4.477,2.936,17.12-4.1.5-9.554,7.684-.19-.179,11.211a6.507,6.507,0,0,1-6.685,6.367l-25.074-.694-1.065-2.134-5.379-.16Z" transform="translate(-54.674 -181.152)" fill="#ffbe9d"/>
        <path id="Trazado_610482" data-name="Trazado 610482" d="M126.756,343.883a2.132,2.132,0,0,1-.322.1l-.931.242-3.436.856-11.352,2.751-1.056.253-.042.01-.036-.024-4.472-2.942.061.014-6.357.734.042-.024-1.679,2.131-.453.561a1.388,1.388,0,0,1-.165.186,1.346,1.346,0,0,1,.138-.207l.427-.581,1.633-2.166.015-.021.027,0,6.35-.793.033,0,.028.019,4.481,2.929-.078-.014,1.056-.253,11.365-2.694,3.45-.794.941-.207a2.12,2.12,0,0,1,.331-.059" transform="translate(-54.394 -193.72)" fill="#eb996e"/>
        <path id="Trazado_610483" data-name="Trazado 610483" d="M104.4,352.349a15.38,15.38,0,0,1-2.468.1l-.452,0,.064-.023a11.673,11.673,0,0,1-1.6,1.231,11.6,11.6,0,0,1,1.473-1.381l.027-.023h.036l.452,0a15.378,15.378,0,0,1,2.468.1" transform="translate(-56.302 -198.433)" fill="#eb996e"/>
        <path id="Trazado_610484" data-name="Trazado 610484" d="M169.114,345.8a3.716,3.716,0,0,0-2.961-1.863,1.06,1.06,0,0,1,.552-.044,2.936,2.936,0,0,1,2.208,1.39,1.057,1.057,0,0,1,.2.517" transform="translate(-93.599 -193.719)" fill="#eb996e"/>
      </g>
    </g>
  </g>
</svg>
