<svg xmlns="http://www.w3.org/2000/svg" xmlns:xlink="http://www.w3.org/1999/xlink" width="1030" height="444.215" viewBox="0 0 1030 444.215">
  <defs>
    <linearGradient id="linear-gradient" x1="0.5" x2="0.5" y2="1" gradientUnits="objectBoundingBox">
      <stop offset="0" stop-color="#fff"/>
      <stop offset="1" stop-color="#eff6f9"/>
    </linearGradient>
    <clipPath id="clip-path">
      <rect id="Rectángulo_291673" data-name="Rectángulo 291673" width="457" height="358" transform="translate(0.097 -0.491)" fill="#fff"/>
    </clipPath>
    <clipPath id="clip-path-2">
      <rect id="Rectángulo_291670" data-name="Rectángulo 291670" width="346.042" height="395.107" fill="none"/>
    </clipPath>
  </defs>
  <g id="Grupo_1076435" data-name="Grupo 1076435" transform="translate(-285 -4529.785)">
    <g id="Grupo_872029" data-name="Grupo 872029" transform="translate(0 -12816)">
      <g id="Grupo_871995" data-name="Grupo 871995" transform="translate(0 -8)">
        <rect id="Rectángulo_292178" data-name="Rectángulo 292178" width="1030" height="400" transform="translate(1315 17754) rotate(180)" fill="url(#linear-gradient)"/>
        <g id="Enmascarar_grupo_154272" data-name="Enmascarar grupo 154272" transform="translate(556.903 17355.49)" clip-path="url(#clip-path)">
          <g id="Grupo_871226" data-name="Grupo 871226" transform="translate(12.899 -1.311)" style="isolation: isolate">
            <path id="Trazado_216669" data-name="Trazado 216669" d="M-9641.418-12348.876s114.807,47.017,123.326-57.368,24.5-253.507-54.32-256.7-262.026,85.209-273.742,155.513S-9641.418-12348.876-9641.418-12348.876Z" transform="translate(9888.991 12690.016)" fill="#e1efe3"/>
            <path id="Trazado_216670" data-name="Trazado 216670" d="M198.934,304.566s111.3,45.581,119.565-55.617S342.248,3.179,265.833.082,11.8,82.691.445,150.848,198.934,304.566,198.934,304.566Z" transform="matrix(0.946, -0.326, 0.326, 0.946, 0, 106.01)" fill="#eaeff3"/>
          </g>
        </g>
        <g id="Grupo_871214" data-name="Grupo 871214" transform="translate(629.369 17379.777)">
          <g id="Grupo_871213" data-name="Grupo 871213" transform="translate(0)" clip-path="url(#clip-path-2)">
            <path id="Trazado_216649" data-name="Trazado 216649" d="M111.362,129.833,146.9,108.6a50.39,50.39,0,0,1,16.244-6.2V.631a50.377,50.377,0,0,0-16.112,6.178L26.312,78.938a53.036,53.036,0,0,0-13.733,11.82l85.61,50.218a53.079,53.079,0,0,1,13.173-11.143" transform="translate(0.125 0.006)" fill="#f33"/>
            <path id="Trazado_216650" data-name="Trazado 216650" d="M111.362,129.833,146.9,108.6a50.39,50.39,0,0,1,16.244-6.2V.631a50.377,50.377,0,0,0-16.112,6.178L26.312,78.938a53.036,53.036,0,0,0-13.733,11.82l85.61,50.218A53.079,53.079,0,0,1,111.362,129.833Z" transform="translate(0.125 0.006)" fill="none"/>
            <path id="Trazado_216651" data-name="Trazado 216651" d="M85.55,218.509V174.482a53.076,53.076,0,0,1,3.076-17.774L3.281,106.642A53.048,53.048,0,0,0,.5,123.587V269.4a53.035,53.035,0,0,0,2.534,16.169l85.053-50.891a53.039,53.039,0,0,1-2.537-16.174" transform="translate(0.005 1.06)" fill="#3ae3fe"/>
            <path id="Trazado_216652" data-name="Trazado 216652" d="M85.55,218.509V174.482a53.076,53.076,0,0,1,3.076-17.774L3.281,106.642A53.048,53.048,0,0,0,.5,123.587V269.4a53.035,53.035,0,0,0,2.534,16.169l85.053-50.891A53.039,53.039,0,0,1,85.55,218.509Z" transform="translate(0.005 1.06)" fill="none"/>
            <path id="Trazado_216653" data-name="Trazado 216653" d="M146.9,284.014l-35.535-21.232a53.114,53.114,0,0,1-14.235-12.429L12.08,301.245a53.088,53.088,0,0,0,14.237,12.432L147.034,385.8a50.354,50.354,0,0,0,16.113,6.178V290.216a50.4,50.4,0,0,1-16.244-6.2" transform="translate(0.12 2.488)" fill="#8da9c5"/>
            <path id="Trazado_216654" data-name="Trazado 216654" d="M146.9,284.014l-35.535-21.232a53.114,53.114,0,0,1-14.235-12.429L12.08,301.245a53.088,53.088,0,0,0,14.237,12.432L147.034,385.8a50.354,50.354,0,0,0,16.113,6.178V290.216A50.4,50.4,0,0,1,146.9,284.014Z" transform="translate(0.12 2.488)" fill="none"/>
            <path id="Trazado_216655" data-name="Trazado 216655" d="M232.626,262.789,197.09,284.021a50.361,50.361,0,0,1-16.244,6.2V392.014a50.361,50.361,0,0,0,16.244-6.2l120.719-72.128a53.105,53.105,0,0,0,15.363-13.9L247.5,249.534a53.117,53.117,0,0,1-14.875,13.255" transform="translate(1.797 2.48)" fill="#add1b3"/>
            <path id="Trazado_216656" data-name="Trazado 216656" d="M232.626,262.789,197.09,284.021a50.361,50.361,0,0,1-16.244,6.2V392.014a50.361,50.361,0,0,0,16.244-6.2l120.719-72.128a53.105,53.105,0,0,0,15.363-13.9L247.5,249.534A53.117,53.117,0,0,1,232.626,262.789Z" transform="translate(1.797 2.48)" fill="none"/>
            <path id="Trazado_216657" data-name="Trazado 216657" d="M257.825,174.5v44.027a53,53,0,0,1-2.219,15.164l85.408,50.1a53.027,53.027,0,0,0,1.993-14.372V123.6a53.1,53.1,0,0,0-3.293-18.391l-85.162,50.954a53.055,53.055,0,0,1,3.273,18.332" transform="translate(2.529 1.046)" fill="#eba325"/>
            <path id="Trazado_216658" data-name="Trazado 216658" d="M257.825,174.5v44.027a53,53,0,0,1-2.219,15.164l85.408,50.1a53.027,53.027,0,0,0,1.993-14.372V123.6a53.1,53.1,0,0,0-3.293-18.391l-85.162,50.954A53.055,53.055,0,0,1,257.825,174.5Z" transform="translate(2.529 1.046)" fill="none"/>
            <path id="Trazado_216659" data-name="Trazado 216659" d="M317.809,78.938,197.091,6.809a50.37,50.37,0,0,0-16.244-6.2V102.4a50.347,50.347,0,0,1,16.244,6.2l35.536,21.233a53,53,0,0,1,12.783,10.7l85.14-50.943a53.019,53.019,0,0,0-12.74-10.651" transform="translate(1.797 0.006)" fill="#359547"/>
            <path id="Trazado_216660" data-name="Trazado 216660" d="M317.809,78.938,197.091,6.809a50.37,50.37,0,0,0-16.244-6.2V102.4a50.347,50.347,0,0,1,16.244,6.2l35.536,21.233a53,53,0,0,1,12.783,10.7l85.14-50.943A53.019,53.019,0,0,0,317.809,78.938Z" transform="translate(1.797 0.006)" fill="none"/>
            <path id="Trazado_216661" data-name="Trazado 216661" d="M111.362,129.833,146.9,108.6a50.39,50.39,0,0,1,16.244-6.2V.631a50.377,50.377,0,0,0-16.112,6.178L26.312,78.938a53.036,53.036,0,0,0-13.733,11.82l85.61,50.218a53.079,53.079,0,0,1,13.173-11.143" transform="translate(0.125 0.006)" fill="#03386e"/>
            <path id="Trazado_216662" data-name="Trazado 216662" d="M111.362,129.833,146.9,108.6a50.39,50.39,0,0,1,16.244-6.2V.631a50.377,50.377,0,0,0-16.112,6.178L26.312,78.938a53.036,53.036,0,0,0-13.733,11.82l85.61,50.218A53.079,53.079,0,0,1,111.362,129.833Z" transform="translate(0.125 0.006)" fill="none"/>
            <g id="Layer_23" transform="translate(210.392 58.715)">
              <path id="Trazado_611331" data-name="Trazado 611331" d="M38.918,14.207a15.343,15.343,0,0,0-29.558,0,12.2,12.2,0,0,0,1.393,23.48,1.392,1.392,0,1,0,.577-2.723,9.417,9.417,0,0,1-.456-18.308,1.393,1.393,0,0,0,1-1.044,12.562,12.562,0,0,1,24.528,0,1.393,1.393,0,0,0,1,1.044,9.416,9.416,0,0,1-.456,18.306,1.392,1.392,0,0,0,.286,2.754,1.44,1.44,0,0,0,.291-.031,12.2,12.2,0,0,0,1.392-23.478Z" fill="#fff"/>
              <path id="Trazado_611332" data-name="Trazado 611332" d="M24.03,22.9V21.034a5.095,5.095,0,1,0-10.19,0V22.9a3.784,3.784,0,0,0-3.213,3.731v5.741a3.793,3.793,0,0,0,3.788,3.788h9.041a3.793,3.793,0,0,0,3.788-3.788V26.627A3.787,3.787,0,0,0,24.03,22.9Zm-5.095-4.172a2.314,2.314,0,0,1,2.312,2.31v1.8H16.623v-1.8a2.314,2.314,0,0,1,2.312-2.31ZM24.46,32.366a1.006,1.006,0,0,1-1.005,1H14.414a1.006,1.006,0,0,1-1.005-1V26.625a1.006,1.006,0,0,1,1.005-1h9.041a1.006,1.006,0,0,1,1.005,1Z" transform="translate(5.204 7.076)" fill="#fff"/>
            </g>
          </g>
        </g>
        <path id="Trazado_611327" data-name="Trazado 611327" d="M57.042,95.047H55.977a3.561,3.561,0,0,0,.471-1.773v-30a3.588,3.588,0,0,0-3.584-3.584H5.083A3.588,3.588,0,0,0,1.5,63.275v30a3.561,3.561,0,0,0,.471,1.773H.905A.905.905,0,0,0,0,95.952v3.635a4.545,4.545,0,0,0,4.54,4.54H53.407a4.545,4.545,0,0,0,4.54-4.54V95.952a.905.905,0,0,0-.905-.905ZM3.311,93.274v-30A1.775,1.775,0,0,1,5.083,61.5H52.864a1.775,1.775,0,0,1,1.773,1.773v30a1.775,1.775,0,0,1-1.773,1.773H5.083a1.775,1.775,0,0,1-1.773-1.773Zm19.708,3.584h11.91v1.577H23.019Zm33.118,2.729a2.732,2.732,0,0,1-2.729,2.729H4.54c-1.507,0-2.728-1.223-2.729-5.459h19.4v1.791a1.6,1.6,0,0,0,1.6,1.6H35.143c.882,0,1.6-.715,1.6-3.388h19.4ZM5.461,93.8Zm46.12-1.811h0ZM28.652,90.734a.9.9,0,0,0,.643,0A14.611,14.611,0,0,0,37.841,82.6a24.921,24.921,0,0,0,1.594-11.553.905.905,0,0,0-.521-.759L29.356,65.84a.905.905,0,0,0-.765,0l-9.559,4.452a.905.905,0,0,0-.521.759A24.922,24.922,0,0,0,20.107,82.6a14.608,14.608,0,0,0,8.545,8.129ZM20.287,71.706l8.687-4.046,8.687,4.046c.33,6.262-.984,14.085-8.687,17.209C21.271,85.791,19.957,77.968,20.287,71.706Zm15.563,6.175a6.876,6.876,0,1,0-6.876,6.876A6.876,6.876,0,0,0,35.849,77.881Zm-11.94,0a5.065,5.065,0,1,1,5.065,5.065A5.065,5.065,0,0,1,23.909,77.881Zm8.27-1-3.273,3.273a.905.905,0,0,1-1.28,0L25.769,78.3a.906.906,0,1,1,1.28-1.281l1.216,1.216L30.9,75.6a.905.905,0,1,1,1.28,1.281Z" transform="translate(709.251 17379.645)" fill="#fff"/>
        <g id="_01-Internet_Security" data-name="01-Internet Security" transform="translate(909.735 17550.816)">
          <path id="Trazado_611333" data-name="Trazado 611333" d="M25.39,39.551a18.278,18.278,0,0,1-2.849.345v-8.65a18.65,18.65,0,0,1,2.239.237.79.79,0,1,0,.262-1.558,20.215,20.215,0,0,0-2.5-.258V22.535h8.675c-.014.586-.038,1.178-.083,1.775a.79.79,0,1,0,1.575.118c.048-.637.073-1.268.087-1.893h7.916a.79.79,0,0,0,.79-.79A19.751,19.751,0,1,0,8.19,36.085c.007.008.009.019.016.026s.03.018.043.03a19.674,19.674,0,0,0,13.5,5.355,19.911,19.911,0,0,0,3.954-.4.79.79,0,0,0-.315-1.549Zm-8.987-.44a18.156,18.156,0,0,1-6.428-3.543,18.293,18.293,0,0,1,2.857-2,16.353,16.353,0,0,0,3.57,5.547Zm-2.151-6.269a17.911,17.911,0,0,1,6.709-1.6v8.6c-2.725-.433-5.125-3.083-6.709-7.006Zm6.709-3.176a19.5,19.5,0,0,0-7.252,1.686,30.913,30.913,0,0,1-1.428-8.817h8.68Zm1.58-26.024c2.721.433,5.118,3.074,6.7,6.987a18.068,18.068,0,0,1-6.7,1.6Zm4.558.737a18.155,18.155,0,0,1,6.415,3.532,18.182,18.182,0,0,1-2.852,2A16.337,16.337,0,0,0,27.1,4.379Zm-6.138-.737v8.585a18.068,18.068,0,0,1-6.7-1.6C15.843,6.717,18.24,4.075,20.961,3.642ZM12.84,9.907a18.185,18.185,0,0,1-2.852-2A18.156,18.156,0,0,1,16.4,4.379,16.336,16.336,0,0,0,12.84,9.907Zm8.121,3.9v7.148h-8.68a30.9,30.9,0,0,1,1.436-8.839A19.644,19.644,0,0,0,20.961,13.808Zm1.58,0a19.644,19.644,0,0,0,7.244-1.691,30.9,30.9,0,0,1,1.436,8.839h-8.68ZM39.9,20.955H32.8A32.179,32.179,0,0,0,31.223,11.4a19.766,19.766,0,0,0,3.454-2.411A18.11,18.11,0,0,1,39.9,20.955ZM8.825,8.993A19.762,19.762,0,0,0,12.279,11.4,32.179,32.179,0,0,0,10.7,20.955H3.6A18.109,18.109,0,0,1,8.825,8.993ZM3.6,22.535h7.1a32.194,32.194,0,0,0,1.572,9.536,19.855,19.855,0,0,0-3.459,2.416A18.109,18.109,0,0,1,3.6,22.535Zm45.015,4.74a18.457,18.457,0,0,1-9.807-3.01.792.792,0,0,0-.927,0,18.457,18.457,0,0,1-9.807,3.01.79.79,0,0,0-.79.79v7.9c0,9.772,10.709,13.357,10.817,13.392a.79.79,0,0,0,.488,0c.108-.035,10.817-3.62,10.817-13.392v-7.9A.79.79,0,0,0,48.612,27.276Zm-.79,8.69c0,7.839-7.971,11.23-9.481,11.8-1.509-.571-9.481-3.962-9.481-11.8V28.838a20.031,20.031,0,0,0,9.481-2.983,20.03,20.03,0,0,0,9.481,2.983ZM36.762,39.589l6.552-6.552a.79.79,0,1,1,1.117,1.117l-7.11,7.11a.79.79,0,0,1-1.117,0l-3.95-3.95A.79.79,0,1,1,33.37,36.2Z" transform="translate(0 0)" fill="#12263f" stroke="#12263f" stroke-width="0.5"/>
        </g>
        <g id="Grupo_1073418" data-name="Grupo 1073418" transform="translate(843.423 17666.797)">
          <path id="Trazado_611334" data-name="Trazado 611334" d="M13.705,8.081h23.38a.8.8,0,0,0,0-1.591H13.705a.8.8,0,1,0,0,1.591Z" transform="translate(-2.328 -1.22)" fill="#12263f" stroke="#12263f" stroke-width="0.4"/>
          <path id="Trazado_611335" data-name="Trazado 611335" d="M13.705,13.311h9.766a.8.8,0,1,0,0-1.591H13.705a.8.8,0,1,0,0,1.591Z" transform="translate(-2.328 -2.291)" fill="#12263f" stroke="#12263f" stroke-width="0.4"/>
          <path id="Trazado_611336" data-name="Trazado 611336" d="M20.317,25.265a.8.8,0,0,0-.8-.8H10.845a.8.8,0,1,0,0,1.591h8.676A.8.8,0,0,0,20.317,25.265Z" transform="translate(-1.742 -4.902)" fill="#12263f" stroke="#12263f" stroke-width="0.4"/>
          <path id="Trazado_611337" data-name="Trazado 611337" d="M10.845,28.06a.8.8,0,1,0,0,1.591h4.764a.8.8,0,1,0,0-1.591Z" transform="translate(-1.742 -5.637)" fill="#12263f" stroke="#12263f" stroke-width="0.4"/>
          <path id="Trazado_611338" data-name="Trazado 611338" d="M50.782,45.661a.8.8,0,0,0,.8-.8V37.6a2.306,2.306,0,0,0-2.3-2.306h-.334v-3.3A6.951,6.951,0,0,0,42,25.048,6.954,6.954,0,0,0,35.06,31.99v3.3h-.334A2.308,2.308,0,0,0,32.42,37.6v2.5H3.25L6.5,16.666a1.052,1.052,0,0,1,1.034-.9H42.368A1.042,1.042,0,0,1,43.4,16.952l-.851,6.163a.8.8,0,1,0,1.575.223l.851-6.163a2.66,2.66,0,0,0-.62-2.092,2.6,2.6,0,0,0-1.877-.891V10.98a2.128,2.128,0,0,0-2.123-2.123H39.291V3.719A3.194,3.194,0,0,0,36.1.53H10.057A3.194,3.194,0,0,0,6.868,3.719V4.761h-3.2A2.128,2.128,0,0,0,1.54,6.884v34a.716.716,0,0,0,.024.127.683.683,0,0,0,.024.135,1.229,1.229,0,0,0,.1.175.421.421,0,0,0,.048.08c.008.008.016.008.016.016a.856.856,0,0,0,.191.143.559.559,0,0,0,.072.048.846.846,0,0,0,.318.072H32.42v8.191a2.308,2.308,0,0,0,2.306,2.306H49.279a2.306,2.306,0,0,0,2.3-2.306V48.412a.8.8,0,1,0-1.591,0v1.455a.706.706,0,0,1-.708.716H34.726a.713.713,0,0,1-.716-.716V37.6a.713.713,0,0,1,.716-.716H49.279a.7.7,0,0,1,.708.716v7.269a.792.792,0,0,0,.8.8ZM40.34,10.439a.533.533,0,0,1,.533.533v3.2H39.267V10.431H40.34ZM8.451,3.719a1.6,1.6,0,0,1,1.6-1.6H36.07a1.6,1.6,0,0,1,1.6,1.6V14.177H8.451ZM3.663,6.351h3.2v7.921a2.645,2.645,0,0,0-1.94,2.171L3.131,29.374V6.884a.533.533,0,0,1,.533-.533ZM36.65,31.99A5.359,5.359,0,0,1,42,26.638a5.362,5.362,0,0,1,5.352,5.352v3.3h-1.5v-3.3a3.794,3.794,0,0,0-1.121-2.712A3.852,3.852,0,0,0,38.154,32v3.3h-1.5Zm7.611,3.3H39.744v-3.3A2.261,2.261,0,0,1,43.609,30.4a2.238,2.238,0,0,1,.66,1.591v3.3Z" fill="#12263f" stroke="#12263f" stroke-width="0.4"/>
          <path id="Trazado_611339" data-name="Trazado 611339" d="M51.722,58.455a.8.8,0,0,0,.8-.8V55.536a2.716,2.716,0,1,0-1.583,0V57.66a.781.781,0,0,0,.787.8ZM50.6,52.96a1.125,1.125,0,1,1,1.121,1.121A1.127,1.127,0,0,1,50.6,52.96Z" transform="translate(-9.719 -10.178)" fill="#12263f" stroke="#12263f" stroke-width="0.4"/>
        </g>
        <g id="Grupo_1073419" data-name="Grupo 1073419" transform="translate(696 17656.859)">
          <path id="Trazado_611340" data-name="Trazado 611340" d="M11.6,18.133a2.6,2.6,0,0,0-2.6,2.6V46.676a2.6,2.6,0,0,0,2.6,2.6H36.922a.867.867,0,0,0,0-1.733H11.6a.867.867,0,0,1-.867-.867V20.733a.867.867,0,0,1,.867-.867H51.9a.867.867,0,0,1,.867.867V30.859a.867.867,0,0,0,1.733,0V20.733a2.6,2.6,0,0,0-2.6-2.6Z" fill="#12263f" stroke="#12263f" stroke-width="1"/>
          <path id="Trazado_611341" data-name="Trazado 611341" d="M27.379,55.876a.867.867,0,0,1,1.191,1.259l-9.612,9.094a.867.867,0,1,1-1.191-1.259Z" transform="translate(-4.814 -21.253)" fill="#12263f" stroke="#12263f" stroke-width="1"/>
          <path id="Trazado_611342" data-name="Trazado 611342" d="M17.7,25.578a.927.927,0,0,1,1.259,0L34.5,40.275a2.78,2.78,0,0,0,3.778,0l15.536-14.7a.926.926,0,0,1,1.259,0,.81.81,0,0,1,0,1.191l-15.535,14.7a4.633,4.633,0,0,1-6.3,0L17.7,26.77a.811.811,0,0,1,0-1.191Z" transform="translate(-4.783 -4.079)" fill="#12263f" stroke="#12263f" stroke-width="1"/>
          <path id="Trazado_611343" data-name="Trazado 611343" d="M93.734,58.2v5.2h1.3a1.733,1.733,0,0,1,1.733,1.733V75.967A1.733,1.733,0,0,1,95.034,77.7h-14.3A1.733,1.733,0,0,1,79,75.967V65.133A1.733,1.733,0,0,1,80.733,63.4h1.3V58.2a5.2,5.2,0,0,1,5.2-5.2h1.3A5.2,5.2,0,0,1,93.734,58.2Zm-9.967,5.2V58.2a3.467,3.467,0,0,1,3.467-3.467h1.3A3.467,3.467,0,0,1,92,58.2v5.2ZM95.034,75.967V65.133h-14.3V75.967Z" transform="translate(-39.666 -19.758)" fill="#12263f" stroke="#12263f" stroke-width="1" fill-rule="evenodd"/>
        </g>
        <g id="Grupo_1073428" data-name="Grupo 1073428" transform="translate(645.148 17546.789)">
          <g id="Grupo_1073420" data-name="Grupo 1073420" transform="translate(25.147 18.227)">
            <path id="Trazado_611344" data-name="Trazado 611344" d="M29.328,34.8a1.72,1.72,0,0,1-1.216-2.937L39.262,20.717a1.72,1.72,0,0,1,2.433,2.433L30.545,34.3a1.712,1.712,0,0,1-1.216.5Z" transform="translate(-27.608 -20.213)" fill="#12263e"/>
          </g>
          <g id="Grupo_1073421" data-name="Grupo 1073421" transform="translate(19.526 23.756)">
            <path id="Trazado_611345" data-name="Trazado 611345" d="M28.415,35.7a1.714,1.714,0,0,1-1.216-.5l-5.621-5.62a1.72,1.72,0,0,1,2.433-2.433l5.621,5.62A1.72,1.72,0,0,1,28.415,35.7Z" transform="translate(-21.074 -26.641)" fill="#12263e"/>
          </g>
          <g id="Grupo_1073422" data-name="Grupo 1073422" transform="translate(10 23.498)">
            <path id="Trazado_611346" data-name="Trazado 611346" d="M28.925,53.575a1.733,1.733,0,0,1-.539-.087A26.726,26.726,0,0,1,10,28.061a1.72,1.72,0,1,1,3.441,0A23.291,23.291,0,0,0,29.463,50.22a1.721,1.721,0,0,1-.539,3.355Z" transform="translate(-10 -26.341)" fill="#12263e"/>
          </g>
          <g id="Grupo_1073423" data-name="Grupo 1073423" transform="translate(10 11.326)">
            <path id="Trazado_611347" data-name="Trazado 611347" d="M11.72,27.8A1.721,1.721,0,0,1,10,26.084V13.912a1.72,1.72,0,1,1,3.441,0V26.084A1.721,1.721,0,0,1,11.72,27.8Z" transform="translate(-10 -12.192)" fill="#12263e"/>
          </g>
          <g id="Grupo_1073424" data-name="Grupo 1073424" transform="translate(10 6)">
            <path id="Trazado_611348" data-name="Trazado 611348" d="M11.719,14.767a1.72,1.72,0,0,1-.235-3.425A53.965,53.965,0,0,0,28.158,6.181a1.72,1.72,0,0,1,1.535,3.08,57.448,57.448,0,0,1-17.735,5.491,1.725,1.725,0,0,1-.238.016Z" transform="translate(-10 -6)" fill="#12263e"/>
          </g>
          <g id="Grupo_1073425" data-name="Grupo 1073425" transform="translate(27.204 23.498)">
            <path id="Trazado_611349" data-name="Trazado 611349" d="M31.72,53.575a1.721,1.721,0,0,1-.539-3.355A23.289,23.289,0,0,0,47.2,28.061a1.72,1.72,0,1,1,3.441,0A26.726,26.726,0,0,1,32.259,53.488,1.7,1.7,0,0,1,31.72,53.575Z" transform="translate(-30 -26.341)" fill="#12263e"/>
          </g>
          <g id="Grupo_1073426" data-name="Grupo 1073426" transform="translate(44.409 11.326)">
            <path id="Trazado_611350" data-name="Trazado 611350" d="M51.72,27.8A1.721,1.721,0,0,1,50,26.084V13.912a1.72,1.72,0,1,1,3.441,0V26.084A1.721,1.721,0,0,1,51.72,27.8Z" transform="translate(-50 -12.192)" fill="#12263e"/>
          </g>
          <g id="Grupo_1073427" data-name="Grupo 1073427" transform="translate(27.203 6)">
            <path id="Trazado_611351" data-name="Trazado 611351" d="M48.926,14.767a1.728,1.728,0,0,1-.239-.016A57.448,57.448,0,0,1,30.952,9.26a1.72,1.72,0,1,1,1.535-3.08A53.988,53.988,0,0,0,49.16,11.343a1.72,1.72,0,0,1-.234,3.425Z" transform="translate(-29.999 -6)" fill="#12263e"/>
          </g>
        </g>
        <text id="Políticas_de_usuario" data-name="Políticas de usuario" transform="translate(743 17575)" fill="#12263f" font-size="18" font-family="Roboto-Black, Roboto" font-weight="800"><tspan x="-47.725" y="17">Políticas de </tspan><tspan x="-30.476" y="37">usuario</tspan></text>
        <g id="Ikon" transform="translate(780.389 17519.199)">
          <path id="Trazado_611352" data-name="Trazado 611352" d="M33.2,17.4V14.2a11.2,11.2,0,0,0-22.4,0v3.2A4.805,4.805,0,0,0,6,22.2V39.8a4.805,4.805,0,0,0,4.8,4.8H33.2A4.805,4.805,0,0,0,38,39.8V22.2A4.805,4.805,0,0,0,33.2,17.4ZM14,14.2a8,8,0,0,1,16,0v3.2H14ZM34.8,39.8a1.6,1.6,0,0,1-1.6,1.6H10.8a1.6,1.6,0,0,1-1.6-1.6V22.2a1.6,1.6,0,0,1,1.6-1.6H33.2a1.6,1.6,0,0,1,1.6,1.6Z" transform="translate(0 0)" fill="#12263f"/>
          <path id="Trazado_611353" data-name="Trazado 611353" d="M17.8,16a4.788,4.788,0,0,0-1.6,9.305V28.8a1.6,1.6,0,0,0,3.2,0V25.305A4.788,4.788,0,0,0,17.8,16Zm0,6.4a1.6,1.6,0,1,1,1.6-1.6A1.6,1.6,0,0,1,17.8,22.4Z" transform="translate(4.2 7.8)" fill="#12263f"/>
        </g>
      </g>
      <g id="Grupo_872027" data-name="Grupo 872027" transform="translate(1304.61 17634.393)">
        <path id="Trazado_214670" data-name="Trazado 214670" d="M0,0H7.72l7.72,10.39H7.72Z" transform="translate(0 73.338) rotate(-90)" fill="#3ae3fe"/>
        <path id="Trazado_214675" data-name="Trazado 214675" d="M0,0H7.72l7.72,10.39H7.72Z" transform="translate(0 38.599) rotate(-90)" fill="#3ae3fe"/>
        <path id="Trazado_214671" data-name="Trazado 214671" d="M0,0H7.72l7.72,10.39H7.72Z" transform="translate(0 61.758) rotate(-90)" fill="#3ae3fe"/>
        <path id="Trazado_214674" data-name="Trazado 214674" d="M0,0H7.72l7.72,10.39H7.72Z" transform="translate(0 27.019) rotate(-90)" fill="#3ae3fe"/>
        <path id="Trazado_214672" data-name="Trazado 214672" d="M0,0H7.72l7.72,10.39H7.72Z" transform="translate(0 50.178) rotate(-90)" fill="#3ae3fe"/>
        <path id="Trazado_214673" data-name="Trazado 214673" d="M0,0H7.72l7.72,10.39H7.72Z" transform="translate(0 15.44) rotate(-90)" fill="#3ae3fe"/>
      </g>
      <g id="Grupo_872028" data-name="Grupo 872028" transform="translate(285 17345.785)">
        <path id="Trazado_214670-2" data-name="Trazado 214670" d="M0,0H7.72l7.72,10.39H7.72Z" transform="translate(0 73.338) rotate(-90)" fill="#03386e"/>
        <path id="Trazado_214675-2" data-name="Trazado 214675" d="M0,0H7.72l7.72,10.39H7.72Z" transform="translate(0 38.599) rotate(-90)" fill="#03386e"/>
        <path id="Trazado_214671-2" data-name="Trazado 214671" d="M0,0H7.72l7.72,10.39H7.72Z" transform="translate(0 61.758) rotate(-90)" fill="#03386e"/>
        <path id="Trazado_214674-2" data-name="Trazado 214674" d="M0,0H7.72l7.72,10.39H7.72Z" transform="translate(0 27.019) rotate(-90)" fill="#03386e"/>
        <path id="Trazado_214672-2" data-name="Trazado 214672" d="M0,0H7.72l7.72,10.39H7.72Z" transform="translate(0 50.178) rotate(-90)" fill="#03386e"/>
        <path id="Trazado_214673-2" data-name="Trazado 214673" d="M0,0H7.72l7.72,10.39H7.72Z" transform="translate(0 15.44) rotate(-90)" fill="#03386e"/>
      </g>
      <g id="Grupo_1073456" data-name="Grupo 1073456" transform="translate(0 -8)">
        <rect id="Rectángulo_292178-2" data-name="Rectángulo 292178" width="1030" height="444" transform="translate(1315 17798) rotate(180)" fill="url(#linear-gradient)"/>
        <g id="Enmascarar_grupo_154272-2" data-name="Enmascarar grupo 154272" transform="translate(556.903 17355.49)" clip-path="url(#clip-path)">
          <g id="Grupo_871226-2" data-name="Grupo 871226" transform="translate(12.899 -1.311)" style="isolation: isolate">
            <path id="Trazado_216669-2" data-name="Trazado 216669" d="M-9641.418-12348.876s114.807,47.017,123.326-57.368,24.5-253.507-54.32-256.7-262.026,85.209-273.742,155.513S-9641.418-12348.876-9641.418-12348.876Z" transform="translate(9888.991 12690.016)" fill="#e1efe3"/>
            <path id="Trazado_216670-2" data-name="Trazado 216670" d="M198.934,304.566s111.3,45.581,119.565-55.617S342.248,3.179,265.833.082,11.8,82.691.445,150.848,198.934,304.566,198.934,304.566Z" transform="matrix(0.946, -0.326, 0.326, 0.946, 0, 106.01)" fill="#eaeff3"/>
          </g>
        </g>
        <g id="Grupo_871214-2" data-name="Grupo 871214" transform="translate(629.369 17379.777)">
          <g id="Grupo_871213-2" data-name="Grupo 871213" transform="translate(0)" clip-path="url(#clip-path-2)">
            <path id="Trazado_216649-2" data-name="Trazado 216649" d="M111.362,129.833,146.9,108.6a50.39,50.39,0,0,1,16.244-6.2V.631a50.377,50.377,0,0,0-16.112,6.178L26.312,78.938a53.036,53.036,0,0,0-13.733,11.82l85.61,50.218a53.079,53.079,0,0,1,13.173-11.143" transform="translate(0.125 0.006)" fill="#f33"/>
            <path id="Trazado_216650-2" data-name="Trazado 216650" d="M111.362,129.833,146.9,108.6a50.39,50.39,0,0,1,16.244-6.2V.631a50.377,50.377,0,0,0-16.112,6.178L26.312,78.938a53.036,53.036,0,0,0-13.733,11.82l85.61,50.218A53.079,53.079,0,0,1,111.362,129.833Z" transform="translate(0.125 0.006)" fill="none"/>
            <path id="Trazado_216651-2" data-name="Trazado 216651" d="M85.55,218.509V174.482a53.076,53.076,0,0,1,3.076-17.774L3.281,106.642A53.048,53.048,0,0,0,.5,123.587V269.4a53.035,53.035,0,0,0,2.534,16.169l85.053-50.891a53.039,53.039,0,0,1-2.537-16.174" transform="translate(0.005 1.06)" fill="#3ae3fe"/>
            <path id="Trazado_216652-2" data-name="Trazado 216652" d="M85.55,218.509V174.482a53.076,53.076,0,0,1,3.076-17.774L3.281,106.642A53.048,53.048,0,0,0,.5,123.587V269.4a53.035,53.035,0,0,0,2.534,16.169l85.053-50.891A53.039,53.039,0,0,1,85.55,218.509Z" transform="translate(0.005 1.06)" fill="none"/>
            <path id="Trazado_216653-2" data-name="Trazado 216653" d="M146.9,284.014l-35.535-21.232a53.114,53.114,0,0,1-14.235-12.429L12.08,301.245a53.088,53.088,0,0,0,14.237,12.432L147.034,385.8a50.354,50.354,0,0,0,16.113,6.178V290.216a50.4,50.4,0,0,1-16.244-6.2" transform="translate(0.12 2.488)" fill="#8da9c5"/>
            <path id="Trazado_216654-2" data-name="Trazado 216654" d="M146.9,284.014l-35.535-21.232a53.114,53.114,0,0,1-14.235-12.429L12.08,301.245a53.088,53.088,0,0,0,14.237,12.432L147.034,385.8a50.354,50.354,0,0,0,16.113,6.178V290.216A50.4,50.4,0,0,1,146.9,284.014Z" transform="translate(0.12 2.488)" fill="none"/>
            <path id="Trazado_216655-2" data-name="Trazado 216655" d="M232.626,262.789,197.09,284.021a50.361,50.361,0,0,1-16.244,6.2V392.014a50.361,50.361,0,0,0,16.244-6.2l120.719-72.128a53.105,53.105,0,0,0,15.363-13.9L247.5,249.534a53.117,53.117,0,0,1-14.875,13.255" transform="translate(1.797 2.48)" fill="#add1b3"/>
            <path id="Trazado_216656-2" data-name="Trazado 216656" d="M232.626,262.789,197.09,284.021a50.361,50.361,0,0,1-16.244,6.2V392.014a50.361,50.361,0,0,0,16.244-6.2l120.719-72.128a53.105,53.105,0,0,0,15.363-13.9L247.5,249.534A53.117,53.117,0,0,1,232.626,262.789Z" transform="translate(1.797 2.48)" fill="none"/>
            <path id="Trazado_216657-2" data-name="Trazado 216657" d="M257.825,174.5v44.027a53,53,0,0,1-2.219,15.164l85.408,50.1a53.027,53.027,0,0,0,1.993-14.372V123.6a53.1,53.1,0,0,0-3.293-18.391l-85.162,50.954a53.055,53.055,0,0,1,3.273,18.332" transform="translate(2.529 1.046)" fill="#eba325"/>
            <path id="Trazado_216658-2" data-name="Trazado 216658" d="M257.825,174.5v44.027a53,53,0,0,1-2.219,15.164l85.408,50.1a53.027,53.027,0,0,0,1.993-14.372V123.6a53.1,53.1,0,0,0-3.293-18.391l-85.162,50.954A53.055,53.055,0,0,1,257.825,174.5Z" transform="translate(2.529 1.046)" fill="none"/>
            <path id="Trazado_216659-2" data-name="Trazado 216659" d="M317.809,78.938,197.091,6.809a50.37,50.37,0,0,0-16.244-6.2V102.4a50.347,50.347,0,0,1,16.244,6.2l35.536,21.233a53,53,0,0,1,12.783,10.7l85.14-50.943a53.019,53.019,0,0,0-12.74-10.651" transform="translate(1.797 0.006)" fill="#359547"/>
            <path id="Trazado_216660-2" data-name="Trazado 216660" d="M317.809,78.938,197.091,6.809a50.37,50.37,0,0,0-16.244-6.2V102.4a50.347,50.347,0,0,1,16.244,6.2l35.536,21.233a53,53,0,0,1,12.783,10.7l85.14-50.943A53.019,53.019,0,0,0,317.809,78.938Z" transform="translate(1.797 0.006)" fill="none"/>
            <path id="Trazado_216661-2" data-name="Trazado 216661" d="M111.362,129.833,146.9,108.6a50.39,50.39,0,0,1,16.244-6.2V.631a50.377,50.377,0,0,0-16.112,6.178L26.312,78.938a53.036,53.036,0,0,0-13.733,11.82l85.61,50.218a53.079,53.079,0,0,1,13.173-11.143" transform="translate(0.125 0.006)" fill="#03386e"/>
            <path id="Trazado_216662-2" data-name="Trazado 216662" d="M111.362,129.833,146.9,108.6a50.39,50.39,0,0,1,16.244-6.2V.631a50.377,50.377,0,0,0-16.112,6.178L26.312,78.938a53.036,53.036,0,0,0-13.733,11.82l85.61,50.218A53.079,53.079,0,0,1,111.362,129.833Z" transform="translate(0.125 0.006)" fill="none"/>
            <g id="Layer_23-2" data-name="Layer_23" transform="translate(210.392 58.715)">
              <path id="Trazado_611331-2" data-name="Trazado 611331" d="M38.918,14.207a15.343,15.343,0,0,0-29.558,0,12.2,12.2,0,0,0,1.393,23.48,1.392,1.392,0,1,0,.577-2.723,9.417,9.417,0,0,1-.456-18.308,1.393,1.393,0,0,0,1-1.044,12.562,12.562,0,0,1,24.528,0,1.393,1.393,0,0,0,1,1.044,9.416,9.416,0,0,1-.456,18.306,1.392,1.392,0,0,0,.286,2.754,1.44,1.44,0,0,0,.291-.031,12.2,12.2,0,0,0,1.392-23.478Z" fill="#fff"/>
              <path id="Trazado_611332-2" data-name="Trazado 611332" d="M24.03,22.9V21.034a5.095,5.095,0,1,0-10.19,0V22.9a3.784,3.784,0,0,0-3.213,3.731v5.741a3.793,3.793,0,0,0,3.788,3.788h9.041a3.793,3.793,0,0,0,3.788-3.788V26.627A3.787,3.787,0,0,0,24.03,22.9Zm-5.095-4.172a2.314,2.314,0,0,1,2.312,2.31v1.8H16.623v-1.8a2.314,2.314,0,0,1,2.312-2.31ZM24.46,32.366a1.006,1.006,0,0,1-1.005,1H14.414a1.006,1.006,0,0,1-1.005-1V26.625a1.006,1.006,0,0,1,1.005-1h9.041a1.006,1.006,0,0,1,1.005,1Z" transform="translate(5.204 7.076)" fill="#fff"/>
            </g>
          </g>
        </g>
        <path id="Trazado_611327-2" data-name="Trazado 611327" d="M57.042,95.047H55.977a3.561,3.561,0,0,0,.471-1.773v-30a3.588,3.588,0,0,0-3.584-3.584H5.083A3.588,3.588,0,0,0,1.5,63.275v30a3.561,3.561,0,0,0,.471,1.773H.905A.905.905,0,0,0,0,95.952v3.635a4.545,4.545,0,0,0,4.54,4.54H53.407a4.545,4.545,0,0,0,4.54-4.54V95.952a.905.905,0,0,0-.905-.905ZM3.311,93.274v-30A1.775,1.775,0,0,1,5.083,61.5H52.864a1.775,1.775,0,0,1,1.773,1.773v30a1.775,1.775,0,0,1-1.773,1.773H5.083a1.775,1.775,0,0,1-1.773-1.773Zm19.708,3.584h11.91v1.577H23.019Zm33.118,2.729a2.732,2.732,0,0,1-2.729,2.729H4.54c-1.507,0-2.728-1.223-2.729-5.459h19.4v1.791a1.6,1.6,0,0,0,1.6,1.6H35.143c.882,0,1.6-.715,1.6-3.388h19.4ZM5.461,93.8Zm46.12-1.811h0ZM28.652,90.734a.9.9,0,0,0,.643,0A14.611,14.611,0,0,0,37.841,82.6a24.921,24.921,0,0,0,1.594-11.553.905.905,0,0,0-.521-.759L29.356,65.84a.905.905,0,0,0-.765,0l-9.559,4.452a.905.905,0,0,0-.521.759A24.922,24.922,0,0,0,20.107,82.6a14.608,14.608,0,0,0,8.545,8.129ZM20.287,71.706l8.687-4.046,8.687,4.046c.33,6.262-.984,14.085-8.687,17.209C21.271,85.791,19.957,77.968,20.287,71.706Zm15.563,6.175a6.876,6.876,0,1,0-6.876,6.876A6.876,6.876,0,0,0,35.849,77.881Zm-11.94,0a5.065,5.065,0,1,1,5.065,5.065A5.065,5.065,0,0,1,23.909,77.881Zm8.27-1-3.273,3.273a.905.905,0,0,1-1.28,0L25.769,78.3a.906.906,0,1,1,1.28-1.281l1.216,1.216L30.9,75.6a.905.905,0,1,1,1.28,1.281Z" transform="translate(709.251 17379.645)" fill="#fff"/>
        <g id="_01-Internet_Security-2" data-name="01-Internet Security" transform="translate(909.735 17550.816)">
          <path id="Trazado_611333-2" data-name="Trazado 611333" d="M25.39,39.551a18.278,18.278,0,0,1-2.849.345v-8.65a18.65,18.65,0,0,1,2.239.237.79.79,0,1,0,.262-1.558,20.215,20.215,0,0,0-2.5-.258V22.535h8.675c-.014.586-.038,1.178-.083,1.775a.79.79,0,1,0,1.575.118c.048-.637.073-1.268.087-1.893h7.916a.79.79,0,0,0,.79-.79A19.751,19.751,0,1,0,8.19,36.085c.007.008.009.019.016.026s.03.018.043.03a19.674,19.674,0,0,0,13.5,5.355,19.911,19.911,0,0,0,3.954-.4.79.79,0,0,0-.315-1.549Zm-8.987-.44a18.156,18.156,0,0,1-6.428-3.543,18.293,18.293,0,0,1,2.857-2,16.353,16.353,0,0,0,3.57,5.547Zm-2.151-6.269a17.911,17.911,0,0,1,6.709-1.6v8.6c-2.725-.433-5.125-3.083-6.709-7.006Zm6.709-3.176a19.5,19.5,0,0,0-7.252,1.686,30.913,30.913,0,0,1-1.428-8.817h8.68Zm1.58-26.024c2.721.433,5.118,3.074,6.7,6.987a18.068,18.068,0,0,1-6.7,1.6Zm4.558.737a18.155,18.155,0,0,1,6.415,3.532,18.182,18.182,0,0,1-2.852,2A16.337,16.337,0,0,0,27.1,4.379Zm-6.138-.737v8.585a18.068,18.068,0,0,1-6.7-1.6C15.843,6.717,18.24,4.075,20.961,3.642ZM12.84,9.907a18.185,18.185,0,0,1-2.852-2A18.156,18.156,0,0,1,16.4,4.379,16.336,16.336,0,0,0,12.84,9.907Zm8.121,3.9v7.148h-8.68a30.9,30.9,0,0,1,1.436-8.839A19.644,19.644,0,0,0,20.961,13.808Zm1.58,0a19.644,19.644,0,0,0,7.244-1.691,30.9,30.9,0,0,1,1.436,8.839h-8.68ZM39.9,20.955H32.8A32.179,32.179,0,0,0,31.223,11.4a19.766,19.766,0,0,0,3.454-2.411A18.11,18.11,0,0,1,39.9,20.955ZM8.825,8.993A19.762,19.762,0,0,0,12.279,11.4,32.179,32.179,0,0,0,10.7,20.955H3.6A18.109,18.109,0,0,1,8.825,8.993ZM3.6,22.535h7.1a32.194,32.194,0,0,0,1.572,9.536,19.855,19.855,0,0,0-3.459,2.416A18.109,18.109,0,0,1,3.6,22.535Zm45.015,4.74a18.457,18.457,0,0,1-9.807-3.01.792.792,0,0,0-.927,0,18.457,18.457,0,0,1-9.807,3.01.79.79,0,0,0-.79.79v7.9c0,9.772,10.709,13.357,10.817,13.392a.79.79,0,0,0,.488,0c.108-.035,10.817-3.62,10.817-13.392v-7.9A.79.79,0,0,0,48.612,27.276Zm-.79,8.69c0,7.839-7.971,11.23-9.481,11.8-1.509-.571-9.481-3.962-9.481-11.8V28.838a20.031,20.031,0,0,0,9.481-2.983,20.03,20.03,0,0,0,9.481,2.983ZM36.762,39.589l6.552-6.552a.79.79,0,1,1,1.117,1.117l-7.11,7.11a.79.79,0,0,1-1.117,0l-3.95-3.95A.79.79,0,1,1,33.37,36.2Z" transform="translate(0 0)" fill="#12263f" stroke="#12263f" stroke-width="0.5"/>
        </g>
        <g id="Grupo_1073418-2" data-name="Grupo 1073418" transform="translate(843.423 17666.797)">
          <path id="Trazado_611334-2" data-name="Trazado 611334" d="M13.705,8.081h23.38a.8.8,0,0,0,0-1.591H13.705a.8.8,0,1,0,0,1.591Z" transform="translate(-2.328 -1.22)" fill="#12263f" stroke="#12263f" stroke-width="0.4"/>
          <path id="Trazado_611335-2" data-name="Trazado 611335" d="M13.705,13.311h9.766a.8.8,0,1,0,0-1.591H13.705a.8.8,0,1,0,0,1.591Z" transform="translate(-2.328 -2.291)" fill="#12263f" stroke="#12263f" stroke-width="0.4"/>
          <path id="Trazado_611336-2" data-name="Trazado 611336" d="M20.317,25.265a.8.8,0,0,0-.8-.8H10.845a.8.8,0,1,0,0,1.591h8.676A.8.8,0,0,0,20.317,25.265Z" transform="translate(-1.742 -4.902)" fill="#12263f" stroke="#12263f" stroke-width="0.4"/>
          <path id="Trazado_611337-2" data-name="Trazado 611337" d="M10.845,28.06a.8.8,0,1,0,0,1.591h4.764a.8.8,0,1,0,0-1.591Z" transform="translate(-1.742 -5.637)" fill="#12263f" stroke="#12263f" stroke-width="0.4"/>
          <path id="Trazado_611338-2" data-name="Trazado 611338" d="M50.782,45.661a.8.8,0,0,0,.8-.8V37.6a2.306,2.306,0,0,0-2.3-2.306h-.334v-3.3A6.951,6.951,0,0,0,42,25.048,6.954,6.954,0,0,0,35.06,31.99v3.3h-.334A2.308,2.308,0,0,0,32.42,37.6v2.5H3.25L6.5,16.666a1.052,1.052,0,0,1,1.034-.9H42.368A1.042,1.042,0,0,1,43.4,16.952l-.851,6.163a.8.8,0,1,0,1.575.223l.851-6.163a2.66,2.66,0,0,0-.62-2.092,2.6,2.6,0,0,0-1.877-.891V10.98a2.128,2.128,0,0,0-2.123-2.123H39.291V3.719A3.194,3.194,0,0,0,36.1.53H10.057A3.194,3.194,0,0,0,6.868,3.719V4.761h-3.2A2.128,2.128,0,0,0,1.54,6.884v34a.716.716,0,0,0,.024.127.683.683,0,0,0,.024.135,1.229,1.229,0,0,0,.1.175.421.421,0,0,0,.048.08c.008.008.016.008.016.016a.856.856,0,0,0,.191.143.559.559,0,0,0,.072.048.846.846,0,0,0,.318.072H32.42v8.191a2.308,2.308,0,0,0,2.306,2.306H49.279a2.306,2.306,0,0,0,2.3-2.306V48.412a.8.8,0,1,0-1.591,0v1.455a.706.706,0,0,1-.708.716H34.726a.713.713,0,0,1-.716-.716V37.6a.713.713,0,0,1,.716-.716H49.279a.7.7,0,0,1,.708.716v7.269a.792.792,0,0,0,.8.8ZM40.34,10.439a.533.533,0,0,1,.533.533v3.2H39.267V10.431H40.34ZM8.451,3.719a1.6,1.6,0,0,1,1.6-1.6H36.07a1.6,1.6,0,0,1,1.6,1.6V14.177H8.451ZM3.663,6.351h3.2v7.921a2.645,2.645,0,0,0-1.94,2.171L3.131,29.374V6.884a.533.533,0,0,1,.533-.533ZM36.65,31.99A5.359,5.359,0,0,1,42,26.638a5.362,5.362,0,0,1,5.352,5.352v3.3h-1.5v-3.3a3.794,3.794,0,0,0-1.121-2.712A3.852,3.852,0,0,0,38.154,32v3.3h-1.5Zm7.611,3.3H39.744v-3.3A2.261,2.261,0,0,1,43.609,30.4a2.238,2.238,0,0,1,.66,1.591v3.3Z" fill="#12263f" stroke="#12263f" stroke-width="0.4"/>
          <path id="Trazado_611339-2" data-name="Trazado 611339" d="M51.722,58.455a.8.8,0,0,0,.8-.8V55.536a2.716,2.716,0,1,0-1.583,0V57.66a.781.781,0,0,0,.787.8ZM50.6,52.96a1.125,1.125,0,1,1,1.121,1.121A1.127,1.127,0,0,1,50.6,52.96Z" transform="translate(-9.719 -10.178)" fill="#12263f" stroke="#12263f" stroke-width="0.4"/>
        </g>
        <g id="Grupo_1073419-2" data-name="Grupo 1073419" transform="translate(696 17656.859)">
          <path id="Trazado_611340-2" data-name="Trazado 611340" d="M11.6,18.133a2.6,2.6,0,0,0-2.6,2.6V46.676a2.6,2.6,0,0,0,2.6,2.6H36.922a.867.867,0,0,0,0-1.733H11.6a.867.867,0,0,1-.867-.867V20.733a.867.867,0,0,1,.867-.867H51.9a.867.867,0,0,1,.867.867V30.859a.867.867,0,0,0,1.733,0V20.733a2.6,2.6,0,0,0-2.6-2.6Z" fill="#12263f" stroke="#12263f" stroke-width="1"/>
          <path id="Trazado_611341-2" data-name="Trazado 611341" d="M27.379,55.876a.867.867,0,0,1,1.191,1.259l-9.612,9.094a.867.867,0,1,1-1.191-1.259Z" transform="translate(-4.814 -21.253)" fill="#12263f" stroke="#12263f" stroke-width="1"/>
          <path id="Trazado_611342-2" data-name="Trazado 611342" d="M17.7,25.578a.927.927,0,0,1,1.259,0L34.5,40.275a2.78,2.78,0,0,0,3.778,0l15.536-14.7a.926.926,0,0,1,1.259,0,.81.81,0,0,1,0,1.191l-15.535,14.7a4.633,4.633,0,0,1-6.3,0L17.7,26.77a.811.811,0,0,1,0-1.191Z" transform="translate(-4.783 -4.079)" fill="#12263f" stroke="#12263f" stroke-width="1"/>
          <path id="Trazado_611343-2" data-name="Trazado 611343" d="M93.734,58.2v5.2h1.3a1.733,1.733,0,0,1,1.733,1.733V75.967A1.733,1.733,0,0,1,95.034,77.7h-14.3A1.733,1.733,0,0,1,79,75.967V65.133A1.733,1.733,0,0,1,80.733,63.4h1.3V58.2a5.2,5.2,0,0,1,5.2-5.2h1.3A5.2,5.2,0,0,1,93.734,58.2Zm-9.967,5.2V58.2a3.467,3.467,0,0,1,3.467-3.467h1.3A3.467,3.467,0,0,1,92,58.2v5.2ZM95.034,75.967V65.133h-14.3V75.967Z" transform="translate(-39.666 -19.758)" fill="#12263f" stroke="#12263f" stroke-width="1" fill-rule="evenodd"/>
        </g>
        <g id="Grupo_1073428-2" data-name="Grupo 1073428" transform="translate(645.148 17546.789)">
          <g id="Grupo_1073420-2" data-name="Grupo 1073420" transform="translate(25.147 18.227)">
            <path id="Trazado_611344-2" data-name="Trazado 611344" d="M29.328,34.8a1.72,1.72,0,0,1-1.216-2.937L39.262,20.717a1.72,1.72,0,0,1,2.433,2.433L30.545,34.3a1.712,1.712,0,0,1-1.216.5Z" transform="translate(-27.608 -20.213)" fill="#12263e"/>
          </g>
          <g id="Grupo_1073421-2" data-name="Grupo 1073421" transform="translate(19.526 23.756)">
            <path id="Trazado_611345-2" data-name="Trazado 611345" d="M28.415,35.7a1.714,1.714,0,0,1-1.216-.5l-5.621-5.62a1.72,1.72,0,0,1,2.433-2.433l5.621,5.62A1.72,1.72,0,0,1,28.415,35.7Z" transform="translate(-21.074 -26.641)" fill="#12263e"/>
          </g>
          <g id="Grupo_1073422-2" data-name="Grupo 1073422" transform="translate(10 23.498)">
            <path id="Trazado_611346-2" data-name="Trazado 611346" d="M28.925,53.575a1.733,1.733,0,0,1-.539-.087A26.726,26.726,0,0,1,10,28.061a1.72,1.72,0,1,1,3.441,0A23.291,23.291,0,0,0,29.463,50.22a1.721,1.721,0,0,1-.539,3.355Z" transform="translate(-10 -26.341)" fill="#12263e"/>
          </g>
          <g id="Grupo_1073423-2" data-name="Grupo 1073423" transform="translate(10 11.326)">
            <path id="Trazado_611347-2" data-name="Trazado 611347" d="M11.72,27.8A1.721,1.721,0,0,1,10,26.084V13.912a1.72,1.72,0,1,1,3.441,0V26.084A1.721,1.721,0,0,1,11.72,27.8Z" transform="translate(-10 -12.192)" fill="#12263e"/>
          </g>
          <g id="Grupo_1073424-2" data-name="Grupo 1073424" transform="translate(10 6)">
            <path id="Trazado_611348-2" data-name="Trazado 611348" d="M11.719,14.767a1.72,1.72,0,0,1-.235-3.425A53.965,53.965,0,0,0,28.158,6.181a1.72,1.72,0,0,1,1.535,3.08,57.448,57.448,0,0,1-17.735,5.491,1.725,1.725,0,0,1-.238.016Z" transform="translate(-10 -6)" fill="#12263e"/>
          </g>
          <g id="Grupo_1073425-2" data-name="Grupo 1073425" transform="translate(27.204 23.498)">
            <path id="Trazado_611349-2" data-name="Trazado 611349" d="M31.72,53.575a1.721,1.721,0,0,1-.539-3.355A23.289,23.289,0,0,0,47.2,28.061a1.72,1.72,0,1,1,3.441,0A26.726,26.726,0,0,1,32.259,53.488,1.7,1.7,0,0,1,31.72,53.575Z" transform="translate(-30 -26.341)" fill="#12263e"/>
          </g>
          <g id="Grupo_1073426-2" data-name="Grupo 1073426" transform="translate(44.409 11.326)">
            <path id="Trazado_611350-2" data-name="Trazado 611350" d="M51.72,27.8A1.721,1.721,0,0,1,50,26.084V13.912a1.72,1.72,0,1,1,3.441,0V26.084A1.721,1.721,0,0,1,51.72,27.8Z" transform="translate(-50 -12.192)" fill="#12263e"/>
          </g>
          <g id="Grupo_1073427-2" data-name="Grupo 1073427" transform="translate(27.203 6)">
            <path id="Trazado_611351-2" data-name="Trazado 611351" d="M48.926,14.767a1.728,1.728,0,0,1-.239-.016A57.448,57.448,0,0,1,30.952,9.26a1.72,1.72,0,1,1,1.535-3.08A53.988,53.988,0,0,0,49.16,11.343a1.72,1.72,0,0,1-.234,3.425Z" transform="translate(-29.999 -6)" fill="#12263e"/>
          </g>
        </g>
        <path id="Trazado_613434" data-name="Trazado 613434" d="M15.827,12.658V17H12.742V4.2h5.106a5.948,5.948,0,0,1,2.6.541,4.074,4.074,0,0,1,1.749,1.538,4.2,4.2,0,0,1,.62,2.263,3.7,3.7,0,0,1-1.34,2.993A5.561,5.561,0,0,1,17.8,12.658Zm0-2.382h2.021a1.906,1.906,0,0,0,1.367-.448,1.665,1.665,0,0,0,.47-1.266A2.059,2.059,0,0,0,19.2,7.13a1.712,1.712,0,0,0-1.318-.545H15.827Zm8.007,1.881a5.613,5.613,0,0,1,.554-2.536,3.96,3.96,0,0,1,1.591-1.709,4.791,4.791,0,0,1,2.435-.6,4.373,4.373,0,0,1,3.366,1.323,5.076,5.076,0,0,1,1.23,3.6v.105a4.925,4.925,0,0,1-1.235,3.529,4.384,4.384,0,0,1-3.344,1.305,4.434,4.434,0,0,1-3.261-1.217,4.761,4.761,0,0,1-1.327-3.3Zm2.962.185a3.538,3.538,0,0,0,.413,1.934,1.376,1.376,0,0,0,1.222.615q1.582,0,1.617-2.435v-.3q0-2.558-1.635-2.558-1.485,0-1.608,2.206ZM37.439,17H34.469V3.5h2.971Zm5.054,0H39.514V7.49h2.979ZM41.386,3.676h3.129l-2.443,2.76-2.417,0Zm6.46,1.45V7.49H49.41V9.547H47.846V13.9a1.111,1.111,0,0,0,.193.747,1.037,1.037,0,0,0,.765.211,4.345,4.345,0,0,0,.738-.053v2.118a5.466,5.466,0,0,1-1.67.255,3.1,3.1,0,0,1-2.259-.721,2.954,2.954,0,0,1-.729-2.188V9.547H43.671V7.49h1.213V5.126ZM53.7,17H50.729V7.49H53.7ZM50.553,5.038A1.322,1.322,0,0,1,51.01,4a1.943,1.943,0,0,1,2.373,0,1.322,1.322,0,0,1,.457,1.037,1.322,1.322,0,0,1-.457,1.037,1.943,1.943,0,0,1-2.373,0A1.322,1.322,0,0,1,50.553,5.038Zm8.991,9.853a1.317,1.317,0,0,0,.967-.338,1.241,1.241,0,0,0,.334-.945h2.777A3.288,3.288,0,0,1,62.5,16.174a4.168,4.168,0,0,1-2.887,1,4.22,4.22,0,0,1-3.27-1.3,5.125,5.125,0,0,1-1.2-3.6v-.123A5.792,5.792,0,0,1,55.681,9.6a3.872,3.872,0,0,1,1.534-1.7,4.573,4.573,0,0,1,2.373-.593,4.116,4.116,0,0,1,2.944,1.028,3.647,3.647,0,0,1,1.09,2.786H60.845A1.626,1.626,0,0,0,60.484,10a1.244,1.244,0,0,0-.967-.4q-1.151,0-1.345,1.468a10.357,10.357,0,0,0-.062,1.283,4.068,4.068,0,0,0,.343,1.986A1.187,1.187,0,0,0,59.544,14.891ZM70.231,17a3.344,3.344,0,0,1-.281-.853,2.754,2.754,0,0,1-2.285,1.028,3.374,3.374,0,0,1-2.285-.813,2.588,2.588,0,0,1-.94-2.043,2.66,2.66,0,0,1,1.143-2.338A5.821,5.821,0,0,1,68.9,11.19h.914v-.5q0-1.316-1.134-1.316a.927.927,0,0,0-1.055,1.042H64.668a2.655,2.655,0,0,1,1.173-2.239,4.931,4.931,0,0,1,2.993-.86,4.323,4.323,0,0,1,2.874.888,3.086,3.086,0,0,1,1.081,2.435v4.21a4.311,4.311,0,0,0,.4,2V17Zm-1.854-1.934a1.652,1.652,0,0,0,.918-.237,1.487,1.487,0,0,0,.523-.536V12.772h-.861q-1.547,0-1.547,1.389a.848.848,0,0,0,.272.655A.986.986,0,0,0,68.377,15.066Zm11.03-.738a.684.684,0,0,0-.4-.606,6.016,6.016,0,0,0-1.5-.475,6.853,6.853,0,0,1-1.828-.646,3.062,3.062,0,0,1-1.1-.971,2.319,2.319,0,0,1-.378-1.31,2.628,2.628,0,0,1,1.081-2.158,4.453,4.453,0,0,1,2.83-.848,4.934,4.934,0,0,1,3.023.853,2.666,2.666,0,0,1,1.143,2.241H79.311q0-1.143-1.2-1.143a1.194,1.194,0,0,0-.782.259.8.8,0,0,0-.316.646.737.737,0,0,0,.387.642,3.654,3.654,0,0,0,1.235.4,10.671,10.671,0,0,1,1.49.378,2.706,2.706,0,0,1,2.145,2.646,2.491,2.491,0,0,1-1.156,2.118,5.068,5.068,0,0,1-2.993.817,5.172,5.172,0,0,1-2.18-.439,3.645,3.645,0,0,1-1.494-1.2,2.707,2.707,0,0,1-.536-1.591h2.769a1.145,1.145,0,0,0,.439.962,1.808,1.808,0,0,0,1.081.3,1.422,1.422,0,0,0,.91-.246A.787.787,0,0,0,79.407,14.328Zm8.35-2.153a5.809,5.809,0,0,1,.976-3.56,3.211,3.211,0,0,1,2.725-1.3,2.731,2.731,0,0,1,2.145,1V3.5h2.971V17H93.909l-.149-1.02a2.8,2.8,0,0,1-2.32,1.2,3.205,3.205,0,0,1-2.689-1.3A5.993,5.993,0,0,1,87.757,12.175Zm2.962.185q0,2.531,1.477,2.531a1.458,1.458,0,0,0,1.406-.826V10.443A1.419,1.419,0,0,0,92.213,9.6q-1.371,0-1.485,2.215Zm12.138,4.816a4.889,4.889,0,0,1-3.542-1.305,4.507,4.507,0,0,1-1.354-3.4v-.246A5.84,5.84,0,0,1,98.5,9.652a3.955,3.955,0,0,1,1.578-1.727,4.763,4.763,0,0,1,2.461-.611A4.117,4.117,0,0,1,105.7,8.558a4.887,4.887,0,0,1,1.16,3.467v1.151h-5.889a2.135,2.135,0,0,0,.694,1.257,2.066,2.066,0,0,0,1.389.457,2.662,2.662,0,0,0,2.2-.984l1.354,1.6a3.784,3.784,0,0,1-1.569,1.217A5.3,5.3,0,0,1,102.856,17.176ZM102.522,9.6q-1.3,0-1.547,1.723h2.988v-.229a1.467,1.467,0,0,0-.36-1.1A1.434,1.434,0,0,0,102.522,9.6Zm-67,26.372a3.054,3.054,0,0,1-2.54,1.2,3,3,0,0,1-2.369-.91,3.826,3.826,0,0,1-.8-2.615V27.49h2.962v6.179a1.065,1.065,0,0,0,1.187,1.222,1.548,1.548,0,0,0,1.45-.729V27.49h2.979V37H35.607Zm9.466-1.644a.684.684,0,0,0-.4-.606,6.016,6.016,0,0,0-1.5-.475,6.853,6.853,0,0,1-1.828-.646,3.062,3.062,0,0,1-1.1-.971,2.319,2.319,0,0,1-.378-1.31,2.628,2.628,0,0,1,1.081-2.158,4.453,4.453,0,0,1,2.83-.848,4.934,4.934,0,0,1,3.023.853,2.666,2.666,0,0,1,1.143,2.241H44.888q0-1.143-1.2-1.143a1.194,1.194,0,0,0-.782.259.8.8,0,0,0-.316.646.737.737,0,0,0,.387.642,3.654,3.654,0,0,0,1.235.4,10.671,10.671,0,0,1,1.49.378,2.706,2.706,0,0,1,2.145,2.646,2.491,2.491,0,0,1-1.156,2.118,5.068,5.068,0,0,1-2.993.817,5.172,5.172,0,0,1-2.18-.439,3.645,3.645,0,0,1-1.494-1.2,2.707,2.707,0,0,1-.536-1.591h2.769a1.145,1.145,0,0,0,.439.962,1.808,1.808,0,0,0,1.081.3,1.422,1.422,0,0,0,.91-.246A.787.787,0,0,0,44.985,34.328Zm9.905,1.644a3.054,3.054,0,0,1-2.54,1.2,3,3,0,0,1-2.369-.91,3.826,3.826,0,0,1-.8-2.615V27.49h2.962v6.179a1.065,1.065,0,0,0,1.187,1.222,1.548,1.548,0,0,0,1.45-.729V27.49h2.979V37H54.978ZM64.734,37a3.344,3.344,0,0,1-.281-.853,2.754,2.754,0,0,1-2.285,1.028,3.374,3.374,0,0,1-2.285-.813,2.588,2.588,0,0,1-.94-2.043,2.66,2.66,0,0,1,1.143-2.338,5.821,5.821,0,0,1,3.322-.791h.914v-.5q0-1.316-1.134-1.316a.927.927,0,0,0-1.055,1.042H59.17a2.655,2.655,0,0,1,1.173-2.239,4.931,4.931,0,0,1,2.993-.86,4.323,4.323,0,0,1,2.874.888,3.086,3.086,0,0,1,1.081,2.435v4.21a4.311,4.311,0,0,0,.4,2V37Zm-1.854-1.934a1.652,1.652,0,0,0,.918-.237,1.487,1.487,0,0,0,.523-.536V32.772h-.861q-1.547,0-1.547,1.389a.848.848,0,0,0,.272.655A.986.986,0,0,0,62.879,35.066Zm11.8-4.9-.976-.07a1.752,1.752,0,0,0-1.793.879V37H68.953V27.49H71.73l.1,1.222a2.294,2.294,0,0,1,2.083-1.4,2.888,2.888,0,0,1,.826.105ZM78.875,37H75.9V27.49h2.971ZM75.729,25.038A1.322,1.322,0,0,1,76.186,24a1.943,1.943,0,0,1,2.373,0,1.405,1.405,0,0,1,0,2.074,1.943,1.943,0,0,1-2.373,0A1.322,1.322,0,0,1,75.729,25.038Zm4.6,7.119a5.613,5.613,0,0,1,.554-2.536,3.96,3.96,0,0,1,1.591-1.709,4.791,4.791,0,0,1,2.435-.6,4.373,4.373,0,0,1,3.366,1.323,5.076,5.076,0,0,1,1.23,3.6v.105a4.925,4.925,0,0,1-1.235,3.529,4.384,4.384,0,0,1-3.344,1.305,4.434,4.434,0,0,1-3.261-1.217,4.761,4.761,0,0,1-1.327-3.3Zm2.962.185a3.538,3.538,0,0,0,.413,1.934,1.376,1.376,0,0,0,1.222.615q1.582,0,1.617-2.435v-.3q0-2.558-1.635-2.558-1.485,0-1.608,2.206Z" transform="translate(743 17575)" fill="#12263f"/>
        <g id="Ikon-2" data-name="Ikon" transform="translate(780.389 17519.199)">
          <path id="Trazado_611352-2" data-name="Trazado 611352" d="M33.2,17.4V14.2a11.2,11.2,0,0,0-22.4,0v3.2A4.805,4.805,0,0,0,6,22.2V39.8a4.805,4.805,0,0,0,4.8,4.8H33.2A4.805,4.805,0,0,0,38,39.8V22.2A4.805,4.805,0,0,0,33.2,17.4ZM14,14.2a8,8,0,0,1,16,0v3.2H14ZM34.8,39.8a1.6,1.6,0,0,1-1.6,1.6H10.8a1.6,1.6,0,0,1-1.6-1.6V22.2a1.6,1.6,0,0,1,1.6-1.6H33.2a1.6,1.6,0,0,1,1.6,1.6Z" transform="translate(0 0)" fill="#12263f"/>
          <path id="Trazado_611353-2" data-name="Trazado 611353" d="M17.8,16a4.788,4.788,0,0,0-1.6,9.305V28.8a1.6,1.6,0,0,0,3.2,0V25.305A4.788,4.788,0,0,0,17.8,16Zm0,6.4a1.6,1.6,0,1,1,1.6-1.6A1.6,1.6,0,0,1,17.8,22.4Z" transform="translate(4.2 7.8)" fill="#12263f"/>
        </g>
      </g>
      <g id="Grupo_1073457" data-name="Grupo 1073457" transform="translate(1304.61 17634.393)">
        <path id="Trazado_214670-3" data-name="Trazado 214670" d="M0,0H7.72l7.72,10.39H7.72Z" transform="translate(0 73.338) rotate(-90)" fill="#3ae3fe"/>
        <path id="Trazado_214675-3" data-name="Trazado 214675" d="M0,0H7.72l7.72,10.39H7.72Z" transform="translate(0 38.599) rotate(-90)" fill="#3ae3fe"/>
        <path id="Trazado_214671-3" data-name="Trazado 214671" d="M0,0H7.72l7.72,10.39H7.72Z" transform="translate(0 61.758) rotate(-90)" fill="#3ae3fe"/>
        <path id="Trazado_214674-3" data-name="Trazado 214674" d="M0,0H7.72l7.72,10.39H7.72Z" transform="translate(0 27.019) rotate(-90)" fill="#3ae3fe"/>
        <path id="Trazado_214672-3" data-name="Trazado 214672" d="M0,0H7.72l7.72,10.39H7.72Z" transform="translate(0 50.178) rotate(-90)" fill="#3ae3fe"/>
        <path id="Trazado_214673-3" data-name="Trazado 214673" d="M0,0H7.72l7.72,10.39H7.72Z" transform="translate(0 15.44) rotate(-90)" fill="#3ae3fe"/>
      </g>
      <g id="Grupo_1073458" data-name="Grupo 1073458" transform="translate(285 17345.785)">
        <path id="Trazado_214670-4" data-name="Trazado 214670" d="M0,0H7.72l7.72,10.39H7.72Z" transform="translate(0 73.338) rotate(-90)" fill="#03386e"/>
        <path id="Trazado_214675-4" data-name="Trazado 214675" d="M0,0H7.72l7.72,10.39H7.72Z" transform="translate(0 38.599) rotate(-90)" fill="#03386e"/>
        <path id="Trazado_214671-4" data-name="Trazado 214671" d="M0,0H7.72l7.72,10.39H7.72Z" transform="translate(0 61.758) rotate(-90)" fill="#03386e"/>
        <path id="Trazado_214674-4" data-name="Trazado 214674" d="M0,0H7.72l7.72,10.39H7.72Z" transform="translate(0 27.019) rotate(-90)" fill="#03386e"/>
        <path id="Trazado_214672-4" data-name="Trazado 214672" d="M0,0H7.72l7.72,10.39H7.72Z" transform="translate(0 50.178) rotate(-90)" fill="#03386e"/>
        <path id="Trazado_214673-4" data-name="Trazado 214673" d="M0,0H7.72l7.72,10.39H7.72Z" transform="translate(0 15.44) rotate(-90)" fill="#03386e"/>
      </g>
    </g>
    <path id="Trazado_613319" data-name="Trazado 613319" d="M238,0H21.239L0,28.917,21.239,58H238Z" transform="translate(915 4571)" fill="#0c5e46"/>
    <path id="Trazado_613320" data-name="Trazado 613320" d="M302.218,0H26.969L0,28.917,26.969,58H302.218Z" transform="translate(1000 4734)" fill="#0c5e46"/>
    <path id="Trazado_613321" data-name="Trazado 613321" d="M295,0H26.325L0,28.917,26.325,58H295Z" transform="translate(915 4883)" fill="#0c5e46"/>
    <path id="Trazado_613429" data-name="Trazado 613429" d="M4.052-4.342V0H.967V-12.8H6.073a5.948,5.948,0,0,1,2.6.541,4.074,4.074,0,0,1,1.749,1.538,4.2,4.2,0,0,1,.62,2.263A3.7,3.7,0,0,1,9.7-5.462,5.561,5.561,0,0,1,6.021-4.342Zm0-2.382H6.073A1.906,1.906,0,0,0,7.44-7.172a1.665,1.665,0,0,0,.47-1.266A2.059,2.059,0,0,0,7.427-9.87a1.712,1.712,0,0,0-1.318-.545H4.052ZM18.3-6.829l-.976-.07a1.752,1.752,0,0,0-1.793.879V0H12.568V-9.51h2.777l.1,1.222a2.294,2.294,0,0,1,2.083-1.4,2.888,2.888,0,0,1,.826.105Zm.378,1.986a5.613,5.613,0,0,1,.554-2.536,3.96,3.96,0,0,1,1.591-1.709,4.791,4.791,0,0,1,2.435-.6,4.373,4.373,0,0,1,3.366,1.323,5.076,5.076,0,0,1,1.23,3.6v.105a4.925,4.925,0,0,1-1.235,3.529A4.384,4.384,0,0,1,23.273.176a4.434,4.434,0,0,1-3.261-1.217,4.761,4.761,0,0,1-1.327-3.3Zm2.962.185a3.538,3.538,0,0,0,.413,1.934,1.376,1.376,0,0,0,1.222.615q1.582,0,1.617-2.435v-.3q0-2.558-1.635-2.558-1.485,0-1.608,2.206Zm10.969-7.216V-9.51h1.564v2.057H32.607V-3.1a1.111,1.111,0,0,0,.193.747,1.037,1.037,0,0,0,.765.211A4.345,4.345,0,0,0,34.3-2.2V-.079a5.466,5.466,0,0,1-1.67.255,3.1,3.1,0,0,1-2.259-.721,2.954,2.954,0,0,1-.729-2.188v-4.72H28.433V-9.51h1.213v-2.364ZM39.938.176A4.889,4.889,0,0,1,36.4-1.129a4.507,4.507,0,0,1-1.354-3.4v-.246a5.84,5.84,0,0,1,.541-2.575A3.955,3.955,0,0,1,37.16-9.075a4.763,4.763,0,0,1,2.461-.611,4.117,4.117,0,0,1,3.164,1.244,4.887,4.887,0,0,1,1.16,3.467v1.151H38.057a2.135,2.135,0,0,0,.694,1.257,2.066,2.066,0,0,0,1.389.457,2.662,2.662,0,0,0,2.2-.984l1.354,1.6A3.784,3.784,0,0,1,42.122-.277,5.3,5.3,0,0,1,39.938.176ZM39.6-7.4q-1.3,0-1.547,1.723h2.988v-.229a1.467,1.467,0,0,0-.36-1.1A1.434,1.434,0,0,0,39.6-7.4Zm5.186,2.575a6.421,6.421,0,0,1,.475-2.549,3.821,3.821,0,0,1,1.362-1.709,3.591,3.591,0,0,1,2.065-.6,2.855,2.855,0,0,1,2.32,1l.105-.826h2.689V-.36a4.009,4.009,0,0,1-.584,2.184A3.75,3.75,0,0,1,51.53,3.248a6.219,6.219,0,0,1-2.566.5,5.365,5.365,0,0,1-2.026-.4,3.657,3.657,0,0,1-1.5-1.028L46.679.58a2.716,2.716,0,0,0,2.18.976A1.764,1.764,0,0,0,50.827-.466v-.3a2.781,2.781,0,0,1-2.153.94,3.437,3.437,0,0,1-2.812-1.332A5.517,5.517,0,0,1,44.789-4.72Zm2.971.185a3.383,3.383,0,0,0,.439,1.85,1.386,1.386,0,0,0,1.23.681,1.573,1.573,0,0,0,1.4-.642v-4a1.534,1.534,0,0,0-1.38-.65,1.4,1.4,0,0,0-1.239.708A3.858,3.858,0,0,0,47.76-4.641ZM60.091.176a4.889,4.889,0,0,1-3.542-1.305,4.507,4.507,0,0,1-1.354-3.4v-.246a5.84,5.84,0,0,1,.541-2.575,3.955,3.955,0,0,1,1.578-1.727,4.763,4.763,0,0,1,2.461-.611,4.117,4.117,0,0,1,3.164,1.244A4.887,4.887,0,0,1,64.1-4.975v1.151H58.21A2.135,2.135,0,0,0,58.9-2.566a2.066,2.066,0,0,0,1.389.457,2.662,2.662,0,0,0,2.2-.984l1.354,1.6A3.784,3.784,0,0,1,62.275-.277,5.3,5.3,0,0,1,60.091.176ZM59.757-7.4q-1.3,0-1.547,1.723H61.2v-.229a1.467,1.467,0,0,0-.36-1.1A1.434,1.434,0,0,0,59.757-7.4Zm11.285.571-.976-.07a1.752,1.752,0,0,0-1.793.879V0H65.312V-9.51h2.777l.1,1.222a2.294,2.294,0,0,1,2.083-1.4,2.888,2.888,0,0,1,.826.105ZM79.717,0H76.746V-13.5h2.971Zm1.45-4.843a5.613,5.613,0,0,1,.554-2.536,3.96,3.96,0,0,1,1.591-1.709,4.791,4.791,0,0,1,2.435-.6,4.373,4.373,0,0,1,3.366,1.323,5.076,5.076,0,0,1,1.23,3.6v.105a4.925,4.925,0,0,1-1.235,3.529A4.384,4.384,0,0,1,85.764.176,4.434,4.434,0,0,1,82.5-1.042a4.761,4.761,0,0,1-1.327-3.3Zm2.962.185a3.538,3.538,0,0,0,.413,1.934,1.376,1.376,0,0,0,1.222.615q1.582,0,1.617-2.435v-.3q0-2.558-1.635-2.558-1.485,0-1.608,2.206Zm12.5,1.986a.684.684,0,0,0-.4-.606,6.016,6.016,0,0,0-1.5-.475A6.853,6.853,0,0,1,92.9-4.4a3.062,3.062,0,0,1-1.1-.971,2.319,2.319,0,0,1-.378-1.31A2.628,2.628,0,0,1,92.5-8.837a4.453,4.453,0,0,1,2.83-.848,4.934,4.934,0,0,1,3.023.853A2.666,2.666,0,0,1,99.5-6.592H96.53q0-1.143-1.2-1.143a1.194,1.194,0,0,0-.782.259.8.8,0,0,0-.316.646.737.737,0,0,0,.387.642,3.654,3.654,0,0,0,1.235.4,10.671,10.671,0,0,1,1.49.378A2.706,2.706,0,0,1,99.483-2.76,2.491,2.491,0,0,1,98.328-.642a5.068,5.068,0,0,1-2.993.817,5.172,5.172,0,0,1-2.18-.439,3.645,3.645,0,0,1-1.494-1.2,2.707,2.707,0,0,1-.536-1.591h2.769a1.145,1.145,0,0,0,.439.962,1.808,1.808,0,0,0,1.081.3,1.422,1.422,0,0,0,.91-.246A.787.787,0,0,0,96.627-2.672ZM109.951.176a4.889,4.889,0,0,1-3.542-1.305,4.507,4.507,0,0,1-1.354-3.4v-.246a5.84,5.84,0,0,1,.541-2.575,3.955,3.955,0,0,1,1.578-1.727,4.763,4.763,0,0,1,2.461-.611A4.117,4.117,0,0,1,112.8-8.442a4.887,4.887,0,0,1,1.16,3.467v1.151H108.07a2.135,2.135,0,0,0,.694,1.257,2.066,2.066,0,0,0,1.389.457,2.662,2.662,0,0,0,2.2-.984l1.354,1.6a3.784,3.784,0,0,1-1.569,1.217A5.3,5.3,0,0,1,109.951.176ZM109.617-7.4q-1.3,0-1.547,1.723h2.988v-.229a1.467,1.467,0,0,0-.36-1.1A1.434,1.434,0,0,0,109.617-7.4Zm5.159,2.549a5.709,5.709,0,0,1,.984-3.551,3.233,3.233,0,0,1,2.716-1.283,2.761,2.761,0,0,1,2.338,1.2l.211-1.02h2.566V3.656h-2.971V-.791a2.757,2.757,0,0,1-2.162.967,3.2,3.2,0,0,1-2.685-1.305A6.027,6.027,0,0,1,114.776-4.852Zm2.962.185q0,2.558,1.477,2.558a1.43,1.43,0,0,0,1.406-.773V-6.645a1.4,1.4,0,0,0-1.389-.756q-1.38,0-1.485,2.206Zm13.192,3.639a3.054,3.054,0,0,1-2.54,1.2,3,3,0,0,1-2.369-.91,3.826,3.826,0,0,1-.8-2.615V-9.51h2.962v6.179a1.065,1.065,0,0,0,1.187,1.222,1.548,1.548,0,0,0,1.45-.729V-9.51H133.8V0h-2.777ZM138.542,0h-2.971V-9.51h2.971ZM135.4-11.962A1.322,1.322,0,0,1,135.853-13a1.724,1.724,0,0,1,1.187-.4,1.724,1.724,0,0,1,1.187.4,1.322,1.322,0,0,1,.457,1.037,1.322,1.322,0,0,1-.457,1.037,1.724,1.724,0,0,1-1.187.4,1.724,1.724,0,0,1-1.187-.4A1.322,1.322,0,0,1,135.4-11.962Zm13.8,7.277a5.735,5.735,0,0,1-1,3.538A3.2,3.2,0,0,1,145.5.176a2.742,2.742,0,0,1-2.153-.958V3.656h-2.962V-9.51h2.769l.088.879a2.742,2.742,0,0,1,2.241-1.055,3.224,3.224,0,0,1,2.733,1.3,5.805,5.805,0,0,1,.976,3.564Zm-2.962-.185q0-2.531-1.477-2.531a1.394,1.394,0,0,0-1.406.756V-2.9a1.439,1.439,0,0,0,1.424.791q1.415,0,1.459-2.443Zm3.894.026a5.613,5.613,0,0,1,.554-2.536,3.96,3.96,0,0,1,1.591-1.709,4.791,4.791,0,0,1,2.435-.6,4.373,4.373,0,0,1,3.366,1.323,5.076,5.076,0,0,1,1.23,3.6v.105a4.925,4.925,0,0,1-1.235,3.529A4.384,4.384,0,0,1,154.723.176a4.434,4.434,0,0,1-3.261-1.217,4.761,4.761,0,0,1-1.327-3.3Zm2.962.185a3.538,3.538,0,0,0,.413,1.934,1.376,1.376,0,0,0,1.222.615q1.582,0,1.617-2.435v-.3q0-2.558-1.635-2.558-1.485,0-1.608,2.206Zm12.5,1.986a.684.684,0,0,0-.4-.606,6.016,6.016,0,0,0-1.5-.475,6.853,6.853,0,0,1-1.828-.646,3.062,3.062,0,0,1-1.1-.971,2.319,2.319,0,0,1-.378-1.31,2.628,2.628,0,0,1,1.081-2.158,4.453,4.453,0,0,1,2.83-.848,4.934,4.934,0,0,1,3.023.853,2.666,2.666,0,0,1,1.143,2.241h-2.971q0-1.143-1.2-1.143a1.194,1.194,0,0,0-.782.259.8.8,0,0,0-.316.646.737.737,0,0,0,.387.642,3.654,3.654,0,0,0,1.235.4,10.671,10.671,0,0,1,1.49.378,2.706,2.706,0,0,1,2.145,2.646,2.491,2.491,0,0,1-1.156,2.118,5.068,5.068,0,0,1-2.993.817,5.172,5.172,0,0,1-2.18-.439,3.645,3.645,0,0,1-1.494-1.2,2.707,2.707,0,0,1-.536-1.591h2.769a1.145,1.145,0,0,0,.439.962,1.808,1.808,0,0,0,1.081.3,1.422,1.422,0,0,0,.91-.246A.787.787,0,0,0,165.586-2.672Z" transform="translate(961 4605)" fill="#fff"/>
    <g id="Grupo_1076407" data-name="Grupo 1076407" transform="translate(447 4571)">
      <path id="Trazado_613322" data-name="Trazado 613322" d="M0,0H216.761L238,28.917,216.761,58H0Z" fill="#0c5e46"/>
      <path id="Trazado_613428" data-name="Trazado 613428" d="M8.235-2.391H4.008L3.27,0h-3.3L4.667-12.8h2.9L12.3,0H8.982ZM4.746-4.772H7.5L6.117-9.211ZM15.39-9.51l.1,1.116A3.225,3.225,0,0,1,18.2-9.686a2.713,2.713,0,0,1,2.219.888,4.226,4.226,0,0,1,.76,2.672V0H18.211V-6a1.6,1.6,0,0,0-.29-1.059A1.342,1.342,0,0,0,16.866-7.4a1.413,1.413,0,0,0-1.292.686V0H12.612V-9.51ZM28.178,0A3.344,3.344,0,0,1,27.9-.853,2.754,2.754,0,0,1,25.611.176a3.374,3.374,0,0,1-2.285-.813,2.588,2.588,0,0,1-.94-2.043,2.66,2.66,0,0,1,1.143-2.338,5.821,5.821,0,0,1,3.322-.791h.914v-.5q0-1.316-1.134-1.316a.927.927,0,0,0-1.055,1.042H22.614a2.655,2.655,0,0,1,1.173-2.239,4.931,4.931,0,0,1,2.993-.86,4.323,4.323,0,0,1,2.874.888,3.086,3.086,0,0,1,1.081,2.435v4.21a4.311,4.311,0,0,0,.4,2V0ZM26.323-1.934a1.652,1.652,0,0,0,.918-.237,1.487,1.487,0,0,0,.523-.536V-4.228H26.9q-1.547,0-1.547,1.389a.848.848,0,0,0,.272.655A.986.986,0,0,0,26.323-1.934ZM27.062-13.5H30.19l-2.443,2.76-2.417,0ZM35.5,0H32.528V-13.5H35.5Zm4.948,0H37.477V-9.51h2.971ZM37.3-11.962A1.322,1.322,0,0,1,37.758-13a1.724,1.724,0,0,1,1.187-.4,1.724,1.724,0,0,1,1.187.4,1.322,1.322,0,0,1,.457,1.037,1.322,1.322,0,0,1-.457,1.037,1.724,1.724,0,0,1-1.187.4,1.724,1.724,0,0,1-1.187-.4A1.322,1.322,0,0,1,37.3-11.962Zm9.949,9.29a.684.684,0,0,0-.4-.606,6.016,6.016,0,0,0-1.5-.475A6.853,6.853,0,0,1,43.523-4.4a3.062,3.062,0,0,1-1.1-.971,2.319,2.319,0,0,1-.378-1.31,2.628,2.628,0,0,1,1.081-2.158,4.453,4.453,0,0,1,2.83-.848,4.934,4.934,0,0,1,3.023.853,2.666,2.666,0,0,1,1.143,2.241H47.153q0-1.143-1.2-1.143a1.194,1.194,0,0,0-.782.259.8.8,0,0,0-.316.646.737.737,0,0,0,.387.642,3.654,3.654,0,0,0,1.235.4,10.671,10.671,0,0,1,1.49.378A2.706,2.706,0,0,1,50.106-2.76,2.491,2.491,0,0,1,48.951-.642a5.068,5.068,0,0,1-2.993.817,5.172,5.172,0,0,1-2.18-.439,3.645,3.645,0,0,1-1.494-1.2,2.707,2.707,0,0,1-.536-1.591h2.769a1.145,1.145,0,0,0,.439.962,1.808,1.808,0,0,0,1.081.3,1.422,1.422,0,0,0,.91-.246A.787.787,0,0,0,47.25-2.672ZM54.615,0H51.645V-9.51h2.971ZM51.469-11.962A1.322,1.322,0,0,1,51.926-13a1.724,1.724,0,0,1,1.187-.4A1.724,1.724,0,0,1,54.3-13a1.322,1.322,0,0,1,.457,1.037,1.322,1.322,0,0,1-.457,1.037,1.724,1.724,0,0,1-1.187.4,1.724,1.724,0,0,1-1.187-.4A1.322,1.322,0,0,1,51.469-11.962Zm9.949,9.29a.684.684,0,0,0-.4-.606,6.016,6.016,0,0,0-1.5-.475A6.853,6.853,0,0,1,57.691-4.4a3.062,3.062,0,0,1-1.1-.971,2.319,2.319,0,0,1-.378-1.31A2.628,2.628,0,0,1,57.3-8.837a4.453,4.453,0,0,1,2.83-.848,4.934,4.934,0,0,1,3.023.853,2.666,2.666,0,0,1,1.143,2.241H61.321q0-1.143-1.2-1.143a1.194,1.194,0,0,0-.782.259.8.8,0,0,0-.316.646.737.737,0,0,0,.387.642,3.654,3.654,0,0,0,1.235.4,10.671,10.671,0,0,1,1.49.378A2.706,2.706,0,0,1,64.274-2.76,2.491,2.491,0,0,1,63.119-.642a5.068,5.068,0,0,1-2.993.817,5.172,5.172,0,0,1-2.18-.439,3.645,3.645,0,0,1-1.494-1.2,2.707,2.707,0,0,1-.536-1.591h2.769a1.145,1.145,0,0,0,.439.962,1.808,1.808,0,0,0,1.081.3,1.422,1.422,0,0,0,.91-.246A.787.787,0,0,0,61.418-2.672ZM78.97-4.685a5.735,5.735,0,0,1-1,3.538A3.2,3.2,0,0,1,75.278.176a2.742,2.742,0,0,1-2.153-.958V3.656H70.163V-9.51h2.769l.088.879a2.742,2.742,0,0,1,2.241-1.055,3.224,3.224,0,0,1,2.733,1.3,5.805,5.805,0,0,1,.976,3.564Zm-2.962-.185q0-2.531-1.477-2.531a1.394,1.394,0,0,0-1.406.756V-2.9a1.439,1.439,0,0,0,1.424.791q1.415,0,1.459-2.443Zm10.02-1.96-.976-.07a1.752,1.752,0,0,0-1.793.879V0H80.3V-9.51h2.777l.1,1.222a2.294,2.294,0,0,1,2.083-1.4,2.888,2.888,0,0,1,.826.105Zm5.5,7a4.889,4.889,0,0,1-3.542-1.305,4.507,4.507,0,0,1-1.354-3.4v-.246a5.84,5.84,0,0,1,.541-2.575,3.955,3.955,0,0,1,1.578-1.727,4.763,4.763,0,0,1,2.461-.611,4.117,4.117,0,0,1,3.164,1.244,4.887,4.887,0,0,1,1.16,3.467v1.151H89.648a2.135,2.135,0,0,0,.694,1.257,2.066,2.066,0,0,0,1.389.457,2.662,2.662,0,0,0,2.2-.984l1.354,1.6A3.784,3.784,0,0,1,93.713-.277,5.3,5.3,0,0,1,91.529.176ZM91.2-7.4q-1.3,0-1.547,1.723h2.988v-.229a1.467,1.467,0,0,0-.36-1.1A1.434,1.434,0,0,0,91.2-7.4Zm5.159,2.575a5.809,5.809,0,0,1,.976-3.56,3.211,3.211,0,0,1,2.725-1.3,2.731,2.731,0,0,1,2.145,1V-13.5h2.971V0h-2.663l-.149-1.02a2.8,2.8,0,0,1-2.32,1.2,3.205,3.205,0,0,1-2.689-1.3A5.993,5.993,0,0,1,96.354-4.825Zm2.962.185q0,2.531,1.477,2.531a1.458,1.458,0,0,0,1.406-.826V-6.557a1.419,1.419,0,0,0-1.389-.844q-1.371,0-1.485,2.215ZM109.978,0h-2.971V-9.51h2.971Zm-3.146-11.962A1.322,1.322,0,0,1,107.288-13a1.724,1.724,0,0,1,1.187-.4,1.724,1.724,0,0,1,1.187.4,1.322,1.322,0,0,1,.457,1.037,1.322,1.322,0,0,1-.457,1.037,1.724,1.724,0,0,1-1.187.4,1.724,1.724,0,0,1-1.187-.4A1.322,1.322,0,0,1,106.831-11.962Zm8.991,9.853a1.317,1.317,0,0,0,.967-.338,1.241,1.241,0,0,0,.334-.945H119.9A3.288,3.288,0,0,1,118.78-.826a4.168,4.168,0,0,1-2.887,1,4.22,4.22,0,0,1-3.27-1.3,5.125,5.125,0,0,1-1.2-3.6v-.123a5.792,5.792,0,0,1,.532-2.544,3.872,3.872,0,0,1,1.534-1.7,4.573,4.573,0,0,1,2.373-.593,4.116,4.116,0,0,1,2.944,1.028,3.647,3.647,0,0,1,1.09,2.786h-2.777A1.626,1.626,0,0,0,116.763-7a1.244,1.244,0,0,0-.967-.4q-1.151,0-1.345,1.468a10.357,10.357,0,0,0-.062,1.283,4.068,4.068,0,0,0,.343,1.986A1.187,1.187,0,0,0,115.822-2.109Zm8.78-9.765V-9.51h1.564v2.057H124.6V-3.1a1.111,1.111,0,0,0,.193.747,1.037,1.037,0,0,0,.765.211A4.345,4.345,0,0,0,126.3-2.2V-.079a5.466,5.466,0,0,1-1.67.255,3.1,3.1,0,0,1-2.259-.721,2.954,2.954,0,0,1-.729-2.188v-4.72h-1.213V-9.51h1.213v-2.364ZM130.456,0h-2.971V-9.51h2.971ZM127.31-11.962A1.322,1.322,0,0,1,127.767-13a1.724,1.724,0,0,1,1.187-.4,1.724,1.724,0,0,1,1.187.4,1.322,1.322,0,0,1,.457,1.037,1.322,1.322,0,0,1-.457,1.037,1.724,1.724,0,0,1-1.187.4,1.724,1.724,0,0,1-1.187-.4A1.322,1.322,0,0,1,127.31-11.962Zm8.763,8.438,1.5-5.985h3.12L137.593,0h-3.023l-3.1-9.51H134.6Zm5-1.318a5.613,5.613,0,0,1,.554-2.536,3.96,3.96,0,0,1,1.591-1.709,4.791,4.791,0,0,1,2.435-.6,4.373,4.373,0,0,1,3.366,1.323,5.076,5.076,0,0,1,1.23,3.6v.105a4.925,4.925,0,0,1-1.235,3.529A4.384,4.384,0,0,1,145.67.176a4.434,4.434,0,0,1-3.261-1.217,4.761,4.761,0,0,1-1.327-3.3Zm2.962.185a3.538,3.538,0,0,0,.413,1.934,1.376,1.376,0,0,0,1.222.615q1.582,0,1.617-2.435v-.3q0-2.558-1.635-2.558-1.485,0-1.608,2.206Z" transform="translate(41 34)" fill="#fff"/>
    </g>
    <g id="Grupo_1076408" data-name="Grupo 1076408" transform="translate(370 4721)">
      <path id="Trazado_613322-2" data-name="Trazado 613322" d="M0,0H269.064l26.363,28.917L269.064,58H0Z" transform="translate(-65.427)" fill="#0c5e46"/>
      <path id="Trazado_613433" data-name="Trazado 613433" d="M11-12.8v8.376A4.814,4.814,0,0,1,10.4-1.956,3.929,3.929,0,0,1,8.657-.369,6.131,6.131,0,0,1,5.977.176,5.3,5.3,0,0,1,2.294-1.037,4.326,4.326,0,0,1,.923-4.359V-12.8h3.1v8.5q.053,2.1,1.951,2.1a1.889,1.889,0,0,0,1.45-.527,2.465,2.465,0,0,0,.492-1.714V-12.8Zm5.238.923V-9.51h1.564v2.057H16.242V-3.1a1.111,1.111,0,0,0,.193.747,1.037,1.037,0,0,0,.765.211,4.345,4.345,0,0,0,.738-.053V-.079a5.466,5.466,0,0,1-1.67.255A3.1,3.1,0,0,1,14.01-.545a2.954,2.954,0,0,1-.729-2.188v-4.72H12.067V-9.51H13.28v-2.364ZM22.1,0H19.125V-9.51H22.1ZM18.949-11.962A1.322,1.322,0,0,1,19.406-13a1.724,1.724,0,0,1,1.187-.4,1.724,1.724,0,0,1,1.187.4,1.322,1.322,0,0,1,.457,1.037,1.322,1.322,0,0,1-.457,1.037,1.724,1.724,0,0,1-1.187.4,1.724,1.724,0,0,1-1.187-.4A1.322,1.322,0,0,1,18.949-11.962ZM27.044,0H24.073V-13.5h2.971Zm4.948,0H29.021V-9.51h2.971ZM28.846-11.962A1.322,1.322,0,0,1,29.3-13a1.724,1.724,0,0,1,1.187-.4,1.724,1.724,0,0,1,1.187.4,1.322,1.322,0,0,1,.457,1.037,1.322,1.322,0,0,1-.457,1.037,1.724,1.724,0,0,1-1.187.4,1.724,1.724,0,0,1-1.187-.4A1.322,1.322,0,0,1,28.846-11.962ZM37.31-2.285h4.333V0H33.565V-1.652l4.219-5.572H33.75V-9.51h7.8v1.6ZM48.437,0a3.344,3.344,0,0,1-.281-.853A2.754,2.754,0,0,1,45.87.176a3.374,3.374,0,0,1-2.285-.813,2.588,2.588,0,0,1-.94-2.043,2.66,2.66,0,0,1,1.143-2.338,5.821,5.821,0,0,1,3.322-.791h.914v-.5q0-1.316-1.134-1.316a.927.927,0,0,0-1.055,1.042H42.873a2.655,2.655,0,0,1,1.173-2.239,4.931,4.931,0,0,1,2.993-.86,4.323,4.323,0,0,1,2.874.888,3.086,3.086,0,0,1,1.081,2.435v4.21a4.311,4.311,0,0,0,.4,2V0ZM46.582-1.934a1.652,1.652,0,0,0,.918-.237,1.487,1.487,0,0,0,.523-.536V-4.228h-.861q-1.547,0-1.547,1.389a.848.848,0,0,0,.272.655A.986.986,0,0,0,46.582-1.934Zm11.8-4.9L57.41-6.9a1.752,1.752,0,0,0-1.793.879V0H52.655V-9.51h2.777l.1,1.222a2.294,2.294,0,0,1,2.083-1.4,2.888,2.888,0,0,1,.826.105ZM72.765-4.685a5.735,5.735,0,0,1-1,3.538A3.2,3.2,0,0,1,69.073.176,2.742,2.742,0,0,1,66.92-.782V3.656H63.958V-9.51h2.769l.088.879a2.742,2.742,0,0,1,2.241-1.055,3.224,3.224,0,0,1,2.733,1.3,5.805,5.805,0,0,1,.976,3.564ZM69.8-4.869Q69.8-7.4,68.326-7.4a1.394,1.394,0,0,0-1.406.756V-2.9a1.439,1.439,0,0,0,1.424.791q1.415,0,1.459-2.443Zm10.02-1.96-.976-.07a1.752,1.752,0,0,0-1.793.879V0H74.092V-9.51h2.777l.1,1.222a2.294,2.294,0,0,1,2.083-1.4,2.888,2.888,0,0,1,.826.105ZM80.2-4.843a5.613,5.613,0,0,1,.554-2.536,3.96,3.96,0,0,1,1.591-1.709,4.791,4.791,0,0,1,2.435-.6,4.373,4.373,0,0,1,3.366,1.323,5.076,5.076,0,0,1,1.23,3.6v.105a4.925,4.925,0,0,1-1.235,3.529A4.384,4.384,0,0,1,84.8.176a4.434,4.434,0,0,1-3.261-1.217,4.761,4.761,0,0,1-1.327-3.3Zm2.962.185a3.538,3.538,0,0,0,.413,1.934,1.376,1.376,0,0,0,1.222.615q1.582,0,1.617-2.435v-.3q0-2.558-1.635-2.558-1.485,0-1.608,2.206Zm10.969-7.216V-9.51H95.7v2.057H94.131V-3.1a1.111,1.111,0,0,0,.193.747,1.037,1.037,0,0,0,.765.211,4.345,4.345,0,0,0,.738-.053V-.079a5.466,5.466,0,0,1-1.67.255A3.1,3.1,0,0,1,91.9-.545a2.954,2.954,0,0,1-.729-2.188v-4.72H89.956V-9.51h1.213v-2.364Zm2.092,7.031a5.613,5.613,0,0,1,.554-2.536,3.96,3.96,0,0,1,1.591-1.709,4.791,4.791,0,0,1,2.435-.6,4.373,4.373,0,0,1,3.366,1.323,5.076,5.076,0,0,1,1.23,3.6v.105a4.925,4.925,0,0,1-1.235,3.529A4.384,4.384,0,0,1,100.819.176a4.434,4.434,0,0,1-3.261-1.217,4.761,4.761,0,0,1-1.327-3.3Zm2.962.185A3.538,3.538,0,0,0,99.6-2.725a1.376,1.376,0,0,0,1.222.615q1.582,0,1.617-2.435v-.3q0-2.558-1.635-2.558-1.485,0-1.608,2.206Zm11.54,2.549a1.317,1.317,0,0,0,.967-.338,1.241,1.241,0,0,0,.334-.945H114.8a3.288,3.288,0,0,1-1.121,2.566,4.168,4.168,0,0,1-2.887,1,4.22,4.22,0,0,1-3.27-1.3,5.125,5.125,0,0,1-1.2-3.6v-.123a5.792,5.792,0,0,1,.532-2.544,3.872,3.872,0,0,1,1.534-1.7,4.573,4.573,0,0,1,2.373-.593,4.116,4.116,0,0,1,2.944,1.028,3.647,3.647,0,0,1,1.09,2.786h-2.777A1.626,1.626,0,0,0,111.665-7a1.244,1.244,0,0,0-.967-.4q-1.151,0-1.345,1.468a10.357,10.357,0,0,0-.062,1.283,4.068,4.068,0,0,0,.343,1.986A1.187,1.187,0,0,0,110.725-2.109Zm4.957-2.733a5.613,5.613,0,0,1,.554-2.536,3.96,3.96,0,0,1,1.591-1.709,4.791,4.791,0,0,1,2.435-.6,4.373,4.373,0,0,1,3.366,1.323,5.076,5.076,0,0,1,1.23,3.6v.105a4.925,4.925,0,0,1-1.235,3.529A4.384,4.384,0,0,1,120.278.176a4.434,4.434,0,0,1-3.261-1.217,4.761,4.761,0,0,1-1.327-3.3Zm2.962.185a3.538,3.538,0,0,0,.413,1.934,1.376,1.376,0,0,0,1.222.615q1.582,0,1.617-2.435v-.3q0-2.558-1.635-2.558-1.485,0-1.608,2.206ZM129.287,0h-2.971V-13.5h2.971Zm1.45-4.843a5.613,5.613,0,0,1,.554-2.536,3.96,3.96,0,0,1,1.591-1.709,4.791,4.791,0,0,1,2.435-.6,4.373,4.373,0,0,1,3.366,1.323,5.076,5.076,0,0,1,1.23,3.6v.105a4.925,4.925,0,0,1-1.235,3.529A4.384,4.384,0,0,1,135.334.176a4.434,4.434,0,0,1-3.261-1.217,4.761,4.761,0,0,1-1.327-3.3Zm2.962.185a3.538,3.538,0,0,0,.413,1.934,1.376,1.376,0,0,0,1.222.615q1.582,0,1.617-2.435v-.3q0-2.558-1.635-2.558-1.485,0-1.608,2.206Zm12.5,1.986a.684.684,0,0,0-.4-.606,6.016,6.016,0,0,0-1.5-.475,6.853,6.853,0,0,1-1.828-.646,3.062,3.062,0,0,1-1.1-.971,2.319,2.319,0,0,1-.378-1.31,2.628,2.628,0,0,1,1.081-2.158,4.453,4.453,0,0,1,2.83-.848,4.934,4.934,0,0,1,3.023.853,2.666,2.666,0,0,1,1.143,2.241H146.1q0-1.143-1.2-1.143a1.194,1.194,0,0,0-.782.259.8.8,0,0,0-.316.646.737.737,0,0,0,.387.642,3.654,3.654,0,0,0,1.235.4,10.671,10.671,0,0,1,1.49.378,2.706,2.706,0,0,1,2.145,2.646A2.491,2.491,0,0,1,147.9-.642a5.068,5.068,0,0,1-2.993.817,5.172,5.172,0,0,1-2.18-.439,3.645,3.645,0,0,1-1.494-1.2A2.707,2.707,0,0,1,140.7-3.05h2.769a1.145,1.145,0,0,0,.439.962,1.808,1.808,0,0,0,1.081.3,1.422,1.422,0,0,0,.91-.246A.787.787,0,0,0,146.2-2.672Zm8.35-2.153a5.809,5.809,0,0,1,.976-3.56,3.211,3.211,0,0,1,2.725-1.3,2.731,2.731,0,0,1,2.145,1V-13.5h2.971V0H160.7l-.149-1.02a2.8,2.8,0,0,1-2.32,1.2,3.205,3.205,0,0,1-2.689-1.3A5.993,5.993,0,0,1,154.547-4.825Zm2.962.185q0,2.531,1.477,2.531a1.458,1.458,0,0,0,1.406-.826V-6.557A1.419,1.419,0,0,0,159-7.4q-1.371,0-1.485,2.215ZM169.646.176A4.889,4.889,0,0,1,166.1-1.129a4.507,4.507,0,0,1-1.354-3.4v-.246a5.84,5.84,0,0,1,.541-2.575,3.955,3.955,0,0,1,1.578-1.727,4.763,4.763,0,0,1,2.461-.611,4.117,4.117,0,0,1,3.164,1.244,4.887,4.887,0,0,1,1.16,3.467v1.151h-5.889a2.135,2.135,0,0,0,.694,1.257,2.066,2.066,0,0,0,1.389.457,2.662,2.662,0,0,0,2.2-.984l1.354,1.6a3.784,3.784,0,0,1-1.569,1.217A5.3,5.3,0,0,1,169.646.176ZM169.313-7.4q-1.3,0-1.547,1.723h2.988v-.229a1.467,1.467,0,0,0-.36-1.1A1.434,1.434,0,0,0,169.313-7.4Zm14.994,4.729a.684.684,0,0,0-.4-.606,6.016,6.016,0,0,0-1.5-.475A6.853,6.853,0,0,1,180.58-4.4a3.062,3.062,0,0,1-1.1-.971,2.319,2.319,0,0,1-.378-1.31,2.628,2.628,0,0,1,1.081-2.158,4.453,4.453,0,0,1,2.83-.848,4.934,4.934,0,0,1,3.023.853,2.666,2.666,0,0,1,1.143,2.241H184.21q0-1.143-1.2-1.143a1.194,1.194,0,0,0-.782.259.8.8,0,0,0-.316.646.737.737,0,0,0,.387.642,3.654,3.654,0,0,0,1.235.4,10.671,10.671,0,0,1,1.49.378,2.706,2.706,0,0,1,2.145,2.646,2.491,2.491,0,0,1-1.156,2.118,5.068,5.068,0,0,1-2.993.817,5.172,5.172,0,0,1-2.18-.439,3.645,3.645,0,0,1-1.494-1.2A2.707,2.707,0,0,1,178.8-3.05h2.769a1.145,1.145,0,0,0,.439.962,1.808,1.808,0,0,0,1.081.3A1.422,1.422,0,0,0,184-2.03.787.787,0,0,0,184.307-2.672ZM193.148.176a4.889,4.889,0,0,1-3.542-1.305,4.507,4.507,0,0,1-1.354-3.4v-.246a5.84,5.84,0,0,1,.541-2.575,3.955,3.955,0,0,1,1.578-1.727,4.763,4.763,0,0,1,2.461-.611A4.117,4.117,0,0,1,196-8.442a4.887,4.887,0,0,1,1.16,3.467v1.151h-5.889a2.135,2.135,0,0,0,.694,1.257,2.066,2.066,0,0,0,1.389.457,2.662,2.662,0,0,0,2.2-.984l1.354,1.6a3.784,3.784,0,0,1-1.569,1.217A5.3,5.3,0,0,1,193.148.176ZM192.814-7.4q-1.3,0-1.547,1.723h2.988v-.229a1.467,1.467,0,0,0-.36-1.1A1.434,1.434,0,0,0,192.814-7.4ZM198-4.825a6.421,6.421,0,0,1,.475-2.549,3.821,3.821,0,0,1,1.362-1.709,3.591,3.591,0,0,1,2.065-.6,2.855,2.855,0,0,1,2.32,1l.105-.826h2.689V-.36a4.009,4.009,0,0,1-.584,2.184,3.75,3.75,0,0,1-1.692,1.424,6.219,6.219,0,0,1-2.566.5,5.365,5.365,0,0,1-2.026-.4,3.657,3.657,0,0,1-1.5-1.028L199.89.58a2.716,2.716,0,0,0,2.18.976,1.764,1.764,0,0,0,1.969-2.021v-.3a2.781,2.781,0,0,1-2.153.94,3.437,3.437,0,0,1-2.812-1.332A5.517,5.517,0,0,1,198-4.72Zm2.971.185a3.383,3.383,0,0,0,.439,1.85,1.386,1.386,0,0,0,1.23.681,1.573,1.573,0,0,0,1.4-.642v-4a1.534,1.534,0,0,0-1.38-.65,1.4,1.4,0,0,0-1.239.708A3.858,3.858,0,0,0,200.971-4.641Zm13.395,3.612a3.054,3.054,0,0,1-2.54,1.2,3,3,0,0,1-2.369-.91,3.826,3.826,0,0,1-.8-2.615V-9.51h2.962v6.179A1.065,1.065,0,0,0,212.8-2.109a1.548,1.548,0,0,0,1.45-.729V-9.51h2.979V0h-2.777Zm10.239-5.8-.976-.07a1.752,1.752,0,0,0-1.793.879V0h-2.962V-9.51h2.777l.1,1.222a2.294,2.294,0,0,1,2.083-1.4,2.888,2.888,0,0,1,.826.105ZM228.8,0h-2.971V-9.51H228.8ZM225.65-11.962A1.322,1.322,0,0,1,226.107-13a1.724,1.724,0,0,1,1.187-.4,1.724,1.724,0,0,1,1.187.4,1.322,1.322,0,0,1,.457,1.037,1.322,1.322,0,0,1-.457,1.037,1.724,1.724,0,0,1-1.187.4,1.724,1.724,0,0,1-1.187-.4A1.322,1.322,0,0,1,225.65-11.962Zm4.6,7.137a5.809,5.809,0,0,1,.976-3.56,3.211,3.211,0,0,1,2.725-1.3,2.731,2.731,0,0,1,2.145,1V-13.5h2.971V0H236.4l-.149-1.02a2.8,2.8,0,0,1-2.32,1.2,3.205,3.205,0,0,1-2.689-1.3A5.993,5.993,0,0,1,230.247-4.825Zm2.962.185q0,2.531,1.477,2.531a1.458,1.458,0,0,0,1.406-.826V-6.557A1.419,1.419,0,0,0,234.7-7.4q-1.371,0-1.485,2.215ZM246.1,0a3.344,3.344,0,0,1-.281-.853A2.754,2.754,0,0,1,243.536.176a3.374,3.374,0,0,1-2.285-.813,2.588,2.588,0,0,1-.94-2.043,2.66,2.66,0,0,1,1.143-2.338,5.821,5.821,0,0,1,3.322-.791h.914v-.5q0-1.316-1.134-1.316A.927.927,0,0,0,243.5-6.587h-2.962a2.655,2.655,0,0,1,1.173-2.239,4.931,4.931,0,0,1,2.993-.86,4.323,4.323,0,0,1,2.874.888,3.086,3.086,0,0,1,1.081,2.435v4.21a4.311,4.311,0,0,0,.4,2V0Zm-1.854-1.934a1.652,1.652,0,0,0,.918-.237,1.487,1.487,0,0,0,.523-.536V-4.228h-.861q-1.547,0-1.547,1.389a.848.848,0,0,0,.272.655A.986.986,0,0,0,244.248-1.934Zm5.678-2.892a5.809,5.809,0,0,1,.976-3.56,3.211,3.211,0,0,1,2.725-1.3,2.731,2.731,0,0,1,2.145,1V-13.5h2.971V0h-2.663l-.149-1.02a2.8,2.8,0,0,1-2.32,1.2,3.205,3.205,0,0,1-2.689-1.3A5.993,5.993,0,0,1,249.926-4.825Zm2.962.185q0,2.531,1.477,2.531a1.458,1.458,0,0,0,1.406-.826V-6.557a1.419,1.419,0,0,0-1.389-.844q-1.371,0-1.485,2.215Z" transform="translate(-52 35)" fill="#fff"/>
    </g>
    <g id="Grupo_1076409" data-name="Grupo 1076409" transform="translate(455 4882)">
      <path id="Trazado_613322-3" data-name="Trazado 613322" d="M0,0H209.475L230,28.917,209.475,58H0Z" fill="#0c5e46"/>
      <path id="Trazado_613432" data-name="Trazado 613432" d="M11.32-4.333a4.673,4.673,0,0,1-.721,2.36A4.35,4.35,0,0,1,8.75-.387a6.3,6.3,0,0,1-2.72.563A5.025,5.025,0,0,1,2.057-1.468,6.786,6.786,0,0,1,.606-6.108v-.633a7.746,7.746,0,0,1,.655-3.292,4.961,4.961,0,0,1,1.885-2.18,5.26,5.26,0,0,1,2.848-.769,5.516,5.516,0,0,1,3.744,1.226,4.844,4.844,0,0,1,1.608,3.379H8.271a2.292,2.292,0,0,0-.589-1.679,2.422,2.422,0,0,0-1.687-.51A1.843,1.843,0,0,0,4.307-9.7a5.536,5.536,0,0,0-.562,2.751v.905A6.125,6.125,0,0,0,4.258-3.12a1.882,1.882,0,0,0,1.771.879,2.369,2.369,0,0,0,1.626-.5,2.126,2.126,0,0,0,.6-1.591Zm.949-.51a5.613,5.613,0,0,1,.554-2.536,3.96,3.96,0,0,1,1.591-1.709,4.791,4.791,0,0,1,2.435-.6,4.373,4.373,0,0,1,3.366,1.323,5.076,5.076,0,0,1,1.23,3.6v.105A4.925,4.925,0,0,1,20.21-1.129,4.384,4.384,0,0,1,16.866.176a4.434,4.434,0,0,1-3.261-1.217,4.761,4.761,0,0,1-1.327-3.3Zm2.962.185a3.538,3.538,0,0,0,.413,1.934,1.376,1.376,0,0,0,1.222.615q1.582,0,1.617-2.435v-.3q0-2.558-1.635-2.558-1.485,0-1.608,2.206ZM25.471-9.51l.1,1.116a3.225,3.225,0,0,1,2.716-1.292A2.713,2.713,0,0,1,30.5-8.8a4.226,4.226,0,0,1,.76,2.672V0H28.292V-6A1.6,1.6,0,0,0,28-7.062,1.342,1.342,0,0,0,26.947-7.4a1.413,1.413,0,0,0-1.292.686V0H22.693V-9.51Zm10.881-2.364V-9.51h1.564v2.057H36.352V-3.1a1.111,1.111,0,0,0,.193.747,1.037,1.037,0,0,0,.765.211,4.345,4.345,0,0,0,.738-.053V-.079a5.466,5.466,0,0,1-1.67.255,3.1,3.1,0,0,1-2.259-.721,2.954,2.954,0,0,1-.729-2.188v-4.72H32.177V-9.51H33.39v-2.364Zm8.481,5.045-.976-.07a1.752,1.752,0,0,0-1.793.879V0H39.1V-9.51H41.88l.1,1.222a2.294,2.294,0,0,1,2.083-1.4,2.888,2.888,0,0,1,.826.105ZM50.994,0a3.344,3.344,0,0,1-.281-.853A2.754,2.754,0,0,1,48.428.176a3.374,3.374,0,0,1-2.285-.813,2.588,2.588,0,0,1-.94-2.043,2.66,2.66,0,0,1,1.143-2.338,5.821,5.821,0,0,1,3.322-.791h.914v-.5q0-1.316-1.134-1.316a.927.927,0,0,0-1.055,1.042H45.431A2.655,2.655,0,0,1,46.6-8.825a4.931,4.931,0,0,1,2.993-.86,4.323,4.323,0,0,1,2.874.888,3.086,3.086,0,0,1,1.081,2.435v4.21a4.311,4.311,0,0,0,.4,2V0ZM49.14-1.934a1.652,1.652,0,0,0,.918-.237,1.487,1.487,0,0,0,.523-.536V-4.228H49.72q-1.547,0-1.547,1.389a.848.848,0,0,0,.272.655A.986.986,0,0,0,49.14-1.934Zm11.03-.738a.684.684,0,0,0-.4-.606,6.016,6.016,0,0,0-1.5-.475A6.853,6.853,0,0,1,56.443-4.4a3.062,3.062,0,0,1-1.1-.971,2.319,2.319,0,0,1-.378-1.31,2.628,2.628,0,0,1,1.081-2.158,4.453,4.453,0,0,1,2.83-.848,4.934,4.934,0,0,1,3.023.853,2.666,2.666,0,0,1,1.143,2.241H60.073q0-1.143-1.2-1.143a1.194,1.194,0,0,0-.782.259.8.8,0,0,0-.316.646.737.737,0,0,0,.387.642,3.654,3.654,0,0,0,1.235.4,10.671,10.671,0,0,1,1.49.378A2.706,2.706,0,0,1,63.026-2.76,2.491,2.491,0,0,1,61.871-.642a5.068,5.068,0,0,1-2.993.817A5.172,5.172,0,0,1,56.7-.264a3.645,3.645,0,0,1-1.494-1.2,2.707,2.707,0,0,1-.536-1.591h2.769a1.145,1.145,0,0,0,.439.962,1.808,1.808,0,0,0,1.081.3,1.422,1.422,0,0,0,.91-.246A.787.787,0,0,0,60.17-2.672ZM69.012.176A4.889,4.889,0,0,1,65.47-1.129a4.507,4.507,0,0,1-1.354-3.4v-.246a5.84,5.84,0,0,1,.541-2.575,3.955,3.955,0,0,1,1.578-1.727A4.763,4.763,0,0,1,68.7-9.686a4.117,4.117,0,0,1,3.164,1.244,4.887,4.887,0,0,1,1.16,3.467v1.151H67.131a2.135,2.135,0,0,0,.694,1.257,2.066,2.066,0,0,0,1.389.457,2.662,2.662,0,0,0,2.2-.984l1.354,1.6A3.784,3.784,0,0,1,71.2-.277,5.3,5.3,0,0,1,69.012.176ZM68.678-7.4q-1.3,0-1.547,1.723h2.988v-.229a1.467,1.467,0,0,0-.36-1.1A1.434,1.434,0,0,0,68.678-7.4ZM76.931-9.51l.1,1.116a3.225,3.225,0,0,1,2.716-1.292,2.713,2.713,0,0,1,2.219.888,4.226,4.226,0,0,1,.76,2.672V0H79.752V-6a1.6,1.6,0,0,0-.29-1.059A1.342,1.342,0,0,0,78.407-7.4a1.413,1.413,0,0,0-1.292.686V0H74.153V-9.51Zm4.913-3.92a2.562,2.562,0,0,1-.584,1.7,1.813,1.813,0,0,1-1.446.7,2.852,2.852,0,0,1-1.292-.369,2.7,2.7,0,0,0-1.151-.369.66.66,0,0,0-.479.193.8.8,0,0,0-.2.6l-1.644-.088a2.576,2.576,0,0,1,.584-1.687,1.793,1.793,0,0,1,1.437-.712,2.967,2.967,0,0,1,1.151.325,7.07,7.07,0,0,0,.9.369,1.74,1.74,0,0,0,.4.044.671.671,0,0,0,.483-.2.807.807,0,0,0,.2-.6ZM89.719,0a3.344,3.344,0,0,1-.281-.853A2.754,2.754,0,0,1,87.152.176a3.374,3.374,0,0,1-2.285-.813,2.588,2.588,0,0,1-.94-2.043,2.66,2.66,0,0,1,1.143-2.338,5.821,5.821,0,0,1,3.322-.791h.914v-.5q0-1.316-1.134-1.316a.927.927,0,0,0-1.055,1.042H84.155a2.655,2.655,0,0,1,1.173-2.239,4.931,4.931,0,0,1,2.993-.86A4.323,4.323,0,0,1,91.2-8.8a3.086,3.086,0,0,1,1.081,2.435v4.21a4.311,4.311,0,0,0,.4,2V0ZM87.864-1.934a1.652,1.652,0,0,0,.918-.237,1.487,1.487,0,0,0,.523-.536V-4.228h-.861q-1.547,0-1.547,1.389a.848.848,0,0,0,.272.655A.986.986,0,0,0,87.864-1.934Zm11.03-.738a.684.684,0,0,0-.4-.606A6.016,6.016,0,0,0,97-3.753,6.853,6.853,0,0,1,95.168-4.4a3.062,3.062,0,0,1-1.1-.971,2.319,2.319,0,0,1-.378-1.31,2.628,2.628,0,0,1,1.081-2.158,4.453,4.453,0,0,1,2.83-.848,4.934,4.934,0,0,1,3.023.853,2.666,2.666,0,0,1,1.143,2.241H98.8q0-1.143-1.2-1.143a1.194,1.194,0,0,0-.782.259.8.8,0,0,0-.316.646.737.737,0,0,0,.387.642,3.654,3.654,0,0,0,1.235.4,10.671,10.671,0,0,1,1.49.378,2.706,2.706,0,0,1,2.145,2.646A2.491,2.491,0,0,1,100.6-.642,5.068,5.068,0,0,1,97.6.176a5.172,5.172,0,0,1-2.18-.439,3.645,3.645,0,0,1-1.494-1.2,2.707,2.707,0,0,1-.536-1.591h2.769a1.145,1.145,0,0,0,.439.962,1.808,1.808,0,0,0,1.081.3,1.422,1.422,0,0,0,.91-.246A.787.787,0,0,0,98.895-2.672ZM108.272,0V-7.453h-1.38V-9.51h1.38v-.756a3.286,3.286,0,0,1,.958-2.522,3.785,3.785,0,0,1,2.689-.9,5.89,5.89,0,0,1,1.389.185l.009,2.18a2.706,2.706,0,0,0-.729-.079q-1.345,0-1.345,1.16v.729H113.1v2.057h-1.854V0ZM119.8-1.028a3.054,3.054,0,0,1-2.54,1.2,3,3,0,0,1-2.369-.91,3.826,3.826,0,0,1-.8-2.615V-9.51h2.962v6.179a1.065,1.065,0,0,0,1.187,1.222,1.548,1.548,0,0,0,1.45-.729V-9.51h2.979V0h-2.777Zm9.088,1.2a4.889,4.889,0,0,1-3.542-1.305A4.507,4.507,0,0,1,124-4.526v-.246a5.84,5.84,0,0,1,.541-2.575,3.955,3.955,0,0,1,1.578-1.727,4.763,4.763,0,0,1,2.461-.611,4.117,4.117,0,0,1,3.164,1.244,4.887,4.887,0,0,1,1.16,3.467v1.151h-5.889a2.135,2.135,0,0,0,.694,1.257,2.066,2.066,0,0,0,1.389.457,2.662,2.662,0,0,0,2.2-.984l1.354,1.6a3.784,3.784,0,0,1-1.569,1.217A5.3,5.3,0,0,1,128.892.176ZM128.558-7.4q-1.3,0-1.547,1.723H130v-.229a1.467,1.467,0,0,0-.36-1.1A1.434,1.434,0,0,0,128.558-7.4Zm11.285.571-.976-.07a1.752,1.752,0,0,0-1.793.879V0h-2.962V-9.51h2.777l.1,1.222a2.294,2.294,0,0,1,2.083-1.4,2.888,2.888,0,0,1,.826.105Zm4.957-5.045V-9.51h1.564v2.057H144.8V-3.1a1.111,1.111,0,0,0,.193.747,1.037,1.037,0,0,0,.765.211A4.345,4.345,0,0,0,146.5-2.2V-.079a5.466,5.466,0,0,1-1.67.255,3.1,3.1,0,0,1-2.259-.721,2.954,2.954,0,0,1-.729-2.188v-4.72h-1.213V-9.51h1.213v-2.364ZM152.13.176a4.889,4.889,0,0,1-3.542-1.305,4.507,4.507,0,0,1-1.354-3.4v-.246a5.84,5.84,0,0,1,.541-2.575,3.955,3.955,0,0,1,1.578-1.727,4.763,4.763,0,0,1,2.461-.611,4.117,4.117,0,0,1,3.164,1.244,4.887,4.887,0,0,1,1.16,3.467v1.151h-5.889a2.135,2.135,0,0,0,.694,1.257,2.066,2.066,0,0,0,1.389.457,2.662,2.662,0,0,0,2.2-.984l1.354,1.6a3.784,3.784,0,0,1-1.569,1.217A5.3,5.3,0,0,1,152.13.176ZM151.8-7.4q-1.3,0-1.547,1.723h2.988v-.229a1.467,1.467,0,0,0-.36-1.1A1.434,1.434,0,0,0,151.8-7.4Zm10.512,4.729a.684.684,0,0,0-.4-.606,6.016,6.016,0,0,0-1.5-.475,6.853,6.853,0,0,1-1.828-.646,3.062,3.062,0,0,1-1.1-.971,2.319,2.319,0,0,1-.378-1.31,2.628,2.628,0,0,1,1.081-2.158,4.453,4.453,0,0,1,2.83-.848,4.934,4.934,0,0,1,3.023.853,2.666,2.666,0,0,1,1.143,2.241h-2.971q0-1.143-1.2-1.143a1.194,1.194,0,0,0-.782.259.8.8,0,0,0-.316.646.737.737,0,0,0,.387.642,3.654,3.654,0,0,0,1.235.4,10.671,10.671,0,0,1,1.49.378,2.706,2.706,0,0,1,2.145,2.646,2.491,2.491,0,0,1-1.156,2.118,5.068,5.068,0,0,1-2.993.817,5.172,5.172,0,0,1-2.18-.439,3.645,3.645,0,0,1-1.494-1.2,2.707,2.707,0,0,1-.536-1.591h2.769a1.145,1.145,0,0,0,.439.962,1.808,1.808,0,0,0,1.081.3A1.422,1.422,0,0,0,162-2.03.787.787,0,0,0,162.308-2.672Z" transform="translate(20 33)" fill="#fff"/>
    </g>
    <path id="Trazado_613430" data-name="Trazado 613430" d="M11.654,0H8.587L4.052-7.963V0H.967V-12.8H4.052L8.578-4.834V-12.8h3.076ZM13.1-4.843a5.613,5.613,0,0,1,.554-2.536A3.96,3.96,0,0,1,15.24-9.088a4.791,4.791,0,0,1,2.435-.6,4.373,4.373,0,0,1,3.366,1.323,5.076,5.076,0,0,1,1.23,3.6v.105a4.925,4.925,0,0,1-1.235,3.529A4.384,4.384,0,0,1,17.692.176a4.434,4.434,0,0,1-3.261-1.217,4.761,4.761,0,0,1-1.327-3.3Zm2.962.185a3.538,3.538,0,0,0,.413,1.934,1.376,1.376,0,0,0,1.222.615q1.582,0,1.617-2.435v-.3q0-2.558-1.635-2.558-1.485,0-1.608,2.206Zm11.628-.167a5.809,5.809,0,0,1,.976-3.56,3.211,3.211,0,0,1,2.725-1.3,2.731,2.731,0,0,1,2.145,1V-13.5H36.5V0H33.838l-.149-1.02a2.8,2.8,0,0,1-2.32,1.2,3.205,3.205,0,0,1-2.689-1.3A5.993,5.993,0,0,1,27.686-4.825Zm2.962.185q0,2.531,1.477,2.531a1.458,1.458,0,0,0,1.406-.826V-6.557A1.419,1.419,0,0,0,32.142-7.4q-1.371,0-1.485,2.215ZM42.785.176a4.889,4.889,0,0,1-3.542-1.305,4.507,4.507,0,0,1-1.354-3.4v-.246a5.84,5.84,0,0,1,.541-2.575,3.955,3.955,0,0,1,1.578-1.727,4.763,4.763,0,0,1,2.461-.611,4.117,4.117,0,0,1,3.164,1.244,4.887,4.887,0,0,1,1.16,3.467v1.151H40.9A2.135,2.135,0,0,0,41.6-2.566a2.066,2.066,0,0,0,1.389.457,2.662,2.662,0,0,0,2.2-.984l1.354,1.6A3.784,3.784,0,0,1,44.969-.277,5.3,5.3,0,0,1,42.785.176ZM42.451-7.4q-1.3,0-1.547,1.723h2.988v-.229a1.467,1.467,0,0,0-.36-1.1A1.434,1.434,0,0,0,42.451-7.4ZM52.963-2.672a.684.684,0,0,0-.4-.606,6.016,6.016,0,0,0-1.5-.475A6.853,6.853,0,0,1,49.236-4.4a3.062,3.062,0,0,1-1.1-.971,2.319,2.319,0,0,1-.378-1.31,2.628,2.628,0,0,1,1.081-2.158,4.453,4.453,0,0,1,2.83-.848,4.934,4.934,0,0,1,3.023.853,2.666,2.666,0,0,1,1.143,2.241H52.866q0-1.143-1.2-1.143a1.194,1.194,0,0,0-.782.259.8.8,0,0,0-.316.646.737.737,0,0,0,.387.642,3.654,3.654,0,0,0,1.235.4,10.671,10.671,0,0,1,1.49.378A2.706,2.706,0,0,1,55.819-2.76,2.491,2.491,0,0,1,54.664-.642a5.068,5.068,0,0,1-2.993.817,5.172,5.172,0,0,1-2.18-.439A3.645,3.645,0,0,1,48-1.459a2.707,2.707,0,0,1-.536-1.591h2.769a1.145,1.145,0,0,0,.439.962,1.808,1.808,0,0,0,1.081.3,1.422,1.422,0,0,0,.91-.246A.787.787,0,0,0,52.963-2.672Zm8.262.563a1.317,1.317,0,0,0,.967-.338,1.241,1.241,0,0,0,.334-.945H65.3A3.288,3.288,0,0,1,64.182-.826a4.168,4.168,0,0,1-2.887,1,4.22,4.22,0,0,1-3.27-1.3,5.125,5.125,0,0,1-1.2-3.6v-.123A5.792,5.792,0,0,1,57.362-7.4a3.872,3.872,0,0,1,1.534-1.7,4.573,4.573,0,0,1,2.373-.593,4.116,4.116,0,0,1,2.944,1.028A3.647,3.647,0,0,1,65.3-5.871H62.525A1.626,1.626,0,0,0,62.165-7a1.244,1.244,0,0,0-.967-.4q-1.151,0-1.345,1.468a10.357,10.357,0,0,0-.062,1.283,4.068,4.068,0,0,0,.343,1.986A1.187,1.187,0,0,0,61.225-2.109ZM71.912,0a3.344,3.344,0,0,1-.281-.853A2.754,2.754,0,0,1,69.346.176a3.374,3.374,0,0,1-2.285-.813,2.588,2.588,0,0,1-.94-2.043,2.66,2.66,0,0,1,1.143-2.338,5.821,5.821,0,0,1,3.322-.791H71.5v-.5q0-1.316-1.134-1.316a.927.927,0,0,0-1.055,1.042H66.349a2.655,2.655,0,0,1,1.173-2.239,4.931,4.931,0,0,1,2.993-.86,4.323,4.323,0,0,1,2.874.888A3.086,3.086,0,0,1,74.47-6.363v4.21a4.311,4.311,0,0,0,.4,2V0ZM70.058-1.934a1.652,1.652,0,0,0,.918-.237,1.487,1.487,0,0,0,.523-.536V-4.228h-.861q-1.547,0-1.547,1.389a.848.848,0,0,0,.272.655A.986.986,0,0,0,70.058-1.934Zm11.8-4.9-.976-.07a1.752,1.752,0,0,0-1.793.879V0H76.131V-9.51h2.777L79-8.288a2.294,2.294,0,0,1,2.083-1.4,2.888,2.888,0,0,1,.826.105Zm.554,2a6.421,6.421,0,0,1,.475-2.549,3.821,3.821,0,0,1,1.362-1.709,3.591,3.591,0,0,1,2.065-.6,2.855,2.855,0,0,1,2.32,1l.105-.826h2.689V-.36a4.009,4.009,0,0,1-.584,2.184,3.75,3.75,0,0,1-1.692,1.424,6.219,6.219,0,0,1-2.566.5,5.365,5.365,0,0,1-2.026-.4,3.657,3.657,0,0,1-1.5-1.028L84.3.58a2.716,2.716,0,0,0,2.18.976A1.764,1.764,0,0,0,88.453-.466v-.3A2.781,2.781,0,0,1,86.3.176a3.437,3.437,0,0,1-2.812-1.332A5.517,5.517,0,0,1,82.415-4.72Zm2.971.185a3.383,3.383,0,0,0,.439,1.85,1.386,1.386,0,0,0,1.23.681,1.573,1.573,0,0,0,1.4-.642v-4a1.534,1.534,0,0,0-1.38-.65,1.4,1.4,0,0,0-1.239.708A3.858,3.858,0,0,0,85.386-4.641ZM98.473,0a3.344,3.344,0,0,1-.281-.853A2.754,2.754,0,0,1,95.906.176a3.374,3.374,0,0,1-2.285-.813,2.588,2.588,0,0,1-.94-2.043,2.66,2.66,0,0,1,1.143-2.338,5.821,5.821,0,0,1,3.322-.791h.914v-.5q0-1.316-1.134-1.316a.927.927,0,0,0-1.055,1.042H92.909a2.655,2.655,0,0,1,1.173-2.239,4.931,4.931,0,0,1,2.993-.86,4.323,4.323,0,0,1,2.874.888,3.086,3.086,0,0,1,1.081,2.435v4.21a4.311,4.311,0,0,0,.4,2V0ZM96.618-1.934a1.652,1.652,0,0,0,.918-.237,1.487,1.487,0,0,0,.523-.536V-4.228H97.2q-1.547,0-1.547,1.389a.848.848,0,0,0,.272.655A.986.986,0,0,0,96.618-1.934Zm11.8-4.9-.976-.07a1.752,1.752,0,0,0-1.793.879V0h-2.962V-9.51h2.777l.1,1.222a2.294,2.294,0,0,1,2.083-1.4,2.888,2.888,0,0,1,.826.105Zm9.571,4.72a1.317,1.317,0,0,0,.967-.338,1.241,1.241,0,0,0,.334-.945h2.777a3.288,3.288,0,0,1-1.121,2.566,4.168,4.168,0,0,1-2.887,1,4.22,4.22,0,0,1-3.27-1.3,5.125,5.125,0,0,1-1.2-3.6v-.123A5.792,5.792,0,0,1,114.13-7.4a3.872,3.872,0,0,1,1.534-1.7,4.573,4.573,0,0,1,2.373-.593,4.116,4.116,0,0,1,2.944,1.028,3.647,3.647,0,0,1,1.09,2.786h-2.777A1.626,1.626,0,0,0,118.934-7a1.244,1.244,0,0,0-.967-.4q-1.151,0-1.345,1.468a10.357,10.357,0,0,0-.062,1.283,4.068,4.068,0,0,0,.343,1.986A1.187,1.187,0,0,0,117.993-2.109Zm4.957-2.733a5.613,5.613,0,0,1,.554-2.536,3.96,3.96,0,0,1,1.591-1.709,4.791,4.791,0,0,1,2.435-.6A4.373,4.373,0,0,1,130.9-8.363a5.076,5.076,0,0,1,1.23,3.6v.105a4.925,4.925,0,0,1-1.235,3.529A4.384,4.384,0,0,1,127.547.176a4.434,4.434,0,0,1-3.261-1.217,4.761,4.761,0,0,1-1.327-3.3Zm2.962.185a3.538,3.538,0,0,0,.413,1.934,1.376,1.376,0,0,0,1.222.615q1.582,0,1.617-2.435v-.3q0-2.558-1.635-2.558-1.485,0-1.608,2.206ZM136.151-9.51l.1,1.116a3.225,3.225,0,0,1,2.716-1.292,2.713,2.713,0,0,1,2.219.888,4.226,4.226,0,0,1,.76,2.672V0h-2.971V-6a1.6,1.6,0,0,0-.29-1.059,1.342,1.342,0,0,0-1.055-.338,1.413,1.413,0,0,0-1.292.686V0h-2.962V-9.51Zm10.881-2.364V-9.51H148.6v2.057h-1.564V-3.1a1.111,1.111,0,0,0,.193.747,1.037,1.037,0,0,0,.765.211,4.345,4.345,0,0,0,.738-.053V-.079a5.466,5.466,0,0,1-1.67.255A3.1,3.1,0,0,1,144.8-.545a2.954,2.954,0,0,1-.729-2.188v-4.72h-1.213V-9.51h1.213v-2.364Zm7.33,12.05a4.889,4.889,0,0,1-3.542-1.305,4.507,4.507,0,0,1-1.354-3.4v-.246a5.84,5.84,0,0,1,.541-2.575,3.955,3.955,0,0,1,1.578-1.727,4.763,4.763,0,0,1,2.461-.611,4.117,4.117,0,0,1,3.164,1.244,4.887,4.887,0,0,1,1.16,3.467v1.151h-5.889a2.135,2.135,0,0,0,.694,1.257,2.066,2.066,0,0,0,1.389.457,2.662,2.662,0,0,0,2.2-.984l1.354,1.6a3.784,3.784,0,0,1-1.569,1.217A5.3,5.3,0,0,1,154.362.176ZM154.028-7.4q-1.3,0-1.547,1.723h2.988v-.229a1.467,1.467,0,0,0-.36-1.1A1.434,1.434,0,0,0,154.028-7.4Zm8.253-2.109.1,1.116a3.225,3.225,0,0,1,2.716-1.292,2.713,2.713,0,0,1,2.219.888,4.226,4.226,0,0,1,.76,2.672V0H165.1V-6a1.6,1.6,0,0,0-.29-1.059,1.342,1.342,0,0,0-1.055-.338,1.413,1.413,0,0,0-1.292.686V0H159.5V-9.51ZM172.837,0h-2.971V-9.51h2.971ZM169.69-11.962A1.322,1.322,0,0,1,170.147-13a1.724,1.724,0,0,1,1.187-.4,1.724,1.724,0,0,1,1.187.4,1.322,1.322,0,0,1,.457,1.037,1.322,1.322,0,0,1-.457,1.037,1.724,1.724,0,0,1-1.187.4,1.724,1.724,0,0,1-1.187-.4A1.322,1.322,0,0,1,169.69-11.962Zm4.6,7.137a5.809,5.809,0,0,1,.976-3.56,3.211,3.211,0,0,1,2.725-1.3,2.731,2.731,0,0,1,2.145,1V-13.5H183.1V0h-2.663l-.149-1.02a2.8,2.8,0,0,1-2.32,1.2,3.205,3.205,0,0,1-2.689-1.3A5.993,5.993,0,0,1,174.287-4.825Zm2.962.185q0,2.531,1.477,2.531a1.458,1.458,0,0,0,1.406-.826V-6.557a1.419,1.419,0,0,0-1.389-.844q-1.371,0-1.485,2.215Zm7.163-.2a5.613,5.613,0,0,1,.554-2.536,3.96,3.96,0,0,1,1.591-1.709,4.791,4.791,0,0,1,2.435-.6,4.373,4.373,0,0,1,3.366,1.323,5.076,5.076,0,0,1,1.23,3.6v.105a4.925,4.925,0,0,1-1.235,3.529A4.384,4.384,0,0,1,189.009.176a4.434,4.434,0,0,1-3.261-1.217,4.761,4.761,0,0,1-1.327-3.3Zm2.962.185a3.538,3.538,0,0,0,.413,1.934,1.376,1.376,0,0,0,1.222.615q1.582,0,1.617-2.435v-.3q0-2.558-1.635-2.558-1.485,0-1.608,2.206Zm20.83-.026a5.735,5.735,0,0,1-1,3.538A3.2,3.2,0,0,1,204.513.176a2.742,2.742,0,0,1-2.153-.958V3.656H199.4V-9.51h2.769l.088.879A2.742,2.742,0,0,1,204.5-9.686a3.224,3.224,0,0,1,2.733,1.3,5.805,5.805,0,0,1,.976,3.564Zm-2.962-.185q0-2.531-1.477-2.531a1.394,1.394,0,0,0-1.406.756V-2.9a1.439,1.439,0,0,0,1.424.791q1.415,0,1.459-2.443ZM212.634,0h-2.971V-9.51h2.971Zm-3.146-11.962A1.322,1.322,0,0,1,209.944-13a1.724,1.724,0,0,1,1.187-.4,1.724,1.724,0,0,1,1.187.4,1.322,1.322,0,0,1,.457,1.037,1.322,1.322,0,0,1-.457,1.037,1.724,1.724,0,0,1-1.187.4,1.724,1.724,0,0,1-1.187-.4A1.322,1.322,0,0,1,209.487-11.962ZM220.21-6.829l-.976-.07a1.752,1.752,0,0,0-1.793.879V0h-2.962V-9.51h2.777l.1,1.222a2.294,2.294,0,0,1,2.083-1.4,2.888,2.888,0,0,1,.826.105ZM226.371,0a3.344,3.344,0,0,1-.281-.853A2.754,2.754,0,0,1,223.8.176a3.374,3.374,0,0,1-2.285-.813,2.588,2.588,0,0,1-.94-2.043,2.66,2.66,0,0,1,1.143-2.338,5.821,5.821,0,0,1,3.322-.791h.914v-.5q0-1.316-1.134-1.316a.927.927,0,0,0-1.055,1.042h-2.962a2.655,2.655,0,0,1,1.173-2.239,4.931,4.931,0,0,1,2.993-.86,4.323,4.323,0,0,1,2.874.888,3.086,3.086,0,0,1,1.081,2.435v4.21a4.311,4.311,0,0,0,.4,2V0Zm-1.854-1.934a1.652,1.652,0,0,0,.918-.237,1.487,1.487,0,0,0,.523-.536V-4.228H225.1q-1.547,0-1.547,1.389a.848.848,0,0,0,.272.655A.986.986,0,0,0,224.517-1.934Zm9.5-9.94V-9.51h1.564v2.057h-1.564V-3.1a1.111,1.111,0,0,0,.193.747,1.037,1.037,0,0,0,.765.211,4.345,4.345,0,0,0,.738-.053V-.079a5.466,5.466,0,0,1-1.67.255,3.1,3.1,0,0,1-2.259-.721,2.954,2.954,0,0,1-.729-2.188v-4.72h-1.213V-9.51h1.213v-2.364ZM242.1,0a3.344,3.344,0,0,1-.281-.853A2.754,2.754,0,0,1,239.537.176a3.374,3.374,0,0,1-2.285-.813,2.588,2.588,0,0,1-.94-2.043,2.66,2.66,0,0,1,1.143-2.338,5.821,5.821,0,0,1,3.322-.791h.914v-.5q0-1.316-1.134-1.316A.927.927,0,0,0,239.5-6.587H236.54a2.655,2.655,0,0,1,1.173-2.239,4.931,4.931,0,0,1,2.993-.86,4.323,4.323,0,0,1,2.874.888,3.086,3.086,0,0,1,1.081,2.435v4.21a4.311,4.311,0,0,0,.4,2V0Zm-1.854-1.934a1.652,1.652,0,0,0,.918-.237,1.487,1.487,0,0,0,.523-.536V-4.228h-.861q-1.547,0-1.547,1.389a.848.848,0,0,0,.272.655A.986.986,0,0,0,240.249-1.934Z" transform="translate(1037 4768)" fill="#fff"/>
    <path id="Trazado_613431" data-name="Trazado 613431" d="M8.9-5.432H4.052v3.059h5.73V0H.967V-12.8H9.8v2.382H4.052v2.7H8.9Zm5.563,1.907,1.5-5.985h3.12L15.987,0H12.964l-3.1-9.51H12.99ZM23.1,0H20.127V-9.51H23.1ZM19.951-11.962A1.322,1.322,0,0,1,20.408-13a1.724,1.724,0,0,1,1.187-.4,1.724,1.724,0,0,1,1.187.4,1.322,1.322,0,0,1,.457,1.037,1.322,1.322,0,0,1-.457,1.037,1.724,1.724,0,0,1-1.187.4,1.724,1.724,0,0,1-1.187-.4A1.322,1.322,0,0,1,19.951-11.962Zm8.42.088V-9.51h1.564v2.057H28.371V-3.1a1.111,1.111,0,0,0,.193.747,1.037,1.037,0,0,0,.765.211,4.345,4.345,0,0,0,.738-.053V-.079A5.466,5.466,0,0,1,28.4.176a3.1,3.1,0,0,1-2.259-.721,2.954,2.954,0,0,1-.729-2.188v-4.72H24.2V-9.51h1.213v-2.364ZM36.457,0a3.344,3.344,0,0,1-.281-.853A2.754,2.754,0,0,1,33.891.176a3.374,3.374,0,0,1-2.285-.813,2.588,2.588,0,0,1-.94-2.043,2.66,2.66,0,0,1,1.143-2.338A5.821,5.821,0,0,1,35.13-5.81h.914v-.5q0-1.316-1.134-1.316a.927.927,0,0,0-1.055,1.042H30.894a2.655,2.655,0,0,1,1.173-2.239,4.931,4.931,0,0,1,2.993-.86,4.323,4.323,0,0,1,2.874.888,3.086,3.086,0,0,1,1.081,2.435v4.21a4.311,4.311,0,0,0,.4,2V0ZM34.6-1.934a1.652,1.652,0,0,0,.918-.237,1.487,1.487,0,0,0,.523-.536V-4.228h-.861q-1.547,0-1.547,1.389a.848.848,0,0,0,.272.655A.986.986,0,0,0,34.6-1.934Zm11.8-4.9-.976-.07a1.752,1.752,0,0,0-1.793.879V0H40.676V-9.51h2.777l.1,1.222a2.294,2.294,0,0,1,2.083-1.4,2.888,2.888,0,0,1,.826.105Zm5.177,2a5.809,5.809,0,0,1,.976-3.56,3.211,3.211,0,0,1,2.725-1.3,2.731,2.731,0,0,1,2.145,1V-13.5H60.4V0H57.735l-.149-1.02a2.8,2.8,0,0,1-2.32,1.2,3.205,3.205,0,0,1-2.689-1.3A5.993,5.993,0,0,1,51.583-4.825Zm2.962.185q0,2.531,1.477,2.531a1.458,1.458,0,0,0,1.406-.826V-6.557A1.419,1.419,0,0,0,56.039-7.4q-1.371,0-1.485,2.215ZM67.438,0a3.344,3.344,0,0,1-.281-.853A2.754,2.754,0,0,1,64.872.176a3.374,3.374,0,0,1-2.285-.813,2.588,2.588,0,0,1-.94-2.043,2.66,2.66,0,0,1,1.143-2.338,5.821,5.821,0,0,1,3.322-.791h.914v-.5q0-1.316-1.134-1.316a.927.927,0,0,0-1.055,1.042H61.875a2.655,2.655,0,0,1,1.173-2.239,4.931,4.931,0,0,1,2.993-.86,4.323,4.323,0,0,1,2.874.888A3.086,3.086,0,0,1,70-6.363v4.21a4.311,4.311,0,0,0,.4,2V0ZM65.584-1.934a1.652,1.652,0,0,0,.918-.237,1.487,1.487,0,0,0,.523-.536V-4.228h-.861q-1.547,0-1.547,1.389a.848.848,0,0,0,.272.655A.986.986,0,0,0,65.584-1.934Zm11.8-4.9-.976-.07a1.752,1.752,0,0,0-1.793.879V0H71.657V-9.51h2.777l.1,1.222a2.294,2.294,0,0,1,2.083-1.4,2.888,2.888,0,0,1,.826.105Zm5.177,2a5.809,5.809,0,0,1,.976-3.56,3.211,3.211,0,0,1,2.725-1.3,2.731,2.731,0,0,1,2.145,1V-13.5H91.38V0H88.717l-.149-1.02a2.8,2.8,0,0,1-2.32,1.2,3.205,3.205,0,0,1-2.689-1.3A5.993,5.993,0,0,1,82.564-4.825Zm2.962.185q0,2.531,1.477,2.531a1.458,1.458,0,0,0,1.406-.826V-6.557A1.419,1.419,0,0,0,87.021-7.4q-1.371,0-1.485,2.215ZM98.42,0a3.344,3.344,0,0,1-.281-.853A2.754,2.754,0,0,1,95.854.176a3.374,3.374,0,0,1-2.285-.813,2.588,2.588,0,0,1-.94-2.043,2.66,2.66,0,0,1,1.143-2.338,5.821,5.821,0,0,1,3.322-.791h.914v-.5q0-1.316-1.134-1.316a.927.927,0,0,0-1.055,1.042H92.856A2.655,2.655,0,0,1,94.03-8.825a4.931,4.931,0,0,1,2.993-.86A4.323,4.323,0,0,1,99.9-8.8a3.086,3.086,0,0,1,1.081,2.435v4.21a4.311,4.311,0,0,0,.4,2V0ZM96.565-1.934a1.652,1.652,0,0,0,.918-.237,1.487,1.487,0,0,0,.523-.536V-4.228h-.861q-1.547,0-1.547,1.389a.848.848,0,0,0,.272.655A.986.986,0,0,0,96.565-1.934Zm9.5-9.94V-9.51h1.564v2.057h-1.564V-3.1a1.111,1.111,0,0,0,.193.747,1.037,1.037,0,0,0,.765.211,4.345,4.345,0,0,0,.738-.053V-.079a5.466,5.466,0,0,1-1.67.255,3.1,3.1,0,0,1-2.259-.721,2.954,2.954,0,0,1-.729-2.188v-4.72h-1.213V-9.51H103.1v-2.364Zm2.092,7.031a5.613,5.613,0,0,1,.554-2.536A3.96,3.96,0,0,1,110.3-9.088a4.791,4.791,0,0,1,2.435-.6A4.373,4.373,0,0,1,116.1-8.363a5.076,5.076,0,0,1,1.23,3.6v.105A4.925,4.925,0,0,1,116.1-1.129,4.384,4.384,0,0,1,112.755.176a4.434,4.434,0,0,1-3.261-1.217,4.761,4.761,0,0,1-1.327-3.3Zm2.962.185a3.538,3.538,0,0,0,.413,1.934,1.376,1.376,0,0,0,1.222.615q1.582,0,1.617-2.435v-.3q0-2.558-1.635-2.558-1.485,0-1.608,2.206Zm12.5,1.986a.684.684,0,0,0-.4-.606,6.016,6.016,0,0,0-1.5-.475,6.853,6.853,0,0,1-1.828-.646,3.062,3.062,0,0,1-1.1-.971,2.319,2.319,0,0,1-.378-1.31A2.628,2.628,0,0,1,119.5-8.837a4.453,4.453,0,0,1,2.83-.848,4.934,4.934,0,0,1,3.023.853,2.666,2.666,0,0,1,1.143,2.241h-2.971q0-1.143-1.2-1.143a1.194,1.194,0,0,0-.782.259.8.8,0,0,0-.316.646.737.737,0,0,0,.387.642,3.654,3.654,0,0,0,1.235.4,10.671,10.671,0,0,1,1.49.378,2.706,2.706,0,0,1,2.145,2.646,2.491,2.491,0,0,1-1.156,2.118,5.068,5.068,0,0,1-2.993.817,5.172,5.172,0,0,1-2.18-.439,3.645,3.645,0,0,1-1.494-1.2,2.707,2.707,0,0,1-.536-1.591h2.769a1.145,1.145,0,0,0,.439.962,1.808,1.808,0,0,0,1.081.3,1.422,1.422,0,0,0,.91-.246A.787.787,0,0,0,123.618-2.672ZM141.17-4.685a5.735,5.735,0,0,1-1,3.538A3.2,3.2,0,0,1,137.479.176a2.742,2.742,0,0,1-2.153-.958V3.656h-2.962V-9.51h2.769l.088.879a2.742,2.742,0,0,1,2.241-1.055,3.224,3.224,0,0,1,2.733,1.3,5.805,5.805,0,0,1,.976,3.564Zm-2.962-.185q0-2.531-1.477-2.531a1.394,1.394,0,0,0-1.406.756V-2.9a1.439,1.439,0,0,0,1.424.791q1.415,0,1.459-2.443ZM147.076.176a4.889,4.889,0,0,1-3.542-1.305,4.507,4.507,0,0,1-1.354-3.4v-.246a5.84,5.84,0,0,1,.541-2.575A3.955,3.955,0,0,1,144.3-9.075a4.763,4.763,0,0,1,2.461-.611,4.117,4.117,0,0,1,3.164,1.244,4.887,4.887,0,0,1,1.16,3.467v1.151H145.2a2.135,2.135,0,0,0,.694,1.257,2.066,2.066,0,0,0,1.389.457,2.662,2.662,0,0,0,2.2-.984l1.354,1.6A3.784,3.784,0,0,1,149.26-.277,5.3,5.3,0,0,1,147.076.176ZM146.742-7.4q-1.3,0-1.547,1.723h2.988v-.229a1.467,1.467,0,0,0-.36-1.1A1.434,1.434,0,0,0,146.742-7.4Zm11.285.571-.976-.07a1.752,1.752,0,0,0-1.793.879V0H152.3V-9.51h2.777l.1,1.222a2.294,2.294,0,0,1,2.083-1.4,2.888,2.888,0,0,1,.826.105Zm6.047,4.157a.684.684,0,0,0-.4-.606,6.016,6.016,0,0,0-1.5-.475,6.853,6.853,0,0,1-1.828-.646,3.062,3.062,0,0,1-1.1-.971,2.319,2.319,0,0,1-.378-1.31,2.628,2.628,0,0,1,1.081-2.158,4.453,4.453,0,0,1,2.83-.848,4.934,4.934,0,0,1,3.023.853,2.666,2.666,0,0,1,1.143,2.241h-2.971q0-1.143-1.2-1.143a1.194,1.194,0,0,0-.782.259.8.8,0,0,0-.316.646.737.737,0,0,0,.387.642,3.654,3.654,0,0,0,1.235.4,10.671,10.671,0,0,1,1.49.378,2.706,2.706,0,0,1,2.145,2.646,2.491,2.491,0,0,1-1.156,2.118,5.068,5.068,0,0,1-2.993.817,5.172,5.172,0,0,1-2.18-.439,3.645,3.645,0,0,1-1.494-1.2,2.707,2.707,0,0,1-.536-1.591h2.769a1.145,1.145,0,0,0,.439.962,1.808,1.808,0,0,0,1.081.3,1.422,1.422,0,0,0,.91-.246A.787.787,0,0,0,164.074-2.672Zm3.867-2.171a5.613,5.613,0,0,1,.554-2.536,3.96,3.96,0,0,1,1.591-1.709,4.791,4.791,0,0,1,2.435-.6,4.373,4.373,0,0,1,3.366,1.323,5.076,5.076,0,0,1,1.23,3.6v.105a4.925,4.925,0,0,1-1.235,3.529A4.384,4.384,0,0,1,172.538.176a4.434,4.434,0,0,1-3.261-1.217,4.761,4.761,0,0,1-1.327-3.3Zm2.962.185a3.538,3.538,0,0,0,.413,1.934,1.376,1.376,0,0,0,1.222.615q1.582,0,1.617-2.435v-.3q0-2.558-1.635-2.558-1.485,0-1.608,2.206ZM181.143-9.51l.1,1.116a3.225,3.225,0,0,1,2.716-1.292,2.713,2.713,0,0,1,2.219.888,4.226,4.226,0,0,1,.76,2.672V0h-2.971V-6a1.6,1.6,0,0,0-.29-1.059,1.342,1.342,0,0,0-1.055-.338,1.413,1.413,0,0,0-1.292.686V0h-2.962V-9.51ZM193.931,0a3.344,3.344,0,0,1-.281-.853A2.754,2.754,0,0,1,191.364.176a3.374,3.374,0,0,1-2.285-.813,2.588,2.588,0,0,1-.94-2.043,2.66,2.66,0,0,1,1.143-2.338A5.821,5.821,0,0,1,192.6-5.81h.914v-.5q0-1.316-1.134-1.316a.927.927,0,0,0-1.055,1.042h-2.962a2.655,2.655,0,0,1,1.173-2.239,4.931,4.931,0,0,1,2.993-.86,4.323,4.323,0,0,1,2.874.888,3.086,3.086,0,0,1,1.081,2.435v4.21a4.311,4.311,0,0,0,.4,2V0Zm-1.854-1.934a1.652,1.652,0,0,0,.918-.237,1.487,1.487,0,0,0,.523-.536V-4.228h-.861q-1.547,0-1.547,1.389a.848.848,0,0,0,.272.655A.986.986,0,0,0,192.076-1.934ZM201.252,0h-2.971V-13.5h2.971Zm6.425.176a4.889,4.889,0,0,1-3.542-1.305,4.507,4.507,0,0,1-1.354-3.4v-.246a5.84,5.84,0,0,1,.541-2.575A3.955,3.955,0,0,1,204.9-9.075a4.763,4.763,0,0,1,2.461-.611,4.117,4.117,0,0,1,3.164,1.244,4.887,4.887,0,0,1,1.16,3.467v1.151H205.8a2.135,2.135,0,0,0,.694,1.257,2.066,2.066,0,0,0,1.389.457,2.662,2.662,0,0,0,2.2-.984l1.354,1.6a3.784,3.784,0,0,1-1.569,1.217A5.3,5.3,0,0,1,207.677.176ZM207.343-7.4q-1.3,0-1.547,1.723h2.988v-.229a1.467,1.467,0,0,0-.36-1.1A1.434,1.434,0,0,0,207.343-7.4Zm10.512,4.729a.684.684,0,0,0-.4-.606,6.016,6.016,0,0,0-1.5-.475,6.853,6.853,0,0,1-1.828-.646,3.062,3.062,0,0,1-1.1-.971,2.319,2.319,0,0,1-.378-1.31,2.628,2.628,0,0,1,1.081-2.158,4.453,4.453,0,0,1,2.83-.848,4.934,4.934,0,0,1,3.023.853,2.666,2.666,0,0,1,1.143,2.241h-2.971q0-1.143-1.2-1.143a1.194,1.194,0,0,0-.782.259.8.8,0,0,0-.316.646.737.737,0,0,0,.387.642,3.654,3.654,0,0,0,1.235.4,10.671,10.671,0,0,1,1.49.378,2.706,2.706,0,0,1,2.145,2.646,2.491,2.491,0,0,1-1.156,2.118,5.068,5.068,0,0,1-2.993.817,5.172,5.172,0,0,1-2.18-.439,3.645,3.645,0,0,1-1.494-1.2,2.707,2.707,0,0,1-.536-1.591h2.769a1.145,1.145,0,0,0,.439.962,1.808,1.808,0,0,0,1.081.3,1.422,1.422,0,0,0,.91-.246A.787.787,0,0,0,217.854-2.672Z" transform="translate(961 4917)" fill="#fff"/>
  </g>
</svg>
