<svg xmlns="http://www.w3.org/2000/svg" xmlns:xlink="http://www.w3.org/1999/xlink" width="1030" height="421.099" viewBox="0 0 1030 421.099">
  <defs>
    <linearGradient id="linear-gradient" x1="0.5" x2="0.5" y2="1" gradientUnits="objectBoundingBox">
      <stop offset="0" stop-color="#fff"/>
      <stop offset="1" stop-color="#eff6f9"/>
    </linearGradient>
    <clipPath id="clip-path">
      <rect id="Rectangle_291673" data-name="Rectangle 291673" width="457" height="358" transform="translate(0.097 -0.491)" fill="#fff"/>
    </clipPath>
    <clipPath id="clip-path-2">
      <rect id="Rectangle_291670" data-name="Rectangle 291670" width="346.042" height="395.107" fill="none"/>
    </clipPath>
  </defs>
  <g id="Group_1076354" data-name="Group 1076354" transform="translate(-285 -4529.785)">
    <g id="Group_872029" data-name="Group 872029" transform="translate(0 -12816)">
      <g id="Group_871995" data-name="Group 871995" transform="translate(0 -8)">
        <rect id="Rectangle_292178" data-name="Rectangle 292178" width="1030" height="400" transform="translate(1315 17754) rotate(180)" fill="url(#linear-gradient)"/>
        <g id="Mask_Group_154272" data-name="Mask Group 154272" transform="translate(556.903 17355.49)" clip-path="url(#clip-path)">
          <g id="Group_871226" data-name="Group 871226" transform="translate(12.899 -1.311)" style="isolation: isolate">
            <path id="Path_216669" data-name="Path 216669" d="M-9641.418-12348.876s114.807,47.017,123.326-57.368,24.5-253.507-54.32-256.7-262.026,85.209-273.742,155.513S-9641.418-12348.876-9641.418-12348.876Z" transform="translate(9888.991 12690.016)" fill="#e1efe3"/>
            <path id="Path_216670" data-name="Path 216670" d="M198.934,304.566s111.3,45.581,119.565-55.617S342.248,3.179,265.833.082,11.8,82.691.445,150.848,198.934,304.566,198.934,304.566Z" transform="matrix(0.946, -0.326, 0.326, 0.946, 0, 106.01)" fill="#eaeff3"/>
          </g>
        </g>
        <g id="Group_871214" data-name="Group 871214" transform="translate(629.369 17379.777)">
          <g id="Group_871213" data-name="Group 871213" transform="translate(0)" clip-path="url(#clip-path-2)">
            <path id="Path_216649" data-name="Path 216649" d="M111.362,129.833,146.9,108.6a50.39,50.39,0,0,1,16.244-6.2V.631a50.377,50.377,0,0,0-16.112,6.178L26.312,78.938a53.036,53.036,0,0,0-13.733,11.82l85.61,50.218a53.079,53.079,0,0,1,13.173-11.143" transform="translate(0.125 0.006)" fill="#f33"/>
            <path id="Path_216650" data-name="Path 216650" d="M111.362,129.833,146.9,108.6a50.39,50.39,0,0,1,16.244-6.2V.631a50.377,50.377,0,0,0-16.112,6.178L26.312,78.938a53.036,53.036,0,0,0-13.733,11.82l85.61,50.218A53.079,53.079,0,0,1,111.362,129.833Z" transform="translate(0.125 0.006)" fill="none"/>
            <path id="Path_216651" data-name="Path 216651" d="M85.55,218.509V174.482a53.076,53.076,0,0,1,3.076-17.774L3.281,106.642A53.048,53.048,0,0,0,.5,123.587V269.4a53.035,53.035,0,0,0,2.534,16.169l85.053-50.891a53.039,53.039,0,0,1-2.537-16.174" transform="translate(0.005 1.06)" fill="#3ae3fe"/>
            <path id="Path_216652" data-name="Path 216652" d="M85.55,218.509V174.482a53.076,53.076,0,0,1,3.076-17.774L3.281,106.642A53.048,53.048,0,0,0,.5,123.587V269.4a53.035,53.035,0,0,0,2.534,16.169l85.053-50.891A53.039,53.039,0,0,1,85.55,218.509Z" transform="translate(0.005 1.06)" fill="none"/>
            <path id="Path_216653" data-name="Path 216653" d="M146.9,284.014l-35.535-21.232a53.114,53.114,0,0,1-14.235-12.429L12.08,301.245a53.088,53.088,0,0,0,14.237,12.432L147.034,385.8a50.354,50.354,0,0,0,16.113,6.178V290.216a50.4,50.4,0,0,1-16.244-6.2" transform="translate(0.12 2.488)" fill="#8da9c5"/>
            <path id="Path_216654" data-name="Path 216654" d="M146.9,284.014l-35.535-21.232a53.114,53.114,0,0,1-14.235-12.429L12.08,301.245a53.088,53.088,0,0,0,14.237,12.432L147.034,385.8a50.354,50.354,0,0,0,16.113,6.178V290.216A50.4,50.4,0,0,1,146.9,284.014Z" transform="translate(0.12 2.488)" fill="none"/>
            <path id="Path_216655" data-name="Path 216655" d="M232.626,262.789,197.09,284.021a50.361,50.361,0,0,1-16.244,6.2V392.014a50.361,50.361,0,0,0,16.244-6.2l120.719-72.128a53.105,53.105,0,0,0,15.363-13.9L247.5,249.534a53.117,53.117,0,0,1-14.875,13.255" transform="translate(1.797 2.48)" fill="#add1b3"/>
            <path id="Path_216656" data-name="Path 216656" d="M232.626,262.789,197.09,284.021a50.361,50.361,0,0,1-16.244,6.2V392.014a50.361,50.361,0,0,0,16.244-6.2l120.719-72.128a53.105,53.105,0,0,0,15.363-13.9L247.5,249.534A53.117,53.117,0,0,1,232.626,262.789Z" transform="translate(1.797 2.48)" fill="none"/>
            <path id="Path_216657" data-name="Path 216657" d="M257.825,174.5v44.027a53,53,0,0,1-2.219,15.164l85.408,50.1a53.027,53.027,0,0,0,1.993-14.372V123.6a53.1,53.1,0,0,0-3.293-18.391l-85.162,50.954a53.055,53.055,0,0,1,3.273,18.332" transform="translate(2.529 1.046)" fill="#eba325"/>
            <path id="Path_216658" data-name="Path 216658" d="M257.825,174.5v44.027a53,53,0,0,1-2.219,15.164l85.408,50.1a53.027,53.027,0,0,0,1.993-14.372V123.6a53.1,53.1,0,0,0-3.293-18.391l-85.162,50.954A53.055,53.055,0,0,1,257.825,174.5Z" transform="translate(2.529 1.046)" fill="none"/>
            <path id="Path_216659" data-name="Path 216659" d="M317.809,78.938,197.091,6.809a50.37,50.37,0,0,0-16.244-6.2V102.4a50.347,50.347,0,0,1,16.244,6.2l35.536,21.233a53,53,0,0,1,12.783,10.7l85.14-50.943a53.019,53.019,0,0,0-12.74-10.651" transform="translate(1.797 0.006)" fill="#359547"/>
            <path id="Path_216660" data-name="Path 216660" d="M317.809,78.938,197.091,6.809a50.37,50.37,0,0,0-16.244-6.2V102.4a50.347,50.347,0,0,1,16.244,6.2l35.536,21.233a53,53,0,0,1,12.783,10.7l85.14-50.943A53.019,53.019,0,0,0,317.809,78.938Z" transform="translate(1.797 0.006)" fill="none"/>
            <path id="Path_216661" data-name="Path 216661" d="M111.362,129.833,146.9,108.6a50.39,50.39,0,0,1,16.244-6.2V.631a50.377,50.377,0,0,0-16.112,6.178L26.312,78.938a53.036,53.036,0,0,0-13.733,11.82l85.61,50.218a53.079,53.079,0,0,1,13.173-11.143" transform="translate(0.125 0.006)" fill="#03386e"/>
            <path id="Path_216662" data-name="Path 216662" d="M111.362,129.833,146.9,108.6a50.39,50.39,0,0,1,16.244-6.2V.631a50.377,50.377,0,0,0-16.112,6.178L26.312,78.938a53.036,53.036,0,0,0-13.733,11.82l85.61,50.218A53.079,53.079,0,0,1,111.362,129.833Z" transform="translate(0.125 0.006)" fill="none"/>
            <g id="Layer_23" transform="translate(210.392 58.715)">
              <path id="Path_611331" data-name="Path 611331" d="M38.918,14.207a15.343,15.343,0,0,0-29.558,0,12.2,12.2,0,0,0,1.393,23.48,1.392,1.392,0,1,0,.577-2.723,9.417,9.417,0,0,1-.456-18.308,1.393,1.393,0,0,0,1-1.044,12.562,12.562,0,0,1,24.528,0,1.393,1.393,0,0,0,1,1.044,9.416,9.416,0,0,1-.456,18.306,1.392,1.392,0,0,0,.286,2.754,1.44,1.44,0,0,0,.291-.031,12.2,12.2,0,0,0,1.392-23.478Z" fill="#fff"/>
              <path id="Path_611332" data-name="Path 611332" d="M24.03,22.9V21.034a5.095,5.095,0,1,0-10.19,0V22.9a3.784,3.784,0,0,0-3.213,3.731v5.741a3.793,3.793,0,0,0,3.788,3.788h9.041a3.793,3.793,0,0,0,3.788-3.788V26.627A3.787,3.787,0,0,0,24.03,22.9Zm-5.095-4.172a2.314,2.314,0,0,1,2.312,2.31v1.8H16.623v-1.8a2.314,2.314,0,0,1,2.312-2.31ZM24.46,32.366a1.006,1.006,0,0,1-1.005,1H14.414a1.006,1.006,0,0,1-1.005-1V26.625a1.006,1.006,0,0,1,1.005-1h9.041a1.006,1.006,0,0,1,1.005,1Z" transform="translate(5.204 7.076)" fill="#fff"/>
            </g>
          </g>
        </g>
        <path id="Path_611327" data-name="Path 611327" d="M57.042,95.047H55.977a3.561,3.561,0,0,0,.471-1.773v-30a3.588,3.588,0,0,0-3.584-3.584H5.083A3.588,3.588,0,0,0,1.5,63.275v30a3.561,3.561,0,0,0,.471,1.773H.905A.905.905,0,0,0,0,95.952v3.635a4.545,4.545,0,0,0,4.54,4.54H53.407a4.545,4.545,0,0,0,4.54-4.54V95.952a.905.905,0,0,0-.905-.905ZM3.311,93.274v-30A1.775,1.775,0,0,1,5.083,61.5H52.864a1.775,1.775,0,0,1,1.773,1.773v30a1.775,1.775,0,0,1-1.773,1.773H5.083a1.775,1.775,0,0,1-1.773-1.773Zm19.708,3.584h11.91v1.577H23.019Zm33.118,2.729a2.732,2.732,0,0,1-2.729,2.729H4.54c-1.507,0-2.728-1.223-2.729-5.459h19.4v1.791a1.6,1.6,0,0,0,1.6,1.6H35.143c.882,0,1.6-.715,1.6-3.388h19.4ZM5.461,93.8Zm46.12-1.811h0ZM28.652,90.734a.9.9,0,0,0,.643,0A14.611,14.611,0,0,0,37.841,82.6a24.921,24.921,0,0,0,1.594-11.553.905.905,0,0,0-.521-.759L29.356,65.84a.905.905,0,0,0-.765,0l-9.559,4.452a.905.905,0,0,0-.521.759A24.922,24.922,0,0,0,20.107,82.6a14.608,14.608,0,0,0,8.545,8.129ZM20.287,71.706l8.687-4.046,8.687,4.046c.33,6.262-.984,14.085-8.687,17.209C21.271,85.791,19.957,77.968,20.287,71.706Zm15.563,6.175a6.876,6.876,0,1,0-6.876,6.876A6.876,6.876,0,0,0,35.849,77.881Zm-11.94,0a5.065,5.065,0,1,1,5.065,5.065A5.065,5.065,0,0,1,23.909,77.881Zm8.27-1-3.273,3.273a.905.905,0,0,1-1.28,0L25.769,78.3a.906.906,0,1,1,1.28-1.281l1.216,1.216L30.9,75.6a.905.905,0,1,1,1.28,1.281Z" transform="translate(709.251 17379.645)" fill="#fff"/>
        <g id="_01-Internet_Security" data-name="01-Internet Security" transform="translate(909.735 17550.816)">
          <path id="Path_611333" data-name="Path 611333" d="M25.39,39.551a18.278,18.278,0,0,1-2.849.345v-8.65a18.65,18.65,0,0,1,2.239.237.79.79,0,1,0,.262-1.558,20.215,20.215,0,0,0-2.5-.258V22.535h8.675c-.014.586-.038,1.178-.083,1.775a.79.79,0,1,0,1.575.118c.048-.637.073-1.268.087-1.893h7.916a.79.79,0,0,0,.79-.79A19.751,19.751,0,1,0,8.19,36.085c.007.008.009.019.016.026s.03.018.043.03a19.674,19.674,0,0,0,13.5,5.355,19.911,19.911,0,0,0,3.954-.4.79.79,0,0,0-.315-1.549Zm-8.987-.44a18.156,18.156,0,0,1-6.428-3.543,18.293,18.293,0,0,1,2.857-2,16.353,16.353,0,0,0,3.57,5.547Zm-2.151-6.269a17.911,17.911,0,0,1,6.709-1.6v8.6c-2.725-.433-5.125-3.083-6.709-7.006Zm6.709-3.176a19.5,19.5,0,0,0-7.252,1.686,30.913,30.913,0,0,1-1.428-8.817h8.68Zm1.58-26.024c2.721.433,5.118,3.074,6.7,6.987a18.068,18.068,0,0,1-6.7,1.6Zm4.558.737a18.155,18.155,0,0,1,6.415,3.532,18.182,18.182,0,0,1-2.852,2A16.337,16.337,0,0,0,27.1,4.379Zm-6.138-.737v8.585a18.068,18.068,0,0,1-6.7-1.6C15.843,6.717,18.24,4.075,20.961,3.642ZM12.84,9.907a18.185,18.185,0,0,1-2.852-2A18.156,18.156,0,0,1,16.4,4.379,16.336,16.336,0,0,0,12.84,9.907Zm8.121,3.9v7.148h-8.68a30.9,30.9,0,0,1,1.436-8.839A19.644,19.644,0,0,0,20.961,13.808Zm1.58,0a19.644,19.644,0,0,0,7.244-1.691,30.9,30.9,0,0,1,1.436,8.839h-8.68ZM39.9,20.955H32.8A32.179,32.179,0,0,0,31.223,11.4a19.766,19.766,0,0,0,3.454-2.411A18.11,18.11,0,0,1,39.9,20.955ZM8.825,8.993A19.762,19.762,0,0,0,12.279,11.4,32.179,32.179,0,0,0,10.7,20.955H3.6A18.109,18.109,0,0,1,8.825,8.993ZM3.6,22.535h7.1a32.194,32.194,0,0,0,1.572,9.536,19.855,19.855,0,0,0-3.459,2.416A18.109,18.109,0,0,1,3.6,22.535Zm45.015,4.74a18.457,18.457,0,0,1-9.807-3.01.792.792,0,0,0-.927,0,18.457,18.457,0,0,1-9.807,3.01.79.79,0,0,0-.79.79v7.9c0,9.772,10.709,13.357,10.817,13.392a.79.79,0,0,0,.488,0c.108-.035,10.817-3.62,10.817-13.392v-7.9A.79.79,0,0,0,48.612,27.276Zm-.79,8.69c0,7.839-7.971,11.23-9.481,11.8-1.509-.571-9.481-3.962-9.481-11.8V28.838a20.031,20.031,0,0,0,9.481-2.983,20.03,20.03,0,0,0,9.481,2.983ZM36.762,39.589l6.552-6.552a.79.79,0,1,1,1.117,1.117l-7.11,7.11a.79.79,0,0,1-1.117,0l-3.95-3.95A.79.79,0,1,1,33.37,36.2Z" transform="translate(0 0)" fill="#12263f" stroke="#12263f" stroke-width="0.5"/>
        </g>
        <g id="Group_1073418" data-name="Group 1073418" transform="translate(843.423 17666.797)">
          <path id="Path_611334" data-name="Path 611334" d="M13.705,8.081h23.38a.8.8,0,0,0,0-1.591H13.705a.8.8,0,1,0,0,1.591Z" transform="translate(-2.328 -1.22)" fill="#12263f" stroke="#12263f" stroke-width="0.4"/>
          <path id="Path_611335" data-name="Path 611335" d="M13.705,13.311h9.766a.8.8,0,1,0,0-1.591H13.705a.8.8,0,1,0,0,1.591Z" transform="translate(-2.328 -2.291)" fill="#12263f" stroke="#12263f" stroke-width="0.4"/>
          <path id="Path_611336" data-name="Path 611336" d="M20.317,25.265a.8.8,0,0,0-.8-.8H10.845a.8.8,0,1,0,0,1.591h8.676A.8.8,0,0,0,20.317,25.265Z" transform="translate(-1.742 -4.902)" fill="#12263f" stroke="#12263f" stroke-width="0.4"/>
          <path id="Path_611337" data-name="Path 611337" d="M10.845,28.06a.8.8,0,1,0,0,1.591h4.764a.8.8,0,1,0,0-1.591Z" transform="translate(-1.742 -5.637)" fill="#12263f" stroke="#12263f" stroke-width="0.4"/>
          <path id="Path_611338" data-name="Path 611338" d="M50.782,45.661a.8.8,0,0,0,.8-.8V37.6a2.306,2.306,0,0,0-2.3-2.306h-.334v-3.3A6.951,6.951,0,0,0,42,25.048,6.954,6.954,0,0,0,35.06,31.99v3.3h-.334A2.308,2.308,0,0,0,32.42,37.6v2.5H3.25L6.5,16.666a1.052,1.052,0,0,1,1.034-.9H42.368A1.042,1.042,0,0,1,43.4,16.952l-.851,6.163a.8.8,0,1,0,1.575.223l.851-6.163a2.66,2.66,0,0,0-.62-2.092,2.6,2.6,0,0,0-1.877-.891V10.98a2.128,2.128,0,0,0-2.123-2.123H39.291V3.719A3.194,3.194,0,0,0,36.1.53H10.057A3.194,3.194,0,0,0,6.868,3.719V4.761h-3.2A2.128,2.128,0,0,0,1.54,6.884v34a.716.716,0,0,0,.024.127.683.683,0,0,0,.024.135,1.229,1.229,0,0,0,.1.175.421.421,0,0,0,.048.08c.008.008.016.008.016.016a.856.856,0,0,0,.191.143.559.559,0,0,0,.072.048.846.846,0,0,0,.318.072H32.42v8.191a2.308,2.308,0,0,0,2.306,2.306H49.279a2.306,2.306,0,0,0,2.3-2.306V48.412a.8.8,0,1,0-1.591,0v1.455a.706.706,0,0,1-.708.716H34.726a.713.713,0,0,1-.716-.716V37.6a.713.713,0,0,1,.716-.716H49.279a.7.7,0,0,1,.708.716v7.269a.792.792,0,0,0,.8.8ZM40.34,10.439a.533.533,0,0,1,.533.533v3.2H39.267V10.431H40.34ZM8.451,3.719a1.6,1.6,0,0,1,1.6-1.6H36.07a1.6,1.6,0,0,1,1.6,1.6V14.177H8.451ZM3.663,6.351h3.2v7.921a2.645,2.645,0,0,0-1.94,2.171L3.131,29.374V6.884a.533.533,0,0,1,.533-.533ZM36.65,31.99A5.359,5.359,0,0,1,42,26.638a5.362,5.362,0,0,1,5.352,5.352v3.3h-1.5v-3.3a3.794,3.794,0,0,0-1.121-2.712A3.852,3.852,0,0,0,38.154,32v3.3h-1.5Zm7.611,3.3H39.744v-3.3A2.261,2.261,0,0,1,43.609,30.4a2.238,2.238,0,0,1,.66,1.591v3.3Z" fill="#12263f" stroke="#12263f" stroke-width="0.4"/>
          <path id="Path_611339" data-name="Path 611339" d="M51.722,58.455a.8.8,0,0,0,.8-.8V55.536a2.716,2.716,0,1,0-1.583,0V57.66a.781.781,0,0,0,.787.8ZM50.6,52.96a1.125,1.125,0,1,1,1.121,1.121A1.127,1.127,0,0,1,50.6,52.96Z" transform="translate(-9.719 -10.178)" fill="#12263f" stroke="#12263f" stroke-width="0.4"/>
        </g>
        <g id="Group_1073419" data-name="Group 1073419" transform="translate(696 17656.859)">
          <path id="Path_611340" data-name="Path 611340" d="M11.6,18.133a2.6,2.6,0,0,0-2.6,2.6V46.676a2.6,2.6,0,0,0,2.6,2.6H36.922a.867.867,0,0,0,0-1.733H11.6a.867.867,0,0,1-.867-.867V20.733a.867.867,0,0,1,.867-.867H51.9a.867.867,0,0,1,.867.867V30.859a.867.867,0,0,0,1.733,0V20.733a2.6,2.6,0,0,0-2.6-2.6Z" fill="#12263f" stroke="#12263f" stroke-width="1"/>
          <path id="Path_611341" data-name="Path 611341" d="M27.379,55.876a.867.867,0,0,1,1.191,1.259l-9.612,9.094a.867.867,0,1,1-1.191-1.259Z" transform="translate(-4.814 -21.253)" fill="#12263f" stroke="#12263f" stroke-width="1"/>
          <path id="Path_611342" data-name="Path 611342" d="M17.7,25.578a.927.927,0,0,1,1.259,0L34.5,40.275a2.78,2.78,0,0,0,3.778,0l15.536-14.7a.926.926,0,0,1,1.259,0,.81.81,0,0,1,0,1.191l-15.535,14.7a4.633,4.633,0,0,1-6.3,0L17.7,26.77a.811.811,0,0,1,0-1.191Z" transform="translate(-4.783 -4.079)" fill="#12263f" stroke="#12263f" stroke-width="1"/>
          <path id="Path_611343" data-name="Path 611343" d="M93.734,58.2v5.2h1.3a1.733,1.733,0,0,1,1.733,1.733V75.967A1.733,1.733,0,0,1,95.034,77.7h-14.3A1.733,1.733,0,0,1,79,75.967V65.133A1.733,1.733,0,0,1,80.733,63.4h1.3V58.2a5.2,5.2,0,0,1,5.2-5.2h1.3A5.2,5.2,0,0,1,93.734,58.2Zm-9.967,5.2V58.2a3.467,3.467,0,0,1,3.467-3.467h1.3A3.467,3.467,0,0,1,92,58.2v5.2ZM95.034,75.967V65.133h-14.3V75.967Z" transform="translate(-39.666 -19.758)" fill="#12263f" stroke="#12263f" stroke-width="1" fill-rule="evenodd"/>
        </g>
        <g id="Group_1073428" data-name="Group 1073428" transform="translate(645.148 17546.789)">
          <g id="Group_1073420" data-name="Group 1073420" transform="translate(25.147 18.227)">
            <path id="Path_611344" data-name="Path 611344" d="M29.328,34.8a1.72,1.72,0,0,1-1.216-2.937L39.262,20.717a1.72,1.72,0,0,1,2.433,2.433L30.545,34.3a1.712,1.712,0,0,1-1.216.5Z" transform="translate(-27.608 -20.213)" fill="#12263e"/>
          </g>
          <g id="Group_1073421" data-name="Group 1073421" transform="translate(19.526 23.756)">
            <path id="Path_611345" data-name="Path 611345" d="M28.415,35.7a1.714,1.714,0,0,1-1.216-.5l-5.621-5.62a1.72,1.72,0,0,1,2.433-2.433l5.621,5.62A1.72,1.72,0,0,1,28.415,35.7Z" transform="translate(-21.074 -26.641)" fill="#12263e"/>
          </g>
          <g id="Group_1073422" data-name="Group 1073422" transform="translate(10 23.498)">
            <path id="Path_611346" data-name="Path 611346" d="M28.925,53.575a1.733,1.733,0,0,1-.539-.087A26.726,26.726,0,0,1,10,28.061a1.72,1.72,0,1,1,3.441,0A23.291,23.291,0,0,0,29.463,50.22a1.721,1.721,0,0,1-.539,3.355Z" transform="translate(-10 -26.341)" fill="#12263e"/>
          </g>
          <g id="Group_1073423" data-name="Group 1073423" transform="translate(10 11.326)">
            <path id="Path_611347" data-name="Path 611347" d="M11.72,27.8A1.721,1.721,0,0,1,10,26.084V13.912a1.72,1.72,0,1,1,3.441,0V26.084A1.721,1.721,0,0,1,11.72,27.8Z" transform="translate(-10 -12.192)" fill="#12263e"/>
          </g>
          <g id="Group_1073424" data-name="Group 1073424" transform="translate(10 6)">
            <path id="Path_611348" data-name="Path 611348" d="M11.719,14.767a1.72,1.72,0,0,1-.235-3.425A53.965,53.965,0,0,0,28.158,6.181a1.72,1.72,0,0,1,1.535,3.08,57.448,57.448,0,0,1-17.735,5.491,1.725,1.725,0,0,1-.238.016Z" transform="translate(-10 -6)" fill="#12263e"/>
          </g>
          <g id="Group_1073425" data-name="Group 1073425" transform="translate(27.204 23.498)">
            <path id="Path_611349" data-name="Path 611349" d="M31.72,53.575a1.721,1.721,0,0,1-.539-3.355A23.289,23.289,0,0,0,47.2,28.061a1.72,1.72,0,1,1,3.441,0A26.726,26.726,0,0,1,32.259,53.488,1.7,1.7,0,0,1,31.72,53.575Z" transform="translate(-30 -26.341)" fill="#12263e"/>
          </g>
          <g id="Group_1073426" data-name="Group 1073426" transform="translate(44.409 11.326)">
            <path id="Path_611350" data-name="Path 611350" d="M51.72,27.8A1.721,1.721,0,0,1,50,26.084V13.912a1.72,1.72,0,1,1,3.441,0V26.084A1.721,1.721,0,0,1,51.72,27.8Z" transform="translate(-50 -12.192)" fill="#12263e"/>
          </g>
          <g id="Group_1073427" data-name="Group 1073427" transform="translate(27.203 6)">
            <path id="Path_611351" data-name="Path 611351" d="M48.926,14.767a1.728,1.728,0,0,1-.239-.016A57.448,57.448,0,0,1,30.952,9.26a1.72,1.72,0,1,1,1.535-3.08A53.988,53.988,0,0,0,49.16,11.343a1.72,1.72,0,0,1-.234,3.425Z" transform="translate(-29.999 -6)" fill="#12263e"/>
          </g>
        </g>
        <text id="Políticas_de_usuario" data-name="Políticas de usuario" transform="translate(743 17575)" fill="#12263f" font-size="18" font-family="Roboto-Black, Roboto" font-weight="800"><tspan x="-47.725" y="17">Políticas de </tspan><tspan x="-30.476" y="37">usuario</tspan></text>
        <g id="Ikon" transform="translate(780.389 17519.199)">
          <path id="Path_611352" data-name="Path 611352" d="M33.2,17.4V14.2a11.2,11.2,0,0,0-22.4,0v3.2A4.805,4.805,0,0,0,6,22.2V39.8a4.805,4.805,0,0,0,4.8,4.8H33.2A4.805,4.805,0,0,0,38,39.8V22.2A4.805,4.805,0,0,0,33.2,17.4ZM14,14.2a8,8,0,0,1,16,0v3.2H14ZM34.8,39.8a1.6,1.6,0,0,1-1.6,1.6H10.8a1.6,1.6,0,0,1-1.6-1.6V22.2a1.6,1.6,0,0,1,1.6-1.6H33.2a1.6,1.6,0,0,1,1.6,1.6Z" transform="translate(0 0)" fill="#12263f"/>
          <path id="Path_611353" data-name="Path 611353" d="M17.8,16a4.788,4.788,0,0,0-1.6,9.305V28.8a1.6,1.6,0,0,0,3.2,0V25.305A4.788,4.788,0,0,0,17.8,16Zm0,6.4a1.6,1.6,0,1,1,1.6-1.6A1.6,1.6,0,0,1,17.8,22.4Z" transform="translate(4.2 7.8)" fill="#12263f"/>
        </g>
      </g>
      <g id="Group_872027" data-name="Group 872027" transform="translate(1304.61 17634.393)">
        <path id="Path_214670" data-name="Path 214670" d="M0,0H7.72l7.72,10.39H7.72Z" transform="translate(0 73.338) rotate(-90)" fill="#3ae3fe"/>
        <path id="Path_214675" data-name="Path 214675" d="M0,0H7.72l7.72,10.39H7.72Z" transform="translate(0 38.599) rotate(-90)" fill="#3ae3fe"/>
        <path id="Path_214671" data-name="Path 214671" d="M0,0H7.72l7.72,10.39H7.72Z" transform="translate(0 61.758) rotate(-90)" fill="#3ae3fe"/>
        <path id="Path_214674" data-name="Path 214674" d="M0,0H7.72l7.72,10.39H7.72Z" transform="translate(0 27.019) rotate(-90)" fill="#3ae3fe"/>
        <path id="Path_214672" data-name="Path 214672" d="M0,0H7.72l7.72,10.39H7.72Z" transform="translate(0 50.178) rotate(-90)" fill="#3ae3fe"/>
        <path id="Path_214673" data-name="Path 214673" d="M0,0H7.72l7.72,10.39H7.72Z" transform="translate(0 15.44) rotate(-90)" fill="#3ae3fe"/>
      </g>
      <g id="Group_872028" data-name="Group 872028" transform="translate(285 17345.785)">
        <path id="Path_214670-2" data-name="Path 214670" d="M0,0H7.72l7.72,10.39H7.72Z" transform="translate(0 73.338) rotate(-90)" fill="#03386e"/>
        <path id="Path_214675-2" data-name="Path 214675" d="M0,0H7.72l7.72,10.39H7.72Z" transform="translate(0 38.599) rotate(-90)" fill="#03386e"/>
        <path id="Path_214671-2" data-name="Path 214671" d="M0,0H7.72l7.72,10.39H7.72Z" transform="translate(0 61.758) rotate(-90)" fill="#03386e"/>
        <path id="Path_214674-2" data-name="Path 214674" d="M0,0H7.72l7.72,10.39H7.72Z" transform="translate(0 27.019) rotate(-90)" fill="#03386e"/>
        <path id="Path_214672-2" data-name="Path 214672" d="M0,0H7.72l7.72,10.39H7.72Z" transform="translate(0 50.178) rotate(-90)" fill="#03386e"/>
        <path id="Path_214673-2" data-name="Path 214673" d="M0,0H7.72l7.72,10.39H7.72Z" transform="translate(0 15.44) rotate(-90)" fill="#03386e"/>
      </g>
      <g id="Group_1073456" data-name="Group 1073456" transform="translate(0 -8)">
        <rect id="Rectangle_292178-2" data-name="Rectangle 292178" width="1030" height="400" transform="translate(1315 17754) rotate(180)" fill="url(#linear-gradient)"/>
        <g id="Mask_Group_154272-2" data-name="Mask Group 154272" transform="translate(556.903 17355.49)" clip-path="url(#clip-path)">
          <g id="Group_871226-2" data-name="Group 871226" transform="translate(12.899 -1.311)" style="isolation: isolate">
            <path id="Path_216669-2" data-name="Path 216669" d="M-9641.418-12348.876s114.807,47.017,123.326-57.368,24.5-253.507-54.32-256.7-262.026,85.209-273.742,155.513S-9641.418-12348.876-9641.418-12348.876Z" transform="translate(9888.991 12690.016)" fill="#e1efe3"/>
            <path id="Path_216670-2" data-name="Path 216670" d="M198.934,304.566s111.3,45.581,119.565-55.617S342.248,3.179,265.833.082,11.8,82.691.445,150.848,198.934,304.566,198.934,304.566Z" transform="matrix(0.946, -0.326, 0.326, 0.946, 0, 106.01)" fill="#eaeff3"/>
          </g>
        </g>
        <g id="Group_871214-2" data-name="Group 871214" transform="translate(629.369 17379.777)">
          <g id="Group_871213-2" data-name="Group 871213" transform="translate(0)" clip-path="url(#clip-path-2)">
            <path id="Path_216649-2" data-name="Path 216649" d="M111.362,129.833,146.9,108.6a50.39,50.39,0,0,1,16.244-6.2V.631a50.377,50.377,0,0,0-16.112,6.178L26.312,78.938a53.036,53.036,0,0,0-13.733,11.82l85.61,50.218a53.079,53.079,0,0,1,13.173-11.143" transform="translate(0.125 0.006)" fill="#f33"/>
            <path id="Path_216650-2" data-name="Path 216650" d="M111.362,129.833,146.9,108.6a50.39,50.39,0,0,1,16.244-6.2V.631a50.377,50.377,0,0,0-16.112,6.178L26.312,78.938a53.036,53.036,0,0,0-13.733,11.82l85.61,50.218A53.079,53.079,0,0,1,111.362,129.833Z" transform="translate(0.125 0.006)" fill="none"/>
            <path id="Path_216651-2" data-name="Path 216651" d="M85.55,218.509V174.482a53.076,53.076,0,0,1,3.076-17.774L3.281,106.642A53.048,53.048,0,0,0,.5,123.587V269.4a53.035,53.035,0,0,0,2.534,16.169l85.053-50.891a53.039,53.039,0,0,1-2.537-16.174" transform="translate(0.005 1.06)" fill="#3ae3fe"/>
            <path id="Path_216652-2" data-name="Path 216652" d="M85.55,218.509V174.482a53.076,53.076,0,0,1,3.076-17.774L3.281,106.642A53.048,53.048,0,0,0,.5,123.587V269.4a53.035,53.035,0,0,0,2.534,16.169l85.053-50.891A53.039,53.039,0,0,1,85.55,218.509Z" transform="translate(0.005 1.06)" fill="none"/>
            <path id="Path_216653-2" data-name="Path 216653" d="M146.9,284.014l-35.535-21.232a53.114,53.114,0,0,1-14.235-12.429L12.08,301.245a53.088,53.088,0,0,0,14.237,12.432L147.034,385.8a50.354,50.354,0,0,0,16.113,6.178V290.216a50.4,50.4,0,0,1-16.244-6.2" transform="translate(0.12 2.488)" fill="#8da9c5"/>
            <path id="Path_216654-2" data-name="Path 216654" d="M146.9,284.014l-35.535-21.232a53.114,53.114,0,0,1-14.235-12.429L12.08,301.245a53.088,53.088,0,0,0,14.237,12.432L147.034,385.8a50.354,50.354,0,0,0,16.113,6.178V290.216A50.4,50.4,0,0,1,146.9,284.014Z" transform="translate(0.12 2.488)" fill="none"/>
            <path id="Path_216655-2" data-name="Path 216655" d="M232.626,262.789,197.09,284.021a50.361,50.361,0,0,1-16.244,6.2V392.014a50.361,50.361,0,0,0,16.244-6.2l120.719-72.128a53.105,53.105,0,0,0,15.363-13.9L247.5,249.534a53.117,53.117,0,0,1-14.875,13.255" transform="translate(1.797 2.48)" fill="#add1b3"/>
            <path id="Path_216656-2" data-name="Path 216656" d="M232.626,262.789,197.09,284.021a50.361,50.361,0,0,1-16.244,6.2V392.014a50.361,50.361,0,0,0,16.244-6.2l120.719-72.128a53.105,53.105,0,0,0,15.363-13.9L247.5,249.534A53.117,53.117,0,0,1,232.626,262.789Z" transform="translate(1.797 2.48)" fill="none"/>
            <path id="Path_216657-2" data-name="Path 216657" d="M257.825,174.5v44.027a53,53,0,0,1-2.219,15.164l85.408,50.1a53.027,53.027,0,0,0,1.993-14.372V123.6a53.1,53.1,0,0,0-3.293-18.391l-85.162,50.954a53.055,53.055,0,0,1,3.273,18.332" transform="translate(2.529 1.046)" fill="#eba325"/>
            <path id="Path_216658-2" data-name="Path 216658" d="M257.825,174.5v44.027a53,53,0,0,1-2.219,15.164l85.408,50.1a53.027,53.027,0,0,0,1.993-14.372V123.6a53.1,53.1,0,0,0-3.293-18.391l-85.162,50.954A53.055,53.055,0,0,1,257.825,174.5Z" transform="translate(2.529 1.046)" fill="none"/>
            <path id="Path_216659-2" data-name="Path 216659" d="M317.809,78.938,197.091,6.809a50.37,50.37,0,0,0-16.244-6.2V102.4a50.347,50.347,0,0,1,16.244,6.2l35.536,21.233a53,53,0,0,1,12.783,10.7l85.14-50.943a53.019,53.019,0,0,0-12.74-10.651" transform="translate(1.797 0.006)" fill="#359547"/>
            <path id="Path_216660-2" data-name="Path 216660" d="M317.809,78.938,197.091,6.809a50.37,50.37,0,0,0-16.244-6.2V102.4a50.347,50.347,0,0,1,16.244,6.2l35.536,21.233a53,53,0,0,1,12.783,10.7l85.14-50.943A53.019,53.019,0,0,0,317.809,78.938Z" transform="translate(1.797 0.006)" fill="none"/>
            <path id="Path_216661-2" data-name="Path 216661" d="M111.362,129.833,146.9,108.6a50.39,50.39,0,0,1,16.244-6.2V.631a50.377,50.377,0,0,0-16.112,6.178L26.312,78.938a53.036,53.036,0,0,0-13.733,11.82l85.61,50.218a53.079,53.079,0,0,1,13.173-11.143" transform="translate(0.125 0.006)" fill="#03386e"/>
            <path id="Path_216662-2" data-name="Path 216662" d="M111.362,129.833,146.9,108.6a50.39,50.39,0,0,1,16.244-6.2V.631a50.377,50.377,0,0,0-16.112,6.178L26.312,78.938a53.036,53.036,0,0,0-13.733,11.82l85.61,50.218A53.079,53.079,0,0,1,111.362,129.833Z" transform="translate(0.125 0.006)" fill="none"/>
            <g id="Layer_23-2" data-name="Layer_23" transform="translate(210.392 58.715)">
              <path id="Path_611331-2" data-name="Path 611331" d="M38.918,14.207a15.343,15.343,0,0,0-29.558,0,12.2,12.2,0,0,0,1.393,23.48,1.392,1.392,0,1,0,.577-2.723,9.417,9.417,0,0,1-.456-18.308,1.393,1.393,0,0,0,1-1.044,12.562,12.562,0,0,1,24.528,0,1.393,1.393,0,0,0,1,1.044,9.416,9.416,0,0,1-.456,18.306,1.392,1.392,0,0,0,.286,2.754,1.44,1.44,0,0,0,.291-.031,12.2,12.2,0,0,0,1.392-23.478Z" fill="#fff"/>
              <path id="Path_611332-2" data-name="Path 611332" d="M24.03,22.9V21.034a5.095,5.095,0,1,0-10.19,0V22.9a3.784,3.784,0,0,0-3.213,3.731v5.741a3.793,3.793,0,0,0,3.788,3.788h9.041a3.793,3.793,0,0,0,3.788-3.788V26.627A3.787,3.787,0,0,0,24.03,22.9Zm-5.095-4.172a2.314,2.314,0,0,1,2.312,2.31v1.8H16.623v-1.8a2.314,2.314,0,0,1,2.312-2.31ZM24.46,32.366a1.006,1.006,0,0,1-1.005,1H14.414a1.006,1.006,0,0,1-1.005-1V26.625a1.006,1.006,0,0,1,1.005-1h9.041a1.006,1.006,0,0,1,1.005,1Z" transform="translate(5.204 7.076)" fill="#fff"/>
            </g>
          </g>
        </g>
        <path id="Path_611327-2" data-name="Path 611327" d="M57.042,95.047H55.977a3.561,3.561,0,0,0,.471-1.773v-30a3.588,3.588,0,0,0-3.584-3.584H5.083A3.588,3.588,0,0,0,1.5,63.275v30a3.561,3.561,0,0,0,.471,1.773H.905A.905.905,0,0,0,0,95.952v3.635a4.545,4.545,0,0,0,4.54,4.54H53.407a4.545,4.545,0,0,0,4.54-4.54V95.952a.905.905,0,0,0-.905-.905ZM3.311,93.274v-30A1.775,1.775,0,0,1,5.083,61.5H52.864a1.775,1.775,0,0,1,1.773,1.773v30a1.775,1.775,0,0,1-1.773,1.773H5.083a1.775,1.775,0,0,1-1.773-1.773Zm19.708,3.584h11.91v1.577H23.019Zm33.118,2.729a2.732,2.732,0,0,1-2.729,2.729H4.54c-1.507,0-2.728-1.223-2.729-5.459h19.4v1.791a1.6,1.6,0,0,0,1.6,1.6H35.143c.882,0,1.6-.715,1.6-3.388h19.4ZM5.461,93.8Zm46.12-1.811h0ZM28.652,90.734a.9.9,0,0,0,.643,0A14.611,14.611,0,0,0,37.841,82.6a24.921,24.921,0,0,0,1.594-11.553.905.905,0,0,0-.521-.759L29.356,65.84a.905.905,0,0,0-.765,0l-9.559,4.452a.905.905,0,0,0-.521.759A24.922,24.922,0,0,0,20.107,82.6a14.608,14.608,0,0,0,8.545,8.129ZM20.287,71.706l8.687-4.046,8.687,4.046c.33,6.262-.984,14.085-8.687,17.209C21.271,85.791,19.957,77.968,20.287,71.706Zm15.563,6.175a6.876,6.876,0,1,0-6.876,6.876A6.876,6.876,0,0,0,35.849,77.881Zm-11.94,0a5.065,5.065,0,1,1,5.065,5.065A5.065,5.065,0,0,1,23.909,77.881Zm8.27-1-3.273,3.273a.905.905,0,0,1-1.28,0L25.769,78.3a.906.906,0,1,1,1.28-1.281l1.216,1.216L30.9,75.6a.905.905,0,1,1,1.28,1.281Z" transform="translate(709.251 17379.645)" fill="#fff"/>
        <g id="_01-Internet_Security-2" data-name="01-Internet Security" transform="translate(909.735 17550.816)">
          <path id="Path_611333-2" data-name="Path 611333" d="M25.39,39.551a18.278,18.278,0,0,1-2.849.345v-8.65a18.65,18.65,0,0,1,2.239.237.79.79,0,1,0,.262-1.558,20.215,20.215,0,0,0-2.5-.258V22.535h8.675c-.014.586-.038,1.178-.083,1.775a.79.79,0,1,0,1.575.118c.048-.637.073-1.268.087-1.893h7.916a.79.79,0,0,0,.79-.79A19.751,19.751,0,1,0,8.19,36.085c.007.008.009.019.016.026s.03.018.043.03a19.674,19.674,0,0,0,13.5,5.355,19.911,19.911,0,0,0,3.954-.4.79.79,0,0,0-.315-1.549Zm-8.987-.44a18.156,18.156,0,0,1-6.428-3.543,18.293,18.293,0,0,1,2.857-2,16.353,16.353,0,0,0,3.57,5.547Zm-2.151-6.269a17.911,17.911,0,0,1,6.709-1.6v8.6c-2.725-.433-5.125-3.083-6.709-7.006Zm6.709-3.176a19.5,19.5,0,0,0-7.252,1.686,30.913,30.913,0,0,1-1.428-8.817h8.68Zm1.58-26.024c2.721.433,5.118,3.074,6.7,6.987a18.068,18.068,0,0,1-6.7,1.6Zm4.558.737a18.155,18.155,0,0,1,6.415,3.532,18.182,18.182,0,0,1-2.852,2A16.337,16.337,0,0,0,27.1,4.379Zm-6.138-.737v8.585a18.068,18.068,0,0,1-6.7-1.6C15.843,6.717,18.24,4.075,20.961,3.642ZM12.84,9.907a18.185,18.185,0,0,1-2.852-2A18.156,18.156,0,0,1,16.4,4.379,16.336,16.336,0,0,0,12.84,9.907Zm8.121,3.9v7.148h-8.68a30.9,30.9,0,0,1,1.436-8.839A19.644,19.644,0,0,0,20.961,13.808Zm1.58,0a19.644,19.644,0,0,0,7.244-1.691,30.9,30.9,0,0,1,1.436,8.839h-8.68ZM39.9,20.955H32.8A32.179,32.179,0,0,0,31.223,11.4a19.766,19.766,0,0,0,3.454-2.411A18.11,18.11,0,0,1,39.9,20.955ZM8.825,8.993A19.762,19.762,0,0,0,12.279,11.4,32.179,32.179,0,0,0,10.7,20.955H3.6A18.109,18.109,0,0,1,8.825,8.993ZM3.6,22.535h7.1a32.194,32.194,0,0,0,1.572,9.536,19.855,19.855,0,0,0-3.459,2.416A18.109,18.109,0,0,1,3.6,22.535Zm45.015,4.74a18.457,18.457,0,0,1-9.807-3.01.792.792,0,0,0-.927,0,18.457,18.457,0,0,1-9.807,3.01.79.79,0,0,0-.79.79v7.9c0,9.772,10.709,13.357,10.817,13.392a.79.79,0,0,0,.488,0c.108-.035,10.817-3.62,10.817-13.392v-7.9A.79.79,0,0,0,48.612,27.276Zm-.79,8.69c0,7.839-7.971,11.23-9.481,11.8-1.509-.571-9.481-3.962-9.481-11.8V28.838a20.031,20.031,0,0,0,9.481-2.983,20.03,20.03,0,0,0,9.481,2.983ZM36.762,39.589l6.552-6.552a.79.79,0,1,1,1.117,1.117l-7.11,7.11a.79.79,0,0,1-1.117,0l-3.95-3.95A.79.79,0,1,1,33.37,36.2Z" transform="translate(0 0)" fill="#12263f" stroke="#12263f" stroke-width="0.5"/>
        </g>
        <g id="Group_1073418-2" data-name="Group 1073418" transform="translate(843.423 17666.797)">
          <path id="Path_611334-2" data-name="Path 611334" d="M13.705,8.081h23.38a.8.8,0,0,0,0-1.591H13.705a.8.8,0,1,0,0,1.591Z" transform="translate(-2.328 -1.22)" fill="#12263f" stroke="#12263f" stroke-width="0.4"/>
          <path id="Path_611335-2" data-name="Path 611335" d="M13.705,13.311h9.766a.8.8,0,1,0,0-1.591H13.705a.8.8,0,1,0,0,1.591Z" transform="translate(-2.328 -2.291)" fill="#12263f" stroke="#12263f" stroke-width="0.4"/>
          <path id="Path_611336-2" data-name="Path 611336" d="M20.317,25.265a.8.8,0,0,0-.8-.8H10.845a.8.8,0,1,0,0,1.591h8.676A.8.8,0,0,0,20.317,25.265Z" transform="translate(-1.742 -4.902)" fill="#12263f" stroke="#12263f" stroke-width="0.4"/>
          <path id="Path_611337-2" data-name="Path 611337" d="M10.845,28.06a.8.8,0,1,0,0,1.591h4.764a.8.8,0,1,0,0-1.591Z" transform="translate(-1.742 -5.637)" fill="#12263f" stroke="#12263f" stroke-width="0.4"/>
          <path id="Path_611338-2" data-name="Path 611338" d="M50.782,45.661a.8.8,0,0,0,.8-.8V37.6a2.306,2.306,0,0,0-2.3-2.306h-.334v-3.3A6.951,6.951,0,0,0,42,25.048,6.954,6.954,0,0,0,35.06,31.99v3.3h-.334A2.308,2.308,0,0,0,32.42,37.6v2.5H3.25L6.5,16.666a1.052,1.052,0,0,1,1.034-.9H42.368A1.042,1.042,0,0,1,43.4,16.952l-.851,6.163a.8.8,0,1,0,1.575.223l.851-6.163a2.66,2.66,0,0,0-.62-2.092,2.6,2.6,0,0,0-1.877-.891V10.98a2.128,2.128,0,0,0-2.123-2.123H39.291V3.719A3.194,3.194,0,0,0,36.1.53H10.057A3.194,3.194,0,0,0,6.868,3.719V4.761h-3.2A2.128,2.128,0,0,0,1.54,6.884v34a.716.716,0,0,0,.024.127.683.683,0,0,0,.024.135,1.229,1.229,0,0,0,.1.175.421.421,0,0,0,.048.08c.008.008.016.008.016.016a.856.856,0,0,0,.191.143.559.559,0,0,0,.072.048.846.846,0,0,0,.318.072H32.42v8.191a2.308,2.308,0,0,0,2.306,2.306H49.279a2.306,2.306,0,0,0,2.3-2.306V48.412a.8.8,0,1,0-1.591,0v1.455a.706.706,0,0,1-.708.716H34.726a.713.713,0,0,1-.716-.716V37.6a.713.713,0,0,1,.716-.716H49.279a.7.7,0,0,1,.708.716v7.269a.792.792,0,0,0,.8.8ZM40.34,10.439a.533.533,0,0,1,.533.533v3.2H39.267V10.431H40.34ZM8.451,3.719a1.6,1.6,0,0,1,1.6-1.6H36.07a1.6,1.6,0,0,1,1.6,1.6V14.177H8.451ZM3.663,6.351h3.2v7.921a2.645,2.645,0,0,0-1.94,2.171L3.131,29.374V6.884a.533.533,0,0,1,.533-.533ZM36.65,31.99A5.359,5.359,0,0,1,42,26.638a5.362,5.362,0,0,1,5.352,5.352v3.3h-1.5v-3.3a3.794,3.794,0,0,0-1.121-2.712A3.852,3.852,0,0,0,38.154,32v3.3h-1.5Zm7.611,3.3H39.744v-3.3A2.261,2.261,0,0,1,43.609,30.4a2.238,2.238,0,0,1,.66,1.591v3.3Z" fill="#12263f" stroke="#12263f" stroke-width="0.4"/>
          <path id="Path_611339-2" data-name="Path 611339" d="M51.722,58.455a.8.8,0,0,0,.8-.8V55.536a2.716,2.716,0,1,0-1.583,0V57.66a.781.781,0,0,0,.787.8ZM50.6,52.96a1.125,1.125,0,1,1,1.121,1.121A1.127,1.127,0,0,1,50.6,52.96Z" transform="translate(-9.719 -10.178)" fill="#12263f" stroke="#12263f" stroke-width="0.4"/>
        </g>
        <g id="Group_1073419-2" data-name="Group 1073419" transform="translate(696 17656.859)">
          <path id="Path_611340-2" data-name="Path 611340" d="M11.6,18.133a2.6,2.6,0,0,0-2.6,2.6V46.676a2.6,2.6,0,0,0,2.6,2.6H36.922a.867.867,0,0,0,0-1.733H11.6a.867.867,0,0,1-.867-.867V20.733a.867.867,0,0,1,.867-.867H51.9a.867.867,0,0,1,.867.867V30.859a.867.867,0,0,0,1.733,0V20.733a2.6,2.6,0,0,0-2.6-2.6Z" fill="#12263f" stroke="#12263f" stroke-width="1"/>
          <path id="Path_611341-2" data-name="Path 611341" d="M27.379,55.876a.867.867,0,0,1,1.191,1.259l-9.612,9.094a.867.867,0,1,1-1.191-1.259Z" transform="translate(-4.814 -21.253)" fill="#12263f" stroke="#12263f" stroke-width="1"/>
          <path id="Path_611342-2" data-name="Path 611342" d="M17.7,25.578a.927.927,0,0,1,1.259,0L34.5,40.275a2.78,2.78,0,0,0,3.778,0l15.536-14.7a.926.926,0,0,1,1.259,0,.81.81,0,0,1,0,1.191l-15.535,14.7a4.633,4.633,0,0,1-6.3,0L17.7,26.77a.811.811,0,0,1,0-1.191Z" transform="translate(-4.783 -4.079)" fill="#12263f" stroke="#12263f" stroke-width="1"/>
          <path id="Path_611343-2" data-name="Path 611343" d="M93.734,58.2v5.2h1.3a1.733,1.733,0,0,1,1.733,1.733V75.967A1.733,1.733,0,0,1,95.034,77.7h-14.3A1.733,1.733,0,0,1,79,75.967V65.133A1.733,1.733,0,0,1,80.733,63.4h1.3V58.2a5.2,5.2,0,0,1,5.2-5.2h1.3A5.2,5.2,0,0,1,93.734,58.2Zm-9.967,5.2V58.2a3.467,3.467,0,0,1,3.467-3.467h1.3A3.467,3.467,0,0,1,92,58.2v5.2ZM95.034,75.967V65.133h-14.3V75.967Z" transform="translate(-39.666 -19.758)" fill="#12263f" stroke="#12263f" stroke-width="1" fill-rule="evenodd"/>
        </g>
        <g id="Group_1073428-2" data-name="Group 1073428" transform="translate(645.148 17546.789)">
          <g id="Group_1073420-2" data-name="Group 1073420" transform="translate(25.147 18.227)">
            <path id="Path_611344-2" data-name="Path 611344" d="M29.328,34.8a1.72,1.72,0,0,1-1.216-2.937L39.262,20.717a1.72,1.72,0,0,1,2.433,2.433L30.545,34.3a1.712,1.712,0,0,1-1.216.5Z" transform="translate(-27.608 -20.213)" fill="#12263e"/>
          </g>
          <g id="Group_1073421-2" data-name="Group 1073421" transform="translate(19.526 23.756)">
            <path id="Path_611345-2" data-name="Path 611345" d="M28.415,35.7a1.714,1.714,0,0,1-1.216-.5l-5.621-5.62a1.72,1.72,0,0,1,2.433-2.433l5.621,5.62A1.72,1.72,0,0,1,28.415,35.7Z" transform="translate(-21.074 -26.641)" fill="#12263e"/>
          </g>
          <g id="Group_1073422-2" data-name="Group 1073422" transform="translate(10 23.498)">
            <path id="Path_611346-2" data-name="Path 611346" d="M28.925,53.575a1.733,1.733,0,0,1-.539-.087A26.726,26.726,0,0,1,10,28.061a1.72,1.72,0,1,1,3.441,0A23.291,23.291,0,0,0,29.463,50.22a1.721,1.721,0,0,1-.539,3.355Z" transform="translate(-10 -26.341)" fill="#12263e"/>
          </g>
          <g id="Group_1073423-2" data-name="Group 1073423" transform="translate(10 11.326)">
            <path id="Path_611347-2" data-name="Path 611347" d="M11.72,27.8A1.721,1.721,0,0,1,10,26.084V13.912a1.72,1.72,0,1,1,3.441,0V26.084A1.721,1.721,0,0,1,11.72,27.8Z" transform="translate(-10 -12.192)" fill="#12263e"/>
          </g>
          <g id="Group_1073424-2" data-name="Group 1073424" transform="translate(10 6)">
            <path id="Path_611348-2" data-name="Path 611348" d="M11.719,14.767a1.72,1.72,0,0,1-.235-3.425A53.965,53.965,0,0,0,28.158,6.181a1.72,1.72,0,0,1,1.535,3.08,57.448,57.448,0,0,1-17.735,5.491,1.725,1.725,0,0,1-.238.016Z" transform="translate(-10 -6)" fill="#12263e"/>
          </g>
          <g id="Group_1073425-2" data-name="Group 1073425" transform="translate(27.204 23.498)">
            <path id="Path_611349-2" data-name="Path 611349" d="M31.72,53.575a1.721,1.721,0,0,1-.539-3.355A23.289,23.289,0,0,0,47.2,28.061a1.72,1.72,0,1,1,3.441,0A26.726,26.726,0,0,1,32.259,53.488,1.7,1.7,0,0,1,31.72,53.575Z" transform="translate(-30 -26.341)" fill="#12263e"/>
          </g>
          <g id="Group_1073426-2" data-name="Group 1073426" transform="translate(44.409 11.326)">
            <path id="Path_611350-2" data-name="Path 611350" d="M51.72,27.8A1.721,1.721,0,0,1,50,26.084V13.912a1.72,1.72,0,1,1,3.441,0V26.084A1.721,1.721,0,0,1,51.72,27.8Z" transform="translate(-50 -12.192)" fill="#12263e"/>
          </g>
          <g id="Group_1073427-2" data-name="Group 1073427" transform="translate(27.203 6)">
            <path id="Path_611351-2" data-name="Path 611351" d="M48.926,14.767a1.728,1.728,0,0,1-.239-.016A57.448,57.448,0,0,1,30.952,9.26a1.72,1.72,0,1,1,1.535-3.08A53.988,53.988,0,0,0,49.16,11.343a1.72,1.72,0,0,1-.234,3.425Z" transform="translate(-29.999 -6)" fill="#12263e"/>
          </g>
        </g>
        <text id="Políticas_de_usuario-2" data-name="Políticas de usuario" transform="translate(743 17575)" fill="#12263f" font-size="18" font-family="Roboto-Black, Roboto" font-weight="800"><tspan x="-47.725" y="17">Políticas de </tspan><tspan x="-30.476" y="37">usuario</tspan></text>
        <g id="Ikon-2" data-name="Ikon" transform="translate(780.389 17519.199)">
          <path id="Path_611352-2" data-name="Path 611352" d="M33.2,17.4V14.2a11.2,11.2,0,0,0-22.4,0v3.2A4.805,4.805,0,0,0,6,22.2V39.8a4.805,4.805,0,0,0,4.8,4.8H33.2A4.805,4.805,0,0,0,38,39.8V22.2A4.805,4.805,0,0,0,33.2,17.4ZM14,14.2a8,8,0,0,1,16,0v3.2H14ZM34.8,39.8a1.6,1.6,0,0,1-1.6,1.6H10.8a1.6,1.6,0,0,1-1.6-1.6V22.2a1.6,1.6,0,0,1,1.6-1.6H33.2a1.6,1.6,0,0,1,1.6,1.6Z" transform="translate(0 0)" fill="#12263f"/>
          <path id="Path_611353-2" data-name="Path 611353" d="M17.8,16a4.788,4.788,0,0,0-1.6,9.305V28.8a1.6,1.6,0,0,0,3.2,0V25.305A4.788,4.788,0,0,0,17.8,16Zm0,6.4a1.6,1.6,0,1,1,1.6-1.6A1.6,1.6,0,0,1,17.8,22.4Z" transform="translate(4.2 7.8)" fill="#12263f"/>
        </g>
      </g>
      <g id="Group_1073457" data-name="Group 1073457" transform="translate(1304.61 17634.393)">
        <path id="Path_214670-3" data-name="Path 214670" d="M0,0H7.72l7.72,10.39H7.72Z" transform="translate(0 73.338) rotate(-90)" fill="#3ae3fe"/>
        <path id="Path_214675-3" data-name="Path 214675" d="M0,0H7.72l7.72,10.39H7.72Z" transform="translate(0 38.599) rotate(-90)" fill="#3ae3fe"/>
        <path id="Path_214671-3" data-name="Path 214671" d="M0,0H7.72l7.72,10.39H7.72Z" transform="translate(0 61.758) rotate(-90)" fill="#3ae3fe"/>
        <path id="Path_214674-3" data-name="Path 214674" d="M0,0H7.72l7.72,10.39H7.72Z" transform="translate(0 27.019) rotate(-90)" fill="#3ae3fe"/>
        <path id="Path_214672-3" data-name="Path 214672" d="M0,0H7.72l7.72,10.39H7.72Z" transform="translate(0 50.178) rotate(-90)" fill="#3ae3fe"/>
        <path id="Path_214673-3" data-name="Path 214673" d="M0,0H7.72l7.72,10.39H7.72Z" transform="translate(0 15.44) rotate(-90)" fill="#3ae3fe"/>
      </g>
      <g id="Group_1073458" data-name="Group 1073458" transform="translate(285 17345.785)">
        <path id="Path_214670-4" data-name="Path 214670" d="M0,0H7.72l7.72,10.39H7.72Z" transform="translate(0 73.338) rotate(-90)" fill="#03386e"/>
        <path id="Path_214675-4" data-name="Path 214675" d="M0,0H7.72l7.72,10.39H7.72Z" transform="translate(0 38.599) rotate(-90)" fill="#03386e"/>
        <path id="Path_214671-4" data-name="Path 214671" d="M0,0H7.72l7.72,10.39H7.72Z" transform="translate(0 61.758) rotate(-90)" fill="#03386e"/>
        <path id="Path_214674-4" data-name="Path 214674" d="M0,0H7.72l7.72,10.39H7.72Z" transform="translate(0 27.019) rotate(-90)" fill="#03386e"/>
        <path id="Path_214672-4" data-name="Path 214672" d="M0,0H7.72l7.72,10.39H7.72Z" transform="translate(0 50.178) rotate(-90)" fill="#03386e"/>
        <path id="Path_214673-4" data-name="Path 214673" d="M0,0H7.72l7.72,10.39H7.72Z" transform="translate(0 15.44) rotate(-90)" fill="#03386e"/>
      </g>
    </g>
    <g id="Group_1073407" data-name="Group 1073407" transform="translate(869.645 4577.322)">
      <path id="Path_194909" data-name="Path 194909" d="M22.678,0A22.678,22.678,0,1,0,45.356,22.678,22.678,22.678,0,0,0,22.678,0Z" transform="translate(0 0)" fill="#eeac3a" opacity="0.28"/>
      <path id="Path_191051" data-name="Path 191051" d="M13.9,0A13.9,13.9,0,1,0,27.8,13.9,13.9,13.9,0,0,0,13.9,0Z" transform="translate(8.946 9.117)" fill="#eeac3a"/>
      <text id="_" data-name="+" transform="matrix(-1, 0, 0, 1, 28.702, 29.235)" fill="#12263f" font-size="20" font-family="Roboto-Bold, Roboto" font-weight="700"><tspan x="0" y="0">+</tspan></text>
    </g>
    <g id="Group_1073412" data-name="Group 1073412" transform="translate(685 4577.322)">
      <path id="Path_194909-2" data-name="Path 194909" d="M22.678,0A22.678,22.678,0,1,1,0,22.678,22.678,22.678,0,0,1,22.678,0Z" transform="translate(0 0)" fill="#eeac3a" opacity="0.28"/>
      <path id="Path_191051-2" data-name="Path 191051" d="M13.9,0A13.9,13.9,0,1,1,0,13.9,13.9,13.9,0,0,1,13.9,0Z" transform="translate(8.613 9.117)" fill="#eeac3a"/>
      <text id="_2" data-name="+" transform="translate(16.654 29.235)" fill="#12263f" font-size="20" font-family="Roboto-Bold, Roboto" font-weight="700"><tspan x="0" y="0">+</tspan></text>
    </g>
    <g id="Group_1073409" data-name="Group 1073409" transform="translate(869.645 4889.322)">
      <path id="Path_194909-3" data-name="Path 194909" d="M22.678,0A22.678,22.678,0,1,0,45.356,22.678,22.678,22.678,0,0,0,22.678,0Z" transform="translate(0 0)" fill="#eeac3a" opacity="0.28"/>
      <path id="Path_191051-3" data-name="Path 191051" d="M13.9,0A13.9,13.9,0,1,0,27.8,13.9,13.9,13.9,0,0,0,13.9,0Z" transform="translate(8.946 9.117)" fill="#eeac3a"/>
      <text id="_3" data-name="+" transform="matrix(-1, 0, 0, 1, 28.702, 29.235)" fill="#12263f" font-size="20" font-family="Roboto-Bold, Roboto" font-weight="700"><tspan x="0" y="0">+</tspan></text>
    </g>
    <g id="Group_1073410" data-name="Group 1073410" transform="translate(685 4889.322)">
      <path id="Path_194909-4" data-name="Path 194909" d="M22.678,0A22.678,22.678,0,1,1,0,22.678,22.678,22.678,0,0,1,22.678,0Z" transform="translate(0 0)" fill="#eeac3a" opacity="0.28"/>
      <path id="Path_191051-4" data-name="Path 191051" d="M13.9,0A13.9,13.9,0,1,1,0,13.9,13.9,13.9,0,0,1,13.9,0Z" transform="translate(8.613 9.117)" fill="#eeac3a"/>
      <text id="_4" data-name="+" transform="translate(16.654 29.235)" fill="#12263f" font-size="20" font-family="Roboto-Bold, Roboto" font-weight="700"><tspan x="0" y="0">+</tspan></text>
    </g>
    <g id="Group_1073408" data-name="Group 1073408" transform="translate(954.645 4740.335)">
      <path id="Path_194909-5" data-name="Path 194909" d="M22.678,0A22.678,22.678,0,1,0,45.356,22.678,22.678,22.678,0,0,0,22.678,0Z" transform="translate(0 0)" fill="#eeac3a" opacity="0.28"/>
      <path id="Path_191051-5" data-name="Path 191051" d="M13.9,0A13.9,13.9,0,1,0,27.8,13.9,13.9,13.9,0,0,0,13.9,0Z" transform="translate(8.946 9.117)" fill="#eeac3a"/>
      <text id="_5" data-name="+" transform="matrix(-1, 0, 0, 1, 28.702, 29.235)" fill="#12263f" font-size="20" font-family="Roboto-Bold, Roboto" font-weight="700"><tspan x="0" y="0">+</tspan></text>
    </g>
    <g id="Group_1073411" data-name="Group 1073411" transform="translate(600 4726.215)">
      <path id="Path_194909-6" data-name="Path 194909" d="M22.678,0A22.678,22.678,0,1,1,0,22.678,22.678,22.678,0,0,1,22.678,0Z" transform="translate(0 0)" fill="#eeac3a" opacity="0.28"/>
      <path id="Path_191051-6" data-name="Path 191051" d="M13.9,0A13.9,13.9,0,1,1,0,13.9,13.9,13.9,0,0,1,13.9,0Z" transform="translate(8.613 9.117)" fill="#eeac3a"/>
      <text id="_6" data-name="+" transform="translate(16.654 29.235)" fill="#12263f" font-size="20" font-family="Roboto-Bold, Roboto" font-weight="700"><tspan x="0" y="0">+</tspan></text>
    </g>
  </g>
</svg>
