<svg xmlns="http://www.w3.org/2000/svg" xmlns:xlink="http://www.w3.org/1999/xlink" width="650" height="636.593" viewBox="0 0 650 636.593">
  <defs>
    <clipPath id="clip-path">
      <rect id="Rectangle_378471" data-name="Rectangle 378471" width="610" height="421.951" fill="none"/>
    </clipPath>
    <clipPath id="clip-path-2">
      <rect id="Rectangle_378450" data-name="Rectangle 378450" width="610" height="359.853" fill="none"/>
    </clipPath>
    <clipPath id="clip-path-5">
      <rect id="Rectangle_378459" data-name="Rectangle 378459" width="31.28" height="118.621" fill="none"/>
    </clipPath>
    <clipPath id="clip-path-6">
      <rect id="Rectangle_378460" data-name="Rectangle 378460" width="14.378" height="79.086" fill="none"/>
    </clipPath>
    <clipPath id="clip-path-7">
      <rect id="Rectangle_378461" data-name="Rectangle 378461" width="54.157" height="20.411" fill="none"/>
    </clipPath>
    <clipPath id="clip-path-9">
      <rect id="Rectangle_378472" data-name="Rectangle 378472" width="632.93" height="3" fill="none"/>
    </clipPath>
  </defs>
  <g id="Group_1073402" data-name="Group 1073402" transform="translate(-475 -744.863)">
    <g id="Group_1073380" data-name="Group 1073380" transform="translate(495 959.505)">
      <g id="Group_1073379" data-name="Group 1073379" clip-path="url(#clip-path)">
        <g id="Group_1073347" data-name="Group 1073347">
          <g id="Group_1073346" data-name="Group 1073346" clip-path="url(#clip-path-2)">
            <path id="Path_611178" data-name="Path 611178" d="M642.586,84.427a5.083,5.083,0,0,1-.728,1.5A6.709,6.709,0,0,1,638.21,88.6a6.807,6.807,0,0,1-3.169.187,6.9,6.9,0,0,1-3.289-1.569,6.918,6.918,0,0,1-2.146-3.4,6.882,6.882,0,0,1,2.948-7.65,6.913,6.913,0,0,1,3.875-1.082,6.9,6.9,0,0,1,3.492,1.044,6.807,6.807,0,0,1,2.223,2.264,6.709,6.709,0,0,1,.911,4.429,5.074,5.074,0,0,1-.47,1.6c-.046-.014.2-.566.32-1.622a6.721,6.721,0,0,0-.994-4.267,6.587,6.587,0,0,0-5.489-3.1,6.6,6.6,0,0,0-3.664,1.045,6.534,6.534,0,0,0-2.786,7.231,6.588,6.588,0,0,0,2.014,3.234,6.589,6.589,0,0,0,6.147,1.388,6.725,6.725,0,0,0,3.6-2.5c.62-.862.807-1.438.85-1.418" transform="translate(-45.074 -5.377)" fill="#e0e0e0"/>
            <path id="Path_611179" data-name="Path 611179" d="M648.027,89.9a1.487,1.487,0,0,1,.236.02l.714.089,2.819.378-.067.039,2.227-5.88.037.117-3.164-2.1-.057-.038.007-.069a15.356,15.356,0,0,0-.115-4.066l-.012-.075.061-.046,3.041-2.28-.044.167q-1.21-2.713-2.562-5.741l.168.087-3.727.744-.095.019-.061-.076a15.326,15.326,0,0,0-2.942-2.792l-.082-.059.014-.1c.169-1.165.355-2.45.544-3.759l.109.186-5.869-2.254.214-.068L637.309,65.5l-.062.092-.11-.012a15.335,15.335,0,0,0-4.048.106l-.112.018-.068-.091-2.273-3.047.229.06-5.747,2.552.11-.214c.233,1.178.484,2.449.736,3.729l.023.115-.092.073a15.258,15.258,0,0,0-2.789,2.928v0h0l-.186.078h0l-.007,0-.015,0-.03,0-.059-.008-.118-.017-.237-.035-.473-.069-.942-.138-1.874-.274.208-.122q-1.146,2.975-2.262,5.867l-.071-.228q1.592,1.069,3.155,2.117l.1.064-.013.114a15.2,15.2,0,0,0,.1,4.048l.018.112-.091.068-3.049,2.269.058-.223q1.3,2.944,2.544,5.749l-.2-.1,3.729-.731.1-.02.065.082a15.206,15.206,0,0,0,2.932,2.8l.082.06-.015.1L626,97.12l-.1-.174,5.862,2.275-.176.056c.747-1.108,1.448-2.148,2.123-3.151l.047-.07.083.009a15.367,15.367,0,0,0,4.063-.091l.077-.012.045.061,2.261,3.055-.138-.036,5.759-2.524-.05.1-.711-3.733-.008-.037.029-.023a15.921,15.921,0,0,0,2.218-2.138l.486-.589a1.569,1.569,0,0,1,.162-.193,1.894,1.894,0,0,1-.137.214c-.1.136-.247.344-.461.609a14.954,14.954,0,0,1-2.188,2.195l.021-.061c.208,1.017.457,2.236.76,3.724l.013.068-.063.029-5.736,2.574-.084.037-.055-.073-2.281-3.04.123.049a15.507,15.507,0,0,1-4.134.116l.131-.06c-.671,1.005-1.367,2.049-2.107,3.16l-.066.1-.111-.043-5.872-2.249-.12-.045.018-.128c.176-1.221.357-2.47.542-3.76l.068.161a15.57,15.57,0,0,1-3.005-2.855l.169.062-3.728.74-.139.028-.059-.131q-1.245-2.8-2.555-5.744l-.059-.135.118-.088,3.045-2.274-.072.18a15.594,15.594,0,0,1-.107-4.148l.083.178-3.156-2.114-.127-.085.055-.143q1.114-2.892,2.26-5.868l.056-.144.152.022,1.874.274.942.137.473.07.237.034.119.017.058.009.03,0,.015,0h.011l-.184.077h0l0,0a15.592,15.592,0,0,1,2.86-3l-.069.188c-.253-1.28-.5-2.552-.734-3.729l-.03-.151.14-.062,5.749-2.547.138-.062.091.122,2.268,3.05-.179-.073a15.722,15.722,0,0,1,4.147-.1l-.173.081,2.119-3.153.081-.12.134.052L645.2,64.34l.129.05-.02.136c-.193,1.308-.383,2.593-.555,3.757l-.067-.159a15.579,15.579,0,0,1,3,2.862l-.156-.057,3.73-.729.12-.023.049.111,2.536,5.752.044.1-.088.066-3.054,2.262.049-.122a15.527,15.527,0,0,1,.091,4.13l-.05-.106L654.1,84.5l.065.044-.029.072c-.934,2.384-1.707,4.355-2.295,5.854l-.018.046-.048-.007-2.784-.439-.719-.121a1.808,1.808,0,0,1-.248-.05" transform="translate(-44.167 -4.442)" fill="#e0e0e0"/>
            <path id="Path_611180" data-name="Path 611180" d="M606.4,48.493a24.328,24.328,0,0,1-4.458,4.683l1.16,5.881-9.067,4.022-3.582-4.807a24.339,24.339,0,0,1-6.464.163l-3.338,4.977L571.4,59.844l.866-5.929a24.255,24.255,0,0,1-4.683-4.46l-5.882,1.16L557.68,41.55l4.807-3.583a24.3,24.3,0,0,1-.161-6.464l-4.978-3.337,3.567-9.256,5.93.866A24.269,24.269,0,0,1,571.3,15.1l-1.16-5.883,9.067-4.022L582.791,10a24.339,24.339,0,0,1,6.464-.163l3.338-4.977,9.255,3.567-.867,5.93a24.233,24.233,0,0,1,4.684,4.46l5.882-1.16,4.022,9.066L610.76,30.3a24.345,24.345,0,0,1,.163,6.465L615.9,40.1l-3.567,9.254ZM596.39,38.382a10.64,10.64,0,1,0-13.755,6.1,10.64,10.64,0,0,0,13.755-6.1" transform="translate(-39.917 -0.348)" fill="#ebebeb" fill-rule="evenodd"/>
            <path id="Path_611181" data-name="Path 611181" d="M592.053,144.19a39.076,39.076,0,0,1-7.156,7.515l1.862,9.44L572.207,167.6l-5.748-7.715a39.069,39.069,0,0,1-10.377.262l-5.356,7.989-14.853-5.726,1.39-9.517a38.9,38.9,0,0,1-7.516-7.158l-9.441,1.862-6.455-14.55,7.716-5.749a38.989,38.989,0,0,1-.259-10.376l-7.991-5.355,5.724-14.856,9.518,1.391a38.923,38.923,0,0,1,7.158-7.515l-1.863-9.442,14.552-6.455,5.748,7.718a39.061,39.061,0,0,1,10.376-.262l5.356-7.988,14.855,5.724L583.349,89.4a38.96,38.96,0,0,1,7.517,7.158l9.441-1.862,6.455,14.551-7.717,5.749a39.026,39.026,0,0,1,.261,10.376l7.989,5.356-5.725,14.853Zm-16.072-16.228a17.077,17.077,0,1,0-22.076,9.793,17.078,17.078,0,0,0,22.076-9.793" transform="translate(-36.763 -5.311)" fill="#ebebeb" fill-rule="evenodd"/>
          </g>
        </g>
        <g id="Group_1073363" data-name="Group 1073363">
          <g id="Group_1073385" data-name="Group 1073385">
            <path id="Path_611215" data-name="Path 611215" d="M586.461,284.816a49.542,49.542,0,0,1,47.253-12.969A86.065,86.065,0,0,1,585.9,286.785" transform="translate(-41.962 42.74)" fill="#0c5e46"/>
            <path id="Path_611216" data-name="Path 611216" d="M603.736,221.742c-1.969-13.924,3.442-29.587,13.868-39.709.344,13.8-5.482,29.328-13.868,39.709" transform="translate(-43.21 49.061)" fill="#0c5e46"/>
            <path id="Path_611217" data-name="Path 611217" d="M594.777,250.62a74.351,74.351,0,0,1,34.147-32.634,46.922,46.922,0,0,1-34.275,32.782" transform="translate(-42.588 46.486)" fill="#0c5e46"/>
            <path id="Path_611218" data-name="Path 611218" d="M592.928,257.451c8.41.236,16.921-.059,25.054-2.212s15.923-6.288,21.335-12.73a83.726,83.726,0,0,0-46.264,14.123" transform="translate(-42.465 44.729)" fill="#0c5e46"/>
            <path id="Path_611219" data-name="Path 611219" d="M595.665,237.817c-4.269-16-11.312-27.067-23.887-36.033a33.275,33.275,0,0,0,23.887,36.033" transform="translate(-40.933 47.646)" fill="#0c5e46"/>
            <path id="Path_611220" data-name="Path 611220" d="M563.331,268.626a23.686,23.686,0,0,1,14.387-21.935c-.7,8.262-7.188,17.819-14.387,21.935" transform="translate(-40.345 44.43)" fill="#0c5e46"/>
            <path id="Path_611221" data-name="Path 611221" d="M557.22,253.466a35.289,35.289,0,0,0-23.118-30.1c2.9,13.371,10.636,24.5,23.118,30.1" transform="translate(-38.252 46.101)" fill="#0c5e46"/>
            <path id="Path_611222" data-name="Path 611222" d="M563.347,280.824c-2.966-4.243-7.806-6.881-12.813-8.191s-10.24-1.426-15.415-1.535a36.037,36.037,0,0,0,27.835,11.593" transform="translate(-38.325 42.682)" fill="#0c5e46"/>
            <path id="Path_611223" data-name="Path 611223" d="M568.28,318.174a39.488,39.488,0,0,0-48.22,22.843c17.517-3.325,34.8-11.1,48.22-22.843" transform="translate(-37.246 39.434)" fill="#0c5e46"/>
            <path id="Path_611224" data-name="Path 611224" d="M592.578,305.541c-2.91,8.6-2.352,19,4.117,26.411a31.559,31.559,0,0,0-4.117-26.411" transform="translate(-42.32 40.215)" fill="#0c5e46"/>
            <path id="Path_611225" data-name="Path 611225" d="M604.946,300.4a32.357,32.357,0,0,0,17.872,26.256,2.016,2.016,0,0,0,1.58.26c.788-.321.86-1.4.763-2.243-1.267-11.019-9.431-21.677-20.215-24.273" transform="translate(-43.326 40.584)" fill="#0c5e46"/>
            <path id="Path_611226" data-name="Path 611226" d="M612.941,299.1a26.535,26.535,0,0,0,38.765.2c-12.322-1.348-26.54-2.248-38.765-.2" transform="translate(-43.898 40.763)" fill="#0c5e46"/>
            <path id="Path_611227" data-name="Path 611227" d="M612.023,193.087a2.232,2.232,0,0,1-.113.361l-.375,1.042c-.349.936-.848,2.276-1.486,3.99-.664,1.726-1.428,3.855-2.315,6.326q-.668,1.855-1.427,3.957-.73,2.111-1.539,4.457c-2.184,6.239-4.607,13.728-7.224,22.067-2.57,8.353-5.269,17.575-7.923,27.3-2.62,9.742-4.942,19.069-6.918,27.583-1.92,8.526-3.571,16.223-4.764,22.725q-.46,2.434-.875,4.633-.373,2.2-.7,4.146c-.447,2.587-.829,4.816-1.085,6.646-.278,1.809-.495,3.221-.646,4.207-.076.463-.136.825-.18,1.094a2.307,2.307,0,0,1-.077.37,2.149,2.149,0,0,1,.03-.377c.033-.269.076-.634.133-1.1.132-.99.319-2.408.559-4.222.229-1.835.585-4.07,1.007-6.663q.313-1.947.668-4.155.4-2.2.842-4.642c1.152-6.514,2.771-14.223,4.669-22.76,1.955-8.525,4.265-17.861,6.887-27.61,2.656-9.735,5.37-18.959,7.963-27.31,2.641-8.336,5.1-15.819,7.324-22.048l1.572-4.448q.776-2.094,1.462-3.946c.91-2.465,1.7-4.584,2.39-6.3l1.569-3.96c.178-.434.316-.773.42-1.025a2.21,2.21,0,0,1,.158-.343" transform="translate(-41.136 48.269)" fill="#263238"/>
            <path id="Path_611228" data-name="Path 611228" d="M542.024,231.052a1.339,1.339,0,0,1,.213.2l.59.619c.514.548,1.26,1.368,2.19,2.451A86.287,86.287,0,0,1,552.271,244a64.991,64.991,0,0,1,7.586,16.229c2.032,6.461,3.294,13.8,4.55,21.478,2.506,15.365,5.58,29.125,7.8,39.079,1.122,4.953,2.031,8.97,2.669,11.783.3,1.369.541,2.444.71,3.208.071.348.129.624.174.837a1.292,1.292,0,0,1,.043.289,1.385,1.385,0,0,1-.09-.278l-.219-.826c-.189-.759-.456-1.827-.8-3.187-.671-2.806-1.631-6.812-2.815-11.75-2.309-9.936-5.437-23.7-7.945-39.077-1.256-7.676-2.5-15-4.5-21.427a65.676,65.676,0,0,0-7.452-16.179,92.942,92.942,0,0,0-7.114-9.733c-.907-1.1-1.63-1.938-2.121-2.507l-.553-.65a1.285,1.285,0,0,1-.177-.233" transform="translate(-38.819 45.55)" fill="#263238"/>
            <path id="Path_611229" data-name="Path 611229" d="M614.107,298.626a1.633,1.633,0,0,1-.444.082l-1.276.14-.922.091-1.09.163c-.782.116-1.674.231-2.645.447l-1.53.3-1.639.415c-1.14.257-2.318.675-3.574,1.054a52.589,52.589,0,0,0-7.8,3.438,44.1,44.1,0,0,0-7,4.86,35.046,35.046,0,0,0-2.684,2.576,28.042,28.042,0,0,0-2.123,2.45,25.732,25.732,0,0,0-1.573,2.167,16,16,0,0,0-1.077,1.714l-.654,1.1a1.616,1.616,0,0,1-.257.371,1.676,1.676,0,0,1,.173-.414c.157-.312.347-.692.578-1.15a14.083,14.083,0,0,1,1.016-1.767,23.613,23.613,0,0,1,1.529-2.227,26.771,26.771,0,0,1,2.1-2.514,33.746,33.746,0,0,1,2.684-2.637,42.552,42.552,0,0,1,7.053-4.944,50.162,50.162,0,0,1,7.892-3.438c1.271-.371,2.464-.778,3.617-1.021l1.658-.392,1.546-.277c.982-.2,1.884-.289,2.673-.38l1.1-.126.929-.049,1.286-.054a1.6,1.6,0,0,1,.449.014" transform="translate(-41.383 40.712)" fill="#263238"/>
            <path id="Path_611230" data-name="Path 611230" d="M618.826,231.37a6.153,6.153,0,0,1-.888.855l-2.536,2.2c-2.154,1.842-5.153,4.362-8.483,7.123s-6.363,5.242-8.572,7.018l-2.631,2.084a6.18,6.18,0,0,1-1.005.714,6.266,6.266,0,0,1,.89-.858c.668-.579,1.52-1.317,2.536-2.2,2.155-1.842,5.152-4.361,8.481-7.121s6.358-5.238,8.568-7.014l2.632-2.085a6.17,6.17,0,0,1,1.007-.716" transform="translate(-42.593 45.527)" fill="#263238"/>
            <path id="Path_611231" data-name="Path 611231" d="M621.709,248.927c.037.125-6.433,2.146-14.449,4.515s-14.547,4.188-14.584,4.063,6.432-2.146,14.45-4.516,14.546-4.187,14.583-4.063" transform="translate(-42.447 44.27)" fill="#263238"/>
            <path id="Path_611232" data-name="Path 611232" d="M596.861,240.16a5.346,5.346,0,0,1-.667-.929c-.456-.694-1.027-1.563-1.706-2.6-1.447-2.188-3.5-5.174-5.929-8.353s-4.772-5.946-6.5-7.924l-2.049-2.338a5.4,5.4,0,0,1-.716-.892,5.239,5.239,0,0,1,.849.767c.526.513,1.266,1.278,2.162,2.24,1.793,1.925,4.181,4.67,6.623,7.861s4.456,6.219,5.835,8.459c.689,1.12,1.228,2.038,1.582,2.683a5.309,5.309,0,0,1,.511,1.024" transform="translate(-41.489 46.547)" fill="#263238"/>
            <path id="Path_611233" data-name="Path 611233" d="M573.254,251.682a21.3,21.3,0,0,1-1.518,2.5c-.967,1.519-2.278,3.632-3.637,6.018s-2.5,4.594-3.315,6.2a21.349,21.349,0,0,1-1.37,2.58,15.541,15.541,0,0,1,1.069-2.724c.737-1.649,1.843-3.892,3.207-6.291s2.728-4.493,3.769-5.97a15.568,15.568,0,0,1,1.794-2.311" transform="translate(-40.351 44.072)" fill="#263238"/>
            <path id="Path_611234" data-name="Path 611234" d="M563.954,281.43c-.033.064-1.267-.539-3.288-1.448s-4.84-2.1-8.028-3.216-6.136-1.945-8.282-2.493-3.487-.848-3.473-.918a3.809,3.809,0,0,1,.963.1c.616.092,1.5.259,2.587.494a72.215,72.215,0,0,1,16.376,5.731c1,.495,1.792.916,2.329,1.228a3.812,3.812,0,0,1,.816.522" transform="translate(-38.738 42.521)" fill="#263238"/>
            <path id="Path_611235" data-name="Path 611235" d="M569.325,318.363a1.424,1.424,0,0,1-.4.136l-1.164.3-4.3.993A141.717,141.717,0,0,0,549.4,323.5a62.343,62.343,0,0,0-13.112,6.16c-1.567,1-2.789,1.88-3.612,2.515a12.608,12.608,0,0,1-1.3.963c-.011-.012.089-.117.289-.305s.494-.47.9-.8a37.9,37.9,0,0,1,3.546-2.651,57.461,57.461,0,0,1,13.14-6.326,117.543,117.543,0,0,1,14.137-3.59l4.335-.847a10.8,10.8,0,0,1,1.6-.253" transform="translate(-38.057 39.297)" fill="#263238"/>
            <path id="Path_611236" data-name="Path 611236" d="M595.6,325.744c-.129.019-.9-4.519-1.72-10.135s-1.383-10.185-1.254-10.2.9,4.518,1.72,10.136,1.383,10.184,1.254,10.2" transform="translate(-42.442 40.225)" fill="#263238"/>
            <path id="Path_611237" data-name="Path 611237" d="M619.289,317.117a23.823,23.823,0,0,1-2.053-2.439c-1.232-1.533-2.938-3.645-4.867-5.941s-3.717-4.34-5.015-5.817a23.65,23.65,0,0,1-2.048-2.443,3.082,3.082,0,0,1,.653.559c.4.381.96.947,1.641,1.659,1.363,1.421,3.195,3.437,5.13,5.739s3.6,4.453,4.769,6.04c.583.794,1.044,1.445,1.351,1.9a3.028,3.028,0,0,1,.438.739" transform="translate(-43.351 40.578)" fill="#263238"/>
            <path id="Path_611238" data-name="Path 611238" d="M555.419,341.163v11.258h2.815l10.007,31.586h22.193l9.694-31.273,3.753-.313V341.163Z" transform="translate(-39.779 37.664)" fill="#12263f"/>
            <path id="Path_611239" data-name="Path 611239" d="M602.221,353.609c0,.13-9.8.236-21.885.236s-21.887-.106-21.887-.236,9.8-.236,21.887-.236,21.885.106,21.885.236" transform="translate(-39.996 36.789)" fill="#455a64"/>
            <path id="Path_611240" data-name="Path 611240" d="M620.062,275.621a8.741,8.741,0,0,1-1.422.384l-3.9.939c-3.283.813-7.791,2.048-12.682,3.689s-9.228,3.389-12.335,4.725l-3.671,1.606a8.968,8.968,0,0,1-1.365.553,8.7,8.7,0,0,1,1.286-.719c.84-.439,2.075-1.038,3.615-1.745a128.031,128.031,0,0,1,25.076-8.433c1.654-.367,3-.636,3.935-.794a8.847,8.847,0,0,1,1.459-.205" transform="translate(-41.875 42.358)" fill="#263238"/>
            <path id="Path_611241" data-name="Path 611241" d="M595.293,372.5c0,.13-6.876.236-15.354.236s-15.355-.106-15.355-.236,6.874-.236,15.355-.236,15.354.106,15.354.236" transform="translate(-40.435 35.436)" fill="#fafafa"/>
            <path id="Path_611242" data-name="Path 611242" d="M596.081,369.69c0,.13-7.286.236-16.272.236s-16.273-.106-16.273-.236,7.284-.236,16.273-.236,16.272.106,16.272.236" transform="translate(-40.36 35.638)" fill="#fafafa"/>
          </g>
        </g>
        <g id="Group_1073365" data-name="Group 1073365">
          <g id="Group_1073364" data-name="Group 1073364" clip-path="url(#clip-path-2)">
            <path id="Path_611243" data-name="Path 611243" d="M503.413,27.286H125.3a11.8,11.8,0,0,0-11.8,11.8V306.155a11.8,11.8,0,0,0,11.8,11.8H270.422s9.231,28.545-19.386,43.315H386.729s-32.309-11.077-24-43.315H503.413a11.8,11.8,0,0,0,11.8-11.8V39.089a11.8,11.8,0,0,0-11.8-11.8" transform="translate(-8.129 -1.954)" fill="#03386e"/>
            <path id="Path_611244" data-name="Path 611244" d="M334.326,309.954c5.143,7.351-2.906,15.4-10.26,10.259a2.605,2.605,0,0,1-.631-.633c-5.129-7.35,2.91-15.389,10.259-10.258a2.573,2.573,0,0,1,.632.632" transform="translate(-23.048 -22.037)" fill="#263238"/>
            <path id="Path_611245" data-name="Path 611245" d="M508.883,269.519H120.189V41.6a9,9,0,0,1,9-9H499.881a9,9,0,0,1,9,9Z" transform="translate(-8.608 -2.335)" fill="#fff"/>
            <path id="Path_611246" data-name="Path 611246" d="M508.907,52.243H120.514V41.054a8.5,8.5,0,0,1,8.5-8.5H501.928a6.979,6.979,0,0,1,6.979,6.978Z" transform="translate(-8.631 -2.332)" fill="#ebebeb"/>
            <path id="Path_611247" data-name="Path 611247" d="M136.366,43.393a2.73,2.73,0,1,1-2.73-2.73,2.731,2.731,0,0,1,2.73,2.73" transform="translate(-9.375 -2.912)" fill="#263238"/>
            <path id="Path_611248" data-name="Path 611248" d="M145.134,43.393a2.73,2.73,0,1,1-2.73-2.73,2.731,2.731,0,0,1,2.73,2.73" transform="translate(-10.003 -2.912)" fill="#263238"/>
            <path id="Path_611249" data-name="Path 611249" d="M153.472,43.393a2.73,2.73,0,1,1-2.73-2.73,2.731,2.731,0,0,1,2.73,2.73" transform="translate(-10.6 -2.912)" fill="#263238"/>
            <path id="Path_611250" data-name="Path 611250" d="M442.136,340.406c0,.125-53.805.227-120.162.227-66.38,0-120.174-.1-120.174-.227s53.794-.227,120.174-.227c66.357,0,120.162.1,120.162.227" transform="translate(-14.453 -24.363)" fill="#263238"/>
            <path id="Path_611251" data-name="Path 611251" d="M489.185,196.8c4.491-2.317,9.78-2.618,14.765-1.795,2.678.443,5.471,1.245,7.294,3.257s2.168,5.553.075,7.281a6.987,6.987,0,0,1-4.6,1.167c-3.9-.045-8.234-.732-11.352,1.615-1.779,1.341-2.963,3.568-5.09,4.226a5.029,5.029,0,0,1-5.533-2.461,8.593,8.593,0,0,1-.625-6.343,9.682,9.682,0,0,1,5.065-6.948" transform="translate(-34.649 -13.936)" fill="#ebebeb"/>
            <path id="Path_611252" data-name="Path 611252" d="M478.317,172.434c2.746,3.922,8.083,2.624,10.558.229s3.52-5.864,4.473-9.172c2.175-7.561,4.369-15.491,2.752-23.19a12.877,12.877,0,0,0-2.962-6.3,6.73,6.73,0,0,0-6.378-2.123c-2.691.711-4.364,3.347-5.573,5.854a55.289,55.289,0,0,0-5.463,23.723c-.013,3.821.437,7.829,2.593,10.984" transform="translate(-34.071 -9.432)" fill="#ebebeb"/>
            <path id="Path_611253" data-name="Path 611253" d="M467.954,179.035c2.982-3.539,3.547-8.7,2.221-13.133s-4.324-8.205-7.779-11.284a41.87,41.87,0,0,0-13.929-8.218,14.853,14.853,0,0,0-6.264-1.065,6.576,6.576,0,0,0-5.257,3.181c-1.466,2.8-.06,6.188,1.459,8.954a106.083,106.083,0,0,0,9.149,13.931c2.742,3.535,5.883,7.023,10.063,8.621s8.521,1.409,10.736-1.489" transform="translate(-31.249 -10.406)" fill="#ebebeb"/>
            <path id="Path_611254" data-name="Path 611254" d="M478.313,236.525a8.607,8.607,0,0,0,.249-1.783c.126-1.3.284-2.926.473-4.864a70.66,70.66,0,0,1,1.095-7.135,55.013,55.013,0,0,1,2.593-8.419,31.043,31.043,0,0,1,4.3-7.619,16.049,16.049,0,0,1,5.436-4.519,15.217,15.217,0,0,1,4.578-1.426,8.586,8.586,0,0,0,1.775-.256,8.3,8.3,0,0,0-1.807-.028,13.866,13.866,0,0,0-4.773,1.242,16.009,16.009,0,0,0-5.735,4.558,30.334,30.334,0,0,0-4.457,7.772,51.483,51.483,0,0,0-2.574,8.558,60.186,60.186,0,0,0-.949,7.225c-.154,2.066-.213,3.738-.24,4.893a8.357,8.357,0,0,0,.037,1.8" transform="translate(-34.253 -14.357)" fill="#e0e0e0"/>
            <path id="Path_611255" data-name="Path 611255" d="M478.648,229.073a3.574,3.574,0,0,0,.048-.827c0-.621,0-1.4-.007-2.365-.006-2.053,0-5.023.1-8.69.182-7.335.813-15.229,2.033-26.359,1.155-10.466,2.705-22.644,4.342-30.563.351-1.8.7-3.421,1.037-4.84.317-1.423.588-2.65.849-3.641.224-.934.407-1.7.552-2.3a3.529,3.529,0,0,0,.145-.816,3.394,3.394,0,0,0-.288.775l-.686,2.266c-.305.983-.617,2.2-.973,3.618-.371,1.413-.761,3.03-1.146,4.829A268.4,268.4,0,0,0,480.1,188.52c-1.222,11.153-1.772,21.307-1.822,28.661-.044,3.676.034,6.653.128,8.706.059.961.107,1.743.145,2.364a3.5,3.5,0,0,0,.1.822" transform="translate(-34.253 -10.648)" fill="#e0e0e0"/>
            <path id="Path_611256" data-name="Path 611256" d="M476.709,209.95a15.774,15.774,0,0,0-.018-2.47c-.091-1.588-.309-3.883-.756-6.693a88.53,88.53,0,0,0-2.177-9.752,79.949,79.949,0,0,0-4.077-11.538,61.483,61.483,0,0,0-11.975-18.647,30.424,30.424,0,0,0-2.818-2.618c-.432-.366-.814-.73-1.2-1.018l-1.093-.754a15.853,15.853,0,0,0-2.08-1.331c-.119.161,2.948,1.964,6.816,6.082a64.741,64.741,0,0,1,11.676,18.579,91.273,91.273,0,0,1,4.1,11.433c1.069,3.583,1.779,6.878,2.316,9.654.51,2.782.8,5.054.983,6.627a15.987,15.987,0,0,0,.3,2.447" transform="translate(-32.265 -11.11)" fill="#e0e0e0"/>
            <path id="Path_611257" data-name="Path 611257" d="M458.339,251.393,460.3,278.28h34.541l1.963-26.887Z" transform="translate(-32.826 -18.005)" fill="#e0e0e0"/>
            <rect id="Rectangle_378457" data-name="Rectangle 378457" width="45.923" height="10.597" transform="translate(422.177 222.791)" fill="#e0e0e0"/>
            <path id="Path_611258" data-name="Path 611258" d="M454.746,279.246v2.937h45.165v-2.937Z" transform="translate(-32.569 -19.999)" fill="#ebebeb"/>
            <path id="Path_611259" data-name="Path 611259" d="M459.185,287.58l-2.115-5.17h41.362l-2.469,5.17Z" transform="translate(-32.735 -20.226)" fill="#e0e0e0"/>
            <path id="Path_611260" data-name="Path 611260" d="M496.209,260.567a1.144,1.144,0,0,1-.162.247l-.515.684-2.013,2.575-.089.114-.086-.12-4.944-6.837h.284l-4.867,6.891-.153.216-.171-.2-5.772-6.867.332,0c-.1.126-.208.263-.318.4l-5.161,6.47-.172.216-.159-.225c-1.753-2.48-3.389-4.8-4.87-6.89l.283.013-6,6.833-.107.121-.081-.136c-.791-1.328-1.421-2.387-1.878-3.155-.2-.342-.355-.619-.482-.84a.167.167,0,1,1,.054-.033l.534.808,1.971,3.1-.188-.016,5.9-6.916.149-.174.135.188,4.913,6.859-.33-.009c1.634-2.056,3.363-4.232,5.149-6.479l.318-.4.164-.206.169.2,5.756,6.881-.323.013c1.776-2.478,3.43-4.785,4.915-6.857l.145-.2.14.2,4.839,6.911-.175,0,2.094-2.509c.227-.264.411-.477.561-.649a1.12,1.12,0,0,1,.207-.21" transform="translate(-32.871 -18.391)" fill="#f5f5f5"/>
            <path id="Path_611261" data-name="Path 611261" d="M497.309,251.185c0,.119-8.654.215-19.329.215s-19.33-.1-19.33-.215,8.653-.215,19.33-.215,19.329.1,19.329.215" transform="translate(-32.848 -17.974)" fill="#f5f5f5"/>
            <path id="Path_611262" data-name="Path 611262" d="M498.929,282.705c0,.119-9.406.215-21.006.215s-21.008-.1-21.008-.215,9.4-.214,21.008-.214,21.006.1,21.006.214" transform="translate(-32.724 -20.232)" fill="#f5f5f5"/>
          </g>
        </g>
        <g id="Group_1073376" data-name="Group 1073376">
          <g id="Group_1073375" data-name="Group 1073375" clip-path="url(#clip-path-2)">
            <path id="Path_611263" data-name="Path 611263" d="M379.829,111.826q-1.478-24.718-4.836-49.273c-1.348-9.857-2.942-19.754-6.341-29.1S359.918,15.276,352.168,9.1,334.06-.309,324.411,1.836L363.6,122.786a27.051,27.051,0,0,0,8.791.187c2.888-.577,5.718-2.292,6.862-5.024a13.689,13.689,0,0,0,.575-6.123" transform="translate(-23.234 -0.084)" fill="#263238"/>
            <path id="Path_611264" data-name="Path 611264" d="M308.5,6.354c-7.511-.58-16.622,2.293-20.889,8.544-3.315,4.858-2.528,13.327-3.668,19.109-1.826,9.263-3.658,18.582-3.892,28.024-.256,10.377,1.423,20.694,3.1,30.936q2.775,16.982,5.552,33.965c.824,5.037,1.68,10.176,4.051,14.689s6.564,8.373,11.6,8.955c4.61.533,9.235-1.8,12.33-5.277s4.839-7.984,5.912-12.53Z" transform="translate(-20.055 -0.45)" fill="#263238"/>
            <path id="Path_611265" data-name="Path 611265" d="M316.5,119.96c-2.244-.111-17.222,3.481-17.222,3.481L316.7,191.673l27.891,2.26,24.765-77.675Z" transform="translate(-21.434 -8.326)" fill="#aa6550"/>
            <path id="Path_611266" data-name="Path 611266" d="M348.723,182.369a29.041,29.041,0,0,1-15.7,9.932,17.428,17.428,0,0,1-10.354-.3c-3.268-1.279-6.034-4.208-6.445-7.715L311.5,198.765l8.459,42.182,13.735,39.334,26.875-.161Z" transform="translate(-22.309 -13.061)" fill="#03386e"/>
            <path id="Path_611267" data-name="Path 611267" d="M233.132,186.289l12-14.511s11.592-37.852,15.08-40.679,35.3-10.812,35.3-10.812l11.326,48.894,5.766,60.173,10.557,23.9,10.377,22.47-36.433.106s-14.867-33.541-22.725-53.05a68.418,68.418,0,0,1-4.729-19.834l-.391-4.652s-23.7,54.831-29.287,58.367-12.558,8.835-20.25,8.506-23.488-23.163-23.488-23.163l-.087-30.506,22.345-9.333,3.869,8.436Z" transform="translate(-14.048 -8.615)" fill="#eba325"/>
            <path id="Path_611268" data-name="Path 611268" d="M339.547,251.606l2.434-5.988,51.573-24.251-1.589-71.816L405.7,120.272s7.8,3.41,12.315,13.475c3.177,7.075,12.363,107.236,7.161,110.361-6.786,4.076-52.433,22.185-67.69,28.2a6.165,6.165,0,0,1-7.614-2.689Z" transform="translate(-24.318 -8.614)" fill="#eba325"/>
            <path id="Path_611269" data-name="Path 611269" d="M399.655,242.88,405.5,119.1l-29.082-5.35-8.387-6.024-6.611.019s2.431,6.3,2.1,11.477-24.272,97.889-24.272,97.889l13.6,57.692,61.486-.189Z" transform="translate(-24.297 -7.715)" fill="#eba325"/>
            <path id="Path_611270" data-name="Path 611270" d="M377.112,114.217a.7.7,0,0,1,.027.175c.012.136.027.306.045.521q.052.728.144,2.033c.106,1.781.236,4.393.3,7.717.166,6.647-.106,16.131-.657,27.444l-.009.19-.19.01-10.948.609.181-.347a29.313,29.313,0,0,0,10.041,9.724l.187.109-.089.2-4.371,9.674c-4.172,9.284-8.057,18.168-11.193,26.406a222.185,222.185,0,0,0-7.328,22.224c-1.721,6.439-2.718,11.745-3.37,15.414l-.653,4.244c-.075.466-.134.832-.177,1.1a2.2,2.2,0,0,1-.077.373,2.166,2.166,0,0,1,.028-.38c.032-.273.075-.641.13-1.109.127-.974.289-2.415.564-4.26.6-3.683,1.543-9.008,3.225-15.471a215.206,215.206,0,0,1,7.241-22.3c3.119-8.26,7-17.159,11.169-26.445,1.5-3.313,2.973-6.571,4.375-9.673l.1.305a29.705,29.705,0,0,1-10.187-9.9l-.2-.328.384-.02,10.95-.577-.2.2c.592-11.311.924-20.778.831-27.42-.029-3.321-.12-5.932-.183-7.714q-.051-1.308-.08-2.036c-.006-.215-.01-.386-.013-.523a.684.684,0,0,1,.006-.177" transform="translate(-24.993 -8.18)" fill="#263238"/>
            <path id="Path_611271" data-name="Path 611271" d="M338.686,268.709s-.139-.054-.4-.181l-1.154-.576c-1.029-.482-2.476-1.32-4.328-2.422-.894-.6-1.909-1.239-2.982-1.992-1.044-.793-2.228-1.592-3.391-2.59a67.338,67.338,0,0,1-7.553-7.141,85.852,85.852,0,0,1-14.72-22.607,126.749,126.749,0,0,1-9.218-31.752c-1.234-7.374-1.948-14.594-2.449-21.464-.247-3.421-.4-6.864.5-10.057a10.931,10.931,0,0,1,5.8-7.264l-.057.355a8.565,8.565,0,0,0-8.091-1.665l-.265.085.008-.278c.343-10.665.627-19.445.823-25.582.111-3.04.2-5.425.258-7.074q.053-1.193.082-1.852c.022-.419.048-.633.048-.633s.014.215.011.634q-.008.661-.025,1.855c-.035,1.65-.086,4.035-.151,7.077-.157,6.138-.382,14.92-.655,25.587l-.255-.191a8.961,8.961,0,0,1,8.489,1.718l.257.221-.313.134c-2.738,1.172-4.683,3.942-5.534,7-.87,3.1-.721,6.488-.468,9.9.511,6.859,1.228,14.064,2.459,21.419a127.4,127.4,0,0,0,9.147,31.648,86.337,86.337,0,0,0,14.566,22.56,68.169,68.169,0,0,0,7.473,7.162c1.149,1,2.321,1.81,3.353,2.612,1.061.761,2.065,1.41,2.949,2.02,1.831,1.123,3.26,1.987,4.272,2.5l1.131.617c.253.142.378.226.378.226" transform="translate(-20.797 -8.882)" fill="#263238"/>
            <path id="Path_611272" data-name="Path 611272" d="M391.652,163.832a1.862,1.862,0,0,1,.03.287c.013.206.032.486.055.849.041.768.1,1.873.177,3.31.142,2.913.348,7.153.61,12.528.494,10.792,1.2,26.14,2.035,44.43l.007.146-.135.059-47.865,21.214-4.592,2.032.125-.13-1,2.457v-.183l9.707,23.59-.1-.11a10.081,10.081,0,0,0,3.987,1.344,3.986,3.986,0,0,0,1.011-.052,6.318,6.318,0,0,0,.978-.325l1.985-.756,7.735-2.962,14.4-5.578c9.086-3.547,17.093-6.735,23.715-9.446s11.858-4.95,15.4-6.6c1.767-.828,3.112-1.5,3.984-2.023a5.842,5.842,0,0,0,.944-.651.727.727,0,0,0,.224-.307.527.527,0,0,1-.2.336,5.289,5.289,0,0,1-.93.69,43.893,43.893,0,0,1-3.959,2.1c-3.521,1.7-8.743,3.977-15.352,6.727s-14.605,5.971-23.682,9.547l-14.388,5.615-7.731,2.977-1.984.759a6.837,6.837,0,0,1-1.051.348,4.436,4.436,0,0,1-1.128.06,10.5,10.5,0,0,1-4.194-1.4l-.065-.035-.032-.075c-3.066-7.437-6.336-15.365-9.725-23.583l-.038-.091.037-.092c.33-.811.661-1.625,1-2.457l.037-.09.089-.04,4.592-2.032,47.887-21.164-.127.205c-.766-18.295-1.409-33.644-1.861-44.438-.21-5.376-.376-9.618-.489-12.533-.049-1.437-.086-2.544-.112-3.312-.009-.364-.016-.644-.02-.85a1.841,1.841,0,0,1,0-.289" transform="translate(-24.395 -11.734)" fill="#263238"/>
            <path id="Path_611273" data-name="Path 611273" d="M408.691,124.064c.065.058-1.03,1.3-2.568,3.471a47.586,47.586,0,0,0-7.977,19.01c-.475,2.619-.6,4.27-.681,4.263a5.317,5.317,0,0,1,.009-1.164,31.02,31.02,0,0,1,.335-3.156,42.755,42.755,0,0,1,8.037-19.154,30.9,30.9,0,0,1,2.019-2.449,5.341,5.341,0,0,1,.825-.822" transform="translate(-28.465 -8.885)" fill="#263238"/>
            <path id="Path_611274" data-name="Path 611274" d="M275.351,163.207a6.581,6.581,0,0,1-.228-1.271c-.109-.821-.3-2.005-.561-3.46a64.892,64.892,0,0,0-8.032-21.529c-.753-1.273-1.388-2.29-1.845-2.981a6.65,6.65,0,0,1-.66-1.109,6.609,6.609,0,0,1,.815,1c.506.66,1.187,1.652,1.982,2.91a57.5,57.5,0,0,1,8.077,21.65c.224,1.471.36,2.667.41,3.5a6.589,6.589,0,0,1,.042,1.291" transform="translate(-18.909 -9.515)" fill="#263238"/>
            <path id="Path_611275" data-name="Path 611275" d="M330.135,193.17a27.43,27.43,0,0,1-.021-7.268,27.427,27.427,0,0,1,.021,7.268" transform="translate(-23.626 -13.314)" fill="#754034"/>
            <g id="Group_1073368" data-name="Group 1073368" transform="translate(324.165 113.775)" opacity="0.3">
              <g id="Group_1073367" data-name="Group 1073367">
                <g id="Group_1073366" data-name="Group 1073366" clip-path="url(#clip-path-5)">
                  <path id="Path_611276" data-name="Path 611276" d="M372.283,154.982l8.17,1.1c-1.757-4.493-1.507-28.747-2.923-33.528l-.754,30.142-10.949.592s4.709,6.321,6.909,7.645a27.813,27.813,0,0,1,3.2,2.166s-15.485,36.192-17.9,42.444c-5.135,13.283-8.866,35.632-8.866,35.632,12.844-22.31,20.3-48.067,27.028-72.948a14.431,14.431,0,0,0,.741-5.923c-.454-2.912-2.608-5.216-4.659-7.319" transform="translate(-349.173 -122.552)"/>
                </g>
              </g>
            </g>
            <g id="Group_1073371" data-name="Group 1073371" transform="translate(267.562 139.865)" opacity="0.3">
              <g id="Group_1073370" data-name="Group 1073370">
                <g id="Group_1073369" data-name="Group 1073369" clip-path="url(#clip-path-6)">
                  <path id="Path_611277" data-name="Path 611277" d="M290.549,161.1c-.149.444.113-10.192.181-10.438s-1.4,12.788-1.653,13.559l4.481-.982a8.866,8.866,0,0,0-4.595,5.6,23.32,23.32,0,0,0-.75,7.418c.3,18.65,4.343,37.806,14.368,53.491-6.549-15.613-8.586-32.725-10.147-49.6-.307-3.321-.568-6.626.362-9.826s3.047-6.607,5.962-7.693c-2.243-1.88-5.4-2.815-8.209-1.525" transform="translate(-288.203 -150.655)"/>
                </g>
              </g>
            </g>
            <g id="Group_1073374" data-name="Group 1073374" transform="translate(327.592 245.214)" opacity="0.3">
              <g id="Group_1073373" data-name="Group 1073373">
                <g id="Group_1073372" data-name="Group 1073372" clip-path="url(#clip-path-7)">
                  <path id="Path_611278" data-name="Path 611278" d="M352.864,282.37c1.176,2.49,5.482,2.317,8.474,1.982a35.292,35.292,0,0,0,8.653-2.511c12.481-4.81,24.548-9.135,37.029-13.945l-1.742-3.765-48.163,18.744a5.09,5.09,0,0,1-4.252-.505" transform="translate(-352.864 -264.131)"/>
                </g>
              </g>
            </g>
            <path id="Path_611279" data-name="Path 611279" d="M214.361,153.812c-2.378-.207-9.43,1.815-11.279,5.13l-3.877,13.013s8.73-8.991,12.749-10.438c6.3-2.266,9.212-2.312,6.473-5.7a5.351,5.351,0,0,0-4.065-2.005" transform="translate(-14.267 -11.015)" fill="#aa6550"/>
            <path id="Path_611280" data-name="Path 611280" d="M175.979,163.832l4.232,9.753,1.3,34.9,21.1-3.117-4.166-34.146,2.081-7.458-8.7-7.349Z" transform="translate(-12.603 -11.202)" fill="#aa6550"/>
            <path id="Path_611283" data-name="Path 611283" d="M260.8,245.606c0,.134-21.568.3-48.168.381s-48.174.031-48.175-.1,21.564-.3,48.173-.381,48.17-.031,48.17.1" transform="translate(-11.778 -17.58)" fill="#ebebeb"/>
            <path id="Path_611284" data-name="Path 611284" d="M260.774,236.513c0,.134-21.568.3-48.168.381s-48.174.031-48.175-.1,21.564-.3,48.173-.381,48.17-.031,48.17.1" transform="translate(-11.776 -16.929)" fill="#ebebeb"/>
            <path id="Path_611285" data-name="Path 611285" d="M260.748,227.421c0,.134-21.568.3-48.168.381s-48.175.031-48.175-.1,21.564-.3,48.173-.381,48.17-.031,48.17.1" transform="translate(-11.775 -16.278)" fill="#ebebeb"/>
            <path id="Path_611286" data-name="Path 611286" d="M260.722,218.329c0,.134-21.568.3-48.168.381s-48.174.031-48.175-.1,21.564-.3,48.173-.381,48.17-.031,48.17.1" transform="translate(-11.773 -15.627)" fill="#ebebeb"/>
            <path id="Path_611287" data-name="Path 611287" d="M260.7,209.236c0,.134-21.568.3-48.168.381s-48.175.031-48.175-.1,21.564-.3,48.173-.381,48.17-.031,48.17.1" transform="translate(-11.771 -14.975)" fill="#ebebeb"/>
            <rect id="Rectangle_378463" data-name="Rectangle 378463" width="6.907" height="13.155" transform="translate(159.183 223.053) rotate(-0.162)" fill="#e8505b"/>
            <rect id="Rectangle_378464" data-name="Rectangle 378464" width="6.908" height="13.155" transform="translate(209.357 222.909) rotate(-0.162)" fill="#e8505b"/>
            <rect id="Rectangle_378465" data-name="Rectangle 378465" width="6.908" height="22.829" transform="translate(172.704 213.34) rotate(-0.162)" fill="#e8505b"/>
            <rect id="Rectangle_378466" data-name="Rectangle 378466" width="6.907" height="28.768" transform="translate(198.002 207.328) rotate(-0.162)" fill="#e8505b"/>
            <rect id="Rectangle_378467" data-name="Rectangle 378467" width="6.907" height="46.246" transform="translate(185.455 189.886) rotate(-0.162)" fill="#e8505b"/>
            <rect id="Rectangle_378468" data-name="Rectangle 378468" width="6.907" height="37.692" transform="translate(222.674 198.332) rotate(-0.162)" fill="#e8505b"/>
            <path id="Path_611290" data-name="Path 611290" d="M249.744,254.174c0,.134-18.958.3-42.339.364s-42.343.014-42.344-.12,18.954-.3,42.343-.364,42.34-.014,42.34.12" transform="translate(-11.822 -18.193)" fill="#263238"/>
            <path id="Path_611291" data-name="Path 611291" d="M208.21,184.107l-2.151,4.543-2.568-4.53-.2-45.038,4.72-.014Z" transform="translate(-14.56 -9.96)" fill="#263238"/>
            <path id="Path_611292" data-name="Path 611292" d="M204.133,138.857s-2.036-4.071-4.286-4.064-5.612,4.093-5.612,4.093-5.181-2.7-6.98-2.018-4.484,5.222-4.484,5.222a13.523,13.523,0,0,0-3.969,2.05c-1.2,1.136-1.41,4.761-1.41,4.761s-3.148.462-3.143,2.275.027,9.288,1.606,11.1,10.373,8.577,13.41,8.342,3.024-4.539,2.346-5.443c0,0,3.608,2.707,5.4.211s.883-6.118.883-6.118,1.385,4.308,4.178,2.4c3.238-2.212.462-6.829.462-6.829s2.331,3.729,3.675,1.913.887-4.76-.02-6.8-2.056-11.093-2.056-11.093" transform="translate(-12.48 -9.654)" fill="#aa6550"/>
            <path id="Path_611293" data-name="Path 611293" d="M189.475,164.428a6.954,6.954,0,0,1-1.4-1.363,38.363,38.363,0,0,1-5.32-7.758,6.9,6.9,0,0,1-.766-1.8c.129-.065,1.515,2.56,3.586,5.568s4.008,5.255,3.9,5.351" transform="translate(-13.033 -10.994)" fill="#754034"/>
            <path id="Path_611294" data-name="Path 611294" d="M199.024,159.78a66.6,66.6,0,0,1-4.938-6.3,66.485,66.485,0,0,1-4.548-6.59,66.8,66.8,0,0,1,4.938,6.3,66.555,66.555,0,0,1,4.548,6.59" transform="translate(-13.574 -10.52)" fill="#754034"/>
            <path id="Path_611295" data-name="Path 611295" d="M204.479,155.568a11.283,11.283,0,0,1-1.21-1.946l-2.71-4.8c-1.022-1.789-1.945-3.408-2.733-4.788A11.6,11.6,0,0,1,196.775,142a10.214,10.214,0,0,1,1.344,1.857c.772,1.185,1.795,2.85,2.86,4.726s1.971,3.607,2.593,4.877a10.374,10.374,0,0,1,.907,2.107" transform="translate(-14.092 -10.17)" fill="#754034"/>
            <path id="Path_611296" data-name="Path 611296" d="M197.708,160.687c.012-.008.077.066.193.221a3.169,3.169,0,0,1,.409.741,4.959,4.959,0,0,1-.925,5.086,3.757,3.757,0,0,1-2.286,1.243,5.09,5.09,0,0,1-2.846-.569,8.106,8.106,0,0,1-2.482-1.922l.342-.327a6.5,6.5,0,0,1,2.134,3.32,3.724,3.724,0,0,1-.141,2.012,2.767,2.767,0,0,1-1.293,1.5,5.12,5.12,0,0,1-3.593.133,17.31,17.31,0,0,1-5.438-2.482,16.521,16.521,0,0,1-3.024-2.657c-.309-.361-.543-.646-.685-.852s-.217-.313-.2-.324a23.72,23.72,0,0,0,4.1,3.549,17.68,17.68,0,0,0,5.355,2.334,4.737,4.737,0,0,0,3.26-.118,2.718,2.718,0,0,0,1.186-3,6.111,6.111,0,0,0-1.984-3.067l.342-.327a6.225,6.225,0,0,0,4.919,2.389,3.4,3.4,0,0,0,2.069-1.082,4.59,4.59,0,0,0,1.044-1.8,4.884,4.884,0,0,0-.008-2.983c-.233-.676-.486-.994-.447-1.019" transform="translate(-12.739 -11.508)" fill="#754034"/>
            <path id="Path_611297" data-name="Path 611297" d="M203.737,154.653a5.422,5.422,0,0,1,1.091,1.888,9.579,9.579,0,0,1,.651,2.3,6.449,6.449,0,0,1-.429,2.923,3.021,3.021,0,0,1-2.153,2.051,2.555,2.555,0,0,1-2.237-.979,5.213,5.213,0,0,1-.811-1.4c-.14-.349-.2-.551-.167-.564s.145.161.335.481a6.8,6.8,0,0,0,.9,1.251,2.257,2.257,0,0,0,1.912.768,2.641,2.641,0,0,0,1.776-1.792,6.358,6.358,0,0,0,.433-2.705,10.921,10.921,0,0,0-.526-2.223c-.421-1.247-.841-1.967-.771-2.006" transform="translate(-14.3 -11.076)" fill="#754034"/>
            <path id="Path_611298" data-name="Path 611298" d="M196.915,172.4a22.878,22.878,0,0,1-3.919,2.56,22.859,22.859,0,0,1-4.162,2.143,22.717,22.717,0,0,1,3.919-2.56,22.823,22.823,0,0,1,4.162-2.143" transform="translate(-13.524 -12.347)" fill="#754034"/>
            <path id="Path_611299" data-name="Path 611299" d="M335.283,256.908l-32.056,9.335-11.716-8s-10.674-3.267-14.144-3.694-9.188-.2-12.966-.191a9.629,9.629,0,0,1-5.7-1.5s-3.3-.12-2.415,4.1c1.1,5.241,13.555,5.2,13.555,5.2l-16.521.047-9.609.028,8.39,5.877a12.721,12.721,0,0,0,7.221,2.306l3.356.021c-.862,4.66.821,7.169,3.891,8.506-2.423,2.276-1.2,6.549,3.546,6.375,2.3-.085,42.518-.035,42.518-.035l34.611-4.919Z" transform="translate(-17.455 -18.11)" fill="#aa6550"/>
            <path id="Path_611300" data-name="Path 611300" d="M271.32,271.455a23.558,23.558,0,0,1-5.393.39,42.648,42.648,0,0,1-5.4-.093,23.623,23.623,0,0,1,5.394-.39,42.838,42.838,0,0,1,5.4.093" transform="translate(-18.659 -19.434)" fill="#754034"/>
            <path id="Path_611301" data-name="Path 611301" d="M281.559,260.742a44.883,44.883,0,0,1-6.462,1.192,44.8,44.8,0,0,1-6.533.715,44.613,44.613,0,0,1,6.462-1.193,44.847,44.847,0,0,1,6.532-.714" transform="translate(-19.234 -18.672)" fill="#754034"/>
            <path id="Path_611302" data-name="Path 611302" d="M287.8,115.435c.246-.122-.127-1.448-.968-3.752s-2.163-5.58-3.627-9.653a90.626,90.626,0,0,1-4.076-14.484,48.552,48.552,0,0,1-.063-18c1.167-6.362,3.225-12.339,4.9-17.9a87.988,87.988,0,0,0,3.512-15.207,36.815,36.815,0,0,0-.1-10.616c-.447-2.478-1.027-3.756-1.267-3.705-.614.108.395,5.479-1.37,13.877a114.714,114.714,0,0,1-4.21,14.527c-1.844,5.451-4.069,11.515-5.323,18.315-.317,1.7-.525,3.4-.674,5.088-.058.847-.123,1.687-.12,2.524s-.052,1.666,0,2.484a49.653,49.653,0,0,0,1.167,9.327,73.979,73.979,0,0,0,5.051,14.826,93.148,93.148,0,0,0,4.818,9.263c1.268,2.11,2.1,3.2,2.341,3.086" transform="translate(-19.652 -1.584)" fill="#263238"/>
            <path id="Path_611303" data-name="Path 611303" d="M352.279,37.236a31.7,31.7,0,0,0-34.859-29.5c-17.092,1.611-29.7,16.814-29.123,33.788.506,14.879,1.347,29.837,2.409,35.125,3.2,15.949,13.832,20.373,18.017,21.513a21.63,21.63,0,0,0,4.451.238.107.107,0,0,1,.113.107l-.148,19.035c.627,12.334,9.427,21.767,21.895,21.208,12.51-.56,20.3-11.606,19.9-23.992Z" transform="translate(-20.646 -0.543)" fill="#aa6550"/>
            <path id="Path_611304" data-name="Path 611304" d="M297.036,52.889a2.581,2.581,0,0,0,2.621,2.5,2.509,2.509,0,0,0,2.6-2.452,2.582,2.582,0,0,0-2.618-2.5,2.511,2.511,0,0,0-2.6,2.454" transform="translate(-21.273 -3.612)" fill="#263238"/>
            <path id="Path_611305" data-name="Path 611305" d="M293.189,47.816c.337.323,2.26-1.215,5.071-1.334,2.807-.158,4.925,1.181,5.217.826.144-.158-.21-.751-1.133-1.358a7.192,7.192,0,0,0-4.193-1.079,6.975,6.975,0,0,0-4.02,1.483c-.839.7-1.108,1.318-.942,1.462" transform="translate(-20.995 -3.213)" fill="#263238"/>
            <path id="Path_611306" data-name="Path 611306" d="M325.986,52.6a2.582,2.582,0,0,0,2.621,2.5,2.509,2.509,0,0,0,2.6-2.452,2.582,2.582,0,0,0-2.618-2.5,2.511,2.511,0,0,0-2.6,2.454" transform="translate(-23.347 -3.592)" fill="#263238"/>
            <path id="Path_611307" data-name="Path 611307" d="M322.971,47.043c.338.323,2.262-1.215,5.072-1.333,2.806-.159,4.925,1.18,5.217.825.144-.158-.207-.751-1.134-1.357a7.188,7.188,0,0,0-4.192-1.08,6.978,6.978,0,0,0-4.02,1.483c-.836.7-1.108,1.318-.943,1.462" transform="translate(-23.128 -3.158)" fill="#263238"/>
            <path id="Path_611308" data-name="Path 611308" d="M312.3,68.193c.007-.159-1.752-.379-4.6-.611-.72-.042-1.406-.151-1.545-.631a3.6,3.6,0,0,1,.4-2.127q.912-2.624,1.912-5.5c2.647-7.834,4.533-14.262,4.215-14.363s-2.723,6.167-5.371,14q-.952,2.9-1.821,5.532a4.085,4.085,0,0,0-.264,2.8,1.787,1.787,0,0,0,1.221.986,4.954,4.954,0,0,0,1.225.113c2.855.024,4.623-.043,4.628-.2" transform="translate(-21.848 -3.22)" fill="#263238"/>
            <path id="Path_611309" data-name="Path 611309" d="M315.214,104.756s10.887.4,24.147-8.289c0,0-3.728,14.391-24.187,13.417Z" transform="translate(-22.573 -6.909)" fill="#754034"/>
            <path id="Path_611310" data-name="Path 611310" d="M314.4,76.991a5.122,5.122,0,0,1,4.466-2.066,4.614,4.614,0,0,1,3.26,1.552,2.875,2.875,0,0,1,.352,3.306,3.441,3.441,0,0,1-3.649,1.088,10.58,10.58,0,0,1-3.674-1.962,3.067,3.067,0,0,1-.836-.787.922.922,0,0,1-.035-1.036" transform="translate(-22.498 -5.365)" fill="#754034"/>
            <path id="Path_611311" data-name="Path 611311" d="M321.178,71.66c-.459-.006-.346,3.014-2.874,5.274s-5.788,2.074-5.8,2.5c-.035.191.747.554,2.121.529a7.693,7.693,0,0,0,4.845-1.913,6.576,6.576,0,0,0,2.214-4.414c.067-1.268-.3-2-.511-1.974" transform="translate(-22.381 -5.132)" fill="#263238"/>
            <path id="Path_611312" data-name="Path 611312" d="M321.408,41.9c.307.744,3.1.26,6.412.506,3.319.179,6.015,1.016,6.426.318.182-.334-.309-1.025-1.413-1.709a10.712,10.712,0,0,0-4.811-1.432,10.827,10.827,0,0,0-4.97.8c-1.193.537-1.779,1.159-1.645,1.512" transform="translate(-23.018 -2.834)" fill="#263238"/>
            <path id="Path_611313" data-name="Path 611313" d="M294.061,41.632c.519.61,2.43-.133,4.757-.267,2.323-.216,4.317.232,4.745-.449.187-.33-.149-.949-1.034-1.509a6.959,6.959,0,0,0-7.655.578c-.8.686-1.043,1.349-.812,1.647" transform="translate(-21.054 -2.759)" fill="#263238"/>
            <path id="Path_611314" data-name="Path 611314" d="M285.187,86.354c-2.721,12.154,2.248,24.707,8.466,35.48,2.349,4.069,4.916,8.081,6.309,12.573s1.471,9.656-1.008,13.645a3.847,3.847,0,0,0,4.607-1.879l.68,7.448c3.02,1.306,6.626-.87,8.083-3.837s1.338-6.438,1.185-9.744c-.446-9.7-.091-21.178-.537-30.881l-17.293-3.5Z" transform="translate(-20.37 -6.185)" fill="#263238"/>
            <path id="Path_611315" data-name="Path 611315" d="M333.42,27.4c6.56,12.632,7.341,27.461,6.868,41.707s-2.051,28.619.3,42.675c.926,5.531,2.46,11.12,1.61,16.664-.5,3.257-1.808,6.334-2.464,9.563s-.563,6.865,1.452,9.464a9.206,9.206,0,0,0,8.934,2.981,16.061,16.061,0,0,0,8.367-5.023c4.976-5.244,7.573-12.412,8.538-19.6s.427-14.486-.112-21.719l-4.208-56.433c-.607-8.135-1.259-16.456-4.549-23.912a41.473,41.473,0,0,0-16.906-18.5c-8.717-5.185-19.988-7.415-28.942-2.66-2.988,1.587-5.861,4.621-5.141,7.943.568,2.627,3.119,4.247,5.444,5.57l23,13.092" transform="translate(-21.991 0)" fill="#263238"/>
            <path id="Path_611316" data-name="Path 611316" d="M347.119,130.932c.247-.129-.235-1.588-1.22-4.144s-2.46-6.217-3.983-10.807a73.109,73.109,0,0,1-3.541-16.4c-.59-6.24.2-13.174,1.485-20.475s2.768-14.37,3.189-21.036a51.88,51.88,0,0,0-1.626-17.613,28.962,28.962,0,0,0-5.453-10.632q-.713-.787-1.277-1.37a12.612,12.612,0,0,0-1.045-.888c-.587-.452-.936-.638-1.031-.541s.067.47.452,1.081l.729,1.1c.266.448.578.956.935,1.517a34.587,34.587,0,0,1,4.009,10.427,55.39,55.39,0,0,1,.71,16.636c-.584,6.292-2.142,13.213-3.449,20.643s-2.056,14.819-1.218,21.519a65.089,65.089,0,0,0,4.536,17.01,82.355,82.355,0,0,0,5.209,10.51c1.418,2.373,2.356,3.592,2.589,3.47" transform="translate(-23.82 -1.933)" fill="#263238"/>
            <path id="Path_611317" data-name="Path 611317" d="M368.556,35.223a3.991,3.991,0,0,0-.6-.223l-1.751-.564c-.762-.237-1.693-.531-2.765-.905s-2.3-.76-3.638-1.265c-2.69-.955-5.855-2.2-9.325-3.684-3.459-1.51-7.216-3.275-11.075-5.3-3.851-2.043-7.433-4.149-10.636-6.152-3.188-2.028-6.006-3.939-8.316-5.622-1.173-.819-2.193-1.614-3.1-2.292s-1.686-1.277-2.313-1.773l-1.458-1.128a3.868,3.868,0,0,0-.525-.372,3.937,3.937,0,0,0,.475.434l1.412,1.186c.614.516,1.371,1.137,2.275,1.829s1.911,1.508,3.075,2.342c2.294,1.715,5.1,3.655,8.287,5.7,3.2,2.025,6.786,4.146,10.646,6.194,3.869,2.029,7.641,3.79,11.115,5.284,3.486,1.47,6.668,2.69,9.375,3.613,1.344.488,2.583.862,3.662,1.212s2.018.629,2.789.842l1.773.494a3.941,3.941,0,0,0,.625.147" transform="translate(-22.42 -0.426)" fill="#455a64"/>
            <path id="Path_611318" data-name="Path 611318" d="M368.642,38.372a4.162,4.162,0,0,0-.644-.122l-1.857-.274-1.341-.188-1.585-.285c-1.136-.216-2.437-.412-3.852-.76l-2.227-.5c-.773-.178-1.564-.417-2.392-.634-1.66-.416-3.393-1-5.227-1.576a102.542,102.542,0,0,1-11.568-4.752,102.915,102.915,0,0,1-10.842-6.256c-1.581-1.1-3.1-2.117-4.45-3.178-.681-.523-1.354-1-1.969-1.509l-1.765-1.458c-1.142-.908-2.1-1.821-2.965-2.588l-1.2-1.082-.972-.949-1.356-1.3a4.072,4.072,0,0,0-.492-.436,4.248,4.248,0,0,0,.436.492l1.3,1.358c.29.3.605.621.951.975s.757.711,1.18,1.109c.856.785,1.8,1.715,2.935,2.639l1.754,1.482c.614.512,1.284,1,1.962,1.532,1.342,1.076,2.863,2.108,4.446,3.22a99.194,99.194,0,0,0,10.87,6.308,98.758,98.758,0,0,0,11.627,4.743c1.843.572,3.586,1.144,5.256,1.547.832.211,1.627.444,2.405.615l2.239.479c1.422.331,2.731.509,3.873.7.572.091,1.1.188,1.593.253l1.349.154,1.866.2a4.048,4.048,0,0,0,.654.043" transform="translate(-22.341 -0.753)" fill="#fff"/>
            <path id="Path_611319" data-name="Path 611319" d="M360.782,139.666a1.307,1.307,0,0,0,.054-.258l.118-.762c.1-.671.253-1.661.377-2.944a98.508,98.508,0,0,0,.541-10.9c.006-4.611-.294-10.1-.876-16.165s-1.4-12.711-2.21-19.691c-1.661-13.95-3.164-26.576-4.256-35.744-.561-4.553-1.016-8.246-1.334-10.827-.163-1.258-.292-2.244-.383-2.94-.045-.319-.082-.572-.11-.764a1.29,1.29,0,0,0-.05-.259,1.342,1.342,0,0,0,.011.264c.018.194.041.447.071.769.073.7.176,1.688.309,2.949.289,2.584.7,6.281,1.211,10.841,1.062,9.171,2.525,21.8,4.142,35.758.809,6.98,1.645,13.623,2.239,19.68s.929,11.53.959,16.132a108.119,108.119,0,0,1-.416,10.885c-.1,1.283-.231,2.274-.3,2.948-.033.321-.059.575-.08.768a1.344,1.344,0,0,0-.014.264" transform="translate(-25.257 -2.751)" fill="#455a64"/>
            <path id="Path_611320" data-name="Path 611320" d="M350.608,97.365a3.852,3.852,0,0,0,.065-.635q.042-.68.11-1.825c.091-1.586.19-3.882.284-6.72.189-5.676.311-13.523.169-22.188s-.527-16.508-.906-22.173c-.188-2.833-.363-5.125-.507-6.706q-.107-1.143-.171-1.821a3.861,3.861,0,0,0-.086-.633,4.018,4.018,0,0,0,.007.639q.036.68.1,1.826c.092,1.624.222,3.906.382,6.711.307,5.667.645,13.5.791,22.163s.065,16.5-.054,22.174c-.067,2.808-.121,5.095-.16,6.721q-.024,1.149-.037,1.828a3.881,3.881,0,0,0,.014.639" transform="translate(-25.035 -2.483)" fill="#455a64"/>
          </g>
        </g>
        <g id="Group_1073378" data-name="Group 1073378">
          <g id="Group_1073377" data-name="Group 1073377" clip-path="url(#clip-path-2)">
            <path id="Path_611321" data-name="Path 611321" d="M398.764,79.326l7.764-13.871a36.74,36.74,0,1,1,31.389,17.553,36.46,36.46,0,0,1-22.535-7.693l.013.017Z" transform="translate(-28.559 -0.639)" fill="#fafafa"/>
            <path id="Path_611322" data-name="Path 611322" d="M398.764,79.311l16.6-4.111-.068.189-.012-.016a.12.12,0,0,1,.021-.169.123.123,0,0,1,.148,0,37.642,37.642,0,0,0,7.562,4.5,36.6,36.6,0,0,0,10.055,2.806,32.468,32.468,0,0,0,5.8.248c1-.067,2.011-.087,3.032-.193l3.086-.488a36.794,36.794,0,0,0,22.67-14.908A36.418,36.418,0,0,0,473.682,53a37.6,37.6,0,0,0-.518-16.236,36.166,36.166,0,0,0-7.846-15l-1.487-1.639c-.493-.546-1.073-1-1.6-1.508a21.267,21.267,0,0,0-1.653-1.44l-1.748-1.309a15.7,15.7,0,0,0-1.812-1.2l-1.847-1.124-1.938-.936a16.053,16.053,0,0,0-1.955-.865,36.909,36.909,0,0,0-16.343-2.466,35.548,35.548,0,0,0-14.969,4.536,37.178,37.178,0,0,0-17.182,21.45,39.742,39.742,0,0,0-1.565,11.9,37.015,37.015,0,0,0,5.412,18.2.117.117,0,0,1,0,.118l-7.865,13.814,7.663-13.928,0,.117a37.074,37.074,0,0,1-5.549-18.312,39.956,39.956,0,0,1,1.538-12.019,37.524,37.524,0,0,1,17.325-21.728,35.973,35.973,0,0,1,15.151-4.614,37.342,37.342,0,0,1,16.557,2.485,16.487,16.487,0,0,1,1.982.875l1.963.948,1.873,1.138a15.954,15.954,0,0,1,1.836,1.212l1.771,1.325a22.032,22.032,0,0,1,1.675,1.458c.538.512,1.125.975,1.626,1.528l1.507,1.66a36.628,36.628,0,0,1,7.944,15.193,38.04,38.04,0,0,1,.512,16.443,36.82,36.82,0,0,1-6.119,14.334,37.144,37.144,0,0,1-22.959,15.027l-3.12.484c-1.031.1-2.057.121-3.063.185a32.767,32.767,0,0,1-5.85-.272A36.8,36.8,0,0,1,422.9,79.974a37.694,37.694,0,0,1-7.59-4.578l.169-.169.013.017a.12.12,0,0,1-.021.168.134.134,0,0,1-.046.022l-16.659,3.877" transform="translate(-28.559 -0.624)" fill="#263238"/>
            <path id="Path_611323" data-name="Path 611323" d="M455.126,37.992a10.13,10.13,0,0,1-1.138,1.193L450.757,42.3c-2.743,2.613-6.557,6.2-10.791,10.133l-.642.6-.164.153-.17-.146-5.182-4.447.311-.006-7.057,6.395-2.051,1.8a4.715,4.715,0,0,1-.769.606,4.727,4.727,0,0,1,.666-.719l1.959-1.9,6.934-6.53.151-.142.16.136,5.205,4.419-.335.007.642-.6c4.232-3.935,8.084-7.478,10.89-10.024l3.34-3a10.216,10.216,0,0,1,1.272-1.047" transform="translate(-30.384 -2.721)" fill="#263238"/>
            <path id="Path_611324" data-name="Path 611324" d="M457.272,46.533a12.675,12.675,0,0,1-.281-2.492c-.112-1.547-.233-3.693-.339-6.086l.264.243-.43.019c-2.475.108-4.716.176-6.34.2a13.428,13.428,0,0,1-2.631-.067,13.636,13.636,0,0,1,2.616-.293c1.619-.116,3.858-.241,6.332-.349l.43-.019.253-.01.011.253c.1,2.393.161,4.542.183,6.092a12.728,12.728,0,0,1-.068,2.508" transform="translate(-32.051 -2.699)" fill="#263238"/>
          </g>
        </g>
      </g>
    </g>
    <g id="Group_1073382" data-name="Group 1073382" transform="translate(-535 -914.544)">
      <rect id="Rectangle_377775" data-name="Rectangle 377775" width="420" height="235" transform="translate(1010 2061)" fill="#0c5e46"/>
      <text id="El_concepto_clave_de_un_SGSI_es_el_diseo_implantacin_y_mantenimiento_de_un_conjunto_de_procesos_para_gestionar_eficientemente_la_accesibilidad_de_la_informacin_buscando_asegurar_los_activos_de_informacin_el_valor_ms_importante_en_una_organizacin_" data-name="El concepto clave de un SGSI es el diseo, implantacin y mantenimiento de un conjunto de procesos para gestionar eficientemente la accesibilidad de la informacin, buscando asegurar los activos de informacin, el valor ms importante en una organizacin, " transform="translate(1038 2086)" fill="#fff" font-size="16" font-family="Roboto-Bold, Roboto" font-weight="700"><tspan x="0" y="15">El concepto clave de un SGSI es el diseo, </tspan><tspan x="0" y="39">implantacin y mantenimiento de un conjunto de </tspan><tspan x="0" y="63">procesos para gestionar eficientemente la </tspan><tspan x="0" y="87">accesibilidad de la informacin</tspan><tspan y="87" font-family="Roboto-Medium, Roboto" font-weight="500">,</tspan><tspan y="87" xml:space="preserve" font-family="Roboto-Regular, Roboto" font-weight="400"> buscando asegurar </tspan><tspan x="0" y="111" font-family="Roboto-Regular, Roboto" font-weight="400">los activos de informacin, el valor ms importante </tspan><tspan x="0" y="135" font-family="Roboto-Regular, Roboto" font-weight="400">en una organizacin, minimizando a la vez los </tspan><tspan x="0" y="159" font-family="Roboto-Regular, Roboto" font-weight="400">riesgos de seguridad de la informacin: integridad, </tspan><tspan x="0" y="183" font-family="Roboto-Regular, Roboto" font-weight="400">confidencialidad y disponibilidad.</tspan></text>
    </g>
    <g id="Group_1072610" data-name="Group 1072610" transform="translate(-374.842 -2821.038)">
      <g id="Group_1072605" data-name="Group 1072605" transform="translate(849.842 3565.901)">
        <g id="Group_870548" data-name="Group 870548" transform="translate(5.116 0.033)">
          <path id="Subtraction_4" data-name="Subtraction 4" d="M562.541,192.6H0V0H8.722c.072,5.978.266,10.139.274,10.313H89.344L94.311,0H643.827V161.26H575.018L562.541,192.6Z" transform="translate(0 0)" fill="#e1efe3"/>
          <path id="Path_213850" data-name="Path 213850" d="M5.2,1.311H70.015V26.272H-6Z" transform="translate(574.869 166.327)" fill="#0c5e46" opacity="0.5"/>
        </g>
        <g id="Group_870549" data-name="Group 870549" transform="translate(62.045 67.861) rotate(-180)">
          <path id="Path_213855" data-name="Path 213855" d="M0,0,5.817,7.756V63.014H0Z" transform="translate(56.228)" fill="#0c5e46"/>
          <path id="Path_213856" data-name="Path 213856" d="M0,62.045l5.817-7.756V0H0Z" transform="translate(62.045 62.045) rotate(90)" fill="#0c5e46"/>
        </g>
      </g>
      <text id="Con_el_advenimiento_de_la_Norma_ISO_27000_aparecen_los_conceptos_de_Gestin_en_Sistemas_de_Seguridad_Informtica_y_de_la_Informacin_SGSI_aprovechando_las_nuevas_tecnologas_y_los_sistemas_de_informacin_y_junto_a_ellos_se_alinean_otros_estndares_que_" data-name="Con el advenimiento de la Norma ISO 27000 aparecen los conceptos de Gestin en Sistemas de Seguridad Informtica y de la Informacin (SGSI), aprovechando las nuevas tecnologas y los sistemas de informacin, y junto a ellos se alinean otros estndares que " transform="translate(886.928 3587.921)" fill="#12263f" font-size="17" font-family="Roboto-Regular, Roboto"><tspan x="0" y="16">Con el advenimiento de la Norma ISO 27000 aparecen los conceptos de </tspan><tspan x="0" y="40">Gestin en Sistemas de Seguridad Informtica y de la Informacin (SGSI), </tspan><tspan x="0" y="64">aprovechando las nuevas tecnologas y los sistemas de informacin, y junto </tspan><tspan x="0" y="88">a ellos se alinean otros estndares que hasta el momento haban sido </tspan><tspan x="0" y="112">aplicados al anlisis de riesgos informticos y que, posteriormente, han sido </tspan><tspan x="0" y="136">usados para la gestin de riesgos de seguridad de la informacin.</tspan><tspan x="0" y="160"></tspan></text>
    </g>
    <path id="Path_611325" data-name="Path 611325" d="M-5060-10800.2l92.854,44.018-18.679-44.018Z" transform="translate(5715 11725.699)" fill="#e1efe3"/>
    <g id="Group_1073384" data-name="Group 1073384" transform="translate(483.535 1378.456)">
      <g id="Group_1073383" data-name="Group 1073383" clip-path="url(#clip-path-9)">
        <path id="Path_611326" data-name="Path 611326" d="M632.93,2.74c0,.144-141.7.26-316.45.26C141.667,3,0,2.884,0,2.74s141.667-.26,316.48-.26c174.752,0,316.45.116,316.45.26" fill="#263238"/>
      </g>
    </g>
  </g>
</svg>
