<svg xmlns="http://www.w3.org/2000/svg" xmlns:xlink="http://www.w3.org/1999/xlink" width="400" height="460" viewBox="0 0 400 460">
  <defs>
    <clipPath id="clip-path">
      <rect id="Rectángulo_380586" data-name="Rectángulo 380586" width="253" height="253" transform="translate(-5384.16 -8454.16)" fill="#fff" stroke="#707070" stroke-width="1"/>
    </clipPath>
    <clipPath id="clip-path-2">
      <rect id="Rectángulo_291673" data-name="Rectángulo 291673" width="275.972" height="216.188" transform="translate(0 0)" fill="#fff"/>
    </clipPath>
    <clipPath id="clip-path-3">
      <rect id="Rectángulo_291670" data-name="Rectángulo 291670" width="208.967" height="238.596" fill="none"/>
    </clipPath>
  </defs>
  <g id="Grupo_1076573" data-name="Grupo 1076573" transform="translate(5915 7587)">
    <rect id="Rectángulo_380585" data-name="Rectángulo 380585" width="400" height="460" transform="translate(-5915 -7587)" fill="#fff"/>
    <g id="Grupo_1076532" data-name="Grupo 1076532" transform="translate(0 77.25)">
      <path id="Trazado_614430" data-name="Trazado 614430" d="M4.489,12.658V17H1.4V4.2H6.51a5.948,5.948,0,0,1,2.6.541,4.074,4.074,0,0,1,1.749,1.538,4.2,4.2,0,0,1,.62,2.263,3.7,3.7,0,0,1-1.34,2.993,5.561,5.561,0,0,1-3.678,1.121Zm0-2.382H6.51a1.906,1.906,0,0,0,1.367-.448,1.665,1.665,0,0,0,.47-1.266A2.059,2.059,0,0,0,7.864,7.13a1.712,1.712,0,0,0-1.318-.545H4.489ZM12.5,12.157a5.613,5.613,0,0,1,.554-2.536A3.96,3.96,0,0,1,14.64,7.912a4.791,4.791,0,0,1,2.435-.6,4.373,4.373,0,0,1,3.366,1.323,5.076,5.076,0,0,1,1.23,3.6v.105a4.925,4.925,0,0,1-1.235,3.529,4.384,4.384,0,0,1-3.344,1.305,4.434,4.434,0,0,1-3.261-1.217,4.761,4.761,0,0,1-1.327-3.3Zm2.962.185a3.538,3.538,0,0,0,.413,1.934,1.376,1.376,0,0,0,1.222.615q1.582,0,1.617-2.435v-.3q0-2.558-1.635-2.558-1.485,0-1.608,2.206ZM26.1,17H23.13V3.5H26.1Zm5.054,0H28.175V7.49h2.979ZM30.047,3.676h3.129l-2.443,2.76-2.417,0Zm6.46,1.45V7.49h1.564V9.547H36.507V13.9a1.111,1.111,0,0,0,.193.747,1.037,1.037,0,0,0,.765.211A4.345,4.345,0,0,0,38.2,14.8v2.118a5.466,5.466,0,0,1-1.67.255,3.1,3.1,0,0,1-2.259-.721,2.954,2.954,0,0,1-.729-2.188V9.547H32.333V7.49h1.213V5.126ZM42.361,17H39.39V7.49h2.971ZM39.214,5.038A1.322,1.322,0,0,1,39.672,4a1.943,1.943,0,0,1,2.373,0A1.322,1.322,0,0,1,42.5,5.038a1.322,1.322,0,0,1-.457,1.037,1.943,1.943,0,0,1-2.373,0A1.322,1.322,0,0,1,39.214,5.038Zm8.991,9.853a1.317,1.317,0,0,0,.967-.338,1.241,1.241,0,0,0,.334-.945h2.777a3.288,3.288,0,0,1-1.121,2.566,4.168,4.168,0,0,1-2.887,1,4.22,4.22,0,0,1-3.27-1.3,5.125,5.125,0,0,1-1.2-3.6v-.123A5.792,5.792,0,0,1,44.343,9.6a3.872,3.872,0,0,1,1.534-1.7,4.573,4.573,0,0,1,2.373-.593,4.116,4.116,0,0,1,2.944,1.028,3.647,3.647,0,0,1,1.09,2.786H49.506A1.626,1.626,0,0,0,49.146,10a1.244,1.244,0,0,0-.967-.4q-1.151,0-1.345,1.468a10.357,10.357,0,0,0-.062,1.283,4.068,4.068,0,0,0,.343,1.986A1.187,1.187,0,0,0,48.206,14.891ZM58.893,17a3.344,3.344,0,0,1-.281-.853,2.754,2.754,0,0,1-2.285,1.028,3.374,3.374,0,0,1-2.285-.813,2.588,2.588,0,0,1-.94-2.043,2.66,2.66,0,0,1,1.143-2.338,5.821,5.821,0,0,1,3.322-.791h.914v-.5q0-1.316-1.134-1.316a.927.927,0,0,0-1.055,1.042H53.33A2.655,2.655,0,0,1,54.5,8.175a4.931,4.931,0,0,1,2.993-.86A4.323,4.323,0,0,1,60.37,8.2a3.086,3.086,0,0,1,1.081,2.435v4.21a4.311,4.311,0,0,0,.4,2V17Zm-1.854-1.934a1.652,1.652,0,0,0,.918-.237,1.487,1.487,0,0,0,.523-.536V12.772h-.861q-1.547,0-1.547,1.389a.848.848,0,0,0,.272.655A.986.986,0,0,0,57.039,15.066Zm11.03-.738a.684.684,0,0,0-.4-.606,6.016,6.016,0,0,0-1.5-.475,6.853,6.853,0,0,1-1.828-.646,3.062,3.062,0,0,1-1.1-.971,2.319,2.319,0,0,1-.378-1.31,2.628,2.628,0,0,1,1.081-2.158,4.453,4.453,0,0,1,2.83-.848,4.934,4.934,0,0,1,3.023.853,2.666,2.666,0,0,1,1.143,2.241H67.972q0-1.143-1.2-1.143a1.194,1.194,0,0,0-.782.259.8.8,0,0,0-.316.646.737.737,0,0,0,.387.642,3.654,3.654,0,0,0,1.235.4,10.671,10.671,0,0,1,1.49.378,2.706,2.706,0,0,1,2.145,2.646,2.491,2.491,0,0,1-1.156,2.118,5.068,5.068,0,0,1-2.993.817,5.172,5.172,0,0,1-2.18-.439,3.645,3.645,0,0,1-1.494-1.2,2.707,2.707,0,0,1-.536-1.591h2.769a1.145,1.145,0,0,0,.439.962,1.808,1.808,0,0,0,1.081.3,1.422,1.422,0,0,0,.91-.246A.787.787,0,0,0,68.069,14.328ZM26.453,32.175a5.809,5.809,0,0,1,.976-3.56,3.211,3.211,0,0,1,2.725-1.3,2.731,2.731,0,0,1,2.145,1V23.5h2.971V37H32.605l-.149-1.02a2.8,2.8,0,0,1-2.32,1.2,3.205,3.205,0,0,1-2.689-1.3A5.993,5.993,0,0,1,26.453,32.175Zm2.962.185q0,2.531,1.477,2.531a1.458,1.458,0,0,0,1.406-.826V30.443a1.419,1.419,0,0,0-1.389-.844q-1.371,0-1.485,2.215Zm12.138,4.816a4.889,4.889,0,0,1-3.542-1.305,4.507,4.507,0,0,1-1.354-3.4v-.246a5.84,5.84,0,0,1,.541-2.575,3.955,3.955,0,0,1,1.578-1.727,4.763,4.763,0,0,1,2.461-.611A4.117,4.117,0,0,1,44.4,28.558a4.887,4.887,0,0,1,1.16,3.467v1.151H39.672a2.135,2.135,0,0,0,.694,1.257,2.066,2.066,0,0,0,1.389.457,2.662,2.662,0,0,0,2.2-.984l1.354,1.6a3.784,3.784,0,0,1-1.569,1.217A5.3,5.3,0,0,1,41.552,37.176ZM41.218,29.6q-1.3,0-1.547,1.723H42.66v-.229a1.467,1.467,0,0,0-.36-1.1A1.434,1.434,0,0,0,41.218,29.6ZM11.977,55.972a3.054,3.054,0,0,1-2.54,1.2,3,3,0,0,1-2.369-.91,3.826,3.826,0,0,1-.8-2.615V47.49H9.226v6.179a1.065,1.065,0,0,0,1.187,1.222,1.548,1.548,0,0,0,1.45-.729V47.49h2.979V57H12.065Zm9.466-1.644a.684.684,0,0,0-.4-.606,6.016,6.016,0,0,0-1.5-.475,6.853,6.853,0,0,1-1.828-.646,3.062,3.062,0,0,1-1.1-.971,2.319,2.319,0,0,1-.378-1.31,2.628,2.628,0,0,1,1.081-2.158,4.453,4.453,0,0,1,2.83-.848,4.934,4.934,0,0,1,3.023.853,2.666,2.666,0,0,1,1.143,2.241H21.346q0-1.143-1.2-1.143a1.194,1.194,0,0,0-.782.259.8.8,0,0,0-.316.646.737.737,0,0,0,.387.642,3.654,3.654,0,0,0,1.235.4,10.671,10.671,0,0,1,1.49.378A2.706,2.706,0,0,1,24.3,54.24a2.491,2.491,0,0,1-1.156,2.118,5.068,5.068,0,0,1-2.993.817,5.172,5.172,0,0,1-2.18-.439,3.645,3.645,0,0,1-1.494-1.2,2.707,2.707,0,0,1-.536-1.591H18.71a1.145,1.145,0,0,0,.439.962,1.808,1.808,0,0,0,1.081.3,1.422,1.422,0,0,0,.91-.246A.787.787,0,0,0,21.443,54.328Zm9.905,1.644a3.054,3.054,0,0,1-2.54,1.2,3,3,0,0,1-2.369-.91,3.826,3.826,0,0,1-.8-2.615V47.49H28.6v6.179a1.065,1.065,0,0,0,1.187,1.222,1.548,1.548,0,0,0,1.45-.729V47.49h2.979V57H31.436ZM41.192,57a3.344,3.344,0,0,1-.281-.853,2.754,2.754,0,0,1-2.285,1.028,3.374,3.374,0,0,1-2.285-.813,2.588,2.588,0,0,1-.94-2.043,2.66,2.66,0,0,1,1.143-2.338,5.821,5.821,0,0,1,3.322-.791h.914v-.5q0-1.316-1.134-1.316a.927.927,0,0,0-1.055,1.042H35.629A2.655,2.655,0,0,1,36.8,48.175a4.931,4.931,0,0,1,2.993-.86,4.323,4.323,0,0,1,2.874.888,3.086,3.086,0,0,1,1.081,2.435v4.21a4.311,4.311,0,0,0,.4,2V57Zm-1.854-1.934a1.652,1.652,0,0,0,.918-.237,1.487,1.487,0,0,0,.523-.536V52.772h-.861q-1.547,0-1.547,1.389a.848.848,0,0,0,.272.655A.986.986,0,0,0,39.338,55.066Zm11.8-4.9-.976-.07a1.752,1.752,0,0,0-1.793.879V57H45.411V47.49h2.777l.1,1.222a2.294,2.294,0,0,1,2.083-1.4,2.888,2.888,0,0,1,.826.105ZM55.334,57H52.363V47.49h2.971ZM52.187,45.038A1.322,1.322,0,0,1,52.644,44a1.943,1.943,0,0,1,2.373,0,1.405,1.405,0,0,1,0,2.074,1.943,1.943,0,0,1-2.373,0A1.322,1.322,0,0,1,52.187,45.038Zm4.6,7.119a5.613,5.613,0,0,1,.554-2.536,3.96,3.96,0,0,1,1.591-1.709,4.791,4.791,0,0,1,2.435-.6,4.373,4.373,0,0,1,3.366,1.323,5.076,5.076,0,0,1,1.23,3.6v.105a4.925,4.925,0,0,1-1.235,3.529,4.384,4.384,0,0,1-3.344,1.305,4.434,4.434,0,0,1-3.261-1.217,4.761,4.761,0,0,1-1.327-3.3Zm2.962.185a3.538,3.538,0,0,0,.413,1.934,1.376,1.376,0,0,0,1.222.615q1.582,0,1.617-2.435v-.3Q63,49.6,61.363,49.6q-1.485,0-1.608,2.206Z" transform="translate(-5751 -7482.8)" fill="#12263f"/>
      <g id="Trazado_614431" data-name="Trazado 614431" transform="translate(-5902 -7654)" fill="#fff">
        <path d="M 184.5 56.5 L 0.5 56.5 L 0.5 0.5 L 184.5 0.5 L 184.5 56.5 Z" stroke="none"/>
        <path d="M 1 1 L 1 56 L 184 56 L 184 1 L 1 1 M 0 0 L 185 0 L 185 57 L 0 57 L 0 0 Z" stroke="none" fill="#707070"/>
      </g>
      <g id="Trazado_614432" data-name="Trazado 614432" transform="translate(-5709 -7631)" fill="#fff">
        <path d="M 184.5 33.5 L 0.5 33.5 L 0.5 0.5 L 184.5 0.5 L 184.5 33.5 Z" stroke="none"/>
        <path d="M 1 1 L 1 33 L 184 33 L 184 1 L 1 1 M 0 0 L 185 0 L 185 34 L 0 34 L 0 0 Z" stroke="none" fill="#707070"/>
      </g>
      <g id="Trazado_614433" data-name="Trazado 614433" transform="translate(-5677 -7345)" fill="#fff">
        <path d="M 152.5 58.5 L 0.5 58.5 L 0.5 0.5 L 152.5 0.5 L 152.5 58.5 Z" stroke="none"/>
        <path d="M 1 1 L 1 58 L 152 58 L 152 1 L 1 1 M 0 0 L 153 0 L 153 59 L 0 59 L 0 0 Z" stroke="none" fill="#707070"/>
      </g>
      <g id="Trazado_614434" data-name="Trazado 614434" transform="translate(-5904 -7345)" fill="#fff">
        <path d="M 160.5 58.5 L 0.5 58.5 L 0.5 0.5 L 160.5 0.5 L 160.5 58.5 Z" stroke="none"/>
        <path d="M 1 1 L 1 58 L 160 58 L 160 1 L 1 1 M 0 0 L 161 0 L 161 59 L 0 59 L 0 0 Z" stroke="none" fill="#707070"/>
      </g>
      <g id="Trazado_614435" data-name="Trazado 614435" transform="translate(-5904.522 -7277.25)" fill="#fff">
        <path d="M 153.02197265625 58.5 L 0.5000063180923462 58.5 L 0.5000063180923462 0.5 L 153.02197265625 0.5 L 153.02197265625 58.5 Z" stroke="none"/>
        <path d="M 1 1 L 1 58 L 152.52197265625 58 L 152.52197265625 1 L 1 1 M 0 0 L 153.52197265625 0 L 153.52197265625 59 L 0 59 L 0 0 Z" stroke="none" fill="#707070"/>
      </g>
      <g id="Trazado_614436" data-name="Trazado 614436" transform="translate(-5677.522 -7277.25)" fill="#fff">
        <path d="M 153.02197265625 58.5 L 0.5000063180923462 58.5 L 0.5000063180923462 0.5 L 153.02197265625 0.5 L 153.02197265625 58.5 Z" stroke="none"/>
        <path d="M 1 1 L 1 58 L 152.52197265625 58 L 152.52197265625 1 L 1 1 M 0 0 L 153.52197265625 0 L 153.52197265625 59 L 0 59 L 0 0 Z" stroke="none" fill="#707070"/>
      </g>
      <g id="Grupo_1076407" data-name="Grupo 1076407" transform="translate(-5877 -7647.982)">
        <text id="Realizar_una_copia_de_seguridad" data-name="Realizar una copia
de seguridad" transform="translate(0 15.982)" fill="#12263f" font-size="17" font-family="Roboto-Bold, Roboto" font-weight="700"><tspan x="0" y="0">Realizar una copia</tspan><tspan x="0" y="25">de seguridad</tspan></text>
      </g>
      <g id="Grupo_1076524" data-name="Grupo 1076524" transform="translate(-5699 -7623.557)">
        <path id="Trazado_614443" data-name="Trazado 614443" d="M3.569-4.258V0H1.079V-12.086H5.794a5.455,5.455,0,0,1,2.395.5,3.67,3.67,0,0,1,1.59,1.415,3.946,3.946,0,0,1,.556,2.088,3.47,3.47,0,0,1-1.216,2.8A5.065,5.065,0,0,1,5.752-4.258Zm0-2.017H5.794A2.187,2.187,0,0,0,7.3-6.74a1.691,1.691,0,0,0,.519-1.328A1.994,1.994,0,0,0,7.3-9.5a1.953,1.953,0,0,0-1.444-.564H3.569Zm13.364-.457A6.517,6.517,0,0,0,16.07-6.8a1.757,1.757,0,0,0-1.785.921V0h-2.4V-8.981h2.266l.066,1.071a2.223,2.223,0,0,1,2-1.237,2.514,2.514,0,0,1,.747.108Zm.481,2.158a5.327,5.327,0,0,1,.515-2.382,3.768,3.768,0,0,1,1.482-1.619,4.323,4.323,0,0,1,2.245-.573,4.09,4.09,0,0,1,2.968,1.112,4.464,4.464,0,0,1,1.282,3.021l.017.614A4.694,4.694,0,0,1,24.77-1.083a4.011,4.011,0,0,1-3.1,1.249,4.031,4.031,0,0,1-3.1-1.245,4.777,4.777,0,0,1-1.158-3.387Zm2.4.17A3.357,3.357,0,0,0,20.3-2.446a1.588,1.588,0,0,0,1.378.678,1.592,1.592,0,0,0,1.361-.669,3.674,3.674,0,0,0,.49-2.141,3.324,3.324,0,0,0-.49-1.945,1.592,1.592,0,0,0-1.378-.69,1.566,1.566,0,0,0-1.361.686A3.735,3.735,0,0,0,19.814-4.4Zm10.459-6.786v2.208h1.536v1.76H30.273v4.482a1.07,1.07,0,0,0,.191.714.959.959,0,0,0,.73.216,3.826,3.826,0,0,0,.706-.058V-.05a4.939,4.939,0,0,1-1.453.216,2.29,2.29,0,0,1-2.573-2.548V-7.222H26.563v-1.76h1.312v-2.208ZM37.279.166a4.409,4.409,0,0,1-3.217-1.212,4.308,4.308,0,0,1-1.241-3.229v-.232a5.426,5.426,0,0,1,.523-2.42,3.838,3.838,0,0,1,1.482-1.644,4.159,4.159,0,0,1,2.187-.577,3.727,3.727,0,0,1,2.9,1.162,4.722,4.722,0,0,1,1.058,3.3v.979H35.253a2.229,2.229,0,0,0,.7,1.411,2.12,2.12,0,0,0,1.482.531,2.589,2.589,0,0,0,2.167-1l1.179,1.32A3.6,3.6,0,0,1,39.321-.261,4.793,4.793,0,0,1,37.279.166ZM37-7.213a1.5,1.5,0,0,0-1.158.484,2.5,2.5,0,0,0-.569,1.384h3.337v-.192a1.786,1.786,0,0,0-.432-1.238A1.547,1.547,0,0,0,37-7.213Zm4.98,2.656a5.264,5.264,0,0,1,.984-3.329,3.187,3.187,0,0,1,2.652-1.262,2.8,2.8,0,0,1,2.3,1.013l.1-.847h2.175V-.3a3.839,3.839,0,0,1-.535,2.05A3.439,3.439,0,0,1,48.153,3.08a5.3,5.3,0,0,1-2.274.457,4.925,4.925,0,0,1-1.926-.394,3.418,3.418,0,0,1-1.419-1.017L43.6.664a2.81,2.81,0,0,0,2.175,1,2.057,2.057,0,0,0,1.486-.51,1.915,1.915,0,0,0,.531-1.448V-.772A2.775,2.775,0,0,1,45.6.166,3.179,3.179,0,0,1,42.986-1.1a5.262,5.262,0,0,1-1-3.358Zm2.4.179a3.278,3.278,0,0,0,.49,1.916,1.558,1.558,0,0,0,1.345.694,1.666,1.666,0,0,0,1.569-.823V-6.374A1.662,1.662,0,0,0,46.235-7.2a1.568,1.568,0,0,0-1.357.707A3.694,3.694,0,0,0,44.384-4.379ZM56.171.166a4.409,4.409,0,0,1-3.217-1.212,4.308,4.308,0,0,1-1.241-3.229v-.232a5.426,5.426,0,0,1,.523-2.42,3.838,3.838,0,0,1,1.482-1.644,4.159,4.159,0,0,1,2.187-.577,3.727,3.727,0,0,1,2.9,1.162,4.722,4.722,0,0,1,1.058,3.3v.979H54.146a2.229,2.229,0,0,0,.7,1.411,2.12,2.12,0,0,0,1.482.531,2.589,2.589,0,0,0,2.167-1l1.179,1.32A3.6,3.6,0,0,1,58.213-.261,4.793,4.793,0,0,1,56.171.166ZM55.9-7.213a1.5,1.5,0,0,0-1.158.484,2.5,2.5,0,0,0-.569,1.384h3.337v-.192a1.786,1.786,0,0,0-.432-1.238A1.547,1.547,0,0,0,55.9-7.213Zm10.376.481A6.517,6.517,0,0,0,65.41-6.8a1.757,1.757,0,0,0-1.785.921V0h-2.4V-8.981h2.266l.066,1.071a2.223,2.223,0,0,1,2-1.237,2.514,2.514,0,0,1,.747.108ZM74.192,0H71.785V-12.75h2.407Zm1.6-4.574a5.326,5.326,0,0,1,.515-2.382,3.768,3.768,0,0,1,1.482-1.619,4.323,4.323,0,0,1,2.245-.573A4.09,4.09,0,0,1,83-8.035a4.464,4.464,0,0,1,1.282,3.021L84.3-4.4a4.694,4.694,0,0,1-1.154,3.316,4.011,4.011,0,0,1-3.1,1.249,4.031,4.031,0,0,1-3.1-1.245,4.777,4.777,0,0,1-1.158-3.387Zm2.4.17a3.357,3.357,0,0,0,.481,1.958,1.588,1.588,0,0,0,1.378.678,1.592,1.592,0,0,0,1.361-.669,3.674,3.674,0,0,0,.49-2.141,3.324,3.324,0,0,0-.49-1.945,1.592,1.592,0,0,0-1.378-.69,1.566,1.566,0,0,0-1.361.686A3.736,3.736,0,0,0,78.193-4.4ZM90.645-2.482a.773.773,0,0,0-.436-.693,4.95,4.95,0,0,0-1.4-.452q-3.2-.672-3.2-2.723a2.468,2.468,0,0,1,.992-2,4,4,0,0,1,2.594-.8,4.307,4.307,0,0,1,2.735.805A2.538,2.538,0,0,1,92.952-6.25h-2.4a1.161,1.161,0,0,0-.332-.851,1.405,1.405,0,0,0-1.038-.336,1.436,1.436,0,0,0-.938.274.865.865,0,0,0-.332.7.739.739,0,0,0,.378.643,3.885,3.885,0,0,0,1.274.423,10.407,10.407,0,0,1,1.511.4,2.482,2.482,0,0,1,1.9,2.416A2.343,2.343,0,0,1,91.923-.594,4.548,4.548,0,0,1,89.2.166a4.75,4.75,0,0,1-2-.4,3.363,3.363,0,0,1-1.374-1.1,2.565,2.565,0,0,1-.5-1.515H87.6a1.252,1.252,0,0,0,.473.979,1.877,1.877,0,0,0,1.179.34A1.737,1.737,0,0,0,90.292-1.8.814.814,0,0,0,90.645-2.482ZM102.888.166a4.409,4.409,0,0,1-3.217-1.212,4.308,4.308,0,0,1-1.241-3.229v-.232a5.426,5.426,0,0,1,.523-2.42,3.838,3.838,0,0,1,1.482-1.644,4.159,4.159,0,0,1,2.187-.577,3.727,3.727,0,0,1,2.9,1.162,4.722,4.722,0,0,1,1.058,3.3v.979h-5.719a2.229,2.229,0,0,0,.7,1.411,2.12,2.12,0,0,0,1.482.531,2.589,2.589,0,0,0,2.167-1l1.179,1.32A3.6,3.6,0,0,1,104.93-.261,4.793,4.793,0,0,1,102.888.166Zm-.274-7.379a1.5,1.5,0,0,0-1.158.484,2.5,2.5,0,0,0-.569,1.384h3.337v-.192a1.786,1.786,0,0,0-.432-1.238A1.547,1.547,0,0,0,102.614-7.213Zm4.956,2.64a5.369,5.369,0,0,1,.942-3.345A3.08,3.08,0,0,1,111.1-9.147a2.758,2.758,0,0,1,2.3,1.1l.158-.938h2.108V3.453h-2.407V-.772a2.765,2.765,0,0,1-2.175.938,3.057,3.057,0,0,1-2.557-1.245A5.632,5.632,0,0,1,107.57-4.574Zm2.4.17a3.522,3.522,0,0,0,.452,1.962,1.448,1.448,0,0,0,1.274.673,1.613,1.613,0,0,0,1.561-.881V-6.365a1.6,1.6,0,0,0-1.544-.848,1.466,1.466,0,0,0-1.287.673A3.889,3.889,0,0,0,109.969-4.4Zm12.958,3.49A3.008,3.008,0,0,1,120.469.166a2.837,2.837,0,0,1-2.2-.83,3.543,3.543,0,0,1-.776-2.432V-8.981h2.4v5.809q0,1.4,1.278,1.4a1.732,1.732,0,0,0,1.677-.848V-8.981h2.407V0h-2.258ZM129.592,0h-2.407V-8.981h2.407Zm-2.548-11.306a1.181,1.181,0,0,1,.361-.888,1.356,1.356,0,0,1,.984-.349,1.36,1.36,0,0,1,.979.349,1.175,1.175,0,0,1,.365.888,1.178,1.178,0,0,1-.369.9,1.363,1.363,0,0,1-.975.349,1.363,1.363,0,0,1-.975-.349A1.178,1.178,0,0,1,127.043-11.306Zm12.609,6.9a5.387,5.387,0,0,1-.942,3.324A3.021,3.021,0,0,1,136.166.166a2.8,2.8,0,0,1-2.2-.946V3.453h-2.4V-8.981h2.225l.083.88a2.819,2.819,0,0,1,2.274-1.046,3.041,3.041,0,0,1,2.582,1.229,5.532,5.532,0,0,1,.921,3.387Zm-2.4-.174a3.535,3.535,0,0,0-.444-1.934,1.446,1.446,0,0,0-1.291-.681,1.571,1.571,0,0,0-1.552.863v3.677a1.6,1.6,0,0,0,1.569.888Q137.253-1.768,137.253-4.582Zm3.511.008a5.327,5.327,0,0,1,.515-2.382,3.767,3.767,0,0,1,1.482-1.619,4.323,4.323,0,0,1,2.245-.573,4.09,4.09,0,0,1,2.968,1.112,4.464,4.464,0,0,1,1.282,3.021l.017.614a4.694,4.694,0,0,1-1.154,3.316,4.011,4.011,0,0,1-3.1,1.249,4.031,4.031,0,0,1-3.1-1.245,4.777,4.777,0,0,1-1.158-3.387Zm2.4.17a3.357,3.357,0,0,0,.481,1.958,1.588,1.588,0,0,0,1.378.678,1.592,1.592,0,0,0,1.361-.669,3.674,3.674,0,0,0,.49-2.141,3.324,3.324,0,0,0-.49-1.945,1.592,1.592,0,0,0-1.378-.69,1.566,1.566,0,0,0-1.361.686A3.735,3.735,0,0,0,143.164-4.4Zm12.451,1.922a.773.773,0,0,0-.436-.693,4.95,4.95,0,0,0-1.4-.452q-3.2-.672-3.2-2.723a2.468,2.468,0,0,1,.992-2,4,4,0,0,1,2.594-.8,4.307,4.307,0,0,1,2.735.805,2.538,2.538,0,0,1,1.025,2.092h-2.4a1.161,1.161,0,0,0-.332-.851,1.405,1.405,0,0,0-1.038-.336,1.436,1.436,0,0,0-.938.274.865.865,0,0,0-.332.7.739.739,0,0,0,.378.643,3.885,3.885,0,0,0,1.274.423,10.407,10.407,0,0,1,1.511.4,2.482,2.482,0,0,1,1.9,2.416,2.343,2.343,0,0,1-1.054,1.988,4.548,4.548,0,0,1-2.723.76,4.75,4.75,0,0,1-2-.4,3.363,3.363,0,0,1-1.374-1.1,2.565,2.565,0,0,1-.5-1.515h2.274a1.252,1.252,0,0,0,.473.979,1.877,1.877,0,0,0,1.179.34,1.737,1.737,0,0,0,1.042-.261A.814.814,0,0,0,155.615-2.482Z" transform="translate(0 15.557)" fill="#12263f"/>
      </g>
      <g id="Grupo_1076528" data-name="Grupo 1076528" transform="translate(-5664 -7337.557)">
        <path id="Trazado_614444" data-name="Trazado 614444" d="M10.907,0H8.417L3.569-7.952V0H1.079V-12.086h2.49L8.425-4.117v-7.969h2.482Zm1.644-4.574a5.327,5.327,0,0,1,.515-2.382,3.768,3.768,0,0,1,1.482-1.619,4.323,4.323,0,0,1,2.245-.573A4.09,4.09,0,0,1,19.76-8.035a4.464,4.464,0,0,1,1.282,3.021l.017.614a4.694,4.694,0,0,1-1.154,3.316,4.011,4.011,0,0,1-3.1,1.249,4.031,4.031,0,0,1-3.1-1.245,4.777,4.777,0,0,1-1.158-3.387Zm2.4.17a3.357,3.357,0,0,0,.481,1.958,1.588,1.588,0,0,0,1.378.678,1.592,1.592,0,0,0,1.361-.669,3.674,3.674,0,0,0,.49-2.141,3.324,3.324,0,0,0-.49-1.945,1.592,1.592,0,0,0-1.378-.69,1.566,1.566,0,0,0-1.361.686A3.735,3.735,0,0,0,14.95-4.4ZM26.4-4.557A5.413,5.413,0,0,1,27.339-7.9a3.057,3.057,0,0,1,2.577-1.245,2.751,2.751,0,0,1,2.167.979V-12.75H34.49V0H32.323l-.116-.955A2.823,2.823,0,0,1,29.9.166a3.049,3.049,0,0,1-2.544-1.249A5.587,5.587,0,0,1,26.4-4.557Zm2.4.179a3.546,3.546,0,0,0,.44,1.937,1.433,1.433,0,0,0,1.278.673,1.605,1.605,0,0,0,1.569-.939v-3.55A1.582,1.582,0,0,0,30.53-7.2Q28.8-7.2,28.8-4.379ZM40.483.166a4.409,4.409,0,0,1-3.217-1.212,4.308,4.308,0,0,1-1.241-3.229v-.232a5.426,5.426,0,0,1,.523-2.42A3.838,3.838,0,0,1,38.03-8.571a4.159,4.159,0,0,1,2.187-.577,3.727,3.727,0,0,1,2.9,1.162,4.722,4.722,0,0,1,1.058,3.3v.979H38.458a2.229,2.229,0,0,0,.7,1.411,2.12,2.12,0,0,0,1.482.531,2.589,2.589,0,0,0,2.167-1l1.179,1.32A3.6,3.6,0,0,1,42.525-.261,4.793,4.793,0,0,1,40.483.166Zm-.274-7.379a1.5,1.5,0,0,0-1.158.484,2.5,2.5,0,0,0-.569,1.384h3.337v-.192a1.786,1.786,0,0,0-.432-1.238A1.547,1.547,0,0,0,40.209-7.213ZM50.4-2.482a.773.773,0,0,0-.436-.693,4.95,4.95,0,0,0-1.4-.452q-3.2-.672-3.2-2.723a2.468,2.468,0,0,1,.992-2,4,4,0,0,1,2.594-.8,4.307,4.307,0,0,1,2.735.805A2.538,2.538,0,0,1,52.71-6.25h-2.4a1.161,1.161,0,0,0-.332-.851,1.405,1.405,0,0,0-1.038-.336A1.436,1.436,0,0,0,48-7.164a.865.865,0,0,0-.332.7.739.739,0,0,0,.378.643,3.885,3.885,0,0,0,1.274.423,10.407,10.407,0,0,1,1.511.4,2.482,2.482,0,0,1,1.9,2.416A2.343,2.343,0,0,1,51.681-.594a4.548,4.548,0,0,1-2.723.76,4.75,4.75,0,0,1-2-.4,3.363,3.363,0,0,1-1.374-1.1,2.565,2.565,0,0,1-.5-1.515h2.274a1.252,1.252,0,0,0,.473.979,1.877,1.877,0,0,0,1.179.34A1.737,1.737,0,0,0,50.05-1.8.814.814,0,0,0,50.4-2.482Zm7.612.714a1.573,1.573,0,0,0,1.079-.365,1.28,1.28,0,0,0,.432-.971h2.25a3.077,3.077,0,0,1-.5,1.673A3.286,3.286,0,0,1,59.936-.253a4.2,4.2,0,0,1-1.88.419,3.9,3.9,0,0,1-3.038-1.224,4.845,4.845,0,0,1-1.112-3.383V-4.6a4.79,4.79,0,0,1,1.1-3.312,3.854,3.854,0,0,1,3.03-1.237,3.778,3.778,0,0,1,2.7.959,3.4,3.4,0,0,1,1.033,2.552h-2.25a1.648,1.648,0,0,0-.432-1.139A1.439,1.439,0,0,0,58-7.213a1.445,1.445,0,0,0-1.266.611A3.541,3.541,0,0,0,56.3-4.62v.249a3.586,3.586,0,0,0,.423,2A1.463,1.463,0,0,0,58.014-1.768ZM68.349,0a2.664,2.664,0,0,1-.241-.805,2.9,2.9,0,0,1-2.266.971A3.189,3.189,0,0,1,63.655-.6a2.456,2.456,0,0,1-.867-1.926,2.538,2.538,0,0,1,1.058-2.191A5.222,5.222,0,0,1,66.9-5.487h1.1V-6a1.48,1.48,0,0,0-.32-1,1.257,1.257,0,0,0-1.009-.374,1.429,1.429,0,0,0-.95.291.987.987,0,0,0-.344.8h-2.4a2.41,2.41,0,0,1,.481-1.444A3.182,3.182,0,0,1,64.829-8.77,4.961,4.961,0,0,1,66.8-9.147a3.92,3.92,0,0,1,2.635.834,2.918,2.918,0,0,1,.975,2.345v3.893a4.294,4.294,0,0,0,.357,1.934V0ZM66.365-1.668a2.066,2.066,0,0,0,.979-.237,1.554,1.554,0,0,0,.664-.635V-4.084h-.9q-1.8,0-1.917,1.245l-.008.141a.96.96,0,0,0,.315.739A1.225,1.225,0,0,0,66.365-1.668Zm10.94-5.063a6.517,6.517,0,0,0-.863-.066,1.757,1.757,0,0,0-1.785.921V0h-2.4V-8.981h2.266l.066,1.071a2.223,2.223,0,0,1,2-1.237,2.514,2.514,0,0,1,.747.108Zm.647,2.175a5.264,5.264,0,0,1,.984-3.329,3.187,3.187,0,0,1,2.652-1.262,2.8,2.8,0,0,1,2.3,1.013l.1-.847h2.175V-.3a3.839,3.839,0,0,1-.535,2.05A3.439,3.439,0,0,1,84.12,3.08a5.3,5.3,0,0,1-2.274.457,4.925,4.925,0,0,1-1.926-.394A3.418,3.418,0,0,1,78.5,2.125L79.563.664a2.81,2.81,0,0,0,2.175,1,2.057,2.057,0,0,0,1.486-.51,1.915,1.915,0,0,0,.531-1.448V-.772a2.775,2.775,0,0,1-2.183.938A3.179,3.179,0,0,1,78.953-1.1a5.262,5.262,0,0,1-1-3.358Zm2.4.179a3.278,3.278,0,0,0,.49,1.916,1.558,1.558,0,0,0,1.345.694,1.666,1.666,0,0,0,1.569-.823V-6.374A1.662,1.662,0,0,0,82.2-7.2a1.568,1.568,0,0,0-1.357.707A3.694,3.694,0,0,0,80.352-4.379ZM93.209,0a2.664,2.664,0,0,1-.241-.805A2.9,2.9,0,0,1,90.7.166,3.189,3.189,0,0,1,88.515-.6a2.456,2.456,0,0,1-.867-1.926,2.538,2.538,0,0,1,1.058-2.191,5.222,5.222,0,0,1,3.059-.772h1.1V-6a1.48,1.48,0,0,0-.32-1,1.257,1.257,0,0,0-1.009-.374,1.429,1.429,0,0,0-.95.291.987.987,0,0,0-.344.8h-2.4a2.41,2.41,0,0,1,.481-1.444A3.182,3.182,0,0,1,89.69-8.77a4.961,4.961,0,0,1,1.976-.378,3.92,3.92,0,0,1,2.635.834,2.918,2.918,0,0,1,.975,2.345v3.893a4.294,4.294,0,0,0,.357,1.934V0ZM91.226-1.668a2.066,2.066,0,0,0,.979-.237,1.554,1.554,0,0,0,.664-.635V-4.084h-.9q-1.8,0-1.917,1.245l-.008.141a.96.96,0,0,0,.315.739A1.225,1.225,0,0,0,91.226-1.668Zm10.94-5.063A6.517,6.517,0,0,0,101.3-6.8a1.757,1.757,0,0,0-1.785.921V0h-2.4V-8.981h2.266l.066,1.071a2.223,2.223,0,0,1,2-1.237,2.514,2.514,0,0,1,.747.108ZM4.657,23.232a1.573,1.573,0,0,0,1.079-.365,1.28,1.28,0,0,0,.432-.971h2.25a3.077,3.077,0,0,1-.5,1.673,3.286,3.286,0,0,1-1.341,1.179,4.2,4.2,0,0,1-1.88.419A3.9,3.9,0,0,1,1.66,23.942,4.845,4.845,0,0,1,.548,20.559V20.4a4.79,4.79,0,0,1,1.1-3.312,3.854,3.854,0,0,1,3.03-1.237,3.778,3.778,0,0,1,2.7.959,3.4,3.4,0,0,1,1.033,2.552H6.167a1.648,1.648,0,0,0-.432-1.139,1.439,1.439,0,0,0-1.1-.438,1.445,1.445,0,0,0-1.266.611,3.541,3.541,0,0,0-.427,1.983v.249a3.586,3.586,0,0,0,.423,2A1.463,1.463,0,0,0,4.657,23.232Zm4.756-2.806a5.327,5.327,0,0,1,.515-2.382,3.768,3.768,0,0,1,1.482-1.619,4.323,4.323,0,0,1,2.245-.573,4.09,4.09,0,0,1,2.968,1.112A4.464,4.464,0,0,1,17.9,19.986l.017.614a4.694,4.694,0,0,1-1.154,3.316,4.011,4.011,0,0,1-3.1,1.249,4.031,4.031,0,0,1-3.1-1.245,4.777,4.777,0,0,1-1.158-3.387Zm2.4.17a3.357,3.357,0,0,0,.481,1.958,1.588,1.588,0,0,0,1.378.678,1.592,1.592,0,0,0,1.361-.669,3.674,3.674,0,0,0,.49-2.141,3.324,3.324,0,0,0-.49-1.945,1.592,1.592,0,0,0-1.378-.69,1.566,1.566,0,0,0-1.361.686A3.735,3.735,0,0,0,11.812,20.6Zm9.795-4.578.075,1.038a3.136,3.136,0,0,1,2.582-1.2,2.606,2.606,0,0,1,2.125.838A3.912,3.912,0,0,1,27.1,19.2V25H24.7V19.256a1.556,1.556,0,0,0-.332-1.108,1.486,1.486,0,0,0-1.1-.344,1.65,1.65,0,0,0-1.519.863V25h-2.4V16.019Zm10.185-2.208v2.208h1.536v1.76H31.792v4.482a1.07,1.07,0,0,0,.191.714.959.959,0,0,0,.73.216,3.826,3.826,0,0,0,.706-.058V24.95a4.939,4.939,0,0,1-1.453.216,2.29,2.29,0,0,1-2.573-2.548V17.778H28.082v-1.76h1.312V13.811ZM38.8,25.166a4.409,4.409,0,0,1-3.217-1.212,4.308,4.308,0,0,1-1.241-3.229v-.232a5.426,5.426,0,0,1,.523-2.42,3.838,3.838,0,0,1,1.482-1.644,4.159,4.159,0,0,1,2.187-.577,3.727,3.727,0,0,1,2.9,1.162,4.722,4.722,0,0,1,1.058,3.3v.979H36.772a2.229,2.229,0,0,0,.7,1.411,2.12,2.12,0,0,0,1.482.531,2.589,2.589,0,0,0,2.167-1l1.179,1.32a3.6,3.6,0,0,1-1.461,1.191A4.793,4.793,0,0,1,38.8,25.166Zm-.274-7.379a1.5,1.5,0,0,0-1.158.484,2.5,2.5,0,0,0-.569,1.384h3.337v-.192a1.786,1.786,0,0,0-.432-1.238A1.547,1.547,0,0,0,38.524,17.787Zm7.537-1.768.075,1.038a3.136,3.136,0,0,1,2.582-1.2,2.606,2.606,0,0,1,2.125.838,3.912,3.912,0,0,1,.714,2.507V25h-2.4V19.256a1.556,1.556,0,0,0-.332-1.108,1.486,1.486,0,0,0-1.1-.344,1.65,1.65,0,0,0-1.519.863V25H43.8V16.019ZM55.906,25H53.5V16.019h2.407ZM53.357,13.694a1.181,1.181,0,0,1,.361-.888,1.556,1.556,0,0,1,1.963,0,1.268,1.268,0,0,1,0,1.785,1.539,1.539,0,0,1-1.951,0A1.178,1.178,0,0,1,53.357,13.694Zm4.15,6.749A5.413,5.413,0,0,1,58.45,17.1a3.057,3.057,0,0,1,2.577-1.245,2.751,2.751,0,0,1,2.167.979V12.25H65.6V25H63.435l-.116-.955a2.823,2.823,0,0,1-2.308,1.121,3.049,3.049,0,0,1-2.544-1.249A5.587,5.587,0,0,1,57.508,20.443Zm2.4.179a3.546,3.546,0,0,0,.44,1.937,1.433,1.433,0,0,0,1.278.673,1.605,1.605,0,0,0,1.569-.939v-3.55a1.582,1.582,0,0,0-1.552-.939Q59.907,17.8,59.907,20.621Zm7.18-.2a5.326,5.326,0,0,1,.515-2.382,3.768,3.768,0,0,1,1.482-1.619,4.323,4.323,0,0,1,2.245-.573A4.09,4.09,0,0,1,74.3,16.965a4.464,4.464,0,0,1,1.282,3.021l.017.614a4.694,4.694,0,0,1-1.154,3.316,4.472,4.472,0,0,1-6.2,0,4.777,4.777,0,0,1-1.158-3.387Zm2.4.17a3.357,3.357,0,0,0,.481,1.958,1.73,1.73,0,0,0,2.739.008,3.674,3.674,0,0,0,.49-2.141,3.324,3.324,0,0,0-.49-1.945,1.592,1.592,0,0,0-1.378-.69,1.566,1.566,0,0,0-1.361.686A3.736,3.736,0,0,0,69.486,20.6Zm19.905,0a5.387,5.387,0,0,1-.942,3.324A3.021,3.021,0,0,1,85.9,25.166a2.8,2.8,0,0,1-2.2-.946v4.233h-2.4V16.019h2.225l.083.88a2.819,2.819,0,0,1,2.274-1.046,3.041,3.041,0,0,1,2.582,1.229,5.532,5.532,0,0,1,.921,3.387Zm-2.4-.174a3.535,3.535,0,0,0-.444-1.934,1.446,1.446,0,0,0-1.291-.681,1.571,1.571,0,0,0-1.552.863v3.677a1.6,1.6,0,0,0,1.569.888Q86.992,23.232,86.992,20.418ZM93.409,25H91V16.019h2.407ZM90.86,13.694a1.181,1.181,0,0,1,.361-.888,1.556,1.556,0,0,1,1.963,0,1.268,1.268,0,0,1,0,1.785,1.539,1.539,0,0,1-1.951,0A1.178,1.178,0,0,1,90.86,13.694Zm9.571,4.574a6.517,6.517,0,0,0-.863-.066,1.757,1.757,0,0,0-1.785.921V25h-2.4V16.019H97.65l.066,1.071a2.223,2.223,0,0,1,2-1.237,2.514,2.514,0,0,1,.747.108ZM106.541,25a2.664,2.664,0,0,1-.241-.805,2.9,2.9,0,0,1-2.266.971,3.189,3.189,0,0,1-2.187-.764,2.456,2.456,0,0,1-.867-1.926,2.538,2.538,0,0,1,1.058-2.191,5.222,5.222,0,0,1,3.059-.772h1.1V19a1.48,1.48,0,0,0-.32-1,1.257,1.257,0,0,0-1.009-.374,1.429,1.429,0,0,0-.95.291.987.987,0,0,0-.344.8h-2.4a2.41,2.41,0,0,1,.481-1.444,3.182,3.182,0,0,1,1.361-1.042A4.961,4.961,0,0,1,105,15.853a3.92,3.92,0,0,1,2.635.834,2.918,2.918,0,0,1,.975,2.345v3.893a4.294,4.294,0,0,0,.357,1.934V25Zm-1.984-1.668a2.066,2.066,0,0,0,.979-.237,1.554,1.554,0,0,0,.664-.635V20.916h-.9q-1.8,0-1.917,1.245l-.008.141a.96.96,0,0,0,.315.739A1.225,1.225,0,0,0,104.557,23.332Zm8.766-9.521v2.208h1.536v1.76h-1.536v4.482a1.07,1.07,0,0,0,.191.714.959.959,0,0,0,.73.216,3.826,3.826,0,0,0,.706-.058V24.95a4.938,4.938,0,0,1-1.453.216,2.29,2.29,0,0,1-2.573-2.548V17.778h-1.312v-1.76h1.312V13.811ZM121.4,25a2.664,2.664,0,0,1-.241-.805,2.9,2.9,0,0,1-2.266.971A3.189,3.189,0,0,1,116.7,24.4a2.456,2.456,0,0,1-.867-1.926,2.538,2.538,0,0,1,1.058-2.191,5.222,5.222,0,0,1,3.059-.772h1.1V19a1.48,1.48,0,0,0-.32-1,1.257,1.257,0,0,0-1.009-.374,1.429,1.429,0,0,0-.95.291.987.987,0,0,0-.344.8h-2.4a2.41,2.41,0,0,1,.481-1.444,3.182,3.182,0,0,1,1.361-1.042,4.961,4.961,0,0,1,1.976-.378,3.92,3.92,0,0,1,2.635.834,2.918,2.918,0,0,1,.975,2.345v3.893a4.294,4.294,0,0,0,.357,1.934V25Zm-1.984-1.668a2.066,2.066,0,0,0,.979-.237,1.554,1.554,0,0,0,.664-.635V20.916h-.9q-1.8,0-1.917,1.245l-.008.141a.96.96,0,0,0,.315.739A1.225,1.225,0,0,0,119.415,23.332Z" transform="translate(0 15.557)" fill="#12263f"/>
      </g>
      <g id="Grupo_1076530" data-name="Grupo 1076530" transform="translate(-5891 -7337.557)">
        <path id="Trazado_614447" data-name="Trazado 614447" d="M10.227-12.086v7.96A4.076,4.076,0,0,1,8.986-.988,4.784,4.784,0,0,1,5.595.166,4.838,4.838,0,0,1,2.233-.955a4.006,4.006,0,0,1-1.27-3.08v-8.052h2.49v7.977a2.3,2.3,0,0,0,.569,1.731,2.183,2.183,0,0,0,1.573.544q2.1,0,2.133-2.208v-8.043Zm4.756.9v2.208h1.536v1.76H14.983v4.482a1.07,1.07,0,0,0,.191.714.959.959,0,0,0,.73.216,3.826,3.826,0,0,0,.706-.058V-.05a4.939,4.939,0,0,1-1.453.216,2.29,2.29,0,0,1-2.573-2.548V-7.222H11.272v-1.76h1.312v-2.208ZM20.387,0H17.979V-8.981h2.407ZM17.838-11.306a1.181,1.181,0,0,1,.361-.888,1.356,1.356,0,0,1,.984-.349,1.36,1.36,0,0,1,.979.349,1.175,1.175,0,0,1,.365.888,1.178,1.178,0,0,1-.369.9,1.363,1.363,0,0,1-.975.349,1.363,1.363,0,0,1-.975-.349A1.178,1.178,0,0,1,17.838-11.306ZM24.894,0H22.487V-12.75h2.407ZM29.4,0H26.994V-8.981H29.4ZM26.853-11.306a1.181,1.181,0,0,1,.361-.888,1.356,1.356,0,0,1,.984-.349,1.36,1.36,0,0,1,.979.349,1.175,1.175,0,0,1,.365.888,1.178,1.178,0,0,1-.369.9,1.363,1.363,0,0,1-.975.349,1.363,1.363,0,0,1-.975-.349A1.178,1.178,0,0,1,26.853-11.306Zm7.28,9.372h4.391V0H31.07V-1.461l4.225-5.586h-4.1V-8.981h7.2v1.413ZM45.231,0a2.664,2.664,0,0,1-.241-.805,2.9,2.9,0,0,1-2.266.971A3.189,3.189,0,0,1,40.537-.6a2.456,2.456,0,0,1-.867-1.926,2.538,2.538,0,0,1,1.058-2.191,5.222,5.222,0,0,1,3.059-.772h1.1V-6a1.48,1.48,0,0,0-.32-1,1.257,1.257,0,0,0-1.009-.374,1.429,1.429,0,0,0-.95.291.987.987,0,0,0-.344.8h-2.4a2.41,2.41,0,0,1,.481-1.444A3.182,3.182,0,0,1,41.711-8.77a4.961,4.961,0,0,1,1.976-.378,3.92,3.92,0,0,1,2.635.834A2.918,2.918,0,0,1,47.3-5.968v3.893a4.294,4.294,0,0,0,.357,1.934V0ZM43.247-1.668a2.066,2.066,0,0,0,.979-.237,1.554,1.554,0,0,0,.664-.635V-4.084h-.9q-1.8,0-1.917,1.245l-.008.141a.96.96,0,0,0,.315.739A1.225,1.225,0,0,0,43.247-1.668Zm10.94-5.063a6.517,6.517,0,0,0-.863-.066,1.757,1.757,0,0,0-1.785.921V0h-2.4V-8.981h2.266l.066,1.071a2.223,2.223,0,0,1,2-1.237,2.514,2.514,0,0,1,.747.108ZM67.66-4.408a5.387,5.387,0,0,1-.942,3.324A3.021,3.021,0,0,1,64.173.166a2.8,2.8,0,0,1-2.2-.946V3.453h-2.4V-8.981H61.8l.083.88a2.819,2.819,0,0,1,2.274-1.046,3.041,3.041,0,0,1,2.582,1.229,5.532,5.532,0,0,1,.921,3.387Zm-2.4-.174a3.535,3.535,0,0,0-.444-1.934A1.446,1.446,0,0,0,63.526-7.2a1.571,1.571,0,0,0-1.552.863v3.677a1.6,1.6,0,0,0,1.569.888Q65.261-1.768,65.261-4.582Zm8.932-2.15a6.517,6.517,0,0,0-.863-.066,1.757,1.757,0,0,0-1.785.921V0h-2.4V-8.981h2.266l.066,1.071a2.223,2.223,0,0,1,2-1.237,2.514,2.514,0,0,1,.747.108Zm.481,2.158a5.326,5.326,0,0,1,.515-2.382A3.768,3.768,0,0,1,76.67-8.575a4.323,4.323,0,0,1,2.245-.573,4.09,4.09,0,0,1,2.968,1.112,4.464,4.464,0,0,1,1.282,3.021l.017.614a4.694,4.694,0,0,1-1.154,3.316,4.011,4.011,0,0,1-3.1,1.249,4.031,4.031,0,0,1-3.1-1.245,4.777,4.777,0,0,1-1.158-3.387Zm2.4.17a3.357,3.357,0,0,0,.481,1.958,1.588,1.588,0,0,0,1.378.678,1.592,1.592,0,0,0,1.361-.669,3.674,3.674,0,0,0,.49-2.141,3.324,3.324,0,0,0-.49-1.945,1.592,1.592,0,0,0-1.378-.69,1.566,1.566,0,0,0-1.361.686A3.736,3.736,0,0,0,77.073-4.4Zm10.459-6.786v2.208h1.536v1.76H87.532v4.482a1.07,1.07,0,0,0,.191.714.959.959,0,0,0,.73.216,3.826,3.826,0,0,0,.706-.058V-.05a4.939,4.939,0,0,1-1.453.216,2.29,2.29,0,0,1-2.573-2.548V-7.222H83.821v-1.76h1.312v-2.208Zm2.25,6.616A5.326,5.326,0,0,1,90.3-6.956a3.768,3.768,0,0,1,1.482-1.619,4.323,4.323,0,0,1,2.245-.573A4.09,4.09,0,0,1,96.99-8.035a4.464,4.464,0,0,1,1.282,3.021l.017.614a4.694,4.694,0,0,1-1.154,3.316A4.011,4.011,0,0,1,94.04.166a4.031,4.031,0,0,1-3.1-1.245,4.777,4.777,0,0,1-1.158-3.387Zm2.4.17a3.357,3.357,0,0,0,.481,1.958,1.588,1.588,0,0,0,1.378.678A1.592,1.592,0,0,0,95.4-2.437a3.674,3.674,0,0,0,.49-2.141,3.324,3.324,0,0,0-.49-1.945,1.592,1.592,0,0,0-1.378-.69,1.566,1.566,0,0,0-1.361.686A3.736,3.736,0,0,0,92.18-4.4ZM103.5-1.768a1.573,1.573,0,0,0,1.079-.365,1.28,1.28,0,0,0,.432-.971h2.25a3.077,3.077,0,0,1-.5,1.673,3.286,3.286,0,0,1-1.341,1.179,4.2,4.2,0,0,1-1.88.419,3.9,3.9,0,0,1-3.038-1.224,4.845,4.845,0,0,1-1.112-3.383V-4.6a4.79,4.79,0,0,1,1.1-3.312,3.854,3.854,0,0,1,3.03-1.237,3.778,3.778,0,0,1,2.7.959,3.4,3.4,0,0,1,1.033,2.552h-2.25a1.648,1.648,0,0,0-.432-1.139,1.439,1.439,0,0,0-1.1-.438,1.445,1.445,0,0,0-1.266.611,3.541,3.541,0,0,0-.427,1.983v.249a3.586,3.586,0,0,0,.423,2A1.463,1.463,0,0,0,103.5-1.768Zm4.756-2.806a5.326,5.326,0,0,1,.515-2.382,3.768,3.768,0,0,1,1.482-1.619,4.323,4.323,0,0,1,2.245-.573,4.09,4.09,0,0,1,2.968,1.112,4.464,4.464,0,0,1,1.282,3.021l.017.614a4.694,4.694,0,0,1-1.154,3.316,4.011,4.011,0,0,1-3.1,1.249,4.031,4.031,0,0,1-3.1-1.245,4.777,4.777,0,0,1-1.158-3.387Zm2.4.17a3.357,3.357,0,0,0,.481,1.958,1.588,1.588,0,0,0,1.378.678,1.592,1.592,0,0,0,1.361-.669,3.674,3.674,0,0,0,.49-2.141,3.324,3.324,0,0,0-.49-1.945,1.592,1.592,0,0,0-1.378-.69,1.566,1.566,0,0,0-1.361.686A3.736,3.736,0,0,0,110.658-4.4ZM120.776,0h-2.407V-12.75h2.407Zm1.6-4.574a5.326,5.326,0,0,1,.515-2.382,3.768,3.768,0,0,1,1.482-1.619,4.323,4.323,0,0,1,2.245-.573,4.09,4.09,0,0,1,2.968,1.112,4.464,4.464,0,0,1,1.282,3.021l.017.614a4.694,4.694,0,0,1-1.154,3.316,4.011,4.011,0,0,1-3.1,1.249,4.031,4.031,0,0,1-3.1-1.245,4.777,4.777,0,0,1-1.158-3.387Zm2.4.17a3.357,3.357,0,0,0,.481,1.958,1.588,1.588,0,0,0,1.378.678A1.592,1.592,0,0,0,128-2.437a3.674,3.674,0,0,0,.49-2.141A3.324,3.324,0,0,0,128-6.523a1.592,1.592,0,0,0-1.378-.69,1.566,1.566,0,0,0-1.361.686A3.736,3.736,0,0,0,124.777-4.4Zm12.451,1.922a.773.773,0,0,0-.436-.693,4.95,4.95,0,0,0-1.4-.452q-3.2-.672-3.2-2.723a2.468,2.468,0,0,1,.992-2,4,4,0,0,1,2.594-.8,4.307,4.307,0,0,1,2.735.805,2.538,2.538,0,0,1,1.025,2.092h-2.4a1.161,1.161,0,0,0-.332-.851,1.405,1.405,0,0,0-1.038-.336,1.436,1.436,0,0,0-.938.274.865.865,0,0,0-.332.7.739.739,0,0,0,.378.643,3.885,3.885,0,0,0,1.274.423,10.407,10.407,0,0,1,1.511.4,2.482,2.482,0,0,1,1.9,2.416,2.343,2.343,0,0,1-1.054,1.988,4.548,4.548,0,0,1-2.723.76,4.75,4.75,0,0,1-2-.4,3.363,3.363,0,0,1-1.374-1.1,2.565,2.565,0,0,1-.5-1.515h2.274a1.252,1.252,0,0,0,.473.979,1.877,1.877,0,0,0,1.179.34,1.737,1.737,0,0,0,1.042-.261A.814.814,0,0,0,137.229-2.482ZM.548,20.443A5.413,5.413,0,0,1,1.49,17.1a3.057,3.057,0,0,1,2.577-1.245,2.751,2.751,0,0,1,2.167.979V12.25H8.641V25H6.475l-.116-.955a2.823,2.823,0,0,1-2.308,1.121,3.049,3.049,0,0,1-2.544-1.249A5.587,5.587,0,0,1,.548,20.443Zm2.4.179a3.546,3.546,0,0,0,.44,1.937,1.433,1.433,0,0,0,1.278.673,1.605,1.605,0,0,0,1.569-.939v-3.55A1.582,1.582,0,0,0,4.682,17.8Q2.947,17.8,2.947,20.621Zm11.688,4.545a4.409,4.409,0,0,1-3.217-1.212,4.308,4.308,0,0,1-1.241-3.229v-.232a5.426,5.426,0,0,1,.523-2.42,3.838,3.838,0,0,1,1.482-1.644,4.159,4.159,0,0,1,2.187-.577,3.727,3.727,0,0,1,2.9,1.162,4.722,4.722,0,0,1,1.058,3.3v.979H12.609a2.229,2.229,0,0,0,.7,1.411,2.12,2.12,0,0,0,1.482.531,2.589,2.589,0,0,0,2.167-1l1.179,1.32a3.6,3.6,0,0,1-1.461,1.191A4.793,4.793,0,0,1,14.634,25.166Zm-.274-7.379a1.5,1.5,0,0,0-1.158.484,2.5,2.5,0,0,0-.569,1.384h3.337v-.192a1.786,1.786,0,0,0-.432-1.238A1.547,1.547,0,0,0,14.36,17.787Zm14.427,4.731a.773.773,0,0,0-.436-.693,4.95,4.95,0,0,0-1.4-.452q-3.2-.672-3.2-2.723a2.468,2.468,0,0,1,.992-2,4,4,0,0,1,2.594-.8,4.307,4.307,0,0,1,2.735.805,2.538,2.538,0,0,1,1.025,2.092H28.7a1.161,1.161,0,0,0-.332-.851,1.405,1.405,0,0,0-1.038-.336,1.436,1.436,0,0,0-.938.274.865.865,0,0,0-.332.7.739.739,0,0,0,.378.643,3.885,3.885,0,0,0,1.274.423,10.407,10.407,0,0,1,1.511.4,2.482,2.482,0,0,1,1.9,2.416,2.343,2.343,0,0,1-1.054,1.988,4.548,4.548,0,0,1-2.723.76,4.75,4.75,0,0,1-2-.4,3.363,3.363,0,0,1-1.374-1.1,2.565,2.565,0,0,1-.5-1.515h2.274a1.252,1.252,0,0,0,.473.979,1.877,1.877,0,0,0,1.179.34,1.737,1.737,0,0,0,1.042-.261A.814.814,0,0,0,28.787,22.518Zm8.01,2.648a4.409,4.409,0,0,1-3.217-1.212,4.308,4.308,0,0,1-1.241-3.229v-.232a5.426,5.426,0,0,1,.523-2.42,3.838,3.838,0,0,1,1.482-1.644,4.159,4.159,0,0,1,2.187-.577,3.727,3.727,0,0,1,2.9,1.162,4.722,4.722,0,0,1,1.058,3.3v.979H34.772a2.229,2.229,0,0,0,.7,1.411,2.12,2.12,0,0,0,1.482.531,2.589,2.589,0,0,0,2.167-1l1.179,1.32a3.6,3.6,0,0,1-1.461,1.191A4.793,4.793,0,0,1,36.8,25.166Zm-.274-7.379a1.5,1.5,0,0,0-1.158.484,2.5,2.5,0,0,0-.569,1.384h3.337v-.192a1.786,1.786,0,0,0-.432-1.238A1.547,1.547,0,0,0,36.523,17.787Zm4.98,2.656a5.264,5.264,0,0,1,.984-3.329,3.187,3.187,0,0,1,2.652-1.262,2.8,2.8,0,0,1,2.3,1.013l.1-.847h2.175V24.7a3.839,3.839,0,0,1-.535,2.05,3.439,3.439,0,0,1-1.507,1.328,5.3,5.3,0,0,1-2.274.457,4.925,4.925,0,0,1-1.926-.394,3.418,3.418,0,0,1-1.419-1.017l1.063-1.461a2.81,2.81,0,0,0,2.175,1,2.057,2.057,0,0,0,1.486-.51,1.915,1.915,0,0,0,.531-1.448v-.481a2.775,2.775,0,0,1-2.183.938A3.179,3.179,0,0,1,42.5,23.9a5.262,5.262,0,0,1-1-3.358Zm2.4.179a3.278,3.278,0,0,0,.49,1.916,1.558,1.558,0,0,0,1.345.694,1.666,1.666,0,0,0,1.569-.823V18.626a1.662,1.662,0,0,0-1.552-.823,1.568,1.568,0,0,0-1.357.707A3.694,3.694,0,0,0,43.9,20.621Zm13.032,3.465a3.008,3.008,0,0,1-2.457,1.079,2.837,2.837,0,0,1-2.2-.83A3.543,3.543,0,0,1,51.5,21.9V16.019h2.4v5.809q0,1.4,1.278,1.4a1.732,1.732,0,0,0,1.677-.848V16.019h2.407V25H57Zm9.181-5.819a6.517,6.517,0,0,0-.863-.066,1.757,1.757,0,0,0-1.785.921V25h-2.4V16.019h2.266l.066,1.071a2.223,2.223,0,0,1,2-1.237,2.514,2.514,0,0,1,.747.108ZM69.8,25H67.394V16.019H69.8ZM67.253,13.694a1.181,1.181,0,0,1,.361-.888,1.556,1.556,0,0,1,1.963,0,1.268,1.268,0,0,1,0,1.785,1.539,1.539,0,0,1-1.951,0A1.178,1.178,0,0,1,67.253,13.694Zm4.15,6.749a5.413,5.413,0,0,1,.942-3.345,3.057,3.057,0,0,1,2.577-1.245,2.751,2.751,0,0,1,2.167.979V12.25H79.5V25H77.33l-.116-.955a2.823,2.823,0,0,1-2.308,1.121,3.049,3.049,0,0,1-2.544-1.249A5.587,5.587,0,0,1,71.4,20.443Zm2.4.179a3.546,3.546,0,0,0,.44,1.937,1.433,1.433,0,0,0,1.278.673,1.605,1.605,0,0,0,1.569-.939v-3.55a1.582,1.582,0,0,0-1.552-.939Q73.8,17.8,73.8,20.621ZM86.561,25a2.664,2.664,0,0,1-.241-.805,2.9,2.9,0,0,1-2.266.971,3.189,3.189,0,0,1-2.187-.764A2.456,2.456,0,0,1,81,22.477a2.538,2.538,0,0,1,1.058-2.191,5.222,5.222,0,0,1,3.059-.772h1.1V19a1.48,1.48,0,0,0-.32-1,1.257,1.257,0,0,0-1.009-.374,1.429,1.429,0,0,0-.95.291.987.987,0,0,0-.344.8H81.2a2.41,2.41,0,0,1,.481-1.444,3.182,3.182,0,0,1,1.361-1.042,4.961,4.961,0,0,1,1.976-.378,3.92,3.92,0,0,1,2.635.834,2.918,2.918,0,0,1,.975,2.345v3.893a4.294,4.294,0,0,0,.357,1.934V25Zm-1.984-1.668a2.066,2.066,0,0,0,.979-.237,1.554,1.554,0,0,0,.664-.635V20.916h-.9q-1.8,0-1.917,1.245L83.4,22.3a.96.96,0,0,0,.315.739A1.225,1.225,0,0,0,84.577,23.332Zm5.52-2.889a5.413,5.413,0,0,1,.942-3.345,3.057,3.057,0,0,1,2.577-1.245,2.751,2.751,0,0,1,2.167.979V12.25H98.19V25H96.023l-.116-.955A2.823,2.823,0,0,1,93.6,25.166a3.049,3.049,0,0,1-2.544-1.249A5.587,5.587,0,0,1,90.1,20.443Zm2.4.179a3.546,3.546,0,0,0,.44,1.937,1.433,1.433,0,0,0,1.278.673,1.605,1.605,0,0,0,1.569-.939v-3.55A1.582,1.582,0,0,0,94.23,17.8Q92.5,17.8,92.5,20.621Z" transform="translate(0 15.557)" fill="#12263f"/>
      </g>
      <g id="Grupo_1076529" data-name="Grupo 1076529" transform="translate(-5658 -7269.807)">
        <path id="Trazado_614445" data-name="Trazado 614445" d="M8.351-5.238H3.569V-2H9.181V0h-8.1V-12.086H9.164v2.017H3.569v2.88H8.351ZM13.63-2.93,15.3-8.981h2.507L14.775,0H12.484L9.455-8.981h2.507ZM21.391,0H18.984V-8.981h2.407ZM18.843-11.306a1.181,1.181,0,0,1,.361-.888,1.356,1.356,0,0,1,.984-.349,1.36,1.36,0,0,1,.979.349,1.175,1.175,0,0,1,.365.888,1.178,1.178,0,0,1-.369.9,1.363,1.363,0,0,1-.975.349,1.363,1.363,0,0,1-.975-.349A1.178,1.178,0,0,1,18.843-11.306Zm7.4.116v2.208h1.536v1.76H26.239v4.482a1.07,1.07,0,0,0,.191.714.959.959,0,0,0,.73.216,3.826,3.826,0,0,0,.706-.058V-.05a4.939,4.939,0,0,1-1.453.216A2.29,2.29,0,0,1,23.84-2.382V-7.222H22.528v-1.76H23.84v-2.208ZM34.315,0a2.664,2.664,0,0,1-.241-.805,2.9,2.9,0,0,1-2.266.971A3.189,3.189,0,0,1,29.621-.6a2.456,2.456,0,0,1-.867-1.926,2.538,2.538,0,0,1,1.058-2.191,5.222,5.222,0,0,1,3.059-.772h1.1V-6a1.48,1.48,0,0,0-.32-1,1.257,1.257,0,0,0-1.009-.374,1.429,1.429,0,0,0-.95.291.987.987,0,0,0-.344.8h-2.4a2.41,2.41,0,0,1,.481-1.444A3.182,3.182,0,0,1,30.8-8.77a4.961,4.961,0,0,1,1.976-.378,3.92,3.92,0,0,1,2.635.834,2.918,2.918,0,0,1,.975,2.345v3.893a4.294,4.294,0,0,0,.357,1.934V0ZM32.332-1.668a2.066,2.066,0,0,0,.979-.237,1.554,1.554,0,0,0,.664-.635V-4.084h-.9q-1.8,0-1.917,1.245l-.008.141a.96.96,0,0,0,.315.739A1.225,1.225,0,0,0,32.332-1.668Zm10.94-5.063a6.517,6.517,0,0,0-.863-.066,1.757,1.757,0,0,0-1.785.921V0h-2.4V-8.981h2.266l.066,1.071a2.223,2.223,0,0,1,2-1.237,2.514,2.514,0,0,1,.747.108Zm5.014,2.175A5.413,5.413,0,0,1,49.228-7.9a3.057,3.057,0,0,1,2.577-1.245,2.751,2.751,0,0,1,2.167.979V-12.75h2.407V0H54.212L54.1-.955A2.823,2.823,0,0,1,51.789.166a3.049,3.049,0,0,1-2.544-1.249A5.587,5.587,0,0,1,48.286-4.557Zm2.4.179a3.546,3.546,0,0,0,.44,1.937,1.433,1.433,0,0,0,1.278.673,1.605,1.605,0,0,0,1.569-.939v-3.55A1.582,1.582,0,0,0,52.419-7.2Q50.685-7.2,50.685-4.379ZM63.443,0A2.664,2.664,0,0,1,63.2-.805a2.9,2.9,0,0,1-2.266.971A3.189,3.189,0,0,1,58.749-.6a2.456,2.456,0,0,1-.867-1.926A2.538,2.538,0,0,1,58.94-4.715,5.222,5.222,0,0,1,62-5.487h1.1V-6a1.48,1.48,0,0,0-.32-1,1.257,1.257,0,0,0-1.009-.374,1.429,1.429,0,0,0-.95.291.987.987,0,0,0-.344.8h-2.4a2.41,2.41,0,0,1,.481-1.444A3.182,3.182,0,0,1,59.923-8.77,4.961,4.961,0,0,1,61.9-9.147a3.92,3.92,0,0,1,2.635.834,2.918,2.918,0,0,1,.975,2.345v3.893a4.294,4.294,0,0,0,.357,1.934V0ZM61.459-1.668a2.066,2.066,0,0,0,.979-.237A1.554,1.554,0,0,0,63.1-2.54V-4.084h-.9q-1.8,0-1.917,1.245L60.28-2.7a.96.96,0,0,0,.315.739A1.225,1.225,0,0,0,61.459-1.668ZM72.4-6.732a6.517,6.517,0,0,0-.863-.066,1.757,1.757,0,0,0-1.785.921V0h-2.4V-8.981h2.266l.066,1.071a2.223,2.223,0,0,1,2-1.237,2.514,2.514,0,0,1,.747.108Zm5.014,2.175A5.413,5.413,0,0,1,78.355-7.9a3.057,3.057,0,0,1,2.577-1.245,2.751,2.751,0,0,1,2.167.979V-12.75h2.407V0H83.34l-.116-.955A2.823,2.823,0,0,1,80.916.166a3.049,3.049,0,0,1-2.544-1.249A5.587,5.587,0,0,1,77.413-4.557Zm2.4.179a3.546,3.546,0,0,0,.44,1.937,1.433,1.433,0,0,0,1.278.673A1.605,1.605,0,0,0,83.1-2.707v-3.55A1.582,1.582,0,0,0,81.547-7.2Q79.812-7.2,79.812-4.379ZM92.57,0a2.664,2.664,0,0,1-.241-.805,2.9,2.9,0,0,1-2.266.971A3.189,3.189,0,0,1,87.876-.6a2.456,2.456,0,0,1-.867-1.926,2.538,2.538,0,0,1,1.058-2.191,5.222,5.222,0,0,1,3.059-.772h1.1V-6a1.48,1.48,0,0,0-.32-1A1.257,1.257,0,0,0,90.9-7.371a1.429,1.429,0,0,0-.95.291.987.987,0,0,0-.344.8h-2.4a2.41,2.41,0,0,1,.481-1.444A3.182,3.182,0,0,1,89.051-8.77a4.961,4.961,0,0,1,1.976-.378,3.92,3.92,0,0,1,2.635.834,2.918,2.918,0,0,1,.975,2.345v3.893a4.294,4.294,0,0,0,.357,1.934V0ZM90.586-1.668a2.066,2.066,0,0,0,.979-.237,1.554,1.554,0,0,0,.664-.635V-4.084h-.9q-1.8,0-1.917,1.245l-.008.141a.96.96,0,0,0,.315.739A1.225,1.225,0,0,0,90.586-1.668Zm8.766-9.521v2.208h1.536v1.76H99.352v4.482a1.07,1.07,0,0,0,.191.714.959.959,0,0,0,.73.216,3.826,3.826,0,0,0,.706-.058V-.05a4.939,4.939,0,0,1-1.453.216,2.29,2.29,0,0,1-2.573-2.548V-7.222H95.642v-1.76h1.312v-2.208Zm2.25,6.616a5.326,5.326,0,0,1,.515-2.382A3.768,3.768,0,0,1,103.6-8.575a4.323,4.323,0,0,1,2.245-.573,4.09,4.09,0,0,1,2.968,1.112,4.464,4.464,0,0,1,1.282,3.021l.017.614a4.694,4.694,0,0,1-1.154,3.316,4.011,4.011,0,0,1-3.1,1.249,4.031,4.031,0,0,1-3.1-1.245A4.777,4.777,0,0,1,101.6-4.466Zm2.4.17a3.357,3.357,0,0,0,.481,1.958,1.588,1.588,0,0,0,1.378.678,1.592,1.592,0,0,0,1.361-.669,3.674,3.674,0,0,0,.49-2.141,3.324,3.324,0,0,0-.49-1.945,1.592,1.592,0,0,0-1.378-.69,1.566,1.566,0,0,0-1.361.686A3.736,3.736,0,0,0,104-4.4Zm12.451,1.922a.773.773,0,0,0-.436-.693,4.95,4.95,0,0,0-1.4-.452q-3.2-.672-3.2-2.723a2.468,2.468,0,0,1,.992-2,4,4,0,0,1,2.594-.8,4.307,4.307,0,0,1,2.735.805,2.538,2.538,0,0,1,1.025,2.092h-2.4a1.161,1.161,0,0,0-.332-.851,1.405,1.405,0,0,0-1.038-.336,1.436,1.436,0,0,0-.938.274.865.865,0,0,0-.332.7.739.739,0,0,0,.378.643,3.885,3.885,0,0,0,1.274.423,10.407,10.407,0,0,1,1.511.4,2.482,2.482,0,0,1,1.9,2.416A2.343,2.343,0,0,1,117.73-.594a4.548,4.548,0,0,1-2.723.76,4.75,4.75,0,0,1-2-.4,3.363,3.363,0,0,1-1.374-1.1,2.565,2.565,0,0,1-.5-1.515h2.274a1.252,1.252,0,0,0,.473.979,1.877,1.877,0,0,0,1.179.34A1.737,1.737,0,0,0,116.1-1.8.814.814,0,0,0,116.452-2.482ZM9.006,20.592a5.387,5.387,0,0,1-.942,3.324A3.021,3.021,0,0,1,5.52,25.166a2.8,2.8,0,0,1-2.2-.946v4.233H.921V16.019H3.146l.083.88A2.819,2.819,0,0,1,5.5,15.853a3.041,3.041,0,0,1,2.582,1.229,5.532,5.532,0,0,1,.921,3.387Zm-2.4-.174a3.535,3.535,0,0,0-.444-1.934A1.446,1.446,0,0,0,4.873,17.8a1.571,1.571,0,0,0-1.552.863v3.677a1.6,1.6,0,0,0,1.569.888Q6.607,23.232,6.607,20.418Zm8.019,4.748a4.409,4.409,0,0,1-3.217-1.212,4.308,4.308,0,0,1-1.241-3.229v-.232a5.426,5.426,0,0,1,.523-2.42,3.838,3.838,0,0,1,1.482-1.644,4.159,4.159,0,0,1,2.187-.577,3.727,3.727,0,0,1,2.9,1.162,4.722,4.722,0,0,1,1.058,3.3v.979H12.6a2.229,2.229,0,0,0,.7,1.411,2.12,2.12,0,0,0,1.482.531,2.589,2.589,0,0,0,2.167-1l1.179,1.32a3.6,3.6,0,0,1-1.461,1.191A4.793,4.793,0,0,1,14.626,25.166Zm-.274-7.379a1.5,1.5,0,0,0-1.158.484,2.5,2.5,0,0,0-.569,1.384h3.337v-.192a1.786,1.786,0,0,0-.432-1.238A1.547,1.547,0,0,0,14.352,17.787Zm10.376.481a6.517,6.517,0,0,0-.863-.066,1.757,1.757,0,0,0-1.785.921V25h-2.4V16.019h2.266l.066,1.071a2.223,2.223,0,0,1,2-1.237,2.514,2.514,0,0,1,.747.108Zm6.018,4.25a.773.773,0,0,0-.436-.693,4.95,4.95,0,0,0-1.4-.452q-3.2-.672-3.2-2.723a2.468,2.468,0,0,1,.992-2,4,4,0,0,1,2.594-.8,4.307,4.307,0,0,1,2.735.805,2.538,2.538,0,0,1,1.025,2.092h-2.4a1.161,1.161,0,0,0-.332-.851,1.405,1.405,0,0,0-1.038-.336,1.436,1.436,0,0,0-.938.274.865.865,0,0,0-.332.7.739.739,0,0,0,.378.643,3.885,3.885,0,0,0,1.274.423,10.407,10.407,0,0,1,1.511.4,2.482,2.482,0,0,1,1.9,2.416,2.343,2.343,0,0,1-1.054,1.988,4.548,4.548,0,0,1-2.723.76,4.75,4.75,0,0,1-2-.4,3.363,3.363,0,0,1-1.374-1.1,2.565,2.565,0,0,1-.5-1.515H27.7a1.252,1.252,0,0,0,.473.979,1.877,1.877,0,0,0,1.179.34,1.737,1.737,0,0,0,1.042-.261A.814.814,0,0,0,30.746,22.518Zm3.5-2.092a5.327,5.327,0,0,1,.515-2.382,3.767,3.767,0,0,1,1.482-1.619,4.323,4.323,0,0,1,2.245-.573,4.09,4.09,0,0,1,2.968,1.112,4.464,4.464,0,0,1,1.282,3.021l.017.614A4.694,4.694,0,0,1,41.6,23.917a4.472,4.472,0,0,1-6.2,0,4.777,4.777,0,0,1-1.158-3.387Zm2.4.17a3.357,3.357,0,0,0,.481,1.958,1.73,1.73,0,0,0,2.739.008,3.674,3.674,0,0,0,.49-2.141,3.324,3.324,0,0,0-.49-1.945,1.592,1.592,0,0,0-1.378-.69,1.566,1.566,0,0,0-1.361.686A3.735,3.735,0,0,0,36.648,20.6Zm9.795-4.578.075,1.038a3.136,3.136,0,0,1,2.582-1.2,2.606,2.606,0,0,1,2.125.838,3.912,3.912,0,0,1,.714,2.507V25h-2.4V19.256a1.556,1.556,0,0,0-.332-1.108,1.486,1.486,0,0,0-1.1-.344,1.65,1.65,0,0,0-1.519.863V25h-2.4V16.019ZM58.96,25a2.664,2.664,0,0,1-.241-.805,2.9,2.9,0,0,1-2.266.971,3.189,3.189,0,0,1-2.187-.764,2.456,2.456,0,0,1-.867-1.926,2.538,2.538,0,0,1,1.058-2.191,5.222,5.222,0,0,1,3.059-.772h1.1V19a1.48,1.48,0,0,0-.32-1,1.257,1.257,0,0,0-1.009-.374,1.429,1.429,0,0,0-.95.291.987.987,0,0,0-.344.8H53.6a2.41,2.41,0,0,1,.481-1.444,3.182,3.182,0,0,1,1.361-1.042,4.961,4.961,0,0,1,1.976-.378,3.92,3.92,0,0,1,2.635.834,2.918,2.918,0,0,1,.975,2.345v3.893a4.294,4.294,0,0,0,.357,1.934V25Zm-1.984-1.668a2.066,2.066,0,0,0,.979-.237,1.554,1.554,0,0,0,.664-.635V20.916h-.9q-1.8,0-1.917,1.245L55.8,22.3a.96.96,0,0,0,.315.739A1.225,1.225,0,0,0,56.977,23.332ZM65.4,25H62.995V12.25H65.4Zm6.109.166a4.409,4.409,0,0,1-3.217-1.212,4.308,4.308,0,0,1-1.241-3.229v-.232a5.426,5.426,0,0,1,.523-2.42,3.838,3.838,0,0,1,1.482-1.644,4.159,4.159,0,0,1,2.187-.577,3.727,3.727,0,0,1,2.9,1.162,4.722,4.722,0,0,1,1.058,3.3v.979H69.486a2.229,2.229,0,0,0,.7,1.411,2.12,2.12,0,0,0,1.482.531,2.589,2.589,0,0,0,2.167-1l1.179,1.32a3.6,3.6,0,0,1-1.461,1.191A4.793,4.793,0,0,1,71.511,25.166Zm-.274-7.379a1.5,1.5,0,0,0-1.158.484,2.5,2.5,0,0,0-.569,1.384h3.337v-.192a1.786,1.786,0,0,0-.432-1.238A1.547,1.547,0,0,0,71.237,17.787Zm10.193,4.731a.773.773,0,0,0-.436-.693,4.95,4.95,0,0,0-1.4-.452q-3.2-.672-3.2-2.723a2.468,2.468,0,0,1,.992-2,4,4,0,0,1,2.594-.8,4.307,4.307,0,0,1,2.735.805,2.538,2.538,0,0,1,1.025,2.092h-2.4a1.161,1.161,0,0,0-.332-.851,1.405,1.405,0,0,0-1.038-.336,1.436,1.436,0,0,0-.938.274.865.865,0,0,0-.332.7.739.739,0,0,0,.378.643,3.885,3.885,0,0,0,1.274.423,10.407,10.407,0,0,1,1.511.4,2.482,2.482,0,0,1,1.9,2.416,2.343,2.343,0,0,1-1.054,1.988,4.548,4.548,0,0,1-2.723.76,4.75,4.75,0,0,1-2-.4,3.363,3.363,0,0,1-1.374-1.1,2.565,2.565,0,0,1-.5-1.515h2.274a1.252,1.252,0,0,0,.473.979,1.877,1.877,0,0,0,1.179.34,1.737,1.737,0,0,0,1.042-.261A.814.814,0,0,0,81.431,22.518Z" transform="translate(0 15.557)" fill="#12263f"/>
      </g>
      <g id="Grupo_1076531" data-name="Grupo 1076531" transform="translate(-5882.729 -7269.807)">
        <path id="Trazado_614446" data-name="Trazado 614446" d="M10.567-4.026A4.277,4.277,0,0,1,9.127-.955,5.058,5.058,0,0,1,5.7.166,4.548,4.548,0,0,1,2.046-1.4a6.416,6.416,0,0,1-1.332-4.3v-.739A7.245,7.245,0,0,1,1.328-9.5a4.6,4.6,0,0,1,1.756-2.038,4.918,4.918,0,0,1,2.652-.71,4.927,4.927,0,0,1,3.37,1.121,4.6,4.6,0,0,1,1.478,3.146H8.093a2.524,2.524,0,0,0-.652-1.7,2.413,2.413,0,0,0-1.706-.527,2.116,2.116,0,0,0-1.864.892,5,5,0,0,0-.635,2.768v.913a5.352,5.352,0,0,0,.594,2.864,2.077,2.077,0,0,0,1.872.9,2.458,2.458,0,0,0,1.722-.527,2.381,2.381,0,0,0,.652-1.631Zm1.1-.548a5.327,5.327,0,0,1,.515-2.382,3.768,3.768,0,0,1,1.482-1.619,4.323,4.323,0,0,1,2.245-.573A4.09,4.09,0,0,1,18.88-8.035a4.464,4.464,0,0,1,1.282,3.021l.017.614a4.694,4.694,0,0,1-1.154,3.316,4.011,4.011,0,0,1-3.1,1.249,4.031,4.031,0,0,1-3.1-1.245,4.777,4.777,0,0,1-1.158-3.387Zm2.4.17a3.357,3.357,0,0,0,.481,1.958,1.588,1.588,0,0,0,1.378.678,1.592,1.592,0,0,0,1.361-.669,3.674,3.674,0,0,0,.49-2.141,3.324,3.324,0,0,0-.49-1.945,1.592,1.592,0,0,0-1.378-.69,1.566,1.566,0,0,0-1.361.686A3.735,3.735,0,0,0,14.07-4.4Zm9.795-4.578.075,1.038a3.136,3.136,0,0,1,2.582-1.2,2.606,2.606,0,0,1,2.125.838A3.912,3.912,0,0,1,29.36-5.8V0h-2.4V-5.744a1.556,1.556,0,0,0-.332-1.108,1.486,1.486,0,0,0-1.1-.344,1.65,1.65,0,0,0-1.519.863V0h-2.4V-8.981ZM34.05-11.189v2.208h1.536v1.76H34.05v4.482a1.07,1.07,0,0,0,.191.714.959.959,0,0,0,.73.216,3.826,3.826,0,0,0,.706-.058V-.05a4.939,4.939,0,0,1-1.453.216,2.29,2.29,0,0,1-2.573-2.548V-7.222H30.339v-1.76h1.312v-2.208Zm7.919,4.458a6.517,6.517,0,0,0-.863-.066,1.757,1.757,0,0,0-1.785.921V0h-2.4V-8.981h2.266l.066,1.071a2.223,2.223,0,0,1,2-1.237A2.514,2.514,0,0,1,42-9.04ZM48.078,0a2.664,2.664,0,0,1-.241-.805,2.9,2.9,0,0,1-2.266.971A3.189,3.189,0,0,1,43.384-.6a2.456,2.456,0,0,1-.867-1.926,2.538,2.538,0,0,1,1.058-2.191,5.222,5.222,0,0,1,3.059-.772h1.1V-6a1.48,1.48,0,0,0-.32-1,1.257,1.257,0,0,0-1.009-.374,1.429,1.429,0,0,0-.95.291.987.987,0,0,0-.344.8h-2.4A2.41,2.41,0,0,1,43.2-7.728,3.182,3.182,0,0,1,44.559-8.77a4.961,4.961,0,0,1,1.976-.378,3.92,3.92,0,0,1,2.635.834,2.918,2.918,0,0,1,.975,2.345v3.893A4.294,4.294,0,0,0,50.5-.141V0ZM46.094-1.668a2.066,2.066,0,0,0,.979-.237,1.554,1.554,0,0,0,.664-.635V-4.084h-.9q-1.8,0-1.917,1.245l-.008.141a.96.96,0,0,0,.315.739A1.225,1.225,0,0,0,46.094-1.668Zm10.758-.813a.773.773,0,0,0-.436-.693,4.95,4.95,0,0,0-1.4-.452q-3.2-.672-3.2-2.723a2.468,2.468,0,0,1,.992-2,4,4,0,0,1,2.594-.8,4.307,4.307,0,0,1,2.735.805A2.538,2.538,0,0,1,59.16-6.25h-2.4a1.161,1.161,0,0,0-.332-.851,1.405,1.405,0,0,0-1.038-.336,1.436,1.436,0,0,0-.938.274.865.865,0,0,0-.332.7.739.739,0,0,0,.378.643,3.885,3.885,0,0,0,1.274.423,10.407,10.407,0,0,1,1.511.4,2.482,2.482,0,0,1,1.9,2.416A2.343,2.343,0,0,1,58.13-.594a4.548,4.548,0,0,1-2.723.76,4.75,4.75,0,0,1-2-.4,3.363,3.363,0,0,1-1.374-1.1,2.565,2.565,0,0,1-.5-1.515h2.274a1.252,1.252,0,0,0,.473.979,1.877,1.877,0,0,0,1.179.34A1.737,1.737,0,0,0,56.5-1.8.814.814,0,0,0,56.852-2.482ZM64.862.166a4.409,4.409,0,0,1-3.217-1.212A4.308,4.308,0,0,1,60.4-4.275v-.232a5.426,5.426,0,0,1,.523-2.42,3.838,3.838,0,0,1,1.482-1.644A4.159,4.159,0,0,1,64.6-9.147a3.727,3.727,0,0,1,2.9,1.162,4.722,4.722,0,0,1,1.058,3.3v.979H62.837a2.229,2.229,0,0,0,.7,1.411,2.12,2.12,0,0,0,1.482.531,2.589,2.589,0,0,0,2.167-1l1.179,1.32A3.6,3.6,0,0,1,66.9-.261,4.793,4.793,0,0,1,64.862.166Zm-.274-7.379a1.5,1.5,0,0,0-1.158.484,2.5,2.5,0,0,0-.569,1.384H66.2v-.192a1.786,1.786,0,0,0-.432-1.238A1.547,1.547,0,0,0,64.588-7.213Zm7.537-1.768L72.2-7.944a3.136,3.136,0,0,1,2.582-1.2,2.606,2.606,0,0,1,2.125.838A3.912,3.912,0,0,1,77.621-5.8V0h-2.4V-5.744a1.556,1.556,0,0,0-.332-1.108,1.486,1.486,0,0,0-1.1-.344,1.65,1.65,0,0,0-1.519.863V0h-2.4V-8.981Zm4.765-3.661a2.323,2.323,0,0,1-.548,1.573,1.7,1.7,0,0,1-1.336.635,2.027,2.027,0,0,1-.56-.071,3.76,3.76,0,0,1-.677-.3,3.649,3.649,0,0,0-.623-.286,1.522,1.522,0,0,0-.415-.054.666.666,0,0,0-.494.208.807.807,0,0,0-.2.589l-1.395-.083A2.359,2.359,0,0,1,71.183-12a1.677,1.677,0,0,1,1.332-.647,1.715,1.715,0,0,1,.469.062,5.165,5.165,0,0,1,.718.3,4.667,4.667,0,0,0,.689.291,1.572,1.572,0,0,0,.4.05.7.7,0,0,0,.5-.2.774.774,0,0,0,.212-.585ZM84.643,0A2.664,2.664,0,0,1,84.4-.805a2.9,2.9,0,0,1-2.266.971A3.189,3.189,0,0,1,79.949-.6a2.456,2.456,0,0,1-.867-1.926A2.538,2.538,0,0,1,80.14-4.715,5.222,5.222,0,0,1,83.2-5.487h1.1V-6a1.48,1.48,0,0,0-.32-1,1.257,1.257,0,0,0-1.009-.374,1.429,1.429,0,0,0-.95.291.987.987,0,0,0-.344.8h-2.4a2.41,2.41,0,0,1,.481-1.444A3.182,3.182,0,0,1,81.124-8.77,4.961,4.961,0,0,1,83.1-9.147a3.92,3.92,0,0,1,2.635.834,2.918,2.918,0,0,1,.975,2.345v3.893a4.294,4.294,0,0,0,.357,1.934V0ZM82.659-1.668a2.066,2.066,0,0,0,.979-.237A1.554,1.554,0,0,0,84.3-2.54V-4.084h-.9q-1.8,0-1.917,1.245L81.48-2.7a.96.96,0,0,0,.315.739A1.225,1.225,0,0,0,82.659-1.668Zm10.758-.813a.773.773,0,0,0-.436-.693,4.95,4.95,0,0,0-1.4-.452q-3.2-.672-3.2-2.723a2.468,2.468,0,0,1,.992-2,4,4,0,0,1,2.594-.8,4.307,4.307,0,0,1,2.735.805A2.538,2.538,0,0,1,95.725-6.25h-2.4a1.161,1.161,0,0,0-.332-.851,1.405,1.405,0,0,0-1.038-.336,1.436,1.436,0,0,0-.938.274.865.865,0,0,0-.332.7.739.739,0,0,0,.378.643,3.885,3.885,0,0,0,1.274.423,10.407,10.407,0,0,1,1.511.4,2.482,2.482,0,0,1,1.9,2.416A2.343,2.343,0,0,1,94.7-.594a4.548,4.548,0,0,1-2.723.76,4.75,4.75,0,0,1-2-.4,3.363,3.363,0,0,1-1.374-1.1,2.565,2.565,0,0,1-.5-1.515h2.274a1.252,1.252,0,0,0,.473.979,1.877,1.877,0,0,0,1.179.34A1.737,1.737,0,0,0,93.064-1.8.814.814,0,0,0,93.417-2.482ZM1.577,25V17.778H.241v-1.76H1.577v-.764a3.1,3.1,0,0,1,.867-2.345,3.359,3.359,0,0,1,2.428-.834,5.608,5.608,0,0,1,1.22.166L6.068,14.1a3.058,3.058,0,0,0-.73-.075q-1.353,0-1.353,1.27v.722H5.769v1.76H3.984V25Zm10.816-.913a3.008,3.008,0,0,1-2.457,1.079,2.837,2.837,0,0,1-2.2-.83A3.543,3.543,0,0,1,6.956,21.9V16.019h2.4v5.809q0,1.4,1.278,1.4a1.732,1.732,0,0,0,1.677-.848V16.019h2.407V25H12.459Zm8.268,1.079a4.409,4.409,0,0,1-3.217-1.212A4.308,4.308,0,0,1,16.2,20.725v-.232a5.426,5.426,0,0,1,.523-2.42,3.838,3.838,0,0,1,1.482-1.644,4.159,4.159,0,0,1,2.187-.577,3.727,3.727,0,0,1,2.9,1.162,4.722,4.722,0,0,1,1.058,3.3v.979H18.635a2.229,2.229,0,0,0,.7,1.411,2.12,2.12,0,0,0,1.482.531,2.589,2.589,0,0,0,2.167-1l1.179,1.32A3.6,3.6,0,0,1,22.7,24.739,4.793,4.793,0,0,1,20.661,25.166Zm-.274-7.379a1.5,1.5,0,0,0-1.158.484,2.5,2.5,0,0,0-.569,1.384H22v-.192a1.786,1.786,0,0,0-.432-1.238A1.547,1.547,0,0,0,20.387,17.787Zm10.376.481A6.517,6.517,0,0,0,29.9,18.2a1.757,1.757,0,0,0-1.785.921V25h-2.4V16.019h2.266l.066,1.071a2.223,2.223,0,0,1,2-1.237,2.514,2.514,0,0,1,.747.108ZM35.2,13.811v2.208h1.536v1.76H35.2v4.482a1.07,1.07,0,0,0,.191.714.959.959,0,0,0,.73.216,3.826,3.826,0,0,0,.706-.058V24.95a4.939,4.939,0,0,1-1.453.216A2.29,2.29,0,0,1,32.8,22.618V17.778H31.493v-1.76H32.8V13.811Zm7.006,11.355a4.409,4.409,0,0,1-3.217-1.212,4.308,4.308,0,0,1-1.241-3.229v-.232a5.426,5.426,0,0,1,.523-2.42,3.838,3.838,0,0,1,1.482-1.644,4.159,4.159,0,0,1,2.187-.577,3.727,3.727,0,0,1,2.9,1.162,4.722,4.722,0,0,1,1.058,3.3v.979H40.184a2.229,2.229,0,0,0,.7,1.411,2.12,2.12,0,0,0,1.482.531,2.589,2.589,0,0,0,2.167-1l1.179,1.32a3.6,3.6,0,0,1-1.461,1.191A4.793,4.793,0,0,1,42.209,25.166Zm-.274-7.379a1.5,1.5,0,0,0-1.158.484,2.5,2.5,0,0,0-.569,1.384h3.337v-.192a1.786,1.786,0,0,0-.432-1.238A1.547,1.547,0,0,0,41.936,17.787Zm10.193,4.731a.773.773,0,0,0-.436-.693,4.95,4.95,0,0,0-1.4-.452q-3.2-.672-3.2-2.723a2.468,2.468,0,0,1,.992-2,4,4,0,0,1,2.594-.8,4.307,4.307,0,0,1,2.735.805,2.538,2.538,0,0,1,1.025,2.092h-2.4a1.161,1.161,0,0,0-.332-.851,1.405,1.405,0,0,0-1.038-.336,1.436,1.436,0,0,0-.938.274.865.865,0,0,0-.332.7.739.739,0,0,0,.378.643,3.885,3.885,0,0,0,1.274.423,10.407,10.407,0,0,1,1.511.4,2.482,2.482,0,0,1,1.9,2.416,2.343,2.343,0,0,1-1.054,1.988,4.548,4.548,0,0,1-2.723.76,4.75,4.75,0,0,1-2-.4,3.363,3.363,0,0,1-1.374-1.1,2.565,2.565,0,0,1-.5-1.515h2.274a1.252,1.252,0,0,0,.473.979,1.877,1.877,0,0,0,1.179.34,1.737,1.737,0,0,0,1.042-.261A.814.814,0,0,0,52.129,22.518Z" transform="translate(0 15.557)" fill="#12263f"/>
      </g>
      <path id="Trazado_614419" data-name="Trazado 614419" d="M-5453.295-8645.859h122.069v135.5h-8.943" transform="translate(-189 1182.36)" fill="none" stroke="#eba325" stroke-width="3"/>
      <path id="Trazado_614421" data-name="Trazado 614421" d="M-5344-8645.859h-109.295v135.5h8.007" transform="translate(-455 1182.36)" fill="none" stroke="#3ae3fe" stroke-width="3"/>
      <path id="Trazado_614420" data-name="Trazado 614420" d="M-5383.091-8645.859h-70.2v135.5h30" transform="translate(-250.705 1250.11)" fill="none" stroke="#add1b3" stroke-width="3"/>
      <path id="Trazado_614422" data-name="Trazado 614422" d="M-5431.908-8645.859h-21.387v135.5h5.143" transform="translate(-11182.908 -15906.109) rotate(180)" fill="none" stroke="#8da9c5" stroke-width="3"/>
      <path id="Trazado_613335" data-name="Trazado 613335" d="M-5331.227-8540.208H-5453.3V-8645.86h8.943" transform="translate(-455 1008.018)" fill="none" stroke="#03386e" stroke-width="3"/>
      <path id="Trazado_613336" data-name="Trazado 613336" d="M-5453.295-8563.634h122.069v-82.227h-8.943" transform="translate(-189 1031.443)" fill="none" stroke="#359547" stroke-width="3"/>
      <g id="Trazado_614437" data-name="Trazado 614437" transform="translate(-5902 -7654)" fill="#03386e">
        <path d="M 10.5 56.5 L 0.5 56.5 L 0.5 0.5 L 10.5 0.5 L 10.5 56.5 Z" stroke="none"/>
        <path d="M 1 1 L 1 56 L 10 56 L 10 1 L 1 1 M 0 0 L 11 0 L 11 57 L 0 57 L 0 0 Z" stroke="none" fill="#03386e"/>
      </g>
      <path id="Trazado_614438" data-name="Trazado 614438" d="M0,0H10V34H0Z" transform="translate(-5534 -7631)" fill="#359547"/>
      <path id="Trazado_614439" data-name="Trazado 614439" d="M0,0H10V59H0Z" transform="translate(-5534 -7345)" fill="#eba325"/>
      <path id="Trazado_614440" data-name="Trazado 614440" d="M0,0H10V59H0Z" transform="translate(-5904.522 -7345)" fill="#3ae3fe"/>
      <path id="Trazado_614441" data-name="Trazado 614441" d="M0,0H10V59H0Z" transform="translate(-5678 -7277.25)" fill="#add1b3"/>
      <path id="Trazado_614442" data-name="Trazado 614442" d="M0,0H10V59H0Z" transform="translate(-5761 -7277.25)" fill="#8da9c5"/>
      <path id="Trazado_613340" data-name="Trazado 613340" d="M-5232.207-8354" transform="translate(-455 984)" fill="none" stroke="#707070" stroke-width="1"/>
      <g id="Enmascarar_grupo_1072833" data-name="Enmascarar grupo 1072833" transform="translate(-454.84 864.16)" clip-path="url(#clip-path)">
        <g id="Grupo_1076523" data-name="Grupo 1076523" transform="translate(-5406.833 -8463.248)">
          <g id="Grupo_871214" data-name="Grupo 871214" transform="translate(43.702 14.963)">
            <g id="Grupo_871213" data-name="Grupo 871213" transform="translate(0)" clip-path="url(#clip-path-3)">
              <path id="Trazado_216649" data-name="Trazado 216649" d="M72.232,78.653,93.69,65.832a30.43,30.43,0,0,1,9.809-3.746V.631A30.422,30.422,0,0,0,93.77,4.362l-72.9,43.557a32.027,32.027,0,0,0-8.293,7.138l51.7,30.326a32.053,32.053,0,0,1,7.955-6.729" transform="translate(-4.907 -0.246)" fill="#f33"/>
              <path id="Trazado_216650" data-name="Trazado 216650" d="M72.232,78.653,93.69,65.832a30.43,30.43,0,0,1,9.809-3.746V.631A30.422,30.422,0,0,0,93.77,4.362l-72.9,43.557a32.027,32.027,0,0,0-8.293,7.138l51.7,30.326A32.053,32.053,0,0,1,72.232,78.653Z" transform="translate(-4.907 -0.246)" fill="none"/>
              <path id="Trazado_216651" data-name="Trazado 216651" d="M51.86,174.2V147.609a32.051,32.051,0,0,1,1.858-10.733L2.18,106.642A32.034,32.034,0,0,0,.5,116.875v88.056a32.026,32.026,0,0,0,1.53,9.764l51.361-30.732A32.029,32.029,0,0,1,51.86,174.2" transform="translate(-0.195 -41.603)" fill="#3ae3fe"/>
              <path id="Trazado_216652" data-name="Trazado 216652" d="M51.86,174.2V147.609a32.051,32.051,0,0,1,1.858-10.733L2.18,106.642A32.034,32.034,0,0,0,.5,116.875v88.056a32.026,32.026,0,0,0,1.53,9.764l51.361-30.732A32.029,32.029,0,0,1,51.86,174.2Z" transform="translate(-0.195 -41.603)" fill="none"/>
              <path id="Trazado_216653" data-name="Trazado 216653" d="M93.5,270.68,72.038,257.859a32.074,32.074,0,0,1-8.6-7.506L12.08,281.085a32.058,32.058,0,0,0,8.6,7.508l72.9,43.556a30.408,30.408,0,0,0,9.73,3.731V274.425A30.432,30.432,0,0,1,93.5,270.68" transform="translate(-4.713 -97.668)" fill="#8da9c5"/>
              <path id="Trazado_216654" data-name="Trazado 216654" d="M93.5,270.68,72.038,257.859a32.074,32.074,0,0,1-8.6-7.506L12.08,281.085a32.058,32.058,0,0,0,8.6,7.508l72.9,43.556a30.408,30.408,0,0,0,9.73,3.731V274.425A30.432,30.432,0,0,1,93.5,270.68Z" transform="translate(-4.713 -97.668)" fill="none"/>
              <path id="Trazado_216655" data-name="Trazado 216655" d="M212.115,257.539l-21.46,12.822a30.413,30.413,0,0,1-9.809,3.745v61.469a30.413,30.413,0,0,0,9.809-3.745l72.9-43.556a32.068,32.068,0,0,0,9.277-8.392L221.1,249.534a32.076,32.076,0,0,1-8.983,8" transform="translate(-70.552 -97.349)" fill="#add1b3"/>
              <path id="Trazado_216656" data-name="Trazado 216656" d="M212.115,257.539l-21.46,12.822a30.413,30.413,0,0,1-9.809,3.745v61.469a30.413,30.413,0,0,0,9.809-3.745l72.9-43.556a32.068,32.068,0,0,0,9.277-8.392L221.1,249.534A32.076,32.076,0,0,1,212.115,257.539Z" transform="translate(-70.552 -97.349)" fill="none"/>
              <path id="Trazado_216657" data-name="Trazado 216657" d="M256.529,147.05v26.587a32.008,32.008,0,0,1-1.34,9.157l51.576,30.256a32.02,32.02,0,0,0,1.2-8.679V116.315a32.065,32.065,0,0,0-1.989-11.106l-51.427,30.77a32.039,32.039,0,0,1,1.977,11.071" transform="translate(-99.307 -41.044)" fill="#eba325"/>
              <path id="Trazado_216658" data-name="Trazado 216658" d="M256.529,147.05v26.587a32.008,32.008,0,0,1-1.34,9.157l51.576,30.256a32.02,32.02,0,0,0,1.2-8.679V116.315a32.065,32.065,0,0,0-1.989-11.106l-51.427,30.77A32.039,32.039,0,0,1,256.529,147.05Z" transform="translate(-99.307 -41.044)" fill="none"/>
              <path id="Trazado_216659" data-name="Trazado 216659" d="M263.555,47.909l-72.9-43.557A30.418,30.418,0,0,0,180.847.607v61.47a30.4,30.4,0,0,1,9.809,3.745l21.459,12.822a32.006,32.006,0,0,1,7.719,6.46l51.414-30.763a32.017,32.017,0,0,0-7.694-6.432" transform="translate(-70.552 -0.237)" fill="#359547"/>
              <path id="Trazado_216660" data-name="Trazado 216660" d="M263.555,47.909l-72.9-43.557A30.418,30.418,0,0,0,180.847.607v61.47a30.4,30.4,0,0,1,9.809,3.745l21.459,12.822a32.006,32.006,0,0,1,7.719,6.46l51.414-30.763A32.017,32.017,0,0,0,263.555,47.909Z" transform="translate(-70.552 -0.237)" fill="none"/>
              <path id="Trazado_216661" data-name="Trazado 216661" d="M72.232,78.653,93.69,65.832a30.43,30.43,0,0,1,9.809-3.746V.631A30.422,30.422,0,0,0,93.77,4.362l-72.9,43.557a32.027,32.027,0,0,0-8.293,7.138l51.7,30.326a32.053,32.053,0,0,1,7.955-6.729" transform="translate(-4.907 -0.246)" fill="#03386e"/>
              <path id="Trazado_216662" data-name="Trazado 216662" d="M72.232,78.653,93.69,65.832a30.43,30.43,0,0,1,9.809-3.746V.631A30.422,30.422,0,0,0,93.77,4.362l-72.9,43.557a32.027,32.027,0,0,0-8.293,7.138l51.7,30.326A32.053,32.053,0,0,1,72.232,78.653Z" transform="translate(-4.907 -0.246)" fill="none"/>
              <g id="Layer_23" transform="translate(127.715 37.26)">
                <path id="Trazado_611331" data-name="Trazado 611331" d="M23.938,9.762a9.265,9.265,0,0,0-17.85,0,7.368,7.368,0,0,0,.841,14.179A.84.84,0,0,0,7.278,22.3,5.687,5.687,0,0,1,7,11.241a.841.841,0,0,0,.605-.63,7.586,7.586,0,0,1,14.812,0,.841.841,0,0,0,.605.63A5.686,5.686,0,0,1,22.749,22.3a.841.841,0,0,0,.173,1.663.87.87,0,0,0,.176-.019,7.367,7.367,0,0,0,.84-14.178Z" transform="translate(-1.1 -2.986)" fill="#fff"/>
                <path id="Trazado_611332" data-name="Trazado 611332" d="M18.721,20.14V19.016a3.077,3.077,0,1,0-6.153,0V20.14a2.285,2.285,0,0,0-1.94,2.253V25.86a2.29,2.29,0,0,0,2.288,2.288h5.46a2.291,2.291,0,0,0,2.288-2.288V22.393A2.287,2.287,0,0,0,18.721,20.14Zm-3.077-2.519a1.4,1.4,0,0,1,1.4,1.4V20.1H14.248V19.016a1.4,1.4,0,0,1,1.4-1.4Zm3.336,8.238a.607.607,0,0,1-.607.606h-5.46a.607.607,0,0,1-.607-.606V22.392a.607.607,0,0,1,.607-.606h5.46a.607.607,0,0,1,.607.606Z" transform="translate(-1.731 -3.844)" fill="#fff"/>
              </g>
            </g>
          </g>
          <path id="Trazado_611327" data-name="Trazado 611327" d="M34.446,81.041H33.8a2.15,2.15,0,0,0,.285-1.071V61.855a2.167,2.167,0,0,0-2.164-2.164H3.07A2.167,2.167,0,0,0,.906,61.855V79.971a2.15,2.15,0,0,0,.285,1.071H.547A.547.547,0,0,0,0,81.588v2.195a2.745,2.745,0,0,0,2.742,2.742h29.51a2.745,2.745,0,0,0,2.742-2.742V81.588A.547.547,0,0,0,34.446,81.041ZM2,79.971V61.855A1.072,1.072,0,0,1,3.07,60.785H31.923a1.072,1.072,0,0,1,1.071,1.071V79.971a1.072,1.072,0,0,1-1.071,1.071H3.07A1.072,1.072,0,0,1,2,79.971Zm11.9,2.164h7.192v.953H13.9Zm20,1.648a1.65,1.65,0,0,1-1.648,1.648H2.742c-.91,0-1.647-.738-1.648-3.3H12.807v1.082a.966.966,0,0,0,.964.964h7.451c.532,0,.964-.432.964-2.046H33.9ZM3.3,80.29ZM31.149,79.2h0ZM17.3,78.437a.546.546,0,0,0,.388,0,8.823,8.823,0,0,0,5.161-4.909,15.049,15.049,0,0,0,.963-6.977.547.547,0,0,0-.314-.458L17.728,63.4a.547.547,0,0,0-.462,0l-5.772,2.689a.547.547,0,0,0-.314.458,15.05,15.05,0,0,0,.963,6.977,8.822,8.822,0,0,0,5.16,4.909Zm-5.052-11.49L17.5,64.5l5.246,2.443c.2,3.782-.594,8.506-5.246,10.392C12.845,75.452,12.051,70.728,12.251,66.947Zm9.4,3.729A4.152,4.152,0,1,0,17.5,74.827,4.152,4.152,0,0,0,21.649,70.675Zm-7.21,0A3.058,3.058,0,1,1,17.5,73.734,3.059,3.059,0,0,1,14.438,70.675Zm4.994-.6L17.456,72.05a.547.547,0,0,1-.773,0l-1.121-1.121a.547.547,0,1,1,.773-.774l.735.735,1.59-1.59a.547.547,0,0,1,.773.773Z" transform="translate(91.941 -8.763)" fill="#fff"/>
          <g id="_01-Internet_Security" data-name="01-Internet Security" transform="translate(214.216 119.441)">
            <path id="Trazado_611333" data-name="Trazado 611333" d="M16.124,24.665a11.038,11.038,0,0,1-1.721.208V19.65a11.261,11.261,0,0,1,1.352.143.477.477,0,1,0,.158-.941A12.207,12.207,0,0,0,14.4,18.7V14.39h5.239c-.008.354-.023.711-.05,1.072a.477.477,0,0,0,.951.071c.029-.384.044-.766.053-1.143h4.78a.477.477,0,0,0,.477-.477A11.927,11.927,0,1,0,5.738,22.572s.005.011.01.016.018.011.026.018a11.881,11.881,0,0,0,8.153,3.234,12.023,12.023,0,0,0,2.388-.239.477.477,0,0,0-.19-.935ZM10.7,24.4A10.964,10.964,0,0,1,6.816,22.26a11.047,11.047,0,0,1,1.725-1.21A9.876,9.876,0,0,0,10.7,24.4ZM9.4,20.614a10.816,10.816,0,0,1,4.052-.964v5.194c-1.646-.262-3.1-1.862-4.052-4.231ZM13.45,18.7a11.777,11.777,0,0,0-4.379,1.018,18.668,18.668,0,0,1-.863-5.325H13.45ZM14.4,2.981c1.643.261,3.09,1.857,4.047,4.219a10.911,10.911,0,0,1-4.047.965Zm2.752.445A10.964,10.964,0,0,1,21.03,5.559a10.98,10.98,0,0,1-1.722,1.205,9.865,9.865,0,0,0-2.152-3.338ZM13.45,2.981V8.165A10.911,10.911,0,0,1,9.4,7.2C10.359,4.837,11.807,3.242,13.45,2.981Zm-4.9,3.783A10.982,10.982,0,0,1,6.823,5.559,10.964,10.964,0,0,1,10.7,3.426,9.865,9.865,0,0,0,8.546,6.764Zm4.9,2.355v4.316H8.208A18.658,18.658,0,0,1,9.075,8.1,11.862,11.862,0,0,0,13.45,9.119Zm.954,0A11.862,11.862,0,0,0,18.779,8.1a18.658,18.658,0,0,1,.867,5.338H14.4ZM24.89,13.436H20.6a19.432,19.432,0,0,0-.953-5.767,11.936,11.936,0,0,0,2.086-1.456A10.936,10.936,0,0,1,24.89,13.436ZM6.121,6.212A11.934,11.934,0,0,0,8.207,7.668a19.432,19.432,0,0,0-.953,5.767H2.964A10.936,10.936,0,0,1,6.121,6.212ZM2.964,14.39h4.29A19.441,19.441,0,0,0,8.2,20.148a11.99,11.99,0,0,0-2.089,1.459A10.936,10.936,0,0,1,2.964,14.39Zm27.184,2.863a11.146,11.146,0,0,1-5.922-1.818.478.478,0,0,0-.56,0,11.146,11.146,0,0,1-5.922,1.818.477.477,0,0,0-.477.477V22.5c0,5.9,6.467,8.066,6.532,8.087a.477.477,0,0,0,.294,0c.065-.021,6.532-2.186,6.532-8.087V17.729A.477.477,0,0,0,30.148,17.252ZM29.671,22.5c0,4.734-4.814,6.781-5.725,7.126-.912-.345-5.725-2.393-5.725-7.126V18.2a12.1,12.1,0,0,0,5.725-1.8,12.1,12.1,0,0,0,5.725,1.8Zm-6.679,2.188,3.956-3.956a.477.477,0,1,1,.675.675L23.329,25.7a.477.477,0,0,1-.675,0l-2.385-2.385a.477.477,0,1,1,.675-.675Z" transform="translate(-1.999 -1.972)" fill="#12263f" stroke="#12263f" stroke-width="0.5"/>
          </g>
          <g id="Grupo_1073418" data-name="Grupo 1073418" transform="translate(173.894 188.608)">
            <path id="Trazado_611334" data-name="Trazado 611334" d="M13.39,7.45H27.509a.48.48,0,0,0,0-.96H13.39a.48.48,0,1,0,0,.96Z" transform="translate(-7.45 -3.628)" fill="#12263f" stroke="#12263f" stroke-width="0.4"/>
            <path id="Trazado_611335" data-name="Trazado 611335" d="M13.39,12.68h5.9a.48.48,0,1,0,0-.96h-5.9a.48.48,0,1,0,0,.96Z" transform="translate(-7.45 -6.346)" fill="#12263f" stroke="#12263f" stroke-width="0.4"/>
            <path id="Trazado_611336" data-name="Trazado 611336" d="M16.25,24.95a.482.482,0,0,0-.48-.48H10.53a.48.48,0,1,0,0,.96H15.77A.482.482,0,0,0,16.25,24.95Z" transform="translate(-5.963 -12.973)" fill="#12263f" stroke="#12263f" stroke-width="0.4"/>
            <path id="Trazado_611337" data-name="Trazado 611337" d="M10.53,28.06a.48.48,0,1,0,0,.96h2.877a.48.48,0,1,0,0-.96Z" transform="translate(-5.963 -14.839)" fill="#12263f" stroke="#12263f" stroke-width="0.4"/>
            <path id="Trazado_611338" data-name="Trazado 611338" d="M31.276,27.783a.482.482,0,0,0,.48-.48V22.914a1.393,1.393,0,0,0-1.388-1.393h-.2V19.528a4.2,4.2,0,0,0-4.192-4.192,4.2,4.2,0,0,0-4.192,4.192v1.993h-.2a1.394,1.394,0,0,0-1.393,1.393v1.508H2.573L4.537,10.274a.635.635,0,0,1,.624-.543H26.2a.63.63,0,0,1,.624.716l-.514,3.722a.48.48,0,1,0,.951.134l.514-3.722A1.606,1.606,0,0,0,27.4,9.318a1.572,1.572,0,0,0-1.133-.538V6.84A1.285,1.285,0,0,0,24.98,5.558h-.644v-3.1A1.929,1.929,0,0,0,22.411.53H6.683A1.929,1.929,0,0,0,4.758,2.456v.629H2.822A1.285,1.285,0,0,0,1.54,4.367V24.9a.432.432,0,0,0,.014.077.412.412,0,0,0,.014.082.742.742,0,0,0,.058.106.254.254,0,0,0,.029.048s.01,0,.01.01a.517.517,0,0,0,.115.086.337.337,0,0,0,.043.029.511.511,0,0,0,.192.043H20.188v4.946a1.394,1.394,0,0,0,1.393,1.393h8.788a1.393,1.393,0,0,0,1.388-1.393v-.879a.48.48,0,1,0-.96,0v.879a.426.426,0,0,1-.427.432H21.58a.43.43,0,0,1-.432-.432v-7.41a.43.43,0,0,1,.432-.432h8.788a.423.423,0,0,1,.427.432V27.3a.479.479,0,0,0,.48.48ZM24.971,6.514a.322.322,0,0,1,.322.322V8.766h-.97V6.509h.648ZM5.713,2.456a.965.965,0,0,1,.965-.965H22.392a.965.965,0,0,1,.965.965V8.771H5.713ZM2.822,4.045H4.753V8.828A1.6,1.6,0,0,0,3.581,10.14L2.5,17.948V4.367a.322.322,0,0,1,.322-.322Zm19.92,15.483A3.236,3.236,0,0,1,25.974,16.3a3.238,3.238,0,0,1,3.232,3.232v1.993H28.3V19.528a2.291,2.291,0,0,0-.677-1.638,2.326,2.326,0,0,0-3.972,1.642v1.993h-.908Zm4.6,1.993H24.611V19.528a1.365,1.365,0,0,1,2.334-.96,1.351,1.351,0,0,1,.4.96v1.993Z" transform="translate(-1.54 -0.53)" fill="#12263f" stroke="#12263f" stroke-width="0.4"/>
            <path id="Trazado_611339" data-name="Trazado 611339" d="M50.648,55.2a.482.482,0,0,0,.48-.48V53.438a1.64,1.64,0,1,0-.956,0v1.282A.472.472,0,0,0,50.648,55.2Zm-.677-3.318a.68.68,0,1,1,.677.677A.68.68,0,0,1,49.97,51.882Z" transform="translate(-26.213 -26.367)" fill="#12263f" stroke="#12263f" stroke-width="0.4"/>
          </g>
          <g id="Grupo_1073419" data-name="Grupo 1073419" transform="translate(89.374 193.236)">
            <path id="Trazado_611340" data-name="Trazado 611340" d="M10.57,18.133A1.57,1.57,0,0,0,9,19.7V35.369a1.57,1.57,0,0,0,1.57,1.57H25.861a.523.523,0,0,0,0-1.047H10.57a.523.523,0,0,1-.523-.523V19.7a.523.523,0,0,1,.523-.523H34.907a.523.523,0,0,1,.523.523v6.115a.523.523,0,0,0,1.047,0V19.7a1.57,1.57,0,0,0-1.57-1.57Z" transform="translate(-9 -18.133)" fill="#12263f" stroke="#12263f" stroke-width="1"/>
            <path id="Trazado_611341" data-name="Trazado 611341" d="M23.464,55.782a.523.523,0,0,1,.719.76l-5.8,5.492a.523.523,0,1,1-.719-.76Z" transform="translate(-15.272 -45.824)" fill="#12263f" stroke="#12263f" stroke-width="1"/>
            <path id="Trazado_611342" data-name="Trazado 611342" d="M17.6,25.481a.56.56,0,0,1,.76,0l9.381,8.875a1.679,1.679,0,0,0,2.281,0L39.4,25.481a.559.559,0,0,1,.76,0,.489.489,0,0,1,0,.719l-9.381,8.875a2.8,2.8,0,0,1-3.8,0L17.6,26.2a.489.489,0,0,1,0-.719Z" transform="translate(-15.232 -23.448)" fill="#12263f" stroke="#12263f" stroke-width="1"/>
            <path id="Trazado_611343" data-name="Trazado 611343" d="M87.9,56.14v3.14h.785a1.047,1.047,0,0,1,1.047,1.047v6.542a1.047,1.047,0,0,1-1.047,1.047H80.047A1.047,1.047,0,0,1,79,66.869V60.327a1.047,1.047,0,0,1,1.047-1.047h.785V56.14A3.14,3.14,0,0,1,83.972,53h.785A3.14,3.14,0,0,1,87.9,56.14Zm-6.019,3.14V56.14a2.093,2.093,0,0,1,2.093-2.093h.785A2.094,2.094,0,0,1,86.85,56.14v3.14Zm6.8,7.589V60.327H80.047v6.542Z" transform="translate(-60.682 -43.876)" fill="#12263f" stroke="#12263f" stroke-width="1" fill-rule="evenodd"/>
          </g>
          <g id="Grupo_1073428" data-name="Grupo 1073428" transform="translate(59.269 119.441)">
            <g id="Grupo_1073420" data-name="Grupo 1073420" transform="translate(9.147 7.383)">
              <path id="Trazado_611344" data-name="Trazado 611344" d="M28.647,29.024a1.039,1.039,0,0,1-.735-1.773l6.733-6.733a1.039,1.039,0,0,1,1.469,1.469l-6.733,6.733A1.034,1.034,0,0,1,28.647,29.024Z" transform="translate(-27.608 -20.213)" fill="#12263e"/>
            </g>
            <g id="Grupo_1073421" data-name="Grupo 1073421" transform="translate(5.753 10.723)">
              <path id="Trazado_611345" data-name="Trazado 611345" d="M25.507,32.113a1.035,1.035,0,0,1-.735-.3l-3.394-3.394a1.039,1.039,0,0,1,1.469-1.469l3.394,3.394a1.039,1.039,0,0,1-.735,1.773Z" transform="translate(-21.074 -26.641)" fill="#12263e"/>
            </g>
            <g id="Grupo_1073422" data-name="Grupo 1073422" transform="translate(0 10.567)">
              <path id="Trazado_611346" data-name="Trazado 611346" d="M21.428,42.787a1.047,1.047,0,0,1-.326-.052A16.139,16.139,0,0,1,10,27.38a1.039,1.039,0,0,1,2.078,0,14.065,14.065,0,0,0,9.676,13.381,1.039,1.039,0,0,1-.325,2.026Z" transform="translate(-10 -26.341)" fill="#12263e"/>
            </g>
            <g id="Grupo_1073423" data-name="Grupo 1073423" transform="translate(0 3.217)">
              <path id="Trazado_611347" data-name="Trazado 611347" d="M11.039,21.62A1.039,1.039,0,0,1,10,20.581v-7.35a1.039,1.039,0,0,1,2.078,0v7.35A1.039,1.039,0,0,1,11.039,21.62Z" transform="translate(-10 -12.192)" fill="#12263e"/>
            </g>
            <g id="Grupo_1073424" data-name="Grupo 1073424" transform="translate(0 0)">
              <path id="Trazado_611348" data-name="Trazado 611348" d="M11.038,11.294A1.039,1.039,0,0,1,10.9,9.226,32.588,32.588,0,0,0,20.965,6.109a1.039,1.039,0,0,1,.927,1.86,34.692,34.692,0,0,1-10.71,3.316,1.042,1.042,0,0,1-.144.01Z" transform="translate(-10 -6)" fill="#12263e"/>
            </g>
            <g id="Grupo_1073425" data-name="Grupo 1073425" transform="translate(10.389 10.567)">
              <path id="Trazado_611349" data-name="Trazado 611349" d="M31.039,42.787a1.039,1.039,0,0,1-.325-2.026A14.064,14.064,0,0,0,40.389,27.38a1.039,1.039,0,0,1,2.078,0,16.139,16.139,0,0,1-11.1,15.355A1.029,1.029,0,0,1,31.039,42.787Z" transform="translate(-30 -26.341)" fill="#12263e"/>
            </g>
            <g id="Grupo_1073426" data-name="Grupo 1073426" transform="translate(20.779 3.217)">
              <path id="Trazado_611350" data-name="Trazado 611350" d="M51.039,21.62A1.039,1.039,0,0,1,50,20.581v-7.35a1.039,1.039,0,1,1,2.078,0v7.35A1.039,1.039,0,0,1,51.039,21.62Z" transform="translate(-50 -12.192)" fill="#12263e"/>
            </g>
            <g id="Grupo_1073427" data-name="Grupo 1073427" transform="translate(10.389 0)">
              <path id="Trazado_611351" data-name="Trazado 611351" d="M41.429,11.294a1.044,1.044,0,0,1-.144-.01,34.692,34.692,0,0,1-10.71-3.316,1.039,1.039,0,1,1,.927-1.86A32.6,32.6,0,0,0,41.57,9.226a1.039,1.039,0,0,1-.141,2.068Z" transform="translate(-29.999 -6)" fill="#12263e"/>
            </g>
          </g>
          <g id="Ikon" transform="translate(138.523 82.973)">
            <path id="Trazado_611352" data-name="Trazado 611352" d="M22.425,11.7V9.763a6.763,6.763,0,0,0-13.527,0V11.7a2.9,2.9,0,0,0-2.9,2.9V25.223a2.9,2.9,0,0,0,2.9,2.9H22.425a2.9,2.9,0,0,0,2.9-2.9V14.594A2.9,2.9,0,0,0,22.425,11.7ZM10.831,9.763a4.831,4.831,0,0,1,9.662,0V11.7H10.831ZM23.392,25.223a.967.967,0,0,1-.966.966H8.9a.967.967,0,0,1-.966-.966V14.594a.967.967,0,0,1,.966-.966H22.425a.967.967,0,0,1,.966.966Z" transform="translate(-6 -3)" fill="#12263f"/>
            <path id="Trazado_611353" data-name="Trazado 611353" d="M15.9,16a2.891,2.891,0,0,0-.966,5.619v2.11a.966.966,0,0,0,1.932,0v-2.11A2.891,2.891,0,0,0,15.9,16Zm0,3.865a.966.966,0,1,1,.966-.966A.966.966,0,0,1,15.9,19.865Z" transform="translate(-6.237 -3.439)" fill="#12263f"/>
          </g>
        </g>
      </g>
    </g>
  </g>
</svg>
