<svg xmlns="http://www.w3.org/2000/svg" xmlns:xlink="http://www.w3.org/1999/xlink" width="610.659" height="363.168" viewBox="0 0 610.659 363.168">
  <defs>
    <clipPath id="clip-path">
      <rect id="Rectangle_377986" data-name="Rectangle 377986" width="610.659" height="363.168" fill="none"/>
    </clipPath>
    <clipPath id="clip-path-5">
      <rect id="Rectangle_377963" data-name="Rectangle 377963" width="10.878" height="23.367" fill="none"/>
    </clipPath>
    <clipPath id="clip-path-13">
      <rect id="Rectangle_377983" data-name="Rectangle 377983" width="22.358" height="40.563" fill="none"/>
    </clipPath>
  </defs>
  <g id="Group_1076362" data-name="Group 1076362" transform="translate(-494.67 -8457.053)">
    <g id="Group_1072828" data-name="Group 1072828" transform="translate(494.67 8457.053)">
      <g id="Mask_Group_1072827" data-name="Mask Group 1072827" clip-path="url(#clip-path)">
        <rect id="Rectangle_377958" data-name="Rectangle 377958" width="54.683" height="74.83" transform="translate(118.274 0.019)" fill="#f5f5f5"/>
        <rect id="Rectangle_377959" data-name="Rectangle 377959" width="54.684" height="74.83" transform="translate(104.413 9.439)" fill="#e0e0e0"/>
        <g id="Group_1072802" data-name="Group 1072802">
          <g id="Group_1072801" data-name="Group 1072801" clip-path="url(#clip-path)">
            <path id="Path_610277" data-name="Path 610277" d="M452.655,119.214s-.116.009-.352.014l-1.058.014-4.119.028-15.449.054-53.321.082h-.144l-.041-.138a13.247,13.247,0,0,1,13.073-16.96l-.2.254a11.227,11.227,0,0,1-.413-3.58,11.8,11.8,0,0,1,6.105-9.946,12.071,12.071,0,0,1,11.3.062l-.275.1a17.586,17.586,0,0,1,10.348-9.638,16.511,16.511,0,0,1,13.117.618,17.9,17.9,0,0,1,8.121,8.872,16.954,16.954,0,0,1,1,10.637l-.149-.17a12.689,12.689,0,0,1,6.173.885,12.907,12.907,0,0,1,4.579,3.138,8.233,8.233,0,0,1,1.442,2.067,11.616,11.616,0,0,1,.768,2.2,19.584,19.584,0,0,1,.525,4.012,22.8,22.8,0,0,1-.481,5.546,12.64,12.64,0,0,1-.383,1.4c-.107.31-.166.457-.166.457" transform="translate(-35.826 -7.446)" fill="#e1fbff"/>
            <path id="Path_610278" data-name="Path 610278" d="M616.391,84.17a13.626,13.626,0,1,0,15.826,14.387h.005l3.736-.621,1.993-4.2,2.917,3.383,4.68-.778,1.993-4.2,2.917,3.383,4.023-.668L655.7,92.3l1.778,2.062,2.342-.389,2.573-3.407-4.411-4.849L630.152,90.34a13.628,13.628,0,0,0-13.761-6.169M608.8,99.245a3.909,3.909,0,1,1,4.5,3.215,3.908,3.908,0,0,1-4.5-3.215" transform="translate(-57.392 -7.967)" fill="#ebebeb"/>
            <path id="Path_610279" data-name="Path 610279" d="M602.319,199,604,229.862a2.082,2.082,0,0,0,2.065,1.97l55.532.407a2.083,2.083,0,0,0,2.1-2.068l.176-24.021a2.084,2.084,0,0,0-2.082-2.1l-34.153-.03a2.088,2.088,0,0,1-1.472-.61l-5.892-5.891a2.081,2.081,0,0,0-1.457-.609l-14.4-.106a2.083,2.083,0,0,0-2.1,2.2" transform="translate(-57.137 -18.669)" fill="#ebebeb"/>
            <rect id="Rectangle_377960" data-name="Rectangle 377960" width="36.258" height="60.676" transform="translate(545.832 217.563) rotate(-89.58)" fill="#f5f5f5"/>
            <path id="Path_610280" data-name="Path 610280" d="M597.971,203.707l4.356,37.843a1.34,1.34,0,0,0,1.322,1.187l59.131.434a1.34,1.34,0,0,0,1.345-1.226l3.254-37.787a1.34,1.34,0,0,0-1.325-1.455l-66.741-.489a1.339,1.339,0,0,0-1.341,1.493" transform="translate(-56.724 -19.183)" fill="#ebebeb"/>
            <path id="Path_610281" data-name="Path 610281" d="M592.818,377.313c-14.077-9.834-17.27-28.089-16.713-44.5.092-2.739-.208-5.626,1.094-8.03s4.344-4.045,6.8-2.891c2.035.958,2.921,3.324,4.059,5.281a16.033,16.033,0,0,0,6.424,6.136c1.744.905,3.9,1.458,5.625.509,2.362-1.3,2.641-4.567,2.624-7.293l-.1-15.232a25.389,25.389,0,0,1,.822-8.091c.847-2.585,2.72-4.987,5.311-5.713s5.8.768,6.343,3.435a25.178,25.178,0,0,1,.078,3.392,2.864,2.864,0,0,0,1.676,2.7c1.087.319,2.178-.453,2.992-1.25,2.812-2.751,4.72-6.294,6.5-9.818s3.514-7.132,6.065-10.131,6.081-5.377,9.982-5.6,8.058,2.187,9.044,6.016-1.252,7.738-3.69,10.846A60.8,60.8,0,0,1,635.1,309.148a5,5,0,0,0-2.118,2.277c-.591,1.816,1.13,3.62,2.923,4.217,2.03.676,4.234.465,6.358.715s4.425,1.187,5.229,3.2c1.116,2.784-1.213,5.7-3.5,7.614a52.1,52.1,0,0,1-15.417,8.9c-2,.733-4.113,1.377-5.729,2.785s-2.591,3.856-1.616,5.775,3.483,2.535,5.582,2.145,3.978-1.529,5.978-2.283c3.744-1.414,8.578-1.156,10.977,2.08a8.626,8.626,0,0,1,.918,7.624,19.889,19.889,0,0,1-4.13,6.732,52.387,52.387,0,0,1-22.367,15.719c-8.684,3.011-16.731,3.826-25.362.67" transform="translate(-54.645 -26.581)" fill="#e1efe3"/>
            <path id="Path_610282" data-name="Path 610282" d="M594.338,389.719a119.613,119.613,0,0,1,4.451-22.452,243.925,243.925,0,0,1,9.689-26.282l2.894-6.759c.955-2.216,1.9-4.413,2.961-6.505a121.979,121.979,0,0,1,6.773-11.674c2.334-3.609,4.681-6.949,6.9-10.055s4.352-5.957,6.4-8.475a96.661,96.661,0,0,1,10.549-11.149c1.344-1.215,2.417-2.123,3.153-2.728l.841-.683a2.111,2.111,0,0,1,.3-.219,2,2,0,0,1-.264.259l-.809.721c-.713.63-1.765,1.561-3.087,2.8a102.2,102.2,0,0,0-10.405,11.231c-2.028,2.524-4.134,5.384-6.34,8.493s-4.531,6.459-6.849,10.065a123.2,123.2,0,0,0-6.721,11.644c-1.051,2.082-1.987,4.261-2.943,6.483s-1.913,4.475-2.89,6.756A250.114,250.114,0,0,0,599.23,367.4a121.739,121.739,0,0,0-4.54,22.353" transform="translate(-56.381 -26.821)" fill="#e0e0e0"/>
            <path id="Path_610283" data-name="Path 610283" d="M616.17,329.273a5.443,5.443,0,0,1-.266-1.162c-.144-.753-.315-1.848-.506-3.205-.385-2.713-.789-6.476-1.219-10.628s-.886-7.9-1.311-10.6c-.21-1.35-.389-2.441-.523-3.193a5.423,5.423,0,0,1-.153-1.183,5.461,5.461,0,0,1,.342,1.142c.193.741.428,1.827.681,3.173.517,2.693,1.032,6.449,1.462,10.606.415,4.1.787,7.805,1.073,10.638.137,1.278.254,2.356.347,3.221a5.571,5.571,0,0,1,.074,1.19" transform="translate(-58.073 -28.393)" fill="#e0e0e0"/>
            <path id="Path_610284" data-name="Path 610284" d="M651.612,325.179a7.634,7.634,0,0,1-1.4.167c-.9.08-2.2.188-3.8.375-3.209.346-7.623.979-12.463,1.892s-9.184,1.941-12.305,2.769c-1.564.4-2.82.764-3.691,1.007a7.505,7.505,0,0,1-1.367.336,7.512,7.512,0,0,1,1.309-.524c.854-.3,2.1-.716,3.656-1.165,3.106-.92,7.453-2,12.307-2.923a123.721,123.721,0,0,1,12.52-1.749c1.613-.141,2.922-.2,3.827-.215a7.445,7.445,0,0,1,1.407.029" transform="translate(-58.491 -30.844)" fill="#e0e0e0"/>
            <path id="Path_610285" data-name="Path 610285" d="M597.884,370.726a1.761,1.761,0,0,1-.24-.427c-.162-.342-.36-.76-.6-1.267-.515-1.1-1.219-2.717-2.063-4.724-1.69-4.012-3.85-9.629-6.149-15.858s-4.406-11.86-6.009-15.9c-.786-1.965-1.433-3.581-1.913-4.782-.206-.521-.375-.951-.513-1.3a.247.247,0,1,1,.092-.042c.162.343.359.76.6,1.266.515,1.1,1.219,2.718,2.062,4.725,1.69,4.012,3.85,9.628,6.15,15.86s4.4,11.857,6.008,15.9c.786,1.964,1.433,3.581,1.912,4.782.206.521.375.952.514,1.3a1.8,1.8,0,0,1,.148.469" transform="translate(-55.044 -30.924)" fill="#e0e0e0"/>
            <path id="Path_610286" data-name="Path 610286" d="M646.274,358.842a1.881,1.881,0,0,1-.462.19l-1.352.453-4.984,1.615c-4.208,1.365-10,3.316-16.394,5.482s-12.212,4.067-16.449,5.345c-2.119.64-3.838,1.14-5.033,1.461l-1.379.362a.251.251,0,1,1-.028-.1l1.351-.452,4.984-1.616c4.208-1.364,10-3.316,16.4-5.482s12.208-4.065,16.446-5.343c2.119-.64,3.838-1.14,5.033-1.462l1.379-.362a1.827,1.827,0,0,1,.491-.092" transform="translate(-56.892 -34.04)" fill="#e0e0e0"/>
          </g>
        </g>
        <g id="Group_1072804" data-name="Group 1072804">
          <g id="Group_1072803" data-name="Group 1072803" clip-path="url(#clip-path)">
            <path id="Path_610287" data-name="Path 610287" d="M596.923,400.945c0,.13-130.133.235-290.625.235-160.546,0-290.652-.1-290.652-.235s130.106-.235,290.652-.235c160.492,0,290.625.1,290.625.235" transform="translate(-1.484 -38.012)" fill="#263238"/>
          </g>
        </g>
        <g id="Group_1072809" data-name="Group 1072809">
          <g id="Group_1072808" data-name="Group 1072808" clip-path="url(#clip-path)">
            <path id="Path_610288" data-name="Path 610288" d="M583.59,363.737c1.581,2.032,4.413,1.189,5.678-.163a10.732,10.732,0,0,0,2.154-5.049c.963-4.121,1.926-8.44.848-12.533a6.936,6.936,0,0,0-1.762-3.306,3.62,3.62,0,0,0-3.484-.967c-1.427.454-2.254,1.916-2.835,3.3a29.729,29.729,0,0,0-2.29,12.892,10.316,10.316,0,0,0,1.691,5.83" transform="translate(-55.197 -32.404)" fill="#0c5e46"/>
            <g id="Group_1072807" data-name="Group 1072807" transform="translate(526.667 309.182)" opacity="0.2">
              <g id="Group_1072806" data-name="Group 1072806">
                <g id="Group_1072805" data-name="Group 1072805" clip-path="url(#clip-path-5)">
                  <path id="Path_610289" data-name="Path 610289" d="M583.59,363.737c1.581,2.032,4.413,1.189,5.678-.163a10.732,10.732,0,0,0,2.154-5.049c.963-4.121,1.926-8.44.848-12.533a6.936,6.936,0,0,0-1.762-3.306,3.62,3.62,0,0,0-3.484-.967c-1.427.454-2.254,1.916-2.835,3.3a29.729,29.729,0,0,0-2.29,12.892,10.316,10.316,0,0,0,1.691,5.83" transform="translate(-581.867 -341.586)"/>
                </g>
              </g>
            </g>
            <path id="Path_610290" data-name="Path 610290" d="M590.2,377.384a12.8,12.8,0,0,1,7.883-1.365,6.6,6.6,0,0,1,4.006,1.551c1.035,1.031,1.316,2.924.238,3.909a3.759,3.759,0,0,1-2.438.752c-2.1.081-4.442-.17-6.055,1.176-.919.768-1.494,2-2.619,2.409a2.7,2.7,0,0,1-3.039-1.172,4.62,4.62,0,0,1-.509-3.391,5.208,5.208,0,0,1,2.533-3.869" transform="translate(-55.737 -35.66)" fill="#0c5e46"/>
            <path id="Path_610291" data-name="Path 610291" d="M577.6,367.8a7.676,7.676,0,0,0,.836-7.115,13.606,13.606,0,0,0-4.485-5.85,22.518,22.518,0,0,0-7.705-4.037,7.99,7.99,0,0,0-3.394-.4,3.537,3.537,0,0,0-2.738,1.851c-.711,1.542.136,3.326,1.027,4.77a57.007,57.007,0,0,0,5.293,7.236c1.569,1.825,3.351,3.613,5.639,4.358s4.616.526,5.727-1.092" transform="translate(-53.109 -33.234)" fill="#0c5e46"/>
            <path id="Path_610292" data-name="Path 610292" d="M585.426,399.091a4.575,4.575,0,0,0,.085-.964c.033-.7.073-1.579.122-2.626a37.707,37.707,0,0,1,.394-3.862,29.626,29.626,0,0,1,1.165-4.594,16.686,16.686,0,0,1,2.1-4.21,8.641,8.641,0,0,1,2.8-2.575,8.2,8.2,0,0,1,2.42-.89,4.541,4.541,0,0,0,.946-.186,4.484,4.484,0,0,0-.97.034,7.445,7.445,0,0,0-2.531.8,8.616,8.616,0,0,0-2.956,2.6,16.28,16.28,0,0,0-2.183,4.3,27.68,27.68,0,0,0-1.151,4.667,32.518,32.518,0,0,0-.313,3.907c-.027,1.114-.013,2.014,0,2.636a4.457,4.457,0,0,0,.069.966" transform="translate(-55.527 -35.969)" fill="#263238"/>
            <path id="Path_610293" data-name="Path 610293" d="M585.456,394.4a1.885,1.885,0,0,0,0-.445c-.018-.334-.041-.755-.068-1.271-.059-1.1-.139-2.7-.179-4.671-.1-3.945-.037-9.4.316-15.413s.96-11.437,1.563-15.338c.139-.977.285-1.857.425-2.628s.244-1.439.357-1.98c.1-.508.173-.921.234-1.249a.224.224,0,1,0-.078-.018c-.081.324-.183.733-.308,1.236-.137.537-.271,1.2-.424,1.97s-.327,1.648-.484,2.624a144.421,144.421,0,0,0-1.683,15.358c-.354,6.024-.374,11.493-.2,15.445.076,1.976.2,3.573.305,4.673.058.515.1.933.142,1.266a1.863,1.863,0,0,0,.076.438" transform="translate(-55.478 -33.293)" fill="#263238"/>
            <path id="Path_610294" data-name="Path 610294" d="M583.333,384.31a8.468,8.468,0,0,0-.076-1.327c-.092-.85-.272-2.076-.588-3.574a47.356,47.356,0,0,0-1.434-5.179,46.636,46.636,0,0,0-2.5-6.088,33.076,33.076,0,0,0-6.94-9.691,16.364,16.364,0,0,0-1.584-1.33c-.243-.185-.457-.37-.674-.515l-.607-.375a8.415,8.415,0,0,0-1.154-.659,39.6,39.6,0,0,1,3.828,3.082,34.844,34.844,0,0,1,6.776,9.663,49.434,49.434,0,0,1,2.514,6.03,53.2,53.2,0,0,1,1.506,5.123c.35,1.481.57,2.694.709,3.534a8.507,8.507,0,0,0,.229,1.306" transform="translate(-53.86 -33.73)" fill="#263238"/>
          </g>
        </g>
        <rect id="Rectangle_377965" data-name="Rectangle 377965" width="102.333" height="68.539" transform="translate(0.235 159.749)" fill="#fafafa"/>
        <g id="Group_1072811" data-name="Group 1072811">
          <g id="Group_1072810" data-name="Group 1072810" clip-path="url(#clip-path)">
            <path id="Path_610295" data-name="Path 610295" d="M80.541,219.661H77.813v-16.4a7.146,7.146,0,0,0-14.291,0v16.4H60.795v-16.4a9.873,9.873,0,0,1,19.746,0Z" transform="translate(-5.767 -18.345)" fill="#263238"/>
            <path id="Path_610296" data-name="Path 610296" d="M80.715,231.673H59.859a3.071,3.071,0,0,1-3.07-3.07V217.423a3.071,3.071,0,0,1,3.07-3.07H80.715a3.071,3.071,0,0,1,3.07,3.07V228.6a3.071,3.071,0,0,1-3.07,3.07" transform="translate(-5.387 -20.334)" fill="#263238"/>
            <path id="Path_610297" data-name="Path 610297" d="M71.466,223.448a2.257,2.257,0,1,1,2.257-2.257,2.256,2.256,0,0,1-2.257,2.257" transform="translate(-6.565 -20.769)" fill="#455a64"/>
            <rect id="Rectangle_377966" data-name="Rectangle 377966" width="1.231" height="4.641" transform="translate(64.285 201.316)" fill="#455a64"/>
            <path id="Path_610298" data-name="Path 610298" d="M53.686,219.991a10.926,10.926,0,0,0,6.51-10.107c.024-6.035-4.542-10.948-10.2-10.974S39.73,203.754,39.7,209.789a10.909,10.909,0,0,0,6.529,10.2C30.466,222.366,31.181,239.5,31.181,239.5l37.284.172s.851-17.323-14.779-19.683" transform="translate(-2.957 -18.869)" fill="#afafaf"/>
            <path id="Path_610299" data-name="Path 610299" d="M102.568,245.006s-.014-.432-.021-1.251-.012-2.04-.021-3.621c-.011-3.178-.027-7.831-.048-13.789-.024-11.91-.057-29.02-.1-49.878l.188.188L.243,176.7H.235l.235-.235C.464,200.885.457,224.1.452,245.006l-.216-.216,73.709.107,21.068.058,5.607.026,1.449.013c.327,0,.5.013.5.013s-.156.008-.474.013l-1.425.013-5.564.026-21.019.058-73.851.106H.02v-.216C.014,224.1.006,200.885,0,176.467v-.236H.243l102.325.048h.188v.188c-.042,20.908-.075,38.058-.1,50-.021,5.94-.037,10.579-.048,13.747-.009,1.565-.016,2.764-.022,3.584s-.02,1.212-.02,1.212" transform="translate(0 -16.718)" fill="#263238"/>
            <path id="Path_610300" data-name="Path 610300" d="M102.575,185.563c0,.13-22.894.235-51.128.235S.313,185.694.313,185.563s22.889-.235,51.134-.235,51.128.1,51.128.235" transform="translate(-0.03 -17.581)" fill="#263238"/>
            <path id="Path_610301" data-name="Path 610301" d="M7.483,180.937a1.057,1.057,0,1,1-1.057-1.057,1.057,1.057,0,0,1,1.057,1.057" transform="translate(-0.509 -17.064)" fill="#263238"/>
            <path id="Path_610302" data-name="Path 610302" d="M11.31,180.937a1.057,1.057,0,1,1-1.057-1.057,1.057,1.057,0,0,1,1.057,1.057" transform="translate(-0.872 -17.064)" fill="#263238"/>
            <path id="Path_610303" data-name="Path 610303" d="M15.424,180.937a1.057,1.057,0,1,1-1.057-1.057,1.057,1.057,0,0,1,1.057,1.057" transform="translate(-1.263 -17.064)" fill="#263238"/>
            <path id="Path_610304" data-name="Path 610304" d="M102.568,245.006s-.014-.432-.021-1.251-.012-2.04-.021-3.621c-.011-3.178-.027-7.831-.048-13.789-.024-11.91-.057-29.02-.1-49.878l.188.188L.243,176.7H.235l.235-.235C.464,200.885.457,224.1.452,245.006l-.216-.216,73.709.107,21.068.058,5.607.026,1.449.013c.327,0,.5.013.5.013s-.156.008-.474.013l-1.425.013-5.564.026-21.019.058-73.851.106H.02v-.216C.014,224.1.006,200.885,0,176.467v-.236H.243l102.325.048h.188v.188c-.042,20.908-.075,38.058-.1,50-.021,5.94-.037,10.579-.048,13.747-.009,1.565-.016,2.764-.022,3.584s-.02,1.212-.02,1.212" transform="translate(0 -16.718)" fill="#263238"/>
            <path id="Path_610305" data-name="Path 610305" d="M56.035,254.477c-.13,0-.236-.507-.236-1.131s.106-1.131.236-1.131.235.506.235,1.131-.1,1.131-.235,1.131" transform="translate(-5.293 -23.926)" fill="#263238"/>
            <path id="Path_610306" data-name="Path 610306" d="M56.035,265.136a13.089,13.089,0,0,1,0-4.951,13.138,13.138,0,0,1,0,4.951" transform="translate(-5.293 -24.682)" fill="#263238"/>
            <path id="Path_610307" data-name="Path 610307" d="M56.035,276.077a13.088,13.088,0,0,1,0-4.951,13.138,13.138,0,0,1,0,4.951" transform="translate(-5.293 -25.72)" fill="#263238"/>
            <path id="Path_610308" data-name="Path 610308" d="M56.035,287.018a13.089,13.089,0,0,1,0-4.951,13.138,13.138,0,0,1,0,4.951" transform="translate(-5.293 -26.758)" fill="#263238"/>
            <path id="Path_610309" data-name="Path 610309" d="M56.035,297.958a13.088,13.088,0,0,1,0-4.951,13.138,13.138,0,0,1,0,4.951" transform="translate(-5.293 -27.795)" fill="#263238"/>
            <path id="Path_610310" data-name="Path 610310" d="M58.3,306.211a5.635,5.635,0,0,1-2.263.235c-.471-.471-.13-.13-.235-.236h0v-.229l0-.225c0-.134.009-.273.014-.424.012-.271.029-.515.051-.72.043-.409.1-.663.167-.663s.124.253.167.663c.022.2.039.449.051.72,0,.151.009.291.014.424l0,.225v.229h0c-.1-.105.235.236-.235-.234a5.634,5.634,0,0,1,2.263.235" transform="translate(-5.291 -28.833)" fill="#263238"/>
            <path id="Path_610311" data-name="Path 610311" d="M67.92,306.423a5.45,5.45,0,0,1-2.224.235,5.444,5.444,0,0,1-2.223-.235,5.444,5.444,0,0,1,2.223-.235,5.45,5.45,0,0,1,2.224.235" transform="translate(-6.021 -29.046)" fill="#263238"/>
            <path id="Path_610312" data-name="Path 610312" d="M77.747,306.423a5.451,5.451,0,0,1-2.224.235,5.444,5.444,0,0,1-2.223-.235,5.444,5.444,0,0,1,2.223-.235,5.45,5.45,0,0,1,2.224.235" transform="translate(-6.953 -29.046)" fill="#263238"/>
            <path id="Path_610313" data-name="Path 610313" d="M87.574,306.423a5.451,5.451,0,0,1-2.224.235,5.444,5.444,0,0,1-2.223-.235,5.444,5.444,0,0,1,2.223-.235,5.45,5.45,0,0,1,2.224.235" transform="translate(-7.886 -29.046)" fill="#263238"/>
            <path id="Path_610314" data-name="Path 610314" d="M97.4,306.423a5.45,5.45,0,0,1-2.224.235,5.444,5.444,0,0,1-2.223-.235,5.444,5.444,0,0,1,2.223-.235,5.45,5.45,0,0,1,2.224.235" transform="translate(-8.818 -29.046)" fill="#263238"/>
            <path id="Path_610315" data-name="Path 610315" d="M107.228,306.423a5.451,5.451,0,0,1-2.224.235,5.444,5.444,0,0,1-2.223-.235,5.444,5.444,0,0,1,2.223-.235,5.45,5.45,0,0,1,2.224.235" transform="translate(-9.75 -29.046)" fill="#263238"/>
            <path id="Path_610316" data-name="Path 610316" d="M117.055,306.423a10.621,10.621,0,0,1-4.447,0,10.621,10.621,0,0,1,4.447,0" transform="translate(-10.682 -29.046)" fill="#263238"/>
            <path id="Path_610317" data-name="Path 610317" d="M126.882,306.423a10.621,10.621,0,0,1-4.447,0,10.621,10.621,0,0,1,4.447,0" transform="translate(-11.615 -29.046)" fill="#263238"/>
            <path id="Path_610318" data-name="Path 610318" d="M136.708,306.423a10.621,10.621,0,0,1-4.447,0,10.621,10.621,0,0,1,4.447,0" transform="translate(-12.547 -29.046)" fill="#263238"/>
            <path id="Path_610319" data-name="Path 610319" d="M146.535,306.423a10.621,10.621,0,0,1-4.447,0,10.621,10.621,0,0,1,4.447,0" transform="translate(-13.479 -29.046)" fill="#263238"/>
            <path id="Path_610320" data-name="Path 610320" d="M156.362,306.423a10.621,10.621,0,0,1-4.447,0,10.621,10.621,0,0,1,4.447,0" transform="translate(-14.411 -29.046)" fill="#263238"/>
            <path id="Path_610321" data-name="Path 610321" d="M164,306.423c0,.13-.507.235-1.131.235s-1.131-.105-1.131-.235.507-.235,1.131-.235,1.131.1,1.131.235" transform="translate(-15.343 -29.046)" fill="#263238"/>
          </g>
        </g>
        <rect id="Rectangle_377968" data-name="Rectangle 377968" width="54.684" height="74.83" transform="translate(95.043 20.932)" fill="#fff"/>
        <g id="Group_1072813" data-name="Group 1072813">
          <g id="Group_1072812" data-name="Group 1072812" clip-path="url(#clip-path)">
            <path id="Path_610322" data-name="Path 610322" d="M159.683,97.908s-.01-.129-.014-.368c0-.255-.009-.6-.015-1.058-.007-.948-.018-2.316-.033-4.09-.018-3.582-.044-8.788-.077-15.371-.04-13.17-.1-31.844-.162-53.943l.247.247-54.677.065h-.006l.272-.273c0,27.952,0,53.829,0,74.83L105,97.725l39.708.087,11.05.05,2.913.023c.661.008,1.013.024,1.013.024s-.32.016-.966.025l-2.87.027-11,.065L105,98.169h-.222v-.223c-.029-21-.065-46.88-.1-74.83v-.273h.279l54.678-.014h.248v.247c-.034,22.165-.063,40.894-.084,54.1-.024,6.56-.043,11.747-.055,15.315-.012,1.753-.02,3.106-.026,4.041-.006.442-.011.782-.014,1.031a2.821,2.821,0,0,1-.014.339" transform="translate(-9.929 -2.166)" fill="#263238"/>
            <path id="Path_610323" data-name="Path 610323" d="M139.149,39.709c0,.151-5.949.277-13.287.282s-13.287-.112-13.287-.263,5.948-.277,13.287-.282,13.287.113,13.287.263" transform="translate(-10.679 -3.742)" fill="#263238"/>
            <path id="Path_610324" data-name="Path 610324" d="M153.526,46.882c0,.151-9.167.28-20.472.288s-20.474-.108-20.474-.258,9.165-.28,20.474-.288,20.472.107,20.472.258" transform="translate(-10.68 -4.423)" fill="#263238"/>
            <path id="Path_610325" data-name="Path 610325" d="M153.532,54.376c0,.151-9.166.28-20.472.288s-20.474-.108-20.474-.258,9.165-.28,20.474-.288,20.472.107,20.472.258" transform="translate(-10.68 -5.134)" fill="#263238"/>
            <path id="Path_610326" data-name="Path 610326" d="M153.537,61.871c0,.151-9.166.28-20.471.288s-20.475-.108-20.475-.258,9.165-.28,20.474-.288,20.472.108,20.472.258" transform="translate(-10.681 -5.845)" fill="#263238"/>
            <path id="Path_610327" data-name="Path 610327" d="M153.543,69.365c0,.151-9.166.28-20.472.288s-20.474-.108-20.474-.258,9.165-.28,20.474-.288,20.472.108,20.472.258" transform="translate(-10.681 -6.556)" fill="#263238"/>
            <path id="Path_610328" data-name="Path 610328" d="M153.548,76.86c0,.151-9.166.28-20.472.288S112.6,77.04,112.6,76.89s9.165-.28,20.474-.288,20.472.108,20.472.258" transform="translate(-10.682 -7.267)" fill="#263238"/>
            <path id="Path_610329" data-name="Path 610329" d="M153.553,84.354c0,.15-9.166.28-20.472.288s-20.474-.108-20.474-.259,9.165-.279,20.474-.287,20.472.107,20.472.258" transform="translate(-10.682 -7.978)" fill="#263238"/>
            <path id="Path_610330" data-name="Path 610330" d="M134.621,91.863c0,.151-4.927.276-11,.281s-11.006-.114-11.006-.265,4.927-.276,11.006-.281,11,.114,11,.265" transform="translate(-10.683 -8.689)" fill="#263238"/>
            <path id="Path_610331" data-name="Path 610331" d="M170.108,98.351A11.107,11.107,0,1,1,159,87.243a11.108,11.108,0,0,1,11.108,11.108" transform="translate(-14.03 -8.276)" fill="#0c5e46"/>
            <path id="Path_610332" data-name="Path 610332" d="M165.927,94.778c.476.444-1.706,3.553-4.871,6.942-.51.546-1.014,1.065-1.493,1.541l-.768.763-.764-.642c-2.763-2.322-4.57-4.31-4.235-4.741s2.707.833,5.635,2.944l-1.532.121c.442-.511.926-1.05,1.436-1.595,3.165-3.39,6.119-5.778,6.594-5.334" transform="translate(-14.586 -8.986)" fill="#e0e0e0"/>
            <path id="Path_610333" data-name="Path 610333" d="M130.614,109.83a5.635,5.635,0,0,1-.235-2.263,5.635,5.635,0,0,1,.235-2.263,5.635,5.635,0,0,1,.235,2.263,5.635,5.635,0,0,1-.235,2.263" transform="translate(-12.368 -9.989)" fill="#263238"/>
            <path id="Path_610334" data-name="Path 610334" d="M130.614,119.83a11,11,0,0,1,0-4.526,11,11,0,0,1,0,4.526" transform="translate(-12.368 -10.938)" fill="#263238"/>
            <path id="Path_610335" data-name="Path 610335" d="M130.614,129.83a11,11,0,0,1,0-4.526,11,11,0,0,1,0,4.526" transform="translate(-12.368 -11.887)" fill="#263238"/>
            <path id="Path_610336" data-name="Path 610336" d="M130.614,139.83a11,11,0,0,1,0-4.526,11,11,0,0,1,0,4.526" transform="translate(-12.368 -12.835)" fill="#263238"/>
            <path id="Path_610337" data-name="Path 610337" d="M130.614,149.83a11,11,0,0,1,0-4.526,11,11,0,0,1,0,4.526" transform="translate(-12.368 -13.784)" fill="#263238"/>
            <path id="Path_610338" data-name="Path 610338" d="M130.614,159.83a11,11,0,0,1,0-4.526,11,11,0,0,1,0,4.526" transform="translate(-12.368 -14.733)" fill="#263238"/>
            <path id="Path_610339" data-name="Path 610339" d="M130.614,169.83a11,11,0,0,1,0-4.526,11,11,0,0,1,0,4.526" transform="translate(-12.368 -15.681)" fill="#263238"/>
            <path id="Path_610340" data-name="Path 610340" d="M130.614,179.83a11,11,0,0,1,0-4.526,11,11,0,0,1,0,4.526" transform="translate(-12.368 -16.63)" fill="#263238"/>
            <path id="Path_610341" data-name="Path 610341" d="M135,185.454a5.626,5.626,0,0,1-2.263.236,10.628,10.628,0,0,1-2.1-.15l-.1-.028.014-.058c.027-.1.056-.158.086-.158s.059.054.085.158l-.085-.085a10.629,10.629,0,0,1,2.1-.15,5.635,5.635,0,0,1,2.263.235" transform="translate(-12.382 -17.57)" fill="#263238"/>
            <path id="Path_610342" data-name="Path 610342" d="M144.99,185.454a10.956,10.956,0,0,1-4.526,0,11,11,0,0,1,4.526,0" transform="translate(-13.325 -17.57)" fill="#263238"/>
            <path id="Path_610343" data-name="Path 610343" d="M154.99,185.454a10.956,10.956,0,0,1-4.526,0,11,11,0,0,1,4.526,0" transform="translate(-14.273 -17.57)" fill="#263238"/>
            <path id="Path_610344" data-name="Path 610344" d="M164.99,185.454a10.956,10.956,0,0,1-4.526,0,11,11,0,0,1,4.526,0" transform="translate(-15.222 -17.57)" fill="#263238"/>
            <path id="Path_610345" data-name="Path 610345" d="M174.99,185.454a10.956,10.956,0,0,1-4.526,0,11,11,0,0,1,4.526,0" transform="translate(-16.171 -17.57)" fill="#263238"/>
          </g>
        </g>
        <g id="Group_1072815" data-name="Group 1072815">
          <g id="Group_1072814" data-name="Group 1072814" clip-path="url(#clip-path)">
            <path id="Path_610346" data-name="Path 610346" d="M341.993,94.546a5.631,5.631,0,0,1-.235-2.262,5.631,5.631,0,0,1,.235-2.262,5.633,5.633,0,0,1,.235,2.262,5.633,5.633,0,0,1-.235,2.262" transform="translate(-32.42 -8.54)" fill="#263238"/>
            <path id="Path_610347" data-name="Path 610347" d="M341.993,104.543a5.634,5.634,0,0,1-.235-2.263,5.634,5.634,0,0,1,.235-2.263,5.636,5.636,0,0,1,.235,2.263,5.636,5.636,0,0,1-.235,2.263" transform="translate(-32.42 -9.488)" fill="#263238"/>
            <path id="Path_610348" data-name="Path 610348" d="M341.993,114.541a10.987,10.987,0,0,1,0-4.524,10.989,10.989,0,0,1,0,4.524" transform="translate(-32.42 -10.437)" fill="#263238"/>
            <path id="Path_610349" data-name="Path 610349" d="M341.993,124.537a10.987,10.987,0,0,1,0-4.524,10.989,10.989,0,0,1,0,4.524" transform="translate(-32.42 -11.385)" fill="#263238"/>
            <path id="Path_610350" data-name="Path 610350" d="M341.993,134.538a11,11,0,0,1,0-4.527,11.006,11.006,0,0,1,0,4.527" transform="translate(-32.42 -12.333)" fill="#263238"/>
            <path id="Path_610351" data-name="Path 610351" d="M341.993,144.544a11,11,0,0,1,0-4.526,11,11,0,0,1,0,4.526" transform="translate(-32.42 -13.282)" fill="#263238"/>
            <path id="Path_610352" data-name="Path 610352" d="M341.993,154.544a11,11,0,0,1,0-4.526,11,11,0,0,1,0,4.526" transform="translate(-32.42 -14.231)" fill="#263238"/>
            <path id="Path_610353" data-name="Path 610353" d="M341.993,164.548a11.013,11.013,0,0,1,0-4.529,11.015,11.015,0,0,1,0,4.529" transform="translate(-32.42 -15.18)" fill="#263238"/>
            <path id="Path_610354" data-name="Path 610354" d="M398.028,94.976s-.176.014-.534.021l-1.6.021-6.236.042-23.391.082-80.731.125h-.217l-.062-.21a20.057,20.057,0,0,1,19.794-25.679l-.3.386a17,17,0,0,1-.625-5.42,17.858,17.858,0,0,1,9.244-15.058,18.27,18.27,0,0,1,17.105.092l-.417.148a26.625,26.625,0,0,1,15.667-14.592,25,25,0,0,1,19.861.936A27.1,27.1,0,0,1,377.88,49.3a25.663,25.663,0,0,1,1.512,16.105l-.225-.256a19.2,19.2,0,0,1,9.346,1.34,19.541,19.541,0,0,1,6.933,4.751,12.482,12.482,0,0,1,2.183,3.13,17.6,17.6,0,0,1,1.162,3.325,29.575,29.575,0,0,1,.795,6.073,34.493,34.493,0,0,1-.727,8.4,19.25,19.25,0,0,1-.58,2.116c-.162.471-.251.692-.251.692" transform="translate(-26.986 -3.162)" fill="#6debff"/>
            <path id="Path_610355" data-name="Path 610355" d="M395.969,63.666h-3.486V42.7a9.132,9.132,0,0,0-18.265,0V63.666h-3.486V42.7a12.618,12.618,0,0,1,25.236,0Z" transform="translate(-35.169 -2.854)" fill="#e0e0e0"/>
            <path id="Path_610356" data-name="Path 610356" d="M397.047,79.018H368.685a3.07,3.07,0,0,1-3.07-3.07v-16a3.07,3.07,0,0,1,3.07-3.07h28.362a3.071,3.071,0,0,1,3.07,3.07v16a3.071,3.071,0,0,1-3.07,3.07" transform="translate(-34.683 -5.396)" fill="#e0e0e0"/>
            <path id="Path_610357" data-name="Path 610357" d="M384.372,68.506a2.884,2.884,0,1,1,2.884-2.884,2.884,2.884,0,0,1-2.884,2.884" transform="translate(-36.189 -5.951)" fill="#455a64"/>
            <rect id="Rectangle_377970" data-name="Rectangle 377970" width="1.573" height="5.931" transform="translate(347.396 60.813)" fill="#455a64"/>
          </g>
        </g>
        <g id="Group_1072817" data-name="Group 1072817">
          <g id="Group_1072816" data-name="Group 1072816" clip-path="url(#clip-path)">
            <path id="Path_610358" data-name="Path 610358" d="M612.981,56.076A18.876,18.876,0,1,0,583.692,51.6l-3.841,3.583.918,6.375-5.96-1.671L570,64.368l.917,6.375-5.96-1.67-4.13,3.853.559,3.885-3.632-1.018-2.4,2.243-.36,5.9,8.806,2.217L592.372,59.5a18.881,18.881,0,0,0,20.608-3.423M610.19,32.865a5.415,5.415,0,1,1-7.653-.265,5.415,5.415,0,0,1,7.653.265" transform="translate(-52.648 -2.22)" fill="#263238"/>
            <path id="Path_610359" data-name="Path 610359" d="M614.969,33.661c-.034.035-.354-.329-1.075-.774a5.4,5.4,0,0,0-3.408-.749,5.211,5.211,0,1,0,5.692,6.1,5.4,5.4,0,0,0-.51-3.451c-.394-.75-.736-1.094-.7-1.126.012-.011.1.069.259.234a4.144,4.144,0,0,1,.6.8,5.39,5.39,0,0,1,.679,3.6,5.582,5.582,0,0,1-6.544,4.6,5.6,5.6,0,0,1-4.553-4.881,5.582,5.582,0,0,1,5.043-6.208,5.387,5.387,0,0,1,3.541.926,4.14,4.14,0,0,1,.76.653c.154.17.227.264.215.275" transform="translate(-57.427 -3.015)" fill="#263238"/>
            <path id="Path_610360" data-name="Path 610360" d="M612.957,56.058s-.087.093-.272.261l-.831.741a19.8,19.8,0,0,1-3.653,2.322,19,19,0,0,1-15.91.229l.156-.025L563.921,86.294l-.084.079-.112-.028-8.808-2.208-.177-.045.011-.183c.11-1.841.233-3.86.356-5.9l0-.09.066-.062,2.4-2.244.094-.088.123.034,3.632,1.016-.289.253c-.176-1.213-.367-2.544-.561-3.885l-.017-.119.089-.083,4.128-3.854.1-.09.127.035,5.96,1.669-.3.26c-.291-2.021-.6-4.19-.918-6.375l-.018-.122.091-.084,1.273-1.188,3.532-3.294.1-.091.128.035,5.959,1.672-.3.259q-.463-3.22-.916-6.375l-.017-.12.089-.083,3.842-3.581-.043.282a19.275,19.275,0,0,1-2.454-8.594,18.3,18.3,0,0,1,.313-4.367,18.521,18.521,0,0,1,1.256-4.106,19.017,19.017,0,0,1,36.409,9.117,18.663,18.663,0,0,1-2.118,7.267l-.351.673-.387.6c-.257.382-.471.757-.717,1.072-.509.614-.9,1.165-1.284,1.549l-.873.871c-.2.194-.306.285-.306.285s.089-.111.276-.315l.841-.9c.373-.391.751-.948,1.247-1.565.238-.316.445-.692.7-1.074l.377-.6.34-.671a18.9,18.9,0,0,0,.137-16.969,18.7,18.7,0,0,0-33.885.833,18.108,18.108,0,0,0-1.221,4.012,17.833,17.833,0,0,0-.3,4.266,18.807,18.807,0,0,0,2.4,8.386l.089.159-.132.123-3.839,3.584.072-.2q.455,3.153.919,6.374l.052.357-.347-.1-5.96-1.67.225-.054-3.532,3.295-1.274,1.188.072-.205c.314,2.185.626,4.354.917,6.375l.052.357-.348-.1-5.959-1.672.222-.054-4.131,3.851.071-.2c.193,1.34.384,2.672.558,3.886l.05.348-.339-.1-3.631-1.02.216-.052-2.4,2.241.071-.151c-.126,2.046-.251,4.063-.364,5.9l-.167-.228,8.8,2.225-.2.051,28.62-26.607.07-.064.086.039a18.915,18.915,0,0,0,15.728-.107A20.746,20.746,0,0,0,611.8,57l.854-.709c.193-.158.3-.232.3-.232" transform="translate(-52.624 -2.202)" fill="#263238"/>
            <path id="Path_610361" data-name="Path 610361" d="M612.282,53.709a18.876,18.876,0,1,0-29.288-4.479l0,.005-3.836,3.578.918,6.375-5.96-1.671L569.3,62l.918,6.375-5.96-1.67-4.13,3.853.559,3.885-3.632-1.018-2.4,2.244-.36,5.9L563.1,83.79l28.573-26.657a18.881,18.881,0,0,0,20.608-3.423M609.491,30.5a5.415,5.415,0,1,1-7.653-.265,5.415,5.415,0,0,1,7.653.265" transform="translate(-52.582 -1.995)" fill="#e0e0e0"/>
            <path id="Path_610362" data-name="Path 610362" d="M614.27,31.294c-.034.035-.354-.329-1.075-.774a5.4,5.4,0,0,0-3.408-.749,5.211,5.211,0,1,0,5.692,6.1,5.4,5.4,0,0,0-.511-3.45c-.394-.751-.736-1.1-.7-1.127.012-.011.1.069.259.234a4.159,4.159,0,0,1,.6.8,5.388,5.388,0,0,1,.679,3.6,5.582,5.582,0,0,1-6.544,4.6,5.6,5.6,0,0,1-4.553-4.881,5.582,5.582,0,0,1,5.043-6.208,5.387,5.387,0,0,1,3.541.926,4.178,4.178,0,0,1,.76.653c.154.17.227.264.215.275" transform="translate(-57.361 -2.791)" fill="#263238"/>
            <path id="Path_610363" data-name="Path 610363" d="M612.257,53.691s-.087.093-.272.261l-.831.741a19.8,19.8,0,0,1-3.653,2.322,19,19,0,0,1-15.911.229l.156-.025L563.222,83.927l-.084.079-.112-.028-8.808-2.208-.178-.045.012-.183c.11-1.841.232-3.86.355-5.9l.005-.09.066-.062,2.4-2.245.094-.087.123.034,3.632,1.016-.289.253c-.176-1.213-.367-2.544-.561-3.885l-.017-.119.089-.083,4.128-3.854.1-.09.127.035,5.96,1.669-.3.26c-.292-2.021-.6-4.19-.918-6.375l-.018-.122.091-.084,1.273-1.188,3.532-3.294.1-.091.128.035,5.959,1.672-.3.259q-.462-3.22-.915-6.375l-.017-.12.089-.083,3.842-3.581-.043.282a19.259,19.259,0,0,1-2.454-8.593,19.274,19.274,0,0,1,1.57-8.473,19.017,19.017,0,0,1,36.409,9.117,18.664,18.664,0,0,1-2.118,7.267l-.351.673-.388.6c-.256.382-.471.757-.716,1.071-.509.614-.9,1.165-1.285,1.549s-.664.663-.873.872-.3.285-.3.285.089-.111.276-.315l.84-.9c.374-.391.752-.948,1.248-1.565.238-.316.445-.692.7-1.074l.377-.6.339-.671A18.9,18.9,0,0,0,616.17,31.6a18.7,18.7,0,0,0-33.885.833,18.072,18.072,0,0,0-1.221,4.012,17.881,17.881,0,0,0-.3,4.266,18.832,18.832,0,0,0,2.4,8.386l.09.159-.132.123-3.839,3.584.071-.2q.455,3.153.919,6.374l.052.357-.347-.1-5.96-1.67.224-.054-3.532,3.295-1.273,1.188.072-.205c.314,2.185.626,4.354.917,6.375l.052.357-.348-.1-5.959-1.672.222-.054-4.131,3.851.071-.2c.193,1.341.384,2.672.557,3.886l.05.348-.339-.1-3.631-1.02.216-.052-2.405,2.241.071-.151c-.126,2.045-.251,4.063-.364,5.9l-.167-.228,8.8,2.225-.2.051,28.62-26.607.07-.064.086.039a18.924,18.924,0,0,0,15.728-.107,20.751,20.751,0,0,0,3.669-2.246l.854-.709c.193-.158.3-.232.3-.232" transform="translate(-52.558 -1.977)" fill="#263238"/>
            <path id="Path_610364" data-name="Path 610364" d="M613.492,52.469a25.836,25.836,0,0,0,2.535-3.2,15.877,15.877,0,0,0,1.941-4.345,16.441,16.441,0,0,0-8.36-19.2,15.408,15.408,0,0,0-4.463-1.507,15,15,0,0,0-4.908-.157,16.313,16.313,0,0,0-14.164,13.212,18.712,18.712,0,0,0-.3,2.47,18.606,18.606,0,0,0,.111,2.438,15.4,15.4,0,0,0,1.195,4.557,16.482,16.482,0,0,0,18.574,9.67,15.865,15.865,0,0,0,4.469-1.635,25.776,25.776,0,0,0,3.365-2.307,1.134,1.134,0,0,1-.19.192l-.59.528a7.653,7.653,0,0,1-1.013.8,11.578,11.578,0,0,1-1.484.95,15.711,15.711,0,0,1-4.5,1.732A16.748,16.748,0,0,1,592.2,53.854a16.843,16.843,0,0,1-5.515-6.942,15.808,15.808,0,0,1-1.242-4.677,18.82,18.82,0,0,1-.12-2.5,18.967,18.967,0,0,1,.3-2.54A16.741,16.741,0,0,1,600.182,23.6a15.429,15.429,0,0,1,5.044.173A15.782,15.782,0,0,1,609.8,25.34a16.839,16.839,0,0,1,6.543,5.981A16.751,16.751,0,0,1,618.22,45a15.68,15.68,0,0,1-2.039,4.371,11.619,11.619,0,0,1-1.051,1.414,7.634,7.634,0,0,1-.866.956l-.568.552a1.117,1.117,0,0,1-.2.176" transform="translate(-55.525 -2.228)" fill="#263238"/>
            <path id="Path_610365" data-name="Path 610365" d="M614.454,39.534c-.038-.036.395-.406.921-1.253a6.32,6.32,0,0,0,.892-4.006,6.162,6.162,0,0,0-3.358-4.838,6.071,6.071,0,0,0-3.5-.614,6.1,6.1,0,0,0-5.288,4.933,6.071,6.071,0,0,0,.369,3.536,6.17,6.17,0,0,0,4.594,3.686,6.328,6.328,0,0,0,4.059-.613c.881-.467,1.28-.872,1.313-.832.011.012-.085.113-.28.3a4.959,4.959,0,0,1-.944.694,6.318,6.318,0,0,1-4.2.781,6.424,6.424,0,0,1-2.779-1.147,6.542,6.542,0,0,1,3.1-11.795,6.462,6.462,0,0,1,3.755.685,6.533,6.533,0,0,1,2.54,2.34,6.422,6.422,0,0,1,.952,2.851,6.327,6.327,0,0,1-1.07,4.14,5.031,5.031,0,0,1-.758.894c-.2.181-.306.27-.317.258" transform="translate(-57.255 -2.686)" fill="#263238"/>
            <path id="Path_610366" data-name="Path 610366" d="M561.474,86.37c-.089-.1,6.345-6.242,14.369-13.728s14.6-13.48,14.692-13.385-6.344,6.241-14.371,13.73-14.6,13.478-14.69,13.383" transform="translate(-53.263 -5.621)" fill="#263238"/>
            <path id="Path_610367" data-name="Path 610367" d="M530.284,179.524a11,11,0,0,1-4.526,0,11,11,0,0,1,4.526,0" transform="translate(-49.875 -17.008)" fill="#263238"/>
            <path id="Path_610368" data-name="Path 610368" d="M540.284,179.524a11,11,0,0,1-4.526,0,11,11,0,0,1,4.526,0" transform="translate(-50.823 -17.008)" fill="#263238"/>
            <path id="Path_610369" data-name="Path 610369" d="M550.284,179.524a11,11,0,0,1-4.526,0,11,11,0,0,1,4.526,0" transform="translate(-51.772 -17.008)" fill="#263238"/>
            <path id="Path_610370" data-name="Path 610370" d="M560.284,179.524a11,11,0,0,1-4.526,0,11,11,0,0,1,4.526,0" transform="translate(-52.721 -17.008)" fill="#263238"/>
            <path id="Path_610371" data-name="Path 610371" d="M570.284,179.524a11,11,0,0,1-4.526,0,11,11,0,0,1,4.526,0" transform="translate(-53.669 -17.008)" fill="#263238"/>
            <path id="Path_610372" data-name="Path 610372" d="M580.284,179.524a11,11,0,0,1-4.526,0,11,11,0,0,1,4.526,0" transform="translate(-54.618 -17.008)" fill="#263238"/>
            <path id="Path_610373" data-name="Path 610373" d="M588.911,178.033c.1,0,.181.565.216,1.371l.01.207-.226.01c-.273.012-.575.019-.891.019a5.632,5.632,0,0,1-2.264-.236,5.66,5.66,0,0,1,2.264-.235c.316,0,.617.006.891.019l-.216.216c.036-.806.12-1.371.216-1.371" transform="translate(-55.567 -16.889)" fill="#263238"/>
            <path id="Path_610374" data-name="Path 610374" d="M589.217,168.033a11,11,0,0,1,0,4.526,11,11,0,0,1,0-4.526" transform="translate(-55.872 -15.94)" fill="#263238"/>
            <path id="Path_610375" data-name="Path 610375" d="M589.217,158.033a11,11,0,0,1,0,4.526,11,11,0,0,1,0-4.526" transform="translate(-55.872 -14.991)" fill="#263238"/>
            <path id="Path_610376" data-name="Path 610376" d="M589.217,148.033a11,11,0,0,1,0,4.526,11,11,0,0,1,0-4.526" transform="translate(-55.872 -14.043)" fill="#263238"/>
            <path id="Path_610377" data-name="Path 610377" d="M589.217,138.033a11,11,0,0,1,0,4.526,11,11,0,0,1,0-4.526" transform="translate(-55.872 -13.094)" fill="#263238"/>
            <path id="Path_610378" data-name="Path 610378" d="M589.217,128.033a11,11,0,0,1,0,4.526,11,11,0,0,1,0-4.526" transform="translate(-55.872 -12.146)" fill="#263238"/>
            <path id="Path_610379" data-name="Path 610379" d="M589.217,118.033a11,11,0,0,1,0,4.526,11,11,0,0,1,0-4.526" transform="translate(-55.872 -11.197)" fill="#263238"/>
            <path id="Path_610380" data-name="Path 610380" d="M589.217,108.033a5.636,5.636,0,0,1,.235,2.263,5.636,5.636,0,0,1-.235,2.263,5.634,5.634,0,0,1-.235-2.263,5.634,5.634,0,0,1,.235-2.263" transform="translate(-55.872 -10.248)" fill="#263238"/>
            <path id="Path_610381" data-name="Path 610381" d="M589.217,98.033a5.636,5.636,0,0,1,.235,2.263,5.636,5.636,0,0,1-.235,2.263,5.634,5.634,0,0,1-.235-2.263,5.634,5.634,0,0,1,.235-2.263" transform="translate(-55.872 -9.3)" fill="#263238"/>
            <path id="Path_610382" data-name="Path 610382" d="M589.217,88.033a5.636,5.636,0,0,1,.235,2.263,5.636,5.636,0,0,1-.235,2.263,5.634,5.634,0,0,1-.235-2.263,5.634,5.634,0,0,1,.235-2.263" transform="translate(-55.872 -8.351)" fill="#263238"/>
            <path id="Path_610383" data-name="Path 610383" d="M589.217,78.033a5.636,5.636,0,0,1,.235,2.263,5.636,5.636,0,0,1-.235,2.263,5.634,5.634,0,0,1-.235-2.263,5.634,5.634,0,0,1,.235-2.263" transform="translate(-55.872 -7.402)" fill="#263238"/>
          </g>
        </g>
        <g id="Group_1072819" data-name="Group 1072819">
          <g id="Group_1072818" data-name="Group 1072818" clip-path="url(#clip-path)">
            <path id="Path_610384" data-name="Path 610384" d="M513.791,279.2a11,11,0,0,1-4.526,0,11,11,0,0,1,4.526,0" transform="translate(-48.31 -26.463)" fill="#263238"/>
            <path id="Path_610385" data-name="Path 610385" d="M523.791,279.2a11,11,0,0,1-4.526,0,11,11,0,0,1,4.526,0" transform="translate(-49.259 -26.463)" fill="#263238"/>
            <path id="Path_610386" data-name="Path 610386" d="M533.791,279.2a11,11,0,0,1-4.526,0,11,11,0,0,1,4.526,0" transform="translate(-50.208 -26.463)" fill="#263238"/>
            <path id="Path_610387" data-name="Path 610387" d="M543.791,279.2a11,11,0,0,1-4.526,0,11,11,0,0,1,4.526,0" transform="translate(-51.156 -26.463)" fill="#263238"/>
            <path id="Path_610388" data-name="Path 610388" d="M553.791,279.2a11,11,0,0,1-4.526,0,11,11,0,0,1,4.526,0" transform="translate(-52.105 -26.463)" fill="#263238"/>
            <path id="Path_610389" data-name="Path 610389" d="M563.791,279.2a11,11,0,0,1-4.526,0,11,11,0,0,1,4.526,0" transform="translate(-53.053 -26.463)" fill="#263238"/>
            <path id="Path_610390" data-name="Path 610390" d="M573.791,279.2a11,11,0,0,1-4.526,0,11,11,0,0,1,4.526,0" transform="translate(-54.002 -26.463)" fill="#263238"/>
            <path id="Path_610391" data-name="Path 610391" d="M583.791,279.2a11,11,0,0,1-4.526,0,11,11,0,0,1,4.526,0" transform="translate(-54.951 -26.463)" fill="#263238"/>
            <path id="Path_610392" data-name="Path 610392" d="M593.791,279.2a11,11,0,0,1-4.526,0,11,11,0,0,1,4.526,0" transform="translate(-55.899 -26.463)" fill="#263238"/>
            <path id="Path_610393" data-name="Path 610393" d="M603.791,279.2a11,11,0,0,1-4.526,0,11,11,0,0,1,4.526,0" transform="translate(-56.848 -26.463)" fill="#263238"/>
            <path id="Path_610394" data-name="Path 610394" d="M612.952,278.286c.074,0,.137.329.175.849l.013.165-.2.017c-.382.033-.877.052-1.416.052a5.635,5.635,0,0,1-2.263-.235,5.635,5.635,0,0,1,2.263-.235c.539,0,1.034.019,1.416.052l-.184.181c.049-.519.118-.846.192-.845" transform="translate(-57.797 -26.399)" fill="#263238"/>
            <path id="Path_610395" data-name="Path 610395" d="M613.41,268.287a10.979,10.979,0,0,1-.044,4.526,10.975,10.975,0,0,1,.044-4.526" transform="translate(-58.165 -25.45)" fill="#263238"/>
            <path id="Path_610396" data-name="Path 610396" d="M613.509,258.287a10.979,10.979,0,0,1-.044,4.526,10.975,10.975,0,0,1,.044-4.526" transform="translate(-58.175 -24.502)" fill="#263238"/>
            <path id="Path_610397" data-name="Path 610397" d="M613.608,248.288a10.979,10.979,0,0,1-.044,4.526,10.975,10.975,0,0,1,.044-4.526" transform="translate(-58.184 -23.553)" fill="#263238"/>
            <path id="Path_610398" data-name="Path 610398" d="M580.543,216.72l1.663,30.589a2.064,2.064,0,0,0,2.047,1.952l55.042.4a2.065,2.065,0,0,0,2.08-2.05l.175-23.811a2.066,2.066,0,0,0-2.063-2.08l-33.853-.03a2.069,2.069,0,0,1-1.458-.6l-5.841-5.838a2.06,2.06,0,0,0-1.445-.6l-14.27-.1a2.065,2.065,0,0,0-2.077,2.177" transform="translate(-55.072 -20.352)" fill="#ffe8be"/>
            <rect id="Rectangle_377973" data-name="Rectangle 377973" width="35.939" height="60.143" transform="translate(525.33 233.344) rotate(-89.58)" fill="#f5f5f5"/>
            <path id="Path_610399" data-name="Path 610399" d="M576.234,221.384l4.318,37.51a1.327,1.327,0,0,0,1.309,1.176l58.611.43a1.329,1.329,0,0,0,1.333-1.215l3.225-37.455a1.329,1.329,0,0,0-1.313-1.442l-66.154-.484a1.328,1.328,0,0,0-1.329,1.48" transform="translate(-54.662 -20.861)" fill="#ffe8be"/>
          </g>
        </g>
        <g id="Group_1072821" data-name="Group 1072821">
          <g id="Group_1072820" data-name="Group 1072820" clip-path="url(#clip-path)">
            <path id="Path_610400" data-name="Path 610400" d="M488.842,374.888H185.893A13.186,13.186,0,0,1,172.707,361.7V170.3a13.186,13.186,0,0,1,13.186-13.186H488.842A13.186,13.186,0,0,1,502.027,170.3V361.7a13.185,13.185,0,0,1-13.185,13.185" transform="translate(-16.383 -14.904)" fill="#052343"/>
            <path id="Path_610401" data-name="Path 610401" d="M498.176,398.973H173.6a16.109,16.109,0,0,1-16.109-16.11v-2.945H514.285v2.945a16.11,16.11,0,0,1-16.11,16.11" transform="translate(-14.94 -36.04)" fill="#052343"/>
            <rect id="Rectangle_377975" data-name="Rectangle 377975" width="310.719" height="183.909" transform="translate(165.164 150.861)" fill="#455a64"/>
            <path id="Path_610402" data-name="Path 610402" d="M318.758,379.917l4.427,7.043h62.3l4.111-7.043Z" transform="translate(-30.238 -36.04)" fill="#455a64"/>
            <path id="Path_610403" data-name="Path 610403" d="M485.141,350.645H192.508a2.963,2.963,0,0,1-2.963-2.962V176.514a2.962,2.962,0,0,1,2.963-2.963H485.141a2.962,2.962,0,0,1,2.963,2.962v171.17a2.963,2.963,0,0,1-2.963,2.962" transform="translate(-17.981 -16.464)" fill="#ebebeb"/>
            <rect id="Rectangle_377976" data-name="Rectangle 377976" width="298.559" height="164.119" transform="translate(171.563 170.063)" fill="#fafafa"/>
            <path id="Path_610404" data-name="Path 610404" d="M216.1,180.856a2.384,2.384,0,1,1-2.384-2.384,2.384,2.384,0,0,1,2.384,2.384" transform="translate(-20.047 -16.93)" fill="#263238"/>
            <path id="Path_610405" data-name="Path 610405" d="M200.132,180.856a2.385,2.385,0,1,1-2.385-2.384,2.384,2.384,0,0,1,2.385,2.384" transform="translate(-18.533 -16.93)" fill="#263238"/>
            <path id="Path_610406" data-name="Path 610406" d="M207.8,180.856a2.385,2.385,0,1,1-2.384-2.384,2.384,2.384,0,0,1,2.384,2.384" transform="translate(-19.26 -16.93)" fill="#263238"/>
            <path id="Path_610407" data-name="Path 610407" d="M499.2,379.895c0,.118-73.093.214-163.237.214-90.175,0-163.252-.1-163.252-.214s73.077-.214,163.252-.214c90.144,0,163.237.1,163.237.214" transform="translate(-16.384 -36.018)" fill="#455a64"/>
            <rect id="Rectangle_377977" data-name="Rectangle 377977" width="68.13" height="4.557" transform="translate(192.255 252.737)" fill="#e0e0e0"/>
            <rect id="Rectangle_377978" data-name="Rectangle 377978" width="68.13" height="4.557" transform="translate(280.254 189.462)" fill="#e0e0e0"/>
            <path id="Path_610408" data-name="Path 610408" d="M479.085,228.048c0,.118-37.938.214-84.725.214-46.8,0-84.734-.1-84.734-.214s37.93-.214,84.734-.214c46.787,0,84.725.1,84.725.214" transform="translate(-29.372 -21.613)" fill="#e0e0e0"/>
            <path id="Path_610409" data-name="Path 610409" d="M479.085,239.043c0,.118-37.938.214-84.725.214-46.8,0-84.734-.1-84.734-.214s37.93-.214,84.734-.214c46.787,0,84.725.1,84.725.214" transform="translate(-29.372 -22.656)" fill="#e0e0e0"/>
            <path id="Path_610410" data-name="Path 610410" d="M479.085,250.037c0,.118-37.938.214-84.725.214-46.8,0-84.734-.1-84.734-.214s37.93-.214,84.734-.214c46.787,0,84.725.1,84.725.214" transform="translate(-29.372 -23.699)" fill="#e0e0e0"/>
            <path id="Path_610411" data-name="Path 610411" d="M479.085,261.033c0,.118-37.938.214-84.725.214-46.8,0-84.734-.1-84.734-.214s37.93-.214,84.734-.214c46.787,0,84.725.1,84.725.214" transform="translate(-29.372 -24.742)" fill="#e0e0e0"/>
            <path id="Path_610412" data-name="Path 610412" d="M479.085,272.027c0,.118-37.938.214-84.725.214-46.8,0-84.734-.1-84.734-.214s37.93-.214,84.734-.214c46.787,0,84.725.1,84.725.214" transform="translate(-29.372 -25.785)" fill="#e0e0e0"/>
            <path id="Path_610413" data-name="Path 610413" d="M375.774,283.022c0,.118-14.809.214-33.073.214s-33.076-.1-33.076-.214,14.805-.214,33.076-.214,33.073.1,33.073.214" transform="translate(-29.372 -26.828)" fill="#e0e0e0"/>
            <path id="Path_610414" data-name="Path 610414" d="M483.8,304.361c0,.118-24.936.214-55.689.214s-55.693-.1-55.693-.214,24.93-.214,55.693-.214,55.689.1,55.689.214" transform="translate(-35.329 -28.852)" fill="#e0e0e0"/>
            <path id="Path_610415" data-name="Path 610415" d="M483.8,316.032c0,.118-24.936.214-55.689.214s-55.693-.1-55.693-.214,24.93-.214,55.693-.214,55.689.1,55.689.214" transform="translate(-35.329 -29.959)" fill="#e0e0e0"/>
            <path id="Path_610416" data-name="Path 610416" d="M483.8,327.7c0,.118-24.936.214-55.689.214s-55.693-.1-55.693-.214,24.93-.214,55.693-.214,55.689.1,55.689.214" transform="translate(-35.329 -31.067)" fill="#e0e0e0"/>
            <path id="Path_610417" data-name="Path 610417" d="M483.8,339.375c0,.118-24.936.214-55.689.214s-55.693-.1-55.693-.214,24.93-.214,55.693-.214,55.689.1,55.689.214" transform="translate(-35.329 -32.174)" fill="#e0e0e0"/>
            <path id="Path_610418" data-name="Path 610418" d="M280.905,303.244c0,.118-14.864.214-33.2.214s-33.2-.1-33.2-.214,14.861-.214,33.2-.214,33.2.1,33.2.214" transform="translate(-20.349 -28.746)" fill="#e0e0e0"/>
            <path id="Path_610419" data-name="Path 610419" d="M280.905,312.41c0,.118-14.864.214-33.2.214s-33.2-.1-33.2-.214,14.861-.214,33.2-.214,33.2.1,33.2.214" transform="translate(-20.349 -29.616)" fill="#e0e0e0"/>
            <path id="Path_610420" data-name="Path 610420" d="M280.905,321.576c0,.118-14.864.214-33.2.214s-33.2-.1-33.2-.214,14.861-.214,33.2-.214,33.2.1,33.2.214" transform="translate(-20.349 -30.485)" fill="#e0e0e0"/>
            <path id="Path_610421" data-name="Path 610421" d="M280.905,330.742c0,.118-14.864.214-33.2.214s-33.2-.1-33.2-.214,14.861-.214,33.2-.214,33.2.1,33.2.214" transform="translate(-20.349 -31.355)" fill="#e0e0e0"/>
            <path id="Path_610422" data-name="Path 610422" d="M280.905,339.908c0,.118-14.864.214-33.2.214s-33.2-.1-33.2-.214,14.861-.214,33.2-.214,33.2.1,33.2.214" transform="translate(-20.349 -32.224)" fill="#e0e0e0"/>
            <rect id="Rectangle_377979" data-name="Rectangle 377979" width="48.338" height="46.767" transform="translate(280.212 270.468)" fill="#f5f5f5"/>
            <path id="Path_610423" data-name="Path 610423" d="M313.72,343.538l13.372-24.066,10.938,15.382,6.646-8.168,9.888,16.852Z" transform="translate(-29.76 -30.306)" fill="#ebebeb"/>
            <path id="Path_610424" data-name="Path 610424" d="M344.995,313.936a3.478,3.478,0,1,1-3.478-3.478,3.478,3.478,0,0,1,3.478,3.478" transform="translate(-32.067 -29.451)" fill="#ebebeb"/>
            <path id="Path_610425" data-name="Path 610425" d="M354.533,342.09a1.414,1.414,0,0,1-.011-.192c0-.14-.006-.319-.011-.545q-.008-.747-.024-2.1c-.012-1.855-.029-4.537-.051-7.943-.025-6.831-.06-16.559-.1-28.238l.2.2L313.7,303.3c-.055.049.432-.433.225-.224v5.292q0,2.629,0,5.206c0,3.437,0,6.8-.005,10.078-.007,6.55-.015,12.742-.022,18.438l-.2-.2,29.53.1,8.329.052,2.209.023.573.011a1.637,1.637,0,0,1,.2.012,1.009,1.009,0,0,1-.178.011l-.551.012-2.171.024-8.284.052-29.659.1h-.2v-.2c-.007-5.7-.014-11.888-.023-18.438,0-3.276,0-6.641-.005-10.078q0-2.577,0-5.206v-5.292c-.2.2.28-.288.235-.236l40.838.032h.2v.2c-.043,11.731-.077,21.5-.1,28.363-.023,3.386-.04,6.054-.052,7.9q-.015,1.333-.023,2.066c0,.219-.008.39-.012.525a.909.909,0,0,1-.011.169" transform="translate(-29.731 -28.728)" fill="#ebebeb"/>
            <rect id="Rectangle_377980" data-name="Rectangle 377980" width="65.561" height="63.429" transform="translate(193.539 181.681)" fill="#f5f5f5"/>
            <path id="Path_610426" data-name="Path 610426" d="M219.439,261.38l18.136-32.64L252.41,249.6l9.013-11.079,13.411,22.857Z" transform="translate(-20.817 -21.699)" fill="#e0e0e0"/>
            <path id="Path_610427" data-name="Path 610427" d="M261.857,221.232a4.718,4.718,0,1,1-4.718-4.718,4.718,4.718,0,0,1,4.718,4.718" transform="translate(-23.945 -20.539)" fill="#e0e0e0"/>
            <path id="Path_610428" data-name="Path 610428" d="M274.793,259.416a1.821,1.821,0,0,1-.015-.26c0-.19-.008-.432-.015-.74q-.011-1.013-.032-2.855c-.016-2.515-.039-6.153-.069-10.772-.033-9.265-.081-22.458-.138-38.3l.268.268L219.4,206.8c-.075.065.586-.587.306-.3v7.177q0,3.565,0,7.062,0,6.992-.007,13.668c-.01,8.883-.021,17.282-.03,25.007l-.272-.272,40.051.138,11.3.072,3,.032.776.015a2.024,2.024,0,0,1,.273.015,1.322,1.322,0,0,1-.243.015l-.747.015-2.943.032-11.235.072-40.226.138h-.272v-.274c-.009-7.725-.019-16.124-.03-25.007q0-6.665-.008-13.668,0-3.495,0-7.062V206.5c-.278.273.379-.392.319-.321l55.389.043h.269v.268c-.057,15.911-.1,29.163-.137,38.468-.03,4.594-.053,8.211-.07,10.712q-.02,1.807-.032,2.8c-.006.3-.011.529-.014.711a1.191,1.191,0,0,1-.015.23" transform="translate(-20.777 -19.558)" fill="#e0e0e0"/>
            <path id="Path_610429" data-name="Path 610429" d="M294.865,227.351l3.239,6.562,7.242,1.053-5.241,5.108,1.237,7.213-6.477-3.406-6.477,3.406,1.236-7.213-5.24-5.108,7.242-1.053Z" transform="translate(-26.977 -21.567)" fill="#eba325"/>
            <path id="Path_610430" data-name="Path 610430" d="M320.066,202.149l3.239,6.562,7.242,1.053-5.24,5.108,1.236,7.213-6.477-3.406-6.477,3.406,1.237-7.213-5.241-5.108,7.242-1.053Z" transform="translate(-29.368 -19.176)" fill="#eba325"/>
            <path id="Path_610431" data-name="Path 610431" d="M353.747,192.257l3.239,6.562,7.242,1.053-5.241,5.108,1.237,7.213-6.477-3.406-6.477,3.406,1.236-7.213-5.24-5.108,7.242-1.053Z" transform="translate(-32.563 -18.238)" fill="#eba325"/>
            <path id="Path_610432" data-name="Path 610432" d="M388.606,202.384l3.239,6.562L399.086,210l-5.24,5.108,1.236,7.213-6.477-3.406-6.477,3.406,1.237-7.213L378.125,210l7.242-1.053Z" transform="translate(-35.87 -19.199)" fill="#eba325"/>
            <path id="Path_610433" data-name="Path 610433" d="M412.63,226.408l3.239,6.562,7.242,1.053-5.241,5.108,1.237,7.213-6.477-3.406-6.477,3.406,1.237-7.213-5.241-5.108,7.242-1.053Z" transform="translate(-38.149 -21.478)" fill="#eba325"/>
            <path id="Path_610434" data-name="Path 610434" d="M421.345,261.267l3.239,6.562,7.242,1.053-5.241,5.108,1.237,7.213-6.477-3.406-6.477,3.406,1.237-7.213-5.241-5.108,7.242-1.053Z" transform="translate(-38.976 -24.785)" fill="#eba325"/>
            <path id="Path_610435" data-name="Path 610435" d="M412.865,295.89l3.239,6.562,7.242,1.053-5.241,5.108,1.237,7.213-6.477-3.406-6.477,3.406,1.236-7.213-5.24-5.108,7.242-1.053Z" transform="translate(-38.171 -28.069)" fill="#eba325"/>
            <path id="Path_610436" data-name="Path 610436" d="M387.351,319.914l3.239,6.562,7.242,1.053-5.24,5.108,1.236,7.213-6.477-3.406-6.477,3.406,1.237-7.213-5.241-5.108,7.242-1.053Z" transform="translate(-35.751 -30.348)" fill="#eba325"/>
            <path id="Path_610437" data-name="Path 610437" d="M353.07,329.818l3.239,6.562,7.242,1.053-5.241,5.108,1.237,7.213-6.477-3.406-6.477,3.406,1.236-7.213-5.24-5.108,7.242-1.053Z" transform="translate(-32.499 -31.287)" fill="#eba325"/>
            <path id="Path_610438" data-name="Path 610438" d="M320.331,319.925l3.239,6.562,7.242,1.053-5.241,5.108,1.237,7.213-6.477-3.406-6.477,3.406,1.236-7.213-5.24-5.108,7.242-1.053Z" transform="translate(-29.393 -30.349)" fill="#eba325"/>
            <path id="Path_610439" data-name="Path 610439" d="M294.422,295.263l3.239,6.562,7.242,1.053-5.24,5.108L300.9,315.2l-6.477-3.406-6.477,3.406,1.237-7.213-5.241-5.108,7.242-1.053Z" transform="translate(-26.935 -28.009)" fill="#eba325"/>
            <path id="Path_610440" data-name="Path 610440" d="M285.708,261.307l3.239,6.562,7.242,1.053-5.24,5.108,1.236,7.213-6.477-3.406-6.477,3.406,1.237-7.213-5.241-5.108,7.242-1.053Z" transform="translate(-26.109 -24.788)" fill="#eba325"/>
            <path id="Path_610441" data-name="Path 610441" d="M375.125,280.354h-6.336V245.868a14.721,14.721,0,1,0-29.441,0v34.486h-6.336V245.868a21.057,21.057,0,1,1,42.113,0Z" transform="translate(-31.59 -21.326)" fill="#263238"/>
            <path id="Path_610442" data-name="Path 610442" d="M376.419,305.638H330.184a5.259,5.259,0,0,1-5.259-5.26V274.486a5.259,5.259,0,0,1,5.259-5.26h46.235a5.26,5.26,0,0,1,5.26,5.26v25.892a5.26,5.26,0,0,1-5.26,5.26" transform="translate(-30.823 -25.54)" fill="#eba325"/>
            <path id="Path_610443" data-name="Path 610443" d="M360.523,283.6a4.744,4.744,0,1,1-4.745-4.744,4.743,4.743,0,0,1,4.745,4.744" transform="translate(-33.3 -26.453)" fill="#263238"/>
            <rect id="Rectangle_377981" data-name="Rectangle 377981" width="2.588" height="9.756" transform="translate(321.184 259.029)" fill="#263238"/>
            <path id="Path_610444" data-name="Path 610444" d="M328.243,302.8c-.13,0-.235-6.073-.235-13.561s.105-13.563.235-13.563.235,6.072.235,13.563-.105,13.561-.235,13.561" transform="translate(-31.116 -26.151)" fill="#fafafa"/>
            <path id="Path_610445" data-name="Path 610445" d="M351.845,289.544c-.015.024-.223-.074-.557-.316a5.785,5.785,0,0,1-1.223-1.245,6.649,6.649,0,0,1,2.362-9.976,5.818,5.818,0,0,1,1.652-.565,1.455,1.455,0,0,1,.639-.033,14.641,14.641,0,0,0-2.131.89,6.576,6.576,0,0,0-2.248,9.494,14.832,14.832,0,0,0,1.505,1.751" transform="translate(-33.082 -26.314)" fill="#fafafa"/>
          </g>
        </g>
        <g id="Group_1072826" data-name="Group 1072826">
          <g id="Group_1072825" data-name="Group 1072825" clip-path="url(#clip-path)">
            <path id="Path_610446" data-name="Path 610446" d="M135.671,251.166a9.942,9.942,0,0,0,.145,6.343,29.611,29.611,0,0,0,2.857,5.779,103.3,103.3,0,0,0,3.849-11.086,2.6,2.6,0,0,0-.213-2.457,2.286,2.286,0,0,0-1.827-.5,8.423,8.423,0,0,0-5.177,2.21" transform="translate(-12.827 -23.643)" fill="#263238"/>
            <path id="Path_610447" data-name="Path 610447" d="M45.984,363.5,31.176,397.358H51.561l14.515-34.122Z" transform="translate(-2.957 -34.458)" fill="#263238"/>
            <path id="Path_610448" data-name="Path 610448" d="M134.991,397.022c19.978-6.614,6.279-33.039,6.279-33.039L53.956,372.2a12.633,12.633,0,1,0-.085,25.265Z" transform="translate(-3.912 -34.528)" fill="#032140"/>
            <path id="Path_610449" data-name="Path 610449" d="M157.235,397.461c19.467-6.57,6.633-33.484,6.633-33.484L78.748,372c-8.314.108-12.374,4.118-12.374,12.6.015,6.975,2.593,12.856,12.345,12.657Z" transform="translate(-6.296 -34.528)" fill="#03386e"/>
            <path id="Path_610450" data-name="Path 610450" d="M138.056,368.91a.961.961,0,0,0-.243-.01l-.709.017-2.724.112-10.015.5-33.03,1.811c-1.612.077-3.209.216-4.775.239s-3.128.091-4.651.182-3.018.206-4.48.364a16,16,0,0,0-4.257.873,10.248,10.248,0,0,0-3.54,2.267,9.442,9.442,0,0,0-2.147,3.446,17.222,17.222,0,0,0-.874,3.724,25.9,25.9,0,0,0-.234,3.52A14.976,14.976,0,0,0,67.5,391.88a9.755,9.755,0,0,0,2.647,3.607,7.16,7.16,0,0,0,2.41,1.36c.6.19.613.129.028-.088a7.482,7.482,0,0,1-2.331-1.412,9.726,9.726,0,0,1-2.533-3.573,14.833,14.833,0,0,1-1.037-5.823,25.911,25.911,0,0,1,.259-3.469,17.015,17.015,0,0,1,.877-3.634,9.072,9.072,0,0,1,2.075-3.292,9.876,9.876,0,0,1,3.415-2.163,15.729,15.729,0,0,1,4.161-.835c1.453-.152,2.944-.261,4.461-.351s3.065-.15,4.634-.174,3.167-.16,4.782-.236l33.032-1.946,10.01-.643,2.72-.2.707-.063a.91.91,0,0,0,.24-.037" transform="translate(-6.296 -34.995)" fill="#263238"/>
            <path id="Path_610451" data-name="Path 610451" d="M165.606,376.982a2.081,2.081,0,0,1-.692.344,7.216,7.216,0,0,1-2.068.421,8.075,8.075,0,0,1-8.652-8.873,7.172,7.172,0,0,1,.473-2.057,2.076,2.076,0,0,1,.361-.683,14.6,14.6,0,0,0-.5,2.761,8,8,0,0,0,8.309,8.522,14.627,14.627,0,0,0,2.772-.435" transform="translate(-14.624 -34.732)" fill="#263238"/>
            <path id="Path_610452" data-name="Path 610452" d="M114.983,318.992l-8.077,27.636-29.9,3.207v5.306l43.927.606,5.981-35.986Z" transform="translate(-7.305 -30.26)" fill="#ffbe9d"/>
            <path id="Path_610453" data-name="Path 610453" d="M157.753,287.067c5.3.011,19.668,2.719,20.93,12.4,1.139,8.742,2.846,18.663,2.846,18.663l-18.907.508,6.441,1.705,2.759,40.811-48.929-1.7,2.6-20.981,2.131-20.973-10.692-.873s3.659-18.256,10.039-23.89a25.992,25.992,0,0,1,14.083-5.674,147.708,147.708,0,0,1,16.705,0" transform="translate(-11.092 -27.209)" fill="#0c5e46"/>
            <path id="Path_610454" data-name="Path 610454" d="M130.283,305.739c.113.013-.634,7.39-1.668,16.473s-1.965,16.441-2.078,16.428.633-7.388,1.668-16.475,1.965-16.439,2.078-16.426" transform="translate(-12.003 -29.003)" fill="#263238"/>
            <path id="Path_610455" data-name="Path 610455" d="M161.589,287.16a1.156,1.156,0,0,1,.053.343c.02.225.043.558.05.99a11,11,0,0,1-.529,3.613,10.575,10.575,0,0,1-2.774,4.707,7.979,7.979,0,0,1-2.829,1.756,11.309,11.309,0,0,1-3.56.566,19.447,19.447,0,0,1-3.587-.243,7.382,7.382,0,0,1-3.1-1.26,8.147,8.147,0,0,1-2.948-4.589,11.927,11.927,0,0,1-.406-3.629c.015-.431.049-.763.074-.988a1.148,1.148,0,0,1,.062-.342c.031,0,.006.477.016,1.332a12.932,12.932,0,0,0,.521,3.558,8,8,0,0,0,2.9,4.38,7.082,7.082,0,0,0,2.959,1.175,19.44,19.44,0,0,0,3.507.229,11.057,11.057,0,0,0,3.435-.535,7.681,7.681,0,0,0,2.709-1.658,10.527,10.527,0,0,0,2.762-4.537,11.825,11.825,0,0,0,.642-3.536c.03-.854.018-1.33.05-1.331" transform="translate(-13.465 -27.241)" fill="#263238"/>
            <g id="Group_1072824" data-name="Group 1072824" transform="translate(128.729 276.737)" opacity="0.2">
              <g id="Group_1072823" data-name="Group 1072823">
                <g id="Group_1072822" data-name="Group 1072822" clip-path="url(#clip-path-13)">
                  <path id="Path_610456" data-name="Path 610456" d="M164.238,305.741c-1.811,8.659-4.173,17.558-5.984,26.217a13.052,13.052,0,0,1-1.923,5.252,12.355,12.355,0,0,1-2.584,2.378A45.607,45.607,0,0,1,142.22,346.3a103.72,103.72,0,0,0,17.946-3.124,3.723,3.723,0,0,0,3.5-3.965c1.3-11.1.927-22.3.57-33.475" transform="translate(-142.22 -305.741)"/>
                </g>
              </g>
            </g>
            <path id="Path_610457" data-name="Path 610457" d="M186.536,319.884a9.259,9.259,0,0,1-1.421.109l-3.879.143c-3.275.1-7.8.215-12.8.315l-1.607.032-.2,0-.008-.2c-.18-4.641-.1-8.766-.01-11.735.046-1.484.1-2.676.153-3.5a8.007,8.007,0,0,1,.118-1.273,7.973,7.973,0,0,1,.035,1.278c-.007.889-.015,2.067-.026,3.5-.014,2.964-.047,7.093.141,11.709l-.209-.2,1.607-.033c5-.1,9.524-.167,12.8-.195l3.88-.011a9.511,9.511,0,0,1,1.425.052" transform="translate(-15.796 -28.817)" fill="#263238"/>
            <path id="Path_610458" data-name="Path 610458" d="M35.618,323.513l16.7,32.834h52.655l-2.132-4.289L87.587,351.6,75.154,323.922a4.791,4.791,0,0,0-4.371-2.829H37.1a1.665,1.665,0,0,0-1.484,2.42" transform="translate(-3.361 -30.46)" fill="#e0e0e0"/>
            <path id="Path_610459" data-name="Path 610459" d="M64.347,339.8a2.014,2.014,0,1,1-2.015-2.015,2.015,2.015,0,0,1,2.015,2.015" transform="translate(-5.722 -32.043)" fill="#263238"/>
            <path id="Path_610460" data-name="Path 610460" d="M161.341,258.4l-1.885,26.717a8.33,8.33,0,0,1-16.621-1.131c.167-2.543.318-4.626.318-4.626s-6.456-1.006-6.548-7.472c-.043-3.047.364-9.076.818-14.745a12.73,12.73,0,0,1,12.686-11.719h.006A11.968,11.968,0,0,1,161.341,258.4" transform="translate(-12.958 -23.281)" fill="#ffbe9d"/>
            <path id="Path_610461" data-name="Path 610461" d="M143.794,283.006a15.04,15.04,0,0,0,8.43-2.4s-1.992,4.654-8.446,4.071Z" transform="translate(-13.639 -26.619)" fill="#eb996e"/>
            <path id="Path_610462" data-name="Path 610462" d="M139.741,262.922a.923.923,0,0,0,.891.931.883.883,0,0,0,.951-.833.924.924,0,0,0-.889-.932.885.885,0,0,0-.953.834" transform="translate(-13.256 -24.862)" fill="#263238"/>
            <path id="Path_610463" data-name="Path 610463" d="M139.105,261.5c.114.12.814-.4,1.808-.395s1.722.5,1.83.377c.053-.053-.063-.271-.381-.5a2.539,2.539,0,0,0-1.465-.451,2.425,2.425,0,0,0-1.438.464c-.306.234-.409.453-.353.506" transform="translate(-13.195 -24.715)" fill="#263238"/>
            <path id="Path_610464" data-name="Path 610464" d="M150.082,263.218a.923.923,0,0,0,.891.931.884.884,0,0,0,.952-.833.925.925,0,0,0-.89-.932.884.884,0,0,0-.953.834" transform="translate(-14.237 -24.89)" fill="#263238"/>
            <path id="Path_610465" data-name="Path 610465" d="M149.9,261.708c.115.12.816-.4,1.808-.395s1.722.5,1.829.377c.053-.053-.062-.271-.381-.5a2.54,2.54,0,0,0-1.465-.452,2.434,2.434,0,0,0-1.439.465c-.305.234-.409.452-.353.506" transform="translate(-14.218 -24.734)" fill="#263238"/>
            <path id="Path_610466" data-name="Path 610466" d="M145.65,269.084a6.622,6.622,0,0,0-1.614-.291c-.254-.026-.494-.076-.537-.25a1.292,1.292,0,0,1,.169-.752q.358-.921.75-1.932A33.176,33.176,0,0,0,146.1,260.8a33.267,33.267,0,0,0-2.088,4.907c-.251.679-.491,1.325-.719,1.944a1.47,1.47,0,0,0-.132,1,.637.637,0,0,0,.417.371,1.754,1.754,0,0,0,.431.061,6.521,6.521,0,0,0,1.636,0" transform="translate(-13.577 -24.741)" fill="#263238"/>
            <path id="Path_610467" data-name="Path 610467" d="M148.814,270.711c-.162-.009-.164,1.069-1.087,1.835s-2.072.647-2.08.8c-.014.067.256.209.741.223a2.687,2.687,0,0,0,1.737-.606,2.34,2.34,0,0,0,.842-1.539c.042-.451-.079-.718-.153-.711" transform="translate(-13.816 -25.68)" fill="#263238"/>
            <path id="Path_610468" data-name="Path 610468" d="M149.615,257.429c.1.27,1.09.142,2.256.282,1.169.118,2.11.459,2.264.216.07-.116-.094-.37-.474-.632a3.954,3.954,0,0,0-3.444-.38c-.428.173-.644.385-.6.513" transform="translate(-14.192 -24.35)" fill="#263238"/>
            <path id="Path_610469" data-name="Path 610469" d="M139.508,258.319c.175.225.859-.009,1.683-.02.823-.04,1.52.152,1.681-.084.07-.115-.04-.34-.344-.554a2.436,2.436,0,0,0-2.71.083c-.291.232-.386.464-.31.575" transform="translate(-13.232 -24.407)" fill="#263238"/>
            <path id="Path_610470" data-name="Path 610470" d="M161.5,265.545c.11-.048,4.443-1.314,4.3,3.106s-4.551,3.368-4.555,3.24.253-6.347.253-6.347" transform="translate(-15.296 -25.171)" fill="#ffbe9d"/>
            <path id="Path_610471" data-name="Path 610471" d="M162.8,270.411c.02-.014.075.056.2.12a.775.775,0,0,0,.576.03,1.907,1.907,0,0,0,.936-1.682,2.539,2.539,0,0,0-.18-1.109.889.889,0,0,0-.56-.61.392.392,0,0,0-.462.2c-.063.121-.038.211-.062.218s-.092-.078-.051-.259a.49.49,0,0,1,.183-.272.576.576,0,0,1,.429-.1,1.082,1.082,0,0,1,.783.711,2.616,2.616,0,0,1,.227,1.24,2,2,0,0,1-1.184,1.874.826.826,0,0,1-.7-.139c-.133-.114-.153-.214-.138-.221" transform="translate(-15.443 -25.323)" fill="#eb996e"/>
            <rect id="Rectangle_377984" data-name="Rectangle 377984" width="64.367" height="3.14" transform="translate(42.855 325.94)" fill="#263238"/>
            <path id="Path_610472" data-name="Path 610472" d="M96.557,361.835l19.577,35.423h17.528L116.382,363.4Z" transform="translate(-9.16 -34.325)" fill="#263238"/>
            <path id="Path_610473" data-name="Path 610473" d="M111.707,363.556c0,.13-14.425.308-32.217.4s-32.223.056-32.223-.074,14.422-.308,32.22-.4,32.219-.056,32.22.074" transform="translate(-4.484 -34.476)" fill="#455a64"/>
            <path id="Path_610474" data-name="Path 610474" d="M135.162,253.919a4.391,4.391,0,0,0,3.639-.261,1.039,1.039,0,0,0,.176,1.543,2.615,2.615,0,0,0,1.708.377,13.089,13.089,0,0,0,8.583-3.67,2.869,2.869,0,0,0,1.976,2.463,5.8,5.8,0,0,0,3.307.013,12.666,12.666,0,0,0-.2,4.991,4.315,4.315,0,0,0,3.246,3.445,8.3,8.3,0,0,1,.205,2.612c.06.877.574,1.885,1.453,1.91.776.022,1.355-.773,1.457-1.542s-.349-2.334.2-3.58c.6-1.352.359-1.1.954-2.455s.93-3.214,1.394-4.617a6.541,6.541,0,0,0,.113-4.346A3.579,3.579,0,0,0,160,248.4a3.557,3.557,0,0,0-5.228-4.285s-5.038-3.422-10.6-1.533c-5.535,1.879-6.4,6.944-7.608,7.1s-4.89-1.84-4.259-.577,1.683,2.47,2.209,2.523-4.206-1.945-2.576-.157a10.083,10.083,0,0,0,3.23,2.444" transform="translate(-12.483 -22.958)" fill="#263238"/>
            <path id="Path_610475" data-name="Path 610475" d="M178.676,302.369a10.52,10.52,0,0,0-1.746-1.679,10.337,10.337,0,0,0-6.209-1.83c-2.8-.01-6.006,1.2-9.151,3.135-3.182,1.884-6.38,4.535-10.38,6.276a15.913,15.913,0,0,1-11.979.436,16.806,16.806,0,0,1-4.63-2.637c-1.317-1.019-2.472-2.038-3.6-2.863a11.1,11.1,0,0,0-6.016-2.455,8.013,8.013,0,0,0-2.392.319c0-.008.045-.033.143-.076a3.546,3.546,0,0,1,.444-.167,5.871,5.871,0,0,1,1.809-.26,11.012,11.012,0,0,1,6.206,2.368c2.319,1.6,4.677,4.142,8.185,5.362A15.641,15.641,0,0,0,151,307.838c3.915-1.7,7.115-4.329,10.343-6.216,3.19-1.931,6.49-3.15,9.373-3.1a10.3,10.3,0,0,1,6.321,2.018,7.027,7.027,0,0,1,1.291,1.292,3.179,3.179,0,0,1,.345.534" transform="translate(-11.627 -28.319)" fill="#fafafa"/>
            <path id="Path_610476" data-name="Path 610476" d="M163.122,328.711c-.026.033-.438-.286-1.247-.753a12.916,12.916,0,0,0-3.664-1.41,12.275,12.275,0,0,0-5.759.1,71.8,71.8,0,0,0-6.741,2.546,16.461,16.461,0,0,1-12.937-.576,14.542,14.542,0,0,1-3.357-2.181,8.548,8.548,0,0,1-.79-.749c-.173-.179-.257-.278-.246-.29.031-.033.409.328,1.151.9a16.183,16.183,0,0,0,3.383,2.021,17.126,17.126,0,0,0,5.63,1.439,16.088,16.088,0,0,0,7.006-1,64.986,64.986,0,0,1,6.8-2.524,12.3,12.3,0,0,1,5.94-.006,11.937,11.937,0,0,1,3.683,1.579,8.414,8.414,0,0,1,.878.645c.19.161.284.252.274.264" transform="translate(-12.178 -30.868)" fill="#fafafa"/>
            <path id="Path_610477" data-name="Path 610477" d="M170.077,345.664a14.709,14.709,0,0,0-1.75-.555,9.773,9.773,0,0,0-4.909.441,19.562,19.562,0,0,0-3.173,1.354c-1.1.58-2.251,1.27-3.5,1.942a20.429,20.429,0,0,1-4.1,1.762,9.971,9.971,0,0,1-4.806.2c-3.281-.711-5.875-2.609-8.268-4.036a16.04,16.04,0,0,0-6.827-2.683,7.841,7.841,0,0,0-4.773,1.025,8.73,8.73,0,0,0-1.409,1.168,1.838,1.838,0,0,1,.275-.4,5.083,5.083,0,0,1,1.034-.924,7.8,7.8,0,0,1,4.9-1.2A16.015,16.015,0,0,1,139.8,346.4c2.421,1.423,4.995,3.269,8.14,3.947a9.566,9.566,0,0,0,4.587-.18,20.427,20.427,0,0,0,4.02-1.7c1.241-.655,2.4-1.333,3.522-1.905a19.209,19.209,0,0,1,3.255-1.326,9.569,9.569,0,0,1,5.047-.3,5.912,5.912,0,0,1,1.3.482,1.8,1.8,0,0,1,.411.252" transform="translate(-12.006 -32.608)" fill="#fafafa"/>
            <path id="Path_610478" data-name="Path 610478" d="M172.291,364.57a1.556,1.556,0,0,1-.459.188,5.6,5.6,0,0,1-1.4.239,12.782,12.782,0,0,1-5.093-1.064,29.25,29.25,0,0,0-3.383-1.1,13.406,13.406,0,0,0-4.026-.229c-2.862.242-5.874,1.322-9.093,2.247a27.444,27.444,0,0,1-4.816.986,20.989,20.989,0,0,1-4.586-.063,31.318,31.318,0,0,1-7.466-1.992c-2.047-.807-3.644-1.592-4.737-2.149-.547-.277-.966-.5-1.247-.663a1.945,1.945,0,0,1-.419-.262,1.99,1.99,0,0,1,.462.176l1.285.583c1.115.5,2.728,1.24,4.776,2a32.326,32.326,0,0,0,7.4,1.873,20.89,20.89,0,0,0,4.489.035,27.581,27.581,0,0,0,4.735-.979c3.2-.916,6.243-2,9.185-2.227a13.585,13.585,0,0,1,4.152.282,27.981,27.981,0,0,1,3.411,1.169,13.325,13.325,0,0,0,4.971,1.192,9.883,9.883,0,0,0,1.868-.243" transform="translate(-11.911 -34.218)" fill="#fafafa"/>
            <path id="Path_610479" data-name="Path 610479" d="M185.5,316.4c.017.016-.154.249-.548.584a7.282,7.282,0,0,1-1.867,1.141,7.988,7.988,0,0,1-3.2.619,8.937,8.937,0,0,1-3.849-1.017c-1.265-.609-2.408-1.267-3.521-1.663a6.541,6.541,0,0,0-3.056-.34,3.905,3.905,0,0,0-1.9.791c-.379.319-.538.558-.574.533a1.567,1.567,0,0,1,.451-.669,3.774,3.774,0,0,1,1.969-.984,6.576,6.576,0,0,1,3.254.259,33.047,33.047,0,0,1,3.581,1.646,8.864,8.864,0,0,0,3.658,1.01,8.129,8.129,0,0,0,3.064-.5A13.358,13.358,0,0,0,185.5,316.4" transform="translate(-15.841 -29.91)" fill="#fafafa"/>
            <path id="Path_610480" data-name="Path 610480" d="M128.359,315.791c.019.019-.061.157-.294.316a1.98,1.98,0,0,1-1.14.3,3.513,3.513,0,0,1-1.672-.482c-.571-.313-1.116-.754-1.707-1.133a4.568,4.568,0,0,0-3.382-.683c-.9.167-1.4.5-1.446.429a2.431,2.431,0,0,1,1.371-.754,4.536,4.536,0,0,1,3.71.611c.626.4,1.151.845,1.671,1.155a3.5,3.5,0,0,0,1.473.525,2.787,2.787,0,0,0,1.417-.282" transform="translate(-11.262 -29.751)" fill="#fafafa"/>
            <path id="Path_610481" data-name="Path 610481" d="M101.713,345.772l13.17-1.583,9.279,6.085,35.487-8.506,1.039-19.8,15.928-.393-.371,23.239a13.488,13.488,0,0,1-13.858,13.2l-51.975-1.439-2.207-4.423-11.15-.331Z" transform="translate(-9.207 -30.505)" fill="#ffbe9d"/>
            <path id="Path_610482" data-name="Path 610482" d="M159.153,343.885a4.42,4.42,0,0,1-.667.2l-1.931.5-7.122,1.775-23.53,5.7-2.189.524-.087.021-.075-.049-9.27-6.1.127.03-13.177,1.522.087-.05-3.479,4.417-.939,1.163a2.876,2.876,0,0,1-.342.386,2.79,2.79,0,0,1,.285-.43c.222-.3.515-.7.885-1.2l3.385-4.489.032-.043.055-.007,13.163-1.643.069-.009.059.039,9.288,6.071-.161-.028,2.19-.525,23.558-5.584,7.151-1.646,1.95-.428a4.381,4.381,0,0,1,.686-.121" transform="translate(-9.16 -32.622)" fill="#eb996e"/>
            <path id="Path_610483" data-name="Path 610483" d="M109.183,352.455a31.875,31.875,0,0,1-5.116.206l-.936,0,.132-.048a24.2,24.2,0,0,1-3.316,2.552A24.037,24.037,0,0,1,103,352.3l.056-.048h.075l.936,0a31.885,31.885,0,0,1,5.116.206" transform="translate(-9.481 -33.415)" fill="#eb996e"/>
            <path id="Path_610484" data-name="Path 610484" d="M172.29,347.852a7.7,7.7,0,0,0-6.137-3.862,2.2,2.2,0,0,1,1.145-.091,6.085,6.085,0,0,1,4.577,2.881,2.19,2.19,0,0,1,.415,1.072" transform="translate(-15.762 -32.622)" fill="#eb996e"/>
          </g>
        </g>
      </g>
    </g>
    <g id="Group_1072831" data-name="Group 1072831" transform="translate(521.322 8674.645)">
      <path id="Path_194909" data-name="Path 194909" d="M22.678,0A22.678,22.678,0,1,0,45.356,22.678,22.678,22.678,0,0,0,22.678,0Z" transform="translate(0 0)" fill="#eeac3a" opacity="0.28"/>
      <path id="Path_191051" data-name="Path 191051" d="M13.9,0A13.9,13.9,0,1,0,27.8,13.9,13.9,13.9,0,0,0,13.9,0Z" transform="translate(8.946 9.117)" fill="#eeac3a"/>
      <text id="_" data-name="+" transform="matrix(-1, 0, 0, 1, 28.702, 29.235)" fill="#12263f" font-size="20" font-family="Roboto-Bold, Roboto" font-weight="700"><tspan x="0" y="0">+</tspan></text>
    </g>
    <g id="Group_1072832" data-name="Group 1072832" transform="translate(588.322 8537.645)">
      <path id="Path_194909-2" data-name="Path 194909" d="M22.678,0A22.678,22.678,0,1,0,45.356,22.678,22.678,22.678,0,0,0,22.678,0Z" transform="translate(0 0)" fill="#eeac3a" opacity="0.28"/>
      <path id="Path_191051-2" data-name="Path 191051" d="M13.9,0A13.9,13.9,0,1,0,27.8,13.9,13.9,13.9,0,0,0,13.9,0Z" transform="translate(8.946 9.117)" fill="#eeac3a"/>
      <text id="_2" data-name="+" transform="matrix(-1, 0, 0, 1, 28.702, 29.235)" fill="#12263f" font-size="20" font-family="Roboto-Bold, Roboto" font-weight="700"><tspan x="0" y="0">+</tspan></text>
    </g>
    <g id="Group_1072833" data-name="Group 1072833" transform="translate(777.322 8526.645)">
      <path id="Path_194909-3" data-name="Path 194909" d="M22.678,0A22.678,22.678,0,1,0,45.356,22.678,22.678,22.678,0,0,0,22.678,0Z" transform="translate(0 0)" fill="#eeac3a" opacity="0.28"/>
      <path id="Path_191051-3" data-name="Path 191051" d="M13.9,0A13.9,13.9,0,1,0,27.8,13.9,13.9,13.9,0,0,0,13.9,0Z" transform="translate(8.946 9.117)" fill="#eeac3a"/>
      <text id="_3" data-name="+" transform="matrix(-1, 0, 0, 1, 28.702, 29.235)" fill="#12263f" font-size="20" font-family="Roboto-Bold, Roboto" font-weight="700"><tspan x="0" y="0">+</tspan></text>
    </g>
    <g id="Group_1072834" data-name="Group 1072834" transform="translate(1000 8526.645)">
      <path id="Path_194909-4" data-name="Path 194909" d="M22.678,0A22.678,22.678,0,1,0,45.356,22.678,22.678,22.678,0,0,0,22.678,0Z" transform="translate(0 0)" fill="#eeac3a" opacity="0.28"/>
      <path id="Path_191051-4" data-name="Path 191051" d="M13.9,0A13.9,13.9,0,1,0,27.8,13.9,13.9,13.9,0,0,0,13.9,0Z" transform="translate(8.946 9.117)" fill="#eeac3a"/>
      <text id="_4" data-name="+" transform="matrix(-1, 0, 0, 1, 28.702, 29.235)" fill="#12263f" font-size="20" font-family="Roboto-Bold, Roboto" font-weight="700"><tspan x="0" y="0">+</tspan></text>
    </g>
    <g id="Group_1072835" data-name="Group 1072835" transform="translate(1020 8678.645)">
      <path id="Path_194909-5" data-name="Path 194909" d="M22.678,0A22.678,22.678,0,1,0,45.356,22.678,22.678,22.678,0,0,0,22.678,0Z" transform="translate(0 0)" fill="#eeac3a" opacity="0.28"/>
      <path id="Path_191051-5" data-name="Path 191051" d="M13.9,0A13.9,13.9,0,1,0,27.8,13.9,13.9,13.9,0,0,0,13.9,0Z" transform="translate(8.946 9.117)" fill="#eeac3a"/>
      <text id="_5" data-name="+" transform="matrix(-1, 0, 0, 1, 28.702, 29.235)" fill="#12263f" font-size="20" font-family="Roboto-Bold, Roboto" font-weight="700"><tspan x="0" y="0">+</tspan></text>
    </g>
  </g>
</svg>
