<svg xmlns="http://www.w3.org/2000/svg" xmlns:xlink="http://www.w3.org/1999/xlink" width="1030" height="236" viewBox="0 0 1030 236">
  <defs>
    <linearGradient id="linear-gradient" x1="0.5" x2="0.5" y2="1" gradientUnits="objectBoundingBox">
      <stop offset="0" stop-color="#e1efe3"/>
      <stop offset="1" stop-color="#dbe5f3"/>
    </linearGradient>
    <linearGradient id="linear-gradient-2" x1="0.5" x2="0.5" y2="1" gradientUnits="objectBoundingBox">
      <stop offset="0" stop-color="#e2e4e9"/>
      <stop offset="1" stop-color="#fff"/>
    </linearGradient>
    <linearGradient id="linear-gradient-5" x1="0.5" x2="0.5" y2="1" gradientUnits="objectBoundingBox">
      <stop offset="0" stop-color="#e1fbff"/>
      <stop offset="1" stop-color="#fff"/>
    </linearGradient>
    <linearGradient id="linear-gradient-6" x1="0.5" x2="0.5" y2="1" gradientUnits="objectBoundingBox">
      <stop offset="0" stop-color="#e1efe3"/>
      <stop offset="1" stop-color="#fff"/>
    </linearGradient>
  </defs>
  <g id="Grupo_1076481" data-name="Grupo 1076481" transform="translate(-285 -714)">
    <path id="Trazado_613402" data-name="Trazado 613402" d="M0,0H1030V236H0Z" transform="translate(285 714)" fill="url(#linear-gradient)"/>
    <g id="Grupo_1072240" data-name="Grupo 1072240" transform="translate(345.347 755.879)">
      <path id="Trazado_613400" data-name="Trazado 613400" d="M137.993,46.007H0V0H4.182c-.031,2.327.1,4.24.1,4.259H31.766L34.7,0H165.8V37.642H142.261l-4.269,8.365Z" transform="translate(-0.347)" fill="#0c5e46"/>
      <path id="Trazado_613401" data-name="Trazado 613401" d="M.967,17V4.2H5.089a6.064,6.064,0,0,1,3.05.769,5.406,5.406,0,0,1,2.114,2.171,6.554,6.554,0,0,1,.769,3.142v.589a6.592,6.592,0,0,1-.743,3.151A5.429,5.429,0,0,1,8.187,16.2a5.93,5.93,0,0,1-3.01.8ZM4.052,6.585v8.042H5.124a2.4,2.4,0,0,0,2.039-.945,4.63,4.63,0,0,0,.712-2.808V10.32a4.592,4.592,0,0,0-.712-2.795,2.442,2.442,0,0,0-2.074-.94ZM17.824,17a3.344,3.344,0,0,1-.281-.853,2.754,2.754,0,0,1-2.285,1.028,3.374,3.374,0,0,1-2.285-.813,2.588,2.588,0,0,1-.94-2.043,2.66,2.66,0,0,1,1.143-2.338A5.821,5.821,0,0,1,16.5,11.19h.914v-.5q0-1.316-1.134-1.316a.927.927,0,0,0-1.055,1.042H12.261a2.655,2.655,0,0,1,1.173-2.239,4.931,4.931,0,0,1,2.993-.86A4.323,4.323,0,0,1,19.3,8.2a3.086,3.086,0,0,1,1.081,2.435v4.21a4.311,4.311,0,0,0,.4,2V17ZM15.97,15.066a1.652,1.652,0,0,0,.918-.237,1.487,1.487,0,0,0,.523-.536V12.772H16.55Q15,12.772,15,14.161a.848.848,0,0,0,.272.655A.986.986,0,0,0,15.97,15.066Zm9.5-9.94V7.49h1.564V9.547H25.471V13.9a1.111,1.111,0,0,0,.193.747,1.037,1.037,0,0,0,.765.211,4.345,4.345,0,0,0,.738-.053v2.118a5.466,5.466,0,0,1-1.67.255,3.1,3.1,0,0,1-2.259-.721,2.954,2.954,0,0,1-.729-2.188V9.547H21.3V7.49h1.213V5.126Zm2.092,7.031a5.613,5.613,0,0,1,.554-2.536,3.96,3.96,0,0,1,1.591-1.709,4.791,4.791,0,0,1,2.435-.6,4.373,4.373,0,0,1,3.366,1.323,5.076,5.076,0,0,1,1.23,3.6v.105A4.925,4.925,0,0,1,35.5,15.871a4.384,4.384,0,0,1-3.344,1.305A4.434,4.434,0,0,1,28.9,15.958a4.761,4.761,0,0,1-1.327-3.3Zm2.962.185a3.538,3.538,0,0,0,.413,1.934,1.376,1.376,0,0,0,1.222.615q1.582,0,1.617-2.435v-.3q0-2.558-1.635-2.558-1.485,0-1.608,2.206Zm12.5,1.986a.684.684,0,0,0-.4-.606,6.016,6.016,0,0,0-1.5-.475A6.853,6.853,0,0,1,39.3,12.6a3.062,3.062,0,0,1-1.1-.971,2.319,2.319,0,0,1-.378-1.31A2.628,2.628,0,0,1,38.9,8.163a4.453,4.453,0,0,1,2.83-.848,4.934,4.934,0,0,1,3.023.853A2.666,2.666,0,0,1,45.9,10.408H42.926q0-1.143-1.2-1.143a1.194,1.194,0,0,0-.782.259.8.8,0,0,0-.316.646.737.737,0,0,0,.387.642,3.654,3.654,0,0,0,1.235.4,10.671,10.671,0,0,1,1.49.378,2.706,2.706,0,0,1,2.145,2.646,2.491,2.491,0,0,1-1.156,2.118,5.068,5.068,0,0,1-2.993.817,5.172,5.172,0,0,1-2.18-.439,3.645,3.645,0,0,1-1.494-1.2,2.707,2.707,0,0,1-.536-1.591h2.769a1.145,1.145,0,0,0,.439.962,1.808,1.808,0,0,0,1.081.3,1.422,1.422,0,0,0,.91-.246A.787.787,0,0,0,43.022,14.328Z" transform="translate(57.653 12.003)" fill="#fff"/>
      <path id="Trazado_213850" data-name="Trazado 213850" d="M-1.064,1.311h24.88V7.118H-4Z" transform="translate(142.837 38.678)" fill="#888fa5" opacity="0.5"/>
    </g>
    <path id="Trazado_213851" data-name="Trazado 213851" d="M0,0H80.952V61.388H0Z" transform="translate(390 801.886)" fill="url(#linear-gradient-2)"/>
    <path id="Trazado_613327" data-name="Trazado 613327" d="M0,0H80.952V61.388H0Z" transform="translate(609 816.332)" fill="url(#linear-gradient-2)"/>
    <path id="Trazado_613328" data-name="Trazado 613328" d="M0,0H80.952V61.388H0Z" transform="translate(810 816.332)" fill="url(#linear-gradient-2)"/>
    <g id="Grupo_1072274" data-name="Grupo 1072274" transform="matrix(0.978, -0.208, 0.208, 0.978, 400.281, 814.085)">
      <path id="Trazado_609330" data-name="Trazado 609330" d="M1.052,0A1.052,1.052,0,1,0,2.1,1.052,1.053,1.053,0,0,0,1.052,0Z" transform="translate(25.362 6.423)"/>
      <path id="Trazado_609331" data-name="Trazado 609331" d="M19.99,8.417H15.781a1.053,1.053,0,0,0-1,.72l-1.106,3.319L12.571,9.136a1.053,1.053,0,0,0-1-.72H10.29L8.385.8A1.052,1.052,0,0,0,6.344.8l-1.9,7.62H1.052a1.052,1.052,0,1,0,0,2.1H5.261a1.051,1.051,0,0,0,1.021-.8L7.366,5.391,8.449,9.725a1.051,1.051,0,0,0,1.021.8h1.346l1.865,5.594a1.053,1.053,0,0,0,2,0l1.865-5.594h3.45a1.052,1.052,0,1,0,0-2.1Z" transform="matrix(0.966, 0.259, -0.259, 0.966, 11.065, 8.195)"/>
      <path id="Trazado_609332" data-name="Trazado 609332" d="M52.136,44.706c-1.362-1.244-15.189-13.848-17.143-15.629a18.939,18.939,0,1,0-5.938,5.929c.016.017,15.83,17.318,15.842,17.33a5.26,5.26,0,1,0,7.238-7.631ZM7.04,30.846a16.835,16.835,0,1,1,23.838.031A16.826,16.826,0,0,1,7.04,30.846Zm23.872,3.042-.034-.035-.082-.082A19.09,19.09,0,0,0,33.765,30.8l2.42,2.207-3.177,3.177-2.1-2.3ZM50.845,50.844a3.153,3.153,0,0,1-4.577-.121L34.429,37.743l3.313-3.313L50.725,46.266a3.152,3.152,0,0,1,.12,4.578Z" transform="translate(0 0)"/>
      <path id="Trazado_609333" data-name="Trazado 609333" d="M26.109,5.368A1.052,1.052,0,0,0,24.483,6.7a12.634,12.634,0,1,1-6.441-4.163A1.052,1.052,0,1,0,18.59.51a14.725,14.725,0,1,0,7.517,4.858Z" transform="translate(4.246 4.252)"/>
    </g>
    <g id="Grupo_1076439" data-name="Grupo 1076439" transform="matrix(0.978, -0.208, 0.208, 0.978, 619.281, 828.531)">
      <path id="Trazado_609330-2" data-name="Trazado 609330" d="M1.052,0A1.052,1.052,0,1,0,2.1,1.052,1.053,1.053,0,0,0,1.052,0Z" transform="translate(25.362 6.423)"/>
      <path id="Trazado_609331-2" data-name="Trazado 609331" d="M19.99,8.417H15.781a1.053,1.053,0,0,0-1,.72l-1.106,3.319L12.571,9.136a1.053,1.053,0,0,0-1-.72H10.29L8.385.8A1.052,1.052,0,0,0,6.344.8l-1.9,7.62H1.052a1.052,1.052,0,1,0,0,2.1H5.261a1.051,1.051,0,0,0,1.021-.8L7.366,5.391,8.449,9.725a1.051,1.051,0,0,0,1.021.8h1.346l1.865,5.594a1.053,1.053,0,0,0,2,0l1.865-5.594h3.45a1.052,1.052,0,1,0,0-2.1Z" transform="matrix(0.966, 0.259, -0.259, 0.966, 11.065, 8.195)"/>
      <path id="Trazado_609332-2" data-name="Trazado 609332" d="M52.136,44.706c-1.362-1.244-15.189-13.848-17.143-15.629a18.939,18.939,0,1,0-5.938,5.929c.016.017,15.83,17.318,15.842,17.33a5.26,5.26,0,1,0,7.238-7.631ZM7.04,30.846a16.835,16.835,0,1,1,23.838.031A16.826,16.826,0,0,1,7.04,30.846Zm23.872,3.042-.034-.035-.082-.082A19.089,19.089,0,0,0,33.765,30.8l2.42,2.207-3.177,3.177-2.1-2.3ZM50.845,50.843a3.153,3.153,0,0,1-4.577-.121L34.429,37.743l3.313-3.313L50.725,46.266a3.152,3.152,0,0,1,.12,4.578Z" transform="translate(0 0)"/>
      <path id="Trazado_609333-2" data-name="Trazado 609333" d="M26.109,5.368A1.052,1.052,0,0,0,24.483,6.7a12.634,12.634,0,1,1-6.441-4.163A1.052,1.052,0,1,0,18.59.51a14.725,14.725,0,1,0,7.517,4.858Z" transform="translate(4.246 4.252)"/>
    </g>
    <g id="Grupo_1076441" data-name="Grupo 1076441" transform="matrix(0.978, -0.208, 0.208, 0.978, 820.281, 828.531)">
      <path id="Trazado_609330-3" data-name="Trazado 609330" d="M1.052,0A1.052,1.052,0,1,0,2.1,1.052,1.053,1.053,0,0,0,1.052,0Z" transform="translate(25.362 6.423)"/>
      <path id="Trazado_609331-3" data-name="Trazado 609331" d="M19.99,8.417H15.781a1.053,1.053,0,0,0-1,.72l-1.106,3.319L12.571,9.136a1.053,1.053,0,0,0-1-.72H10.29L8.385.8A1.052,1.052,0,0,0,6.344.8l-1.9,7.62H1.052a1.052,1.052,0,1,0,0,2.1H5.261a1.051,1.051,0,0,0,1.021-.8L7.366,5.391,8.449,9.725a1.051,1.051,0,0,0,1.021.8h1.346l1.865,5.594a1.053,1.053,0,0,0,2,0l1.865-5.594h3.45a1.052,1.052,0,1,0,0-2.1Z" transform="matrix(0.966, 0.259, -0.259, 0.966, 11.065, 8.195)"/>
      <path id="Trazado_609332-3" data-name="Trazado 609332" d="M52.136,44.706c-1.362-1.244-15.189-13.848-17.143-15.629a18.939,18.939,0,1,0-5.938,5.929c.016.017,15.83,17.318,15.842,17.33a5.26,5.26,0,1,0,7.238-7.631ZM7.04,30.846a16.835,16.835,0,1,1,23.838.031A16.826,16.826,0,0,1,7.04,30.846Zm23.872,3.042-.034-.035-.082-.082A19.089,19.089,0,0,0,33.765,30.8l2.42,2.207-3.177,3.177-2.1-2.3ZM50.845,50.843a3.153,3.153,0,0,1-4.577-.121L34.429,37.743l3.313-3.313L50.725,46.266a3.152,3.152,0,0,1,.12,4.578Z" transform="translate(0 0)"/>
      <path id="Trazado_609333-3" data-name="Trazado 609333" d="M26.109,5.368A1.052,1.052,0,0,0,24.483,6.7a12.634,12.634,0,1,1-6.441-4.163A1.052,1.052,0,1,0,18.59.51a14.725,14.725,0,1,0,7.517,4.858Z" transform="translate(4.246 4.252)"/>
    </g>
    <g id="Grupo_1076440" data-name="Grupo 1076440" transform="translate(650.825 833.849)">
      <path id="Trazado_213855" data-name="Trazado 213855" d="M0,0,4.048,5.4V43.849H0Z" transform="translate(39.127 0)" fill="#03386e"/>
      <path id="Trazado_213856" data-name="Trazado 213856" d="M0,43.175l4.048-5.4V0H0Z" transform="translate(43.174 43.174) rotate(90)" fill="#03386e"/>
    </g>
    <g id="Grupo_1076442" data-name="Grupo 1076442" transform="translate(851.825 833.849)">
      <path id="Trazado_213855-2" data-name="Trazado 213855" d="M0,0,4.048,5.4V43.849H0Z" transform="translate(39.127 0)" fill="#03386e"/>
      <path id="Trazado_213856-2" data-name="Trazado 213856" d="M0,43.175l4.048-5.4V0H0Z" transform="translate(43.174 43.174) rotate(90)" fill="#03386e"/>
    </g>
    <g id="Grupo_1072242" data-name="Grupo 1072242" transform="translate(-58 -37.005)">
      <g id="Grupo_154234" data-name="Grupo 154234" transform="translate(600 791.986)">
        <path id="Sustracción_4" data-name="Sustracción 4" d="M141.1,44.409H0V0H4.227c-.031,2.255.1,4.092.1,4.111H32.108L35.077,0H167.586V36.334H145.414L141.1,44.409Z" transform="translate(21.624 2.495)" fill="#e1fbff"/>
        <path id="Trazado_613407" data-name="Trazado 613407" d="M4.052,12.658V17H.967V4.2H6.073a5.948,5.948,0,0,1,2.6.541,4.074,4.074,0,0,1,1.749,1.538,4.2,4.2,0,0,1,.62,2.263A3.7,3.7,0,0,1,9.7,11.538a5.561,5.561,0,0,1-3.678,1.121Zm0-2.382H6.073A1.906,1.906,0,0,0,7.44,9.828a1.665,1.665,0,0,0,.47-1.266A2.059,2.059,0,0,0,7.427,7.13a1.712,1.712,0,0,0-1.318-.545H4.052ZM18.3,10.171l-.976-.07a1.752,1.752,0,0,0-1.793.879V17H12.568V7.49h2.777l.1,1.222a2.294,2.294,0,0,1,2.083-1.4,2.888,2.888,0,0,1,.826.105Zm.378,1.986a5.613,5.613,0,0,1,.554-2.536,3.96,3.96,0,0,1,1.591-1.709,4.791,4.791,0,0,1,2.435-.6,4.373,4.373,0,0,1,3.366,1.323,5.076,5.076,0,0,1,1.23,3.6v.105a4.925,4.925,0,0,1-1.235,3.529,4.384,4.384,0,0,1-3.344,1.305,4.434,4.434,0,0,1-3.261-1.217,4.761,4.761,0,0,1-1.327-3.3Zm2.962.185a3.538,3.538,0,0,0,.413,1.934,1.376,1.376,0,0,0,1.222.615q1.582,0,1.617-2.435v-.3q0-2.558-1.635-2.558-1.485,0-1.608,2.206Zm11.54,2.549a1.317,1.317,0,0,0,.967-.338,1.241,1.241,0,0,0,.334-.945h2.777a3.288,3.288,0,0,1-1.121,2.566,4.168,4.168,0,0,1-2.887,1,4.22,4.22,0,0,1-3.27-1.3,5.125,5.125,0,0,1-1.2-3.6v-.123A5.792,5.792,0,0,1,29.316,9.6a3.872,3.872,0,0,1,1.534-1.7,4.573,4.573,0,0,1,2.373-.593,4.116,4.116,0,0,1,2.944,1.028,3.647,3.647,0,0,1,1.09,2.786H34.479A1.626,1.626,0,0,0,34.119,10a1.244,1.244,0,0,0-.967-.4Q32,9.6,31.808,11.067a10.357,10.357,0,0,0-.062,1.283,4.068,4.068,0,0,0,.343,1.986A1.187,1.187,0,0,0,33.179,14.891Zm9.932,2.285a4.889,4.889,0,0,1-3.542-1.305,4.507,4.507,0,0,1-1.354-3.4v-.246a5.84,5.84,0,0,1,.541-2.575,3.955,3.955,0,0,1,1.578-1.727,4.763,4.763,0,0,1,2.461-.611,4.117,4.117,0,0,1,3.164,1.244,4.887,4.887,0,0,1,1.16,3.467v1.151H41.229a2.135,2.135,0,0,0,.694,1.257,2.066,2.066,0,0,0,1.389.457,2.662,2.662,0,0,0,2.2-.984l1.354,1.6a3.784,3.784,0,0,1-1.569,1.217A5.3,5.3,0,0,1,43.11,17.176ZM42.776,9.6q-1.3,0-1.547,1.723h2.988v-.229a1.467,1.467,0,0,0-.36-1.1A1.434,1.434,0,0,0,42.776,9.6Zm10.512,4.729a.684.684,0,0,0-.4-.606,6.016,6.016,0,0,0-1.5-.475,6.853,6.853,0,0,1-1.828-.646,3.062,3.062,0,0,1-1.1-.971,2.319,2.319,0,0,1-.378-1.31,2.628,2.628,0,0,1,1.081-2.158A4.453,4.453,0,0,1,52,7.314a4.934,4.934,0,0,1,3.023.853,2.666,2.666,0,0,1,1.143,2.241H53.191q0-1.143-1.2-1.143a1.194,1.194,0,0,0-.782.259.8.8,0,0,0-.316.646.737.737,0,0,0,.387.642,3.654,3.654,0,0,0,1.235.4,10.671,10.671,0,0,1,1.49.378,2.706,2.706,0,0,1,2.145,2.646,2.491,2.491,0,0,1-1.156,2.118A5.068,5.068,0,0,1,52,17.176a5.172,5.172,0,0,1-2.18-.439,3.645,3.645,0,0,1-1.494-1.2,2.707,2.707,0,0,1-.536-1.591h2.769a1.145,1.145,0,0,0,.439.962,1.808,1.808,0,0,0,1.081.3,1.422,1.422,0,0,0,.91-.246A.787.787,0,0,0,53.288,14.328Zm3.867-2.171a5.613,5.613,0,0,1,.554-2.536A3.96,3.96,0,0,1,59.3,7.912a4.791,4.791,0,0,1,2.435-.6A4.373,4.373,0,0,1,65.1,8.637a5.076,5.076,0,0,1,1.23,3.6v.105A4.925,4.925,0,0,1,65.1,15.871a4.384,4.384,0,0,1-3.344,1.305,4.434,4.434,0,0,1-3.261-1.217,4.761,4.761,0,0,1-1.327-3.3Zm2.962.185a3.538,3.538,0,0,0,.413,1.934,1.376,1.376,0,0,0,1.222.615q1.582,0,1.617-2.435v-.3q0-2.558-1.635-2.558-1.485,0-1.608,2.206Zm12.5,1.986a.684.684,0,0,0-.4-.606,6.016,6.016,0,0,0-1.5-.475,6.853,6.853,0,0,1-1.828-.646,3.062,3.062,0,0,1-1.1-.971,2.319,2.319,0,0,1-.378-1.31,2.628,2.628,0,0,1,1.081-2.158,4.453,4.453,0,0,1,2.83-.848,4.934,4.934,0,0,1,3.023.853,2.666,2.666,0,0,1,1.143,2.241H72.519q0-1.143-1.2-1.143a1.194,1.194,0,0,0-.782.259.8.8,0,0,0-.316.646.737.737,0,0,0,.387.642,3.654,3.654,0,0,0,1.235.4,10.671,10.671,0,0,1,1.49.378,2.706,2.706,0,0,1,2.145,2.646,2.491,2.491,0,0,1-1.156,2.118,5.068,5.068,0,0,1-2.993.817,5.172,5.172,0,0,1-2.18-.439,3.645,3.645,0,0,1-1.494-1.2,2.707,2.707,0,0,1-.536-1.591h2.769a1.145,1.145,0,0,0,.439.962,1.808,1.808,0,0,0,1.081.3,1.422,1.422,0,0,0,.91-.246A.787.787,0,0,0,72.615,14.328Z" transform="translate(62.633 13.7)" fill="#12263f"/>
        <path id="Trazado_213850-2" data-name="Trazado 213850" d="M-1.281,1.311H21.763V6.69H-4Z" transform="translate(168.238 40.02)" fill="#6debff" opacity="0.5"/>
        <path id="Trazado_213851-2" data-name="Trazado 213851" d="M0,0H49.9V37.842H0Z" transform="translate(0 0)" fill="url(#linear-gradient-5)"/>
      </g>
      <g id="Grupo_154240" data-name="Grupo 154240" transform="translate(625.782 805.012)">
        <path id="Trazado_213855-3" data-name="Trazado 213855" d="M0,0,2.5,3.327v23.7H0Z" transform="translate(24.119 0)" fill="#6debff"/>
        <path id="Trazado_213856-3" data-name="Trazado 213856" d="M0,26.614l2.5-3.327V0H0Z" transform="translate(26.614 26.614) rotate(90)" fill="#6debff"/>
      </g>
      <g id="icon_55_" transform="translate(603.677 790.529)">
        <path id="XMLID_13_" d="M24.623,33.431H22.755a1.707,1.707,0,0,1-1.711-1.7v-.79a.354.354,0,0,0-.231-.317.361.361,0,0,0-.4.055l-.566.562a1.724,1.724,0,0,1-2.421,0l-1.321-1.311a1.691,1.691,0,0,1,0-2.4l.566-.562a.344.344,0,0,0,.062-.379.361.361,0,0,0-.326-.244h-.8a1.707,1.707,0,0,1-1.712-1.7V22.793a1.707,1.707,0,0,1,1.712-1.7h.8a.355.355,0,0,0,.32-.23.351.351,0,0,0-.056-.393l-.566-.562a1.691,1.691,0,0,1,0-2.4L17.43,16.2a1.762,1.762,0,0,1,2.421,0l.566.562a.35.35,0,0,0,.382.061.359.359,0,0,0,.246-.323v-.791a1.707,1.707,0,0,1,1.711-1.7h1.868a1.707,1.707,0,0,1,1.712,1.7V16.5a.352.352,0,0,0,.231.317.358.358,0,0,0,.4-.056l.566-.562a1.761,1.761,0,0,1,2.42,0l1.321,1.311a1.691,1.691,0,0,1,0,2.4l-.566.562a.343.343,0,0,0-.061.38.361.361,0,0,0,.325.244h.8a1.707,1.707,0,0,1,1.712,1.7v1.854a1.707,1.707,0,0,1-1.712,1.7h-.8a.354.354,0,0,0-.319.229.347.347,0,0,0,.056.394l.566.562a1.689,1.689,0,0,1,0,2.4l-1.321,1.311a1.723,1.723,0,0,1-2.42,0l-.566-.562a.343.343,0,0,0-.382-.06l-.015.006a.358.358,0,0,0-.231.317v.79a1.709,1.709,0,0,1-1.713,1.7Zm-3.977-4.2a1.784,1.784,0,0,1,.675.133,1.711,1.711,0,0,1,1.094,1.581v.79a.339.339,0,0,0,.34.337h1.868a.339.339,0,0,0,.34-.337v-.79a1.707,1.707,0,0,1,1.082-1.576l.039-.016a1.723,1.723,0,0,1,1.848.367l.566.562a.342.342,0,0,0,.481,0L30.3,28.969a.336.336,0,0,0,0-.477l-.566-.562a1.691,1.691,0,0,1-.376-1.82l.028-.067a1.713,1.713,0,0,1,1.581-1.059h.8a.339.339,0,0,0,.34-.337V22.793a.339.339,0,0,0-.34-.337h-.8a1.718,1.718,0,0,1-1.588-1.074,1.7,1.7,0,0,1,.354-1.872l.566-.562a.336.336,0,0,0,0-.478L28.978,17.16a.34.34,0,0,0-.48,0l-.566.562A1.756,1.756,0,0,1,24.964,16.5v-.791a.339.339,0,0,0-.34-.337H22.756a.339.339,0,0,0-.34.337V16.5a1.707,1.707,0,0,1-1.082,1.576,1.73,1.73,0,0,1-1.886-.352l-.566-.562a.341.341,0,0,0-.481,0l-1.321,1.311a.336.336,0,0,0,0,.478l.566.562A1.692,1.692,0,0,1,18,21.37a1.724,1.724,0,0,1-1.593,1.086h-.8a.339.339,0,0,0-.34.337v1.854a.339.339,0,0,0,.34.337h.8A1.72,1.72,0,0,1,18,26.058a1.7,1.7,0,0,1-.355,1.873l-.566.562a.336.336,0,0,0,0,.477L18.4,30.281a.342.342,0,0,0,.481,0l.566-.562a1.694,1.694,0,0,1,1.2-.49Z" transform="translate(-3.181 -3.061)"/>
        <path id="XMLID_10_" d="M26.32,30.117a3.784,3.784,0,1,1,3.812-3.784A3.8,3.8,0,0,1,26.32,30.117Zm0-6.207a2.423,2.423,0,1,0,2.441,2.423A2.435,2.435,0,0,0,26.32,23.911Z" transform="translate(-5.813 -5.673)"/>
        <g id="XMLID_2100_" transform="translate(3.5 4)">
          <path id="XMLID_9_" d="M7.025,19.667a.689.689,0,0,1-.1-.007.681.681,0,0,1-.58-.771A15.179,15.179,0,0,1,18.111,6.339.68.68,0,1,1,18.4,7.667,13.808,13.808,0,0,0,7.7,19.084a.684.684,0,0,1-.678.583Z" transform="translate(-4.369 -4.71)"/>
          <path id="XMLID_8_" d="M18.242,42.8a.724.724,0,0,1-.148-.016A15.128,15.128,0,0,1,6.29,29.941a.686.686,0,0,1,1.361-.169A13.763,13.763,0,0,0,18.389,41.457a.68.68,0,0,1-.147,1.345Z" transform="translate(-4.352 -11.7)"/>
          <path id="XMLID_7_" d="M31.351,42.918a.68.68,0,0,1-.117-1.351,13.849,13.849,0,0,0,11.309-11.8.686.686,0,0,1,1.361.169A15.225,15.225,0,0,1,31.471,42.909a.792.792,0,0,1-.12.01Z" transform="translate(-11.809 -11.7)"/>
          <path id="XMLID_6_" d="M43.183,19.615a.683.683,0,0,1-.678-.583A13.722,13.722,0,0,0,31.234,7.5a.681.681,0,1,1,.237-1.34A15.082,15.082,0,0,1,43.862,18.837a.681.681,0,0,1-.58.771.6.6,0,0,1-.1.008Z" transform="translate(-11.809 -4.658)"/>
          <path id="XMLID_5_" d="M21.316,9.564a.684.684,0,0,1-.645-.913l.888-2.43-2.507-.9a.68.68,0,0,1-.412-.871.688.688,0,0,1,.878-.408L22.67,5.174a.69.69,0,0,1,.388.351.676.676,0,0,1,.024.52l-1.12,3.07a.686.686,0,0,1-.646.449Z" transform="translate(-8.118 -4)"/>
          <path id="XMLID_4_" d="M47.557,24.136a.68.68,0,0,1-.339-.09L44.36,22.429A.676.676,0,0,1,44.1,21.5a.687.687,0,0,1,.935-.254L47.3,22.528l1.322-2.3a.687.687,0,0,1,.935-.254.676.676,0,0,1,.255.928l-1.661,2.89A.687.687,0,0,1,47.557,24.136Z" transform="translate(-15.891 -8.858)"/>
          <path id="XMLID_3_" d="M33.2,49.357a.685.685,0,0,1-.44-.159L30.2,47.06a.677.677,0,0,1-.085-.959l2.114-2.5a.691.691,0,0,1,.966-.085.677.677,0,0,1,.085.959L31.6,46.454l2.044,1.7a.677.677,0,0,1,.085.959A.693.693,0,0,1,33.2,49.357Z" transform="translate(-11.59 -16.037)"/>
          <path id="XMLID_2_" d="M4.185,32.851a.682.682,0,0,1-.554-1.082L5.6,29.08a.689.689,0,0,1,.958-.149l2.66,1.921a.678.678,0,0,1,.151.951.69.69,0,0,1-.958.149L6.309,30.43l-1.57,2.14A.685.685,0,0,1,4.185,32.851Z" transform="translate(-3.5 -11.585)"/>
        </g>
      </g>
    </g>
    <g id="Grupo_154242" data-name="Grupo 154242" transform="translate(962.221 771.032)">
      <path id="Trazado_213857" data-name="Trazado 213857" d="M2.754,0,0,2.753l8.114,8.115L0,18.983l2.754,2.753L13.622,10.868Z" transform="translate(6.779 0)" fill="#18b8c4"/>
      <path id="Trazado_213858" data-name="Trazado 213858" d="M0,2.753,4.265,7.018,0,11.283l2.753,2.753L9.773,7.018,2.753,0Z" transform="translate(0 3.85)" fill="#18b8c4"/>
    </g>
    <g id="Grupo_154244" data-name="Grupo 154244" transform="translate(522 768.471)">
      <path id="Trazado_213857-2" data-name="Trazado 213857" d="M14.709,0,12.184,2.524l7.438,7.439L12.184,17.4l2.524,2.524,9.963-9.963Z" transform="translate(-5.97 0)" fill="#18b8c4"/>
      <path id="Trazado_213858-2" data-name="Trazado 213858" d="M0,9.444l3.91,3.91L0,17.263l2.524,2.524,6.434-6.433L2.524,6.92Z" transform="translate(0 -3.391)" fill="#18b8c4"/>
    </g>
    <g id="Grupo_1072244" data-name="Grupo 1072244" transform="translate(733.3 769.565)">
      <path id="Trazado_213857-3" data-name="Trazado 213857" d="M14.709,0,12.184,2.524l7.438,7.439L12.184,17.4l2.524,2.524,9.963-9.963Z" transform="translate(-5.97 0)" fill="#18b8c4"/>
      <path id="Trazado_213858-3" data-name="Trazado 213858" d="M0,9.444l3.91,3.91L0,17.263l2.524,2.524,6.434-6.433L2.524,6.92Z" transform="translate(0 -3.391)" fill="#18b8c4"/>
    </g>
    <path id="Trazado_213859" data-name="Trazado 213859" d="M-7241.23-9918.669h60.875" transform="translate(-6272.977 -9136.768) rotate(180)" fill="none" stroke="#18b8c4" stroke-width="2"/>
    <g id="Grupo_1072245" data-name="Grupo 1072245" transform="translate(-163 12.226)">
      <g id="Grupo_154237" data-name="Grupo 154237" transform="translate(915 746.939)">
        <path id="Trazado_613405" data-name="Trazado 613405" d="M139.828,43.035H0V0H4.237c-.031,2.177.1,3.966.1,3.984H32.188L35.165,0h132.84V35.21H144.154l-4.325,7.825Z" transform="translate(21.224 2.436)" fill="#e1efe3"/>
        <path id="Trazado_613406" data-name="Trazado 613406" d="M4.254,17H1.178V4.2H4.254ZM8.982,7.49l.1,1.116a3.225,3.225,0,0,1,2.716-1.292,2.713,2.713,0,0,1,2.219.888,4.226,4.226,0,0,1,.76,2.672V17H11.8V11a1.6,1.6,0,0,0-.29-1.059A1.342,1.342,0,0,0,10.459,9.6a1.413,1.413,0,0,0-1.292.686V17H6.205V7.49ZM17.068,17V9.547h-1.38V7.49h1.38V6.734a3.286,3.286,0,0,1,.958-2.522,3.785,3.785,0,0,1,2.689-.9A5.89,5.89,0,0,1,22.1,3.5l.009,2.18a2.706,2.706,0,0,0-.729-.079q-1.345,0-1.345,1.16V7.49h1.854V9.547H20.039V17Zm5.493-4.843a5.613,5.613,0,0,1,.554-2.536,3.96,3.96,0,0,1,1.591-1.709,4.791,4.791,0,0,1,2.435-.6,4.373,4.373,0,0,1,3.366,1.323,5.076,5.076,0,0,1,1.23,3.6v.105A4.925,4.925,0,0,1,30.5,15.871a4.384,4.384,0,0,1-3.344,1.305A4.434,4.434,0,0,1,23.9,15.958a4.761,4.761,0,0,1-1.327-3.3Zm2.962.185a3.538,3.538,0,0,0,.413,1.934,1.376,1.376,0,0,0,1.222.615q1.582,0,1.617-2.435v-.3q0-2.558-1.635-2.558-1.485,0-1.608,2.206Zm13.271-2.171-.976-.07a1.752,1.752,0,0,0-1.793.879V17H33.064V7.49h2.777l.1,1.222a2.294,2.294,0,0,1,2.083-1.4,2.888,2.888,0,0,1,.826.105ZM42.662,7.49l.1,1.116a3.27,3.27,0,0,1,2.716-1.292,2.407,2.407,0,0,1,2.435,1.433A3.165,3.165,0,0,1,50.7,7.314q2.892,0,2.971,3.5V17H50.7V11a1.813,1.813,0,0,0-.246-1.063,1.048,1.048,0,0,0-.9-.334,1.4,1.4,0,0,0-1.31.782l.009.123V17H45.29V11.015a1.906,1.906,0,0,0-.237-1.081,1.045,1.045,0,0,0-.905-.334,1.42,1.42,0,0,0-1.3.782V17H39.885V7.49ZM60.724,17a3.344,3.344,0,0,1-.281-.853,2.754,2.754,0,0,1-2.285,1.028,3.374,3.374,0,0,1-2.285-.813,2.588,2.588,0,0,1-.94-2.043,2.66,2.66,0,0,1,1.143-2.338A5.821,5.821,0,0,1,59.4,11.19h.914v-.5q0-1.316-1.134-1.316a.927.927,0,0,0-1.055,1.042H55.16a2.655,2.655,0,0,1,1.173-2.239,4.931,4.931,0,0,1,2.993-.86A4.323,4.323,0,0,1,62.2,8.2a3.086,3.086,0,0,1,1.081,2.435v4.21a4.311,4.311,0,0,0,.4,2V17Zm-1.854-1.934a1.652,1.652,0,0,0,.918-.237,1.487,1.487,0,0,0,.523-.536V12.772h-.861q-1.547,0-1.547,1.389a.848.848,0,0,0,.272.655A.986.986,0,0,0,58.869,15.066Zm10.072-.176a1.317,1.317,0,0,0,.967-.338,1.241,1.241,0,0,0,.334-.945H73.02A3.288,3.288,0,0,1,71.9,16.174a4.168,4.168,0,0,1-2.887,1,4.22,4.22,0,0,1-3.27-1.3,5.125,5.125,0,0,1-1.2-3.6v-.123A5.792,5.792,0,0,1,65.079,9.6a3.872,3.872,0,0,1,1.534-1.7,4.573,4.573,0,0,1,2.373-.593A4.116,4.116,0,0,1,71.93,8.343a3.647,3.647,0,0,1,1.09,2.786H70.242A1.626,1.626,0,0,0,69.882,10a1.244,1.244,0,0,0-.967-.4q-1.151,0-1.345,1.468a10.357,10.357,0,0,0-.062,1.283,4.068,4.068,0,0,0,.343,1.986A1.187,1.187,0,0,0,68.941,14.891ZM77.4,17H74.426V7.49H77.4ZM74.25,5.038A1.322,1.322,0,0,1,74.707,4,1.943,1.943,0,0,1,77.08,4a1.322,1.322,0,0,1,.457,1.037,1.322,1.322,0,0,1-.457,1.037,1.943,1.943,0,0,1-2.373,0A1.322,1.322,0,0,1,74.25,5.038Zm4.6,7.119A5.613,5.613,0,0,1,79.4,9.622a3.96,3.96,0,0,1,1.591-1.709,4.791,4.791,0,0,1,2.435-.6,4.373,4.373,0,0,1,3.366,1.323,5.076,5.076,0,0,1,1.23,3.6v.105a4.925,4.925,0,0,1-1.235,3.529,4.384,4.384,0,0,1-3.344,1.305,4.434,4.434,0,0,1-3.261-1.217,4.761,4.761,0,0,1-1.327-3.3Zm2.962.185a3.538,3.538,0,0,0,.413,1.934,1.376,1.376,0,0,0,1.222.615q1.582,0,1.617-2.435v-.3q0-2.558-1.635-2.558-1.485,0-1.608,2.206ZM83.83,3.5h3.129L84.516,6.26l-2.417,0Zm8.218,3.99.1,1.116A3.225,3.225,0,0,1,94.86,7.314,2.713,2.713,0,0,1,97.08,8.2a4.226,4.226,0,0,1,.76,2.672V17H94.869V11a1.6,1.6,0,0,0-.29-1.059A1.342,1.342,0,0,0,93.524,9.6a1.413,1.413,0,0,0-1.292.686V17H89.271V7.49Z" transform="translate(63.907 14.452)" fill="#12263f"/>
        <path id="Trazado_213850-3" data-name="Trazado 213850" d="M-1.346,1.311h22.5V6.562H-4Z" transform="translate(168.849 38.718)" fill="#0c5e46" opacity="0.5"/>
        <path id="Trazado_213851-3" data-name="Trazado 213851" d="M0,0H50.566V38.715H0Z" fill="url(#linear-gradient-6)"/>
      </g>
      <g id="Grupo_154239" data-name="Grupo 154239" transform="translate(941.698 758.911)">
        <path id="Trazado_213855-4" data-name="Trazado 213855" d="M0,0,2.463,3.284v23.4H0Z" transform="translate(23.811 0)" fill="#0c5e46"/>
        <path id="Trazado_213856-4" data-name="Trazado 213856" d="M0,26.275l2.463-3.284V0H0Z" transform="translate(26.275 26.275) rotate(90)" fill="#0c5e46"/>
      </g>
      <g id="Grupo_1072293" data-name="Grupo 1072293" transform="translate(899.766 750.192)">
        <g id="Grupo_1072292" data-name="Grupo 1072292" transform="translate(27.352)">
          <g id="Grupo_1072276" data-name="Grupo 1072276" transform="translate(20.748 4.968)">
            <g id="Grupo_1072275" data-name="Grupo 1072275">
              <path id="Trazado_609334" data-name="Trazado 609334" d="M370.261,87.313a.606.606,0,0,1-.606-.606V82.562a.606.606,0,1,1,1.212,0v4.145A.606.606,0,0,1,370.261,87.313Z" transform="translate(-369.655 -81.956)"/>
            </g>
          </g>
          <g id="Grupo_1072278" data-name="Grupo 1072278" transform="translate(20.745 3.017)">
            <g id="Grupo_1072277" data-name="Grupo 1072277">
              <circle id="Elipse_4867" data-name="Elipse 4867" cx="0.606" cy="0.606" r="0.606"/>
            </g>
          </g>
          <g id="Grupo_1072281" data-name="Grupo 1072281" transform="translate(0)">
            <path id="Trazado_609335" data-name="Trazado 609335" d="M55.07,6.368A6.363,6.363,0,0,0,44.837,1.312H29.558a2.208,2.208,0,0,0-2.206,2.206V25.567a2.208,2.208,0,0,0,2.206,2.206h1.923v1.055a2.208,2.208,0,0,0,2.206,2.206H49.535a2.208,2.208,0,0,0,2.206-2.206V20.421a.606.606,0,1,0-1.212,0v8.407a1,1,0,0,1-.994.994H33.687a1,1,0,0,1-.994-.994V27.773H45.406a2.208,2.208,0,0,0,2.206-2.206V12.642a6.39,6.39,0,0,0,2.917-.173v2.472a.606.606,0,0,0,1.212,0V11.963a6.373,6.373,0,0,0,3.329-5.6Zm-8.67,19.2a1,1,0,0,1-.994.994H29.558a1,1,0,0,1-.994-.994V3.518a1,1,0,0,1,.994-.994H43.63A6.334,6.334,0,0,0,42.342,6.1H32.021a.606.606,0,0,0-.606.606v2.56a.606.606,0,0,0,.606.606H42.943a.6.6,0,0,0,.367-.123A6.4,6.4,0,0,0,46.4,12.3ZM42.337,7.311V8.659h-9.71V7.311ZM48.7,11.523a5.155,5.155,0,1,1,5.154-5.155A5.161,5.161,0,0,1,48.7,11.523Z" transform="translate(-27.352)"/>
            <g id="Grupo_1072280" data-name="Grupo 1072280" transform="translate(23.178 17.065)">
              <g id="Grupo_1072279" data-name="Grupo 1072279">
                <path id="Trazado_609336" data-name="Trazado 609336" d="M410.347,282.752a.606.606,0,1,1,.59-.469A.612.612,0,0,1,410.347,282.752Z" transform="translate(-409.742 -281.541)"/>
              </g>
            </g>
          </g>
          <g id="Grupo_1072291" data-name="Grupo 1072291" transform="translate(4.063 11.979)">
            <g id="Grupo_1072290" data-name="Grupo 1072290">
              <g id="Grupo_1072283" data-name="Grupo 1072283">
                <g id="Grupo_1072282" data-name="Grupo 1072282">
                  <path id="Trazado_609337" data-name="Trazado 609337" d="M105.905,198.845H94.983a.606.606,0,1,1,0-1.212h10.922a.606.606,0,1,1,0,1.212Z" transform="translate(-94.377 -197.633)"/>
                </g>
              </g>
              <g id="Grupo_1072285" data-name="Grupo 1072285" transform="translate(0 2.875)">
                <g id="Grupo_1072284" data-name="Grupo 1072284">
                  <path id="Trazado_609338" data-name="Trazado 609338" d="M105.905,246.275H94.983a.606.606,0,0,1,0-1.212h10.922a.606.606,0,1,1,0,1.212Z" transform="translate(-94.377 -245.063)"/>
                </g>
              </g>
              <g id="Grupo_1072287" data-name="Grupo 1072287" transform="translate(0 5.75)">
                <g id="Grupo_1072286" data-name="Grupo 1072286">
                  <path id="Trazado_609339" data-name="Trazado 609339" d="M105.905,293.705H94.983a.606.606,0,1,1,0-1.212h10.922a.606.606,0,1,1,0,1.212Z" transform="translate(-94.377 -292.493)"/>
                </g>
              </g>
              <g id="Grupo_1072289" data-name="Grupo 1072289" transform="translate(0 8.625)">
                <g id="Grupo_1072288" data-name="Grupo 1072288">
                  <path id="Trazado_609340" data-name="Trazado 609340" d="M105.905,341.135H94.983a.606.606,0,1,1,0-1.212h10.922a.606.606,0,1,1,0,1.212Z" transform="translate(-94.377 -339.923)"/>
                </g>
              </g>
            </g>
          </g>
        </g>
      </g>
    </g>
    <path id="Trazado_613403" data-name="Trazado 613403" d="M0,0H283V150H0Z" transform="translate(989 759)" fill="#03386e"/>
    <path id="Trazado_613404" data-name="Trazado 613404" d="M2.828,13.773H8.219V15H1.32V3.625H2.828ZM14.922,15a3.036,3.036,0,0,1-.2-.891,3.225,3.225,0,0,1-2.406,1.047,2.984,2.984,0,0,1-2.051-.707,2.287,2.287,0,0,1-.8-1.793,2.39,2.39,0,0,1,1-2.051,4.733,4.733,0,0,1,2.824-.73H14.7V9.211A1.623,1.623,0,0,0,14.242,8a1.821,1.821,0,0,0-1.336-.449,2.107,2.107,0,0,0-1.3.391,1.151,1.151,0,0,0-.523.945H9.633a2,2,0,0,1,.449-1.223A3.066,3.066,0,0,1,11.3,6.734a4.1,4.1,0,0,1,1.691-.344,3.342,3.342,0,0,1,2.289.73,2.635,2.635,0,0,1,.859,2.012v3.891a4.757,4.757,0,0,0,.3,1.852V15Zm-2.4-1.1a2.54,2.54,0,0,0,1.289-.352,2.127,2.127,0,0,0,.883-.914V10.9H13.563q-2.656,0-2.656,1.555a1.316,1.316,0,0,0,.453,1.063A1.742,1.742,0,0,0,12.523,13.9ZM23.938,15H22.492V6.547h1.445ZM22.375,4.3a.863.863,0,0,1,.215-.594.807.807,0,0,1,.637-.242.819.819,0,0,1,.641.242.854.854,0,0,1,.219.594.826.826,0,0,1-.219.586.834.834,0,0,1-.641.234.821.821,0,0,1-.637-.234A.834.834,0,0,1,22.375,4.3Zm5.242,2.242.047,1.063A3.08,3.08,0,0,1,30.2,6.391q2.68,0,2.7,3.023V15H31.453V9.406a1.946,1.946,0,0,0-.418-1.352,1.675,1.675,0,0,0-1.277-.437,2.086,2.086,0,0,0-1.234.375,2.546,2.546,0,0,0-.828.984V15H26.25V6.547ZM35.789,15V7.664H34.453V6.547h1.336V5.68a2.878,2.878,0,0,1,.727-2.1,2.745,2.745,0,0,1,2.055-.742,3.816,3.816,0,0,1,.992.132l-.078,1.165a4.151,4.151,0,0,0-.781-.07,1.41,1.41,0,0,0-1.086.411,1.669,1.669,0,0,0-.383,1.18v.893h1.8V7.664h-1.8V15Zm4.461-4.3a4.993,4.993,0,0,1,.488-2.234A3.643,3.643,0,0,1,42.1,6.93a3.7,3.7,0,0,1,1.988-.539,3.565,3.565,0,0,1,2.793,1.2,4.6,4.6,0,0,1,1.066,3.18v.1a5.036,5.036,0,0,1-.473,2.215,3.589,3.589,0,0,1-1.352,1.527,3.743,3.743,0,0,1-2.02.547,3.556,3.556,0,0,1-2.785-1.2A4.575,4.575,0,0,1,40.25,10.8Zm1.453.172a3.616,3.616,0,0,0,.652,2.258,2.211,2.211,0,0,0,3.5-.012A3.955,3.955,0,0,0,46.5,10.7a3.61,3.61,0,0,0-.66-2.254,2.1,2.1,0,0,0-1.754-.863,2.075,2.075,0,0,0-1.727.852A3.925,3.925,0,0,0,41.7,10.867ZM53.844,7.844a4.331,4.331,0,0,0-.711-.055A1.9,1.9,0,0,0,51.2,9v6H49.758V6.547h1.406l.023.977A2.251,2.251,0,0,1,53.2,6.391a1.477,1.477,0,0,1,.641.109Zm2.688-1.3.039.938a3.122,3.122,0,0,1,2.508-1.094A2.417,2.417,0,0,1,61.492,7.75a3.2,3.2,0,0,1,1.1-.984,3.242,3.242,0,0,1,1.6-.375q2.781,0,2.828,2.945V15H65.57V9.422a1.941,1.941,0,0,0-.414-1.355,1.823,1.823,0,0,0-1.391-.449,1.917,1.917,0,0,0-1.336.48,1.949,1.949,0,0,0-.617,1.293V15H60.359V9.461a1.613,1.613,0,0,0-1.8-1.844,1.934,1.934,0,0,0-1.945,1.211V15H55.164V6.547ZM74.414,15a3.036,3.036,0,0,1-.2-.891A3.225,3.225,0,0,1,71.8,15.156a2.984,2.984,0,0,1-2.051-.707,2.288,2.288,0,0,1-.8-1.793,2.39,2.39,0,0,1,1-2.051,4.733,4.733,0,0,1,2.824-.73h1.406V9.211A1.623,1.623,0,0,0,73.734,8,1.821,1.821,0,0,0,72.4,7.555a2.108,2.108,0,0,0-1.3.391,1.151,1.151,0,0,0-.523.945H69.125a2,2,0,0,1,.449-1.223,3.066,3.066,0,0,1,1.219-.934,4.1,4.1,0,0,1,1.691-.344,3.342,3.342,0,0,1,2.289.73,2.635,2.635,0,0,1,.859,2.012v3.891a4.757,4.757,0,0,0,.3,1.852V15Zm-2.4-1.1a2.54,2.54,0,0,0,1.289-.352,2.127,2.127,0,0,0,.883-.914V10.9H73.055q-2.656,0-2.656,1.555a1.316,1.316,0,0,0,.453,1.063A1.742,1.742,0,0,0,72.016,13.9Zm9.273.078a2.082,2.082,0,0,0,1.352-.469,1.649,1.649,0,0,0,.641-1.172h1.367a2.621,2.621,0,0,1-.5,1.383,3.293,3.293,0,0,1-1.23,1.047,3.55,3.55,0,0,1-1.629.391A3.482,3.482,0,0,1,78.543,14a4.59,4.59,0,0,1-1.02-3.152v-.242a5.089,5.089,0,0,1,.453-2.2,3.451,3.451,0,0,1,1.3-1.492,3.7,3.7,0,0,1,2-.531,3.39,3.39,0,0,1,2.363.852,3.043,3.043,0,0,1,1,2.211H83.281a1.992,1.992,0,0,0-.621-1.348,1.932,1.932,0,0,0-1.379-.527,2.023,2.023,0,0,0-1.707.793,3.724,3.724,0,0,0-.605,2.293v.273a3.65,3.65,0,0,0,.6,2.25A2.033,2.033,0,0,0,81.289,13.977ZM87.844,15H86.4V6.547h1.445ZM86.281,4.3a.863.863,0,0,1,.215-.594.807.807,0,0,1,.637-.242.819.819,0,0,1,.641.242.854.854,0,0,1,.219.594.826.826,0,0,1-.219.586.834.834,0,0,1-.641.234.821.821,0,0,1-.637-.234A.834.834,0,0,1,86.281,4.3ZM89.773,10.7a4.993,4.993,0,0,1,.488-2.234A3.643,3.643,0,0,1,91.621,6.93a3.7,3.7,0,0,1,1.988-.539,3.565,3.565,0,0,1,2.793,1.2,4.6,4.6,0,0,1,1.066,3.18v.1A5.036,5.036,0,0,1,97,13.082a3.589,3.589,0,0,1-1.352,1.527,3.743,3.743,0,0,1-2.02.547,3.556,3.556,0,0,1-2.785-1.2A4.575,4.575,0,0,1,89.773,10.8Zm1.453.172a3.616,3.616,0,0,0,.652,2.258,2.211,2.211,0,0,0,3.5-.012,3.955,3.955,0,0,0,.648-2.418,3.61,3.61,0,0,0-.66-2.254,2.1,2.1,0,0,0-1.754-.863,2.075,2.075,0,0,0-1.727.852A3.925,3.925,0,0,0,91.227,10.867ZM94.266,3h1.75L93.922,5.3l-1.164,0Zm6.383,3.547.047,1.063a3.08,3.08,0,0,1,2.531-1.219q2.68,0,2.7,3.023V15h-1.445V9.406a1.946,1.946,0,0,0-.418-1.352,1.675,1.675,0,0,0-1.277-.437,2.086,2.086,0,0,0-1.234.375,2.546,2.546,0,0,0-.828.984V15H99.281V6.547Zm14.93,8.609a3.693,3.693,0,0,1-2.8-1.129,4.19,4.19,0,0,1-1.078-3.02v-.266a5.073,5.073,0,0,1,.48-2.246,3.748,3.748,0,0,1,1.344-1.547,3.378,3.378,0,0,1,1.871-.559,3.166,3.166,0,0,1,2.563,1.086,4.7,4.7,0,0,1,.914,3.109v.6h-5.727a3,3,0,0,0,.73,2.02,2.3,2.3,0,0,0,1.777.77,2.517,2.517,0,0,0,1.3-.312,3.259,3.259,0,0,0,.93-.828l.883.688A3.55,3.55,0,0,1,115.578,15.156Zm-.18-7.578a1.928,1.928,0,0,0-1.469.637A3.1,3.1,0,0,0,113.2,10h4.234V9.891a2.753,2.753,0,0,0-.594-1.707A1.815,1.815,0,0,0,115.4,7.578Zm10.07,5.18a1.064,1.064,0,0,0-.441-.91,4.249,4.249,0,0,0-1.539-.559,7.277,7.277,0,0,1-1.742-.562,2.479,2.479,0,0,1-.953-.781,1.869,1.869,0,0,1-.309-1.078,2.193,2.193,0,0,1,.879-1.758,3.432,3.432,0,0,1,2.246-.719,3.532,3.532,0,0,1,2.332.742,2.357,2.357,0,0,1,.895,1.9h-1.453a1.3,1.3,0,0,0-.5-1.023,1.888,1.888,0,0,0-1.27-.43,1.976,1.976,0,0,0-1.234.344,1.082,1.082,0,0,0-.445.9.877.877,0,0,0,.414.789,5.1,5.1,0,0,0,1.5.508,7.8,7.8,0,0,1,1.754.578,2.558,2.558,0,0,1,1,.809,1.988,1.988,0,0,1,.324,1.152,2.163,2.163,0,0,1-.906,1.816,3.8,3.8,0,0,1-2.352.684,4.257,4.257,0,0,1-1.8-.359,2.922,2.922,0,0,1-1.223-1A2.42,2.42,0,0,1,120.2,12.4h1.445a1.5,1.5,0,0,0,.582,1.152,2.258,2.258,0,0,0,1.434.426,2.331,2.331,0,0,0,1.316-.332A1.02,1.02,0,0,0,125.469,12.758Zm10.8,2.4a3.693,3.693,0,0,1-2.8-1.129,4.19,4.19,0,0,1-1.078-3.02v-.266a5.073,5.073,0,0,1,.48-2.246,3.748,3.748,0,0,1,1.344-1.547,3.378,3.378,0,0,1,1.871-.559,3.166,3.166,0,0,1,2.563,1.086,4.7,4.7,0,0,1,.914,3.109v.6h-5.727a3,3,0,0,0,.73,2.02,2.3,2.3,0,0,0,1.777.77,2.517,2.517,0,0,0,1.3-.312,3.258,3.258,0,0,0,.93-.828l.883.688A3.55,3.55,0,0,1,136.266,15.156Zm-.18-7.578a1.928,1.928,0,0,0-1.469.637A3.1,3.1,0,0,0,133.883,10h4.234V9.891a2.753,2.753,0,0,0-.594-1.707A1.815,1.815,0,0,0,136.086,7.578ZM142.8,15h-1.445V3H142.8Zm10.359-7.156a4.331,4.331,0,0,0-.711-.055A1.9,1.9,0,0,0,150.523,9v6h-1.445V6.547h1.406l.023.977a2.251,2.251,0,0,1,2.016-1.133,1.477,1.477,0,0,1,.641.109Zm4.688,7.313a3.693,3.693,0,0,1-2.8-1.129,4.19,4.19,0,0,1-1.078-3.02v-.266a5.073,5.073,0,0,1,.48-2.246A3.748,3.748,0,0,1,155.8,6.949a3.378,3.378,0,0,1,1.871-.559,3.166,3.166,0,0,1,2.563,1.086,4.7,4.7,0,0,1,.914,3.109v.6h-5.727a3,3,0,0,0,.73,2.02,2.3,2.3,0,0,0,1.777.77,2.517,2.517,0,0,0,1.3-.312,3.258,3.258,0,0,0,.93-.828l.883.688A3.55,3.55,0,0,1,157.852,15.156Zm-.18-7.578a1.928,1.928,0,0,0-1.469.637A3.1,3.1,0,0,0,155.469,10H159.7V9.891a2.753,2.753,0,0,0-.594-1.707A1.815,1.815,0,0,0,157.672,7.578Zm10.07,5.18a1.064,1.064,0,0,0-.441-.91,4.249,4.249,0,0,0-1.539-.559,7.277,7.277,0,0,1-1.742-.562,2.479,2.479,0,0,1-.953-.781,1.869,1.869,0,0,1-.309-1.078,2.193,2.193,0,0,1,.879-1.758,3.432,3.432,0,0,1,2.246-.719,3.532,3.532,0,0,1,2.332.742,2.357,2.357,0,0,1,.895,1.9h-1.453a1.3,1.3,0,0,0-.5-1.023,1.888,1.888,0,0,0-1.27-.43,1.976,1.976,0,0,0-1.234.344,1.082,1.082,0,0,0-.445.9.877.877,0,0,0,.414.789,5.1,5.1,0,0,0,1.5.508,7.8,7.8,0,0,1,1.754.578,2.558,2.558,0,0,1,1,.809,1.988,1.988,0,0,1,.324,1.152,2.163,2.163,0,0,1-.906,1.816,3.8,3.8,0,0,1-2.352.684,4.257,4.257,0,0,1-1.8-.359,2.922,2.922,0,0,1-1.223-1,2.42,2.42,0,0,1-.441-1.395h1.445a1.5,1.5,0,0,0,.582,1.152,2.258,2.258,0,0,0,1.434.426,2.331,2.331,0,0,0,1.316-.332A1.02,1.02,0,0,0,167.742,12.758Zm8.547,1.406a3.07,3.07,0,0,1-2.477.992,2.628,2.628,0,0,1-2.059-.785,3.4,3.4,0,0,1-.715-2.324v-5.5h1.445v5.461q0,1.922,1.563,1.922a2.163,2.163,0,0,0,2.2-1.234V6.547H177.7V15H176.32Zm5.172.836h-1.445V3h1.445Zm4.273-10.5V6.547h1.578V7.664h-1.578v5.249a1.173,1.173,0,0,0,.211.763.888.888,0,0,0,.719.254,3.5,3.5,0,0,0,.688-.094V15a4.215,4.215,0,0,1-1.109.155,1.8,1.8,0,0,1-1.461-.586,2.517,2.517,0,0,1-.492-1.664V7.664H182.75V6.547h1.539V4.5ZM194.219,15a3.036,3.036,0,0,1-.2-.891,3.225,3.225,0,0,1-2.406,1.047,2.984,2.984,0,0,1-2.051-.707,2.287,2.287,0,0,1-.8-1.793,2.39,2.39,0,0,1,1-2.051,4.733,4.733,0,0,1,2.824-.73h1.406V9.211A1.623,1.623,0,0,0,193.539,8a1.821,1.821,0,0,0-1.336-.449,2.107,2.107,0,0,0-1.3.391,1.151,1.151,0,0,0-.523.945H188.93a2,2,0,0,1,.449-1.223,3.066,3.066,0,0,1,1.219-.934,4.1,4.1,0,0,1,1.691-.344,3.342,3.342,0,0,1,2.289.73,2.635,2.635,0,0,1,.859,2.012v3.891a4.757,4.757,0,0,0,.3,1.852V15Zm-2.4-1.1a2.54,2.54,0,0,0,1.289-.352,2.127,2.127,0,0,0,.883-.914V10.9h-1.133q-2.656,0-2.656,1.555a1.316,1.316,0,0,0,.453,1.063A1.742,1.742,0,0,0,191.82,13.9Zm5.531-3.2a4.952,4.952,0,0,1,.922-3.129,3.137,3.137,0,0,1,4.766-.168V3h1.445V15h-1.328l-.07-.906a2.943,2.943,0,0,1-2.414,1.063,2.887,2.887,0,0,1-2.395-1.2,5.008,5.008,0,0,1-.926-3.141Zm1.445.164a3.749,3.749,0,0,0,.594,2.25,1.919,1.919,0,0,0,1.641.813,2.108,2.108,0,0,0,2.008-1.234V8.813a2.125,2.125,0,0,0-1.992-1.2,1.929,1.929,0,0,0-1.656.82A4.128,4.128,0,0,0,198.8,10.867Zm7.547-.172a4.993,4.993,0,0,1,.488-2.234,3.642,3.642,0,0,1,1.359-1.531,3.7,3.7,0,0,1,1.988-.539,3.565,3.565,0,0,1,2.793,1.2,4.6,4.6,0,0,1,1.066,3.18v.1a5.036,5.036,0,0,1-.473,2.215,3.589,3.589,0,0,1-1.352,1.527,3.743,3.743,0,0,1-2.02.547,3.556,3.556,0,0,1-2.785-1.2,4.575,4.575,0,0,1-1.066-3.164Zm1.453.172a3.616,3.616,0,0,0,.652,2.258,2.211,2.211,0,0,0,3.5-.012,3.954,3.954,0,0,0,.648-2.418,3.61,3.61,0,0,0-.66-2.254,2.1,2.1,0,0,0-1.754-.863,2.075,2.075,0,0,0-1.727.852A3.925,3.925,0,0,0,207.8,10.867ZM.742,34.7a4.952,4.952,0,0,1,.922-3.129,2.915,2.915,0,0,1,2.414-1.184A2.932,2.932,0,0,1,6.43,31.406V27H7.875V39H6.547l-.07-.906a2.943,2.943,0,0,1-2.414,1.063,2.887,2.887,0,0,1-2.395-1.2,5.008,5.008,0,0,1-.926-3.141Zm1.445.164a3.749,3.749,0,0,0,.594,2.25,1.92,1.92,0,0,0,1.641.813A2.108,2.108,0,0,0,6.43,36.7V32.813a2.125,2.125,0,0,0-1.992-1.2,1.929,1.929,0,0,0-1.656.82A4.128,4.128,0,0,0,2.188,34.867Zm11.438,4.289a3.693,3.693,0,0,1-2.8-1.129,4.19,4.19,0,0,1-1.078-3.02v-.266a5.073,5.073,0,0,1,.48-2.246,3.748,3.748,0,0,1,1.344-1.547,3.378,3.378,0,0,1,1.871-.559,3.166,3.166,0,0,1,2.563,1.086,4.7,4.7,0,0,1,.914,3.109v.6H11.2a3,3,0,0,0,.73,2.02,2.3,2.3,0,0,0,1.777.77,2.517,2.517,0,0,0,1.3-.312,3.258,3.258,0,0,0,.93-.828l.883.688A3.55,3.55,0,0,1,13.625,39.156Zm-.18-7.578a1.928,1.928,0,0,0-1.469.637A3.1,3.1,0,0,0,11.242,34h4.234v-.109a2.753,2.753,0,0,0-.594-1.707A1.815,1.815,0,0,0,13.445,31.578ZM20.164,39H18.719V27h1.445Zm11.492,0a3.036,3.036,0,0,1-.2-.891,3.225,3.225,0,0,1-2.406,1.047A2.984,2.984,0,0,1,27,38.449a2.287,2.287,0,0,1-.8-1.793,2.39,2.39,0,0,1,1-2.051,4.733,4.733,0,0,1,2.824-.73H31.43v-.664A1.623,1.623,0,0,0,30.977,32a1.821,1.821,0,0,0-1.336-.449,2.108,2.108,0,0,0-1.3.391,1.151,1.151,0,0,0-.523.945H26.367a2,2,0,0,1,.449-1.223,3.066,3.066,0,0,1,1.219-.934,4.1,4.1,0,0,1,1.691-.344,3.342,3.342,0,0,1,2.289.73,2.635,2.635,0,0,1,.859,2.012v3.891a4.757,4.757,0,0,0,.3,1.852V39Zm-2.4-1.1a2.54,2.54,0,0,0,1.289-.352,2.127,2.127,0,0,0,.883-.914V34.9H30.3q-2.656,0-2.656,1.555a1.316,1.316,0,0,0,.453,1.063A1.742,1.742,0,0,0,29.258,37.9Zm7.25-7.352.047,1.063a3.08,3.08,0,0,1,2.531-1.219q2.68,0,2.7,3.023V39H40.344V33.406a1.946,1.946,0,0,0-.418-1.352,1.675,1.675,0,0,0-1.277-.437,2.086,2.086,0,0,0-1.234.375,2.546,2.546,0,0,0-.828.984V39H35.141V30.547ZM49.188,39a3.036,3.036,0,0,1-.2-.891,3.225,3.225,0,0,1-2.406,1.047,2.984,2.984,0,0,1-2.051-.707,2.287,2.287,0,0,1-.8-1.793,2.39,2.39,0,0,1,1-2.051,4.733,4.733,0,0,1,2.824-.73h1.406v-.664A1.623,1.623,0,0,0,48.508,32a1.821,1.821,0,0,0-1.336-.449,2.107,2.107,0,0,0-1.3.391,1.151,1.151,0,0,0-.523.945H43.9a2,2,0,0,1,.449-1.223,3.066,3.066,0,0,1,1.219-.934,4.1,4.1,0,0,1,1.691-.344,3.342,3.342,0,0,1,2.289.73,2.635,2.635,0,0,1,.859,2.012v3.891a4.757,4.757,0,0,0,.3,1.852V39Zm-2.4-1.1a2.54,2.54,0,0,0,1.289-.352,2.127,2.127,0,0,0,.883-.914V34.9H47.828q-2.656,0-2.656,1.555a1.316,1.316,0,0,0,.453,1.063A1.742,1.742,0,0,0,46.789,37.9ZM48.125,27h1.75l-2.094,2.3-1.164,0Zm6.117,12H52.8V27h1.445Zm3.883,0H56.68V30.547h1.445ZM56.563,28.3a.863.863,0,0,1,.215-.594.807.807,0,0,1,.637-.242.819.819,0,0,1,.641.242.854.854,0,0,1,.219.594.826.826,0,0,1-.219.586.834.834,0,0,1-.641.234.821.821,0,0,1-.637-.234A.834.834,0,0,1,56.563,28.3Zm8.8,8.453a1.064,1.064,0,0,0-.441-.91,4.249,4.249,0,0,0-1.539-.559,7.277,7.277,0,0,1-1.742-.562,2.479,2.479,0,0,1-.953-.781,1.869,1.869,0,0,1-.309-1.078,2.193,2.193,0,0,1,.879-1.758,3.432,3.432,0,0,1,2.246-.719,3.532,3.532,0,0,1,2.332.742,2.357,2.357,0,0,1,.895,1.9H65.273a1.3,1.3,0,0,0-.5-1.023,1.888,1.888,0,0,0-1.27-.43,1.976,1.976,0,0,0-1.234.344,1.082,1.082,0,0,0-.445.9.877.877,0,0,0,.414.789,5.1,5.1,0,0,0,1.5.508,7.8,7.8,0,0,1,1.754.578,2.558,2.558,0,0,1,1,.809,1.988,1.988,0,0,1,.324,1.152,2.163,2.163,0,0,1-.906,1.816,3.8,3.8,0,0,1-2.352.684,4.257,4.257,0,0,1-1.8-.359,2.922,2.922,0,0,1-1.223-1,2.42,2.42,0,0,1-.441-1.395h1.445a1.5,1.5,0,0,0,.582,1.152,2.258,2.258,0,0,0,1.434.426,2.331,2.331,0,0,0,1.316-.332A1.02,1.02,0,0,0,65.359,36.758ZM70.258,39H68.813V30.547h1.445ZM68.7,28.3a.863.863,0,0,1,.215-.594.807.807,0,0,1,.637-.242.819.819,0,0,1,.641.242.854.854,0,0,1,.219.594.826.826,0,0,1-.219.586.834.834,0,0,1-.641.234.821.821,0,0,1-.637-.234A.834.834,0,0,1,68.7,28.3Zm8.8,8.453a1.064,1.064,0,0,0-.441-.91,4.249,4.249,0,0,0-1.539-.559,7.277,7.277,0,0,1-1.742-.562,2.479,2.479,0,0,1-.953-.781,1.869,1.869,0,0,1-.309-1.078,2.193,2.193,0,0,1,.879-1.758,3.432,3.432,0,0,1,2.246-.719,3.532,3.532,0,0,1,2.332.742,2.357,2.357,0,0,1,.895,1.9H77.406a1.3,1.3,0,0,0-.5-1.023,1.888,1.888,0,0,0-1.27-.43,1.976,1.976,0,0,0-1.234.344,1.082,1.082,0,0,0-.445.9.877.877,0,0,0,.414.789,5.1,5.1,0,0,0,1.5.508,7.8,7.8,0,0,1,1.754.578,2.558,2.558,0,0,1,1,.809,1.988,1.988,0,0,1,.324,1.152,2.163,2.163,0,0,1-.906,1.816,3.8,3.8,0,0,1-2.352.684,4.257,4.257,0,0,1-1.8-.359,2.922,2.922,0,0,1-1.223-1,2.42,2.42,0,0,1-.441-1.395h1.445a1.5,1.5,0,0,0,.582,1.152,2.258,2.258,0,0,0,1.434.426A2.331,2.331,0,0,0,77,37.645,1.02,1.02,0,0,0,77.492,36.758ZM86.352,39H84.906V30.547h1.445ZM84.789,28.3A.863.863,0,0,1,85,27.711a.807.807,0,0,1,.637-.242.819.819,0,0,1,.641.242.854.854,0,0,1,.219.594.826.826,0,0,1-.219.586.834.834,0,0,1-.641.234A.821.821,0,0,1,85,28.891.834.834,0,0,1,84.789,28.3Zm5.242,2.242.047,1.063a3.08,3.08,0,0,1,2.531-1.219q2.68,0,2.7,3.023V39H93.867V33.406a1.946,1.946,0,0,0-.418-1.352,1.675,1.675,0,0,0-1.277-.437,2.086,2.086,0,0,0-1.234.375,2.546,2.546,0,0,0-.828.984V39H88.664V30.547ZM99.453,28.5v2.047h1.578v1.117H99.453v5.249a1.173,1.173,0,0,0,.211.763.888.888,0,0,0,.719.254,3.5,3.5,0,0,0,.688-.094V39a4.215,4.215,0,0,1-1.109.155A1.8,1.8,0,0,1,98.5,38.57a2.517,2.517,0,0,1-.492-1.664V31.664H96.469V30.547h1.539V28.5Zm6.773,10.656a3.693,3.693,0,0,1-2.8-1.129,4.19,4.19,0,0,1-1.078-3.02v-.266a5.073,5.073,0,0,1,.48-2.246,3.748,3.748,0,0,1,1.344-1.547,3.378,3.378,0,0,1,1.871-.559,3.166,3.166,0,0,1,2.563,1.086,4.7,4.7,0,0,1,.914,3.109v.6H103.8a3,3,0,0,0,.73,2.02,2.3,2.3,0,0,0,1.777.77,2.517,2.517,0,0,0,1.3-.312,3.259,3.259,0,0,0,.93-.828l.883.688A3.55,3.55,0,0,1,106.227,39.156Zm-.18-7.578a1.928,1.928,0,0,0-1.469.637A3.1,3.1,0,0,0,103.844,34h4.234v-.109a2.753,2.753,0,0,0-.594-1.707A1.815,1.815,0,0,0,106.047,31.578ZM112.766,39H111.32V27h1.445Zm3.883,0H115.2V30.547h1.445Zm-1.562-10.7a.863.863,0,0,1,.215-.594.807.807,0,0,1,.637-.242.819.819,0,0,1,.641.242.854.854,0,0,1,.219.594.826.826,0,0,1-.219.586.834.834,0,0,1-.641.234.821.821,0,0,1-.637-.234A.834.834,0,0,1,115.086,28.3Zm3.531,6.4a4.968,4.968,0,0,1,.914-3.145,3.151,3.151,0,0,1,4.836-.074l.07-.937h1.32V38.8a3.439,3.439,0,0,1-.973,2.586,3.589,3.589,0,0,1-2.613.945,4.348,4.348,0,0,1-1.789-.391,3.08,3.08,0,0,1-1.336-1.07L119.8,40a2.826,2.826,0,0,0,2.273,1.148,2.214,2.214,0,0,0,1.645-.594,2.269,2.269,0,0,0,.59-1.672v-.727a2.971,2.971,0,0,1-2.367,1,2.887,2.887,0,0,1-2.4-1.2A5.224,5.224,0,0,1,118.617,34.7Zm1.453.164a3.79,3.79,0,0,0,.586,2.246,1.9,1.9,0,0,0,1.641.816,2.117,2.117,0,0,0,2.008-1.242V32.828a2.142,2.142,0,0,0-1.992-1.211,1.921,1.921,0,0,0-1.648.82A4.128,4.128,0,0,0,120.07,34.867Zm11.375,4.289a3.693,3.693,0,0,1-2.8-1.129,4.19,4.19,0,0,1-1.078-3.02v-.266a5.073,5.073,0,0,1,.48-2.246,3.748,3.748,0,0,1,1.344-1.547,3.378,3.378,0,0,1,1.871-.559,3.166,3.166,0,0,1,2.563,1.086,4.7,4.7,0,0,1,.914,3.109v.6h-5.727a3,3,0,0,0,.73,2.02,2.3,2.3,0,0,0,1.777.77,2.517,2.517,0,0,0,1.3-.312,3.258,3.258,0,0,0,.93-.828l.883.688A3.55,3.55,0,0,1,131.445,39.156Zm-.18-7.578a1.928,1.928,0,0,0-1.469.637A3.1,3.1,0,0,0,129.063,34H133.3v-.109a2.753,2.753,0,0,0-.594-1.707A1.815,1.815,0,0,0,131.266,31.578Zm6.516-1.031.047,1.063a3.08,3.08,0,0,1,2.531-1.219q2.68,0,2.7,3.023V39h-1.445V33.406a1.946,1.946,0,0,0-.418-1.352,1.675,1.675,0,0,0-1.277-.437,2.086,2.086,0,0,0-1.234.375,2.546,2.546,0,0,0-.828.984V39h-1.445V30.547ZM147.2,28.5v2.047h1.578v1.117H147.2v5.249a1.173,1.173,0,0,0,.211.763.888.888,0,0,0,.719.254,3.5,3.5,0,0,0,.688-.094V39a4.215,4.215,0,0,1-1.109.155,1.8,1.8,0,0,1-1.461-.586,2.517,2.517,0,0,1-.492-1.664V31.664h-1.539V30.547h1.539V28.5Zm6.773,10.656a3.693,3.693,0,0,1-2.8-1.129,4.19,4.19,0,0,1-1.078-3.02v-.266a5.073,5.073,0,0,1,.48-2.246,3.748,3.748,0,0,1,1.344-1.547,3.378,3.378,0,0,1,1.871-.559,3.166,3.166,0,0,1,2.563,1.086,4.7,4.7,0,0,1,.914,3.109v.6h-5.727a3,3,0,0,0,.73,2.02,2.3,2.3,0,0,0,1.777.77,2.517,2.517,0,0,0,1.3-.312,3.258,3.258,0,0,0,.93-.828l.883.688A3.55,3.55,0,0,1,153.977,39.156Zm-.18-7.578a1.928,1.928,0,0,0-1.469.637A3.1,3.1,0,0,0,151.594,34h4.234v-.109a2.753,2.753,0,0,0-.594-1.707A1.815,1.815,0,0,0,153.8,31.578Zm8.758,3.125a4.952,4.952,0,0,1,.922-3.129,3.137,3.137,0,0,1,4.766-.168V27h1.445V39h-1.328l-.07-.906a2.943,2.943,0,0,1-2.414,1.063,2.887,2.887,0,0,1-2.395-1.2,5.008,5.008,0,0,1-.926-3.141Zm1.445.164a3.749,3.749,0,0,0,.594,2.25,1.919,1.919,0,0,0,1.641.813,2.108,2.108,0,0,0,2.008-1.234V32.813a2.125,2.125,0,0,0-1.992-1.2,1.929,1.929,0,0,0-1.656.82A4.128,4.128,0,0,0,164,34.867Zm11.438,4.289a3.693,3.693,0,0,1-2.8-1.129,4.19,4.19,0,0,1-1.078-3.02v-.266a5.073,5.073,0,0,1,.48-2.246,3.748,3.748,0,0,1,1.344-1.547,3.378,3.378,0,0,1,1.871-.559,3.166,3.166,0,0,1,2.563,1.086,4.7,4.7,0,0,1,.914,3.109v.6h-5.727a3,3,0,0,0,.73,2.02,2.3,2.3,0,0,0,1.777.77,2.517,2.517,0,0,0,1.3-.312,3.258,3.258,0,0,0,.93-.828l.883.688A3.55,3.55,0,0,1,175.438,39.156Zm-.18-7.578a1.928,1.928,0,0,0-1.469.637A3.1,3.1,0,0,0,173.055,34h4.234v-.109a2.753,2.753,0,0,0-.594-1.707A1.815,1.815,0,0,0,175.258,31.578ZM185.938,39h-1.445V27h1.445Zm1.93-4.3a4.993,4.993,0,0,1,.488-2.234,3.642,3.642,0,0,1,1.359-1.531,3.7,3.7,0,0,1,1.988-.539,3.565,3.565,0,0,1,2.793,1.2,4.6,4.6,0,0,1,1.066,3.18v.1a5.036,5.036,0,0,1-.473,2.215,3.589,3.589,0,0,1-1.352,1.527,3.743,3.743,0,0,1-2.02.547,3.556,3.556,0,0,1-2.785-1.2,4.575,4.575,0,0,1-1.066-3.164Zm1.453.172a3.616,3.616,0,0,0,.652,2.258,2.211,2.211,0,0,0,3.5-.012,3.954,3.954,0,0,0,.648-2.418,3.61,3.61,0,0,0-.66-2.254,2.1,2.1,0,0,0-1.754-.863,2.075,2.075,0,0,0-1.727.852A3.925,3.925,0,0,0,189.32,34.867ZM202.3,36.758a1.064,1.064,0,0,0-.441-.91,4.249,4.249,0,0,0-1.539-.559,7.277,7.277,0,0,1-1.742-.562,2.479,2.479,0,0,1-.953-.781,1.869,1.869,0,0,1-.309-1.078,2.193,2.193,0,0,1,.879-1.758,3.432,3.432,0,0,1,2.246-.719,3.532,3.532,0,0,1,2.332.742,2.357,2.357,0,0,1,.895,1.9h-1.453a1.3,1.3,0,0,0-.5-1.023,1.888,1.888,0,0,0-1.27-.43,1.976,1.976,0,0,0-1.234.344,1.082,1.082,0,0,0-.445.9.877.877,0,0,0,.414.789,5.1,5.1,0,0,0,1.5.508,7.8,7.8,0,0,1,1.754.578,2.558,2.558,0,0,1,1,.809,1.988,1.988,0,0,1,.324,1.152,2.163,2.163,0,0,1-.906,1.816,3.8,3.8,0,0,1-2.352.684,4.257,4.257,0,0,1-1.8-.359,2.922,2.922,0,0,1-1.223-1,2.42,2.42,0,0,1-.441-1.395h1.445a1.5,1.5,0,0,0,.582,1.152,2.258,2.258,0,0,0,1.434.426,2.331,2.331,0,0,0,1.316-.332A1.02,1.02,0,0,0,202.3,36.758ZM.742,58.7a4.952,4.952,0,0,1,.922-3.129,2.915,2.915,0,0,1,2.414-1.184A2.932,2.932,0,0,1,6.43,55.406V51H7.875V63H6.547l-.07-.906a2.943,2.943,0,0,1-2.414,1.063,2.887,2.887,0,0,1-2.395-1.2,5.008,5.008,0,0,1-.926-3.141Zm1.445.164a3.749,3.749,0,0,0,.594,2.25,1.92,1.92,0,0,0,1.641.813A2.108,2.108,0,0,0,6.43,60.7V56.813a2.125,2.125,0,0,0-1.992-1.2,1.929,1.929,0,0,0-1.656.82A4.128,4.128,0,0,0,2.188,58.867ZM15.336,63a3.036,3.036,0,0,1-.2-.891,3.225,3.225,0,0,1-2.406,1.047,2.984,2.984,0,0,1-2.051-.707,2.287,2.287,0,0,1-.8-1.793,2.39,2.39,0,0,1,1-2.051,4.733,4.733,0,0,1,2.824-.73h1.406v-.664A1.623,1.623,0,0,0,14.656,56a1.821,1.821,0,0,0-1.336-.449,2.107,2.107,0,0,0-1.3.391,1.151,1.151,0,0,0-.523.945H10.047a2,2,0,0,1,.449-1.223,3.066,3.066,0,0,1,1.219-.934,4.1,4.1,0,0,1,1.691-.344,3.342,3.342,0,0,1,2.289.73,2.635,2.635,0,0,1,.859,2.012v3.891a4.757,4.757,0,0,0,.3,1.852V63Zm-2.4-1.1a2.54,2.54,0,0,0,1.289-.352,2.127,2.127,0,0,0,.883-.914V58.9H13.977q-2.656,0-2.656,1.555a1.316,1.316,0,0,0,.453,1.063A1.742,1.742,0,0,0,12.938,61.9Zm7.844-9.4v2.047h1.578v1.117H20.781v5.249a1.173,1.173,0,0,0,.211.763.888.888,0,0,0,.719.254,3.5,3.5,0,0,0,.688-.094V63a4.215,4.215,0,0,1-1.109.155,1.8,1.8,0,0,1-1.461-.586,2.517,2.517,0,0,1-.492-1.664V55.664H17.8V54.547h1.539V52.5Zm2.727,6.2A4.993,4.993,0,0,1,24,56.461a3.643,3.643,0,0,1,1.359-1.531,3.7,3.7,0,0,1,1.988-.539,3.565,3.565,0,0,1,2.793,1.2,4.6,4.6,0,0,1,1.066,3.18v.1a5.036,5.036,0,0,1-.473,2.215,3.589,3.589,0,0,1-1.352,1.527,3.743,3.743,0,0,1-2.02.547,3.556,3.556,0,0,1-2.785-1.2A4.575,4.575,0,0,1,23.508,58.8Zm1.453.172a3.616,3.616,0,0,0,.652,2.258,2.211,2.211,0,0,0,3.5-.012,3.955,3.955,0,0,0,.648-2.418,3.61,3.61,0,0,0-.66-2.254,2.1,2.1,0,0,0-1.754-.863,2.075,2.075,0,0,0-1.727.852A3.925,3.925,0,0,0,24.961,58.867Zm12.977,1.891a1.064,1.064,0,0,0-.441-.91,4.249,4.249,0,0,0-1.539-.559,7.277,7.277,0,0,1-1.742-.562,2.479,2.479,0,0,1-.953-.781,1.869,1.869,0,0,1-.309-1.078,2.193,2.193,0,0,1,.879-1.758,3.432,3.432,0,0,1,2.246-.719,3.532,3.532,0,0,1,2.332.742,2.357,2.357,0,0,1,.895,1.9H37.852a1.3,1.3,0,0,0-.5-1.023,1.888,1.888,0,0,0-1.27-.43,1.976,1.976,0,0,0-1.234.344,1.082,1.082,0,0,0-.445.9.877.877,0,0,0,.414.789,5.1,5.1,0,0,0,1.5.508,7.8,7.8,0,0,1,1.754.578,2.558,2.558,0,0,1,1,.809,1.988,1.988,0,0,1,.324,1.152,2.163,2.163,0,0,1-.906,1.816,3.8,3.8,0,0,1-2.352.684,4.257,4.257,0,0,1-1.8-.359,2.922,2.922,0,0,1-1.223-1,2.42,2.42,0,0,1-.441-1.395h1.445a1.5,1.5,0,0,0,.582,1.152,2.258,2.258,0,0,0,1.434.426,2.331,2.331,0,0,0,1.316-.332A1.02,1.02,0,0,0,37.938,60.758Zm10.68,1.219a2.082,2.082,0,0,0,1.352-.469,1.649,1.649,0,0,0,.641-1.172h1.367a2.621,2.621,0,0,1-.5,1.383,3.293,3.293,0,0,1-1.23,1.047,3.55,3.55,0,0,1-1.629.391A3.482,3.482,0,0,1,45.871,62a4.59,4.59,0,0,1-1.02-3.152v-.242a5.089,5.089,0,0,1,.453-2.2,3.451,3.451,0,0,1,1.3-1.492,3.7,3.7,0,0,1,2-.531,3.39,3.39,0,0,1,2.363.852,3.043,3.043,0,0,1,1,2.211H50.609a1.992,1.992,0,0,0-.621-1.348,1.932,1.932,0,0,0-1.379-.527,2.023,2.023,0,0,0-1.707.793,3.724,3.724,0,0,0-.605,2.293v.273a3.65,3.65,0,0,0,.6,2.25A2.033,2.033,0,0,0,48.617,61.977ZM58.82,63a3.036,3.036,0,0,1-.2-.891,3.225,3.225,0,0,1-2.406,1.047,2.984,2.984,0,0,1-2.051-.707,2.287,2.287,0,0,1-.8-1.793,2.39,2.39,0,0,1,1-2.051,4.733,4.733,0,0,1,2.824-.73h1.406v-.664A1.623,1.623,0,0,0,58.141,56a1.821,1.821,0,0,0-1.336-.449,2.107,2.107,0,0,0-1.3.391,1.151,1.151,0,0,0-.523.945H53.531a2,2,0,0,1,.449-1.223,3.066,3.066,0,0,1,1.219-.934,4.1,4.1,0,0,1,1.691-.344,3.342,3.342,0,0,1,2.289.73,2.635,2.635,0,0,1,.859,2.012v3.891a4.757,4.757,0,0,0,.3,1.852V63Zm-2.4-1.1a2.54,2.54,0,0,0,1.289-.352,2.127,2.127,0,0,0,.883-.914V58.9H57.461q-2.656,0-2.656,1.555a1.316,1.316,0,0,0,.453,1.063A1.742,1.742,0,0,0,56.422,61.9Zm13.023-3.031a5.062,5.062,0,0,1-.883,3.109,2.829,2.829,0,0,1-2.391,1.18,3.1,3.1,0,0,1-2.422-.977v4.07H62.3v-11.7h1.32l.07.938a2.977,2.977,0,0,1,2.453-1.094,2.882,2.882,0,0,1,2.41,1.148,5.117,5.117,0,0,1,.887,3.2ZM68,58.7a3.735,3.735,0,0,0-.609-2.258,1.963,1.963,0,0,0-1.672-.828,2.125,2.125,0,0,0-1.969,1.164V60.82a2.129,2.129,0,0,0,1.984,1.156,1.954,1.954,0,0,0,1.652-.824A4.077,4.077,0,0,0,68,58.7Zm5.242-6.2v2.047H74.82v1.117H73.242v5.249a1.173,1.173,0,0,0,.211.763.888.888,0,0,0,.719.254,3.5,3.5,0,0,0,.688-.094V63a4.215,4.215,0,0,1-1.109.155,1.8,1.8,0,0,1-1.461-.586,2.517,2.517,0,0,1-.492-1.664V55.664H70.258V54.547H71.8V52.5Zm8.484,9.664a3.07,3.07,0,0,1-2.477.992,2.628,2.628,0,0,1-2.059-.785,3.4,3.4,0,0,1-.715-2.324v-5.5h1.445v5.461q0,1.922,1.563,1.922a2.163,2.163,0,0,0,2.2-1.234V54.547h1.445V63H81.758Zm7.688-6.32a4.331,4.331,0,0,0-.711-.055A1.9,1.9,0,0,0,86.773,57v6H85.328V54.547h1.406l.023.977a2.251,2.251,0,0,1,2.016-1.133,1.477,1.477,0,0,1,.641.109ZM95.648,63a3.036,3.036,0,0,1-.2-.891,3.225,3.225,0,0,1-2.406,1.047,2.984,2.984,0,0,1-2.051-.707,2.288,2.288,0,0,1-.8-1.793,2.39,2.39,0,0,1,1-2.051,4.733,4.733,0,0,1,2.824-.73h1.406v-.664A1.623,1.623,0,0,0,94.969,56a1.821,1.821,0,0,0-1.336-.449,2.107,2.107,0,0,0-1.3.391,1.151,1.151,0,0,0-.523.945H90.359a2,2,0,0,1,.449-1.223,3.066,3.066,0,0,1,1.219-.934,4.1,4.1,0,0,1,1.691-.344,3.342,3.342,0,0,1,2.289.73,2.635,2.635,0,0,1,.859,2.012v3.891a4.757,4.757,0,0,0,.3,1.852V63Zm-2.4-1.1a2.54,2.54,0,0,0,1.289-.352,2.127,2.127,0,0,0,.883-.914V58.9H94.289q-2.656,0-2.656,1.555a1.316,1.316,0,0,0,.453,1.063A1.742,1.742,0,0,0,93.25,61.9Zm5.531-3.2a4.952,4.952,0,0,1,.922-3.129,3.137,3.137,0,0,1,4.766-.168V51h1.445V63h-1.328l-.07-.906a2.943,2.943,0,0,1-2.414,1.063,2.887,2.887,0,0,1-2.395-1.2,5.008,5.008,0,0,1-.926-3.141Zm1.445.164a3.749,3.749,0,0,0,.594,2.25,1.92,1.92,0,0,0,1.641.813,2.108,2.108,0,0,0,2.008-1.234V56.813a2.125,2.125,0,0,0-1.992-1.2,1.929,1.929,0,0,0-1.656.82A4.128,4.128,0,0,0,100.227,58.867Zm7.547-.172a4.993,4.993,0,0,1,.488-2.234,3.643,3.643,0,0,1,1.359-1.531,3.7,3.7,0,0,1,1.988-.539,3.565,3.565,0,0,1,2.793,1.2,4.6,4.6,0,0,1,1.066,3.18v.1A5.036,5.036,0,0,1,115,61.082a3.589,3.589,0,0,1-1.352,1.527,3.743,3.743,0,0,1-2.02.547,3.556,3.556,0,0,1-2.785-1.2,4.575,4.575,0,0,1-1.066-3.164Zm1.453.172a3.616,3.616,0,0,0,.652,2.258,2.211,2.211,0,0,0,3.5-.012,3.955,3.955,0,0,0,.648-2.418,3.61,3.61,0,0,0-.66-2.254,2.1,2.1,0,0,0-1.754-.863,2.075,2.075,0,0,0-1.727.852A3.925,3.925,0,0,0,109.227,58.867ZM122.2,60.758a1.064,1.064,0,0,0-.441-.91,4.249,4.249,0,0,0-1.539-.559,7.277,7.277,0,0,1-1.742-.562,2.479,2.479,0,0,1-.953-.781,1.869,1.869,0,0,1-.309-1.078,2.193,2.193,0,0,1,.879-1.758,3.432,3.432,0,0,1,2.246-.719,3.532,3.532,0,0,1,2.332.742,2.357,2.357,0,0,1,.895,1.9h-1.453a1.3,1.3,0,0,0-.5-1.023,1.888,1.888,0,0,0-1.27-.43,1.976,1.976,0,0,0-1.234.344,1.082,1.082,0,0,0-.445.9.877.877,0,0,0,.414.789,5.1,5.1,0,0,0,1.5.508,7.8,7.8,0,0,1,1.754.578,2.558,2.558,0,0,1,1,.809,1.988,1.988,0,0,1,.324,1.152,2.163,2.163,0,0,1-.906,1.816,3.8,3.8,0,0,1-2.352.684,4.257,4.257,0,0,1-1.8-.359,2.922,2.922,0,0,1-1.223-1,2.42,2.42,0,0,1-.441-1.395h1.445a1.5,1.5,0,0,0,.582,1.152,2.258,2.258,0,0,0,1.434.426,2.331,2.331,0,0,0,1.316-.332A1.02,1.02,0,0,0,122.2,60.758Zm10.055.125,1.969-6.336h1.547l-3.4,9.758q-.789,2.109-2.508,2.109l-.273-.023-.539-.1V65.117l.391.031a1.923,1.923,0,0,0,1.145-.3,2.148,2.148,0,0,0,.676-1.086l.32-.859-3.016-8.359h1.578Zm15.906-2.016a5.062,5.062,0,0,1-.883,3.109,2.829,2.829,0,0,1-2.391,1.18,3.1,3.1,0,0,1-2.422-.977v4.07h-1.445v-11.7h1.32l.07.938a2.977,2.977,0,0,1,2.453-1.094,2.882,2.882,0,0,1,2.41,1.148,5.117,5.117,0,0,1,.887,3.2Zm-1.445-.164a3.735,3.735,0,0,0-.609-2.258,1.963,1.963,0,0,0-1.672-.828,2.125,2.125,0,0,0-1.969,1.164V60.82a2.129,2.129,0,0,0,1.984,1.156,1.954,1.954,0,0,0,1.652-.824A4.077,4.077,0,0,0,146.719,58.7Zm7.367-2.859a4.331,4.331,0,0,0-.711-.055A1.9,1.9,0,0,0,151.445,57v6H150V54.547h1.406l.023.977a2.251,2.251,0,0,1,2.016-1.133,1.477,1.477,0,0,1,.641.109Zm.789,2.852a4.993,4.993,0,0,1,.488-2.234,3.642,3.642,0,0,1,1.359-1.531,3.7,3.7,0,0,1,1.988-.539,3.565,3.565,0,0,1,2.793,1.2,4.6,4.6,0,0,1,1.066,3.18v.1a5.036,5.036,0,0,1-.473,2.215,3.589,3.589,0,0,1-1.352,1.527,3.743,3.743,0,0,1-2.02.547,3.556,3.556,0,0,1-2.785-1.2,4.575,4.575,0,0,1-1.066-3.164Zm1.453.172a3.616,3.616,0,0,0,.652,2.258,2.211,2.211,0,0,0,3.5-.012,3.954,3.954,0,0,0,.648-2.418,3.61,3.61,0,0,0-.66-2.254,2.1,2.1,0,0,0-1.754-.863,2.075,2.075,0,0,0-1.727.852A3.925,3.925,0,0,0,156.328,58.867Zm11.445,3.109a2.082,2.082,0,0,0,1.352-.469,1.649,1.649,0,0,0,.641-1.172h1.367a2.621,2.621,0,0,1-.5,1.383,3.293,3.293,0,0,1-1.23,1.047,3.55,3.55,0,0,1-1.629.391A3.482,3.482,0,0,1,165.027,62a4.59,4.59,0,0,1-1.02-3.152v-.242a5.089,5.089,0,0,1,.453-2.2,3.451,3.451,0,0,1,1.3-1.492,3.7,3.7,0,0,1,2-.531,3.39,3.39,0,0,1,2.363.852,3.043,3.043,0,0,1,1,2.211h-1.367a1.992,1.992,0,0,0-.621-1.348,1.932,1.932,0,0,0-1.379-.527,2.023,2.023,0,0,0-1.707.793,3.724,3.724,0,0,0-.605,2.293v.273a3.65,3.65,0,0,0,.6,2.25A2.033,2.033,0,0,0,167.773,61.977Zm8.492,1.18a3.693,3.693,0,0,1-2.8-1.129,4.19,4.19,0,0,1-1.078-3.02v-.266a5.073,5.073,0,0,1,.48-2.246,3.748,3.748,0,0,1,1.344-1.547,3.378,3.378,0,0,1,1.871-.559,3.166,3.166,0,0,1,2.563,1.086,4.7,4.7,0,0,1,.914,3.109v.6h-5.727a3,3,0,0,0,.73,2.02,2.3,2.3,0,0,0,1.777.77,2.517,2.517,0,0,0,1.3-.312,3.258,3.258,0,0,0,.93-.828l.883.688A3.55,3.55,0,0,1,176.266,63.156Zm-.18-7.578a1.928,1.928,0,0,0-1.469.637A3.1,3.1,0,0,0,173.883,58h4.234v-.109a2.753,2.753,0,0,0-.594-1.707A1.815,1.815,0,0,0,176.086,55.578Zm10.07,5.18a1.064,1.064,0,0,0-.441-.91,4.249,4.249,0,0,0-1.539-.559,7.277,7.277,0,0,1-1.742-.562,2.479,2.479,0,0,1-.953-.781,1.869,1.869,0,0,1-.309-1.078,2.193,2.193,0,0,1,.879-1.758,3.432,3.432,0,0,1,2.246-.719,3.532,3.532,0,0,1,2.332.742,2.357,2.357,0,0,1,.895,1.9H186.07a1.3,1.3,0,0,0-.5-1.023,1.888,1.888,0,0,0-1.27-.43,1.976,1.976,0,0,0-1.234.344,1.082,1.082,0,0,0-.445.9.877.877,0,0,0,.414.789,5.1,5.1,0,0,0,1.5.508,7.8,7.8,0,0,1,1.754.578,2.558,2.558,0,0,1,1,.809,1.988,1.988,0,0,1,.324,1.152,2.163,2.163,0,0,1-.906,1.816,3.8,3.8,0,0,1-2.352.684,4.257,4.257,0,0,1-1.8-.359,2.922,2.922,0,0,1-1.223-1,2.42,2.42,0,0,1-.441-1.395h1.445a1.5,1.5,0,0,0,.582,1.152,2.258,2.258,0,0,0,1.434.426,2.331,2.331,0,0,0,1.316-.332A1.02,1.02,0,0,0,186.156,60.758ZM194.7,63a3.036,3.036,0,0,1-.2-.891,3.225,3.225,0,0,1-2.406,1.047,2.984,2.984,0,0,1-2.051-.707,2.287,2.287,0,0,1-.8-1.793,2.39,2.39,0,0,1,1-2.051,4.733,4.733,0,0,1,2.824-.73h1.406v-.664A1.623,1.623,0,0,0,194.023,56a1.821,1.821,0,0,0-1.336-.449,2.107,2.107,0,0,0-1.3.391,1.151,1.151,0,0,0-.523.945h-1.453a2,2,0,0,1,.449-1.223,3.066,3.066,0,0,1,1.219-.934,4.1,4.1,0,0,1,1.691-.344,3.342,3.342,0,0,1,2.289.73,2.635,2.635,0,0,1,.859,2.012v3.891a4.757,4.757,0,0,0,.3,1.852V63Zm-2.4-1.1a2.54,2.54,0,0,0,1.289-.352,2.127,2.127,0,0,0,.883-.914V58.9h-1.133q-2.656,0-2.656,1.555a1.316,1.316,0,0,0,.453,1.063A1.742,1.742,0,0,0,192.3,61.9Zm5.531-3.2a4.952,4.952,0,0,1,.922-3.129,3.137,3.137,0,0,1,4.766-.168V51h1.445V63h-1.328l-.07-.906a2.943,2.943,0,0,1-2.414,1.063,2.887,2.887,0,0,1-2.395-1.2,5.008,5.008,0,0,1-.926-3.141Zm1.445.164a3.749,3.749,0,0,0,.594,2.25,1.919,1.919,0,0,0,1.641.813,2.108,2.108,0,0,0,2.008-1.234V56.813a2.125,2.125,0,0,0-1.992-1.2,1.929,1.929,0,0,0-1.656.82A4.128,4.128,0,0,0,199.281,58.867Zm7.547-.172a4.993,4.993,0,0,1,.488-2.234,3.642,3.642,0,0,1,1.359-1.531,3.7,3.7,0,0,1,1.988-.539,3.565,3.565,0,0,1,2.793,1.2,4.6,4.6,0,0,1,1.066,3.18v.1a5.036,5.036,0,0,1-.473,2.215,3.589,3.589,0,0,1-1.352,1.527,3.743,3.743,0,0,1-2.02.547,3.556,3.556,0,0,1-2.785-1.2,4.575,4.575,0,0,1-1.066-3.164Zm1.453.172a3.616,3.616,0,0,0,.652,2.258,2.211,2.211,0,0,0,3.5-.012,3.954,3.954,0,0,0,.648-2.418,3.61,3.61,0,0,0-.66-2.254,2.1,2.1,0,0,0-1.754-.863,2.075,2.075,0,0,0-1.727.852A3.925,3.925,0,0,0,208.281,58.867Zm12.977,1.891a1.064,1.064,0,0,0-.441-.91,4.249,4.249,0,0,0-1.539-.559,7.277,7.277,0,0,1-1.742-.562,2.479,2.479,0,0,1-.953-.781,1.869,1.869,0,0,1-.309-1.078,2.193,2.193,0,0,1,.879-1.758,3.432,3.432,0,0,1,2.246-.719,3.532,3.532,0,0,1,2.332.742,2.357,2.357,0,0,1,.895,1.9h-1.453a1.3,1.3,0,0,0-.5-1.023,1.888,1.888,0,0,0-1.27-.43,1.976,1.976,0,0,0-1.234.344,1.082,1.082,0,0,0-.445.9.877.877,0,0,0,.414.789,5.1,5.1,0,0,0,1.5.508,7.8,7.8,0,0,1,1.754.578,2.558,2.558,0,0,1,1,.809,1.988,1.988,0,0,1,.324,1.152,2.163,2.163,0,0,1-.906,1.816,3.8,3.8,0,0,1-2.352.684,4.257,4.257,0,0,1-1.8-.359,2.922,2.922,0,0,1-1.223-1,2.42,2.42,0,0,1-.441-1.395h1.445a1.5,1.5,0,0,0,.582,1.152,2.258,2.258,0,0,0,1.434.426,2.331,2.331,0,0,0,1.316-.332A1.02,1.02,0,0,0,221.258,60.758ZM4.6,87.156a3.693,3.693,0,0,1-2.8-1.129,4.19,4.19,0,0,1-1.078-3.02v-.266a5.073,5.073,0,0,1,.48-2.246,3.748,3.748,0,0,1,1.344-1.547,3.378,3.378,0,0,1,1.871-.559,3.166,3.166,0,0,1,2.563,1.086A4.7,4.7,0,0,1,7.9,82.586v.6H2.172a3,3,0,0,0,.73,2.02,2.3,2.3,0,0,0,1.777.77,2.517,2.517,0,0,0,1.3-.312,3.259,3.259,0,0,0,.93-.828l.883.688A3.55,3.55,0,0,1,4.6,87.156Zm-.18-7.578a1.928,1.928,0,0,0-1.469.637A3.1,3.1,0,0,0,2.219,82H6.453v-.109a2.753,2.753,0,0,0-.594-1.707A1.815,1.815,0,0,0,4.422,79.578Zm6.516-1.031.047,1.063a3.08,3.08,0,0,1,2.531-1.219q2.68,0,2.7,3.023V87H14.773V81.406a1.946,1.946,0,0,0-.418-1.352,1.675,1.675,0,0,0-1.277-.437,2.086,2.086,0,0,0-1.234.375,2.546,2.546,0,0,0-.828.984V87H9.57V78.547Zm16.641,7.617a3.07,3.07,0,0,1-2.477.992,2.628,2.628,0,0,1-2.059-.785,3.4,3.4,0,0,1-.715-2.324v-5.5h1.445v5.461q0,1.922,1.563,1.922a2.163,2.163,0,0,0,2.2-1.234V78.547h1.445V87H27.609Zm4.969-7.617.047,1.063a3.08,3.08,0,0,1,2.531-1.219q2.68,0,2.7,3.023V87H36.383V81.406a1.946,1.946,0,0,0-.418-1.352,1.675,1.675,0,0,0-1.277-.437,2.086,2.086,0,0,0-1.234.375,2.546,2.546,0,0,0-.828.984V87H31.18V78.547Zm12.781,0,.039.938a3.122,3.122,0,0,1,2.508-1.094,2.417,2.417,0,0,1,2.414,1.359,3.2,3.2,0,0,1,1.1-.984,3.242,3.242,0,0,1,1.6-.375q2.781,0,2.828,2.945V87H54.367V81.422a1.941,1.941,0,0,0-.414-1.355,1.823,1.823,0,0,0-1.391-.449,1.916,1.916,0,0,0-1.336.48,1.949,1.949,0,0,0-.617,1.293V87H49.156V81.461a1.613,1.613,0,0,0-1.8-1.844,1.934,1.934,0,0,0-1.945,1.211V87H43.961V78.547ZM57.609,82.7a4.993,4.993,0,0,1,.488-2.234,3.642,3.642,0,0,1,1.359-1.531,3.7,3.7,0,0,1,1.988-.539,3.565,3.565,0,0,1,2.793,1.2,4.6,4.6,0,0,1,1.066,3.18v.1a5.036,5.036,0,0,1-.473,2.215,3.589,3.589,0,0,1-1.352,1.527,3.743,3.743,0,0,1-2.02.547,3.556,3.556,0,0,1-2.785-1.2A4.575,4.575,0,0,1,57.609,82.8Zm1.453.172a3.616,3.616,0,0,0,.652,2.258,2.211,2.211,0,0,0,3.5-.012,3.955,3.955,0,0,0,.648-2.418,3.61,3.61,0,0,0-.66-2.254,2.1,2.1,0,0,0-1.754-.863,2.075,2.075,0,0,0-1.727.852A3.925,3.925,0,0,0,59.063,82.867Zm9.414-4.32.039.938a3.122,3.122,0,0,1,2.508-1.094,2.417,2.417,0,0,1,2.414,1.359,3.2,3.2,0,0,1,1.1-.984,3.242,3.242,0,0,1,1.6-.375q2.781,0,2.828,2.945V87H77.516V81.422a1.941,1.941,0,0,0-.414-1.355,1.823,1.823,0,0,0-1.391-.449,1.916,1.916,0,0,0-1.336.48,1.949,1.949,0,0,0-.617,1.293V87H72.3V81.461a1.613,1.613,0,0,0-1.8-1.844,1.934,1.934,0,0,0-1.945,1.211V87H67.109V78.547Zm16.172,8.609a3.693,3.693,0,0,1-2.8-1.129,4.19,4.19,0,0,1-1.078-3.02v-.266a5.073,5.073,0,0,1,.48-2.246A3.748,3.748,0,0,1,82.6,78.949a3.378,3.378,0,0,1,1.871-.559,3.166,3.166,0,0,1,2.563,1.086,4.7,4.7,0,0,1,.914,3.109v.6H82.219a3,3,0,0,0,.73,2.02,2.3,2.3,0,0,0,1.777.77,2.517,2.517,0,0,0,1.3-.312,3.259,3.259,0,0,0,.93-.828l.883.688A3.55,3.55,0,0,1,84.648,87.156Zm-.18-7.578A1.928,1.928,0,0,0,83,80.215,3.1,3.1,0,0,0,82.266,82H86.5v-.109a2.753,2.753,0,0,0-.594-1.707A1.815,1.815,0,0,0,84.469,79.578Zm6.516-1.031.047,1.063a3.08,3.08,0,0,1,2.531-1.219q2.68,0,2.7,3.023V87H94.82V81.406a1.946,1.946,0,0,0-.418-1.352,1.675,1.675,0,0,0-1.277-.437,2.086,2.086,0,0,0-1.234.375,2.546,2.546,0,0,0-.828.984V87H89.617V78.547Zm9.422-2.047v2.047h1.578v1.117h-1.578v5.249a1.173,1.173,0,0,0,.211.763.888.888,0,0,0,.719.254,3.5,3.5,0,0,0,.688-.094V87a4.215,4.215,0,0,1-1.109.155,1.8,1.8,0,0,1-1.461-.586,2.517,2.517,0,0,1-.492-1.664V79.664H97.422V78.547h1.539V76.5Zm2.727,6.2a4.993,4.993,0,0,1,.488-2.234,3.643,3.643,0,0,1,1.359-1.531,3.7,3.7,0,0,1,1.988-.539,3.565,3.565,0,0,1,2.793,1.2,4.6,4.6,0,0,1,1.066,3.18v.1a5.036,5.036,0,0,1-.473,2.215A3.589,3.589,0,0,1,109,86.609a3.743,3.743,0,0,1-2.02.547,3.556,3.556,0,0,1-2.785-1.2,4.575,4.575,0,0,1-1.066-3.164Zm1.453.172a3.616,3.616,0,0,0,.652,2.258,2.211,2.211,0,0,0,3.5-.012,3.955,3.955,0,0,0,.648-2.418,3.61,3.61,0,0,0-.66-2.254,2.1,2.1,0,0,0-1.754-.863,2.075,2.075,0,0,0-1.727.852A3.925,3.925,0,0,0,104.586,82.867ZM116.25,82.7a4.952,4.952,0,0,1,.922-3.129,3.137,3.137,0,0,1,4.766-.168V75h1.445V87h-1.328l-.07-.906a2.943,2.943,0,0,1-2.414,1.063,2.887,2.887,0,0,1-2.395-1.2,5.008,5.008,0,0,1-.926-3.141Zm1.445.164a3.749,3.749,0,0,0,.594,2.25,1.92,1.92,0,0,0,1.641.813,2.109,2.109,0,0,0,2.008-1.234V80.813a2.125,2.125,0,0,0-1.992-1.2,1.929,1.929,0,0,0-1.656.82A4.128,4.128,0,0,0,117.7,82.867Zm11.438,4.289a3.693,3.693,0,0,1-2.8-1.129,4.19,4.19,0,0,1-1.078-3.02v-.266a5.073,5.073,0,0,1,.48-2.246,3.748,3.748,0,0,1,1.344-1.547,3.378,3.378,0,0,1,1.871-.559,3.166,3.166,0,0,1,2.563,1.086,4.7,4.7,0,0,1,.914,3.109v.6H126.7a3,3,0,0,0,.73,2.02,2.3,2.3,0,0,0,1.777.77,2.517,2.517,0,0,0,1.3-.312,3.258,3.258,0,0,0,.93-.828l.883.688A3.55,3.55,0,0,1,129.133,87.156Zm-.18-7.578a1.928,1.928,0,0,0-1.469.637A3.1,3.1,0,0,0,126.75,82h4.234v-.109a2.753,2.753,0,0,0-.594-1.707A1.815,1.815,0,0,0,128.953,79.578Zm7.109-3.078v2.047h1.578v1.117h-1.578v5.249a1.173,1.173,0,0,0,.211.763.888.888,0,0,0,.719.254,3.5,3.5,0,0,0,.688-.094V87a4.215,4.215,0,0,1-1.109.155,1.8,1.8,0,0,1-1.461-.586,2.517,2.517,0,0,1-.492-1.664V79.664h-1.539V78.547h1.539V76.5Zm6.773,10.656a3.693,3.693,0,0,1-2.8-1.129,4.19,4.19,0,0,1-1.078-3.02v-.266a5.073,5.073,0,0,1,.48-2.246,3.748,3.748,0,0,1,1.344-1.547,3.378,3.378,0,0,1,1.871-.559,3.166,3.166,0,0,1,2.563,1.086,4.7,4.7,0,0,1,.914,3.109v.6h-5.727a3,3,0,0,0,.73,2.02,2.3,2.3,0,0,0,1.777.77,2.517,2.517,0,0,0,1.3-.312,3.258,3.258,0,0,0,.93-.828l.883.688A3.55,3.55,0,0,1,142.836,87.156Zm-.18-7.578a1.928,1.928,0,0,0-1.469.637A3.1,3.1,0,0,0,140.453,82h4.234v-.109a2.753,2.753,0,0,0-.594-1.707A1.815,1.815,0,0,0,142.656,79.578Zm9.234.266a4.331,4.331,0,0,0-.711-.055A1.9,1.9,0,0,0,149.25,81v6H147.8V78.547h1.406l.023.977a2.251,2.251,0,0,1,2.016-1.133,1.477,1.477,0,0,1,.641.109Zm2.688-1.3.039.938a3.122,3.122,0,0,1,2.508-1.094,2.417,2.417,0,0,1,2.414,1.359,3.2,3.2,0,0,1,1.1-.984,3.242,3.242,0,0,1,1.6-.375q2.781,0,2.828,2.945V87h-1.445V81.422a1.941,1.941,0,0,0-.414-1.355,1.823,1.823,0,0,0-1.391-.449,1.917,1.917,0,0,0-1.336.48,1.949,1.949,0,0,0-.617,1.293V87h-1.453V81.461a1.613,1.613,0,0,0-1.8-1.844,1.934,1.934,0,0,0-1.945,1.211V87h-1.445V78.547ZM168.813,87h-1.445V78.547h1.445ZM167.25,76.3a.863.863,0,0,1,.215-.594.807.807,0,0,1,.637-.242.819.819,0,0,1,.641.242.854.854,0,0,1,.219.594.826.826,0,0,1-.219.586.834.834,0,0,1-.641.234.821.821,0,0,1-.637-.234A.834.834,0,0,1,167.25,76.3Zm5.242,2.242.047,1.063a3.08,3.08,0,0,1,2.531-1.219q2.68,0,2.7,3.023V87h-1.445V81.406a1.946,1.946,0,0,0-.418-1.352,1.675,1.675,0,0,0-1.277-.437,2.086,2.086,0,0,0-1.234.375,2.546,2.546,0,0,0-.828.984V87h-1.445V78.547ZM185.172,87a3.036,3.036,0,0,1-.2-.891,3.225,3.225,0,0,1-2.406,1.047,2.984,2.984,0,0,1-2.051-.707,2.287,2.287,0,0,1-.8-1.793,2.39,2.39,0,0,1,1-2.051,4.733,4.733,0,0,1,2.824-.73h1.406v-.664A1.623,1.623,0,0,0,184.492,80a1.821,1.821,0,0,0-1.336-.449,2.108,2.108,0,0,0-1.3.391,1.151,1.151,0,0,0-.523.945h-1.453a2,2,0,0,1,.449-1.223,3.066,3.066,0,0,1,1.219-.934,4.1,4.1,0,0,1,1.691-.344,3.342,3.342,0,0,1,2.289.73,2.635,2.635,0,0,1,.859,2.012v3.891a4.757,4.757,0,0,0,.3,1.852V87Zm-2.4-1.1a2.54,2.54,0,0,0,1.289-.352,2.127,2.127,0,0,0,.883-.914V82.9h-1.133q-2.656,0-2.656,1.555a1.316,1.316,0,0,0,.453,1.063A1.742,1.742,0,0,0,182.773,85.9Zm5.531-3.2a4.952,4.952,0,0,1,.922-3.129,3.137,3.137,0,0,1,4.766-.168V75h1.445V87h-1.328l-.07-.906a2.943,2.943,0,0,1-2.414,1.063,2.887,2.887,0,0,1-2.395-1.2,5.008,5.008,0,0,1-.926-3.141Zm1.445.164a3.749,3.749,0,0,0,.594,2.25,1.919,1.919,0,0,0,1.641.813,2.108,2.108,0,0,0,2.008-1.234V80.813a2.125,2.125,0,0,0-1.992-1.2,1.929,1.929,0,0,0-1.656.82A4.128,4.128,0,0,0,189.75,82.867ZM197.3,82.7a4.993,4.993,0,0,1,.488-2.234,3.642,3.642,0,0,1,1.359-1.531,3.7,3.7,0,0,1,1.988-.539,3.565,3.565,0,0,1,2.793,1.2,4.6,4.6,0,0,1,1.066,3.18v.1a5.036,5.036,0,0,1-.473,2.215,3.589,3.589,0,0,1-1.352,1.527,3.743,3.743,0,0,1-2.02.547,3.556,3.556,0,0,1-2.785-1.2A4.575,4.575,0,0,1,197.3,82.8Zm1.453.172a3.616,3.616,0,0,0,.652,2.258,2.211,2.211,0,0,0,3.5-.012,3.954,3.954,0,0,0,.648-2.418,3.61,3.61,0,0,0-.66-2.254,2.1,2.1,0,0,0-1.754-.863,2.075,2.075,0,0,0-1.727.852A3.925,3.925,0,0,0,198.75,82.867Zm8.086,3.375a.905.905,0,0,1,.223-.625.848.848,0,0,1,.668-.25.874.874,0,0,1,.676.25.887.887,0,0,1,.23.625.839.839,0,0,1-.23.6.89.89,0,0,1-.676.242.8.8,0,0,1-.891-.844Z" transform="translate(1014 783)" fill="#fff"/>
  </g>
</svg>
