<svg xmlns="http://www.w3.org/2000/svg" xmlns:xlink="http://www.w3.org/1999/xlink" width="505" height="264" viewBox="0 0 505 264">
  <defs>
    <clipPath id="clip-path">
      <rect id="Rectangle_378319" data-name="Rectangle 378319" width="505" height="264" transform="translate(915 13089)" fill="#fff" stroke="#707070" stroke-width="1"/>
    </clipPath>
    <clipPath id="clip-path-2">
      <rect id="Rectangle_378318" data-name="Rectangle 378318" width="447.174" height="264.196" fill="none"/>
    </clipPath>
    <clipPath id="clip-path-8">
      <rect id="Rectangle_378309" data-name="Rectangle 378309" width="48.399" height="87.817" fill="none"/>
    </clipPath>
    <clipPath id="clip-path-11">
      <rect id="Rectangle_378313" data-name="Rectangle 378313" width="13.235" height="10.518" fill="none"/>
    </clipPath>
    <clipPath id="clip-path-13">
      <rect id="Rectangle_378315" data-name="Rectangle 378315" width="25.821" height="35.196" fill="none"/>
    </clipPath>
  </defs>
  <g id="Mask_Group_154284" data-name="Mask Group 154284" transform="translate(-915 -13089)" clip-path="url(#clip-path)">
    <g id="Group_1073313" data-name="Group 1073313" transform="translate(944 13089.132)">
      <g id="Group_1073312" data-name="Group 1073312" clip-path="url(#clip-path-2)">
        <g id="Group_1073288" data-name="Group 1073288">
          <g id="Group_1073287" data-name="Group 1073287" clip-path="url(#clip-path-2)">
            <rect id="Rectangle_378294" data-name="Rectangle 378294" width="86.627" height="59.047" transform="translate(46.43 0.345)" fill="none" stroke="#ebebeb" stroke-miterlimit="10" stroke-width="1"/>
            <path id="Path_610831" data-name="Path 610831" d="M75.176,4.8a1.738,1.738,0,1,1-1.738-1.738A1.738,1.738,0,0,1,75.176,4.8" transform="translate(-22.264 -0.95)" fill="#a6a6a6"/>
            <path id="Path_610832" data-name="Path 610832" d="M85.469,4.8a1.738,1.738,0,1,1-1.738-1.738A1.738,1.738,0,0,1,85.469,4.8" transform="translate(-25.46 -0.95)" fill="#ebebeb"/>
            <path id="Path_610833" data-name="Path 610833" d="M95.761,4.8a1.738,1.738,0,1,1-1.738-1.738A1.738,1.738,0,0,1,95.761,4.8" transform="translate(-28.656 -0.95)" fill="#ffc727"/>
            <line id="Line_307" data-name="Line 307" x2="86.627" transform="translate(46.43 7.253)" fill="none" stroke="#ebebeb" stroke-miterlimit="10" stroke-width="1"/>
            <path id="Path_610834" data-name="Path 610834" d="M607.291,241.982V155.339l18.431-25.154V83.069" transform="translate(-188.571 -25.794)" fill="none" stroke="#ebebeb" stroke-miterlimit="10" stroke-width="1"/>
            <circle id="Ellipse_4881" data-name="Ellipse 4881" cx="1.638" cy="1.638" r="1.638" transform="translate(435.513 54.028)" fill="none" stroke="#ebebeb" stroke-miterlimit="10" stroke-width="1"/>
            <path id="Path_610835" data-name="Path 610835" d="M614.176,249.744v-83.6l18.431-25.154v-32.92" transform="translate(-190.709 -33.556)" fill="none" stroke="#ebebeb" stroke-miterlimit="10" stroke-width="1"/>
            <circle id="Ellipse_4882" data-name="Ellipse 4882" cx="1.638" cy="1.638" r="1.638" transform="translate(440.26 71.263)" fill="none" stroke="#ebebeb" stroke-miterlimit="10" stroke-width="1"/>
            <line id="Line_308" data-name="Line 308" y1="114.738" transform="translate(414.147 101.451)" fill="none" stroke="#ebebeb" stroke-miterlimit="10" stroke-width="1"/>
            <circle id="Ellipse_4883" data-name="Ellipse 4883" cx="1.638" cy="1.638" r="1.638" transform="translate(412.509 98.176)" fill="none" stroke="#ebebeb" stroke-miterlimit="10" stroke-width="1"/>
            <path id="Path_610836" data-name="Path 610836" d="M588.638,257.6V199.291l-12.513-23.6v-42.31" transform="translate(-178.894 -41.416)" fill="none" stroke="#ebebeb" stroke-miterlimit="10" stroke-width="1"/>
            <circle id="Ellipse_4884" data-name="Ellipse 4884" cx="1.638" cy="1.638" r="1.638" transform="translate(395.594 88.69)" fill="none" stroke="#ebebeb" stroke-miterlimit="10" stroke-width="1"/>
            <path id="Path_610837" data-name="Path 610837" d="M581.281,264.124V208.332l-14.752-26.091V154.375" transform="translate(-175.914 -47.935)" fill="none" stroke="#ebebeb" stroke-miterlimit="10" stroke-width="1"/>
            <circle id="Ellipse_4885" data-name="Ellipse 4885" cx="1.638" cy="1.638" r="1.638" transform="translate(388.978 103.165)" fill="none" stroke="#ebebeb" stroke-miterlimit="10" stroke-width="1"/>
            <path id="Path_610838" data-name="Path 610838" d="M36.578,269.928V224.655L18.147,199.5V173.069" transform="translate(-5.635 -53.74)" fill="none" stroke="#ebebeb" stroke-miterlimit="10" stroke-width="1"/>
            <circle id="Ellipse_4886" data-name="Ellipse 4886" cx="1.638" cy="1.638" r="1.638" transform="translate(10.875 116.082)" fill="none" stroke="#ebebeb" stroke-miterlimit="10" stroke-width="1"/>
            <path id="Path_610839" data-name="Path 610839" d="M29.693,277.69V235.456L11.262,210.3V198.066" transform="translate(-3.497 -61.502)" fill="none" stroke="#ebebeb" stroke-miterlimit="10" stroke-width="1"/>
            <circle id="Ellipse_4887" data-name="Ellipse 4887" cx="1.638" cy="1.638" r="1.638" transform="translate(6.128 133.317)" fill="none" stroke="#ebebeb" stroke-miterlimit="10" stroke-width="1"/>
            <line id="Line_309" data-name="Line 309" y1="73.368" transform="translate(35.516 142.82)" fill="none" stroke="#ebebeb" stroke-miterlimit="10" stroke-width="1"/>
            <circle id="Ellipse_4888" data-name="Ellipse 4888" cx="1.638" cy="1.638" r="1.638" transform="translate(33.879 139.545)" fill="none" stroke="#ebebeb" stroke-miterlimit="10" stroke-width="1"/>
            <path id="Path_610840" data-name="Path 610840" d="M57.9,266.92V229.291l12.513-23.6v-42.31" transform="translate(-17.978 -50.732)" fill="none" stroke="#ebebeb" stroke-miterlimit="10" stroke-width="1"/>
            <circle id="Ellipse_4889" data-name="Ellipse 4889" cx="1.638" cy="1.638" r="1.638" transform="translate(50.794 109.374)" fill="none" stroke="#ebebeb" stroke-miterlimit="10" stroke-width="1"/>
            <path id="Path_610841" data-name="Path 610841" d="M64.245,273.439V238.332L79,212.241V184.375" transform="translate(-19.949 -57.251)" fill="none" stroke="#ebebeb" stroke-miterlimit="10" stroke-width="1"/>
            <circle id="Ellipse_4890" data-name="Ellipse 4890" cx="1.638" cy="1.638" r="1.638" transform="translate(57.41 123.85)" fill="none" stroke="#ebebeb" stroke-miterlimit="10" stroke-width="1"/>
            <path id="Path_610842" data-name="Path 610842" d="M622.81,53.222l4.812-7.757-2.376-1.472a2.17,2.17,0,0,1-1.007-2.042,12.691,12.691,0,0,0,.043-1.365,2.167,2.167,0,0,1,1.133-1.969l2.463-1.321-4.316-8.048-2.463,1.32a2.168,2.168,0,0,1-2.267-.146,12.945,12.945,0,0,0-1.161-.719,2.17,2.17,0,0,1-1.143-1.968l.088-2.794-9.125-.283-.085,2.8a2.173,2.173,0,0,1-1.272,1.889q-.3.143-.6.3c-.2.107-.393.217-.584.333a2.165,2.165,0,0,1-2.266.017l-2.393-1.482-4.812,7.758,2.38,1.477a2.17,2.17,0,0,1,1.005,2.044,12.947,12.947,0,0,0-.045,1.359,2.168,2.168,0,0,1-1.132,1.968l-2.464,1.321,4.315,8.048L602,51.172a2.168,2.168,0,0,1,2.266.145,12.65,12.65,0,0,0,1.157.714A2.17,2.17,0,0,1,606.571,54l-.086,2.8,9.125.283.087-2.8a2.169,2.169,0,0,1,1.269-1.882q.3-.144.6-.3t.584-.332a2.173,2.173,0,0,1,2.278-.016Zm-7.726-5.761a7.478,7.478,0,1,1,3.061-10.123,7.473,7.473,0,0,1-3.061,10.123" transform="translate(-184.824 -7.656)" fill="#ebebeb"/>
            <path id="Path_610843" data-name="Path 610843" d="M20.1,155.866l5.539-3.2-.979-1.7a1.52,1.52,0,0,1,.054-1.594,8.788,8.788,0,0,0,.479-.828,1.52,1.52,0,0,1,1.351-.841h1.958v-6.4H26.547a1.52,1.52,0,0,1-1.351-.841,8.786,8.786,0,0,0-.479-.828,1.521,1.521,0,0,1-.054-1.595l.979-1.695-5.539-3.2-.98,1.7a1.521,1.521,0,0,1-1.411.745c-.157-.008-.313-.012-.471-.012s-.314,0-.471.012a1.516,1.516,0,0,1-1.4-.74l-.987-1.708-5.539,3.2.98,1.7a1.52,1.52,0,0,1-.055,1.595,8.809,8.809,0,0,0-.478.825,1.52,1.52,0,0,1-1.351.84H5.977v6.4H7.936a1.52,1.52,0,0,1,1.351.84,8.809,8.809,0,0,0,.478.825,1.521,1.521,0,0,1,.055,1.595l-.98,1.7,5.539,3.2.981-1.7a1.519,1.519,0,0,1,1.407-.742c.157.008.315.012.474.012s.314,0,.471-.012a1.523,1.523,0,0,1,1.411.745Zm-2.862-6.115a5.239,5.239,0,1,1,5.241-5.236,5.234,5.234,0,0,1-5.241,5.236" transform="translate(-1.856 -41.347)" fill="#ebebeb"/>
            <path id="Path_610844" data-name="Path 610844" d="M584.136,70.444l-3.2-5.539-1.7.979a1.52,1.52,0,0,1-1.594-.054,8.8,8.8,0,0,0-.828-.479A1.519,1.519,0,0,1,575.98,64V62.042h-6.4V64a1.52,1.52,0,0,1-.841,1.351,8.886,8.886,0,0,0-.829.479,1.519,1.519,0,0,1-1.593.054l-1.7-.979-3.2,5.539,1.7.98a1.522,1.522,0,0,1,.745,1.411c-.008.157-.012.313-.012.471s0,.314.012.47a1.515,1.515,0,0,1-.741,1.405l-1.707.987,3.2,5.539,1.7-.98a1.52,1.52,0,0,1,1.595.057,8.954,8.954,0,0,0,.825.477,1.52,1.52,0,0,1,.84,1.351V84.57h6.4V82.612a1.52,1.52,0,0,1,.84-1.351,8.862,8.862,0,0,0,.824-.477,1.52,1.52,0,0,1,1.595-.057l1.7.98,3.2-5.539-1.7-.981a1.518,1.518,0,0,1-.742-1.407c.008-.157.012-.315.012-.474s0-.314-.012-.471a1.524,1.524,0,0,1,.745-1.411Zm-6.115,2.862a5.239,5.239,0,1,1-5.237-5.241,5.235,5.235,0,0,1,5.237,5.241" transform="translate(-174.33 -19.265)" fill="#ebebeb"/>
          </g>
        </g>
        <g id="Group_1073290" data-name="Group 1073290">
          <g id="Group_1073289" data-name="Group 1073289" clip-path="url(#clip-path-2)">
            <path id="Path_610845" data-name="Path 610845" d="M34.982,232.078c-4.4-9.054-12.114-13.7-20.8-11.134s-10.033,14.682-3.548,17.741,12.97-5.873,16.4-7.708,7.953,1.1,7.953,1.1" transform="translate(-2.04 -68.388)" fill="#0c5e46"/>
            <path id="Path_610846" data-name="Path 610846" d="M41.242,257.177c-.023-1.091-.065-2.182-.1-3.273-.077-2.179-.15-4.359-.232-6.538a30.455,30.455,0,0,0-2.228-11.573,17.941,17.941,0,0,0-6.987-8.053,14.749,14.749,0,0,0-3.673-1.585,8.582,8.582,0,0,0-4.287-2.355,17.509,17.509,0,0,0-6.111-.153c-.073.008-.07.124,0,.115a14.69,14.69,0,0,1,5.782.412,12.143,12.143,0,0,1,2.328.906,11.08,11.08,0,0,1,1.347.854,12.489,12.489,0,0,0-5.308.051,11.933,11.933,0,0,0-1.842.608,5.453,5.453,0,0,0-1.447-.123,8.591,8.591,0,0,0-1.882.268,14.207,14.207,0,0,0-3.574,1.562c-.064.037,0,.133.061.1a13.343,13.343,0,0,1,3.487-1.314,11.731,11.731,0,0,1,1.793-.263,8.773,8.773,0,0,1,1,.008,11.518,11.518,0,0,0-5.618,5.6c-.03.067.07.123.1.055a10.558,10.558,0,0,1,7.158-5.738c.192-.049.387-.075.581-.113a8.443,8.443,0,0,0-.092.876q-.088.661-.221,1.314a22.275,22.275,0,0,1-.707,2.65,20.7,20.7,0,0,1-1.052,2.57,12.255,12.255,0,0,1-1.469,2.479.057.057,0,1,0,.092.068c.522-.818,1.129-1.571,1.605-2.42a18.214,18.214,0,0,0,1.178-2.528,17.191,17.191,0,0,0,.774-2.715q.143-.731.228-1.473a3.414,3.414,0,0,0,.055-.9,11.875,11.875,0,0,1,3.085-.063,16.817,16.817,0,0,1-2.01,6.286c-.04.062.066.121.1.056a25.229,25.229,0,0,0,1.493-3.09,11.724,11.724,0,0,0,.745-3.217,14.243,14.243,0,0,1,5.1,1.711,16.845,16.845,0,0,1,6.79,7.429A27.944,27.944,0,0,1,39.8,246.315c.29,4.627.35,9.284.812,13.9.03.3.508.4.567.063a16.367,16.367,0,0,0,.063-3.1" transform="translate(-4.036 -69.386)" fill="#263238"/>
            <path id="Path_610847" data-name="Path 610847" d="M37.083,227.3a5.107,5.107,0,0,0-1-.924c-.361-.3-.73-.587-1.118-.851a8.34,8.34,0,0,0-2.5-1.16.058.058,0,0,0-.028.112,6.635,6.635,0,0,1,2.47,1.214c.368.27.721.56,1.065.86a6.382,6.382,0,0,0,1.011.858.078.078,0,0,0,.1-.109" transform="translate(-10.058 -69.666)" fill="#263238"/>
            <path id="Path_610848" data-name="Path 610848" d="M17.219,233.369a26.659,26.659,0,0,0-2.02,2.673,16.213,16.213,0,0,0-1.5,2.979c-.012.032.037.049.052.021a35.657,35.657,0,0,1,3.554-5.594c.047-.057-.037-.137-.083-.079" transform="translate(-4.252 -72.458)" fill="#263238"/>
            <path id="Path_610849" data-name="Path 610849" d="M31.947,232.059a6.512,6.512,0,0,1-.5,1.638,10.967,10.967,0,0,1-.838,1.451c-.02.03.026.063.05.037a5.885,5.885,0,0,0,1.4-3.1c.012-.072-.1-.1-.112-.028" transform="translate(-9.503 -72.044)" fill="#263238"/>
            <path id="Path_610850" data-name="Path 610850" d="M53.07,235.185s6.237-7.839,18.276-5.06c11.442,2.641,16.722,23.622,5.16,26.132s-9.523-16.906-13.737-20.2c-3.091-2.417-7.537-1.9-9.7-.872" transform="translate(-16.479 -71.271)" fill="#0c5e46"/>
            <path id="Path_610851" data-name="Path 610851" d="M78.074,242.325a23.47,23.47,0,0,0-2.48-1.9,10.8,10.8,0,0,0-2.645-1.32,16.015,16.015,0,0,0-1.569-2.019,15.535,15.535,0,0,0-3.638-2.9c.12-.008.239-.021.359-.024a18.661,18.661,0,0,1,1.914.019,10.71,10.71,0,0,1,3.715.925c.068.03.117-.075.049-.1a16.982,16.982,0,0,0-3.709-1.118,10.482,10.482,0,0,0-1.88-.161c-.337,0-.676.026-1.011.059-.063.006-.128.01-.193.015a16.132,16.132,0,0,0-3.47-1.276c.112-.03.222-.065.335-.091a16.59,16.59,0,0,1,1.784-.293,14,14,0,0,1,3.6.055c.074.01.094-.1.021-.113a22.771,22.771,0,0,0-3.641-.147,15.319,15.319,0,0,0-3.028.392,16.123,16.123,0,0,0-2.2-.251c-4.2-.177-8.773,1.392-11.357,4.841s-3.091,8.061-3.547,12.227a92.773,92.773,0,0,0-.461,17.5c.028.344.511.281.521-.046.158-4.946.332-9.9.805-14.825.219-2.282.463-4.574.843-6.836a20.14,20.14,0,0,1,1.659-5.63,10.3,10.3,0,0,1,4.063-4.368,13.7,13.7,0,0,1,5.755-1.771,15.5,15.5,0,0,1,5.4.505,3.555,3.555,0,0,0-.03,1.065,5.944,5.944,0,0,0,.264,1.316,6.86,6.86,0,0,0,.5,1.168c.223.414.5.782.752,1.178.039.063.14-.008.094-.066a5.473,5.473,0,0,1-.934-2.373,9.531,9.531,0,0,1-.144-1.227c-.016-.31.011-.623,0-.931a15.916,15.916,0,0,1,5.255,2.775c.293.234.575.483.852.738a5.83,5.83,0,0,0-1.02,1.253,12.35,12.35,0,0,0-1.071,1.906,16.19,16.19,0,0,0-1.114,4.188c-.011.073.1.094.113.021a12.139,12.139,0,0,1,1.37-3.969,15.956,15.956,0,0,1,1.067-1.763c.2-.29.413-.576.632-.854.118-.15.247-.3.359-.462a16.6,16.6,0,0,1,3.414,4.809c-.007,0-.015,0-.022.01A8.179,8.179,0,0,0,73,244.479a18.9,18.9,0,0,0-1.127,2.409,40.391,40.391,0,0,0-1.437,4.909c-.017.071.1.094.113.021a20.6,20.6,0,0,1,1.708-4.835q.539-1.133,1.14-2.23a20.8,20.8,0,0,0,1.131-2.1,15.435,15.435,0,0,1,1.373,5.576c0,.074.121.063.114-.01a19.461,19.461,0,0,0-2.7-8.557c.736.314,1.475.616,2.183,1a12.277,12.277,0,0,1,2.5,1.759c.054.05.13-.04.074-.088" transform="translate(-13.91 -72.013)" fill="#263238"/>
            <path id="Path_610852" data-name="Path 610852" d="M79.5,247.636c-.361,1.189-.816,2.342-1.141,3.543a13.624,13.624,0,0,0-.532,3.539c0,.032.052.034.057,0a34.41,34.41,0,0,1,1.724-7.05.057.057,0,1,0-.108-.035" transform="translate(-24.167 -76.88)" fill="#263238"/>
            <path id="Path_610853" data-name="Path 610853" d="M89.738,242.572a6.691,6.691,0,0,0-1.594-1.139,11.568,11.568,0,0,0-1.845-.652c-.07-.021-.094.1-.021.112a7.224,7.224,0,0,1,1.775.732,13.289,13.289,0,0,1,1.636,1,.037.037,0,0,0,.048-.057" transform="translate(-26.776 -74.764)" fill="#263238"/>
            <path id="Path_610854" data-name="Path 610854" d="M61.667,213.765s1.151-14.083,11.621-18.647c8.743-3.811,13.748,6.012,7.567,12.026-5,4.864-13.018,2.669-19.188,6.621" transform="translate(-19.148 -60.321)" fill="#0c5e46"/>
            <path id="Path_610855" data-name="Path 610855" d="M76.144,198.972a44.3,44.3,0,0,0-4.656,2.2,34.766,34.766,0,0,0-3.615,2.4c.174-.356.325-.729.5-1.077.274-.544.566-1.076.89-1.592a14.887,14.887,0,0,1,2.306-2.919c.053-.052-.032-.133-.083-.08a22.981,22.981,0,0,0-2.427,2.826,16.678,16.678,0,0,0-1,1.593,6.393,6.393,0,0,0-.7,1.622c-.037.029-.078.054-.115.084a34.374,34.374,0,0,0-5,4.893c.029-.139.058-.276.094-.4q.294-1.031.634-2.046a17.421,17.421,0,0,1,1.891-4.107c.041-.061-.062-.119-.1-.056a32.878,32.878,0,0,0-2.191,4.006,15.075,15.075,0,0,0-.723,2.082,8.819,8.819,0,0,0-.341,1.414c-.456.577-.9,1.161-1.328,1.763a43.249,43.249,0,0,0-7.291,21.881,67.115,67.115,0,0,0-.117,6.938,43.347,43.347,0,0,0,.613,6.962c.029.145.257.1.253-.041-.052-2.035-.263-4.061-.3-6.1a61.114,61.114,0,0,1,.2-6.114,56.834,56.834,0,0,1,2.283-11.983A42.865,42.865,0,0,1,61.14,211.86c.441-.088.878-.208,1.311-.319.523-.134,1.046-.268,1.567-.414a15.669,15.669,0,0,0,2.919-1.07c.065-.033,0-.136-.061-.1a9.4,9.4,0,0,1-2.961,1.021c-.819.163-1.67.27-2.491.458a39.606,39.606,0,0,1,2.435-3.2,18.193,18.193,0,0,0,5.956-.445,23.926,23.926,0,0,0,3.048-.949c1.049-.4,2.042-.923,3.076-1.356.078-.032.024-.147-.047-.1a17.5,17.5,0,0,1-6.038,1.976,37.371,37.371,0,0,1-5.648.467c.744-.853,1.512-1.685,2.332-2.466a27.54,27.54,0,0,1,9.638-6.28c.071-.025.034-.139-.033-.11" transform="translate(-16.374 -61.448)" fill="#263238"/>
            <path id="Path_610856" data-name="Path 610856" d="M73.337,199.513a15.894,15.894,0,0,0-1.284,1.877,10.279,10.279,0,0,0-.923,2.184.023.023,0,0,0,.043.017c.348-.69.644-1.407,1-2.095a10.4,10.4,0,0,1,1.25-1.9c.047-.057-.038-.137-.083-.079" transform="translate(-22.086 -61.945)" fill="#263238"/>
            <path id="Path_610857" data-name="Path 610857" d="M86.49,206.317a10.82,10.82,0,0,1-2.146.9,19.672,19.672,0,0,1-2.186.587c-.034.006-.026.065.01.061a10.583,10.583,0,0,0,2.264-.5,19.065,19.065,0,0,0,2.12-.951c.066-.032,0-.136-.061-.1" transform="translate(-25.504 -64.061)" fill="#263238"/>
            <path id="Path_610858" data-name="Path 610858" d="M39.448,202.728c-.065.608-1.584-5.113-10.436-10.192-8.039-4.613-17.635-16.61-9.752-24.189,6.362-6.118,23.125,7.219,20.188,34.381" transform="translate(-5.068 -51.819)" fill="#0c5e46"/>
            <path id="Path_610859" data-name="Path 610859" d="M48.616,237.639a156.9,156.9,0,0,0-1.4-17.8,80.123,80.123,0,0,0-3.74-15.932c-.659-1.862-1.411-3.694-2.227-5.5a12.675,12.675,0,0,0-.037-2.106c-.043-.9-.124-1.8-.208-2.7s-.174-1.8-.281-2.694-.3-1.791-.334-2.685a.057.057,0,1,0-.113.018,18.862,18.862,0,0,1,.318,2.85c.068.868.117,1.737.144,2.608s.022,1.742.023,2.614c0,.314-.017.648-.029.983-.833-1.759-1.725-3.49-2.69-5.177.6-3.671-.179-7.507-.929-11.1-.015-.072-.125-.039-.11.033a31.313,31.313,0,0,1,.584,5.688c.034,1.507-.037,3.014-.043,4.521-.212-.361-.423-.723-.642-1.08-1.147-1.875-2.374-3.712-3.677-5.494a8.59,8.59,0,0,0-.085-2.614,20.279,20.279,0,0,0-.642-2.859c-.283-.938-.607-1.858-.98-2.763-.383-.932-.895-1.812-1.265-2.746-.031-.078-.147-.025-.1.047a13.432,13.432,0,0,1,1.109,2.777,25.2,25.2,0,0,1,.724,2.754c.188.933.341,1.866.472,2.808.086.623.141,1.269.249,1.9a67.854,67.854,0,0,0-6.2-7.213c-.053-.053-.128.028-.079.083a81.664,81.664,0,0,1,9,12.243c.1.163.189.33.285.493-.487-.305-1.047-.548-1.506-.8q-1.288-.715-2.582-1.417-1.258-.679-2.508-1.373c-.43-.238-.852-.486-1.289-.709a10.317,10.317,0,0,1-1.5-.832c-.068-.05-.139.052-.068.092.852.469,1.606,1.165,2.428,1.69s1.669,1.036,2.528,1.516c1.574.878,3.283,1.509,4.832,2.417,1.076,1.881,2.065,3.811,2.979,5.777q-1.411-.9-2.875-1.721c-.627-.352-1.256-.7-1.893-1.032a9.307,9.307,0,0,1-1.782-1.078.058.058,0,0,0-.079.083,16.741,16.741,0,0,0,3.4,2.366c1.138.665,2.287,1.306,3.47,1.886q1.419,3.111,2.561,6.335c3.726,10.551,5.1,21.751,5.75,32.874.194,3.317.3,6.63.336,9.952s-.134,6.629-.128,9.944c0,.1.162.121.176.019.4-2.941.468-5.932.6-8.894.13-3.012.132-6.041.066-9.056" transform="translate(-8.142 -53.928)" fill="#263238"/>
            <path id="Path_610860" data-name="Path 610860" d="M31.228,194.8a42.522,42.522,0,0,1-4.7-2.433,49.55,49.55,0,0,1-4.467-2.835c-.023-.017-.053.023-.03.041a37.664,37.664,0,0,0,4.289,3,42.869,42.869,0,0,0,4.856,2.328c.068.03.123-.073.056-.1" transform="translate(-6.837 -58.849)" fill="#263238"/>
            <path id="Path_610861" data-name="Path 610861" d="M38.676,178.655c-.131-.515-.294-1.02-.467-1.522a.045.045,0,0,0,.022-.059c-.112-.285-.23-.568-.345-.852a1.07,1.07,0,0,0-.041-.1l-.066-.163c-.007-.018-.035-.01-.029.008.032.1.056.2.086.294a1.5,1.5,0,0,0,.048.163,42.058,42.058,0,0,1,1.312,6.011c.01.063.108.065.1,0a20.244,20.244,0,0,0-.623-3.776" transform="translate(-11.721 -54.634)" fill="#263238"/>
            <path id="Path_610862" data-name="Path 610862" d="M60.628,269.548,60,277.035,58.063,299.87H37.349l-1.934-22.835-.631-7.487Z" transform="translate(-10.801 -83.698)" fill="#37474f"/>
            <path id="Path_610863" data-name="Path 610863" d="M60.628,269.548,60,277.035H35.415l-.631-7.487Z" transform="translate(-10.801 -83.698)" fill="#263238"/>
            <rect id="Rectangle_378296" data-name="Rectangle 378296" width="29.909" height="7.183" transform="translate(21.95 182.845)" fill="#37474f"/>
          </g>
        </g>
        <path id="Path_610864" data-name="Path 610864" d="M111.794,313.142l-55.9.061L0,313.37l55.9.168,55.9.061,111.794.117,111.794-.115,55.9-.061,55.9-.169-55.9-.169-55.9-.06-111.794-.114Z" transform="translate(0 -97.199)" fill="#263238"/>
        <rect id="Rectangle_378298" data-name="Rectangle 378298" width="325.155" height="217.505" transform="translate(60.43 15.453)" fill="#ebebeb"/>
        <rect id="Rectangle_378299" data-name="Rectangle 378299" width="320.429" height="212.199" transform="translate(62.793 18.106)" fill="#03386e"/>
        <rect id="Rectangle_378300" data-name="Rectangle 378300" width="409.855" height="14.927" transform="translate(18.08 249.269)" fill="#dbdbdb"/>
        <path id="Path_610865" data-name="Path 610865" d="M26.223,354.181l42.35-16.31H393.728l42.35,16.31Z" transform="translate(-8.143 -104.913)" fill="#ebebeb"/>
        <path id="Path_610866" data-name="Path 610866" d="M93.13,348.4l27.329-10.525H383.393L410.721,348.4Z" transform="translate(-28.918 -104.913)" fill="#03386e"/>
        <rect id="Rectangle_378301" data-name="Rectangle 378301" width="284.213" height="179.955" transform="translate(80.902 34.228)" fill="#fff"/>
        <rect id="Rectangle_378302" data-name="Rectangle 378302" width="284.453" height="6.925" transform="translate(80.661 34.228)" fill="#455a64"/>
        <g id="Group_1073292" data-name="Group 1073292">
          <g id="Group_1073291" data-name="Group 1073291" clip-path="url(#clip-path-2)">
            <path id="Path_610867" data-name="Path 610867" d="M123.423,53.892a1.717,1.717,0,1,1-1.718-1.718,1.717,1.717,0,0,1,1.718,1.718" transform="translate(-37.258 -16.201)" fill="#c7c7c7"/>
            <path id="Path_610868" data-name="Path 610868" d="M133.594,53.892a1.718,1.718,0,1,1-1.718-1.718,1.718,1.718,0,0,1,1.718,1.718" transform="translate(-40.416 -16.201)" fill="#fff"/>
            <path id="Path_610869" data-name="Path 610869" d="M143.764,53.892a1.717,1.717,0,1,1-1.718-1.718,1.717,1.717,0,0,1,1.718,1.718" transform="translate(-43.574 -16.201)" fill="#ffc727"/>
            <rect id="Rectangle_378303" data-name="Rectangle 378303" width="5.046" height="173.031" transform="translate(360.069 41.153)" fill="#dbdbdb"/>
            <path id="Path_610870" data-name="Path 610870" d="M525.293,120.13h0a1.3,1.3,0,0,1-1.3-1.3V62.458a1.3,1.3,0,1,1,2.606,0v56.368a1.3,1.3,0,0,1-1.3,1.3" transform="translate(-162.705 -18.989)" fill="#a6a6a6"/>
          </g>
        </g>
        <rect id="Rectangle_378305" data-name="Rectangle 378305" width="203.512" height="30.846" transform="translate(121.831 86.027)" fill="#fff"/>
        <path id="Path_610871" data-name="Path 610871" d="M380.4,155.806H176.2V124.27H380.4Zm-203.512-.689H379.71V124.959H176.887Z" transform="translate(-54.712 -38.587)" fill="#dbdbdb"/>
        <g id="Group_1073294" data-name="Group 1073294">
          <g id="Group_1073293" data-name="Group 1073293" clip-path="url(#clip-path-2)">
            <path id="Path_610872" data-name="Path 610872" d="M202.292,136.894a16.785,16.785,0,0,1,.81,3.532,27.736,27.736,0,0,1,.223,3.532,27.221,27.221,0,0,1-.221,3.532,16.589,16.589,0,0,1-.813,3.532,16.632,16.632,0,0,1-.814-3.532,27.472,27.472,0,0,1-.221-3.532,27.866,27.866,0,0,1,.224-3.532,16.785,16.785,0,0,1,.81-3.532" transform="translate(-62.493 -42.507)" fill="#37474f"/>
            <path id="Path_610873" data-name="Path 610873" d="M206.641,146.674a16.787,16.787,0,0,1-3.532.81,27.866,27.866,0,0,1-3.532.224,27.474,27.474,0,0,1-3.532-.221,16.632,16.632,0,0,1-3.532-.814,16.588,16.588,0,0,1,3.532-.813,27.221,27.221,0,0,1,3.532-.221,27.736,27.736,0,0,1,3.532.223,16.786,16.786,0,0,1,3.532.81" transform="translate(-59.778 -45.223)" fill="#37474f"/>
            <path id="Path_610874" data-name="Path 610874" d="M205.5,139.895a16.816,16.816,0,0,1-1.924,3.07,27.893,27.893,0,0,1-2.339,2.656,27.42,27.42,0,0,1-2.653,2.341,16.623,16.623,0,0,1-3.072,1.923,16.589,16.589,0,0,1,1.922-3.073,27.424,27.424,0,0,1,2.341-2.653,27.894,27.894,0,0,1,2.656-2.339,16.816,16.816,0,0,1,3.07-1.924" transform="translate(-60.71 -43.439)" fill="#37474f"/>
            <path id="Path_610875" data-name="Path 610875" d="M205.5,149.885a16.852,16.852,0,0,1-3.07-1.924,27.89,27.89,0,0,1-2.656-2.339,27.42,27.42,0,0,1-2.341-2.653,16.59,16.59,0,0,1-1.922-3.073,16.622,16.622,0,0,1,3.072,1.923,27.42,27.42,0,0,1,2.653,2.341,27.892,27.892,0,0,1,2.339,2.656,16.793,16.793,0,0,1,1.924,3.07" transform="translate(-60.71 -43.439)" fill="#37474f"/>
            <path id="Path_610876" data-name="Path 610876" d="M242.231,136.894a16.827,16.827,0,0,1,.809,3.532,27.992,27.992,0,0,1,.225,3.532,27.473,27.473,0,0,1-.221,3.532,16.59,16.59,0,0,1-.813,3.532,16.546,16.546,0,0,1-.813-3.532,27.228,27.228,0,0,1-.221-3.532,27.865,27.865,0,0,1,.223-3.532,16.789,16.789,0,0,1,.811-3.532" transform="translate(-74.894 -42.507)" fill="#37474f"/>
            <path id="Path_610877" data-name="Path 610877" d="M246.58,146.674a16.8,16.8,0,0,1-3.532.81,27.866,27.866,0,0,1-3.532.224,27.475,27.475,0,0,1-3.532-.221,16.632,16.632,0,0,1-3.532-.814,16.588,16.588,0,0,1,3.532-.813,27.222,27.222,0,0,1,3.532-.221,27.736,27.736,0,0,1,3.532.223,16.8,16.8,0,0,1,3.532.81" transform="translate(-72.179 -45.223)" fill="#37474f"/>
            <path id="Path_610878" data-name="Path 610878" d="M245.442,139.895a16.816,16.816,0,0,1-1.924,3.07,27.889,27.889,0,0,1-2.339,2.656,27.418,27.418,0,0,1-2.653,2.341,16.623,16.623,0,0,1-3.072,1.923,16.59,16.59,0,0,1,1.922-3.073,27.424,27.424,0,0,1,2.341-2.653,27.894,27.894,0,0,1,2.656-2.339,16.816,16.816,0,0,1,3.07-1.924" transform="translate(-73.111 -43.439)" fill="#37474f"/>
            <path id="Path_610879" data-name="Path 610879" d="M245.442,149.885a16.853,16.853,0,0,1-3.07-1.924,27.89,27.89,0,0,1-2.656-2.339,27.42,27.42,0,0,1-2.341-2.653,16.591,16.591,0,0,1-1.922-3.073,16.623,16.623,0,0,1,3.072,1.923,27.418,27.418,0,0,1,2.653,2.341,27.888,27.888,0,0,1,2.339,2.656,16.792,16.792,0,0,1,1.924,3.07" transform="translate(-73.111 -43.439)" fill="#37474f"/>
            <path id="Path_610880" data-name="Path 610880" d="M282.169,136.894a16.787,16.787,0,0,1,.81,3.532,27.741,27.741,0,0,1,.223,3.532,27.221,27.221,0,0,1-.221,3.532,16.588,16.588,0,0,1-.813,3.532,16.633,16.633,0,0,1-.814-3.532,27.472,27.472,0,0,1-.221-3.532,27.86,27.86,0,0,1,.224-3.532,16.785,16.785,0,0,1,.81-3.532" transform="translate(-87.296 -42.507)" fill="#37474f"/>
            <path id="Path_610881" data-name="Path 610881" d="M286.518,146.674a16.787,16.787,0,0,1-3.532.81,27.866,27.866,0,0,1-3.532.224,27.475,27.475,0,0,1-3.532-.221,16.631,16.631,0,0,1-3.532-.814,16.587,16.587,0,0,1,3.532-.813,27.222,27.222,0,0,1,3.532-.221,27.736,27.736,0,0,1,3.532.223,16.786,16.786,0,0,1,3.532.81" transform="translate(-84.58 -45.223)" fill="#37474f"/>
            <path id="Path_610882" data-name="Path 610882" d="M285.38,139.895a16.854,16.854,0,0,1-1.924,3.07,27.893,27.893,0,0,1-2.339,2.656,27.419,27.419,0,0,1-2.653,2.341,16.607,16.607,0,0,1-3.073,1.923,16.63,16.63,0,0,1,1.923-3.073,27.42,27.42,0,0,1,2.341-2.653,27.889,27.889,0,0,1,2.656-2.339,16.792,16.792,0,0,1,3.07-1.924" transform="translate(-85.512 -43.439)" fill="#37474f"/>
            <path id="Path_610883" data-name="Path 610883" d="M285.38,149.885a16.828,16.828,0,0,1-3.07-1.924,27.885,27.885,0,0,1-2.656-2.339,27.416,27.416,0,0,1-2.341-2.653,16.631,16.631,0,0,1-1.923-3.073,16.606,16.606,0,0,1,3.073,1.923,27.418,27.418,0,0,1,2.653,2.341,27.892,27.892,0,0,1,2.339,2.656,16.831,16.831,0,0,1,1.924,3.07" transform="translate(-85.512 -43.439)" fill="#37474f"/>
            <path id="Path_610884" data-name="Path 610884" d="M322.107,136.894a16.787,16.787,0,0,1,.81,3.532,27.866,27.866,0,0,1,.224,3.532,27.472,27.472,0,0,1-.221,3.532,16.633,16.633,0,0,1-.814,3.532,16.633,16.633,0,0,1-.814-3.532,27.472,27.472,0,0,1-.221-3.532,27.872,27.872,0,0,1,.224-3.532,16.787,16.787,0,0,1,.81-3.532" transform="translate(-99.697 -42.507)" fill="#37474f"/>
            <path id="Path_610885" data-name="Path 610885" d="M326.456,146.674a16.786,16.786,0,0,1-3.532.81,27.867,27.867,0,0,1-3.532.224,27.475,27.475,0,0,1-3.532-.221,16.632,16.632,0,0,1-3.532-.814,16.588,16.588,0,0,1,3.532-.813,27.222,27.222,0,0,1,3.532-.221,27.736,27.736,0,0,1,3.532.223,16.785,16.785,0,0,1,3.532.81" transform="translate(-96.982 -45.223)" fill="#37474f"/>
            <path id="Path_610886" data-name="Path 610886" d="M325.318,139.895a16.813,16.813,0,0,1-1.924,3.07,27.893,27.893,0,0,1-2.339,2.656,27.422,27.422,0,0,1-2.653,2.341,16.625,16.625,0,0,1-3.072,1.923,16.59,16.59,0,0,1,1.922-3.073,27.424,27.424,0,0,1,2.341-2.653,27.894,27.894,0,0,1,2.656-2.339,16.815,16.815,0,0,1,3.07-1.924" transform="translate(-97.913 -43.439)" fill="#37474f"/>
            <path id="Path_610887" data-name="Path 610887" d="M325.318,149.885a16.852,16.852,0,0,1-3.07-1.924,27.89,27.89,0,0,1-2.656-2.339,27.42,27.42,0,0,1-2.341-2.653,16.591,16.591,0,0,1-1.922-3.073,16.624,16.624,0,0,1,3.072,1.923,27.421,27.421,0,0,1,2.653,2.341,27.892,27.892,0,0,1,2.339,2.656,16.789,16.789,0,0,1,1.924,3.07" transform="translate(-97.913 -43.439)" fill="#37474f"/>
            <path id="Path_610888" data-name="Path 610888" d="M362.045,136.894a16.785,16.785,0,0,1,.81,3.532,27.86,27.86,0,0,1,.224,3.532,27.472,27.472,0,0,1-.221,3.532,16.631,16.631,0,0,1-.814,3.532,16.588,16.588,0,0,1-.813-3.532,27.347,27.347,0,0,1-.221-3.532,27.872,27.872,0,0,1,.224-3.532,16.787,16.787,0,0,1,.81-3.532" transform="translate(-112.098 -42.507)" fill="#37474f"/>
            <path id="Path_610889" data-name="Path 610889" d="M366.394,146.674a16.787,16.787,0,0,1-3.532.81,27.867,27.867,0,0,1-3.532.224,27.474,27.474,0,0,1-3.532-.221,16.632,16.632,0,0,1-3.532-.814,16.588,16.588,0,0,1,3.532-.813,27.221,27.221,0,0,1,3.532-.221,27.737,27.737,0,0,1,3.532.223,16.786,16.786,0,0,1,3.532.81" transform="translate(-109.383 -45.223)" fill="#37474f"/>
            <path id="Path_610890" data-name="Path 610890" d="M365.257,139.895a16.816,16.816,0,0,1-1.924,3.07,27.89,27.89,0,0,1-2.339,2.656,27.415,27.415,0,0,1-2.653,2.341,16.6,16.6,0,0,1-3.073,1.923,16.63,16.63,0,0,1,1.923-3.073,27.428,27.428,0,0,1,2.341-2.653,27.894,27.894,0,0,1,2.656-2.339,16.814,16.814,0,0,1,3.07-1.924" transform="translate(-110.315 -43.439)" fill="#37474f"/>
            <path id="Path_610891" data-name="Path 610891" d="M365.257,149.885a16.851,16.851,0,0,1-3.07-1.924,27.89,27.89,0,0,1-2.656-2.339,27.424,27.424,0,0,1-2.341-2.653,16.631,16.631,0,0,1-1.923-3.073,16.6,16.6,0,0,1,3.073,1.923,27.414,27.414,0,0,1,2.653,2.341,27.888,27.888,0,0,1,2.339,2.656,16.792,16.792,0,0,1,1.924,3.07" transform="translate(-110.315 -43.439)" fill="#37474f"/>
            <path id="Path_610892" data-name="Path 610892" d="M401.983,136.894a16.787,16.787,0,0,1,.81,3.532,27.741,27.741,0,0,1,.223,3.532,27.356,27.356,0,0,1-.22,3.532,16.633,16.633,0,0,1-.814,3.532,16.633,16.633,0,0,1-.814-3.532,27.472,27.472,0,0,1-.221-3.532,27.86,27.86,0,0,1,.224-3.532,16.787,16.787,0,0,1,.81-3.532" transform="translate(-124.499 -42.507)" fill="#37474f"/>
            <path id="Path_610893" data-name="Path 610893" d="M406.332,146.674a16.787,16.787,0,0,1-3.532.81,27.866,27.866,0,0,1-3.532.224,27.474,27.474,0,0,1-3.532-.221,16.632,16.632,0,0,1-3.532-.814,16.588,16.588,0,0,1,3.532-.813,27.221,27.221,0,0,1,3.532-.221,27.736,27.736,0,0,1,3.532.223,16.786,16.786,0,0,1,3.532.81" transform="translate(-121.784 -45.223)" fill="#37474f"/>
            <path id="Path_610894" data-name="Path 610894" d="M405.2,139.895a16.814,16.814,0,0,1-1.924,3.07,27.889,27.889,0,0,1-2.339,2.656,27.422,27.422,0,0,1-2.653,2.341,16.622,16.622,0,0,1-3.072,1.923,16.592,16.592,0,0,1,1.922-3.073,27.424,27.424,0,0,1,2.341-2.653,27.89,27.89,0,0,1,2.656-2.339,16.816,16.816,0,0,1,3.07-1.924" transform="translate(-122.716 -43.439)" fill="#37474f"/>
            <path id="Path_610895" data-name="Path 610895" d="M405.2,149.885a16.853,16.853,0,0,1-3.07-1.924,27.886,27.886,0,0,1-2.656-2.339,27.42,27.42,0,0,1-2.341-2.653,16.593,16.593,0,0,1-1.922-3.073,16.622,16.622,0,0,1,3.072,1.923,27.422,27.422,0,0,1,2.653,2.341,27.888,27.888,0,0,1,2.339,2.656,16.791,16.791,0,0,1,1.924,3.07" transform="translate(-122.716 -43.439)" fill="#37474f"/>
          </g>
        </g>
        <g id="Group_1073299" data-name="Group 1073299">
          <g id="Group_1073298" data-name="Group 1073298" clip-path="url(#clip-path-2)">
            <path id="Path_610896" data-name="Path 610896" d="M343.407,121.4v37.55H332.8V121.4c0-14.279-10.846-25.89-24.187-25.89s-24.187,11.611-24.187,25.89v37.55H273.81V121.4c0-20.45,15.61-37.081,34.8-37.081s34.8,16.63,34.8,37.081" transform="translate(-85.021 -26.181)" fill="#455a64"/>
            <path id="Path_610897" data-name="Path 610897" d="M273.81,152.255l10.611.427v27.359H273.81Z" transform="translate(-85.021 -47.277)" fill="#263238"/>
            <path id="Path_610898" data-name="Path 610898" d="M369.971,156.169v24.953H359.36V155.735Z" transform="translate(-111.586 -48.358)" fill="#263238"/>
            <rect id="Rectangle_378307" data-name="Rectangle 378307" width="96.797" height="87.817" transform="translate(175.189 111.383)" fill="#ffc727"/>
            <g id="Group_1073297" data-name="Group 1073297" transform="translate(223.587 111.383)" opacity="0.1">
              <g id="Group_1073296" data-name="Group 1073296">
                <g id="Group_1073295" data-name="Group 1073295" clip-path="url(#clip-path-8)">
                  <rect id="Rectangle_378308" data-name="Rectangle 378308" width="48.399" height="87.817" transform="translate(0 0)"/>
                </g>
              </g>
            </g>
            <path id="Path_610899" data-name="Path 610899" d="M324.3,222.747l4.052,19.222h-17.2l4.052-19.222a8.6,8.6,0,1,1,9.092,0" transform="translate(-96.617 -64.24)" fill="#263238"/>
          </g>
        </g>
        <g id="Group_1073301" data-name="Group 1073301">
          <g id="Group_1073300" data-name="Group 1073300" clip-path="url(#clip-path-2)">
            <path id="Path_610900" data-name="Path 610900" d="M252.3,219.687s-5.06,40.515-13.377,49.631c-9.984,10.937-17.23,9.338-21.261,14.976a.008.008,0,0,0-.008.008c-4.031-5.647-11.277-4.039-21.269-14.985-8.317-9.116-13.369-49.631-13.369-49.631,21.916-10.639,34.639-22.562,34.639-22.562l.008.008c.392.366,13.063,12.085,34.639,22.554" transform="translate(-56.828 -61.21)" fill="#ebebeb"/>
            <path id="Path_610901" data-name="Path 610901" d="M217.661,197.133v87.162a.008.008,0,0,0-.008.008c-4.031-5.647-11.277-4.04-21.27-14.985-8.317-9.116-13.368-49.631-13.368-49.631,21.916-10.639,34.639-22.562,34.639-22.562Z" transform="translate(-56.828 -61.21)" fill="#dbdbdb"/>
            <path id="Path_610902" data-name="Path 610902" d="M249.345,226s-4.274,34.225-11.3,41.93c-8.441,9.252-14.565,7.893-17.972,12.658-3.407-4.766-9.531-3.406-17.973-12.658-7.025-7.705-11.29-41.93-11.29-41.93,18.512-8.99,29.263-19.061,29.263-19.061S230.832,217.007,249.345,226" transform="translate(-59.249 -64.256)" fill="#dbdbdb"/>
            <path id="Path_610903" data-name="Path 610903" d="M190.824,226s4.273,34.221,11.3,41.929c8.432,9.245,14.551,7.895,17.961,12.647V206.951c-.328.308-11.037,10.2-29.262,19.053" transform="translate(-59.253 -64.261)" fill="#c7c7c7"/>
            <path id="Path_610904" data-name="Path 610904" d="M240.718,254.232a13.572,13.572,0,1,1-13.572-13.572,13.571,13.571,0,0,1,13.572,13.572" transform="translate(-66.318 -74.728)" fill="#6debff"/>
            <path id="Path_610905" data-name="Path 610905" d="M228.293,265.929l-6.045-6.286,2.243-2.156,3.332,3.465,7.183-11.019,2.606,1.7Z" transform="translate(-69.011 -77.607)" fill="#fff"/>
          </g>
        </g>
        <g id="Group_1073306" data-name="Group 1073306">
          <g id="Group_1073305" data-name="Group 1073305" clip-path="url(#clip-path-2)">
            <path id="Path_610906" data-name="Path 610906" d="M265.911,339.062l-.315,1.614a3.377,3.377,0,0,1-3.962,2.668l-96.283-18.8,1.61-8.244,96.282,18.8a3.378,3.378,0,0,1,2.668,3.962" transform="translate(-51.343 -98.215)" fill="#ffc727"/>
            <g id="Group_1073304" data-name="Group 1073304" transform="translate(114.003 218.085)" opacity="0.1">
              <g id="Group_1073303" data-name="Group 1073303">
                <g id="Group_1073302" data-name="Group 1073302" clip-path="url(#clip-path-11)">
                  <rect id="Rectangle_378312" data-name="Rectangle 378312" width="8.404" height="11.845" transform="translate(0 8.249) rotate(-78.956)"/>
                </g>
              </g>
            </g>
            <path id="Path_610907" data-name="Path 610907" d="M112.869,294.133l-2.855,14.625a19.063,19.063,0,1,0,37.42,7.306l2.855-14.625a19.063,19.063,0,0,0-37.42-7.306m31.439,3.666c-.849,4.35-4.65,7.486-9.348,8.238,4.069,2.472,6.412,6.8,5.563,11.149-1.135,5.814-7.553,9.471-14.327,8.148s-11.337-7.122-10.2-12.937c.849-4.351,4.65-7.487,9.348-8.238-4.07-2.464-6.412-6.8-5.563-11.149,1.137-5.823,7.543-9.465,14.317-8.142s11.349,7.108,10.212,12.931" transform="translate(-34.05 -86.547)" fill="#ffc727"/>
            <path id="Path_610908" data-name="Path 610908" d="M171.149,311.083l-3.062,15.682A1.558,1.558,0,0,1,166.259,328l-.745-.146a1.558,1.558,0,0,1-1.231-1.828l3.062-15.682a1.558,1.558,0,0,1,1.828-1.231l.745.146a1.558,1.558,0,0,1,1.231,1.828" transform="translate(-51.003 -95.973)" fill="#ffc727"/>
            <path id="Path_610909" data-name="Path 610909" d="M176.664,312.16,173.6,327.843a1.559,1.559,0,0,1-1.829,1.231l-.745-.145A1.558,1.558,0,0,1,169.8,327.1l3.062-15.682a1.558,1.558,0,0,1,1.828-1.231l.745.145a1.558,1.558,0,0,1,1.231,1.828" transform="translate(-52.715 -96.308)" fill="#ffc727"/>
            <path id="Path_610910" data-name="Path 610910" d="M272.071,327.888l2.87.56,1.626-8.33,2.449.479-.848,4.342,2.861.558.847-4.342,2.171.423-1.34,6.867,2.869.561,1.341-6.867,3.079.6-1.791,9.172,2.87.56,1.791-9.172,2.912.569-2.288,11.721-25.623-5,2.288-11.721,3.543.692Z" transform="translate(-83.176 -99.012)" fill="#ffc727"/>
          </g>
        </g>
        <g id="Group_1073311" data-name="Group 1073311">
          <g id="Group_1073310" data-name="Group 1073310" clip-path="url(#clip-path-2)">
            <path id="Path_610911" data-name="Path 610911" d="M476,269.688s-18.774,15.173-18.788,15.183c-3.605,2.883-6.715,5.475-8.2,6.965a.074.074,0,0,0-.023.025c-.561.562-.885.962-.9,1.156a.124.124,0,0,0-.006.039c.131,1.654,22.328,31.141,23.448,31.908s3.4-2.365,3.448-4.2-3.4-16.926-3.4-16.926L490.2,288.5Z" transform="translate(-139.133 -83.741)" fill="#c95f50"/>
            <path id="Path_610912" data-name="Path 610912" d="M461.061,287.191s-3.841,3.1-3.855,3.114c-3.605,2.883-6.715,5.475-8.2,6.965a.067.067,0,0,0-.023.025,6.265,6.265,0,0,0-.9,1.156.12.12,0,0,0-.005.039c.131,1.654,22.328,31.141,23.448,31.908s3.4-2.365,3.448-4.2-3.4-16.926-3.4-16.926l3.955-3.108Z" transform="translate(-139.133 -89.176)" fill="#ebebeb"/>
            <path id="Path_610913" data-name="Path 610913" d="M471.526,331.747c-1.122-.768-23.318-30.252-23.448-31.91-.061-.629,4.047-4.114,9.13-8.182l.161-.126L471.9,310.39l-.328.236s3.448,15.085,3.4,16.925-2.328,4.968-3.447,4.2" transform="translate(-139.133 -90.523)" fill="#727997"/>
            <path id="Path_610914" data-name="Path 610914" d="M473.156,334.668c-3.619-5.062-18.7-25.137-22.658-29.865-.032-.039-.059-.018-.031.023,3.478,5.1,18.716,25.048,22.608,29.9.082.1.158.046.081-.061" transform="translate(-139.871 -94.638)" fill="#263238"/>
            <path id="Path_610915" data-name="Path 610915" d="M481.195,319.425c-1.107-2.23-3.208-4.4-5.727-4.842-.1-.017-.121.122-.053.17a34.421,34.421,0,0,1,5.527,4.85.156.156,0,0,0,.253-.178" transform="translate(-147.61 -97.681)" fill="#263238"/>
            <path id="Path_610916" data-name="Path 610916" d="M481.5,322.4c-1.107-2.23-3.208-4.4-5.727-4.842-.1-.017-.121.122-.052.17a34.416,34.416,0,0,1,5.526,4.85.156.156,0,0,0,.253-.178" transform="translate(-147.705 -98.605)" fill="#263238"/>
            <path id="Path_610917" data-name="Path 610917" d="M481.81,325.378c-1.107-2.23-3.208-4.4-5.727-4.842-.1-.017-.121.122-.053.17a34.385,34.385,0,0,1,5.527,4.85.157.157,0,0,0,.253-.178" transform="translate(-147.801 -99.53)" fill="#263238"/>
            <path id="Path_610918" data-name="Path 610918" d="M490.421,215.625c-1.329,6.569-28.583,32.779-28.583,32.779l19,21.933s38.693-38.624,36.674-53.137c-1.757-12.624-20.657-63.392-20.657-63.392H475.05s16.679,55.358,15.371,61.817" transform="translate(-143.406 -47.759)" fill="#37474f"/>
            <path id="Path_610919" data-name="Path 610919" d="M490.421,215.625c-1.329,6.569-28.583,32.779-28.583,32.779l19,21.933s38.693-38.624,36.674-53.137c-1.757-12.624-20.657-63.392-20.657-63.392H475.05s16.679,55.358,15.371,61.817" transform="translate(-143.406 -47.759)" fill="#002040"/>
            <path id="Path_610920" data-name="Path 610920" d="M485.642,307.081c-2.525-3.143-1.756-2.276-4.315-5.39-1.253-1.524-9.493-11.531-10.911-12.747-.031-.027-.083.017-.063.052.95,1.609,9.364,11.47,10.646,12.97,2.619,3.064,1.9,2.156,4.553,5.191a.059.059,0,0,0,.09-.076" transform="translate(-146.049 -89.718)" fill="#263238"/>
            <path id="Path_610921" data-name="Path 610921" d="M496.216,213.446c-.312-1.64-.667-3.273-1.014-4.906q-1.064-5-2.25-9.977-2.355-9.867-5.122-19.622c-1.86-6.526-3.824-13.04-6.087-19.438-.279-.79-.568-1.578-.856-2.366a.05.05,0,0,0-.1.029c1.96,6.409,3.979,12.8,5.817,19.246,1.831,6.421,3.523,12.874,5.12,19.356.8,3.254,1.547,6.523,2.277,9.793q.537,2.411,1.049,4.827a34.5,34.5,0,0,1,.914,4.975,7.57,7.57,0,0,1-1.282,4.482c-.817,1.337-1.779,2.6-2.708,3.856-1.863,2.527-19.611,22.3-20.182,22.841-.045.042.023.105.068.066,2.382-2.138,17.441-18.439,19.353-20.961q1.42-1.871,2.774-3.791a14.981,14.981,0,0,0,2.166-3.818,8.994,8.994,0,0,0,.06-4.593" transform="translate(-146.493 -48.783)" fill="#263238"/>
            <path id="Path_610922" data-name="Path 610922" d="M499.035,153.8l-3.958,51.953C491.3,187.976,481,153.8,481,153.8Z" transform="translate(-149.358 -47.758)" fill="#263238"/>
            <path id="Path_610923" data-name="Path 610923" d="M493.594,308.947s4.707,22.92,4.706,22.937c.063,4.615.2,8.661.467,10.748a.084.084,0,0,0,0,.034,3.226,3.226,0,0,0,.36,1.421c.011.011.017.023.028.028,1.387.912,38.289,1.485,39.583,1.071s.217-4.133-1.2-5.3-15.451-7.7-15.451-7.7l-4.935-22.905Z" transform="translate(-153.267 -95.932)" fill="#c95f50"/>
            <path id="Path_610924" data-name="Path 610924" d="M540.5,353.72c-1.293.413-38.2-.158-39.583-1.069-.012-.006-.019-.019-.03-.03a3.23,3.23,0,0,1-.359-1.421.078.078,0,0,1-.006-.037c-.267-2.083-.4-6.127-.468-10.743,0-.006-.814-3.99-.814-3.99h23.687l.922,4.287s14.028,6.54,15.456,7.707c1.409,1.166,2.5,4.888,1.2,5.3" transform="translate(-155.019 -104.465)" fill="#ebebeb"/>
            <path id="Path_610925" data-name="Path 610925" d="M540.863,355.426c-1.3.414-38.195-.158-39.585-1.073-.534-.339-.764-5.72-.856-12.231,0-.068,0-.136,0-.2l23.81.1-.016.4s14.026,6.537,15.449,7.7,2.494,4.888,1.2,5.3" transform="translate(-155.387 -106.17)" fill="#727997"/>
            <path id="Path_610926" data-name="Path 610926" d="M541.6,359.2c-6.218-.249-31.319-.667-37.485-.441-.05,0-.051.036,0,.039,6.158.382,31.262.6,37.484.5.131,0,.132-.1,0-.1" transform="translate(-156.523 -111.377)" fill="#263238"/>
            <path id="Path_610927" data-name="Path 610927" d="M534.515,342.709c-2.441-.5-5.44-.165-7.338,1.549-.074.066.022.17.1.146a34.382,34.382,0,0,1,7.221-1.387.156.156,0,0,0,.015-.309" transform="translate(-163.686 -106.35)" fill="#263238"/>
            <path id="Path_610928" data-name="Path 610928" d="M537.054,344.293c-2.441-.5-5.44-.165-7.338,1.549-.074.066.022.17.1.146a34.4,34.4,0,0,1,7.222-1.387.156.156,0,0,0,.014-.309" transform="translate(-164.475 -106.842)" fill="#263238"/>
            <path id="Path_610929" data-name="Path 610929" d="M539.593,345.877c-2.441-.5-5.44-.166-7.338,1.549-.074.066.022.17.1.146a34.393,34.393,0,0,1,7.222-1.387.156.156,0,0,0,.015-.309" transform="translate(-165.263 -107.334)" fill="#263238"/>
            <path id="Path_610930" data-name="Path 610930" d="M494.165,153.8a88.648,88.648,0,0,0-1.874,10.88c-.454,4.563-1.024,8.6-1.633,9.1-.689.567-4.134,2.781-5.3,3.489,0,0,10.746,32.569,13.517,43.425,4.02,15.74,13.646,62.959,13.646,62.959l-25.65,0s-7.8-44.953-11.208-59.937c-2.923-12.846-14.122-51.384-14.122-51.384a22.375,22.375,0,0,1,.907-18.531s31.716-.017,31.713,0" transform="translate(-142.818 -47.756)" fill="#002040"/>
            <path id="Path_610931" data-name="Path 610931" d="M524.186,334.88c-4.031-.021-2.874-.072-6.905-.048-1.973.011-14.936.1-16.773.433a.043.043,0,0,0,0,.082c1.848.277,14.807-.037,16.779-.087,4.03-.1,2.872-.116,6.9-.262a.059.059,0,0,0,0-.118" transform="translate(-155.404 -103.967)" fill="#263238"/>
            <path id="Path_610932" data-name="Path 610932" d="M503.924,180.914a49.07,49.07,0,0,0-7.076,4.737.087.087,0,0,0,.1.145c2.4-1.5,4.855-2.965,7.167-4.6a.171.171,0,0,0-.186-.285" transform="translate(-154.266 -56.169)" fill="#263238"/>
            <path id="Path_610933" data-name="Path 610933" d="M502.467,155.2c-.021-.088-.18-.083-.164.012a86.715,86.715,0,0,1,.9,8.652c.086,1.342.157,8.821-2.221,8.645-.4-.03-.653-.378-.8-.947a9.307,9.307,0,0,1-.043-2.29c.017-1.571-.017-3.139-.125-4.706a42.465,42.465,0,0,0-1.437-8.639.075.075,0,0,0-.147.032,80.328,80.328,0,0,1,1.156,12.053c.008,1.947-.505,4.96,1.529,4.944,2.073-.016,2.639-5.017,2.683-6.368a44.356,44.356,0,0,0-1.329-11.388" transform="translate(-154.767 -48.171)" fill="#263238"/>
            <path id="Path_610934" data-name="Path 610934" d="M502.107,180.511a12.507,12.507,0,0,0-.281,1.6,3.476,3.476,0,0,0-.021,1.28c.021.079.13.07.164.009a4.423,4.423,0,0,0,.345-1.3c.1-.5.214-.99.3-1.489a.259.259,0,0,0-.509-.1" transform="translate(-155.8 -55.989)" fill="#263238"/>
            <path id="Path_610935" data-name="Path 610935" d="M467.488,176.579a25.33,25.33,0,0,0,6.5-1.229,15.386,15.386,0,0,0,6.3-3.89,12.328,12.328,0,0,0,2.417-3.381c.021-.049.1-.014.083.037a11.325,11.325,0,0,1-1.709,3.386,13.037,13.037,0,0,1-2.777,2.65,14.539,14.539,0,0,1-7.056,2.725,11.331,11.331,0,0,1-3.8-.061c-.141-.023-.085-.225.036-.238" transform="translate(-145.124 -52.183)" fill="#263238"/>
            <path id="Path_610936" data-name="Path 610936" d="M491.635,299.455c-.068-.594-.148-1.187-.232-1.778-.161-1.137-.352-2.269-.526-3.4-.351-2.28-.743-4.553-1.146-6.824-.8-4.529-1.734-9.044-2.714-13.539-.554-2.541-1.2-5.052-1.878-7.562-.047-.174-.294-.09-.263.08.413,2.3.81,4.6,1.28,6.882s.936,4.56,1.389,6.842c.9,4.513,1.731,9.038,2.623,13.551.252,1.273.481,2.552.729,3.826.124.636.252,1.271.39,1.9s.333,1.253.436,1.889c.01.06.1.032.091-.027-.1-.608-.11-1.23-.18-1.842" transform="translate(-150.559 -82.674)" fill="#263238"/>
            <path id="Path_610937" data-name="Path 610937" d="M513.12,241.07c-.854-4.256-2.006-8.457-3.163-12.638-2.331-8.417-5.075-16.713-7.813-25q-1.183-3.584-2.366-7.167c-.4-1.194-2.328-7.635-2.568-8.246a.052.052,0,0,0-.1.03c.554,2.195,1.314,5.392,1.955,7.565.633,2.147,1.324,4.278,1.991,6.414,1.309,4.2,2.642,8.392,3.915,12.6,2.514,8.323,5.011,16.643,7.052,25.1.572,2.368,1.141,4.733,1.663,7.112s.967,4.766,1.464,7.146a.06.06,0,0,0,.117-.018c-.429-4.338-1.289-8.626-2.146-12.9" transform="translate(-154.357 -58.37)" fill="#263238"/>
            <path id="Path_610938" data-name="Path 610938" d="M486.6,253.228c-1.412-8.119-3.1-16.195-4.977-24.219q-2.824-12.1-6.29-24.031c-2.31-7.952-4.87-15.833-7.62-23.643a98.88,98.88,0,0,1-3.483-11.248,26.843,26.843,0,0,1-.392-11.721,19.374,19.374,0,0,1,.877-2.85c.026-.064-.068-.117-.1-.052-3.085,7.187-1.083,15.05,1.266,22.137,1.287,3.883,2.659,7.735,3.929,11.623q1.954,5.987,3.745,12.026c2.367,7.977,4.565,16,6.534,24.086s3.722,16.219,5.265,24.393c1.548,8.2,2.85,16.442,4.17,24.684.172,1.071.307,2.15.448,3.226.008.061.1.059.094,0-.988-8.167-2.061-16.3-3.471-24.41" transform="translate(-143.78 -48.264)" fill="#263238"/>
            <path id="Path_610939" data-name="Path 610939" d="M496.2,101.489c3.017,11.026,11.714,24.338,15.839,26.169,3.6,1.6,20.3-4.577,26.6-8.59,1.8-1.144-5.617-11.466-7.777-10.746-7.049,2.351-14.726,5.824-15.319,5.623-1.2-.405-8.688-9.591-14.138-15.764-6.107-6.916-6.408-1.086-5.206,3.308" transform="translate(-153.9 -29.495)" fill="#c95f50"/>
            <path id="Path_610940" data-name="Path 610940" d="M574.593,114.09c1.418-.6,12.349-.943,12.345-3.312s-13.91-1.707-13.91-1.707Z" transform="translate(-177.932 -33.841)" fill="#c95f50"/>
            <path id="Path_610941" data-name="Path 610941" d="M544.9,114.308c1.911-2.374,3.589-4.934,5.25-5.4,1.151-.325,13.524.21,15.458.092s8.831.061,8.99,1.756c.225,2.4-7.939,2.375-8.81,3.6-3.008,4.229-14.445,10.481-14.445,10.481Z" transform="translate(-169.196 -33.783)" fill="#c95f50"/>
            <path id="Path_610942" data-name="Path 610942" d="M584.492,110.825a1.855,1.855,0,0,0-.791-1.066,5.86,5.86,0,0,0-2.952-.724,27.065,27.065,0,0,0-4.535-.036.026.026,0,0,0,0,.052c1.133.017,2.261.03,3.39.125a13.842,13.842,0,0,1,3.065.469,2.5,2.5,0,0,1,1.18.707.976.976,0,0,1,.232.912c-.33,1.044-2.388,1.353-3.339,1.566-1.242.278-2.531.522-3.778.778-.055.011-.029.094.026.083,1.3-.256,2.664-.356,3.964-.591a6.459,6.459,0,0,0,3.036-1.1,1.2,1.2,0,0,0,.5-1.17" transform="translate(-178.914 -33.821)" fill="#263238"/>
            <path id="Path_610943" data-name="Path 610943" d="M528.865,108.465l9.787,14.335s-15.182,7.6-20.971,7.463c-5.525-.131-7.527-.945-9.27-2.593-1.078-1.018-7.224-9.7-12.234-24.107-4.206-12.1,2.015-10.314,7.564-3.617,2.766,3.339,11.609,13.288,12.05,13.251s13.075-4.731,13.075-4.731" transform="translate(-153.639 -29.402)" fill="#0c5e46"/>
            <path id="Path_610944" data-name="Path 610944" d="M539.806,118.043c1.471,2.122,2.874,4.287,4.264,6.462.681,1.067,3.22,5.41,3.959,6.642.029.048-.1.129-.137.082-.767-1.089-3.532-5.425-4.195-6.5-1.35-2.2-2.686-4.4-3.951-6.646a.035.035,0,0,1,.061-.036" transform="translate(-167.596 -36.649)" fill="#263238"/>
            <g id="Group_1073309" data-name="Group 1073309" transform="translate(341.153 65.667)" opacity="0.1">
              <g id="Group_1073308" data-name="Group 1073308">
                <g id="Group_1073307" data-name="Group 1073307" clip-path="url(#clip-path-13)">
                  <path id="Path_610945" data-name="Path 610945" d="M520.613,130.071a12.539,12.539,0,0,1-2.934.363c-5.521-.128-7.525-.945-9.265-2.594-1.08-1.016-7.227-9.691-12.236-24.109a20.542,20.542,0,0,1-1.385-6.253c0-.135.007-.27.014-.391a3.054,3.054,0,0,1,.035-.37c.014-.106.028-.206.05-.3a2.114,2.114,0,0,1,.6-1.179c3.39,4.569,19.455,26.247,25.118,34.831" transform="translate(-494.792 -95.24)"/>
                </g>
              </g>
            </g>
            <rect id="Rectangle_378316" data-name="Rectangle 378316" width="37.123" height="1.996" transform="translate(365.796 73.175)" fill="#c7c7c7"/>
            <path id="Path_610946" data-name="Path 610946" d="M574.22,106.13v2H551.673l1.527-2Z" transform="translate(-171.301 -32.955)" fill="#a6a6a6"/>
            <path id="Path_610947" data-name="Path 610947" d="M556.266,99.145h24.826L594.012,77.2H569.186Z" transform="translate(-172.727 -23.972)" fill="#c7c7c7"/>
            <path id="Path_610948" data-name="Path 610948" d="M582.2,92.477a1.67,1.67,0,0,0,.762,2.387,2.115,2.115,0,0,0,2.44-1.291,1.67,1.67,0,0,0-.762-2.387,2.114,2.114,0,0,0-2.44,1.291" transform="translate(-180.716 -28.289)" fill="#fff"/>
            <path id="Path_610949" data-name="Path 610949" d="M460.107,142.515c.091.1,38.869-.179,39.217-.581.487-.565-8.7-42.486-12.73-47.636-.863-1.1-3.675-1.381-6.059-1.059a10.594,10.594,0,0,0-1.835.394.356.356,0,0,1-.062.017,4.406,4.406,0,0,0-1.344.675c-6.588,5.37-11.987,23.962-13.236,29.542-2.07,9.192-4.275,18.286-3.951,18.647" transform="translate(-142.859 -28.913)" fill="#ebebeb"/>
            <path id="Path_610950" data-name="Path 610950" d="M476.861,94.008s2.529,17.26,3.125,21.728.03,28.1.03,28.1l-24.331,2.053s5.1-15.692,5.151-16.687c0,0,4.036-18.855,8.2-26.645a23.571,23.571,0,0,1,7.826-8.545" transform="translate(-141.496 -29.191)" fill="#0c5e46"/>
            <path id="Path_610951" data-name="Path 610951" d="M498.149,94.444s3.284,17.459,3.578,18.9,4.5,29.813,4.5,29.813l6.091.128-3.307-12.959s-7.065-33.2-10.862-35.883" transform="translate(-154.681 -29.326)" fill="#0c5e46"/>
            <path id="Path_610952" data-name="Path 610952" d="M493.306,96.487c-1.852.211-5.351-2.359-6.328-5.087-.065-.188.485-1.959,1.052-4.144.339-1.327.686-2.813.9-4.191.043-.283,8.314,3.469,8.314,3.469a22.244,22.244,0,0,0-1.673,5.161,3.177,3.177,0,0,0-.03.575c0,.027,0,.059,0,.1,0,1.1-.255,3.9-2.237,4.122" transform="translate(-151.211 -25.788)" fill="#c95f50"/>
            <path id="Path_610953" data-name="Path 610953" d="M496.568,92.3c0,.028,0,.062-.006.1a5.913,5.913,0,0,1-.892-.094c-5.071-.918-5.406-7.5-5.41-9.156,1.5.463,8.009,3.418,8.009,3.418a22.283,22.283,0,0,0-1.675,5.164,3.143,3.143,0,0,0-.026.573" transform="translate(-152.231 -25.817)" fill="#263238"/>
            <path id="Path_610954" data-name="Path 610954" d="M489.619,65.28c-1.327,2.961-.821,12.063,1.12,14.322,2.814,3.275,7.978,4.2,10.9.7,2.835-3.4,1.964-15.251-.255-17.362-3.27-3.108-9.805-2.029-11.766,2.345" transform="translate(-151.803 -18.99)" fill="#c95f50"/>
            <path id="Path_610955" data-name="Path 610955" d="M499.409,76.478c-.006-.023-.047.032-.044.057.05.612,0,1.322-.539,1.553-.017.008-.014.038.007.034.672-.13.723-1.073.576-1.644" transform="translate(-154.888 -23.745)" fill="#263238"/>
            <path id="Path_610956" data-name="Path 610956" d="M498.5,75.592c-.99-.025-.967,1.957-.05,1.98s.88-1.96.05-1.98" transform="translate(-154.561 -23.472)" fill="#263238"/>
            <path id="Path_610957" data-name="Path 610957" d="M505.135,76.437c0-.023.048.028.048.054-.012.614.077,1.319.635,1.517.017.006.016.037,0,.034-.678-.088-.788-1.025-.678-1.605" transform="translate(-156.839 -23.733)" fill="#263238"/>
            <path id="Path_610958" data-name="Path 610958" d="M505.682,75.5c.987-.086,1.087,1.893.173,1.973s-1-1.9-.173-1.973" transform="translate(-156.845 -23.442)" fill="#263238"/>
            <path id="Path_610959" data-name="Path 610959" d="M497.43,73.656a7.739,7.739,0,0,0,.765-.279,1.318,1.318,0,0,0,.725-.434.419.419,0,0,0-.074-.506,1.039,1.039,0,0,0-1.049-.1,1.526,1.526,0,0,0-.872.671.447.447,0,0,0,.5.643" transform="translate(-154.282 -22.434)" fill="#263238"/>
            <path id="Path_610960" data-name="Path 610960" d="M506.294,72.494a7.592,7.592,0,0,1-.79-.2,1.313,1.313,0,0,1-.767-.353.418.418,0,0,1,.018-.511,1.038,1.038,0,0,1,1.032-.208,1.527,1.527,0,0,1,.94.572.447.447,0,0,1-.432.694" transform="translate(-156.702 -22.103)" fill="#263238"/>
            <path id="Path_610961" data-name="Path 610961" d="M499.355,84.715c.149.142.3.339.521.354a1.634,1.634,0,0,0,.659-.162.021.021,0,0,1,.027.031.828.828,0,0,1-.776.343.654.654,0,0,1-.489-.538c-.01-.035.037-.049.059-.028" transform="translate(-155.037 -26.302)" fill="#263238"/>
            <path id="Path_610962" data-name="Path 610962" d="M500.28,79.028a2.09,2.09,0,0,0,1.406.914,2.619,2.619,0,0,0,.753.026.742.742,0,0,0,.143-.018c.045-.006.085-.012.134-.022a.154.154,0,0,0,.122-.139v0a.322.322,0,0,0-.007-.063v0l0-.054c.008-.473-.047-1.191-.047-1.191.174.084,1.059.47,1.042.223a31.449,31.449,0,0,0-.885-6.317.057.057,0,0,0-.112.017c.063,1.968.471,3.914.565,5.89A3.674,3.674,0,0,0,502.4,78c-.067.021.13,1.387.11,1.6a.087.087,0,0,1,0,.023,2.9,2.9,0,0,1-2.172-.647c-.046-.034-.094.008-.057.056" transform="translate(-155.339 -22.461)" fill="#263238"/>
            <path id="Path_610963" data-name="Path 610963" d="M502.051,82.738a2.481,2.481,0,0,1-.984.781,1.115,1.115,0,0,1-.677.05c-.492-.123-.51-.573-.424-.959a2.687,2.687,0,0,1,.213-.592,3.213,3.213,0,0,0,1.872.719" transform="translate(-155.233 -25.468)" fill="#263238"/>
            <path id="Path_610964" data-name="Path 610964" d="M501.067,83.786a1.116,1.116,0,0,1-.677.05c-.492-.123-.51-.573-.424-.959a1.153,1.153,0,0,1,1.1.909" transform="translate(-155.233 -25.734)" fill="#ff9bbc"/>
            <path id="Path_610965" data-name="Path 610965" d="M488.135,71.786s-2.2-5.459-1.451-8.286c.338-1.278,2.25-1.864,2.25-1.864a2.972,2.972,0,0,1,1.408-2.8c1.771-1.2,5.436-.266,5.436-.266s2.977-3.09,6.163-1.154.334,5.44.334,5.44.963,1.98-2.32,2.87c-3.2.867-9.064-1.454-9.064-1.454a21.481,21.481,0,0,1-1.12,6.286,1.955,1.955,0,0,1-1.635,1.227" transform="translate(-151.073 -17.63)" fill="#263238"/>
            <path id="Path_610966" data-name="Path 610966" d="M497.349,59.163a6.059,6.059,0,0,0-2.328-.829,6.548,6.548,0,0,0-2.215-.014,3.63,3.63,0,0,0-2.962,2.281,2.533,2.533,0,0,0,.169,1.965c.012.025.051,0,.037-.025a2.646,2.646,0,0,1,.98-3.24,5.482,5.482,0,0,1,3.815-.743,10.69,10.69,0,0,1,2.471.675.039.039,0,0,0,.034-.07" transform="translate(-152.064 -18.082)" fill="#263238"/>
            <path id="Path_610967" data-name="Path 610967" d="M508.458,59.448a2.954,2.954,0,0,0-1.717-2.191,5.041,5.041,0,0,0-3.247-.414,6.353,6.353,0,0,0-2.959,1.527c-.019.017.01.049.029.033a5.583,5.583,0,0,1,5.591-1.1,2.732,2.732,0,0,1,1.452,4.367,5.7,5.7,0,0,1-2.55,1.84.019.019,0,0,0,.012.036,5.858,5.858,0,0,0,2.489-1.509,3.307,3.307,0,0,0,.9-2.588" transform="translate(-155.42 -17.619)" fill="#263238"/>
            <path id="Path_610968" data-name="Path 610968" d="M501.941,69.07a10.4,10.4,0,0,1-4.409.045,21.259,21.259,0,0,1-4.413-1.353c-.827-.348-1.642-.727-2.449-1.121-.026-.013-.043.026-.02.04a23.257,23.257,0,0,0,4.387,2.178,11.686,11.686,0,0,0,4.463.685,9.983,9.983,0,0,0,2.453-.441c.021-.007.01-.037-.011-.032" transform="translate(-152.349 -20.692)" fill="#263238"/>
            <path id="Path_610969" data-name="Path 610969" d="M490.192,77.044s-1.712-3.1-3.1-2.515-.309,4.921,1.167,5.654a1.571,1.571,0,0,0,2.182-.618Z" transform="translate(-151.05 -23.119)" fill="#c95f50"/>
            <path id="Path_610970" data-name="Path 610970" d="M487.865,76.354a.021.021,0,0,0-.012.04,3.971,3.971,0,0,1,1.78,2.686.866.866,0,0,0-1.265-.372c-.03.017-.008.063.023.061a.966.966,0,0,1,1.023.447,4.691,4.691,0,0,1,.416.909c.04.1.219.068.194-.046l-.006-.026c.172-1.37-.693-3.4-2.153-3.7" transform="translate(-151.48 -23.709)" fill="#263238"/>
            <path id="Path_610971" data-name="Path 610971" d="M471.642,98.612c-9.762,10.961-17.1,26.4-17.017,30.03.1,4,5.183,18.082,10.034,24.7.624.85,4.4.494,7.6-1.266,3.369-1.855,6.134-5.167,5.472-6.153-2.486-3.7-8.381-18.043-8.328-20.285.049-2.073,4.881-14.763,6.722-22.106,1.768-7.053.06-10.018-4.481-4.919" transform="translate(-141.166 -29.825)" fill="#c95f50"/>
            <path id="Path_610972" data-name="Path 610972" d="M458.517,152.169l18.18-8.879s-7.151-15.953-7.163-17.676,4.7-15.215,6.475-21.447,1.087-13.236-6.676-3.811-14.546,23.438-15.318,27.163,4.5,24.651,4.5,24.651" transform="translate(-140.953 -29.734)" fill="#0c5e46"/>
            <path id="Path_610973" data-name="Path 610973" d="M477.414,127.335q.563-1.775,1.161-3.539.67-1.976,1.4-3.932c.474-1.271,1-2.512,1.512-3.767.037-.091.2-.032.163.061-.6,1.678-1.17,3.373-1.734,5.068.425-.772.857-1.541,1.311-2.3a.057.057,0,0,1,.1.054c-.507.938-1.043,1.857-1.588,2.774q-.2.613-.409,1.225c-.763,2.277-1.5,4.566-2.152,6.876a7.93,7.93,0,0,0-.325,1.585,4.858,4.858,0,0,0,.268,1.807c.332,1.067.7,2.123,1.078,3.174.758,2.112,1.584,4.2,2.45,6.267.985,2.354,2.105,4.682,3.223,6.976,0,0-.679.181-.7.194s-.052-.021-.037-.039.428-.223.439-.223c-1.137-1.989-2.223-3.939-3.176-6.025q-1.416-3.1-2.56-6.305c-.394-1.1-.771-2.206-1.12-3.321a6.223,6.223,0,0,1-.306-3.25,34.636,34.636,0,0,1,1-3.362" transform="translate(-147.899 -36.035)" fill="#263238"/>
            <path id="Path_610974" data-name="Path 610974" d="M460.139,167.031a18.683,18.683,0,0,1,1.984-.937c.593-.276,1.181-.562,1.777-.83,1.3-.586,2.6-1.18,3.9-1.76s2.6-1.163,3.9-1.729,2.584-1.171,3.911-1.662a.048.048,0,0,1,.039.085c-1.207.741-2.495,1.358-3.761,1.991-1.249.624-2.519,1.209-3.792,1.78-1.3.581-2.612,1.127-3.93,1.661-.635.256-1.28.491-1.922.729a16.513,16.513,0,0,1-2.075.736.036.036,0,0,1-.03-.064" transform="translate(-142.874 -49.716)" fill="#263238"/>
          </g>
        </g>
      </g>
    </g>
  </g>
</svg>
