<svg xmlns="http://www.w3.org/2000/svg" xmlns:xlink="http://www.w3.org/1999/xlink" width="1328" height="576.208" viewBox="0 0 1328 576.208">
  <defs>
    <radialGradient id="radial-gradient" cx="0.386" cy="0.252" r="1.28" gradientTransform="matrix(0.667, 0, 0, -1, 0, 2)" gradientUnits="objectBoundingBox">
      <stop offset="0" stop-color="#f4f5f9"/>
      <stop offset="1" stop-color="#ecf7fa"/>
    </radialGradient>
    <linearGradient id="linear-gradient" x1="0.5" x2="0.5" y2="1" gradientUnits="objectBoundingBox">
      <stop offset="0" stop-color="#fff"/>
      <stop offset="1" stop-color="#fff" stop-opacity="0"/>
    </linearGradient>
    <linearGradient id="linear-gradient-2" y1="1" y2="0" xlink:href="#linear-gradient"/>
    <clipPath id="clip-path">
      <rect id="Rectangle_377831" data-name="Rectangle 377831" width="297.359" height="255.358" fill="none"/>
    </clipPath>
    <clipPath id="clip-path-4">
      <rect id="Rectangle_377812" data-name="Rectangle 377812" width="115.849" height="7.359" fill="#e1fbff"/>
    </clipPath>
    <clipPath id="clip-path-5">
      <rect id="Rectangle_377813" data-name="Rectangle 377813" width="69.777" height="63.387" fill="#727997"/>
    </clipPath>
    <clipPath id="clip-path-6">
      <rect id="Rectangle_377814" data-name="Rectangle 377814" width="7.194" height="3.424" fill="#0c5e46"/>
    </clipPath>
    <clipPath id="clip-path-7">
      <rect id="Rectangle_377815" data-name="Rectangle 377815" width="8.038" height="11.795" fill="#0c5e46"/>
    </clipPath>
    <clipPath id="clip-path-8">
      <rect id="Rectangle_377816" data-name="Rectangle 377816" width="7.539" height="6.849" fill="#0c5e46"/>
    </clipPath>
    <clipPath id="clip-path-9">
      <rect id="Rectangle_377817" data-name="Rectangle 377817" width="7.756" height="9.004" fill="#0c5e46"/>
    </clipPath>
    <clipPath id="clip-path-10">
      <rect id="Rectangle_377818" data-name="Rectangle 377818" width="7.4" height="5.467" fill="#0c5e46"/>
    </clipPath>
    <clipPath id="clip-path-11">
      <rect id="Rectangle_377819" data-name="Rectangle 377819" width="66.119" height="30.839" fill="#b0c0d2"/>
    </clipPath>
    <clipPath id="clip-path-13">
      <rect id="Rectangle_377821" data-name="Rectangle 377821" width="24.763" height="8.143" fill="#eba325"/>
    </clipPath>
    <clipPath id="clip-path-14">
      <rect id="Rectangle_377822" data-name="Rectangle 377822" width="9.368" height="10.137" fill="none"/>
    </clipPath>
    <clipPath id="clip-path-15">
      <rect id="Rectangle_377823" data-name="Rectangle 377823" width="7.415" height="8.374" fill="none"/>
    </clipPath>
    <clipPath id="clip-path-16">
      <rect id="Rectangle_377825" data-name="Rectangle 377825" width="5.686" height="13.012" fill="none"/>
    </clipPath>
    <clipPath id="clip-path-17">
      <rect id="Rectangle_377827" data-name="Rectangle 377827" width="7.997" height="38.025" fill="none"/>
    </clipPath>
    <clipPath id="clip-path-18">
      <rect id="Rectangle_377829" data-name="Rectangle 377829" width="10.874" height="13.632" fill="none"/>
    </clipPath>
  </defs>
  <g id="Group_1076358" data-name="Group 1076358" transform="translate(-136 -2752)">
    <path id="Path_612779" data-name="Path 612779" d="M0,0H1328V561.482H0Z" transform="translate(136 2766.726)" fill="url(#radial-gradient)"/>
    <path id="Path_612780" data-name="Path 612780" d="M0,0H1328V561.482H0Z" transform="translate(136 2766.726)" fill="none"/>
    <path id="Path_612781" data-name="Path 612781" d="M0,0H1328V101H0Z" transform="translate(136 2766.726)" fill="url(#linear-gradient)"/>
    <path id="Path_612792" data-name="Path 612792" d="M0,0H1328V101H0Z" transform="translate(136 3227)" fill="url(#linear-gradient-2)"/>
    <path id="Path_612782" data-name="Path 612782" d="M-82.617,0V-11.375h3.5a5.315,5.315,0,0,1,2.684.676,4.712,4.712,0,0,1,1.848,1.922,5.928,5.928,0,0,1,.664,2.832v.523a5.945,5.945,0,0,1-.652,2.82,4.672,4.672,0,0,1-1.84,1.914A5.355,5.355,0,0,1-79.094,0Zm2.344-9.477v7.594h1.133a2.545,2.545,0,0,0,2.1-.9,4.06,4.06,0,0,0,.742-2.57v-.6a4.124,4.124,0,0,0-.719-2.629,2.537,2.537,0,0,0-2.1-.895ZM-67.469,0A2.507,2.507,0,0,1-67.7-.758a2.732,2.732,0,0,1-2.133.914,3,3,0,0,1-2.059-.719A2.312,2.312,0,0,1-72.7-2.375a2.389,2.389,0,0,1,1-2.062,4.915,4.915,0,0,1,2.879-.727h1.039v-.484a1.393,1.393,0,0,0-.3-.937,1.183,1.183,0,0,0-.949-.352,1.345,1.345,0,0,0-.895.273.929.929,0,0,0-.324.75h-2.258a2.268,2.268,0,0,1,.453-1.359,3,3,0,0,1,1.281-.98,4.669,4.669,0,0,1,1.859-.355,3.689,3.689,0,0,1,2.48.785,2.747,2.747,0,0,1,.918,2.207v3.664a4.041,4.041,0,0,0,.336,1.82V0Zm-1.867-1.57a1.945,1.945,0,0,0,.922-.223,1.462,1.462,0,0,0,.625-.6V-3.844h-.844q-1.7,0-1.8,1.172l-.008.133a.9.9,0,0,0,.3.7A1.153,1.153,0,0,0-69.336-1.57Zm8.25-8.961v2.078h1.445V-6.8h-1.445v4.219a1.007,1.007,0,0,0,.18.672.9.9,0,0,0,.688.2,3.6,3.6,0,0,0,.664-.055V-.047a4.648,4.648,0,0,1-1.367.2,2.156,2.156,0,0,1-2.422-2.4V-6.8h-1.234V-8.453h1.234v-2.078ZM-58.969-4.3a5.013,5.013,0,0,1,.484-2.242A3.546,3.546,0,0,1-57.09-8.07a4.069,4.069,0,0,1,2.113-.539,3.849,3.849,0,0,1,2.793,1.047,4.2,4.2,0,0,1,1.207,2.844l.016.578A4.418,4.418,0,0,1-52.047-1.02,3.775,3.775,0,0,1-54.961.156a3.793,3.793,0,0,1-2.918-1.172A4.5,4.5,0,0,1-58.969-4.2Zm2.258.16A3.16,3.16,0,0,0-56.258-2.3a1.5,1.5,0,0,0,1.3.638,1.5,1.5,0,0,0,1.281-.63,3.457,3.457,0,0,0,.461-2.015A3.128,3.128,0,0,0-53.68-6.14a1.5,1.5,0,0,0-1.3-.649,1.474,1.474,0,0,0-1.281.646A3.516,3.516,0,0,0-56.711-4.144Zm11.719,1.808a.727.727,0,0,0-.41-.652,4.659,4.659,0,0,0-1.316-.426q-3.016-.633-3.016-2.562A2.323,2.323,0,0,1-48.8-7.855a3.766,3.766,0,0,1,2.441-.754,4.053,4.053,0,0,1,2.574.758,2.388,2.388,0,0,1,.965,1.969h-2.258a1.092,1.092,0,0,0-.312-.8A1.322,1.322,0,0,0-46.367-7a1.351,1.351,0,0,0-.883.258.814.814,0,0,0-.312.656.7.7,0,0,0,.355.605,3.657,3.657,0,0,0,1.2.4,9.8,9.8,0,0,1,1.422.379A2.336,2.336,0,0,1-42.8-2.43a2.2,2.2,0,0,1-.992,1.871,4.28,4.28,0,0,1-2.562.715,4.47,4.47,0,0,1-1.887-.379,3.166,3.166,0,0,1-1.293-1.039A2.414,2.414,0,0,1-50-2.687h2.141a1.179,1.179,0,0,0,.445.922,1.766,1.766,0,0,0,1.109.32,1.635,1.635,0,0,0,.98-.246A.766.766,0,0,0-44.992-2.336Zm12.211,0a.727.727,0,0,0-.41-.652,4.659,4.659,0,0,0-1.316-.426q-3.016-.633-3.016-2.562a2.323,2.323,0,0,1,.934-1.879,3.766,3.766,0,0,1,2.441-.754,4.053,4.053,0,0,1,2.574.758,2.388,2.388,0,0,1,.965,1.969h-2.258a1.092,1.092,0,0,0-.312-.8A1.322,1.322,0,0,0-34.156-7a1.351,1.351,0,0,0-.883.258.814.814,0,0,0-.312.656A.7.7,0,0,0-35-5.48a3.657,3.657,0,0,0,1.2.4,9.8,9.8,0,0,1,1.422.379A2.336,2.336,0,0,1-30.586-2.43a2.2,2.2,0,0,1-.992,1.871,4.28,4.28,0,0,1-2.562.715,4.47,4.47,0,0,1-1.887-.379A3.166,3.166,0,0,1-37.32-1.262a2.414,2.414,0,0,1-.469-1.426h2.141a1.179,1.179,0,0,0,.445.922,1.766,1.766,0,0,0,1.109.32,1.635,1.635,0,0,0,.98-.246A.766.766,0,0,0-32.781-2.336ZM-25.242.156A4.15,4.15,0,0,1-28.27-.984a4.054,4.054,0,0,1-1.168-3.039v-.219a5.106,5.106,0,0,1,.492-2.277,3.612,3.612,0,0,1,1.395-1.547,3.914,3.914,0,0,1,2.059-.543,3.508,3.508,0,0,1,2.73,1.094,4.444,4.444,0,0,1,1,3.1v.922h-5.383a2.1,2.1,0,0,0,.66,1.328,2,2,0,0,0,1.395.5,2.437,2.437,0,0,0,2.039-.945l1.109,1.242A3.389,3.389,0,0,1-23.32-.246,4.511,4.511,0,0,1-25.242.156ZM-25.5-6.789a1.411,1.411,0,0,0-1.09.455,2.357,2.357,0,0,0-.535,1.3h3.141v-.181a1.681,1.681,0,0,0-.406-1.165A1.456,1.456,0,0,0-25.5-6.789Zm4.688,2.5a4.954,4.954,0,0,1,.926-3.133,3,3,0,0,1,2.5-1.187,2.631,2.631,0,0,1,2.164.953l.094-.8h2.047V-.281a3.613,3.613,0,0,1-.5,1.93A3.236,3.236,0,0,1-15.008,2.9a4.985,4.985,0,0,1-2.141.43,4.635,4.635,0,0,1-1.812-.371A3.217,3.217,0,0,1-20.3,2l1-1.375a2.645,2.645,0,0,0,2.047.945,1.936,1.936,0,0,0,1.4-.48,1.8,1.8,0,0,0,.5-1.363V-.727a2.612,2.612,0,0,1-2.055.883,2.992,2.992,0,0,1-2.465-1.191,4.953,4.953,0,0,1-.941-3.16Zm2.258.168a3.085,3.085,0,0,0,.461,1.8,1.466,1.466,0,0,0,1.266.653,1.568,1.568,0,0,0,1.477-.775V-6a1.564,1.564,0,0,0-1.461-.775,1.476,1.476,0,0,0-1.277.665A3.477,3.477,0,0,0-18.555-4.121ZM-6.289-.859A2.831,2.831,0,0,1-8.6.156a2.67,2.67,0,0,1-2.074-.781,3.335,3.335,0,0,1-.73-2.289V-8.453h2.258v5.467q0,1.322,1.2,1.322a1.63,1.63,0,0,0,1.578-.8V-8.453H-4.1V0H-6.227ZM-7.3-12h2.461L-7-9.578H-8.836ZM-.32-8.453l.07.977A2.951,2.951,0,0,1,2.18-8.609a2.453,2.453,0,0,1,2,.789,3.682,3.682,0,0,1,.672,2.359V0H2.594V-5.406a1.465,1.465,0,0,0-.312-1.043,1.4,1.4,0,0,0-1.039-.324,1.553,1.553,0,0,0-1.43.813V0H-2.445V-8.453ZM14.438.156A4.15,4.15,0,0,1,11.41-.984a4.054,4.054,0,0,1-1.168-3.039v-.219a5.106,5.106,0,0,1,.492-2.277,3.612,3.612,0,0,1,1.395-1.547,3.914,3.914,0,0,1,2.059-.543,3.508,3.508,0,0,1,2.73,1.094,4.444,4.444,0,0,1,1,3.1v.922H12.531a2.1,2.1,0,0,0,.66,1.328,2,2,0,0,0,1.395.5,2.437,2.437,0,0,0,2.039-.945l1.109,1.242A3.389,3.389,0,0,1,16.359-.246,4.511,4.511,0,0,1,14.438.156ZM14.18-6.789a1.411,1.411,0,0,0-1.09.455,2.357,2.357,0,0,0-.535,1.3H15.7v-.181a1.681,1.681,0,0,0-.406-1.165A1.456,1.456,0,0,0,14.18-6.789Zm9.594,4.453a.727.727,0,0,0-.41-.652,4.659,4.659,0,0,0-1.316-.426q-3.016-.633-3.016-2.562a2.323,2.323,0,0,1,.934-1.879,3.766,3.766,0,0,1,2.441-.754,4.053,4.053,0,0,1,2.574.758,2.388,2.388,0,0,1,.965,1.969H23.688a1.092,1.092,0,0,0-.312-.8A1.322,1.322,0,0,0,22.4-7a1.351,1.351,0,0,0-.883.258.814.814,0,0,0-.312.656.7.7,0,0,0,.355.605,3.657,3.657,0,0,0,1.2.4A9.8,9.8,0,0,1,24.18-4.7,2.336,2.336,0,0,1,25.969-2.43a2.2,2.2,0,0,1-.992,1.871,4.28,4.28,0,0,1-2.562.715,4.47,4.47,0,0,1-1.887-.379,3.166,3.166,0,0,1-1.293-1.039,2.414,2.414,0,0,1-.469-1.426h2.141a1.179,1.179,0,0,0,.445.922,1.766,1.766,0,0,0,1.109.32,1.635,1.635,0,0,0,.98-.246A.766.766,0,0,0,23.773-2.336Zm6.352-8.2v2.078H31.57V-6.8H30.125v4.219a1.007,1.007,0,0,0,.18.672.9.9,0,0,0,.688.2,3.6,3.6,0,0,0,.664-.055V-.047a4.648,4.648,0,0,1-1.367.2,2.156,2.156,0,0,1-2.422-2.4V-6.8H26.633V-8.453h1.234v-2.078Zm7.453,4.2a6.134,6.134,0,0,0-.812-.062,1.654,1.654,0,0,0-1.68.867V0H32.828V-8.453h2.133l.063,1.008a2.092,2.092,0,0,1,1.883-1.164,2.366,2.366,0,0,1,.7.1ZM43.727-.859A2.831,2.831,0,0,1,41.414.156,2.67,2.67,0,0,1,39.34-.625a3.335,3.335,0,0,1-.73-2.289V-8.453h2.258v5.467q0,1.322,1.2,1.322a1.63,1.63,0,0,0,1.578-.8V-8.453h2.266V0H43.789Zm7.406-.8a1.481,1.481,0,0,0,1.016-.344,1.2,1.2,0,0,0,.406-.914h2.117A2.9,2.9,0,0,1,54.2-1.348,3.093,3.093,0,0,1,52.941-.238a3.949,3.949,0,0,1-1.77.395A3.67,3.67,0,0,1,48.313-1,4.56,4.56,0,0,1,47.266-4.18v-.148A4.508,4.508,0,0,1,48.3-7.445a3.627,3.627,0,0,1,2.852-1.164,3.555,3.555,0,0,1,2.543.9,3.2,3.2,0,0,1,.973,2.4H52.555a1.551,1.551,0,0,0-.406-1.072,1.354,1.354,0,0,0-1.031-.412,1.36,1.36,0,0,0-1.191.575,3.333,3.333,0,0,0-.4,1.866v.235a3.375,3.375,0,0,0,.4,1.878A1.377,1.377,0,0,0,51.133-1.664Zm7.531-8.867v2.078h1.445V-6.8H58.664v4.219a1.007,1.007,0,0,0,.18.672.9.9,0,0,0,.688.2,3.6,3.6,0,0,0,.664-.055V-.047a4.648,4.648,0,0,1-1.367.2,2.156,2.156,0,0,1-2.422-2.4V-6.8H55.172V-8.453h1.234v-2.078ZM66.43-.859A2.831,2.831,0,0,1,64.117.156a2.67,2.67,0,0,1-2.074-.781,3.335,3.335,0,0,1-.73-2.289V-8.453H63.57v5.467q0,1.322,1.2,1.322a1.63,1.63,0,0,0,1.578-.8V-8.453h2.266V0H66.492ZM75.07-6.336a6.134,6.134,0,0,0-.812-.062,1.654,1.654,0,0,0-1.68.867V0H70.32V-8.453h2.133l.063,1.008A2.092,2.092,0,0,1,74.4-8.609a2.366,2.366,0,0,1,.7.1ZM80.82,0a2.507,2.507,0,0,1-.227-.758,2.732,2.732,0,0,1-2.133.914A3,3,0,0,1,76.4-.562a2.312,2.312,0,0,1-.816-1.812,2.389,2.389,0,0,1,1-2.062,4.915,4.915,0,0,1,2.879-.727H80.5v-.484a1.393,1.393,0,0,0-.3-.937,1.183,1.183,0,0,0-.949-.352,1.345,1.345,0,0,0-.895.273.929.929,0,0,0-.324.75H75.773a2.268,2.268,0,0,1,.453-1.359,3,3,0,0,1,1.281-.98,4.669,4.669,0,0,1,1.859-.355,3.689,3.689,0,0,1,2.48.785,2.747,2.747,0,0,1,.918,2.207v3.664A4.041,4.041,0,0,0,83.1-.133V0ZM78.953-1.57a1.945,1.945,0,0,0,.922-.223,1.462,1.462,0,0,0,.625-.6V-3.844h-.844q-1.7,0-1.8,1.172l-.008.133a.9.9,0,0,0,.3.7A1.153,1.153,0,0,0,78.953-1.57Z" transform="translate(369 2798.21)" fill="#12263f"/>
    <path id="Path_612791" data-name="Path 612791" d="M0,0H609V561H0Z" transform="translate(810 2752)" fill="#fef5e5"/>
    <path id="Path_609665" data-name="Path 609665" d="M-7392.509-8525.627H-7349" transform="translate(8399 11759.726)" fill="none" stroke="#4ec7d1" stroke-width="3"/>
    <path id="Path_609666" data-name="Path 609666" d="M-7424.754-8591.358v-53.827H-7264" transform="translate(8406.5 11760.725)" fill="none" stroke="#4ec7d1" stroke-width="2"/>
    <path id="Path_609667" data-name="Path 609667" d="M-7518.685-8653.234v-119.278h123" transform="translate(8433.184 11769.056)" fill="none" stroke="#4ec7d1" stroke-width="2"/>
    <path id="Path_609668" data-name="Path 609668" d="M-7579-8668.95v-201.117h95" transform="translate(8416.5 11760.726)" fill="none" stroke="#4ec7d1" stroke-width="2"/>
    <path id="Path_609669" data-name="Path 609669" d="M-7264-8584.827v-60.359h-160.754" transform="translate(7887.509 11754.192)" fill="none" stroke="#4ec7d1" stroke-width="2"/>
    <path id="Path_609670" data-name="Path 609670" d="M-7395.683-8653.234v-119.278h-123" transform="translate(8080.683 11769.056)" fill="none" stroke="#4ec7d1" stroke-width="2"/>
    <path id="Path_609671" data-name="Path 609671" d="M-7484-8668.95v-201.117h-95" transform="translate(8244.5 11760.726)" fill="none" stroke="#4ec7d1" stroke-width="2"/>
    <path id="Path_609664" data-name="Path 609664" d="M27.973,1.311H-7.718V14.776h42.3Z" transform="translate(902.718 2915.954)" fill="#dde7ee" opacity="0.5"/>
    <g id="Group_1072573" data-name="Group 1072573" transform="translate(505 -20.714)">
      <path id="Subtraction_22" data-name="Subtraction 22" d="M0,67.207H188.775V12.219H152.03L147.17,0H0Z" transform="translate(580 2947.711) rotate(180)" fill="#dbe5f3"/>
      <text id="Enteros" transform="translate(483 2919.607)" fill="#12263f" font-size="16" font-family="Roboto-Bold, Roboto" font-weight="700"><tspan x="-27.422" y="0">Enteros</tspan></text>
    </g>
    <path id="Path_609664-2" data-name="Path 609664" d="M27.973,1.311H-7.718V14.776h42.3Z" transform="translate(1047.718 3257.793)" fill="#dde7ee" opacity="0.5"/>
    <g id="Group_1072573-2" data-name="Group 1072573" transform="translate(650 321.125)">
      <path id="Subtraction_22-2" data-name="Subtraction 22" d="M0,67.207H188.775V12.219H152.03L147.17,0H0Z" transform="translate(580 2947.711) rotate(180)" fill="#dbe5f3"/>
      <path id="Path_612800" data-name="Path 612800" d="M-29.148-3.789A4.025,4.025,0,0,1-30.5-.9,4.76,4.76,0,0,1-33.727.156a4.28,4.28,0,0,1-3.441-1.473,6.038,6.038,0,0,1-1.254-4.043v-.7a6.819,6.819,0,0,1,.578-2.891,4.332,4.332,0,0,1,1.652-1.918,4.629,4.629,0,0,1,2.5-.668,4.637,4.637,0,0,1,3.172,1.055,4.326,4.326,0,0,1,1.391,2.961h-2.344a2.376,2.376,0,0,0-.613-1.6,2.271,2.271,0,0,0-1.605-.5,1.991,1.991,0,0,0-1.754.84,4.707,4.707,0,0,0-.6,2.605V-5.3a5.038,5.038,0,0,0,.559,2.7,1.954,1.954,0,0,0,1.762.852,2.314,2.314,0,0,0,1.621-.5,2.241,2.241,0,0,0,.613-1.535ZM-22.859,0a2.507,2.507,0,0,1-.227-.758,2.732,2.732,0,0,1-2.133.914,3,3,0,0,1-2.059-.719,2.312,2.312,0,0,1-.816-1.812,2.389,2.389,0,0,1,1-2.062,4.915,4.915,0,0,1,2.879-.727h1.039v-.484a1.393,1.393,0,0,0-.3-.937,1.183,1.183,0,0,0-.949-.352,1.345,1.345,0,0,0-.895.273.929.929,0,0,0-.324.75h-2.258a2.268,2.268,0,0,1,.453-1.359,3,3,0,0,1,1.281-.98,4.669,4.669,0,0,1,1.859-.355,3.689,3.689,0,0,1,2.48.785,2.747,2.747,0,0,1,.918,2.207v3.664a4.041,4.041,0,0,0,.336,1.82V0Zm-1.867-1.57a1.945,1.945,0,0,0,.922-.223,1.462,1.462,0,0,0,.625-.6V-3.844h-.844q-1.7,0-1.8,1.172l-.008.133a.9.9,0,0,0,.3.7A1.153,1.153,0,0,0-24.727-1.57Zm10.3-4.766a6.134,6.134,0,0,0-.812-.062,1.654,1.654,0,0,0-1.68.867V0H-19.18V-8.453h2.133l.063,1.008A2.092,2.092,0,0,1-15.1-8.609a2.366,2.366,0,0,1,.7.1ZM-8.68,0a2.507,2.507,0,0,1-.227-.758,2.732,2.732,0,0,1-2.133.914A3,3,0,0,1-13.1-.562a2.312,2.312,0,0,1-.816-1.812,2.389,2.389,0,0,1,1-2.062,4.915,4.915,0,0,1,2.879-.727H-9v-.484a1.393,1.393,0,0,0-.3-.937,1.183,1.183,0,0,0-.949-.352,1.345,1.345,0,0,0-.895.273.929.929,0,0,0-.324.75h-2.258a2.268,2.268,0,0,1,.453-1.359,3,3,0,0,1,1.281-.98,4.669,4.669,0,0,1,1.859-.355,3.689,3.689,0,0,1,2.48.785,2.747,2.747,0,0,1,.918,2.207v3.664A4.041,4.041,0,0,0-6.4-.133V0Zm-1.867-1.57a1.945,1.945,0,0,0,.922-.223A1.462,1.462,0,0,0-9-2.391V-3.844h-.844q-1.7,0-1.8,1.172l-.008.133a.9.9,0,0,0,.3.7A1.153,1.153,0,0,0-10.547-1.57Zm9.063-.094A1.481,1.481,0,0,0-.469-2.008a1.2,1.2,0,0,0,.406-.914H2.055a2.9,2.9,0,0,1-.469,1.574A3.093,3.093,0,0,1,.324-.238a3.949,3.949,0,0,1-1.77.395A3.67,3.67,0,0,1-4.3-1,4.56,4.56,0,0,1-5.352-4.18v-.148A4.508,4.508,0,0,1-4.312-7.445,3.627,3.627,0,0,1-1.461-8.609a3.555,3.555,0,0,1,2.543.9,3.2,3.2,0,0,1,.973,2.4H-.062A1.551,1.551,0,0,0-.469-6.377,1.354,1.354,0,0,0-1.5-6.789a1.36,1.36,0,0,0-1.191.575,3.333,3.333,0,0,0-.4,1.866v.235a3.375,3.375,0,0,0,.4,1.878A1.377,1.377,0,0,0-1.484-1.664Zm7.531-8.867v2.078H7.492V-6.8H6.047v4.219a1.007,1.007,0,0,0,.18.672.9.9,0,0,0,.688.2,3.6,3.6,0,0,0,.664-.055V-.047a4.648,4.648,0,0,1-1.367.2,2.156,2.156,0,0,1-2.422-2.4V-6.8H2.555V-8.453H3.789v-2.078ZM12.641.156A4.15,4.15,0,0,1,9.613-.984,4.054,4.054,0,0,1,8.445-4.023v-.219A5.106,5.106,0,0,1,8.938-6.52a3.612,3.612,0,0,1,1.395-1.547,3.914,3.914,0,0,1,2.059-.543,3.508,3.508,0,0,1,2.73,1.094,4.444,4.444,0,0,1,1,3.1v.922H10.734a2.1,2.1,0,0,0,.66,1.328,2,2,0,0,0,1.395.5,2.437,2.437,0,0,0,2.039-.945l1.109,1.242A3.389,3.389,0,0,1,14.563-.246,4.511,4.511,0,0,1,12.641.156Zm-.258-6.945a1.411,1.411,0,0,0-1.09.455,2.357,2.357,0,0,0-.535,1.3H13.9v-.181a1.681,1.681,0,0,0-.406-1.165A1.456,1.456,0,0,0,12.383-6.789Zm9.766.453a6.134,6.134,0,0,0-.812-.062,1.654,1.654,0,0,0-1.68.867V0H17.4V-8.453h2.133l.063,1.008a2.092,2.092,0,0,1,1.883-1.164,2.366,2.366,0,0,1,.7.1ZM26.977.156A4.15,4.15,0,0,1,23.949-.984a4.054,4.054,0,0,1-1.168-3.039v-.219a5.106,5.106,0,0,1,.492-2.277,3.612,3.612,0,0,1,1.395-1.547,3.914,3.914,0,0,1,2.059-.543,3.508,3.508,0,0,1,2.73,1.094,4.444,4.444,0,0,1,1,3.1v.922H25.07a2.1,2.1,0,0,0,.66,1.328,2,2,0,0,0,1.395.5,2.437,2.437,0,0,0,2.039-.945l1.109,1.242A3.389,3.389,0,0,1,28.9-.246,4.511,4.511,0,0,1,26.977.156Zm-.258-6.945a1.411,1.411,0,0,0-1.09.455,2.357,2.357,0,0,0-.535,1.3h3.141v-.181a1.681,1.681,0,0,0-.406-1.165A1.456,1.456,0,0,0,26.719-6.789Zm9.594,4.453a.727.727,0,0,0-.41-.652,4.659,4.659,0,0,0-1.316-.426Q31.57-4.047,31.57-5.977A2.323,2.323,0,0,1,32.5-7.855a3.766,3.766,0,0,1,2.441-.754,4.053,4.053,0,0,1,2.574.758,2.388,2.388,0,0,1,.965,1.969H36.227a1.092,1.092,0,0,0-.312-.8A1.322,1.322,0,0,0,34.938-7a1.351,1.351,0,0,0-.883.258.814.814,0,0,0-.312.656.7.7,0,0,0,.355.605,3.657,3.657,0,0,0,1.2.4,9.8,9.8,0,0,1,1.422.379A2.336,2.336,0,0,1,38.508-2.43a2.2,2.2,0,0,1-.992,1.871,4.28,4.28,0,0,1-2.562.715,4.47,4.47,0,0,1-1.887-.379,3.166,3.166,0,0,1-1.293-1.039A2.414,2.414,0,0,1,31.3-2.687h2.141a1.179,1.179,0,0,0,.445.922A1.766,1.766,0,0,0,35-1.445a1.635,1.635,0,0,0,.98-.246A.766.766,0,0,0,36.313-2.336Z" transform="translate(483 2919.607)" fill="#12263f"/>
    </g>
    <g id="Group_1072571" data-name="Group 1072571" transform="translate(1000 2961.073)">
      <path id="Subtraction_4" data-name="Subtraction 4" d="M0,67.733H188.1V12.315H151.485L146.643,0H0Z" transform="translate(190 67.733) rotate(180)" fill="#e1efe3"/>
      <path id="Path_213850" data-name="Path 213850" d="M28.489,1.311H-7.718V14.97H35.19Z" transform="translate(7.718 55.97)" fill="#0c5e46" opacity="0.4"/>
    </g>
    <path id="Path_612793" data-name="Path 612793" d="M-19.051-4.164h-1.867V0h-2.344V-11.375h4.227a4.778,4.778,0,0,1,3.109.9,3.1,3.1,0,0,1,1.094,2.539A3.5,3.5,0,0,1-15.336-6a3.437,3.437,0,0,1-1.527,1.238L-14.4-.109V0h-2.516Zm-1.867-1.9h1.891a1.936,1.936,0,0,0,1.367-.449,1.606,1.606,0,0,0,.484-1.238,1.719,1.719,0,0,0-.457-1.266,1.9,1.9,0,0,0-1.4-.461h-1.883ZM-9.309.156A4.15,4.15,0,0,1-12.336-.984,4.054,4.054,0,0,1-13.5-4.023v-.219a5.106,5.106,0,0,1,.492-2.277,3.612,3.612,0,0,1,1.395-1.547,3.914,3.914,0,0,1,2.059-.543,3.508,3.508,0,0,1,2.73,1.094,4.444,4.444,0,0,1,1,3.1v.922h-5.383a2.1,2.1,0,0,0,.66,1.328,2,2,0,0,0,1.395.5,2.437,2.437,0,0,0,2.039-.945l1.109,1.242A3.389,3.389,0,0,1-7.387-.246,4.511,4.511,0,0,1-9.309.156Zm-.258-6.945a1.411,1.411,0,0,0-1.09.455,2.357,2.357,0,0,0-.535,1.3h3.141v-.181a1.681,1.681,0,0,0-.406-1.165A1.456,1.456,0,0,0-9.566-6.789ZM.348,0A2.507,2.507,0,0,1,.121-.758,2.732,2.732,0,0,1-2.012.156,3,3,0,0,1-4.07-.562a2.312,2.312,0,0,1-.816-1.812,2.389,2.389,0,0,1,1-2.062,4.915,4.915,0,0,1,2.879-.727H.027v-.484a1.393,1.393,0,0,0-.3-.937,1.183,1.183,0,0,0-.949-.352,1.345,1.345,0,0,0-.895.273.929.929,0,0,0-.324.75H-4.7a2.268,2.268,0,0,1,.453-1.359,3,3,0,0,1,1.281-.98,4.669,4.669,0,0,1,1.859-.355,3.689,3.689,0,0,1,2.48.785,2.747,2.747,0,0,1,.918,2.207v3.664a4.041,4.041,0,0,0,.336,1.82V0ZM-1.52-1.57A1.945,1.945,0,0,0-.6-1.793a1.462,1.462,0,0,0,.625-.6V-3.844H-.816q-1.7,0-1.8,1.172l-.008.133a.9.9,0,0,0,.3.7A1.153,1.153,0,0,0-1.52-1.57ZM6.41,0H4.145V-12H6.41Zm5.75.156A4.15,4.15,0,0,1,9.133-.984,4.054,4.054,0,0,1,7.965-4.023v-.219A5.106,5.106,0,0,1,8.457-6.52,3.612,3.612,0,0,1,9.852-8.066a3.914,3.914,0,0,1,2.059-.543,3.508,3.508,0,0,1,2.73,1.094,4.444,4.444,0,0,1,1,3.1v.922H10.254a2.1,2.1,0,0,0,.66,1.328,2,2,0,0,0,1.395.5,2.437,2.437,0,0,0,2.039-.945l1.109,1.242A3.389,3.389,0,0,1,14.082-.246,4.511,4.511,0,0,1,12.16.156ZM11.9-6.789a1.411,1.411,0,0,0-1.09.455,2.357,2.357,0,0,0-.535,1.3h3.141v-.181a1.681,1.681,0,0,0-.406-1.165A1.456,1.456,0,0,0,11.9-6.789ZM21.5-2.336a.727.727,0,0,0-.41-.652,4.659,4.659,0,0,0-1.316-.426q-3.016-.633-3.016-2.562a2.323,2.323,0,0,1,.934-1.879,3.766,3.766,0,0,1,2.441-.754,4.053,4.053,0,0,1,2.574.758,2.388,2.388,0,0,1,.965,1.969H21.41a1.092,1.092,0,0,0-.312-.8A1.322,1.322,0,0,0,20.121-7a1.351,1.351,0,0,0-.883.258.814.814,0,0,0-.312.656.7.7,0,0,0,.355.605,3.657,3.657,0,0,0,1.2.4A9.8,9.8,0,0,1,21.9-4.7,2.336,2.336,0,0,1,23.691-2.43,2.2,2.2,0,0,1,22.7-.559a4.28,4.28,0,0,1-2.562.715A4.47,4.47,0,0,1,18.25-.223a3.166,3.166,0,0,1-1.293-1.039,2.414,2.414,0,0,1-.469-1.426h2.141a1.179,1.179,0,0,0,.445.922,1.766,1.766,0,0,0,1.109.32,1.635,1.635,0,0,0,.98-.246A.766.766,0,0,0,21.5-2.336Z" transform="translate(1095 3002.428)" fill="#12263f"/>
    <g id="Group_1072572" data-name="Group 1072572" transform="translate(1105 3081.84)">
      <path id="Subtraction_4-2" data-name="Subtraction 4" d="M0,67.734H188.1V12.315H159.3L154.453,0H0Z" transform="translate(190 66.157) rotate(180)" fill="#e1fbff"/>
      <path id="Path_213850-2" data-name="Path 213850" d="M27.3,1.311H-7.718V14.522h41.5Z" transform="translate(7.718 55.016)" fill="#6debff" opacity="0.5"/>
    </g>
    <path id="Path_612795" data-name="Path 612795" d="M-24.992-1.883h4.977V0h-7.32V-11.375h2.344Zm5.82-2.422a5.013,5.013,0,0,1,.484-2.242A3.546,3.546,0,0,1-17.293-8.07a4.069,4.069,0,0,1,2.113-.539,3.849,3.849,0,0,1,2.793,1.047A4.2,4.2,0,0,1-11.18-4.719l.016.578A4.418,4.418,0,0,1-12.25-1.02,3.775,3.775,0,0,1-15.164.156a3.793,3.793,0,0,1-2.918-1.172A4.5,4.5,0,0,1-19.172-4.2Zm2.258.16A3.16,3.16,0,0,0-16.461-2.3a1.5,1.5,0,0,0,1.3.638,1.5,1.5,0,0,0,1.281-.63,3.457,3.457,0,0,0,.461-2.015,3.128,3.128,0,0,0-.461-1.831,1.5,1.5,0,0,0-1.3-.649,1.474,1.474,0,0,0-1.281.646A3.516,3.516,0,0,0-16.914-4.144ZM-14.734-12h2.461l-2.164,2.422h-1.836ZM-10.1-4.289a4.954,4.954,0,0,1,.926-3.133,3,3,0,0,1,2.5-1.187,2.631,2.631,0,0,1,2.164.953l.094-.8h2.047V-.281a3.613,3.613,0,0,1-.5,1.93A3.236,3.236,0,0,1-4.3,2.9a4.985,4.985,0,0,1-2.141.43A4.635,4.635,0,0,1-8.25,2.957,3.217,3.217,0,0,1-9.586,2l1-1.375a2.645,2.645,0,0,0,2.047.945,1.936,1.936,0,0,0,1.4-.48,1.8,1.8,0,0,0,.5-1.363V-.727A2.612,2.612,0,0,1-6.7.156,2.992,2.992,0,0,1-9.16-1.035,4.953,4.953,0,0,1-10.1-4.2Zm2.258.168a3.085,3.085,0,0,0,.461,1.8,1.466,1.466,0,0,0,1.266.653,1.568,1.568,0,0,0,1.477-.775V-6A1.564,1.564,0,0,0-6.1-6.773a1.476,1.476,0,0,0-1.277.665A3.477,3.477,0,0,0-7.844-4.121ZM1.742,0H-.523V-8.453H1.742Zm-2.4-10.641a1.112,1.112,0,0,1,.34-.836A1.277,1.277,0,0,1,.609-11.8a1.28,1.28,0,0,1,.922.328,1.105,1.105,0,0,1,.344.836,1.108,1.108,0,0,1-.348.844,1.283,1.283,0,0,1-.918.328A1.283,1.283,0,0,1-.309-9.8,1.108,1.108,0,0,1-.656-10.641ZM7.117-1.664a1.481,1.481,0,0,0,1.016-.344,1.2,1.2,0,0,0,.406-.914h2.117a2.9,2.9,0,0,1-.469,1.574A3.093,3.093,0,0,1,8.926-.238a3.949,3.949,0,0,1-1.77.395A3.67,3.67,0,0,1,4.3-1,4.56,4.56,0,0,1,3.25-4.18v-.148A4.508,4.508,0,0,1,4.289-7.445,3.627,3.627,0,0,1,7.141-8.609a3.555,3.555,0,0,1,2.543.9,3.2,3.2,0,0,1,.973,2.4H8.539a1.551,1.551,0,0,0-.406-1.072A1.354,1.354,0,0,0,7.1-6.789a1.36,1.36,0,0,0-1.191.575,3.333,3.333,0,0,0-.4,1.866v.235a3.375,3.375,0,0,0,.4,1.878A1.377,1.377,0,0,0,7.117-1.664ZM11.594-4.3a5.013,5.013,0,0,1,.484-2.242A3.546,3.546,0,0,1,13.473-8.07a4.069,4.069,0,0,1,2.113-.539,3.849,3.849,0,0,1,2.793,1.047,4.2,4.2,0,0,1,1.207,2.844l.016.578A4.418,4.418,0,0,1,18.516-1.02,3.775,3.775,0,0,1,15.6.156a3.793,3.793,0,0,1-2.918-1.172A4.5,4.5,0,0,1,11.594-4.2Zm2.258.16A3.16,3.16,0,0,0,14.3-2.3a1.5,1.5,0,0,0,1.3.638,1.5,1.5,0,0,0,1.281-.63,3.457,3.457,0,0,0,.461-2.015,3.128,3.128,0,0,0-.461-1.831,1.5,1.5,0,0,0-1.3-.649,1.474,1.474,0,0,0-1.281.646A3.516,3.516,0,0,0,13.852-4.144ZM25.57-2.336a.727.727,0,0,0-.41-.652,4.659,4.659,0,0,0-1.316-.426q-3.016-.633-3.016-2.562a2.323,2.323,0,0,1,.934-1.879A3.766,3.766,0,0,1,24.2-8.609a4.053,4.053,0,0,1,2.574.758,2.388,2.388,0,0,1,.965,1.969H25.484a1.092,1.092,0,0,0-.312-.8A1.322,1.322,0,0,0,24.2-7a1.351,1.351,0,0,0-.883.258A.814.814,0,0,0,23-6.086a.7.7,0,0,0,.355.605,3.657,3.657,0,0,0,1.2.4,9.8,9.8,0,0,1,1.422.379A2.336,2.336,0,0,1,27.766-2.43a2.2,2.2,0,0,1-.992,1.871,4.28,4.28,0,0,1-2.562.715,4.47,4.47,0,0,1-1.887-.379,3.166,3.166,0,0,1-1.293-1.039,2.414,2.414,0,0,1-.469-1.426H22.7a1.179,1.179,0,0,0,.445.922,1.766,1.766,0,0,0,1.109.32,1.635,1.635,0,0,0,.98-.246A.766.766,0,0,0,25.57-2.336Z" transform="translate(1200 3121.175)" fill="#12263f"/>
    <path id="Path_609664-3" data-name="Path 609664" d="M-1.112,1.311H34.579V14.775h-42.3Z" transform="translate(670.421 2915.954)" fill="#dde7ee" opacity="0.5"/>
    <g id="Group_1072573-3" data-name="Group 1072573" transform="translate(515.001 2859.79)">
      <path id="Subtraction_22-3" data-name="Subtraction 22" d="M0,0H188.775V54.987H152.03l-4.86,12.219H0Z" transform="translate(0 0)" fill="#dbe5f3"/>
      <path id="Path_612799" data-name="Path 612799" d="M-24.289-3.789A4.025,4.025,0,0,1-25.645-.9,4.76,4.76,0,0,1-28.867.156a4.28,4.28,0,0,1-3.441-1.473,6.038,6.038,0,0,1-1.254-4.043v-.7a6.819,6.819,0,0,1,.578-2.891,4.332,4.332,0,0,1,1.652-1.918,4.629,4.629,0,0,1,2.5-.668,4.637,4.637,0,0,1,3.172,1.055,4.326,4.326,0,0,1,1.391,2.961h-2.344a2.376,2.376,0,0,0-.613-1.6,2.271,2.271,0,0,0-1.605-.5,1.991,1.991,0,0,0-1.754.84,4.707,4.707,0,0,0-.6,2.605V-5.3a5.038,5.038,0,0,0,.559,2.7,1.954,1.954,0,0,0,1.762.852,2.314,2.314,0,0,0,1.621-.5,2.241,2.241,0,0,0,.613-1.535ZM-23.25-4.3a5.013,5.013,0,0,1,.484-2.242A3.546,3.546,0,0,1-21.371-8.07a4.069,4.069,0,0,1,2.113-.539,3.849,3.849,0,0,1,2.793,1.047,4.2,4.2,0,0,1,1.207,2.844l.016.578A4.418,4.418,0,0,1-16.328-1.02,3.775,3.775,0,0,1-19.242.156,3.793,3.793,0,0,1-22.16-1.016,4.5,4.5,0,0,1-23.25-4.2Zm2.258.16A3.16,3.16,0,0,0-20.539-2.3a1.5,1.5,0,0,0,1.3.638,1.5,1.5,0,0,0,1.281-.63A3.457,3.457,0,0,0-17.5-4.309a3.128,3.128,0,0,0-.461-1.831,1.5,1.5,0,0,0-1.3-.649,1.474,1.474,0,0,0-1.281.646A3.516,3.516,0,0,0-20.992-4.144Zm9.258-4.309.07.945a2.971,2.971,0,0,1,2.43-1.1A2.255,2.255,0,0,1-6.992-7.32,2.9,2.9,0,0,1-4.453-8.609a2.521,2.521,0,0,1,2.047.8A3.681,3.681,0,0,1-1.734-5.4V0H-4V-5.391a1.61,1.61,0,0,0-.281-1.051,1.246,1.246,0,0,0-.992-.332A1.409,1.409,0,0,0-6.68-5.8L-6.672,0H-8.93V-5.383a1.59,1.59,0,0,0-.289-1.062,1.259,1.259,0,0,0-.984-.328,1.463,1.463,0,0,0-1.391.8V0h-2.258V-8.453Zm19.344,4.3A5.07,5.07,0,0,1,6.723-1.02,2.843,2.843,0,0,1,4.328.156a2.633,2.633,0,0,1-2.07-.891V3.25H0v-11.7H2.094l.078.828a2.654,2.654,0,0,1,2.141-.984,2.862,2.862,0,0,1,2.43,1.156,5.207,5.207,0,0,1,.867,3.188ZM5.352-4.312a3.327,3.327,0,0,0-.418-1.82,1.361,1.361,0,0,0-1.215-.641,1.478,1.478,0,0,0-1.461.813V-2.5a1.5,1.5,0,0,0,1.477.836Q5.352-1.664,5.352-4.312ZM11.391,0H9.125V-12h2.266Zm5.75.156A4.15,4.15,0,0,1,14.113-.984a4.054,4.054,0,0,1-1.168-3.039v-.219a5.106,5.106,0,0,1,.492-2.277,3.612,3.612,0,0,1,1.395-1.547,3.914,3.914,0,0,1,2.059-.543,3.508,3.508,0,0,1,2.73,1.094,4.444,4.444,0,0,1,1,3.1v.922H15.234a2.1,2.1,0,0,0,.66,1.328,2,2,0,0,0,1.395.5,2.437,2.437,0,0,0,2.039-.945l1.109,1.242A3.389,3.389,0,0,1,19.063-.246,4.511,4.511,0,0,1,17.141.156Zm-.258-6.945a1.411,1.411,0,0,0-1.09.455,2.357,2.357,0,0,0-.535,1.3H18.4v-.181a1.681,1.681,0,0,0-.406-1.165A1.456,1.456,0,0,0,16.883-6.789Zm7.406-1.664V.461a3.024,3.024,0,0,1-.742,2.176,2.821,2.821,0,0,1-2.141.777,4.591,4.591,0,0,1-1.117-.133V1.492a4.238,4.238,0,0,0,.711.07q1.023,0,1.023-1.086v-8.93Zm-2.445-2.187a1.112,1.112,0,0,1,.34-.836,1.277,1.277,0,0,1,.926-.328,1.277,1.277,0,0,1,.926.328,1.112,1.112,0,0,1,.34.836,1.108,1.108,0,0,1-.348.844,1.283,1.283,0,0,1-.918.328,1.283,1.283,0,0,1-.918-.328A1.108,1.108,0,0,1,21.844-10.641ZM25.7-4.3a5.013,5.013,0,0,1,.484-2.242A3.546,3.546,0,0,1,27.582-8.07,4.069,4.069,0,0,1,29.7-8.609a3.849,3.849,0,0,1,2.793,1.047A4.2,4.2,0,0,1,33.7-4.719l.016.578A4.418,4.418,0,0,1,32.625-1.02,3.775,3.775,0,0,1,29.711.156a3.793,3.793,0,0,1-2.918-1.172A4.5,4.5,0,0,1,25.7-4.2Zm2.258.16A3.16,3.16,0,0,0,28.414-2.3a1.5,1.5,0,0,0,1.3.638,1.5,1.5,0,0,0,1.281-.63,3.457,3.457,0,0,0,.461-2.015,3.128,3.128,0,0,0-.461-1.831,1.5,1.5,0,0,0-1.3-.649,1.474,1.474,0,0,0-1.281.646A3.516,3.516,0,0,0,27.961-4.144Z" transform="translate(97 39.103)" fill="#12263f"/>
    </g>
    <path id="Path_612783" data-name="Path 612783" d="M0,0H188.1V55.418H151.485l-4.843,12.315H0Z" transform="translate(390 2961.072)" fill="#e1efe3"/>
    <path id="Path_213850-3" data-name="Path 213850" d="M-1.017,1.311H35.19V14.97H-7.718Z" transform="translate(544.81 3017.042)" fill="#0c5e46" opacity="0.4"/>
    <path id="Path_612784" data-name="Path 612784" d="M-30-3.789A4.025,4.025,0,0,1-31.352-.9,4.76,4.76,0,0,1-34.574.156a4.28,4.28,0,0,1-3.441-1.473A6.038,6.038,0,0,1-39.27-5.359v-.7a6.819,6.819,0,0,1,.578-2.891,4.332,4.332,0,0,1,1.652-1.918,4.629,4.629,0,0,1,2.5-.668,4.637,4.637,0,0,1,3.172,1.055A4.326,4.326,0,0,1-29.98-7.516h-2.344a2.376,2.376,0,0,0-.613-1.6,2.271,2.271,0,0,0-1.605-.5,1.991,1.991,0,0,0-1.754.84,4.707,4.707,0,0,0-.6,2.605V-5.3a5.038,5.038,0,0,0,.559,2.7,1.954,1.954,0,0,0,1.762.852,2.314,2.314,0,0,0,1.621-.5,2.241,2.241,0,0,0,.613-1.535ZM-23.707,0a2.507,2.507,0,0,1-.227-.758,2.732,2.732,0,0,1-2.133.914,3,3,0,0,1-2.059-.719,2.312,2.312,0,0,1-.816-1.812,2.389,2.389,0,0,1,1-2.062,4.915,4.915,0,0,1,2.879-.727h1.039v-.484a1.393,1.393,0,0,0-.3-.937,1.183,1.183,0,0,0-.949-.352,1.345,1.345,0,0,0-.895.273.929.929,0,0,0-.324.75h-2.258A2.268,2.268,0,0,1-28.3-7.273a3,3,0,0,1,1.281-.98,4.669,4.669,0,0,1,1.859-.355,3.689,3.689,0,0,1,2.48.785,2.747,2.747,0,0,1,.918,2.207v3.664a4.041,4.041,0,0,0,.336,1.82V0Zm-1.867-1.57a1.945,1.945,0,0,0,.922-.223,1.462,1.462,0,0,0,.625-.6V-3.844h-.844q-1.7,0-1.8,1.172l-.008.133a.9.9,0,0,0,.3.7A1.153,1.153,0,0,0-25.574-1.57Zm5.2-2.719a5.094,5.094,0,0,1,.887-3.148,2.877,2.877,0,0,1,2.426-1.172,2.589,2.589,0,0,1,2.039.922V-12h2.266V0H-14.8l-.109-.9A2.657,2.657,0,0,1-17.082.156,2.869,2.869,0,0,1-19.477-1.02,5.258,5.258,0,0,1-20.379-4.289Zm2.258.168A3.337,3.337,0,0,0-17.707-2.3a1.349,1.349,0,0,0,1.2.634,1.511,1.511,0,0,0,1.477-.884V-5.889a1.489,1.489,0,0,0-1.461-.884Q-18.121-6.773-18.121-4.121Zm11,4.277A4.15,4.15,0,0,1-10.148-.984a4.054,4.054,0,0,1-1.168-3.039v-.219a5.106,5.106,0,0,1,.492-2.277A3.612,3.612,0,0,1-9.43-8.066a3.914,3.914,0,0,1,2.059-.543,3.508,3.508,0,0,1,2.73,1.094,4.444,4.444,0,0,1,1,3.1v.922H-9.027a2.1,2.1,0,0,0,.66,1.328,2,2,0,0,0,1.395.5,2.437,2.437,0,0,0,2.039-.945l1.109,1.242A3.389,3.389,0,0,1-5.2-.246,4.511,4.511,0,0,1-7.121.156Zm-.258-6.945a1.411,1.411,0,0,0-1.09.455A2.357,2.357,0,0,0-9-5.031h3.141v-.181A1.681,1.681,0,0,0-6.27-6.377,1.456,1.456,0,0,0-7.379-6.789ZM-.285-8.453l.07.977a2.951,2.951,0,0,1,2.43-1.133,2.453,2.453,0,0,1,2,.789,3.682,3.682,0,0,1,.672,2.359V0H2.629V-5.406a1.465,1.465,0,0,0-.312-1.043,1.4,1.4,0,0,0-1.039-.324,1.553,1.553,0,0,0-1.43.813V0H-2.41V-8.453ZM11.5,0a2.507,2.507,0,0,1-.227-.758A2.732,2.732,0,0,1,9.137.156,3,3,0,0,1,7.078-.562a2.312,2.312,0,0,1-.816-1.812,2.389,2.389,0,0,1,1-2.062,4.915,4.915,0,0,1,2.879-.727h1.039v-.484a1.393,1.393,0,0,0-.3-.937,1.183,1.183,0,0,0-.949-.352,1.345,1.345,0,0,0-.895.273.929.929,0,0,0-.324.75H6.449A2.268,2.268,0,0,1,6.9-7.273a3,3,0,0,1,1.281-.98,4.669,4.669,0,0,1,1.859-.355,3.689,3.689,0,0,1,2.48.785,2.747,2.747,0,0,1,.918,2.207v3.664a4.041,4.041,0,0,0,.336,1.82V0ZM9.629-1.57a1.945,1.945,0,0,0,.922-.223,1.462,1.462,0,0,0,.625-.6V-3.844h-.844q-1.7,0-1.8,1.172l-.008.133a.9.9,0,0,0,.3.7A1.153,1.153,0,0,0,9.629-1.57Zm9.18-2.719A5.094,5.094,0,0,1,19.7-7.437a2.877,2.877,0,0,1,2.426-1.172,2.589,2.589,0,0,1,2.039.922V-12h2.266V0H24.387l-.109-.9A2.657,2.657,0,0,1,22.105.156,2.869,2.869,0,0,1,19.711-1.02,5.258,5.258,0,0,1,18.809-4.289Zm2.258.168A3.337,3.337,0,0,0,21.48-2.3a1.349,1.349,0,0,0,1.2.634,1.511,1.511,0,0,0,1.477-.884V-5.889A1.489,1.489,0,0,0,22.7-6.773Q21.066-6.773,21.066-4.121Zm11,4.277A4.15,4.15,0,0,1,29.039-.984a4.054,4.054,0,0,1-1.168-3.039v-.219a5.106,5.106,0,0,1,.492-2.277,3.612,3.612,0,0,1,1.395-1.547,3.914,3.914,0,0,1,2.059-.543,3.508,3.508,0,0,1,2.73,1.094,4.444,4.444,0,0,1,1,3.1v.922H30.16a2.1,2.1,0,0,0,.66,1.328,2,2,0,0,0,1.395.5,2.437,2.437,0,0,0,2.039-.945l1.109,1.242A3.389,3.389,0,0,1,33.988-.246,4.511,4.511,0,0,1,32.066.156Zm-.258-6.945a1.411,1.411,0,0,0-1.09.455,2.357,2.357,0,0,0-.535,1.3h3.141v-.181a1.681,1.681,0,0,0-.406-1.165A1.456,1.456,0,0,0,31.809-6.789Zm-93.59,22.125a1.481,1.481,0,0,0,1.016-.344,1.2,1.2,0,0,0,.406-.914h2.117a2.9,2.9,0,0,1-.469,1.574,3.093,3.093,0,0,1-1.262,1.109,3.949,3.949,0,0,1-1.77.395A3.67,3.67,0,0,1-64.6,16a4.56,4.56,0,0,1-1.047-3.184v-.148a4.508,4.508,0,0,1,1.039-3.117,3.627,3.627,0,0,1,2.852-1.164,3.555,3.555,0,0,1,2.543.9,3.2,3.2,0,0,1,.973,2.4h-2.117a1.551,1.551,0,0,0-.406-1.072,1.354,1.354,0,0,0-1.031-.412,1.36,1.36,0,0,0-1.191.575,3.333,3.333,0,0,0-.4,1.866v.235a3.375,3.375,0,0,0,.4,1.878A1.377,1.377,0,0,0-61.781,15.336ZM-52.055,17a2.507,2.507,0,0,1-.227-.758,2.732,2.732,0,0,1-2.133.914,3,3,0,0,1-2.059-.719,2.312,2.312,0,0,1-.816-1.812,2.389,2.389,0,0,1,1-2.062,4.915,4.915,0,0,1,2.879-.727h1.039v-.484a1.393,1.393,0,0,0-.3-.937,1.183,1.183,0,0,0-.949-.352,1.345,1.345,0,0,0-.895.273.929.929,0,0,0-.324.75H-57.1a2.268,2.268,0,0,1,.453-1.359,3,3,0,0,1,1.281-.98,4.669,4.669,0,0,1,1.859-.355,3.689,3.689,0,0,1,2.48.785,2.747,2.747,0,0,1,.918,2.207v3.664a4.041,4.041,0,0,0,.336,1.82V17Zm-1.867-1.57A1.945,1.945,0,0,0-53,15.207a1.462,1.462,0,0,0,.625-.6V13.156h-.844q-1.7,0-1.8,1.172l-.008.133a.9.9,0,0,0,.3.7A1.153,1.153,0,0,0-53.922,15.43Zm10.3-4.766a6.134,6.134,0,0,0-.812-.062,1.654,1.654,0,0,0-1.68.867V17h-2.258V8.547h2.133l.063,1.008A2.092,2.092,0,0,1-44.3,8.391a2.366,2.366,0,0,1,.7.1ZM-37.875,17a2.507,2.507,0,0,1-.227-.758,2.732,2.732,0,0,1-2.133.914,3,3,0,0,1-2.059-.719,2.312,2.312,0,0,1-.816-1.812,2.389,2.389,0,0,1,1-2.062,4.915,4.915,0,0,1,2.879-.727H-38.2v-.484a1.393,1.393,0,0,0-.3-.937,1.183,1.183,0,0,0-.949-.352,1.345,1.345,0,0,0-.895.273.929.929,0,0,0-.324.75h-2.258a2.268,2.268,0,0,1,.453-1.359,3,3,0,0,1,1.281-.98,4.669,4.669,0,0,1,1.859-.355,3.689,3.689,0,0,1,2.48.785,2.747,2.747,0,0,1,.918,2.207v3.664a4.041,4.041,0,0,0,.336,1.82V17Zm-1.867-1.57a1.945,1.945,0,0,0,.922-.223,1.462,1.462,0,0,0,.625-.6V13.156h-.844q-1.7,0-1.8,1.172l-.008.133a.9.9,0,0,0,.3.7A1.153,1.153,0,0,0-39.742,15.43Zm9.063-.094a1.481,1.481,0,0,0,1.016-.344,1.2,1.2,0,0,0,.406-.914h2.117a2.9,2.9,0,0,1-.469,1.574,3.093,3.093,0,0,1-1.262,1.109,3.949,3.949,0,0,1-1.77.395A3.67,3.67,0,0,1-33.5,16a4.56,4.56,0,0,1-1.047-3.184v-.148a4.508,4.508,0,0,1,1.039-3.117,3.627,3.627,0,0,1,2.852-1.164,3.555,3.555,0,0,1,2.543.9,3.2,3.2,0,0,1,.973,2.4h-2.117a1.551,1.551,0,0,0-.406-1.072,1.354,1.354,0,0,0-1.031-.412,1.36,1.36,0,0,0-1.191.575,3.333,3.333,0,0,0-.4,1.866v.235a3.375,3.375,0,0,0,.4,1.878A1.377,1.377,0,0,0-30.68,15.336Zm7.531-8.867V8.547H-21.7V10.2h-1.445v4.219a1.007,1.007,0,0,0,.18.672.9.9,0,0,0,.688.2,3.6,3.6,0,0,0,.664-.055v1.711a4.648,4.648,0,0,1-1.367.2,2.156,2.156,0,0,1-2.422-2.4V10.2h-1.234V8.547h1.234V6.469Zm6.594,10.688a4.15,4.15,0,0,1-3.027-1.141,4.054,4.054,0,0,1-1.168-3.039v-.219a5.106,5.106,0,0,1,.492-2.277,3.612,3.612,0,0,1,1.395-1.547A3.914,3.914,0,0,1-16.8,8.391a3.508,3.508,0,0,1,2.73,1.094,4.444,4.444,0,0,1,1,3.1v.922h-5.383a2.1,2.1,0,0,0,.66,1.328,2,2,0,0,0,1.395.5,2.437,2.437,0,0,0,2.039-.945l1.109,1.242a3.389,3.389,0,0,1-1.375,1.121A4.511,4.511,0,0,1-16.555,17.156Zm-.258-6.945a1.411,1.411,0,0,0-1.09.455,2.357,2.357,0,0,0-.535,1.3H-15.3v-.181a1.681,1.681,0,0,0-.406-1.165A1.456,1.456,0,0,0-16.812,10.211Zm9.766.453a6.134,6.134,0,0,0-.812-.062,1.654,1.654,0,0,0-1.68.867V17H-11.8V8.547h2.133L-9.6,9.555A2.092,2.092,0,0,1-7.719,8.391a2.366,2.366,0,0,1,.7.1Zm4.828,6.492a4.15,4.15,0,0,1-3.027-1.141,4.054,4.054,0,0,1-1.168-3.039v-.219a5.106,5.106,0,0,1,.492-2.277A3.612,3.612,0,0,1-4.527,8.934a3.914,3.914,0,0,1,2.059-.543A3.508,3.508,0,0,1,.262,9.484a4.444,4.444,0,0,1,1,3.1v.922H-4.125a2.1,2.1,0,0,0,.66,1.328,2,2,0,0,0,1.395.5,2.437,2.437,0,0,0,2.039-.945l1.109,1.242A3.389,3.389,0,0,1-.3,16.754,4.511,4.511,0,0,1-2.219,17.156Zm-.258-6.945a1.411,1.411,0,0,0-1.09.455,2.357,2.357,0,0,0-.535,1.3H-.961v-.181a1.681,1.681,0,0,0-.406-1.165A1.456,1.456,0,0,0-2.477,10.211Zm9.594,4.453a.727.727,0,0,0-.41-.652,4.659,4.659,0,0,0-1.316-.426q-3.016-.633-3.016-2.562a2.323,2.323,0,0,1,.934-1.879A3.766,3.766,0,0,1,5.75,8.391a4.053,4.053,0,0,1,2.574.758,2.388,2.388,0,0,1,.965,1.969H7.031a1.092,1.092,0,0,0-.312-.8A1.322,1.322,0,0,0,5.742,10a1.351,1.351,0,0,0-.883.258.814.814,0,0,0-.312.656.7.7,0,0,0,.355.605,3.657,3.657,0,0,0,1.2.4,9.8,9.8,0,0,1,1.422.379A2.336,2.336,0,0,1,9.313,14.57a2.2,2.2,0,0,1-.992,1.871,4.28,4.28,0,0,1-2.562.715,4.47,4.47,0,0,1-1.887-.379,3.166,3.166,0,0,1-1.293-1.039,2.414,2.414,0,0,1-.469-1.426H4.25a1.179,1.179,0,0,0,.445.922,1.766,1.766,0,0,0,1.109.32,1.635,1.635,0,0,0,.98-.246A.766.766,0,0,0,7.117,14.664Zm7.734-2.289a11.99,11.99,0,0,1,.477-3.406,8.989,8.989,0,0,1,1.406-2.863,5.251,5.251,0,0,1,2.016-1.73l.438,1.219A5.438,5.438,0,0,0,17.406,8.2a12.082,12.082,0,0,0-.641,4.125v.242a12.313,12.313,0,0,0,.633,4.141,5.544,5.544,0,0,0,1.789,2.648l-.437,1.2a5.253,5.253,0,0,1-1.98-1.684,8.838,8.838,0,0,1-1.4-2.785,11.918,11.918,0,0,1-.516-3.3Zm9.57,2.242q.125-.625-.867-.906l-.711-.18q-2.523-.7-2.453-2.453a2.428,2.428,0,0,1,1.059-1.949,3.942,3.942,0,0,1,2.457-.738,3.536,3.536,0,0,1,2.313.758,2.5,2.5,0,0,1,.9,1.977l-2.187-.008a.963.963,0,0,0-1.078-1.1,1.552,1.552,0,0,0-.895.258,1.061,1.061,0,0,0-.465.7q-.117.625.945.883l.313.07a6.285,6.285,0,0,1,1.648.59,2.488,2.488,0,0,1,.879.824,2.04,2.04,0,0,1,.285,1.18,2.251,2.251,0,0,1-.52,1.406,3.18,3.18,0,0,1-1.359.93,4.736,4.736,0,0,1-1.816.3,3.568,3.568,0,0,1-2.344-.809A2.607,2.607,0,0,1,19.57,14.3l2.078.016a1.142,1.142,0,0,0,1.3,1.227,1.845,1.845,0,0,0,1-.25A.987.987,0,0,0,24.422,14.617Zm7.625-8.148L31.68,8.547h1.406L32.8,10.2H31.391l-.719,4.234a1.077,1.077,0,0,0,.063.609q.109.211.531.227.125.008.672-.039l-.156,1.727a3.706,3.706,0,0,1-1.266.18,1.985,1.985,0,0,1-1.617-.68,2.456,2.456,0,0,1-.437-1.8l.727-4.461h-1.2l.289-1.656h1.2l.359-2.078Zm6.641,4.2a4.548,4.548,0,0,0-.742-.078,2.136,2.136,0,0,0-1.867.883L35.1,17H32.9l1.469-8.453,2.07-.008-.2,1.031a2.325,2.325,0,0,1,1.969-1.2,3.214,3.214,0,0,1,.766.109ZM40.969,17H38.75l1.469-8.453h2.219ZM40.477,6.4a1.1,1.1,0,0,1,.344-.867,1.323,1.323,0,0,1,1.734-.039,1.1,1.1,0,0,1,.383.828,1.132,1.132,0,0,1-.324.844,1.215,1.215,0,0,1-.887.375,1.235,1.235,0,0,1-.863-.3A1.091,1.091,0,0,1,40.477,6.4ZM46.32,8.539l-.187,1a3.042,3.042,0,0,1,2.461-1.148,2.028,2.028,0,0,1,1.766.875,3.526,3.526,0,0,1,.414,2.359L49.883,17h-2.2l.906-5.4a2.528,2.528,0,0,0,.016-.555.9.9,0,0,0-1-.82,1.9,1.9,0,0,0-1.555.8L44.992,17h-2.2l1.469-8.453Zm5.711,4.227a5.849,5.849,0,0,1,1.277-3.184,3.242,3.242,0,0,1,2.629-1.2,2.37,2.37,0,0,1,2.016.977l.289-.82,2.023.008-1.383,8.164a3.983,3.983,0,0,1-1.437,2.672,4.471,4.471,0,0,1-3,.953,4.168,4.168,0,0,1-1.672-.379,3.575,3.575,0,0,1-1.312-1l1.094-1.344a2.349,2.349,0,0,0,1.844.961,2.166,2.166,0,0,0,1.469-.449,2.4,2.4,0,0,0,.828-1.355l.125-.508a2.749,2.749,0,0,1-2.07.891,2.428,2.428,0,0,1-1.961-.918,3.947,3.947,0,0,1-.8-2.348A7.89,7.89,0,0,1,52.031,12.766Zm2.164.927A2.02,2.02,0,0,0,54.5,14.87a1.08,1.08,0,0,0,.895.466,1.972,1.972,0,0,0,1.594-.767l.656-3.583a1.3,1.3,0,0,0-1.242-.767,1.728,1.728,0,0,0-1.43.681,3.561,3.561,0,0,0-.734,1.87A8.214,8.214,0,0,0,54.2,13.693Zm11.086-1.138a11.377,11.377,0,0,1-.508,3.4,9.225,9.225,0,0,1-1.461,2.883,5.264,5.264,0,0,1-2.039,1.719l-.437-1.2a5.494,5.494,0,0,0,1.75-2.578,11.939,11.939,0,0,0,.664-4.008v-.414a12.208,12.208,0,0,0-.637-4.117A5.727,5.727,0,0,0,60.836,5.57l.438-1.2a5.265,5.265,0,0,1,2,1.672,9.106,9.106,0,0,1,1.461,2.82,11.3,11.3,0,0,1,.543,3.336Z" transform="translate(485 2989.427)" fill="#12263f"/>
    <path id="Path_612787" data-name="Path 612787" d="M0,0H188.1V55.419H159.3l-4.843,12.315H0Z" transform="translate(305 3073.449)" fill="#e1fbff"/>
    <path id="Path_213850-4" data-name="Path 213850" d="M-1.236,1.311H33.782V14.522h-41.5Z" transform="translate(461.218 3130.043)" fill="#6debff" opacity="0.5"/>
    <path id="Path_612788" data-name="Path 612788" d="M-27.57-11.375l2.922,8.25,2.906-8.25h3.078V0h-2.352V-3.109l.234-5.367L-23.852,0h-1.609l-3.062-8.469.234,5.359V0h-2.344V-11.375ZM-11.867,0a2.507,2.507,0,0,1-.227-.758,2.732,2.732,0,0,1-2.133.914,3,3,0,0,1-2.059-.719A2.312,2.312,0,0,1-17.1-2.375a2.389,2.389,0,0,1,1-2.062,4.915,4.915,0,0,1,2.879-.727h1.039v-.484a1.393,1.393,0,0,0-.3-.937,1.183,1.183,0,0,0-.949-.352,1.345,1.345,0,0,0-.895.273.929.929,0,0,0-.324.75h-2.258a2.268,2.268,0,0,1,.453-1.359,3,3,0,0,1,1.281-.98,4.669,4.669,0,0,1,1.859-.355,3.689,3.689,0,0,1,2.48.785,2.747,2.747,0,0,1,.918,2.207v3.664a4.041,4.041,0,0,0,.336,1.82V0Zm-1.867-1.57a1.945,1.945,0,0,0,.922-.223,1.462,1.462,0,0,0,.625-.6V-3.844h-.844q-1.7,0-1.8,1.172l-.008.133a.9.9,0,0,0,.3.7A1.153,1.153,0,0,0-13.734-1.57Zm8.25-8.961v2.078h1.445V-6.8H-5.484v4.219a1.007,1.007,0,0,0,.18.672.9.9,0,0,0,.688.2,3.6,3.6,0,0,0,.664-.055V-.047a4.648,4.648,0,0,1-1.367.2,2.156,2.156,0,0,1-2.422-2.4V-6.8H-8.977V-8.453h1.234v-2.078Zm7.453,4.2A6.134,6.134,0,0,0,1.156-6.4a1.654,1.654,0,0,0-1.68.867V0H-2.781V-8.453H-.648l.063,1.008A2.092,2.092,0,0,1,1.3-8.609a2.366,2.366,0,0,1,.7.1ZM5.438,0H3.172V-8.453H5.438Zm-2.4-10.641a1.112,1.112,0,0,1,.34-.836A1.277,1.277,0,0,1,4.3-11.8a1.28,1.28,0,0,1,.922.328,1.105,1.105,0,0,1,.344.836,1.108,1.108,0,0,1-.348.844,1.283,1.283,0,0,1-.918.328A1.283,1.283,0,0,1,3.387-9.8,1.108,1.108,0,0,1,3.039-10.641Zm7.773,8.977a1.481,1.481,0,0,0,1.016-.344,1.2,1.2,0,0,0,.406-.914h2.117a2.9,2.9,0,0,1-.469,1.574A3.093,3.093,0,0,1,12.621-.238a3.949,3.949,0,0,1-1.77.395A3.67,3.67,0,0,1,7.992-1,4.56,4.56,0,0,1,6.945-4.18v-.148A4.508,4.508,0,0,1,7.984-7.445a3.627,3.627,0,0,1,2.852-1.164,3.555,3.555,0,0,1,2.543.9,3.2,3.2,0,0,1,.973,2.4H12.234a1.551,1.551,0,0,0-.406-1.072A1.354,1.354,0,0,0,10.8-6.789a1.36,1.36,0,0,0-1.191.575,3.333,3.333,0,0,0-.4,1.866v.235a3.375,3.375,0,0,0,.4,1.878A1.377,1.377,0,0,0,10.813-1.664ZM19.531.156A4.15,4.15,0,0,1,16.5-.984a4.054,4.054,0,0,1-1.168-3.039v-.219a5.106,5.106,0,0,1,.492-2.277,3.612,3.612,0,0,1,1.395-1.547,3.914,3.914,0,0,1,2.059-.543,3.508,3.508,0,0,1,2.73,1.094,4.444,4.444,0,0,1,1,3.1v.922H17.625a2.1,2.1,0,0,0,.66,1.328,2,2,0,0,0,1.395.5,2.437,2.437,0,0,0,2.039-.945l1.109,1.242A3.389,3.389,0,0,1,21.453-.246,4.511,4.511,0,0,1,19.531.156Zm-.258-6.945a1.411,1.411,0,0,0-1.09.455,2.357,2.357,0,0,0-.535,1.3h3.141v-.181a1.681,1.681,0,0,0-.406-1.165A1.456,1.456,0,0,0,19.273-6.789Zm9.594,4.453a.727.727,0,0,0-.41-.652,4.659,4.659,0,0,0-1.316-.426q-3.016-.633-3.016-2.562a2.323,2.323,0,0,1,.934-1.879A3.766,3.766,0,0,1,27.5-8.609a4.053,4.053,0,0,1,2.574.758,2.388,2.388,0,0,1,.965,1.969H28.781a1.092,1.092,0,0,0-.312-.8A1.322,1.322,0,0,0,27.492-7a1.351,1.351,0,0,0-.883.258.814.814,0,0,0-.312.656.7.7,0,0,0,.355.605,3.657,3.657,0,0,0,1.2.4,9.8,9.8,0,0,1,1.422.379A2.336,2.336,0,0,1,31.063-2.43,2.2,2.2,0,0,1,30.07-.559a4.28,4.28,0,0,1-2.562.715,4.47,4.47,0,0,1-1.887-.379,3.166,3.166,0,0,1-1.293-1.039,2.414,2.414,0,0,1-.469-1.426H26a1.179,1.179,0,0,0,.445.922,1.766,1.766,0,0,0,1.109.32,1.635,1.635,0,0,0,.98-.246A.766.766,0,0,0,28.867-2.336Z" transform="translate(400.001 3110.36)" fill="#12263f"/>
    <path id="Path_612789" data-name="Path 612789" d="M440,212.053v0H0a220.142,220.142,0,0,1,440,0Z" transform="translate(580 3058.516)" fill="#fff"/>
    <g id="Group_1072567" data-name="Group 1072567" transform="translate(651.32 3024.211)">
      <g id="Group_1072558" data-name="Group 1072558" clip-path="url(#clip-path)">
        <g id="Group_1072499" data-name="Group 1072499">
          <g id="Group_1072498" data-name="Group 1072498" clip-path="url(#clip-path)">
            <path id="Path_609552" data-name="Path 609552" d="M297.359,319.043c0,4.8-66.566,8.683-148.679,8.683S0,323.839,0,319.043s66.566-8.683,148.679-8.683,148.679,3.888,148.679,8.683" transform="translate(0 -72.368)" fill="#f5f5f5"/>
          </g>
        </g>
        <g id="Group_1072528" data-name="Group 1072528">
          <g id="Group_1072527" data-name="Group 1072527" clip-path="url(#clip-path)">
            <path id="Path_609553" data-name="Path 609553" d="M301.662,5.318h22.33c4.444,0,8.054,5.206,5.477,10.411H240.975A7.037,7.037,0,0,0,235.5,5.318Z" transform="translate(-54.912 -1.24)" fill="#727997"/>
            <path id="Path_609554" data-name="Path 609554" d="M217.658,5.318H308.48c-12.433,0-23.529,10.079-24.782,22.513L267.613,187.384c-1.253,12.433-12.348,22.512-24.782,22.512h-45.8c-12.433,0-21.5-10.079-20.243-22.512L192.876,27.83C194.13,15.4,205.225,5.318,217.658,5.318" transform="translate(-41.196 -1.24)" fill="#e8e8e8"/>
            <path id="Path_609556" data-name="Path 609556" d="M206.92,240.508h0a6.535,6.535,0,0,0-6.617-7.359H109.48a6.535,6.535,0,0,1,6.618,7.359c-1.254,12.433,7.81,22.512,20.243,22.512h90.822c-12.433,0-21.5-10.079-20.243-22.512" transform="translate(-25.528 -54.364)" fill="#727997"/>
            <path id="Path_609557" data-name="Path 609557" d="M106.66,233.149H84.33a7.514,7.514,0,0,0-7.486,7.359H185.207a7.514,7.514,0,0,1,7.486-7.359Z" transform="translate(-17.918 -54.364)" fill="#407bff"/>
            <g id="Group_1072505" data-name="Group 1072505" transform="translate(58.926 178.785)" opacity="0.6">
              <g id="Group_1072504" data-name="Group 1072504">
                <g id="Group_1072503" data-name="Group 1072503" clip-path="url(#clip-path-4)">
                  <path id="Path_609558" data-name="Path 609558" d="M106.66,233.149H84.33a7.514,7.514,0,0,0-7.486,7.359H185.207a7.514,7.514,0,0,1,7.486-7.359Z" transform="translate(-76.844 -233.149)" fill="#e1fbff"/>
                </g>
              </g>
            </g>
            <g id="Group_1072508" data-name="Group 1072508" transform="translate(153.819 75.453)" opacity="0.5">
              <g id="Group_1072507" data-name="Group 1072507">
                <g id="Group_1072506" data-name="Group 1072506" clip-path="url(#clip-path-5)">
                  <path id="Path_609559" data-name="Path 609559" d="M214.873,105.244h-6.849l.691-6.849h6.848Z" transform="translate(-202.324 -98.396)" fill="#727997"/>
                  <path id="Path_609560" data-name="Path 609560" d="M229.619,105.244H222.77l.691-6.849h6.848Z" transform="translate(-205.763 -98.396)" fill="#727997"/>
                  <path id="Path_609561" data-name="Path 609561" d="M244.365,105.244h-6.849l.691-6.849h6.848Z" transform="translate(-209.201 -98.396)" fill="#727997"/>
                  <path id="Path_609562" data-name="Path 609562" d="M259.111,105.244h-6.848l.691-6.849H259.8Z" transform="translate(-212.639 -98.396)" fill="#727997"/>
                  <path id="Path_609563" data-name="Path 609563" d="M273.858,105.244h-6.849L267.7,98.4h6.848Z" transform="translate(-216.078 -98.396)" fill="#727997"/>
                  <path id="Path_609564" data-name="Path 609564" d="M288.6,105.244h-6.849l.691-6.849h6.848Z" transform="translate(-219.516 -98.396)" fill="#727997"/>
                  <path id="Path_609565" data-name="Path 609565" d="M213.386,119.99h-6.849l.691-6.849h6.848Z" transform="translate(-201.978 -101.834)" fill="#727997"/>
                  <path id="Path_609566" data-name="Path 609566" d="M228.132,119.99h-6.849l.691-6.849h6.848Z" transform="translate(-205.416 -101.834)" fill="#727997"/>
                  <path id="Path_609567" data-name="Path 609567" d="M242.878,119.99H236.03l.691-6.849h6.848Z" transform="translate(-208.854 -101.834)" fill="#727997"/>
                  <path id="Path_609568" data-name="Path 609568" d="M257.625,119.99h-6.849l.691-6.849h6.848Z" transform="translate(-212.293 -101.834)" fill="#727997"/>
                  <path id="Path_609569" data-name="Path 609569" d="M272.371,119.99h-6.849l.691-6.849h6.848Z" transform="translate(-215.731 -101.834)" fill="#727997"/>
                  <path id="Path_609570" data-name="Path 609570" d="M287.117,119.99h-6.849l.691-6.849h6.848Z" transform="translate(-219.17 -101.834)" fill="#727997"/>
                  <path id="Path_609571" data-name="Path 609571" d="M211.9,134.736h-6.849l.691-6.849h6.848Z" transform="translate(-201.631 -105.273)" fill="#727997"/>
                  <path id="Path_609572" data-name="Path 609572" d="M226.646,134.736H219.8l.691-6.849h6.848Z" transform="translate(-205.069 -105.273)" fill="#727997"/>
                  <path id="Path_609573" data-name="Path 609573" d="M241.392,134.736h-6.849l.691-6.849h6.848Z" transform="translate(-208.508 -105.273)" fill="#727997"/>
                  <path id="Path_609574" data-name="Path 609574" d="M256.138,134.736H249.29l.691-6.849h6.848Z" transform="translate(-211.946 -105.273)" fill="#727997"/>
                  <path id="Path_609575" data-name="Path 609575" d="M270.884,134.736h-6.849l.691-6.849h6.848Z" transform="translate(-215.385 -105.273)" fill="#727997"/>
                  <path id="Path_609576" data-name="Path 609576" d="M285.631,134.736h-6.849l.691-6.849h6.848Z" transform="translate(-218.823 -105.273)" fill="#727997"/>
                  <path id="Path_609577" data-name="Path 609577" d="M210.413,149.483h-6.849l.691-6.849H211.1Z" transform="translate(-201.284 -108.711)" fill="#727997"/>
                  <path id="Path_609578" data-name="Path 609578" d="M225.159,149.483h-6.849l.691-6.849h6.848Z" transform="translate(-204.723 -108.711)" fill="#727997"/>
                  <path id="Path_609579" data-name="Path 609579" d="M239.905,149.483h-6.849l.691-6.849H240.6Z" transform="translate(-208.161 -108.711)" fill="#727997"/>
                  <path id="Path_609580" data-name="Path 609580" d="M254.651,149.483H247.8l.691-6.849h6.848Z" transform="translate(-211.6 -108.711)" fill="#727997"/>
                  <path id="Path_609581" data-name="Path 609581" d="M269.4,149.483h-6.849l.691-6.849h6.848Z" transform="translate(-215.038 -108.711)" fill="#727997"/>
                  <path id="Path_609582" data-name="Path 609582" d="M284.144,149.483H277.3l.691-6.849h6.848Z" transform="translate(-218.476 -108.711)" fill="#727997"/>
                  <path id="Path_609583" data-name="Path 609583" d="M208.926,164.229h-6.849l.691-6.849h6.848Z" transform="translate(-200.938 -112.15)" fill="#727997"/>
                  <path id="Path_609584" data-name="Path 609584" d="M223.672,164.229h-6.849l.691-6.849h6.848Z" transform="translate(-204.376 -112.15)" fill="#727997"/>
                  <path id="Path_609585" data-name="Path 609585" d="M238.419,164.229H231.57l.691-6.849h6.848Z" transform="translate(-207.815 -112.15)" fill="#727997"/>
                  <path id="Path_609586" data-name="Path 609586" d="M253.165,164.229h-6.849l.691-6.849h6.848Z" transform="translate(-211.253 -112.15)" fill="#727997"/>
                  <path id="Path_609587" data-name="Path 609587" d="M267.911,164.229h-6.849l.691-6.849H268.6Z" transform="translate(-214.691 -112.15)" fill="#727997"/>
                  <path id="Path_609588" data-name="Path 609588" d="M282.657,164.229h-6.849l.691-6.849h6.848Z" transform="translate(-218.13 -112.15)" fill="#727997"/>
                  <path id="Path_609589" data-name="Path 609589" d="M207.44,178.975h-6.849l.691-6.849h6.848Z" transform="translate(-200.591 -115.588)" fill="#727997"/>
                  <path id="Path_609590" data-name="Path 609590" d="M222.186,178.975h-6.849l.691-6.849h6.848Z" transform="translate(-204.029 -115.588)" fill="#727997"/>
                  <path id="Path_609591" data-name="Path 609591" d="M236.932,178.975h-6.849l.691-6.849h6.848Z" transform="translate(-207.468 -115.588)" fill="#727997"/>
                  <path id="Path_609592" data-name="Path 609592" d="M251.678,178.975H244.83l.691-6.849h6.848Z" transform="translate(-210.906 -115.588)" fill="#727997"/>
                  <path id="Path_609593" data-name="Path 609593" d="M266.424,178.975h-6.849l.691-6.849h6.848Z" transform="translate(-214.345 -115.588)" fill="#727997"/>
                  <path id="Path_609594" data-name="Path 609594" d="M281.171,178.975h-6.848l.691-6.849h6.848Z" transform="translate(-217.783 -115.588)" fill="#727997"/>
                </g>
              </g>
            </g>
            <path id="Path_609595" data-name="Path 609595" d="M212.407,171.258a3.235,3.235,0,0,1-3.146,2.857,2.538,2.538,0,0,1-2.57-2.857,3.235,3.235,0,0,1,3.146-2.857,2.537,2.537,0,0,1,2.57,2.857" transform="translate(-48.192 -39.267)" fill="#03386e"/>
            <path id="Path_609596" data-name="Path 609596" d="M231.613,127.019a3.234,3.234,0,0,1-3.146,2.857,2.537,2.537,0,0,1-2.57-2.857,3.235,3.235,0,0,1,3.146-2.857,2.537,2.537,0,0,1,2.57,2.857" transform="translate(-52.67 -28.951)" fill="#03386e"/>
            <path id="Path_609597" data-name="Path 609597" d="M259.619,141.765a3.234,3.234,0,0,1-3.145,2.857,2.538,2.538,0,0,1-2.57-2.857,3.234,3.234,0,0,1,3.146-2.857,2.537,2.537,0,0,1,2.57,2.857" transform="translate(-59.2 -32.39)" fill="#03386e"/>
            <path id="Path_609598" data-name="Path 609598" d="M292.084,112.273a3.234,3.234,0,0,1-3.146,2.857,2.537,2.537,0,0,1-2.57-2.857,3.234,3.234,0,0,1,3.146-2.857,2.537,2.537,0,0,1,2.57,2.857" transform="translate(-66.77 -25.513)" fill="#03386e"/>
            <path id="Path_609599" data-name="Path 609599" d="M210.167,158.956a.838.838,0,0,1-.768-1.171l14.728-33.924a.838.838,0,0,1,1.159-.407l20.957,11.034,24.46-22.221a.838.838,0,0,1,1.126,1.24l-24.9,22.615a.838.838,0,0,1-.954.121L225.3,125.357l-14.368,33.1a.836.836,0,0,1-.768.5" transform="translate(-48.81 -26.127)" fill="#03386e"/>
            <g id="Group_1072511" data-name="Group 1072511" transform="translate(151.374 159.667)" opacity="0.5">
              <g id="Group_1072510" data-name="Group 1072510">
                <g id="Group_1072509" data-name="Group 1072509" clip-path="url(#clip-path-6)">
                  <path id="Path_609600" data-name="Path 609600" d="M204.251,211.642H197.4l.346-3.424H204.6Z" transform="translate(-197.403 -208.218)" fill="#0c5e46"/>
                </g>
              </g>
            </g>
            <g id="Group_1072514" data-name="Group 1072514" transform="translate(162.682 151.296)" opacity="0.6">
              <g id="Group_1072513" data-name="Group 1072513">
                <g id="Group_1072512" data-name="Group 1072512" clip-path="url(#clip-path-7)">
                  <path id="Path_609601" data-name="Path 609601" d="M219,209.1h-6.849l1.189-11.8h6.849Z" transform="translate(-212.149 -197.301)" fill="#0c5e46"/>
                </g>
              </g>
            </g>
            <g id="Group_1072517" data-name="Group 1072517" transform="translate(173.99 156.242)" opacity="0.7">
              <g id="Group_1072516" data-name="Group 1072516">
                <g id="Group_1072515" data-name="Group 1072515" clip-path="url(#clip-path-8)">
                  <path id="Path_609602" data-name="Path 609602" d="M233.744,210.6H226.9l.691-6.849h6.848Z" transform="translate(-226.896 -203.752)" fill="#0c5e46"/>
                </g>
              </g>
            </g>
            <g id="Group_1072520" data-name="Group 1072520" transform="translate(185.298 154.087)" opacity="0.8">
              <g id="Group_1072519" data-name="Group 1072519">
                <g id="Group_1072518" data-name="Group 1072518" clip-path="url(#clip-path-9)">
                  <path id="Path_609603" data-name="Path 609603" d="M248.49,209.945h-6.849l.908-9H249.4Z" transform="translate(-241.642 -200.941)" fill="#0c5e46"/>
                </g>
              </g>
            </g>
            <g id="Group_1072523" data-name="Group 1072523" transform="translate(196.605 157.624)" opacity="0.9">
              <g id="Group_1072522" data-name="Group 1072522">
                <g id="Group_1072521" data-name="Group 1072521" clip-path="url(#clip-path-10)">
                  <path id="Path_609604" data-name="Path 609604" d="M263.236,211.02h-6.848l.551-5.467h6.849Z" transform="translate(-256.388 -205.553)" fill="#0c5e46"/>
                </g>
              </g>
            </g>
            <path id="Path_609605" data-name="Path 609605" d="M277.983,211.642h-6.849l.346-3.424h6.848Z" transform="translate(-63.221 -48.551)" fill="#0c5e46"/>
            <g id="Group_1072526" data-name="Group 1072526" transform="translate(161.603 32.663)" opacity="0.5">
              <g id="Group_1072525" data-name="Group 1072525">
                <g id="Group_1072524" data-name="Group 1072524" clip-path="url(#clip-path-11)">
                  <path id="Path_609606" data-name="Path 609606" d="M271.972,73.434h-59.45a1.748,1.748,0,0,1-1.77-1.969l2.711-26.9a2.229,2.229,0,0,1,2.168-1.969H275.08a1.749,1.749,0,0,1,1.771,1.969l-2.712,26.9a2.229,2.229,0,0,1-2.167,1.969" transform="translate(-210.742 -42.595)" fill="#b0c0d2"/>
                </g>
              </g>
            </g>
            <path id="Path_609607" data-name="Path 609607" d="M237.43,59.488l4.918-10.582a10.006,10.006,0,0,1,6.342,10.582,12.848,12.848,0,0,1-10.423,11.09Z" transform="translate(-55.362 -11.404)" fill="#0c5e46"/>
            <path id="Path_609608" data-name="Path 609608" d="M233.989,59.282l.837,11.09a11.518,11.518,0,0,1-1.972.171,10.044,10.044,0,0,1-10.126-11.261,12.811,12.811,0,0,1,12.4-11.261,10.713,10.713,0,0,1,3.784.679Z" transform="translate(-51.921 -11.197)" fill="#fff"/>
            <path id="Path_609609" data-name="Path 609609" d="M271.9,59.137h4.268l-1.409,13.979h-4.269Z" transform="translate(-63.072 -13.789)" fill="#fff"/>
            <path id="Path_609610" data-name="Path 609610" d="M280.618,68.832h4.268l-.659,6.545h-4.268Z" transform="translate(-65.279 -16.05)" fill="#fff"/>
            <path id="Path_609611" data-name="Path 609611" d="M280.819,67.619h4.268l.4-3.991h-4.268Z" transform="translate(-65.479 -14.836)" fill="#0c5e46"/>
            <path id="Path_609612" data-name="Path 609612" d="M272.332,56.545H276.6l.86-8.524h-4.268Z" transform="translate(-63.501 -11.197)" fill="#0c5e46"/>
            <path id="Path_609613" data-name="Path 609613" d="M262.183,62.456h4.269L265.3,73.891h-4.268Z" transform="translate(-60.865 -14.563)" fill="#fff"/>
            <path id="Path_609614" data-name="Path 609614" d="M262.534,60.863H266.8l.528-5.241h-4.269Z" transform="translate(-61.216 -12.969)" fill="#0c5e46"/>
          </g>
        </g>
        <g id="Group_1072557" data-name="Group 1072557">
          <g id="Group_1072556" data-name="Group 1072556" clip-path="url(#clip-path)">
            <path id="Path_609615" data-name="Path 609615" d="M73.85,63.792c-.333.56-.728,1.262-1.092,1.911s-.732,1.334-1.082,2.012c-.692,1.361-1.388,2.724-2.021,4.113a72.181,72.181,0,0,0-3.317,8.463l-.316,1.077-.159.539-.039.134a.072.072,0,0,0,0-.022c-.006-.019,0-.013-.013-.019a2.065,2.065,0,0,0,.12,1.015,17.353,17.353,0,0,0,1.743,3.645,85.727,85.727,0,0,0,5.3,7.55l-2.449,2.573a43.76,43.76,0,0,1-7.362-6.893,19.846,19.846,0,0,1-3.013-4.684,8.208,8.208,0,0,1-.759-3.674c.015-.2.026-.4.062-.615l.054-.317.033-.158.133-.627.267-1.255a61.687,61.687,0,0,1,3.179-9.621c.661-1.544,1.361-3.068,2.139-4.556q.58-1.117,1.2-2.22c.416-.751.83-1.432,1.345-2.233Z" transform="translate(-13.848 -13.975)" fill="#ff8b7b"/>
            <path id="Path_609616" data-name="Path 609616" d="M74.161,102.844l5.763.238-2.32,4.948s-4.1-.232-5.64-2.72Z" transform="translate(-16.78 -23.98)" fill="#ff8b7b"/>
            <path id="Path_609617" data-name="Path 609617" d="M83.066,105.38l-1.425,4.428L79.32,108.1l2.32-4.949Z" transform="translate(-18.495 -24.053)" fill="#ff8b7b"/>
            <path id="Path_609618" data-name="Path 609618" d="M89.842,312.212a8.566,8.566,0,0,1-1.856-.252.169.169,0,0,1-.127-.133.163.163,0,0,1,.071-.167c.238-.159,2.349-1.534,3.17-1.164a.577.577,0,0,1,.337.467.935.935,0,0,1-.263.883,1.99,1.99,0,0,1-1.332.365m-1.389-.488c1.225.244,2.143.2,2.493-.123a.618.618,0,0,0,.163-.59.243.243,0,0,0-.141-.211c-.434-.2-1.653.4-2.514.924" transform="translate(-20.486 -72.385)" fill="#407bff"/>
            <path id="Path_609619" data-name="Path 609619" d="M88.025,311.465a.174.174,0,0,1-.084-.022.17.17,0,0,1-.084-.143c0-.086-.02-2.106.734-2.781a.85.85,0,0,1,.7-.222.589.589,0,0,1,.565.463c.169.791-1.085,2.3-1.749,2.684a.161.161,0,0,1-.081.021m1.154-2.843a.529.529,0,0,0-.366.146,3.758,3.758,0,0,0-.619,2.209c.659-.533,1.439-1.669,1.337-2.152-.017-.079-.064-.173-.276-.2a.653.653,0,0,0-.076,0" transform="translate(-20.486 -71.885)" fill="#407bff"/>
            <path id="Path_609620" data-name="Path 609620" d="M158.025,307.772a.171.171,0,0,1-.15-.07.159.159,0,0,1,.007-.188c.216-.276,2.1-2.645,3.122-2.711.022,0,.044,0,.066,0a.537.537,0,0,1,.452.265.865.865,0,0,1,.074.84c-.406.928-2.391,1.563-3.538,1.859a.173.173,0,0,1-.033.005m2.984-2.643c-.562.036-1.739,1.23-2.544,2.19,1.551-.45,2.59-1.011,2.817-1.531a.559.559,0,0,0-.054-.55.206.206,0,0,0-.18-.11h-.039" transform="translate(-36.806 -71.072)" fill="#407bff"/>
            <path id="Path_609621" data-name="Path 609621" d="M157.91,307.566a.148.148,0,0,1-.037,0,.162.162,0,0,1-.13-.1,4.376,4.376,0,0,1-.2-2.826,1.249,1.249,0,0,1,.727-.652c.446-.16.671-.011.781.14.465.64-.408,2.686-1.017,3.381a.178.178,0,0,1-.122.059m.67-3.322a.739.739,0,0,0-.2.047.9.9,0,0,0-.531.479,3.6,3.6,0,0,0,.113,2.286c.564-.824,1.086-2.356.807-2.74a.187.187,0,0,0-.189-.071" transform="translate(-36.692 -70.865)" fill="#407bff"/>
            <path id="Path_609622" data-name="Path 609622" d="M90.019,28.157c.793,4.175,2.576,13.284-.355,16,0,0,1.115,4.241,8.856,4.393,8.512.167,4.092-4.139,4.092-4.139-4.639-1.2-4.5-4.637-3.672-7.853Z" transform="translate(-20.907 -6.565)" fill="#ff8b7b"/>
            <path id="Path_609623" data-name="Path 609623" d="M86.487,49.456,85,42.11a27.448,27.448,0,0,0,6.561,1.07c2.978,0,9.446-.232,12.656-1.35.884,1.257,5.546,4.606,5.546,4.606l-2.077,3.537Z" transform="translate(-19.819 -9.754)" fill="#407bff"/>
            <g id="Group_1072531" data-name="Group 1072531" transform="translate(65.179 32.077)" opacity="0.8">
              <g id="Group_1072530" data-name="Group 1072530">
                <g id="Group_1072529" data-name="Group 1072529" clip-path="url(#clip-path-13)">
                  <path id="Path_609624" data-name="Path 609624" d="M86.487,49.456,85,42.11a27.448,27.448,0,0,0,6.561,1.07c2.978,0,9.446-.232,12.656-1.35.884,1.257,5.546,4.606,5.546,4.606l-2.077,3.537Z" transform="translate(-84.998 -41.831)" fill="#eba325"/>
                </g>
              </g>
            </g>
            <path id="Path_609625" data-name="Path 609625" d="M111.707,17.09a.343.343,0,0,1-.144-.053.335.335,0,0,1-.1-.461,3.243,3.243,0,0,1,2.59-1.541.337.337,0,0,1,.334.335.327.327,0,0,1-.328.331,2.587,2.587,0,0,0-2.037,1.243.328.328,0,0,1-.315.146" transform="translate(-25.978 -3.506)" fill="#263238"/>
            <path id="Path_609626" data-name="Path 609626" d="M114.582,22.825a15.41,15.41,0,0,0,2.077,3.607,2.416,2.416,0,0,1-2.009.386Z" transform="translate(-26.717 -5.322)" fill="#ff5652"/>
            <path id="Path_609627" data-name="Path 609627" d="M113.9,21.246c.01.566.317,1.024.687,1.023s.661-.461.651-1.028-.317-1.024-.686-1.023-.662.462-.652,1.028" transform="translate(-26.559 -4.714)" fill="#263238"/>
            <path id="Path_609628" data-name="Path 609628" d="M114.538,20.139l1.351-.4s-.679,1.064-1.351.4" transform="translate(-26.707 -4.604)" fill="#263238"/>
            <path id="Path_609629" data-name="Path 609629" d="M147.892,309.139l6.795-2.343-4.793-15.12-6.8,2.343Z" transform="translate(-33.367 -68.011)" fill="#ff8b7b"/>
            <path id="Path_609630" data-name="Path 609630" d="M77.2,307.275h7.016l-.777-16.246H76.421Z" transform="translate(-17.819 -67.86)" fill="#ff8b7b"/>
            <path id="Path_609631" data-name="Path 609631" d="M84.478,311.155H76.6a.545.545,0,0,0-.553.479l-.811,6.236a1.146,1.146,0,0,0,1.142,1.248c2.748-.048,4.07-.209,7.536-.209,2.132,0,5.25.221,8.2.221,2.88,0,3.06-2.912,1.831-3.175-5.514-1.182-6.405-2.813-8.279-4.369a1.859,1.859,0,0,0-1.179-.431" transform="translate(-17.54 -72.553)" fill="#263238"/>
            <path id="Path_609632" data-name="Path 609632" d="M154.736,307.653l-7.293,3.428a.546.546,0,0,0-.31.663l1.879,5.856a1.15,1.15,0,0,0,1.583.6c2.522-1.237,3.677-1.954,6.884-3.461,1.973-.928,6.15-2.652,8.874-3.933,2.665-1.253,1.6-3.9.356-3.6-5.6,1.356-8.311.867-10.7.31a1.961,1.961,0,0,0-1.272.132" transform="translate(-34.302 -71.628)" fill="#263238"/>
            <g id="Group_1072534" data-name="Group 1072534" transform="translate(109.728 223.669)" opacity="0.2">
              <g id="Group_1072533" data-name="Group 1072533">
                <g id="Group_1072532" data-name="Group 1072532" clip-path="url(#clip-path-14)">
                  <path id="Path_609633" data-name="Path 609633" d="M149.892,291.682l2.57,8.1-6.9,2.037-2.472-7.793Z" transform="translate(-143.094 -291.682)"/>
                </g>
              </g>
            </g>
            <g id="Group_1072537" data-name="Group 1072537" transform="translate(58.6 223.173)" opacity="0.2">
              <g id="Group_1072536" data-name="Group 1072536">
                <g id="Group_1072535" data-name="Group 1072535" clip-path="url(#clip-path-15)">
                  <path id="Path_609634" data-name="Path 609634" d="M76.419,291.034h7.018l.4,8.374H76.816Z" transform="translate(-76.419 -291.034)"/>
                </g>
              </g>
            </g>
            <path id="Path_609635" data-name="Path 609635" d="M72.008,50.765c-2.921.581-6.1,10.995-6.1,10.995l8.2,8.915s6.9-9.7,5.526-13.348c-1.43-3.8-4.175-7.248-7.627-6.562" transform="translate(-15.369 -11.817)" fill="#eba325"/>
            <g id="Group_1072543" data-name="Group 1072543" transform="translate(58.76 44.885)" opacity="0.4">
              <g id="Group_1072542" data-name="Group 1072542">
                <g id="Group_1072541" data-name="Group 1072541" clip-path="url(#clip-path-16)">
                  <path id="Path_609637" data-name="Path 609637" d="M79.091,59.354c1.483-1.318,2.478-.9,3.151.187.653,3.126-3.358,9.567-4.973,12-.721-2.959-1.531-9.193,1.822-12.19" transform="translate(-76.627 -58.533)"/>
                </g>
              </g>
            </g>
            <path id="Path_609638" data-name="Path 609638" d="M111.34,52.766c.528,3.07.642,12.413-4.152,40.747l-28.514-.559c.544-11.577.6-18.721-4.811-42.6a83.8,83.8,0,0,1,12.117-1.356,90.951,90.951,0,0,1,12.949.255c4.142.459,8.7,1.36,10.747,1.79a2.128,2.128,0,0,1,1.665,1.728" transform="translate(-17.223 -11.4)" fill="#eba325"/>
            <path id="Path_609640" data-name="Path 609640" d="M89.056,15.987c.545,6.953.628,9.905,4.2,13.463,5.367,5.352,13.768,3.28,15.307-3.666,1.385-6.253.26-16.573-6.585-19.319a9.364,9.364,0,0,0-12.919,9.522" transform="translate(-20.758 -1.339)" fill="#ff8b7b"/>
            <path id="Path_609641" data-name="Path 609641" d="M88.409,2.4c-7.538.56-9.282,9.422-6.352,15.076-4.676,7.118-4.106,9.68-2.616,11.341,2.57,2.863,15.784,6.316,23.693.36,3.534-2.66-3.011-12.12-3.011-12.12S103.929,1.249,88.409,2.4" transform="translate(-18.274 -0.546)" fill="#263238"/>
            <path id="Path_609642" data-name="Path 609642" d="M79.721,33.395c-2.136,0-2.892-1.051-3.142-1.992-.8-3.033,3.063-9.009,6.894-10.658a.419.419,0,1,1,.331.769c-3.389,1.459-7.106,7.065-6.416,9.675.285,1.076,1.329,1.518,3.1,1.324a.419.419,0,1,1,.093.832,7.721,7.721,0,0,1-.858.051" transform="translate(-17.831 -4.829)" fill="#263238"/>
            <path id="Path_609643" data-name="Path 609643" d="M92.265,24.118l-8.3.275a2.426,2.426,0,0,1-2.505-2.445,2.625,2.625,0,0,1,2.5-2.611l8.3-.275a2.426,2.426,0,0,1,2.505,2.445,2.625,2.625,0,0,1-2.5,2.611" transform="translate(-18.995 -4.445)" fill="#03386e"/>
            <path id="Path_609644" data-name="Path 609644" d="M92.689,4.4c2.827-4.4,10.225-5.723,14.912-2.966,5.483,3.225,5.363,9.7-3.884,13.331C93.625,18.729,92.689,4.4,92.689,4.4" transform="translate(-21.613 0)" fill="#263238"/>
            <path id="Path_609645" data-name="Path 609645" d="M108.217,18.992a7,7,0,0,1,2.235,3.715c.414,1.829-.769,1.586-2.126.834-1.221-.677-3.143-2.008-3.045-3.531.1-1.5,1.727-2.047,2.935-1.017" transform="translate(-24.548 -4.305)" fill="#ff8b7b"/>
            <path id="Path_609646" data-name="Path 609646" d="M99.386,106.764s-4.35,48.026-8.733,75.055c-3.54,21.831-6.536,72.9-6.536,72.9H74.551s-3.12-49.851-1.262-71.476c4.7-54.72-5.056-59.377,5.112-76.9Z" transform="translate(-16.951 -24.798)" fill="#03386e"/>
            <g id="Group_1072549" data-name="Group 1072549" transform="translate(71.6 98.021)" opacity="0.4">
              <g id="Group_1072548" data-name="Group 1072548">
                <g id="Group_1072547" data-name="Group 1072547" clip-path="url(#clip-path-17)">
                  <path id="Path_609647" data-name="Path 609647" d="M94.475,127.827c2.494,3.664,5.821,7.885,6.894,12.349-.86,8.1-1.866,17.06-2.955,25.676-2.624-7.249-7.134-21.727-3.938-38.025" transform="translate(-93.372 -127.827)"/>
                </g>
              </g>
            </g>
            <path id="Path_609648" data-name="Path 609648" d="M109.166,106.93s9.329,52.569,13.243,73.627c4.071,21.9,15.619,70.645,15.619,70.645l-9.539,4.907S108.755,197.242,106.4,186.2c-6.219-23.042-24.053-79.761-24.053-79.761Z" transform="translate(-19.201 -24.818)" fill="#03386e"/>
            <path id="Path_609649" data-name="Path 609649" d="M153.331,296.562l-11.6,4.619-2.251-4.039,12.41-4.956Z" transform="translate(-32.523 -68.13)" fill="#407bff"/>
            <path id="Path_609650" data-name="Path 609650" d="M85.382,298.655H73.2l-.7-4.275,12.888-.436Z" transform="translate(-16.905 -68.54)" fill="#407bff"/>
            <path id="Path_609651" data-name="Path 609651" d="M79.188,104.1l-1.3,2.523c-.1.2.133.4.462.408l29.9.587c.258.005.471-.117.488-.278l.271-2.543c.019-.176-.2-.33-.485-.335L79.654,103.9a.512.512,0,0,0-.465.2" transform="translate(-18.156 -24.226)" fill="#0c5e46"/>
            <path id="Path_609652" data-name="Path 609652" d="M84.31,107.349l-.774-.015c-.153,0-.271-.084-.259-.181l.382-3.3c.011-.1.146-.173.3-.17l.774.015c.154,0,.271.084.259.181l-.381,3.3c-.012.1-.146.173-.3.17" transform="translate(-19.418 -24.175)" fill="#263238"/>
            <path id="Path_609653" data-name="Path 609653" d="M108.756,107.829l-.774-.015c-.153,0-.271-.084-.259-.181l.382-3.3c.011-.1.146-.173.3-.17l.774.015c.154,0,.271.084.259.181l-.381,3.3c-.011.1-.146.173-.3.17" transform="translate(-25.118 -24.287)" fill="#263238"/>
            <path id="Path_609654" data-name="Path 609654" d="M125.548,58.638c.864,1.462,1.786,3.036,2.728,4.525.94,1.507,1.876,3.015,2.866,4.476s2,2.892,3.044,4.278c1.056,1.366,2.128,2.7,3.257,3.907a7.338,7.338,0,0,0,3.3,1.836,23.641,23.641,0,0,0,4.78.831,62.536,62.536,0,0,0,10.466-.168l.79,3.464a44.386,44.386,0,0,1-11.335,2.106,26.2,26.2,0,0,1-6.11-.389,16.236,16.236,0,0,1-3.233-.992,11.207,11.207,0,0,1-3.169-2.04,57.027,57.027,0,0,1-7.6-8.781,88.848,88.848,0,0,1-6.07-9.6Z" transform="translate(-27.809 -13.673)" fill="#ff8b7b"/>
            <path id="Path_609655" data-name="Path 609655" d="M119.761,51.909c6.807,1.08,9.624,10.8,9.624,10.8l-8.178,7.875s-9.237-8.5-9.233-13.909c0-4.022,4.077-5.35,7.788-4.761" transform="translate(-26.109 -12.073)" fill="#eba325"/>
            <path id="Path_609657" data-name="Path 609657" d="M176.128,78.321c-.1,1.218-.256,2.419-.436,3.614s-.388,2.383-.613,3.565-.475,2.358-.737,3.53c-.342,1.15-.238,2.424-1.557,3.3a1.083,1.083,0,0,1-1.3-.179.943.943,0,0,1-.169-.226c-.761-1.455-.1-2.518.114-3.7.3-1.163.6-2.323.935-3.476s.681-2.3,1.057-3.442.775-2.276,1.236-3.392a.72.72,0,0,1,.947-.285.735.735,0,0,1,.518.691" transform="translate(-39.864 -18.086)" fill="#263238"/>
            <path id="Path_609658" data-name="Path 609658" d="M177,79.614l-2.274-.38c-.346-.058-.519-.48-.386-.942s.519-.791.865-.733l2.274.38c.346.058.518.48.386.942s-.519.791-.865.733" transform="translate(-40.642 -18.083)" fill="#263238"/>
            <path id="Path_609659" data-name="Path 609659" d="M179.909,56.455c-3.5-1.012-7.543,1.944-9.034,6.6s.138,9.256,3.636,10.269,7.543-1.942,9.034-6.6-.138-9.258-3.636-10.271m-4.971,15.537c-2.945-.853-4.315-4.723-3.06-8.644s4.659-6.411,7.6-5.558,4.316,4.723,3.061,8.645-4.659,6.409-7.6,5.556" transform="translate(-39.715 -13.117)" fill="#03386e"/>
            <g id="Group_1072555" data-name="Group 1072555" transform="translate(132.731 45.87)" opacity="0.1">
              <g id="Group_1072554" data-name="Group 1072554">
                <g id="Group_1072553" data-name="Group 1072553" clip-path="url(#clip-path-18)">
                  <path id="Path_609660" data-name="Path 609660" d="M176.4,73.293c-2.761-.8-4.047-4.429-2.87-8.106s4.369-6.011,7.131-5.212,4.048,4.429,2.871,8.108-4.369,6.01-7.131,5.211" transform="translate(-173.091 -59.818)" fill="#407bff"/>
                </g>
              </g>
            </g>
            <path id="Path_609661" data-name="Path 609661" d="M164.3,87.665l7.513,1.4.788-6.3s-6.178.356-8.3,2.329Z" transform="translate(-38.311 -19.299)" fill="#ff8b7b"/>
            <path id="Path_609662" data-name="Path 609662" d="M175.986,89.049l1.319-4.184a.651.651,0,0,0-.273-.746l-2.144-1.353-.788,6.3,1.033.393a.651.651,0,0,0,.853-.413" transform="translate(-40.595 -19.299)" fill="#ff8b7b"/>
          </g>
        </g>
      </g>
    </g>
    <path id="Path_213857" data-name="Path 213857" d="M3.637,28.71,0,25.074,10.718,14.355,0,3.637,3.637,0,17.993,14.355Z" transform="translate(703.875 2905.014) rotate(180)" fill="#18b8c4"/>
    <path id="Path_213858" data-name="Path 213858" d="M0,14.9,5.633,9.27,0,3.637,3.637,0l9.272,9.27L3.637,18.54Z" transform="translate(712.828 2899.928) rotate(180)" fill="#18b8c4"/>
    <path id="Path_213857-2" data-name="Path 213857" d="M3.637,28.71,0,25.074,10.718,14.355,0,3.637,3.637,0,17.993,14.355Z" transform="translate(576.047 3010.898) rotate(180)" fill="#18b8c4"/>
    <path id="Path_213858-2" data-name="Path 213858" d="M0,14.9,5.633,9.27,0,3.637,3.637,0l9.272,9.27L3.637,18.54Z" transform="translate(585 3005.813) rotate(180)" fill="#18b8c4"/>
    <path id="Path_213857-3" data-name="Path 213857" d="M3.637,28.71,0,25.074,10.718,14.355,0,3.637,3.637,0,17.993,14.355Z" transform="translate(492.993 3123.361) rotate(180)" fill="#18b8c4"/>
    <path id="Path_213858-3" data-name="Path 213858" d="M0,14.9,5.633,9.27,0,3.637,3.637,0l9.272,9.27L3.637,18.54Z" transform="translate(501.946 3118.275) rotate(180)" fill="#18b8c4"/>
    <path id="Path_213857-4" data-name="Path 213857" d="M3.637,0,0,3.637,10.718,14.355,0,25.074l3.637,3.637L17.993,14.355Z" transform="translate(897.007 2876.303)" fill="#18b8c4"/>
    <path id="Path_213858-4" data-name="Path 213858" d="M0,3.637,5.633,9.27,0,14.9,3.637,18.54l9.272-9.27L3.637,0Z" transform="translate(888.054 2881.388)" fill="#18b8c4"/>
    <path id="Path_213857-5" data-name="Path 213857" d="M3.637,0,0,3.637,10.718,14.355,0,25.074l3.637,3.637L17.993,14.355Z" transform="translate(1002.007 2982.188)" fill="#18b8c4"/>
    <path id="Path_213858-5" data-name="Path 213858" d="M0,3.637,5.633,9.27,0,14.9,3.637,18.54l9.272-9.27L3.637,0Z" transform="translate(993.054 2987.272)" fill="#18b8c4"/>
    <path id="Path_213857-6" data-name="Path 213857" d="M3.637,0,0,3.637,10.718,14.355,0,25.074l3.637,3.637L17.993,14.355Z" transform="translate(1107.007 3101.184)" fill="#18b8c4"/>
    <path id="Path_213858-6" data-name="Path 213858" d="M0,3.637,5.633,9.27,0,14.9,3.637,18.54l9.272-9.27L3.637,0Z" transform="translate(1098.054 3106.268)" fill="#18b8c4"/>
    <path id="Path_213857-7" data-name="Path 213857" d="M3.637,0,0,3.637,10.718,14.355,0,25.074l3.637,3.637L17.993,14.355Z" transform="translate(1044.13 3219.744)" fill="#18b8c4"/>
    <path id="Path_213858-7" data-name="Path 213858" d="M0,3.637,5.633,9.27,0,14.9,3.637,18.54l9.272-9.27L3.637,0Z" transform="translate(1035.177 3224.828)" fill="#18b8c4"/>
    <path id="Path_194909" data-name="Path 194909" d="M22.678,0A22.678,22.678,0,1,0,45.356,22.678,22.678,22.678,0,0,0,22.678,0Z" transform="translate(1060.125 2867.822)" fill="#eeac3a" opacity="0.28"/>
    <path id="Path_191051" data-name="Path 191051" d="M13.9,0A13.9,13.9,0,1,0,27.8,13.9,13.9,13.9,0,0,0,13.9,0Z" transform="translate(1069.071 2876.939)" fill="#eeac3a"/>
    <path id="Path_612794" data-name="Path 612794" d="M6.777-6.041H10.3V-8.59H6.777v-3.984H4.092V-8.59H.557v2.549H4.092v3.818H6.777Z" transform="translate(1088.827 2883.058) rotate(180)" fill="#12263f"/>
    <path id="Path_194909-2" data-name="Path 194909" d="M22.678,0A22.678,22.678,0,1,0,45.356,22.678,22.678,22.678,0,0,0,22.678,0Z" transform="translate(495 2872.582)" fill="#eeac3a" opacity="0.28"/>
    <path id="Path_191051-2" data-name="Path 191051" d="M13.9,0A13.9,13.9,0,1,0,27.8,13.9,13.9,13.9,0,0,0,13.9,0Z" transform="translate(503.946 2881.699)" fill="#eeac3a"/>
    <path id="Path_612786" data-name="Path 612786" d="M6.777-6.041H10.3V-8.59H6.777v-3.984H4.092V-8.59H.557v2.549H4.092v3.818H6.777Z" transform="translate(523.702 2887.817) rotate(180)" fill="#12263f"/>
    <path id="Path_194909-3" data-name="Path 194909" d="M22.678,0A22.678,22.678,0,1,0,45.356,22.678,22.678,22.678,0,0,0,22.678,0Z" transform="translate(368.322 2968.539)" fill="#eeac3a" opacity="0.28"/>
    <path id="Path_191051-3" data-name="Path 191051" d="M13.9,0A13.9,13.9,0,1,0,27.8,13.9,13.9,13.9,0,0,0,13.9,0Z" transform="translate(377.268 2977.656)" fill="#eeac3a"/>
    <path id="Path_612785" data-name="Path 612785" d="M6.777-6.041H10.3V-8.59H6.777v-3.984H4.092V-8.59H.557v2.549H4.092v3.818H6.777Z" transform="translate(397.024 2983.774) rotate(180)" fill="#12263f"/>
    <path id="Path_194909-4" data-name="Path 194909" d="M22.678,0A22.678,22.678,0,1,0,45.356,22.678,22.678,22.678,0,0,0,22.678,0Z" transform="translate(285 3086.329)" fill="#eeac3a" opacity="0.28"/>
    <path id="Path_191051-4" data-name="Path 191051" d="M13.9,0A13.9,13.9,0,1,0,27.8,13.9,13.9,13.9,0,0,0,13.9,0Z" transform="translate(293.946 3095.446)" fill="#eeac3a"/>
    <path id="Path_612790" data-name="Path 612790" d="M6.777-6.041H10.3V-8.59H6.777v-3.984H4.092V-8.59H.557v2.549H4.092v3.818H6.777Z" transform="translate(313.702 3101.564) rotate(180)" fill="#12263f"/>
    <path id="Path_194909-5" data-name="Path 194909" d="M22.678,0A22.678,22.678,0,1,0,45.356,22.678,22.678,22.678,0,0,0,22.678,0Z" transform="translate(1164.645 2973.865)" fill="#eeac3a" opacity="0.28"/>
    <path id="Path_191051-5" data-name="Path 191051" d="M13.9,0A13.9,13.9,0,1,0,27.8,13.9,13.9,13.9,0,0,0,13.9,0Z" transform="translate(1173.59 2982.982)" fill="#eeac3a"/>
    <path id="Path_612796" data-name="Path 612796" d="M6.777-6.041H10.3V-8.59H6.777v-3.984H4.092V-8.59H.557v2.549H4.092v3.818H6.777Z" transform="translate(1193.346 2989.101) rotate(180)" fill="#12263f"/>
    <path id="Path_194909-6" data-name="Path 194909" d="M22.678,0A22.678,22.678,0,1,0,45.356,22.678,22.678,22.678,0,0,0,22.678,0Z" transform="translate(1269.645 3093.144)" fill="#eeac3a" opacity="0.28"/>
    <path id="Path_191051-6" data-name="Path 191051" d="M13.9,0A13.9,13.9,0,1,0,27.8,13.9,13.9,13.9,0,0,0,13.9,0Z" transform="translate(1278.59 3102.261)" fill="#eeac3a"/>
    <path id="Path_612801" data-name="Path 612801" d="M6.777-6.041H10.3V-8.59H6.777v-3.984H4.092V-8.59H.557v2.549H4.092v3.818H6.777Z" transform="translate(1298.346 3108.379) rotate(180)" fill="#12263f"/>
    <path id="Path_194909-7" data-name="Path 194909" d="M22.678,0A22.678,22.678,0,1,0,45.356,22.678,22.678,22.678,0,0,0,22.678,0Z" transform="translate(1210 3212.422)" fill="#eeac3a" opacity="0.28"/>
    <path id="Path_191051-7" data-name="Path 191051" d="M13.9,0A13.9,13.9,0,1,0,27.8,13.9,13.9,13.9,0,0,0,13.9,0Z" transform="translate(1218.946 3221.539)" fill="#eeac3a"/>
    <path id="Path_612798" data-name="Path 612798" d="M6.777-6.041H10.3V-8.59H6.777v-3.984H4.092V-8.59H.557v2.549H4.092v3.818H6.777Z" transform="translate(1238.702 3227.657) rotate(180)" fill="#12263f"/>
    <path id="Path_612797" data-name="Path 612797" d="M-67.93,0V-11.375h3.5a5.315,5.315,0,0,1,2.684.676A4.712,4.712,0,0,1-59.9-8.777a5.928,5.928,0,0,1,.664,2.832v.523a5.945,5.945,0,0,1-.652,2.82,4.672,4.672,0,0,1-1.84,1.914A5.355,5.355,0,0,1-64.406,0Zm2.344-9.477v7.594h1.133a2.545,2.545,0,0,0,2.1-.9,4.06,4.06,0,0,0,.742-2.57v-.6a4.124,4.124,0,0,0-.719-2.629,2.537,2.537,0,0,0-2.1-.895ZM-52.781,0a2.507,2.507,0,0,1-.227-.758,2.732,2.732,0,0,1-2.133.914A3,3,0,0,1-57.2-.562a2.312,2.312,0,0,1-.816-1.812,2.389,2.389,0,0,1,1-2.062,4.915,4.915,0,0,1,2.879-.727H-53.1v-.484a1.393,1.393,0,0,0-.3-.937,1.183,1.183,0,0,0-.949-.352,1.345,1.345,0,0,0-.895.273.929.929,0,0,0-.324.75h-2.258a2.268,2.268,0,0,1,.453-1.359,3,3,0,0,1,1.281-.98,4.669,4.669,0,0,1,1.859-.355,3.689,3.689,0,0,1,2.48.785,2.747,2.747,0,0,1,.918,2.207v3.664A4.041,4.041,0,0,0-50.5-.133V0Zm-1.867-1.57a1.945,1.945,0,0,0,.922-.223,1.462,1.462,0,0,0,.625-.6V-3.844h-.844q-1.7,0-1.8,1.172l-.008.133a.9.9,0,0,0,.3.7A1.153,1.153,0,0,0-54.648-1.57Zm8.25-8.961v2.078h1.445V-6.8H-46.4v4.219a1.007,1.007,0,0,0,.18.672.9.9,0,0,0,.688.2,3.6,3.6,0,0,0,.664-.055V-.047a4.648,4.648,0,0,1-1.367.2,2.156,2.156,0,0,1-2.422-2.4V-6.8h-1.234V-8.453h1.234v-2.078ZM-44.281-4.3A5.013,5.013,0,0,1-43.8-6.547,3.546,3.546,0,0,1-42.4-8.07a4.069,4.069,0,0,1,2.113-.539A3.849,3.849,0,0,1-37.5-7.562a4.2,4.2,0,0,1,1.207,2.844l.016.578A4.418,4.418,0,0,1-37.359-1.02,3.775,3.775,0,0,1-40.273.156a3.793,3.793,0,0,1-2.918-1.172A4.5,4.5,0,0,1-44.281-4.2Zm2.258.16A3.16,3.16,0,0,0-41.57-2.3a1.5,1.5,0,0,0,1.3.638,1.5,1.5,0,0,0,1.281-.63,3.457,3.457,0,0,0,.461-2.015,3.128,3.128,0,0,0-.461-1.831,1.5,1.5,0,0,0-1.3-.649,1.474,1.474,0,0,0-1.281.646A3.516,3.516,0,0,0-42.023-4.144ZM-30.3-2.336a.727.727,0,0,0-.41-.652,4.659,4.659,0,0,0-1.316-.426q-3.016-.633-3.016-2.562a2.323,2.323,0,0,1,.934-1.879,3.766,3.766,0,0,1,2.441-.754,4.053,4.053,0,0,1,2.574.758,2.388,2.388,0,0,1,.965,1.969h-2.258a1.092,1.092,0,0,0-.312-.8A1.322,1.322,0,0,0-31.68-7a1.351,1.351,0,0,0-.883.258.814.814,0,0,0-.312.656.7.7,0,0,0,.355.605,3.657,3.657,0,0,0,1.2.4A9.8,9.8,0,0,1-29.9-4.7,2.336,2.336,0,0,1-28.109-2.43,2.2,2.2,0,0,1-29.1-.559a4.28,4.28,0,0,1-2.562.715,4.47,4.47,0,0,1-1.887-.379,3.166,3.166,0,0,1-1.293-1.039,2.414,2.414,0,0,1-.469-1.426h2.141a1.179,1.179,0,0,0,.445.922,1.766,1.766,0,0,0,1.109.32,1.635,1.635,0,0,0,.98-.246A.766.766,0,0,0-30.3-2.336Zm12.211,0a.727.727,0,0,0-.41-.652,4.659,4.659,0,0,0-1.316-.426q-3.016-.633-3.016-2.562A2.323,2.323,0,0,1-21.9-7.855a3.766,3.766,0,0,1,2.441-.754,4.053,4.053,0,0,1,2.574.758,2.388,2.388,0,0,1,.965,1.969H-18.18a1.092,1.092,0,0,0-.312-.8A1.322,1.322,0,0,0-19.469-7a1.351,1.351,0,0,0-.883.258.814.814,0,0,0-.312.656.7.7,0,0,0,.355.605,3.657,3.657,0,0,0,1.2.4,9.8,9.8,0,0,1,1.422.379A2.336,2.336,0,0,1-15.9-2.43a2.205,2.205,0,0,1-.992,1.871,4.28,4.28,0,0,1-2.562.715A4.47,4.47,0,0,1-21.34-.223a3.166,3.166,0,0,1-1.293-1.039A2.414,2.414,0,0,1-23.1-2.687h2.141a1.179,1.179,0,0,0,.445.922,1.766,1.766,0,0,0,1.109.32,1.635,1.635,0,0,0,.98-.246A.766.766,0,0,0-18.094-2.336ZM-10.555.156A4.15,4.15,0,0,1-13.582-.984,4.054,4.054,0,0,1-14.75-4.023v-.219a5.106,5.106,0,0,1,.492-2.277,3.612,3.612,0,0,1,1.395-1.547A3.914,3.914,0,0,1-10.8-8.609a3.508,3.508,0,0,1,2.73,1.094,4.444,4.444,0,0,1,1,3.1v.922h-5.383a2.1,2.1,0,0,0,.66,1.328,2,2,0,0,0,1.395.5,2.437,2.437,0,0,0,2.039-.945l1.109,1.242A3.389,3.389,0,0,1-8.633-.246,4.511,4.511,0,0,1-10.555.156Zm-.258-6.945a1.411,1.411,0,0,0-1.09.455,2.357,2.357,0,0,0-.535,1.3H-9.3v-.181A1.681,1.681,0,0,0-9.7-6.377,1.456,1.456,0,0,0-10.812-6.789Zm4.688,2.5A4.954,4.954,0,0,1-5.2-7.422,3,3,0,0,1-2.7-8.609a2.631,2.631,0,0,1,2.164.953l.094-.8H1.6V-.281a3.613,3.613,0,0,1-.5,1.93A3.236,3.236,0,0,1-.32,2.9a4.985,4.985,0,0,1-2.141.43,4.635,4.635,0,0,1-1.812-.371A3.217,3.217,0,0,1-5.609,2l1-1.375a2.645,2.645,0,0,0,2.047.945,1.936,1.936,0,0,0,1.4-.48,1.8,1.8,0,0,0,.5-1.363V-.727A2.612,2.612,0,0,1-2.719.156,2.992,2.992,0,0,1-5.184-1.035,4.953,4.953,0,0,1-6.125-4.2Zm2.258.168a3.085,3.085,0,0,0,.461,1.8,1.466,1.466,0,0,0,1.266.653A1.568,1.568,0,0,0-.664-2.439V-6a1.564,1.564,0,0,0-1.461-.775A1.476,1.476,0,0,0-3.4-6.108,3.477,3.477,0,0,0-3.867-4.121ZM8.4-.859A2.831,2.831,0,0,1,6.086.156,2.67,2.67,0,0,1,4.012-.625a3.335,3.335,0,0,1-.73-2.289V-8.453H5.539v5.467q0,1.322,1.2,1.322a1.63,1.63,0,0,0,1.578-.8V-8.453h2.266V0H8.461ZM7.391-12H9.852L7.688-9.578H5.852Zm6.977,3.547.07.977a2.951,2.951,0,0,1,2.43-1.133,2.453,2.453,0,0,1,2,.789,3.682,3.682,0,0,1,.672,2.359V0H17.281V-5.406a1.465,1.465,0,0,0-.312-1.043,1.4,1.4,0,0,0-1.039-.324,1.553,1.553,0,0,0-1.43.813V0H12.242V-8.453ZM29.125.156A4.15,4.15,0,0,1,26.1-.984,4.054,4.054,0,0,1,24.93-4.023v-.219a5.106,5.106,0,0,1,.492-2.277,3.612,3.612,0,0,1,1.395-1.547,3.914,3.914,0,0,1,2.059-.543,3.508,3.508,0,0,1,2.73,1.094,4.444,4.444,0,0,1,1,3.1v.922H27.219a2.1,2.1,0,0,0,.66,1.328,2,2,0,0,0,1.395.5,2.437,2.437,0,0,0,2.039-.945l1.109,1.242A3.389,3.389,0,0,1,31.047-.246,4.511,4.511,0,0,1,29.125.156Zm-.258-6.945a1.411,1.411,0,0,0-1.09.455,2.357,2.357,0,0,0-.535,1.3h3.141v-.181a1.681,1.681,0,0,0-.406-1.165A1.456,1.456,0,0,0,28.867-6.789ZM36.266,0H34V-12h2.266Zm8.547-10.531v2.078h1.445V-6.8H44.813v4.219a1.007,1.007,0,0,0,.18.672.9.9,0,0,0,.688.2,3.6,3.6,0,0,0,.664-.055V-.047a4.648,4.648,0,0,1-1.367.2,2.156,2.156,0,0,1-2.422-2.4V-6.8H41.32V-8.453h1.234v-2.078ZM49.9,0H47.633V-8.453H49.9ZM47.5-10.641a1.112,1.112,0,0,1,.34-.836,1.277,1.277,0,0,1,.926-.328,1.28,1.28,0,0,1,.922.328,1.105,1.105,0,0,1,.344.836,1.108,1.108,0,0,1-.348.844,1.283,1.283,0,0,1-.918.328,1.283,1.283,0,0,1-.918-.328A1.108,1.108,0,0,1,47.5-10.641ZM59.367-4.148A5.07,5.07,0,0,1,58.48-1.02,2.843,2.843,0,0,1,56.086.156a2.633,2.633,0,0,1-2.07-.891V3.25H51.758v-11.7h2.094l.078.828a2.654,2.654,0,0,1,2.141-.984A2.862,2.862,0,0,1,58.5-7.453a5.207,5.207,0,0,1,.867,3.188Zm-2.258-.164a3.327,3.327,0,0,0-.418-1.82,1.361,1.361,0,0,0-1.215-.641,1.479,1.479,0,0,0-1.461.813V-2.5a1.5,1.5,0,0,0,1.477.836Q57.109-1.664,57.109-4.312Zm3.3.008A5.013,5.013,0,0,1,60.9-6.547,3.546,3.546,0,0,1,62.293-8.07a4.069,4.069,0,0,1,2.113-.539A3.849,3.849,0,0,1,67.2-7.562a4.2,4.2,0,0,1,1.207,2.844l.016.578A4.418,4.418,0,0,1,67.336-1.02,3.775,3.775,0,0,1,64.422.156,3.793,3.793,0,0,1,61.5-1.016,4.5,4.5,0,0,1,60.414-4.2Zm2.258.16A3.16,3.16,0,0,0,63.125-2.3a1.5,1.5,0,0,0,1.3.638,1.5,1.5,0,0,0,1.281-.63,3.457,3.457,0,0,0,.461-2.015A3.128,3.128,0,0,0,65.7-6.14a1.5,1.5,0,0,0-1.3-.649,1.474,1.474,0,0,0-1.281.646A3.516,3.516,0,0,0,62.672-4.144Z" transform="translate(1246 2798.21)" fill="#12263f"/>
  </g>
</svg>
